<svg id="svg" version="1.1" width="400" height="400" xmlns="http://www.w3.org/2000/svg" xmlns:xlink="http://www.w3.org/1999/xlink" style="display: block;"><g id="svgg"><path id="path0" d="" stroke="none" fill="#0000ff" fill-rule="evenodd"></path><path id="path1" d="M183.203 3.373 C 183.203 3.559,181.709 3.649,179.883 3.573 C 177.640 3.480,176.563 3.575,176.563 3.866 C 176.563 4.141,175.514 4.297,173.656 4.297 C 172.057 4.297,170.641 4.473,170.508 4.688 C 170.375 4.902,169.310 5.078,168.141 5.078 C 166.972 5.078,166.016 5.254,166.016 5.469 C 166.016 5.684,165.049 5.859,163.867 5.859 C 162.686 5.859,161.719 6.035,161.719 6.250 C 161.719 6.465,160.963 6.641,160.039 6.641 C 159.115 6.641,158.144 6.856,157.882 7.118 C 157.619 7.381,156.793 7.543,156.046 7.479 C 155.264 7.412,154.688 7.540,154.688 7.783 C 154.688 8.014,153.995 8.203,153.148 8.203 C 152.301 8.203,151.500 8.379,151.367 8.594 C 151.234 8.809,150.619 8.984,150.000 8.984 C 149.381 8.984,148.766 9.160,148.633 9.375 C 148.500 9.590,147.885 9.766,147.266 9.766 C 146.646 9.766,146.031 9.941,145.898 10.156 C 145.766 10.371,145.150 10.547,144.531 10.547 C 143.912 10.547,143.297 10.723,143.164 10.938 C 143.031 11.152,142.416 11.328,141.797 11.328 C 141.178 11.328,140.562 11.504,140.430 11.719 C 140.297 11.934,139.770 12.109,139.258 12.109 C 138.746 12.109,138.240 12.250,138.134 12.423 C 138.027 12.595,137.039 12.981,135.938 13.281 C 134.836 13.581,133.848 13.968,133.741 14.140 C 133.635 14.312,133.154 14.453,132.672 14.453 C 132.191 14.453,131.630 14.593,131.426 14.765 C 131.222 14.936,130.088 15.391,128.906 15.775 C 126.661 16.504,125.269 17.043,124.126 17.624 C 123.753 17.813,123.182 17.969,122.857 17.969 C 122.532 17.969,122.266 18.145,122.266 18.359 C 122.266 18.574,121.826 18.750,121.289 18.750 C 120.752 18.750,120.313 18.926,120.313 19.141 C 120.313 19.355,119.980 19.531,119.573 19.531 C 119.166 19.531,118.728 19.807,118.598 20.144 C 118.442 20.551,118.101 20.674,117.580 20.508 C 117.130 20.366,116.797 20.437,116.797 20.677 C 116.797 20.906,116.445 21.094,116.016 21.094 C 115.586 21.094,115.234 21.270,115.234 21.484 C 115.234 21.699,114.883 21.875,114.453 21.875 C 114.023 21.875,113.672 22.051,113.672 22.266 C 113.672 22.480,113.320 22.656,112.891 22.656 C 112.461 22.656,112.109 22.832,112.109 23.047 C 112.109 23.262,111.758 23.438,111.328 23.438 C 110.898 23.438,110.547 23.613,110.547 23.828 C 110.547 24.043,110.195 24.219,109.766 24.219 C 109.336 24.219,108.984 24.362,108.984 24.536 C 108.984 24.711,108.369 25.096,107.617 25.391 C 106.865 25.686,106.250 26.070,106.250 26.245 C 106.250 26.420,105.898 26.563,105.469 26.563 C 105.039 26.563,104.688 26.738,104.688 26.953 C 104.688 27.168,104.424 27.344,104.102 27.344 C 103.779 27.344,103.516 27.520,103.516 27.734 C 103.516 27.949,103.164 28.125,102.734 28.125 C 102.305 28.125,101.953 28.301,101.953 28.516 C 101.953 28.730,101.689 28.906,101.367 28.906 C 101.045 28.906,100.781 29.049,100.781 29.224 C 100.781 29.399,100.166 29.783,99.414 30.078 C 98.662 30.373,98.047 30.758,98.047 30.932 C 98.047 31.107,97.783 31.250,97.461 31.250 C 97.139 31.250,96.875 31.426,96.875 31.641 C 96.875 31.855,96.611 32.031,96.289 32.031 C 95.967 32.031,95.703 32.207,95.703 32.422 C 95.703 32.637,95.515 32.813,95.285 32.812 C 94.746 32.812,91.356 35.125,90.735 35.917 C 90.473 36.250,90.254 36.385,90.247 36.216 C 90.236 35.939,85.627 38.858,85.156 39.441 C 85.049 39.573,84.126 40.202,83.106 40.837 C 82.086 41.472,81.251 42.124,81.251 42.285 C 81.250 42.446,81.076 42.578,80.864 42.578 C 80.453 42.578,79.388 43.385,77.898 44.824 C 77.398 45.308,76.805 45.703,76.580 45.703 C 76.356 45.703,76.172 45.986,76.172 46.331 C 76.172 46.738,75.959 46.877,75.566 46.726 C 75.218 46.593,75.061 46.658,75.198 46.879 C 75.329 47.092,75.233 47.266,74.984 47.266 C 74.736 47.266,74.040 47.793,73.438 48.437 C 72.835 49.082,72.232 49.609,72.096 49.609 C 71.960 49.609,71.255 50.181,70.529 50.879 C 69.803 51.577,67.940 53.291,66.389 54.688 C 61.803 58.816,61.347 59.264,61.533 59.450 C 61.631 59.547,61.185 60.131,60.543 60.746 C 59.901 61.361,59.375 61.734,59.375 61.575 C 59.375 61.415,58.452 62.291,57.324 63.521 C 56.196 64.751,54.307 66.772,53.125 68.012 C 51.943 69.252,50.537 70.811,50.000 71.476 C 49.463 72.140,48.540 73.224,47.949 73.883 C 47.358 74.543,46.875 75.234,46.875 75.418 C 46.875 75.603,46.345 76.332,45.698 77.037 C 43.725 79.188,43.203 79.829,42.188 81.347 C 41.650 82.150,41.100 82.808,40.965 82.810 C 40.830 82.811,40.501 83.340,40.234 83.984 C 39.967 84.629,39.636 85.156,39.498 85.156 C 39.360 85.156,38.812 85.859,38.281 86.719 C 37.750 87.578,37.195 88.281,37.048 88.281 C 36.901 88.281,36.665 88.809,36.523 89.453 C 36.382 90.098,36.016 90.625,35.711 90.625 C 35.406 90.625,35.156 90.889,35.156 91.211 C 35.156 91.533,35.002 91.797,34.813 91.797 C 34.624 91.797,34.251 92.324,33.984 92.969 C 33.717 93.613,33.366 94.141,33.203 94.141 C 33.040 94.141,32.689 94.668,32.422 95.313 C 32.155 95.957,31.782 96.484,31.593 96.484 C 31.404 96.484,31.250 96.836,31.250 97.266 C 31.250 97.695,31.096 98.047,30.907 98.047 C 30.718 98.047,30.345 98.574,30.078 99.219 C 29.811 99.863,29.438 100.391,29.249 100.391 C 29.061 100.391,28.906 100.742,28.906 101.172 C 28.906 101.602,28.730 101.953,28.516 101.953 C 28.301 101.953,28.125 102.224,28.125 102.555 C 28.125 102.887,27.773 103.535,27.344 103.996 C 26.914 104.457,26.563 105.065,26.563 105.347 C 26.563 105.629,26.387 105.859,26.172 105.859 C 25.957 105.859,25.781 106.211,25.781 106.641 C 25.781 107.070,25.605 107.422,25.391 107.422 C 25.176 107.422,25.000 107.773,25.000 108.203 C 25.000 108.633,24.824 108.984,24.609 108.984 C 24.395 108.984,24.219 109.336,24.219 109.766 C 24.219 110.195,24.043 110.547,23.828 110.547 C 23.613 110.547,23.438 110.898,23.438 111.328 C 23.438 111.758,23.262 112.109,23.047 112.109 C 22.832 112.109,22.656 112.461,22.656 112.891 C 22.656 113.320,22.480 113.672,22.266 113.672 C 22.051 113.672,21.875 114.023,21.875 114.453 C 21.875 114.883,21.715 115.234,21.519 115.234 C 21.323 115.234,21.046 115.924,20.904 116.766 C 20.761 117.609,20.394 118.394,20.088 118.512 C 19.782 118.629,19.531 119.083,19.531 119.519 C 19.531 119.955,19.355 120.313,19.141 120.313 C 18.926 120.313,18.750 120.571,18.750 120.887 C 18.750 121.202,18.400 122.085,17.971 122.847 C 17.543 123.610,17.215 124.362,17.242 124.519 C 17.342 125.090,16.692 127.344,16.428 127.344 C 16.279 127.344,15.918 128.223,15.625 129.297 C 15.332 130.371,14.949 131.250,14.773 131.250 C 14.597 131.250,14.453 131.679,14.453 132.204 C 14.453 132.728,14.277 133.266,14.063 133.398 C 13.848 133.531,13.672 134.059,13.672 134.570 C 13.672 135.082,13.496 135.609,13.281 135.742 C 13.066 135.875,12.891 136.402,12.891 136.914 C 12.891 137.426,12.715 137.953,12.500 138.086 C 12.285 138.219,12.109 138.746,12.109 139.258 C 12.109 139.770,11.934 140.297,11.719 140.430 C 11.504 140.562,11.328 141.090,11.328 141.602 C 11.328 142.113,11.152 142.641,10.937 142.773 C 10.723 142.906,10.547 143.620,10.547 144.359 C 10.547 145.098,10.371 145.703,10.156 145.703 C 9.941 145.703,9.766 146.220,9.766 146.852 C 9.766 147.484,9.590 148.109,9.375 148.242 C 9.160 148.375,8.984 149.088,8.984 149.828 C 8.984 150.567,8.809 151.172,8.594 151.172 C 8.379 151.172,8.203 151.865,8.203 152.711 C 8.203 153.558,8.012 154.369,7.777 154.514 C 7.526 154.669,7.449 155.297,7.590 156.045 C 7.756 156.933,7.649 157.462,7.234 157.806 C 6.893 158.089,6.641 158.933,6.641 159.790 C 6.641 160.611,6.465 161.391,6.250 161.523 C 6.035 161.656,5.859 162.721,5.859 163.890 C 5.859 165.059,5.684 166.016,5.469 166.016 C 5.254 166.016,5.078 166.972,5.078 168.141 C 5.078 169.310,4.902 170.375,4.688 170.508 C 4.473 170.641,4.297 171.959,4.297 173.438 C 4.297 174.967,4.112 176.240,3.868 176.391 C 3.602 176.555,3.480 177.784,3.545 179.636 C 3.604 181.276,3.512 182.929,3.343 183.310 C 2.663 184.836,3.275 223.306,3.992 224.097 C 4.511 224.671,4.602 225.284,4.424 227.007 C 4.277 228.432,4.351 229.284,4.638 229.462 C 4.880 229.611,5.078 230.680,5.078 231.836 C 5.078 232.992,5.254 234.047,5.469 234.180 C 5.684 234.312,5.859 235.254,5.859 236.273 C 5.859 237.292,6.017 238.292,6.210 238.496 C 6.535 238.841,6.688 239.632,7.278 244.043 C 7.401 244.956,7.659 245.703,7.852 245.703 C 8.045 245.703,8.203 246.406,8.203 247.266 C 8.203 248.125,8.379 248.828,8.594 248.828 C 8.809 248.828,8.984 249.433,8.984 250.172 C 8.984 250.912,9.160 251.625,9.375 251.758 C 9.590 251.891,9.766 252.522,9.766 253.160 C 9.766 253.849,10.012 254.416,10.372 254.554 C 10.807 254.721,10.911 255.093,10.739 255.872 C 10.606 256.478,10.684 257.070,10.915 257.212 C 11.142 257.353,11.328 257.887,11.328 258.398 C 11.328 258.910,11.504 259.438,11.719 259.570 C 11.934 259.703,12.109 260.230,12.109 260.742 C 12.109 261.254,12.285 261.781,12.500 261.914 C 12.715 262.047,12.891 262.574,12.891 263.086 C 12.891 263.598,13.066 264.125,13.281 264.258 C 13.496 264.391,13.672 264.918,13.672 265.430 C 13.672 265.941,13.848 266.469,14.063 266.602 C 14.277 266.734,14.453 267.272,14.453 267.796 C 14.453 268.321,14.591 268.750,14.758 268.750 C 14.926 268.750,15.304 269.585,15.598 270.605 C 15.891 271.626,16.450 273.098,16.838 273.877 C 17.227 274.656,17.456 275.383,17.347 275.492 C 17.238 275.600,17.509 276.331,17.950 277.114 C 18.390 277.898,18.750 278.798,18.750 279.113 C 18.750 279.429,18.926 279.688,19.141 279.688 C 19.355 279.688,19.531 280.022,19.531 280.432 C 19.531 281.229,21.095 284.484,21.582 284.701 C 21.743 284.772,21.875 285.168,21.875 285.579 C 21.875 285.991,22.051 286.328,22.266 286.328 C 22.480 286.328,22.656 286.680,22.656 287.109 C 22.656 287.539,22.832 287.891,23.047 287.891 C 23.262 287.891,23.438 288.242,23.438 288.672 C 23.438 289.102,23.613 289.453,23.828 289.453 C 24.043 289.453,24.219 289.805,24.219 290.234 C 24.219 290.664,24.395 291.016,24.609 291.016 C 24.824 291.016,25.000 291.367,25.000 291.797 C 25.000 292.227,25.176 292.578,25.391 292.578 C 25.605 292.578,25.781 292.930,25.781 293.359 C 25.781 293.789,25.957 294.141,26.172 294.141 C 26.387 294.141,26.562 294.371,26.562 294.653 C 26.562 294.935,26.914 295.543,27.344 296.004 C 27.773 296.465,28.125 297.113,28.125 297.445 C 28.125 297.776,28.301 298.047,28.516 298.047 C 28.730 298.047,28.906 298.398,28.906 298.828 C 28.906 299.258,29.082 299.609,29.297 299.609 C 29.512 299.609,29.687 299.840,29.687 300.122 C 29.687 300.403,30.039 301.011,30.469 301.473 C 30.898 301.934,31.250 302.582,31.250 302.913 C 31.250 303.245,31.404 303.516,31.593 303.516 C 31.782 303.516,32.155 304.043,32.422 304.688 C 32.689 305.332,33.062 305.859,33.251 305.859 C 33.439 305.859,33.594 306.090,33.594 306.372 C 33.594 306.653,33.945 307.261,34.375 307.723 C 34.805 308.184,35.156 308.744,35.156 308.968 C 35.156 309.192,35.354 309.331,35.596 309.277 C 35.837 309.224,36.215 309.707,36.436 310.352 C 36.656 310.996,36.950 311.611,37.089 311.719 C 37.228 311.826,37.768 312.529,38.287 313.281 C 38.807 314.033,39.458 314.881,39.733 315.165 C 40.009 315.449,40.234 315.817,40.234 315.984 C 40.234 316.150,40.606 316.709,41.061 317.225 C 41.515 317.742,42.174 318.603,42.526 319.140 C 43.297 320.321,44.362 321.614,45.801 323.121 C 46.392 323.740,46.875 324.397,46.875 324.582 C 46.875 324.766,47.402 325.482,48.047 326.172 C 48.691 326.862,49.219 327.572,49.219 327.749 C 49.219 327.927,49.570 328.184,50.000 328.320 C 50.430 328.457,50.781 328.810,50.781 329.106 C 50.781 329.402,51.792 330.681,53.027 331.948 C 54.263 333.216,56.172 335.243,57.270 336.451 C 58.369 337.660,59.362 338.555,59.478 338.439 C 59.594 338.323,60.014 338.693,60.411 339.262 C 61.327 340.576,63.695 342.984,66.642 345.598 C 70.082 348.651,70.790 349.219,71.154 349.219 C 71.335 349.219,71.484 349.407,71.484 349.637 C 71.484 350.106,72.451 351.172,72.875 351.172 C 73.027 351.172,73.435 351.498,73.782 351.897 C 74.130 352.296,74.810 352.748,75.293 352.900 C 75.776 353.053,76.172 353.429,76.172 353.737 C 76.172 354.045,76.365 354.297,76.601 354.297 C 76.837 354.297,77.523 354.824,78.125 355.469 C 78.727 356.113,79.413 356.641,79.649 356.641 C 79.885 356.641,80.078 356.816,80.078 357.031 C 80.078 357.246,80.342 357.422,80.664 357.422 C 80.986 357.422,81.250 357.554,81.251 357.715 C 81.251 357.876,82.086 358.528,83.106 359.163 C 84.126 359.798,85.049 360.427,85.156 360.559 C 85.627 361.142,90.236 364.061,90.247 363.784 C 90.254 363.615,90.473 363.750,90.735 364.083 C 91.356 364.875,94.746 367.187,95.285 367.188 C 95.515 367.188,95.703 367.363,95.703 367.578 C 95.703 367.793,95.967 367.969,96.289 367.969 C 96.611 367.969,96.875 368.145,96.875 368.359 C 96.875 368.574,97.139 368.750,97.461 368.750 C 97.783 368.750,98.047 368.893,98.047 369.068 C 98.047 369.242,98.662 369.627,99.414 369.922 C 100.166 370.217,100.781 370.601,100.781 370.776 C 100.781 370.951,101.045 371.094,101.367 371.094 C 101.689 371.094,101.953 371.270,101.953 371.484 C 101.953 371.699,102.305 371.875,102.734 371.875 C 103.164 371.875,103.516 372.051,103.516 372.266 C 103.516 372.480,103.779 372.656,104.102 372.656 C 104.424 372.656,104.688 372.832,104.688 373.047 C 104.688 373.262,105.039 373.438,105.469 373.438 C 105.898 373.438,106.250 373.580,106.250 373.755 C 106.250 373.930,106.865 374.314,107.617 374.609 C 108.369 374.904,108.984 375.289,108.984 375.464 C 108.984 375.638,109.336 375.781,109.766 375.781 C 110.195 375.781,110.547 375.957,110.547 376.172 C 110.547 376.387,110.898 376.563,111.328 376.563 C 111.758 376.563,112.109 376.738,112.109 376.953 C 112.109 377.168,112.461 377.344,112.891 377.344 C 113.320 377.344,113.672 377.520,113.672 377.734 C 113.672 377.949,114.023 378.125,114.453 378.125 C 114.883 378.125,115.234 378.301,115.234 378.516 C 115.234 378.730,115.586 378.906,116.016 378.906 C 116.445 378.906,116.797 379.082,116.797 379.297 C 116.797 379.512,117.236 379.688,117.773 379.688 C 118.311 379.688,118.750 379.863,118.750 380.078 C 118.750 380.293,119.102 380.469,119.531 380.469 C 119.961 380.469,120.313 380.645,120.313 380.859 C 120.313 381.074,120.752 381.250,121.289 381.250 C 121.826 381.250,122.266 381.426,122.266 381.641 C 122.266 381.855,122.532 382.031,122.857 382.031 C 123.182 382.031,123.753 382.187,124.126 382.376 C 125.269 382.957,126.661 383.496,128.906 384.225 C 130.088 384.609,131.222 385.064,131.426 385.235 C 131.630 385.407,132.116 385.547,132.505 385.547 C 133.190 385.547,133.580 385.694,135.444 386.658 C 135.924 386.906,136.661 387.109,137.081 387.109 C 137.501 387.109,137.953 387.285,138.086 387.500 C 138.219 387.715,138.746 387.891,139.258 387.891 C 139.770 387.891,140.297 388.066,140.430 388.281 C 140.562 388.496,141.178 388.672,141.797 388.672 C 142.416 388.672,143.031 388.848,143.164 389.062 C 143.297 389.277,143.922 389.453,144.554 389.453 C 145.186 389.453,145.703 389.629,145.703 389.844 C 145.703 390.059,146.308 390.234,147.047 390.234 C 147.787 390.234,148.500 390.410,148.633 390.625 C 148.766 390.840,149.381 391.016,150.000 391.016 C 150.619 391.016,151.234 391.191,151.367 391.406 C 151.500 391.621,152.203 391.797,152.930 391.797 C 153.656 391.797,154.372 391.993,154.520 392.232 C 154.679 392.490,155.393 392.586,156.274 392.468 C 157.328 392.327,157.821 392.427,157.969 392.814 C 158.106 393.170,158.794 393.359,159.949 393.359 C 160.951 393.359,161.719 393.542,161.719 393.780 C 161.719 394.032,162.407 394.157,163.442 394.094 C 164.448 394.032,165.425 394.203,165.789 394.505 C 166.195 394.842,167.022 394.954,168.160 394.826 C 169.367 394.690,170.045 394.795,170.353 395.166 C 170.650 395.524,171.670 395.703,173.407 395.703 C 174.973 395.703,176.211 395.898,176.504 396.191 C 177.216 396.903,222.784 396.903,223.496 396.191 C 223.789 395.898,225.027 395.703,226.593 395.703 C 228.330 395.703,229.350 395.524,229.647 395.166 C 229.955 394.795,230.633 394.690,231.840 394.826 C 232.978 394.954,233.805 394.842,234.211 394.505 C 234.575 394.203,235.552 394.032,236.558 394.094 C 237.593 394.157,238.281 394.032,238.281 393.780 C 238.281 393.542,239.049 393.359,240.051 393.359 C 241.206 393.359,241.894 393.170,242.031 392.814 C 242.179 392.427,242.672 392.327,243.726 392.468 C 244.607 392.586,245.321 392.490,245.480 392.232 C 245.628 391.993,246.344 391.797,247.070 391.797 C 247.797 391.797,248.500 391.621,248.633 391.406 C 248.766 391.191,249.381 391.016,250.000 391.016 C 250.619 391.016,251.234 390.840,251.367 390.625 C 251.500 390.410,252.213 390.234,252.953 390.234 C 253.692 390.234,254.297 390.059,254.297 389.844 C 254.297 389.629,254.814 389.453,255.446 389.453 C 256.078 389.453,256.703 389.277,256.836 389.063 C 256.969 388.848,257.584 388.672,258.203 388.672 C 258.822 388.672,259.438 388.496,259.570 388.281 C 259.703 388.066,260.230 387.891,260.742 387.891 C 261.254 387.891,261.781 387.715,261.914 387.500 C 262.047 387.285,262.499 387.109,262.919 387.109 C 263.339 387.109,264.032 386.934,264.458 386.719 C 264.885 386.504,265.584 386.152,266.010 385.937 C 266.437 385.723,267.105 385.547,267.495 385.547 C 267.884 385.547,268.370 385.407,268.574 385.235 C 268.778 385.064,269.912 384.609,271.094 384.225 C 273.339 383.496,274.731 382.957,275.874 382.376 C 276.247 382.187,276.818 382.031,277.143 382.031 C 277.468 382.031,277.734 381.855,277.734 381.641 C 277.734 381.426,278.174 381.250,278.711 381.250 C 279.248 381.250,279.688 381.074,279.688 380.859 C 279.688 380.645,280.020 380.469,280.427 380.469 C 280.834 380.469,281.272 380.193,281.402 379.856 C 281.558 379.449,281.899 379.326,282.420 379.492 C 282.870 379.634,283.203 379.563,283.203 379.323 C 283.203 379.094,283.555 378.906,283.984 378.906 C 284.414 378.906,284.766 378.730,284.766 378.516 C 284.766 378.301,285.117 378.125,285.547 378.125 C 285.977 378.125,286.328 377.949,286.328 377.734 C 286.328 377.520,286.680 377.344,287.109 377.344 C 287.539 377.344,287.891 377.168,287.891 376.953 C 287.891 376.738,288.242 376.563,288.672 376.563 C 289.102 376.563,289.453 376.387,289.453 376.172 C 289.453 375.957,289.805 375.781,290.234 375.781 C 290.664 375.781,291.016 375.605,291.016 375.391 C 291.016 375.176,291.279 375.000,291.602 375.000 C 291.924 375.000,292.188 374.824,292.188 374.609 C 292.188 374.395,292.539 374.219,292.969 374.219 C 293.398 374.219,293.750 374.043,293.750 373.828 C 293.750 373.613,294.102 373.438,294.531 373.438 C 294.961 373.438,295.313 373.262,295.313 373.047 C 295.313 372.832,295.576 372.656,295.898 372.656 C 296.221 372.656,296.484 372.480,296.484 372.266 C 296.484 372.051,296.836 371.875,297.266 371.875 C 297.695 371.875,298.047 371.699,298.047 371.484 C 298.047 371.270,298.311 371.094,298.633 371.094 C 298.955 371.094,299.219 370.951,299.219 370.776 C 299.219 370.601,299.834 370.217,300.586 369.922 C 301.338 369.627,301.953 369.242,301.953 369.068 C 301.953 368.893,302.217 368.750,302.539 368.750 C 302.861 368.750,303.125 368.574,303.125 368.359 C 303.125 368.145,303.389 367.969,303.711 367.969 C 304.033 367.969,304.297 367.793,304.297 367.578 C 304.297 367.363,304.478 367.188,304.699 367.188 C 305.126 367.188,314.306 361.135,315.143 360.301 C 315.416 360.030,316.338 359.415,317.194 358.934 C 318.050 358.453,318.750 357.916,318.750 357.741 C 318.750 357.565,318.924 357.422,319.136 357.422 C 319.547 357.422,320.612 356.615,322.102 355.176 C 322.602 354.692,323.156 354.297,323.334 354.297 C 323.511 354.297,323.909 353.945,324.219 353.516 C 324.528 353.086,324.936 352.734,325.125 352.734 C 325.313 352.734,325.960 352.207,326.563 351.562 C 327.165 350.918,327.768 350.391,327.904 350.391 C 328.040 350.391,328.743 349.819,329.467 349.121 C 330.190 348.423,331.877 346.885,333.214 345.703 C 336.477 342.821,339.481 339.917,339.466 339.661 C 339.459 339.547,339.515 339.497,339.590 339.551 C 339.666 339.604,340.852 338.431,342.227 336.943 C 343.602 335.455,345.605 333.345,346.680 332.253 C 347.754 331.162,349.248 329.479,349.999 328.514 C 350.750 327.548,351.717 326.379,352.147 325.915 C 352.970 325.029,353.714 324.067,354.688 322.632 C 355.010 322.156,355.625 321.396,356.055 320.942 C 356.484 320.488,357.275 319.459,357.813 318.655 C 358.350 317.851,358.921 317.192,359.082 317.190 C 359.243 317.189,359.375 316.957,359.375 316.675 C 359.375 316.393,359.691 315.822,360.078 315.406 C 360.464 314.989,361.551 313.506,362.492 312.109 C 363.433 310.713,364.348 309.512,364.524 309.440 C 364.700 309.368,364.844 309.061,364.844 308.757 C 364.844 308.452,364.998 308.203,365.187 308.203 C 365.376 308.203,365.749 307.676,366.016 307.031 C 366.283 306.387,366.655 305.859,366.844 305.859 C 367.033 305.859,367.188 305.547,367.188 305.164 C 367.188 304.782,367.539 304.216,367.969 303.906 C 368.398 303.597,368.750 303.030,368.750 302.648 C 368.750 302.266,368.904 301.953,369.093 301.953 C 369.282 301.953,369.655 301.426,369.922 300.781 C 370.189 300.137,370.562 299.609,370.751 299.609 C 370.939 299.609,371.094 299.258,371.094 298.828 C 371.094 298.398,371.270 298.047,371.484 298.047 C 371.699 298.047,371.875 297.776,371.875 297.445 C 371.875 297.113,372.227 296.465,372.656 296.004 C 373.086 295.543,373.438 294.935,373.438 294.653 C 373.438 294.371,373.613 294.141,373.828 294.141 C 374.043 294.141,374.219 293.789,374.219 293.359 C 374.219 292.930,374.395 292.578,374.609 292.578 C 374.824 292.578,375.000 292.227,375.000 291.797 C 375.000 291.367,375.176 291.016,375.391 291.016 C 375.605 291.016,375.781 290.664,375.781 290.234 C 375.781 289.805,375.957 289.453,376.172 289.453 C 376.387 289.453,376.563 289.102,376.563 288.672 C 376.563 288.242,376.738 287.891,376.953 287.891 C 377.168 287.891,377.344 287.539,377.344 287.109 C 377.344 286.680,377.520 286.328,377.734 286.328 C 377.949 286.328,378.125 285.977,378.125 285.547 C 378.125 285.117,378.285 284.766,378.481 284.766 C 378.677 284.766,378.958 284.050,379.106 283.176 C 379.254 282.302,379.621 281.492,379.922 281.376 C 380.223 281.261,380.469 280.834,380.469 280.427 C 380.469 280.020,380.645 279.688,380.859 279.688 C 381.074 279.688,381.250 279.451,381.250 279.162 C 381.250 278.872,381.522 278.090,381.854 277.424 C 382.187 276.758,382.530 275.843,382.617 275.391 C 382.704 274.939,383.019 274.080,383.318 273.482 C 383.616 272.884,384.102 271.575,384.398 270.573 C 384.694 269.570,385.074 268.750,385.242 268.750 C 385.409 268.750,385.547 268.223,385.547 267.578 C 385.547 266.934,385.723 266.406,385.938 266.406 C 386.152 266.406,386.328 265.977,386.328 265.453 C 386.328 264.928,386.504 264.391,386.719 264.258 C 386.934 264.125,387.109 263.598,387.109 263.086 C 387.109 262.574,387.285 262.047,387.500 261.914 C 387.715 261.781,387.891 261.254,387.891 260.742 C 387.891 260.230,388.066 259.703,388.281 259.570 C 388.496 259.438,388.672 258.910,388.672 258.398 C 388.672 257.887,388.848 257.359,389.063 257.227 C 389.277 257.094,389.453 256.479,389.453 255.859 C 389.453 255.240,389.629 254.625,389.844 254.492 C 390.059 254.359,390.234 253.744,390.234 253.125 C 390.234 252.506,390.410 251.891,390.625 251.758 C 390.840 251.625,391.016 250.912,391.016 250.172 C 391.016 249.433,391.191 248.828,391.406 248.828 C 391.621 248.828,391.797 248.125,391.797 247.266 C 391.797 246.366,391.984 245.703,392.237 245.703 C 392.530 245.703,392.597 245.195,392.435 244.186 C 392.260 243.087,392.353 242.536,392.776 242.185 C 393.107 241.911,393.359 241.056,393.359 240.210 C 393.359 239.389,393.556 238.597,393.796 238.448 C 394.069 238.279,394.147 237.554,394.004 236.509 C 393.832 235.257,393.929 234.712,394.393 234.328 C 394.862 233.939,394.958 233.372,394.793 231.976 C 394.639 230.680,394.732 230.007,395.108 229.695 C 395.414 229.441,395.729 228.138,395.848 226.638 C 395.962 225.200,396.251 221.826,396.492 219.141 C 397.099 212.352,396.841 177.544,396.179 176.882 C 395.893 176.596,395.703 175.285,395.703 173.603 C 395.703 171.635,395.535 170.659,395.139 170.331 C 394.723 169.986,394.635 169.357,394.803 167.939 C 394.948 166.715,394.882 166.016,394.622 166.016 C 394.397 166.016,394.115 165.093,393.994 163.965 C 393.533 159.632,393.268 158.203,392.929 158.203 C 392.736 158.203,392.578 157.422,392.578 156.468 C 392.578 155.514,392.402 154.625,392.188 154.492 C 391.973 154.359,391.797 153.558,391.797 152.711 C 391.797 151.865,391.640 151.172,391.449 151.172 C 391.258 151.172,390.994 150.557,390.863 149.805 C 390.732 149.053,390.518 147.822,390.387 147.070 C 390.256 146.318,389.992 145.703,389.801 145.703 C 389.610 145.703,389.453 145.320,389.453 144.852 C 389.453 143.953,388.809 141.672,388.233 140.533 C 388.045 140.160,387.891 139.511,387.891 139.091 C 387.891 138.671,387.715 138.219,387.500 138.086 C 387.285 137.953,387.109 137.415,387.109 136.891 C 387.109 136.367,386.934 135.938,386.719 135.938 C 386.504 135.938,386.328 135.410,386.328 134.766 C 386.328 134.121,386.152 133.594,385.938 133.594 C 385.723 133.594,385.547 133.066,385.547 132.422 C 385.547 131.777,385.403 131.250,385.227 131.250 C 385.051 131.250,384.668 130.371,384.375 129.297 C 384.082 128.223,383.721 127.344,383.572 127.344 C 383.423 127.344,383.169 126.772,383.007 126.074 C 382.845 125.376,382.664 124.593,382.604 124.333 C 382.545 124.074,382.216 123.300,381.873 122.613 C 381.530 121.926,381.250 121.128,381.250 120.838 C 381.250 120.549,381.074 120.313,380.859 120.313 C 380.645 120.313,380.469 119.961,380.469 119.531 C 380.469 119.102,380.293 118.750,380.078 118.750 C 379.863 118.750,379.688 118.311,379.688 117.773 C 379.688 117.236,379.512 116.797,379.297 116.797 C 379.082 116.797,378.906 116.445,378.906 116.016 C 378.906 115.586,378.730 115.234,378.516 115.234 C 378.301 115.234,378.125 114.883,378.125 114.453 C 378.125 114.023,377.949 113.672,377.734 113.672 C 377.520 113.672,377.344 113.320,377.344 112.891 C 377.344 112.461,377.168 112.109,376.953 112.109 C 376.738 112.109,376.563 111.758,376.563 111.328 C 376.563 110.898,376.387 110.547,376.172 110.547 C 375.957 110.547,375.781 110.195,375.781 109.766 C 375.781 109.336,375.605 108.984,375.391 108.984 C 375.176 108.984,375.000 108.633,375.000 108.203 C 375.000 107.773,374.824 107.422,374.609 107.422 C 374.395 107.422,374.219 107.070,374.219 106.641 C 374.219 106.211,374.043 105.859,373.828 105.859 C 373.613 105.859,373.438 105.629,373.438 105.347 C 373.438 105.065,373.086 104.457,372.656 103.996 C 372.227 103.535,371.875 102.887,371.875 102.555 C 371.875 102.224,371.699 101.953,371.484 101.953 C 371.270 101.953,371.094 101.602,371.094 101.172 C 371.094 100.742,370.939 100.391,370.751 100.391 C 370.562 100.391,370.189 99.863,369.922 99.219 C 369.655 98.574,369.282 98.047,369.093 98.047 C 368.904 98.047,368.750 97.734,368.750 97.352 C 368.750 96.970,368.398 96.403,367.969 96.094 C 367.539 95.784,367.188 95.218,367.188 94.836 C 367.188 94.453,367.033 94.141,366.844 94.141 C 366.655 94.141,366.283 93.613,366.016 92.969 C 365.749 92.324,365.376 91.797,365.187 91.797 C 364.998 91.797,364.844 91.533,364.844 91.211 C 364.844 90.889,364.709 90.625,364.545 90.625 C 364.381 90.625,363.812 89.922,363.281 89.063 C 362.750 88.203,362.193 87.500,362.043 87.500 C 361.894 87.500,361.667 87.170,361.539 86.767 C 361.411 86.363,360.872 85.528,360.341 84.911 C 359.810 84.294,359.376 83.584,359.375 83.333 C 359.375 83.083,359.242 82.819,359.079 82.747 C 358.916 82.676,358.171 81.826,357.422 80.859 C 355.514 78.394,355.529 78.414,354.778 77.478 C 354.406 77.014,353.838 76.246,353.516 75.770 C 353.193 75.295,352.271 74.209,351.465 73.358 C 350.659 72.507,350.000 71.662,350.000 71.479 C 350.000 71.296,349.648 71.035,349.219 70.898 C 348.789 70.762,348.438 70.410,348.438 70.117 C 348.438 69.823,347.603 68.721,346.582 67.666 C 345.562 66.612,343.630 64.577,342.289 63.144 C 340.948 61.712,339.762 60.542,339.652 60.543 C 339.543 60.545,339.427 60.415,339.394 60.254 C 339.362 60.093,338.370 59.082,337.191 58.008 C 336.011 56.934,334.087 55.138,332.915 54.018 C 331.743 52.898,330.478 51.885,330.103 51.766 C 329.729 51.647,329.188 51.113,328.903 50.579 C 328.617 50.046,328.220 49.609,328.020 49.609 C 327.821 49.609,327.165 49.082,326.563 48.437 C 325.960 47.793,325.313 47.266,325.125 47.266 C 324.936 47.266,324.528 46.914,324.219 46.484 C 323.909 46.055,323.470 45.703,323.242 45.703 C 323.015 45.703,322.575 45.352,322.266 44.922 C 321.956 44.492,321.516 44.141,321.289 44.141 C 321.062 44.141,320.622 43.789,320.313 43.359 C 320.003 42.930,319.539 42.578,319.282 42.578 C 319.025 42.578,318.757 42.432,318.685 42.253 C 318.577 41.983,316.065 40.217,313.313 38.477 C 312.973 38.262,312.607 37.990,312.500 37.872 C 311.985 37.307,309.766 35.917,309.766 36.159 C 309.766 36.311,309.310 35.979,308.752 35.421 C 308.195 34.864,307.228 34.182,306.604 33.905 C 305.980 33.629,305.469 33.270,305.469 33.108 C 305.469 32.945,305.205 32.813,304.883 32.813 C 304.561 32.813,304.297 32.637,304.297 32.422 C 304.297 32.207,304.033 32.031,303.711 32.031 C 303.389 32.031,303.125 31.855,303.125 31.641 C 303.125 31.426,302.861 31.250,302.539 31.250 C 302.217 31.250,301.953 31.107,301.953 30.932 C 301.953 30.758,301.338 30.373,300.586 30.078 C 299.834 29.783,299.219 29.399,299.219 29.224 C 299.219 29.049,298.955 28.906,298.633 28.906 C 298.311 28.906,298.047 28.730,298.047 28.516 C 298.047 28.301,297.695 28.125,297.266 28.125 C 296.836 28.125,296.484 27.949,296.484 27.734 C 296.484 27.520,296.221 27.344,295.898 27.344 C 295.576 27.344,295.313 27.168,295.313 26.953 C 295.313 26.738,294.961 26.563,294.531 26.563 C 294.102 26.563,293.750 26.387,293.750 26.172 C 293.750 25.957,293.398 25.781,292.969 25.781 C 292.539 25.781,292.188 25.605,292.188 25.391 C 292.188 25.176,291.924 25.000,291.602 25.000 C 291.279 25.000,291.016 24.824,291.016 24.609 C 291.016 24.395,290.664 24.219,290.234 24.219 C 289.805 24.219,289.453 24.043,289.453 23.828 C 289.453 23.613,289.102 23.438,288.672 23.438 C 288.242 23.438,287.891 23.262,287.891 23.047 C 287.891 22.832,287.539 22.656,287.109 22.656 C 286.680 22.656,286.328 22.480,286.328 22.266 C 286.328 22.051,285.977 21.875,285.547 21.875 C 285.117 21.875,284.766 21.699,284.766 21.484 C 284.766 21.270,284.316 21.094,283.766 21.094 C 283.135 21.094,282.865 20.934,283.034 20.661 C 283.214 20.370,283.029 20.315,282.469 20.493 C 281.896 20.675,281.564 20.566,281.402 20.144 C 281.272 19.807,280.834 19.531,280.427 19.531 C 280.020 19.531,279.688 19.355,279.688 19.141 C 279.688 18.926,279.248 18.750,278.711 18.750 C 278.174 18.750,277.734 18.574,277.734 18.359 C 277.734 18.145,277.468 17.969,277.143 17.969 C 276.818 17.969,276.247 17.813,275.874 17.624 C 274.731 17.043,273.339 16.504,271.094 15.775 C 269.912 15.391,268.778 14.936,268.574 14.765 C 268.370 14.593,267.809 14.453,267.328 14.453 C 266.846 14.453,266.344 14.277,266.211 14.063 C 266.078 13.848,265.626 13.672,265.206 13.672 C 264.469 13.672,264.088 13.531,262.212 12.561 C 261.732 12.313,260.995 12.109,260.575 12.109 C 260.155 12.109,259.703 11.934,259.570 11.719 C 259.438 11.504,258.822 11.328,258.203 11.328 C 257.584 11.328,256.969 11.152,256.836 10.938 C 256.703 10.723,256.088 10.547,255.469 10.547 C 254.850 10.547,254.234 10.371,254.102 10.156 C 253.969 9.941,253.354 9.766,252.734 9.766 C 252.115 9.766,251.500 9.590,251.367 9.375 C 251.234 9.160,250.619 8.984,250.000 8.984 C 249.381 8.984,248.766 8.809,248.633 8.594 C 248.500 8.379,247.709 8.203,246.875 8.203 C 246.041 8.203,245.240 8.010,245.094 7.775 C 244.948 7.539,244.319 7.422,243.696 7.513 C 243.043 7.609,242.381 7.460,242.132 7.160 C 241.894 6.873,240.937 6.641,239.991 6.641 C 239.051 6.641,238.281 6.465,238.281 6.250 C 238.281 6.035,237.325 5.859,236.156 5.859 C 234.987 5.859,233.922 5.684,233.789 5.469 C 233.656 5.254,232.689 5.078,231.641 5.078 C 230.592 5.078,229.625 4.902,229.492 4.688 C 229.359 4.473,227.957 4.297,226.377 4.297 C 224.447 4.297,223.450 4.139,223.342 3.815 C 223.151 3.243,183.203 2.803,183.203 3.373 M210.742 9.576 C 219.051 10.103,221.614 10.359,228.516 11.350 C 235.472 12.349,244.337 14.253,251.758 16.342 C 254.785 17.194,264.928 20.516,266.309 21.108 C 266.792 21.315,267.671 21.681,268.262 21.921 C 268.853 22.160,269.641 22.512,270.014 22.702 C 270.387 22.892,270.865 23.047,271.077 23.047 C 271.788 23.047,282.534 27.977,287.579 30.618 C 331.890 53.813,366.011 93.800,381.071 140.183 C 382.441 144.404,382.718 145.313,383.585 148.438 C 383.854 149.404,384.216 150.547,384.390 150.977 C 384.564 151.406,384.817 152.285,384.953 152.930 C 385.294 154.560,385.820 156.908,386.308 158.984 C 387.002 161.938,388.153 168.163,388.728 172.070 C 391.560 191.313,391.391 213.582,388.282 230.664 C 388.086 231.738,387.731 233.760,387.492 235.156 C 387.050 237.740,386.551 240.121,385.938 242.578 C 385.750 243.330,385.393 244.824,385.144 245.898 C 384.895 246.973,384.556 248.291,384.392 248.828 C 384.106 249.762,383.951 250.298,382.805 254.297 C 381.162 260.030,378.190 268.173,374.822 276.172 C 373.280 279.833,367.441 291.394,365.618 294.395 C 364.762 295.803,364.063 297.034,364.063 297.132 C 364.063 297.229,363.359 298.344,362.500 299.609 C 361.641 300.875,360.937 302.016,360.938 302.145 C 360.938 302.457,356.174 309.355,352.977 313.672 C 350.931 316.435,345.173 323.572,343.379 325.567 C 338.032 331.517,330.624 338.941,326.172 342.809 C 325.205 343.649,324.326 344.425,324.219 344.534 C 322.780 345.990,314.261 352.633,309.766 355.803 C 305.170 359.044,302.358 360.938,302.139 360.938 C 302.007 360.937,301.163 361.444,300.264 362.062 C 299.365 362.681,298.015 363.537,297.264 363.965 C 296.513 364.393,294.404 365.609,292.578 366.667 C 282.510 372.500,265.729 379.571,254.297 382.798 C 253.330 383.070,252.100 383.425,251.563 383.585 C 248.708 384.435,247.678 384.717,245.898 385.136 C 244.824 385.389,243.330 385.750,242.578 385.938 C 240.193 386.533,237.773 387.044,235.156 387.503 C 233.760 387.749,231.826 388.098,230.859 388.279 C 229.225 388.585,226.952 388.890,219.239 389.841 C 204.970 391.601,182.667 390.776,167.090 387.913 C 162.607 387.089,160.709 386.713,158.984 386.308 C 156.908 385.820,154.560 385.294,152.930 384.953 C 152.285 384.817,151.406 384.569,150.977 384.400 C 149.346 383.759,147.381 383.203,146.744 383.203 C 146.381 383.203,145.778 383.047,145.405 382.856 C 145.032 382.665,142.969 381.953,140.820 381.274 C 136.506 379.909,133.474 378.807,130.961 377.689 C 130.051 377.284,129.158 376.953,128.978 376.953 C 127.768 376.953,111.452 369.097,106.250 366.010 C 105.068 365.308,103.574 364.429,102.930 364.056 C 70.863 345.501,42.225 313.795,26.794 279.767 C 23.456 272.406,23.047 271.457,23.047 271.077 C 23.047 270.865,22.892 270.387,22.702 270.014 C 22.391 269.403,22.136 268.815,21.056 266.211 C 19.923 263.483,16.189 251.544,15.190 247.461 C 14.980 246.602,14.658 245.283,14.475 244.531 C 9.335 223.451,7.869 198.305,10.548 177.148 C 11.353 170.796,11.330 170.942,12.532 164.551 C 12.926 162.454,13.097 161.641,14.115 157.031 C 14.707 154.346,15.632 150.726,16.458 147.852 C 17.337 144.798,20.766 134.493,21.103 133.892 C 21.313 133.519,21.484 133.034,21.484 132.814 C 21.484 132.593,21.809 131.668,22.207 130.757 C 22.604 129.847,23.512 127.695,24.225 125.977 C 35.967 97.651,56.634 70.506,81.517 50.728 C 87.603 45.890,98.307 38.281,99.027 38.281 C 99.156 38.281,100.297 37.578,101.563 36.719 C 102.828 35.859,103.964 35.156,104.087 35.156 C 104.210 35.156,105.466 34.454,106.879 33.596 C 109.879 31.774,121.462 26.087,125.977 24.221 C 127.695 23.511,129.847 22.604,130.757 22.207 C 131.668 21.809,132.593 21.484,132.814 21.484 C 133.034 21.484,133.519 21.313,133.892 21.103 C 134.565 20.725,144.675 17.375,148.047 16.412 C 151.245 15.499,154.143 14.757,157.227 14.063 C 158.301 13.821,159.795 13.467,160.547 13.277 C 161.299 13.087,162.617 12.817,163.477 12.678 C 164.336 12.539,165.918 12.267,166.992 12.073 C 173.645 10.871,179.821 10.159,188.477 9.597 C 198.937 8.917,200.319 8.915,210.742 9.576 M189.801 14.234 C 189.671 14.365,187.210 14.648,184.333 14.863 C 177.182 15.396,173.260 15.892,166.211 17.154 C 165.137 17.346,163.555 17.623,162.695 17.769 C 161.836 17.914,160.693 18.176,160.156 18.350 C 159.619 18.524,158.125 18.881,156.836 19.144 C 155.547 19.407,153.350 19.948,151.953 20.347 C 150.557 20.745,148.096 21.441,146.484 21.893 C 135.594 24.949,117.367 32.671,108.008 38.195 C 107.363 38.575,105.957 39.401,104.883 40.029 C 79.459 54.891,54.892 79.458,40.029 104.883 C 39.401 105.957,38.573 107.363,38.189 108.008 C 32.630 117.347,24.429 136.909,21.503 147.806 C 21.092 149.335,20.506 151.465,20.201 152.539 C 19.895 153.613,19.436 155.459,19.181 156.641 C 18.926 157.822,18.562 159.404,18.372 160.156 C 18.042 161.466,17.618 163.621,16.819 168.066 C 12.955 189.544,13.384 216.100,17.946 237.891 C 18.619 241.103,19.696 245.664,20.252 247.656 C 20.461 248.408,21.008 250.407,21.467 252.098 C 33.075 294.893,67.540 339.384,105.078 360.032 C 106.260 360.682,108.193 361.789,109.375 362.492 C 117.804 367.510,135.265 374.910,145.313 377.723 C 146.279 377.994,147.510 378.351,148.047 378.516 C 148.584 378.681,149.814 379.032,150.781 379.297 C 151.748 379.562,152.979 379.915,153.516 380.082 C 154.053 380.249,155.547 380.599,156.836 380.859 C 158.125 381.120,159.619 381.476,160.156 381.650 C 161.110 381.959,162.241 382.177,166.211 382.816 C 167.285 382.989,169.307 383.329,170.703 383.570 C 185.638 386.155,207.340 386.487,223.633 384.379 C 229.365 383.638,236.864 382.324,241.602 381.233 C 245.922 380.237,245.988 380.220,250.586 378.906 C 251.338 378.691,252.568 378.340,253.320 378.125 C 254.072 377.910,255.259 377.574,255.957 377.378 C 256.655 377.182,259.248 376.289,261.719 375.395 C 264.189 374.501,266.650 373.621,267.188 373.441 C 268.377 373.041,271.969 371.575,275.391 370.093 C 278.673 368.670,288.303 363.850,290.820 362.368 C 292.814 361.195,294.245 360.370,296.689 358.986 C 302.472 355.710,314.300 347.089,321.882 340.625 C 325.255 337.750,337.710 325.416,339.561 323.119 C 340.372 322.113,342.010 320.146,343.201 318.750 C 348.042 313.072,357.115 300.228,360.032 294.922 C 360.682 293.740,361.732 291.895,362.365 290.820 C 365.074 286.228,370.218 275.405,372.670 269.141 C 373.132 267.959,373.689 266.553,373.907 266.016 C 374.509 264.535,377.150 256.681,377.716 254.688 C 377.991 253.721,378.351 252.490,378.516 251.953 C 378.681 251.416,379.032 250.186,379.297 249.219 C 379.562 248.252,379.915 247.021,380.082 246.484 C 380.249 245.947,380.599 244.453,380.859 243.164 C 381.120 241.875,381.473 240.381,381.643 239.844 C 381.813 239.307,382.159 237.549,382.412 235.938 C 382.665 234.326,383.023 232.305,383.208 231.445 C 383.559 229.806,384.063 226.271,384.737 220.703 C 386.488 206.255,386.003 184.950,383.605 170.898 C 383.385 169.609,383.030 167.500,382.815 166.211 C 382.181 162.402,380.752 155.940,379.748 152.344 C 379.539 151.592,378.986 149.570,378.521 147.852 C 377.048 142.411,373.331 132.033,370.644 125.857 C 348.692 75.405,303.173 35.321,252.098 21.467 C 250.407 21.008,248.408 20.462,247.656 20.252 C 246.904 20.043,245.498 19.690,244.531 19.468 C 243.564 19.246,242.070 18.896,241.211 18.690 C 234.333 17.046,224.927 15.574,216.406 14.809 C 211.413 14.360,190.133 13.900,189.801 14.234 M286.141 78.550 C 291.289 79.502,296.320 83.567,298.047 88.170 L 298.895 90.430 298.845 154.199 L 298.795 217.969 312.093 217.969 L 325.391 217.969 325.391 255.469 L 325.391 292.969 314.648 292.969 L 303.906 292.969 303.906 307.227 L 303.906 321.484 285.742 321.484 L 267.578 321.484 267.578 307.227 L 267.578 292.969 199.316 292.969 L 131.055 292.968 131.162 307.226 L 131.269 321.484 112.509 321.484 L 93.750 321.484 93.750 307.227 L 93.750 292.969 84.542 292.969 C 77.083 292.969,75.229 292.863,74.777 292.411 C 74.301 291.935,74.219 286.458,74.219 255.301 L 74.219 218.750 88.488 218.750 L 102.757 218.750 102.722 154.756 C 102.688 94.794,102.729 90.653,103.366 89.033 C 105.006 84.867,107.693 81.935,111.657 79.983 L 114.241 78.711 198.234 78.513 C 244.430 78.404,282.590 78.272,283.034 78.220 C 283.478 78.168,284.876 78.316,286.141 78.550 M156.641 106.055 L 156.641 113.672 200.179 113.672 L 243.718 113.672 243.832 106.054 L 243.945 98.437 200.293 98.437 L 156.641 98.438 156.641 106.055 M89.453 127.374 C 95.450 130.086,95.408 129.893,95.397 155.154 L 95.388 176.560 94.365 178.306 C 90.243 185.339,79.567 184.773,76.203 177.344 C 75.011 174.708,74.961 135.164,76.147 132.552 C 78.389 127.613,84.619 125.189,89.453 127.374 M320.126 128.856 C 322.070 129.739,323.998 131.629,325.042 133.676 C 325.965 135.485,326.336 174.408,325.452 176.640 C 322.168 184.932,308.875 184.388,306.319 175.857 C 305.402 172.797,305.712 136.106,306.672 133.984 C 308.915 129.029,315.218 126.627,320.126 128.856 M121.289 158.984 L 121.289 184.766 155.957 184.766 L 190.625 184.766 190.625 158.984 L 190.625 133.203 155.957 133.203 L 121.289 133.203 121.289 158.984 M210.156 158.984 L 210.156 184.766 244.824 184.766 L 279.492 184.766 279.389 158.984 L 279.286 133.203 244.721 133.203 L 210.156 133.203 210.156 158.984 M156.641 225.586 L 156.641 228.516 200.293 228.516 L 243.945 228.516 243.945 225.586 L 243.945 222.656 200.293 222.656 L 156.641 222.656 156.641 225.586 M108.594 232.341 C 108.594 232.511,107.847 232.852,106.934 233.098 C 105.129 233.584,101.719 235.654,100.781 236.833 C 98.944 239.144,98.502 239.819,97.728 241.500 C 97.259 242.518,96.875 243.616,96.875 243.941 C 96.875 244.266,96.699 244.531,96.484 244.531 C 95.172 244.531,96.445 251.954,98.422 255.830 C 106.066 270.813,130.379 262.523,127.779 245.820 C 126.908 240.231,122.514 234.603,117.969 233.257 C 117.002 232.971,115.906 232.578,115.533 232.384 C 114.698 231.950,108.594 231.912,108.594 232.341 M283.400 232.863 C 279.135 234.329,274.270 239.034,273.569 242.371 C 270.434 257.292,282.729 268.183,295.599 261.887 C 312.926 253.409,301.653 226.587,283.400 232.863 M156.641 243.164 L 156.641 246.094 200.293 246.094 L 243.945 246.094 243.945 243.164 L 243.945 240.234 200.293 240.234 L 156.641 240.234 156.641 243.164 M156.901 258.464 C 156.758 258.607,156.641 259.837,156.641 261.198 L 156.641 263.672 200.195 263.672 L 243.750 263.672 243.750 260.938 L 243.750 258.203 200.456 258.203 C 176.644 258.203,157.044 258.320,156.901 258.464 " stroke="none" fill="#00aeef" fill-rule="evenodd"></path><path id="path2" d="M188.477 9.597 C 179.821 10.159,173.645 10.871,166.992 12.073 C 165.918 12.267,164.336 12.539,163.477 12.678 C 162.617 12.817,161.299 13.087,160.547 13.277 C 159.795 13.467,158.301 13.821,157.227 14.063 C 154.143 14.757,151.245 15.499,148.047 16.412 C 144.675 17.375,134.565 20.725,133.892 21.103 C 133.519 21.313,133.034 21.484,132.814 21.484 C 132.593 21.484,131.668 21.809,130.757 22.207 C 129.847 22.604,127.695 23.511,125.977 24.221 C 121.462 26.087,109.879 31.774,106.879 33.596 C 105.466 34.454,104.210 35.156,104.087 35.156 C 103.964 35.156,102.828 35.859,101.563 36.719 C 100.297 37.578,99.156 38.281,99.027 38.281 C 98.307 38.281,87.603 45.890,81.517 50.728 C 56.634 70.506,35.967 97.651,24.225 125.977 C 23.512 127.695,22.604 129.847,22.207 130.757 C 21.809 131.668,21.484 132.593,21.484 132.814 C 21.484 133.034,21.313 133.519,21.103 133.892 C 20.766 134.493,17.337 144.798,16.458 147.852 C 15.632 150.726,14.707 154.346,14.115 157.031 C 13.097 161.641,12.926 162.454,12.532 164.551 C 11.330 170.942,11.353 170.796,10.548 177.148 C 8.594 192.583,8.882 211.908,11.310 228.320 C 12.047 233.304,13.294 239.687,14.475 244.531 C 14.658 245.283,14.980 246.602,15.190 247.461 C 16.189 251.544,19.923 263.483,21.056 266.211 C 22.136 268.815,22.391 269.403,22.702 270.014 C 22.892 270.387,23.047 270.865,23.047 271.077 C 23.047 271.457,23.456 272.406,26.794 279.767 C 42.225 313.795,70.863 345.501,102.930 364.056 C 103.574 364.429,105.068 365.308,106.250 366.010 C 111.452 369.097,127.768 376.953,128.978 376.953 C 129.158 376.953,130.051 377.284,130.961 377.689 C 133.474 378.807,136.506 379.909,140.820 381.274 C 142.969 381.953,145.032 382.665,145.405 382.856 C 145.778 383.047,146.381 383.203,146.744 383.203 C 147.381 383.203,149.346 383.759,150.977 384.400 C 151.406 384.569,152.285 384.817,152.930 384.953 C 154.560 385.294,156.908 385.820,158.984 386.308 C 160.709 386.713,162.607 387.089,167.090 387.913 C 182.667 390.776,204.970 391.601,219.239 389.841 C 226.952 388.890,229.225 388.585,230.859 388.279 C 231.826 388.098,233.760 387.749,235.156 387.503 C 237.773 387.044,240.193 386.533,242.578 385.938 C 243.330 385.750,244.824 385.389,245.898 385.136 C 247.678 384.717,248.708 384.435,251.563 383.585 C 252.100 383.425,253.330 383.070,254.297 382.798 C 265.729 379.571,282.510 372.500,292.578 366.667 C 294.404 365.609,296.513 364.393,297.264 363.965 C 298.015 363.537,299.365 362.681,300.264 362.062 C 301.163 361.444,302.007 360.937,302.139 360.938 C 302.358 360.938,305.170 359.044,309.766 355.803 C 314.261 352.633,322.780 345.990,324.219 344.534 C 324.326 344.425,325.205 343.649,326.172 342.809 C 330.624 338.941,338.032 331.517,343.379 325.567 C 345.173 323.572,350.931 316.435,352.977 313.672 C 356.174 309.355,360.938 302.457,360.938 302.145 C 360.937 302.016,361.641 300.875,362.500 299.609 C 363.359 298.344,364.063 297.229,364.063 297.132 C 364.063 297.034,364.762 295.803,365.618 294.395 C 367.441 291.394,373.280 279.833,374.822 276.172 C 378.190 268.173,381.162 260.030,382.805 254.297 C 383.951 250.298,384.106 249.762,384.392 248.828 C 384.556 248.291,384.895 246.973,385.144 245.898 C 385.393 244.824,385.750 243.330,385.938 242.578 C 386.551 240.121,387.050 237.740,387.492 235.156 C 387.731 233.760,388.086 231.738,388.282 230.664 C 391.391 213.582,391.560 191.313,388.728 172.070 C 388.153 168.163,387.002 161.938,386.308 158.984 C 385.820 156.908,385.294 154.560,384.953 152.930 C 384.817 152.285,384.564 151.406,384.390 150.977 C 384.216 150.547,383.854 149.404,383.585 148.438 C 369.646 98.220,334.628 55.246,287.579 30.618 C 282.534 27.977,271.788 23.047,271.077 23.047 C 270.865 23.047,270.387 22.892,270.014 22.702 C 269.641 22.512,268.853 22.160,268.262 21.921 C 267.671 21.681,266.792 21.315,266.309 21.108 C 263.800 20.033,251.880 16.283,247.559 15.208 C 226.981 10.092,208.243 8.312,188.477 9.597 M219.922 10.742 C 222.607 11.080,226.123 11.522,227.734 11.724 C 229.346 11.926,231.016 12.171,231.445 12.268 C 231.875 12.365,233.369 12.647,234.766 12.893 C 237.017 13.291,239.849 13.915,245.703 15.303 C 312.686 31.192,368.542 87.047,384.700 154.297 C 385.954 159.519,386.412 161.582,386.743 163.502 C 386.945 164.670,387.295 166.636,387.523 167.871 C 389.439 178.282,389.988 185.430,389.988 200.000 C 389.988 214.570,389.439 221.718,387.523 232.129 C 387.295 233.364,386.945 235.330,386.743 236.498 C 386.412 238.418,385.954 240.481,384.700 245.703 C 381.201 260.266,373.000 281.078,366.354 292.259 C 365.675 293.401,364.588 295.303,363.938 296.484 C 351.000 320.010,321.754 349.578,298.255 362.890 C 295.634 364.375,294.328 365.130,292.294 366.336 C 281.071 372.993,260.147 381.240,245.703 384.701 C 240.341 385.985,238.415 386.413,236.498 386.743 C 235.330 386.945,233.364 387.295,232.129 387.523 C 221.718 389.439,214.570 389.988,200.000 389.988 C 185.430 389.988,178.282 389.439,167.871 387.523 C 166.636 387.295,164.670 386.945,163.502 386.743 C 161.582 386.412,159.519 385.954,154.297 384.700 C 139.549 381.156,119.128 373.110,107.736 366.354 C 105.681 365.135,104.379 364.382,101.771 362.905 C 61.316 339.983,26.460 292.739,15.303 245.703 C 13.915 239.849,13.291 237.017,12.893 234.766 C 12.647 233.369,12.365 231.875,12.268 231.445 C 12.171 231.016,11.926 229.346,11.723 227.734 C 11.521 226.123,11.051 222.432,10.679 219.531 C 9.710 211.970,9.710 188.030,10.679 180.469 C 11.051 177.568,11.521 173.877,11.723 172.266 C 11.926 170.654,12.171 168.984,12.268 168.555 C 12.365 168.125,12.645 166.631,12.889 165.234 C 14.591 155.511,18.301 142.403,22.288 132.031 C 49.001 62.536,114.598 14.366,188.477 9.995 C 194.215 9.656,215.262 10.155,219.922 10.742 M185.938 14.088 C 175.863 15.034,168.367 16.100,161.523 17.559 C 160.449 17.788,159.043 18.082,158.398 18.213 C 157.282 18.439,152.768 19.613,147.266 21.110 C 136.570 24.019,119.123 31.340,109.247 37.064 C 107.350 38.163,105.741 39.063,105.672 39.063 C 104.822 39.062,91.405 48.205,85.352 52.908 C 55.054 76.450,30.603 112.363,21.110 147.266 C 19.613 152.768,18.439 157.282,18.213 158.398 C 18.082 159.043,17.788 160.449,17.559 161.523 C 16.751 165.312,15.732 171.297,15.209 175.324 C 13.173 190.990,13.176 207.935,15.216 224.609 C 15.850 229.789,17.199 237.283,18.399 242.285 C 18.592 243.091,18.898 244.409,19.080 245.215 C 23.131 263.210,35.260 290.355,45.720 304.833 C 46.360 305.720,47.619 307.500,48.517 308.789 C 58.707 323.417,76.583 341.293,91.211 351.483 C 92.500 352.381,94.280 353.640,95.167 354.280 C 107.788 363.398,129.945 373.840,147.070 378.742 C 154.556 380.884,158.864 381.958,163.477 382.829 C 164.766 383.073,166.611 383.424,167.578 383.610 C 168.545 383.795,170.566 384.121,172.070 384.334 C 199.399 388.203,225.996 386.498,251.172 379.265 C 269.782 373.918,291.914 363.613,304.833 354.280 C 305.720 353.640,307.500 352.384,308.789 351.489 C 328.718 337.654,348.837 315.308,362.007 292.383 C 368.083 281.805,376.148 262.998,378.506 253.906 C 378.701 253.154,379.240 251.221,379.704 249.609 C 380.168 247.998,380.684 246.064,380.852 245.313 C 381.019 244.561,381.541 242.275,382.010 240.234 C 385.616 224.555,387.304 201.479,385.938 186.523 C 384.783 173.875,383.741 166.982,381.598 157.813 C 376.456 135.809,365.516 110.720,354.280 95.167 C 353.640 94.280,352.381 92.500,351.483 91.211 C 341.293 76.583,323.417 58.707,308.789 48.517 C 307.500 47.619,305.720 46.360,304.833 45.720 C 298.305 41.004,281.461 31.755,274.206 28.903 C 273.031 28.442,271.543 27.830,270.898 27.544 C 264.993 24.926,250.949 20.325,244.727 18.970 C 244.082 18.830,242.939 18.565,242.188 18.381 C 239.279 17.671,236.233 17.071,230.176 16.014 C 218.676 14.008,196.885 13.059,185.938 14.088 M216.406 14.809 C 224.927 15.574,234.333 17.046,241.211 18.690 C 242.070 18.896,243.564 19.246,244.531 19.468 C 245.498 19.690,246.904 20.043,247.656 20.252 C 248.408 20.462,250.407 21.008,252.098 21.467 C 303.173 35.321,348.692 75.405,370.644 125.857 C 373.331 132.033,377.048 142.411,378.521 147.852 C 378.986 149.570,379.539 151.592,379.748 152.344 C 380.752 155.940,382.181 162.402,382.815 166.211 C 383.030 167.500,383.385 169.609,383.605 170.898 C 386.003 184.950,386.488 206.255,384.737 220.703 C 384.063 226.271,383.559 229.806,383.208 231.445 C 383.023 232.305,382.665 234.326,382.412 235.938 C 382.159 237.549,381.813 239.307,381.643 239.844 C 381.473 240.381,381.120 241.875,380.859 243.164 C 380.599 244.453,380.249 245.947,380.082 246.484 C 379.915 247.021,379.562 248.252,379.297 249.219 C 379.032 250.186,378.681 251.416,378.516 251.953 C 378.351 252.490,377.991 253.721,377.716 254.688 C 377.150 256.681,374.509 264.535,373.907 266.016 C 373.689 266.553,373.132 267.959,372.670 269.141 C 370.218 275.405,365.074 286.228,362.365 290.820 C 361.732 291.895,360.682 293.740,360.032 294.922 C 357.115 300.228,348.042 313.072,343.201 318.750 C 342.010 320.146,340.372 322.113,339.561 323.119 C 331.367 333.289,308.961 352.034,296.689 358.986 C 294.245 360.370,292.814 361.195,290.820 362.368 C 288.303 363.850,278.673 368.670,275.391 370.093 C 271.969 371.575,268.377 373.041,267.188 373.441 C 266.650 373.621,264.189 374.501,261.719 375.395 C 259.248 376.289,256.655 377.182,255.957 377.378 C 255.259 377.574,254.072 377.910,253.320 378.125 C 252.568 378.340,251.338 378.691,250.586 378.906 C 245.988 380.220,245.922 380.237,241.602 381.233 C 236.864 382.324,229.365 383.638,223.633 384.379 C 207.340 386.487,185.638 386.155,170.703 383.570 C 169.307 383.329,167.285 382.989,166.211 382.816 C 162.241 382.177,161.110 381.959,160.156 381.650 C 159.619 381.476,158.125 381.120,156.836 380.859 C 155.547 380.599,154.053 380.249,153.516 380.082 C 152.979 379.915,151.748 379.562,150.781 379.297 C 149.814 379.032,148.584 378.681,148.047 378.516 C 147.510 378.351,146.279 377.994,145.313 377.723 C 135.265 374.910,117.804 367.510,109.375 362.492 C 108.193 361.789,106.260 360.682,105.078 360.032 C 67.540 339.384,33.075 294.893,21.467 252.098 C 21.008 250.407,20.461 248.408,20.252 247.656 C 19.696 245.664,18.619 241.103,17.946 237.891 C 13.384 216.100,12.955 189.544,16.819 168.066 C 17.618 163.621,18.042 161.466,18.372 160.156 C 18.562 159.404,18.926 157.822,19.181 156.641 C 19.436 155.459,19.895 153.613,20.201 152.539 C 20.506 151.465,21.092 149.335,21.503 147.806 C 24.429 136.909,32.630 117.347,38.189 108.008 C 38.573 107.363,39.401 105.957,40.029 104.883 C 54.892 79.458,79.459 54.891,104.883 40.029 C 105.957 39.401,107.363 38.575,108.008 38.195 C 117.367 32.671,135.594 24.949,146.484 21.893 C 148.096 21.441,150.557 20.745,151.953 20.347 C 153.350 19.948,155.547 19.407,156.836 19.144 C 158.125 18.881,159.619 18.524,160.156 18.350 C 160.693 18.176,161.836 17.914,162.695 17.769 C 163.555 17.623,165.137 17.346,166.211 17.154 C 173.260 15.892,177.182 15.396,184.333 14.863 C 187.210 14.648,189.671 14.365,189.801 14.234 C 190.133 13.900,211.413 14.360,216.406 14.809 M282.719 78.401 C 283.205 78.495,283.908 78.491,284.282 78.393 C 284.655 78.296,284.258 78.219,283.398 78.224 C 282.539 78.228,282.233 78.308,282.719 78.401 M291.406 80.533 C 291.514 80.627,292.744 81.744,294.141 83.016 L 296.680 85.328 294.727 83.260 C 293.652 82.122,292.422 81.005,291.992 80.777 C 291.563 80.549,291.299 80.440,291.406 80.533 M297.070 86.719 C 297.404 87.363,297.764 87.891,297.872 87.891 C 297.979 87.891,297.794 87.363,297.461 86.719 C 297.128 86.074,296.767 85.547,296.660 85.547 C 296.552 85.547,296.737 86.074,297.070 86.719 M102.461 94.531 C 102.461 95.713,102.534 96.196,102.624 95.605 C 102.713 95.015,102.713 94.048,102.624 93.457 C 102.534 92.866,102.461 93.350,102.461 94.531 M84.277 126.845 C 84.976 126.932,86.118 126.932,86.816 126.845 C 87.515 126.758,86.943 126.688,85.547 126.688 C 84.150 126.688,83.579 126.758,84.277 126.845 M80.024 128.148 L 79.102 128.953 80.273 128.266 C 81.816 127.363,81.839 127.344,81.358 127.344 C 81.132 127.344,80.531 127.706,80.024 128.148 M91.293 128.731 C 91.982 129.275,93.007 130.283,93.570 130.973 C 94.134 131.662,94.414 131.860,94.193 131.412 C 93.761 130.535,90.813 127.732,90.331 127.739 C 90.170 127.741,90.603 128.188,91.293 128.731 M320.508 129.476 C 321.367 129.997,322.378 130.616,322.754 130.850 C 323.130 131.085,323.438 131.200,323.438 131.105 C 323.438 130.814,319.815 128.515,319.367 128.522 C 319.135 128.526,319.648 128.955,320.508 129.476 M309.178 130.522 C 308.411 131.196,307.599 132.119,307.375 132.573 C 307.151 133.027,307.425 132.840,307.983 132.157 C 308.541 131.474,309.478 130.556,310.065 130.118 C 310.652 129.680,311.007 129.316,310.853 129.309 C 310.700 129.302,309.946 129.848,309.178 130.522 M76.558 131.738 C 76.132 132.437,75.784 133.169,75.783 133.366 C 75.781 133.811,75.836 133.738,76.869 131.934 C 77.897 130.139,77.634 129.974,76.558 131.738 M95.438 136.719 C 95.438 138.115,95.508 138.687,95.595 137.988 C 95.682 137.290,95.682 136.147,95.595 135.449 C 95.508 134.751,95.438 135.322,95.438 136.719 M325.893 138.086 C 325.896 139.160,325.972 139.553,326.062 138.959 C 326.151 138.366,326.149 137.487,326.056 137.006 C 325.964 136.526,325.890 137.012,325.893 138.086 M95.434 173.242 C 95.436 174.531,95.509 175.012,95.596 174.309 C 95.683 173.607,95.681 172.553,95.592 171.966 C 95.502 171.379,95.431 171.953,95.434 173.242 M94.463 177.362 C 94.103 178.211,93.878 178.906,93.964 178.906 C 94.251 178.906,95.362 176.515,95.239 176.163 C 95.172 175.973,94.823 176.512,94.463 177.362 M78.125 180.273 C 78.854 181.025,79.538 181.641,79.645 181.641 C 79.753 181.641,79.244 181.025,78.516 180.273 C 77.787 179.521,77.103 178.906,76.995 178.906 C 76.888 178.906,77.396 179.521,78.125 180.273 M314.746 182.704 C 315.444 182.791,316.587 182.791,317.285 182.704 C 317.983 182.618,317.412 182.547,316.016 182.547 C 314.619 182.547,314.048 182.618,314.746 182.704 M287.603 231.921 C 288.197 232.011,289.076 232.008,289.556 231.916 C 290.037 231.823,289.551 231.749,288.477 231.752 C 287.402 231.755,287.009 231.831,287.603 231.921 M122.266 235.669 C 122.266 235.736,122.837 236.308,123.535 236.939 L 124.805 238.086 123.657 236.816 C 122.588 235.633,122.266 235.367,122.266 235.669 M304.409 247.852 C 304.412 248.926,304.487 249.319,304.577 248.725 C 304.667 248.131,304.665 247.252,304.572 246.772 C 304.479 246.292,304.406 246.777,304.409 247.852 M276.953 258.789 C 277.682 259.541,278.366 260.156,278.474 260.156 C 278.581 260.156,278.073 259.541,277.344 258.789 C 276.615 258.037,275.931 257.422,275.823 257.422 C 275.716 257.422,276.224 258.037,276.953 258.789 M110.840 263.954 C 111.538 264.041,112.681 264.041,113.379 263.954 C 114.077 263.868,113.506 263.797,112.109 263.797 C 110.713 263.797,110.142 263.868,110.840 263.954 " stroke="none" fill="#5fccf5" fill-rule="evenodd"></path><path id="path3" d="M60.369 60.369 C 58.967 61.771,59.126 62.104,60.547 60.742 C 61.191 60.125,61.719 59.564,61.719 59.497 C 61.719 59.176,61.277 59.461,60.369 60.369 M20.190 117.549 C 19.757 118.417,19.741 118.645,20.121 118.499 C 20.397 118.393,20.704 117.879,20.804 117.357 C 21.042 116.108,20.885 116.157,20.190 117.549 M379.480 281.836 C 379.379 282.158,379.215 282.686,379.114 283.008 C 378.807 283.991,379.206 283.662,379.824 282.422 C 380.146 281.777,380.241 281.250,380.036 281.250 C 379.831 281.250,379.581 281.514,379.480 281.836 M59.375 338.356 C 59.375 338.464,59.727 338.958,60.156 339.453 C 60.586 339.949,60.938 340.178,60.938 339.964 C 60.938 339.750,60.586 339.256,60.156 338.867 C 59.727 338.478,59.375 338.248,59.375 338.356 " stroke="none" fill="#00ffff" fill-rule="evenodd"></path><path id="path4" d="M188.477 9.995 C 175.578 10.758,161.703 13.137,148.438 16.859 C 85.081 34.634,34.634 85.081,16.859 148.438 C 15.125 154.615,13.669 160.779,12.889 165.234 C 12.645 166.631,12.365 168.125,12.268 168.555 C 12.171 168.984,11.926 170.654,11.723 172.266 C 11.521 173.877,11.051 177.568,10.679 180.469 C 9.710 188.030,9.710 211.970,10.679 219.531 C 11.051 222.432,11.521 226.123,11.723 227.734 C 11.926 229.346,12.171 231.016,12.268 231.445 C 12.365 231.875,12.647 233.369,12.893 234.766 C 13.291 237.017,13.915 239.849,15.303 245.703 C 26.460 292.739,61.316 339.983,101.771 362.905 C 104.379 364.382,105.681 365.135,107.736 366.354 C 119.128 373.110,139.549 381.156,154.297 384.700 C 159.519 385.954,161.582 386.412,163.502 386.743 C 164.670 386.945,166.636 387.295,167.871 387.523 C 178.282 389.439,185.430 389.988,200.000 389.988 C 214.570 389.988,221.718 389.439,232.129 387.523 C 233.364 387.295,235.330 386.945,236.498 386.743 C 238.415 386.413,240.341 385.985,245.703 384.701 C 260.147 381.240,281.071 372.993,292.294 366.336 C 294.328 365.130,295.634 364.375,298.255 362.890 C 321.754 349.578,351.000 320.010,363.938 296.484 C 364.588 295.303,365.675 293.401,366.354 292.259 C 373.000 281.078,381.201 260.266,384.700 245.703 C 385.954 240.481,386.412 238.418,386.743 236.498 C 386.945 235.330,387.295 233.364,387.523 232.129 C 389.439 221.718,389.988 214.570,389.988 200.000 C 389.988 185.430,389.439 178.282,387.523 167.871 C 387.295 166.636,386.945 164.670,386.743 163.502 C 386.412 161.582,385.954 159.519,384.700 154.297 C 368.542 87.047,312.686 31.192,245.703 15.303 C 239.849 13.915,237.017 13.291,234.766 12.893 C 233.369 12.647,231.875 12.365,231.445 12.268 C 231.016 12.171,229.346 11.926,227.734 11.724 C 226.123 11.522,222.607 11.080,219.922 10.742 C 215.262 10.155,194.215 9.656,188.477 9.995 M215.234 14.249 C 224.443 15.102,227.101 15.451,234.473 16.774 C 236.878 17.206,240.257 17.910,242.188 18.381 C 242.939 18.565,244.082 18.830,244.727 18.970 C 250.949 20.325,264.993 24.926,270.898 27.544 C 271.543 27.830,273.031 28.442,274.206 28.903 C 281.461 31.755,298.305 41.004,304.833 45.720 C 305.720 46.360,307.500 47.619,308.789 48.517 C 323.417 58.707,341.293 76.583,351.483 91.211 C 352.381 92.500,353.640 94.280,354.280 95.167 C 363.381 107.764,373.850 129.978,378.742 147.070 C 380.510 153.247,380.687 153.914,381.598 157.813 C 383.290 165.052,384.287 170.889,385.133 178.516 C 387.465 199.516,386.362 221.310,382.010 240.234 C 381.541 242.275,381.019 244.561,380.852 245.313 C 380.684 246.064,380.168 247.998,379.704 249.609 C 379.240 251.221,378.701 253.154,378.506 253.906 C 369.503 288.616,340.127 329.733,308.789 351.489 C 307.500 352.384,305.720 353.640,304.833 354.280 C 296.728 360.136,281.656 368.097,269.278 373.060 C 251.462 380.205,235.226 383.952,213.477 385.938 C 207.938 386.444,192.062 386.444,186.523 385.938 C 178.282 385.185,171.339 384.332,167.578 383.610 C 166.611 383.424,164.766 383.073,163.477 382.829 C 140.876 378.559,112.165 366.560,95.167 354.280 C 94.280 353.640,92.500 352.381,91.211 351.483 C 76.583 341.293,58.707 323.417,48.517 308.789 C 47.619 307.500,46.360 305.720,45.720 304.833 C 35.260 290.355,23.131 263.210,19.080 245.215 C 18.898 244.409,18.592 243.091,18.399 242.285 C 17.641 239.124,17.067 236.211,16.014 230.176 C 14.610 222.125,13.689 210.173,13.688 200.000 C 13.688 186.532,14.993 173.556,17.559 161.523 C 17.788 160.449,18.082 159.043,18.213 158.398 C 18.439 157.282,19.613 152.768,21.110 147.266 C 30.603 112.363,55.054 76.450,85.352 52.908 C 91.405 48.205,104.822 39.062,105.672 39.063 C 105.741 39.063,107.350 38.163,109.247 37.064 C 119.123 31.340,136.570 24.019,147.266 21.110 C 152.768 19.613,157.282 18.439,158.398 18.213 C 159.043 18.082,160.449 17.788,161.523 17.559 C 168.367 16.100,175.863 15.034,185.938 14.088 C 191.623 13.554,208.742 13.648,215.234 14.249 M115.252 78.940 C 110.680 79.842,106.491 83.180,104.270 87.690 L 102.930 90.413 102.826 154.582 L 102.723 218.750 88.471 218.750 L 74.219 218.750 74.219 255.301 C 74.219 286.458,74.301 291.935,74.777 292.411 C 75.229 292.863,77.083 292.969,84.542 292.969 L 93.750 292.969 93.750 307.227 L 93.750 321.484 112.509 321.484 L 131.269 321.484 131.162 307.226 L 131.055 292.968 199.316 292.969 L 267.578 292.969 267.578 307.227 L 267.578 321.484 285.742 321.484 L 303.906 321.484 303.906 307.227 L 303.906 292.969 314.648 292.969 L 325.391 292.969 325.391 255.469 L 325.391 217.969 312.103 217.969 L 298.815 217.969 298.826 154.590 C 298.834 112.002,298.705 90.741,298.433 89.778 C 297.301 85.772,293.162 81.233,289.174 79.623 L 286.914 78.711 201.953 78.654 C 154.434 78.622,116.225 78.748,115.252 78.940 M243.832 106.054 L 243.718 113.672 200.179 113.672 L 156.641 113.672 156.641 106.055 L 156.641 98.438 200.293 98.437 L 243.945 98.437 243.832 106.054 M80.925 127.970 C 78.884 128.987,77.685 130.246,76.316 132.813 C 75.270 134.772,74.972 172.579,75.975 176.030 C 78.475 184.630,90.622 185.644,94.383 177.567 L 95.305 175.586 95.309 154.908 C 95.312 134.830,95.289 134.183,94.508 132.570 C 92.072 127.538,85.952 125.465,80.925 127.970 M312.750 128.762 C 310.191 129.549,307.370 132.371,306.487 135.030 C 305.385 138.348,305.715 174.070,306.870 176.567 C 310.511 184.431,321.636 184.453,325.109 176.602 C 326.012 174.561,326.188 137.637,325.307 135.059 C 323.502 129.779,318.160 127.101,312.750 128.762 M190.625 158.984 L 190.625 184.766 155.957 184.766 L 121.289 184.766 121.289 158.984 L 121.289 133.203 155.957 133.203 L 190.625 133.203 190.625 158.984 M279.389 158.984 L 279.492 184.766 244.824 184.766 L 210.156 184.766 210.156 158.984 L 210.156 133.203 244.721 133.203 L 279.286 133.203 279.389 158.984 M243.945 225.586 L 243.945 228.516 200.293 228.516 L 156.641 228.516 156.641 225.586 L 156.641 222.656 200.293 222.656 L 243.945 222.656 243.945 225.586 M291.451 232.037 C 299.909 233.629,305.853 242.063,304.333 250.315 C 301.536 265.490,281.147 268.582,274.364 254.859 C 268.544 243.082,278.621 229.622,291.451 232.037 M117.284 232.869 C 127.431 236.351,131.319 248.699,125.032 257.479 C 118.205 267.013,103.141 265.779,97.897 255.257 C 91.486 242.393,103.753 228.227,117.284 232.869 M243.945 243.161 L 243.945 246.087 200.293 246.188 L 156.641 246.289 156.641 243.262 L 156.641 240.234 200.293 240.234 L 243.945 240.234 243.945 243.161 M243.750 260.941 L 243.750 263.672 200.195 263.672 L 156.641 263.672 156.641 260.840 L 156.641 258.008 200.195 258.109 L 243.750 258.210 243.750 260.941 " stroke="none" fill="#fcfefe" fill-rule="evenodd"></path></g></svg>