<?xml version="1.0" encoding="UTF-8" standalone="no"?>
<svg
   xmlns:dc="http://purl.org/dc/elements/1.1/"
   xmlns:cc="http://creativecommons.org/ns#"
   xmlns:rdf="http://www.w3.org/1999/02/22-rdf-syntax-ns#"
   xmlns:svg="http://www.w3.org/2000/svg"
   xmlns="http://www.w3.org/2000/svg"
   xmlns:sodipodi="http://sodipodi.sourceforge.net/DTD/sodipodi-0.dtd"
   xmlns:inkscape="http://www.inkscape.org/namespaces/inkscape"
   id="svg"
   version="1.1"
   width="25"
   height="24.989252"
   style="display:block"
   sodipodi:docname="Jeep White.svg"
   inkscape:version="0.92.1 r15371">
  <metadata
     id="metadata13">
    <rdf:RDF>
      <cc:Work
         rdf:about="">
        <dc:format>image/svg+xml</dc:format>
        <dc:type
           rdf:resource="http://purl.org/dc/dcmitype/StillImage" />
      </cc:Work>
    </rdf:RDF>
  </metadata>
  <defs
     id="defs11" />
  <sodipodi:namedview
     pagecolor="#ffffff"
     bordercolor="#666666"
     borderopacity="1"
     objecttolerance="10"
     gridtolerance="10"
     guidetolerance="10"
     inkscape:pageopacity="0"
     inkscape:pageshadow="2"
     inkscape:window-width="640"
     inkscape:window-height="480"
     id="namedview9"
     showgrid="false"
     inkscape:zoom="0.59"
     inkscape:cx="196.95232"
     inkscape:cy="196.725"
     inkscape:window-x="0"
     inkscape:window-y="0"
     inkscape:window-maximized="0"
     inkscape:current-layer="svg" />
  <g
     id="svgg"
     transform="matrix(0.06348607,0,0,0.06348607,-0.19348537,-0.19725841)">
    <path
       id="path0"
       d=""
       inkscape:connector-curvature="0"
       style="fill:#0000ff;fill-rule:evenodd;stroke:none" />
    <path
       id="path1"
       d="m 183.203,3.373 c 0,0.186 -1.494,0.276 -3.32,0.2 -2.243,-0.093 -3.32,0.002 -3.32,0.293 0,0.275 -1.049,0.431 -2.907,0.431 -1.599,0 -3.015,0.176 -3.148,0.391 -0.133,0.214 -1.198,0.39 -2.367,0.39 -1.169,0 -2.125,0.176 -2.125,0.391 0,0.215 -0.967,0.39 -2.149,0.39 -1.181,0 -2.148,0.176 -2.148,0.391 0,0.215 -0.756,0.391 -1.68,0.391 -0.924,0 -1.895,0.215 -2.157,0.477 -0.263,0.263 -1.089,0.425 -1.836,0.361 -0.782,-0.067 -1.358,0.061 -1.358,0.304 0,0.231 -0.693,0.42 -1.54,0.42 -0.847,0 -1.648,0.176 -1.781,0.391 -0.133,0.215 -0.748,0.39 -1.367,0.39 -0.619,0 -1.234,0.176 -1.367,0.391 -0.133,0.215 -0.748,0.391 -1.367,0.391 -0.62,0 -1.235,0.175 -1.368,0.39 -0.132,0.215 -0.748,0.391 -1.367,0.391 -0.619,0 -1.234,0.176 -1.367,0.391 -0.133,0.214 -0.748,0.39 -1.367,0.39 -0.619,0 -1.235,0.176 -1.367,0.391 -0.133,0.215 -0.66,0.39 -1.172,0.39 -0.512,0 -1.018,0.141 -1.124,0.314 -0.107,0.172 -1.095,0.558 -2.196,0.858 -1.102,0.3 -2.09,0.687 -2.197,0.859 -0.106,0.172 -0.587,0.313 -1.069,0.313 -0.481,0 -1.042,0.14 -1.246,0.312 -0.204,0.171 -1.338,0.626 -2.52,1.01 -2.245,0.729 -3.637,1.268 -4.78,1.849 -0.373,0.189 -0.944,0.345 -1.269,0.345 -0.325,0 -0.591,0.176 -0.591,0.39 0,0.215 -0.44,0.391 -0.977,0.391 -0.537,0 -0.976,0.176 -0.976,0.391 0,0.214 -0.333,0.39 -0.74,0.39 -0.407,0 -0.845,0.276 -0.975,0.613 -0.156,0.407 -0.497,0.53 -1.018,0.364 -0.45,-0.142 -0.783,-0.071 -0.783,0.169 0,0.229 -0.352,0.417 -0.781,0.417 -0.43,0 -0.782,0.176 -0.782,0.39 0,0.215 -0.351,0.391 -0.781,0.391 -0.43,0 -0.781,0.176 -0.781,0.391 0,0.214 -0.352,0.39 -0.781,0.39 -0.43,0 -0.782,0.176 -0.782,0.391 0,0.215 -0.351,0.391 -0.781,0.391 -0.43,0 -0.781,0.175 -0.781,0.39 0,0.215 -0.352,0.391 -0.781,0.391 -0.43,0 -0.782,0.143 -0.782,0.317 0,0.175 -0.615,0.56 -1.367,0.855 -0.752,0.295 -1.367,0.679 -1.367,0.854 0,0.175 -0.352,0.318 -0.781,0.318 -0.43,0 -0.781,0.175 -0.781,0.39 0,0.215 -0.264,0.391 -0.586,0.391 -0.323,0 -0.586,0.176 -0.586,0.39 0,0.215 -0.352,0.391 -0.782,0.391 -0.429,0 -0.781,0.176 -0.781,0.391 0,0.214 -0.264,0.39 -0.586,0.39 -0.322,0 -0.586,0.143 -0.586,0.318 0,0.175 -0.615,0.559 -1.367,0.854 -0.752,0.295 -1.367,0.68 -1.367,0.854 0,0.175 -0.264,0.318 -0.586,0.318 -0.322,0 -0.586,0.176 -0.586,0.391 0,0.214 -0.264,0.39 -0.586,0.39 -0.322,0 -0.586,0.176 -0.586,0.391 0,0.215 -0.188,0.391 -0.418,0.39 -0.539,0 -3.929,2.313 -4.55,3.105 -0.262,0.333 -0.481,0.468 -0.488,0.299 -0.011,-0.277 -4.62,2.642 -5.091,3.225 -0.107,0.132 -1.03,0.761 -2.05,1.396 -1.02,0.635 -1.855,1.287 -1.855,1.448 -0.001,0.161 -0.175,0.293 -0.387,0.293 -0.411,0 -1.476,0.807 -2.966,2.246 -0.5,0.484 -1.093,0.879 -1.318,0.879 -0.224,0 -0.408,0.283 -0.408,0.628 0,0.407 -0.213,0.546 -0.606,0.395 -0.348,-0.133 -0.505,-0.068 -0.368,0.153 0.131,0.213 0.035,0.387 -0.214,0.387 -0.248,0 -0.944,0.527 -1.546,1.171 -0.603,0.645 -1.206,1.172 -1.342,1.172 -0.136,0 -0.841,0.572 -1.567,1.27 -0.726,0.698 -2.589,2.412 -4.14,3.809 -4.586,4.128 -5.042,4.576 -4.856,4.762 0.098,0.097 -0.348,0.681 -0.99,1.296 -0.642,0.615 -1.168,0.988 -1.168,0.829 0,-0.16 -0.923,0.716 -2.051,1.946 -1.128,1.23 -3.017,3.251 -4.199,4.491 -1.182,1.24 -2.588,2.799 -3.125,3.464 -0.537,0.664 -1.46,1.748 -2.051,2.407 -0.591,0.66 -1.074,1.351 -1.074,1.535 0,0.185 -0.53,0.914 -1.177,1.619 -1.973,2.151 -2.495,2.792 -3.51,4.31 -0.538,0.803 -1.088,1.461 -1.223,1.463 -0.135,0.001 -0.464,0.53 -0.731,1.174 -0.267,0.645 -0.598,1.172 -0.736,1.172 -0.138,0 -0.686,0.703 -1.217,1.563 -0.531,0.859 -1.086,1.562 -1.233,1.562 -0.147,0 -0.383,0.528 -0.525,1.172 -0.141,0.645 -0.507,1.172 -0.812,1.172 -0.305,0 -0.555,0.264 -0.555,0.586 0,0.322 -0.154,0.586 -0.343,0.586 -0.189,0 -0.562,0.527 -0.829,1.172 -0.267,0.644 -0.618,1.172 -0.781,1.172 -0.163,0 -0.514,0.527 -0.781,1.172 -0.267,0.644 -0.64,1.171 -0.829,1.171 -0.189,0 -0.343,0.352 -0.343,0.782 0,0.429 -0.154,0.781 -0.343,0.781 -0.189,0 -0.562,0.527 -0.829,1.172 -0.267,0.644 -0.64,1.172 -0.829,1.172 -0.188,0 -0.343,0.351 -0.343,0.781 0,0.43 -0.176,0.781 -0.39,0.781 -0.215,0 -0.391,0.271 -0.391,0.602 0,0.332 -0.352,0.98 -0.781,1.441 -0.43,0.461 -0.781,1.069 -0.781,1.351 0,0.282 -0.176,0.512 -0.391,0.512 -0.215,0 -0.391,0.352 -0.391,0.782 0,0.429 -0.176,0.781 -0.39,0.781 -0.215,0 -0.391,0.351 -0.391,0.781 0,0.43 -0.176,0.781 -0.391,0.781 -0.214,0 -0.39,0.352 -0.39,0.782 0,0.429 -0.176,0.781 -0.391,0.781 -0.215,0 -0.39,0.351 -0.39,0.781 0,0.43 -0.176,0.781 -0.391,0.781 -0.215,0 -0.391,0.352 -0.391,0.782 0,0.429 -0.176,0.781 -0.39,0.781 -0.215,0 -0.391,0.351 -0.391,0.781 0,0.43 -0.16,0.781 -0.356,0.781 -0.196,0 -0.473,0.69 -0.615,1.532 -0.143,0.843 -0.51,1.628 -0.816,1.746 -0.306,0.117 -0.557,0.571 -0.557,1.007 0,0.436 -0.176,0.794 -0.39,0.794 -0.215,0 -0.391,0.258 -0.391,0.574 0,0.315 -0.35,1.198 -0.779,1.96 -0.428,0.763 -0.756,1.515 -0.729,1.672 0.1,0.571 -0.55,2.825 -0.814,2.825 -0.149,0 -0.51,0.879 -0.803,1.953 -0.293,1.074 -0.676,1.953 -0.852,1.953 -0.176,0 -0.32,0.429 -0.32,0.954 0,0.524 -0.176,1.062 -0.39,1.194 -0.215,0.133 -0.391,0.661 -0.391,1.172 0,0.512 -0.176,1.039 -0.391,1.172 -0.215,0.133 -0.39,0.66 -0.39,1.172 0,0.512 -0.176,1.039 -0.391,1.172 -0.215,0.133 -0.391,0.66 -0.391,1.172 0,0.512 -0.175,1.039 -0.39,1.172 -0.215,0.132 -0.391,0.66 -0.391,1.172 0,0.511 -0.176,1.039 -0.391,1.171 -0.214,0.133 -0.39,0.847 -0.39,1.586 0,0.739 -0.176,1.344 -0.391,1.344 -0.215,0 -0.39,0.517 -0.39,1.149 0,0.632 -0.176,1.257 -0.391,1.39 -0.215,0.133 -0.391,0.846 -0.391,1.586 0,0.739 -0.175,1.344 -0.39,1.344 -0.215,0 -0.391,0.693 -0.391,1.539 0,0.847 -0.191,1.658 -0.426,1.803 -0.251,0.155 -0.328,0.783 -0.187,1.531 0.166,0.888 0.059,1.417 -0.356,1.761 -0.341,0.283 -0.593,1.127 -0.593,1.984 0,0.821 -0.176,1.601 -0.391,1.733 -0.215,0.133 -0.391,1.198 -0.391,2.367 0,1.169 -0.175,2.126 -0.39,2.126 -0.215,0 -0.391,0.956 -0.391,2.125 0,1.169 -0.176,2.234 -0.39,2.367 -0.215,0.133 -0.391,1.451 -0.391,2.93 0,1.529 -0.185,2.802 -0.429,2.953 -0.266,0.164 -0.388,1.393 -0.323,3.245 0.059,1.64 -0.033,3.293 -0.202,3.674 -0.68,1.526 -0.068,39.996 0.649,40.787 0.519,0.574 0.61,1.187 0.432,2.91 -0.147,1.425 -0.073,2.277 0.214,2.455 0.242,0.149 0.44,1.218 0.44,2.374 0,1.156 0.176,2.211 0.391,2.344 0.215,0.132 0.39,1.074 0.39,2.093 0,1.019 0.158,2.019 0.351,2.223 0.325,0.345 0.478,1.136 1.068,5.547 0.123,0.913 0.381,1.66 0.574,1.66 0.193,0 0.351,0.703 0.351,1.563 0,0.859 0.176,1.562 0.391,1.562 0.215,0 0.39,0.605 0.39,1.344 0,0.74 0.176,1.453 0.391,1.586 0.215,0.133 0.391,0.764 0.391,1.402 0,0.689 0.246,1.256 0.606,1.394 0.435,0.167 0.539,0.539 0.367,1.318 -0.133,0.606 -0.055,1.198 0.176,1.34 0.227,0.141 0.413,0.675 0.413,1.186 0,0.512 0.176,1.04 0.391,1.172 0.215,0.133 0.39,0.66 0.39,1.172 0,0.512 0.176,1.039 0.391,1.172 0.215,0.133 0.391,0.66 0.391,1.172 0,0.512 0.175,1.039 0.39,1.172 0.215,0.133 0.391,0.66 0.391,1.172 0,0.511 0.176,1.039 0.391,1.172 0.214,0.132 0.39,0.67 0.39,1.194 0,0.525 0.138,0.954 0.305,0.954 0.168,0 0.546,0.835 0.84,1.855 0.293,1.021 0.852,2.493 1.24,3.272 0.389,0.779 0.618,1.506 0.509,1.615 -0.109,0.108 0.162,0.839 0.603,1.622 0.44,0.784 0.8,1.684 0.8,1.999 0,0.316 0.176,0.575 0.391,0.575 0.214,0 0.39,0.334 0.39,0.744 0,0.797 1.564,4.052 2.051,4.269 0.161,0.071 0.293,0.467 0.293,0.878 0,0.412 0.176,0.749 0.391,0.749 0.214,0 0.39,0.352 0.39,0.781 0,0.43 0.176,0.782 0.391,0.782 0.215,0 0.391,0.351 0.391,0.781 0,0.43 0.175,0.781 0.39,0.781 0.215,0 0.391,0.352 0.391,0.781 0,0.43 0.176,0.782 0.39,0.782 0.215,0 0.391,0.351 0.391,0.781 0,0.43 0.176,0.781 0.391,0.781 0.214,0 0.39,0.352 0.39,0.781 0,0.43 0.176,0.782 0.391,0.782 0.215,0 0.39,0.23 0.39,0.512 0,0.282 0.352,0.89 0.782,1.351 0.429,0.461 0.781,1.109 0.781,1.441 0,0.331 0.176,0.602 0.391,0.602 0.214,0 0.39,0.351 0.39,0.781 0,0.43 0.176,0.781 0.391,0.781 0.215,0 0.39,0.231 0.39,0.513 0,0.281 0.352,0.889 0.782,1.351 0.429,0.461 0.781,1.109 0.781,1.44 0,0.332 0.154,0.603 0.343,0.603 0.189,0 0.562,0.527 0.829,1.172 0.267,0.644 0.64,1.171 0.829,1.171 0.188,0 0.343,0.231 0.343,0.513 0,0.281 0.351,0.889 0.781,1.351 0.43,0.461 0.781,1.021 0.781,1.245 0,0.224 0.198,0.363 0.44,0.309 0.241,-0.053 0.619,0.43 0.84,1.075 0.22,0.644 0.514,1.259 0.653,1.367 0.139,0.107 0.679,0.81 1.198,1.562 0.52,0.752 1.171,1.6 1.446,1.884 0.276,0.284 0.501,0.652 0.501,0.819 0,0.166 0.372,0.725 0.827,1.241 0.454,0.517 1.113,1.378 1.465,1.915 0.771,1.181 1.836,2.474 3.275,3.981 0.591,0.619 1.074,1.276 1.074,1.461 0,0.184 0.527,0.9 1.172,1.59 0.644,0.69 1.172,1.4 1.172,1.577 0,0.178 0.351,0.435 0.781,0.571 0.43,0.137 0.781,0.49 0.781,0.786 0,0.296 1.011,1.575 2.246,2.842 1.236,1.268 3.145,3.295 4.243,4.503 1.099,1.209 2.092,2.104 2.208,1.988 0.116,-0.116 0.536,0.254 0.933,0.823 0.916,1.314 3.284,3.722 6.231,6.336 3.44,3.053 4.148,3.621 4.512,3.621 0.181,0 0.33,0.188 0.33,0.418 0,0.469 0.967,1.535 1.391,1.535 0.152,0 0.56,0.326 0.907,0.725 0.348,0.399 1.028,0.851 1.511,1.003 0.483,0.153 0.879,0.529 0.879,0.837 0,0.308 0.193,0.56 0.429,0.56 0.236,0 0.922,0.527 1.524,1.172 0.602,0.644 1.288,1.172 1.524,1.172 0.236,0 0.429,0.175 0.429,0.39 0,0.215 0.264,0.391 0.586,0.391 0.322,0 0.586,0.132 0.587,0.293 0,0.161 0.835,0.813 1.855,1.448 1.02,0.635 1.943,1.264 2.05,1.396 0.471,0.583 5.08,3.502 5.091,3.225 0.007,-0.169 0.226,-0.034 0.488,0.299 0.621,0.792 4.011,3.104 4.55,3.105 0.23,0 0.418,0.175 0.418,0.39 0,0.215 0.264,0.391 0.586,0.391 0.322,0 0.586,0.176 0.586,0.39 0,0.215 0.264,0.391 0.586,0.391 0.322,0 0.586,0.143 0.586,0.318 0,0.174 0.615,0.559 1.367,0.854 0.752,0.295 1.367,0.679 1.367,0.854 0,0.175 0.264,0.318 0.586,0.318 0.322,0 0.586,0.176 0.586,0.39 0,0.215 0.352,0.391 0.781,0.391 0.43,0 0.782,0.176 0.782,0.391 0,0.214 0.263,0.39 0.586,0.39 0.322,0 0.586,0.176 0.586,0.391 0,0.215 0.351,0.391 0.781,0.391 0.429,0 0.781,0.142 0.781,0.317 0,0.175 0.615,0.559 1.367,0.854 0.752,0.295 1.367,0.68 1.367,0.855 0,0.174 0.352,0.317 0.782,0.317 0.429,0 0.781,0.176 0.781,0.391 0,0.215 0.351,0.391 0.781,0.391 0.43,0 0.781,0.175 0.781,0.39 0,0.215 0.352,0.391 0.782,0.391 0.429,0 0.781,0.176 0.781,0.39 0,0.215 0.351,0.391 0.781,0.391 0.43,0 0.781,0.176 0.781,0.391 0,0.214 0.352,0.39 0.782,0.39 0.429,0 0.781,0.176 0.781,0.391 0,0.215 0.439,0.391 0.976,0.391 0.538,0 0.977,0.175 0.977,0.39 0,0.215 0.352,0.391 0.781,0.391 0.43,0 0.782,0.176 0.782,0.39 0,0.215 0.439,0.391 0.976,0.391 0.537,0 0.977,0.176 0.977,0.391 0,0.214 0.266,0.39 0.591,0.39 0.325,0 0.896,0.156 1.269,0.345 1.143,0.581 2.535,1.12 4.78,1.849 1.182,0.384 2.316,0.839 2.52,1.01 0.204,0.172 0.69,0.312 1.079,0.312 0.685,0 1.075,0.147 2.939,1.111 0.48,0.248 1.217,0.451 1.637,0.451 0.42,0 0.872,0.176 1.005,0.391 0.133,0.215 0.66,0.391 1.172,0.391 0.512,0 1.039,0.175 1.172,0.39 0.132,0.215 0.748,0.391 1.367,0.391 0.619,0 1.234,0.176 1.367,0.39 0.133,0.215 0.758,0.391 1.39,0.391 0.632,0 1.149,0.176 1.149,0.391 0,0.215 0.605,0.39 1.344,0.39 0.74,0 1.453,0.176 1.586,0.391 0.133,0.215 0.748,0.391 1.367,0.391 0.619,0 1.234,0.175 1.367,0.39 0.133,0.215 0.836,0.391 1.563,0.391 0.726,0 1.442,0.196 1.59,0.435 0.159,0.258 0.873,0.354 1.754,0.236 1.054,-0.141 1.547,-0.041 1.695,0.346 0.137,0.356 0.825,0.545 1.98,0.545 1.002,0 1.77,0.183 1.77,0.421 0,0.252 0.688,0.377 1.723,0.314 1.006,-0.062 1.983,0.109 2.347,0.411 0.406,0.337 1.233,0.449 2.371,0.321 1.207,-0.136 1.885,-0.031 2.193,0.34 0.297,0.358 1.317,0.537 3.054,0.537 1.566,0 2.804,0.195 3.097,0.488 0.712,0.712 46.28,0.712 46.992,0 0.293,-0.293 1.531,-0.488 3.097,-0.488 1.737,0 2.757,-0.179 3.054,-0.537 0.308,-0.371 0.986,-0.476 2.193,-0.34 1.138,0.128 1.965,0.016 2.371,-0.321 0.364,-0.302 1.341,-0.473 2.347,-0.411 1.035,0.063 1.723,-0.062 1.723,-0.314 0,-0.238 0.768,-0.421 1.77,-0.421 1.155,0 1.843,-0.189 1.98,-0.545 0.148,-0.387 0.641,-0.487 1.695,-0.346 0.881,0.118 1.595,0.022 1.754,-0.236 0.148,-0.239 0.864,-0.435 1.59,-0.435 0.727,0 1.43,-0.176 1.563,-0.391 0.133,-0.215 0.748,-0.39 1.367,-0.39 0.619,0 1.234,-0.176 1.367,-0.391 0.133,-0.215 0.846,-0.391 1.586,-0.391 0.739,0 1.344,-0.175 1.344,-0.39 0,-0.215 0.517,-0.391 1.149,-0.391 0.632,0 1.257,-0.176 1.39,-0.39 0.133,-0.215 0.748,-0.391 1.367,-0.391 0.619,0 1.235,-0.176 1.367,-0.391 0.133,-0.215 0.66,-0.39 1.172,-0.39 0.512,0 1.039,-0.176 1.172,-0.391 0.133,-0.215 0.585,-0.391 1.005,-0.391 0.42,0 1.113,-0.175 1.539,-0.39 0.427,-0.215 1.126,-0.567 1.552,-0.782 0.427,-0.214 1.095,-0.39 1.485,-0.39 0.389,0 0.875,-0.14 1.079,-0.312 0.204,-0.171 1.338,-0.626 2.52,-1.01 2.245,-0.729 3.637,-1.268 4.78,-1.849 0.373,-0.189 0.944,-0.345 1.269,-0.345 0.325,0 0.591,-0.176 0.591,-0.39 0,-0.215 0.44,-0.391 0.977,-0.391 0.537,0 0.977,-0.176 0.977,-0.391 0,-0.214 0.332,-0.39 0.739,-0.39 0.407,0 0.845,-0.276 0.975,-0.613 0.156,-0.407 0.497,-0.53 1.018,-0.364 0.45,0.142 0.783,0.071 0.783,-0.169 0,-0.229 0.352,-0.417 0.781,-0.417 0.43,0 0.782,-0.176 0.782,-0.39 0,-0.215 0.351,-0.391 0.781,-0.391 0.43,0 0.781,-0.176 0.781,-0.391 0,-0.214 0.352,-0.39 0.781,-0.39 0.43,0 0.782,-0.176 0.782,-0.391 0,-0.215 0.351,-0.39 0.781,-0.39 0.43,0 0.781,-0.176 0.781,-0.391 0,-0.215 0.352,-0.391 0.781,-0.391 0.43,0 0.782,-0.176 0.782,-0.39 0,-0.215 0.263,-0.391 0.586,-0.391 0.322,0 0.586,-0.176 0.586,-0.391 0,-0.214 0.351,-0.39 0.781,-0.39 0.429,0 0.781,-0.176 0.781,-0.391 0,-0.215 0.352,-0.39 0.781,-0.39 0.43,0 0.782,-0.176 0.782,-0.391 0,-0.215 0.263,-0.391 0.585,-0.391 0.323,0 0.586,-0.176 0.586,-0.39 0,-0.215 0.352,-0.391 0.782,-0.391 0.429,0 0.781,-0.176 0.781,-0.391 0,-0.214 0.264,-0.39 0.586,-0.39 0.322,0 0.586,-0.143 0.586,-0.318 0,-0.175 0.615,-0.559 1.367,-0.854 0.752,-0.295 1.367,-0.68 1.367,-0.854 0,-0.175 0.264,-0.318 0.586,-0.318 0.322,0 0.586,-0.176 0.586,-0.391 0,-0.214 0.264,-0.39 0.586,-0.39 0.322,0 0.586,-0.176 0.586,-0.391 0,-0.215 0.181,-0.39 0.402,-0.39 0.427,0 9.607,-6.053 10.444,-6.887 0.273,-0.271 1.195,-0.886 2.051,-1.367 0.856,-0.481 1.556,-1.018 1.556,-1.193 0,-0.176 0.174,-0.319 0.386,-0.319 0.411,0 1.476,-0.807 2.966,-2.246 0.5,-0.484 1.054,-0.879 1.232,-0.879 0.177,0 0.575,-0.352 0.885,-0.781 0.309,-0.43 0.717,-0.782 0.906,-0.782 0.188,0 0.835,-0.527 1.438,-1.172 0.602,-0.644 1.205,-1.171 1.341,-1.171 0.136,0 0.839,-0.572 1.563,-1.27 0.723,-0.698 2.41,-2.236 3.747,-3.418 3.263,-2.882 6.267,-5.786 6.252,-6.042 -0.007,-0.114 0.049,-0.164 0.124,-0.11 0.076,0.053 1.262,-1.12 2.637,-2.608 1.375,-1.488 3.378,-3.598 4.453,-4.69 1.074,-1.091 2.568,-2.774 3.319,-3.739 0.751,-0.966 1.718,-2.135 2.148,-2.599 0.823,-0.886 1.567,-1.848 2.541,-3.283 0.322,-0.476 0.937,-1.236 1.367,-1.69 0.429,-0.454 1.22,-1.483 1.758,-2.287 0.537,-0.804 1.108,-1.463 1.269,-1.465 0.161,-10e-4 0.293,-0.233 0.293,-0.515 0,-0.282 0.316,-0.853 0.703,-1.269 0.386,-0.417 1.473,-1.9 2.414,-3.297 0.941,-1.396 1.856,-2.597 2.032,-2.669 0.176,-0.072 0.32,-0.379 0.32,-0.683 0,-0.305 0.154,-0.554 0.343,-0.554 0.189,0 0.562,-0.527 0.829,-1.172 0.267,-0.644 0.639,-1.172 0.828,-1.172 0.189,0 0.344,-0.312 0.344,-0.695 0,-0.382 0.351,-0.948 0.781,-1.258 0.429,-0.309 0.781,-0.876 0.781,-1.258 0,-0.382 0.154,-0.695 0.343,-0.695 0.189,0 0.562,-0.527 0.829,-1.172 0.267,-0.644 0.64,-1.172 0.829,-1.172 0.188,0 0.343,-0.351 0.343,-0.781 0,-0.43 0.176,-0.781 0.39,-0.781 0.215,0 0.391,-0.271 0.391,-0.602 0,-0.332 0.352,-0.98 0.781,-1.441 0.43,-0.461 0.782,-1.069 0.782,-1.351 0,-0.282 0.175,-0.512 0.39,-0.512 0.215,0 0.391,-0.352 0.391,-0.782 0,-0.429 0.176,-0.781 0.39,-0.781 0.215,0 0.391,-0.351 0.391,-0.781 0,-0.43 0.176,-0.781 0.391,-0.781 0.214,0 0.39,-0.352 0.39,-0.782 0,-0.429 0.176,-0.781 0.391,-0.781 0.215,0 0.391,-0.351 0.391,-0.781 0,-0.43 0.175,-0.781 0.39,-0.781 0.215,0 0.391,-0.352 0.391,-0.782 0,-0.429 0.176,-0.781 0.39,-0.781 0.215,0 0.391,-0.351 0.391,-0.781 0,-0.43 0.16,-0.781 0.356,-0.781 0.196,0 0.477,-0.716 0.625,-1.59 0.148,-0.874 0.515,-1.684 0.816,-1.8 0.301,-0.115 0.547,-0.542 0.547,-0.949 0,-0.407 0.176,-0.739 0.39,-0.739 0.215,0 0.391,-0.237 0.391,-0.526 0,-0.29 0.272,-1.072 0.604,-1.738 0.333,-0.666 0.676,-1.581 0.763,-2.033 0.087,-0.452 0.402,-1.311 0.701,-1.909 0.298,-0.598 0.784,-1.907 1.08,-2.909 0.296,-1.003 0.676,-1.823 0.844,-1.823 0.167,0 0.305,-0.527 0.305,-1.172 0,-0.644 0.176,-1.172 0.391,-1.172 0.214,0 0.39,-0.429 0.39,-0.953 0,-0.525 0.176,-1.062 0.391,-1.195 0.215,-0.133 0.39,-0.66 0.39,-1.172 0,-0.512 0.176,-1.039 0.391,-1.172 0.215,-0.133 0.391,-0.66 0.391,-1.172 0,-0.512 0.175,-1.039 0.39,-1.172 0.215,-0.132 0.391,-0.66 0.391,-1.172 0,-0.511 0.176,-1.039 0.391,-1.171 0.214,-0.133 0.39,-0.748 0.39,-1.368 0,-0.619 0.176,-1.234 0.391,-1.367 0.215,-0.133 0.39,-0.748 0.39,-1.367 0,-0.619 0.176,-1.234 0.391,-1.367 0.215,-0.133 0.391,-0.846 0.391,-1.586 0,-0.739 0.175,-1.344 0.39,-1.344 0.215,0 0.391,-0.703 0.391,-1.562 0,-0.9 0.187,-1.563 0.44,-1.563 0.293,0 0.36,-0.508 0.198,-1.517 -0.175,-1.099 -0.082,-1.65 0.341,-2.001 0.331,-0.274 0.583,-1.129 0.583,-1.975 0,-0.821 0.197,-1.613 0.437,-1.762 0.273,-0.169 0.351,-0.894 0.208,-1.939 -0.172,-1.252 -0.075,-1.797 0.389,-2.181 0.469,-0.389 0.565,-0.956 0.4,-2.352 -0.154,-1.296 -0.061,-1.969 0.315,-2.281 0.306,-0.254 0.621,-1.557 0.74,-3.057 0.114,-1.438 0.403,-4.812 0.644,-7.497 0.607,-6.789 0.349,-41.597 -0.313,-42.259 -0.286,-0.286 -0.476,-1.597 -0.476,-3.279 0,-1.968 -0.168,-2.944 -0.564,-3.272 -0.416,-0.345 -0.504,-0.974 -0.336,-2.392 0.145,-1.224 0.079,-1.923 -0.181,-1.923 -0.225,0 -0.507,-0.923 -0.628,-2.051 -0.461,-4.333 -0.726,-5.762 -1.065,-5.762 -0.193,0 -0.351,-0.781 -0.351,-1.735 0,-0.954 -0.176,-1.843 -0.39,-1.976 -0.215,-0.133 -0.391,-0.934 -0.391,-1.781 0,-0.846 -0.157,-1.539 -0.348,-1.539 -0.191,0 -0.455,-0.615 -0.586,-1.367 -0.131,-0.752 -0.345,-1.983 -0.476,-2.735 -0.131,-0.752 -0.395,-1.367 -0.586,-1.367 -0.191,0 -0.348,-0.383 -0.348,-0.851 0,-0.899 -0.644,-3.18 -1.22,-4.319 -0.188,-0.373 -0.342,-1.022 -0.342,-1.442 0,-0.42 -0.176,-0.872 -0.391,-1.005 -0.215,-0.133 -0.391,-0.671 -0.391,-1.195 0,-0.524 -0.175,-0.953 -0.39,-0.953 -0.215,0 -0.391,-0.528 -0.391,-1.172 0,-0.645 -0.176,-1.172 -0.39,-1.172 -0.215,0 -0.391,-0.528 -0.391,-1.172 0,-0.645 -0.144,-1.172 -0.32,-1.172 -0.176,0 -0.559,-0.879 -0.852,-1.953 -0.293,-1.074 -0.654,-1.953 -0.803,-1.953 -0.149,0 -0.403,-0.572 -0.565,-1.27 -0.162,-0.698 -0.343,-1.481 -0.403,-1.741 -0.059,-0.259 -0.388,-1.033 -0.731,-1.72 -0.343,-0.687 -0.623,-1.485 -0.623,-1.775 0,-0.289 -0.176,-0.525 -0.391,-0.525 -0.214,0 -0.39,-0.352 -0.39,-0.782 0,-0.429 -0.176,-0.781 -0.391,-0.781 -0.215,0 -0.39,-0.439 -0.39,-0.977 0,-0.537 -0.176,-0.976 -0.391,-0.976 -0.215,0 -0.391,-0.352 -0.391,-0.781 0,-0.43 -0.176,-0.782 -0.39,-0.782 -0.215,0 -0.391,-0.351 -0.391,-0.781 0,-0.43 -0.176,-0.781 -0.391,-0.781 -0.214,0 -0.39,-0.352 -0.39,-0.781 0,-0.43 -0.176,-0.782 -0.391,-0.782 -0.215,0 -0.39,-0.351 -0.39,-0.781 0,-0.43 -0.176,-0.781 -0.391,-0.781 -0.215,0 -0.391,-0.352 -0.391,-0.781 0,-0.43 -0.176,-0.782 -0.39,-0.782 -0.215,0 -0.391,-0.351 -0.391,-0.781 0,-0.43 -0.176,-0.781 -0.391,-0.781 -0.214,0 -0.39,-0.352 -0.39,-0.781 0,-0.43 -0.176,-0.782 -0.391,-0.782 -0.215,0 -0.39,-0.23 -0.39,-0.512 0,-0.282 -0.352,-0.89 -0.782,-1.351 -0.429,-0.461 -0.781,-1.109 -0.781,-1.441 0,-0.331 -0.176,-0.602 -0.391,-0.602 -0.214,0 -0.39,-0.351 -0.39,-0.781 0,-0.43 -0.155,-0.781 -0.343,-0.781 -0.189,0 -0.562,-0.528 -0.829,-1.172 -0.267,-0.645 -0.64,-1.172 -0.829,-1.172 -0.189,0 -0.343,-0.313 -0.343,-0.695 0,-0.382 -0.352,-0.949 -0.781,-1.258 -0.43,-0.31 -0.781,-0.876 -0.781,-1.258 0,-0.383 -0.155,-0.695 -0.344,-0.695 -0.189,0 -0.561,-0.528 -0.828,-1.172 -0.267,-0.645 -0.64,-1.172 -0.829,-1.172 -0.189,0 -0.343,-0.264 -0.343,-0.586 0,-0.322 -0.135,-0.586 -0.299,-0.586 -0.164,0 -0.733,-0.703 -1.264,-1.562 -0.531,-0.86 -1.088,-1.563 -1.238,-1.563 -0.149,0 -0.376,-0.33 -0.504,-0.733 -0.128,-0.404 -0.667,-1.239 -1.198,-1.856 -0.531,-0.617 -0.965,-1.327 -0.966,-1.578 0,-0.25 -0.133,-0.514 -0.296,-0.586 -0.163,-0.071 -0.908,-0.921 -1.657,-1.888 -1.908,-2.465 -1.893,-2.445 -2.644,-3.381 -0.372,-0.464 -0.94,-1.232 -1.262,-1.708 -0.323,-0.475 -1.245,-1.561 -2.051,-2.412 C 350.659,72.507 350,71.662 350,71.479 c 0,-0.183 -0.352,-0.444 -0.781,-0.581 -0.43,-0.136 -0.781,-0.488 -0.781,-0.781 0,-0.294 -0.835,-1.396 -1.856,-2.451 -1.02,-1.054 -2.952,-3.089 -4.293,-4.522 -1.341,-1.432 -2.527,-2.602 -2.637,-2.601 -0.109,0.002 -0.225,-0.128 -0.258,-0.289 -0.032,-0.161 -1.024,-1.172 -2.203,-2.246 -1.18,-1.074 -3.104,-2.87 -4.276,-3.99 -1.172,-1.12 -2.437,-2.133 -2.812,-2.252 -0.374,-0.119 -0.915,-0.653 -1.2,-1.187 -0.286,-0.533 -0.683,-0.97 -0.883,-0.97 -0.199,0 -0.855,-0.527 -1.457,-1.172 -0.603,-0.644 -1.25,-1.171 -1.438,-1.171 -0.189,0 -0.597,-0.352 -0.906,-0.782 -0.31,-0.429 -0.749,-0.781 -0.977,-0.781 -0.227,0 -0.667,-0.351 -0.976,-0.781 -0.31,-0.43 -0.75,-0.781 -0.977,-0.781 -0.227,0 -0.667,-0.352 -0.976,-0.782 -0.31,-0.429 -0.774,-0.781 -1.031,-0.781 -0.257,0 -0.525,-0.146 -0.597,-0.325 -0.108,-0.27 -2.62,-2.036 -5.372,-3.776 -0.34,-0.215 -0.706,-0.487 -0.813,-0.605 -0.515,-0.565 -2.734,-1.955 -2.734,-1.713 0,0.152 -0.456,-0.18 -1.014,-0.738 -0.557,-0.557 -1.524,-1.239 -2.148,-1.516 -0.624,-0.276 -1.135,-0.635 -1.135,-0.797 0,-0.163 -0.264,-0.295 -0.586,-0.295 -0.322,0 -0.586,-0.176 -0.586,-0.391 0,-0.215 -0.264,-0.391 -0.586,-0.391 -0.322,0 -0.586,-0.176 -0.586,-0.39 0,-0.215 -0.264,-0.391 -0.586,-0.391 -0.322,0 -0.586,-0.143 -0.586,-0.318 0,-0.174 -0.615,-0.559 -1.367,-0.854 -0.752,-0.295 -1.367,-0.679 -1.367,-0.854 0,-0.175 -0.264,-0.318 -0.586,-0.318 -0.322,0 -0.586,-0.176 -0.586,-0.39 0,-0.215 -0.352,-0.391 -0.781,-0.391 -0.43,0 -0.782,-0.176 -0.782,-0.391 0,-0.214 -0.263,-0.39 -0.586,-0.39 -0.322,0 -0.585,-0.176 -0.585,-0.391 0,-0.215 -0.352,-0.39 -0.782,-0.39 -0.429,0 -0.781,-0.176 -0.781,-0.391 0,-0.215 -0.352,-0.391 -0.781,-0.391 -0.43,0 -0.781,-0.176 -0.781,-0.39 0,-0.215 -0.264,-0.391 -0.586,-0.391 -0.323,0 -0.586,-0.176 -0.586,-0.391 0,-0.214 -0.352,-0.39 -0.782,-0.39 -0.429,0 -0.781,-0.176 -0.781,-0.391 0,-0.215 -0.351,-0.39 -0.781,-0.39 -0.43,0 -0.781,-0.176 -0.781,-0.391 0,-0.215 -0.352,-0.391 -0.782,-0.391 -0.429,0 -0.781,-0.176 -0.781,-0.39 0,-0.215 -0.351,-0.391 -0.781,-0.391 -0.43,0 -0.781,-0.176 -0.781,-0.391 0,-0.214 -0.45,-0.39 -1,-0.39 -0.631,0 -0.901,-0.16 -0.732,-0.433 0.18,-0.291 -0.005,-0.346 -0.565,-0.168 -0.573,0.182 -0.905,0.073 -1.067,-0.349 -0.13,-0.337 -0.568,-0.613 -0.975,-0.613 -0.407,0 -0.739,-0.176 -0.739,-0.39 0,-0.215 -0.44,-0.391 -0.977,-0.391 -0.537,0 -0.977,-0.176 -0.977,-0.391 0,-0.214 -0.266,-0.39 -0.591,-0.39 -0.325,0 -0.896,-0.156 -1.269,-0.345 -1.143,-0.581 -2.535,-1.12 -4.78,-1.849 -1.182,-0.384 -2.316,-0.839 -2.52,-1.01 -0.204,-0.172 -0.765,-0.312 -1.246,-0.312 -0.482,0 -0.984,-0.176 -1.117,-0.39 -0.133,-0.215 -0.585,-0.391 -1.005,-0.391 -0.737,0 -1.118,-0.141 -2.994,-1.111 -0.48,-0.248 -1.217,-0.452 -1.637,-0.452 -0.42,0 -0.872,-0.175 -1.005,-0.39 -0.132,-0.215 -0.748,-0.391 -1.367,-0.391 -0.619,0 -1.234,-0.176 -1.367,-0.39 -0.133,-0.215 -0.748,-0.391 -1.367,-0.391 -0.619,0 -1.235,-0.176 -1.367,-0.391 -0.133,-0.215 -0.748,-0.39 -1.368,-0.39 -0.619,0 -1.234,-0.176 -1.367,-0.391 C 251.234,9.16 250.619,8.984 250,8.984 c -0.619,0 -1.234,-0.175 -1.367,-0.39 -0.133,-0.215 -0.924,-0.391 -1.758,-0.391 -0.834,0 -1.635,-0.193 -1.781,-0.428 -0.146,-0.236 -0.775,-0.353 -1.398,-0.262 -0.653,0.096 -1.315,-0.053 -1.564,-0.353 -0.238,-0.287 -1.195,-0.519 -2.141,-0.519 -0.94,0 -1.71,-0.176 -1.71,-0.391 0,-0.215 -0.956,-0.391 -2.125,-0.391 -1.169,0 -2.234,-0.175 -2.367,-0.39 -0.133,-0.215 -1.1,-0.391 -2.148,-0.391 -1.049,0 -2.016,-0.176 -2.149,-0.39 -0.133,-0.215 -1.535,-0.391 -3.115,-0.391 -1.93,0 -2.927,-0.158 -3.035,-0.482 -0.191,-0.572 -40.139,-1.012 -40.139,-0.442 m 27.539,6.203 c 8.309,0.527 10.872,0.783 17.774,1.774 6.956,0.999 15.821,2.903 23.242,4.992 3.027,0.852 13.17,4.174 14.551,4.766 0.483,0.207 1.362,0.573 1.953,0.813 0.591,0.239 1.379,0.591 1.752,0.781 0.373,0.19 0.851,0.345 1.063,0.345 0.711,0 11.457,4.93 16.502,7.571 44.311,23.195 78.432,63.182 93.492,109.565 1.37,4.221 1.647,5.13 2.514,8.255 0.269,0.966 0.631,2.109 0.805,2.539 0.174,0.429 0.427,1.308 0.563,1.953 0.341,1.63 0.867,3.978 1.355,6.054 0.694,2.954 1.845,9.179 2.42,13.086 2.832,19.243 2.663,41.512 -0.446,58.594 -0.196,1.074 -0.551,3.096 -0.79,4.492 -0.442,2.584 -0.941,4.965 -1.554,7.422 -0.188,0.752 -0.545,2.246 -0.794,3.32 -0.249,1.075 -0.588,2.393 -0.752,2.93 -0.286,0.934 -0.441,1.47 -1.587,5.469 -1.643,5.733 -4.615,13.876 -7.983,21.875 -1.542,3.661 -7.381,15.222 -9.204,18.223 -0.856,1.408 -1.555,2.639 -1.555,2.737 0,0.097 -0.704,1.212 -1.563,2.477 -0.859,1.266 -1.563,2.407 -1.562,2.536 0,0.312 -4.764,7.21 -7.961,11.527 -2.046,2.763 -7.804,9.9 -9.598,11.895 -5.347,5.95 -12.755,13.374 -17.207,17.242 -0.967,0.84 -1.846,1.616 -1.953,1.725 -1.439,1.456 -9.958,8.099 -14.453,11.269 -4.596,3.241 -7.408,5.135 -7.627,5.135 -0.132,-10e-4 -0.976,0.506 -1.875,1.124 -0.899,0.619 -2.249,1.475 -3,1.903 -0.751,0.428 -2.86,1.644 -4.686,2.702 -10.068,5.833 -26.849,12.904 -38.281,16.131 -0.967,0.272 -2.197,0.627 -2.734,0.787 -2.855,0.85 -3.885,1.132 -5.665,1.551 -1.074,0.253 -2.568,0.614 -3.32,0.802 -2.385,0.595 -4.805,1.106 -7.422,1.565 -1.396,0.246 -3.33,0.595 -4.297,0.776 -1.634,0.306 -3.907,0.611 -11.62,1.562 -14.269,1.76 -36.572,0.935 -52.149,-1.928 -4.483,-0.824 -6.381,-1.2 -8.106,-1.605 -2.076,-0.488 -4.424,-1.014 -6.054,-1.355 -0.645,-0.136 -1.524,-0.384 -1.953,-0.553 -1.631,-0.641 -3.596,-1.197 -4.233,-1.197 -0.363,0 -0.966,-0.156 -1.339,-0.347 -0.373,-0.191 -2.436,-0.903 -4.585,-1.582 -4.314,-1.365 -7.346,-2.467 -9.859,-3.585 -0.91,-0.405 -1.803,-0.736 -1.983,-0.736 -1.21,0 -17.526,-7.856 -22.728,-10.943 -1.182,-0.702 -2.676,-1.581 -3.32,-1.954 -32.067,-18.555 -60.705,-50.261 -76.136,-84.289 -3.338,-7.361 -3.747,-8.31 -3.747,-8.69 0,-0.212 -0.155,-0.69 -0.345,-1.063 -0.311,-0.611 -0.566,-1.199 -1.646,-3.803 -1.133,-2.728 -4.867,-14.667 -5.866,-18.75 -0.21,-0.859 -0.532,-2.178 -0.715,-2.93 -5.14,-21.08 -6.606,-46.226 -3.927,-67.383 0.805,-6.352 0.782,-6.206 1.984,-12.597 0.394,-2.097 0.565,-2.91 1.583,-7.52 0.592,-2.685 1.517,-6.305 2.343,-9.179 0.879,-3.054 4.308,-13.359 4.645,-13.96 0.21,-0.373 0.381,-0.858 0.381,-1.078 0,-0.221 0.325,-1.146 0.723,-2.057 0.397,-0.91 1.305,-3.062 2.018,-4.78 11.742,-28.326 32.409,-55.471 57.292,-75.249 6.086,-4.838 16.79,-12.447 17.51,-12.447 0.129,0 1.27,-0.703 2.536,-1.562 1.265,-0.86 2.401,-1.563 2.524,-1.563 0.123,0 1.379,-0.702 2.792,-1.56 3,-1.822 14.583,-7.509 19.098,-9.375 1.718,-0.71 3.87,-1.617 4.78,-2.014 0.911,-0.398 1.836,-0.723 2.057,-0.723 0.22,0 0.705,-0.171 1.078,-0.381 0.673,-0.378 10.783,-3.728 14.155,-4.691 3.198,-0.913 6.096,-1.655 9.18,-2.349 1.074,-0.242 2.568,-0.596 3.32,-0.786 0.752,-0.19 2.07,-0.46 2.93,-0.599 0.859,-0.139 2.441,-0.411 3.515,-0.605 6.653,-1.202 12.829,-1.914 21.485,-2.476 10.46,-0.68 11.842,-0.682 22.265,-0.021 m -20.941,4.658 c -0.13,0.131 -2.591,0.414 -5.468,0.629 -7.151,0.533 -11.073,1.029 -18.122,2.291 -1.074,0.192 -2.656,0.469 -3.516,0.615 -0.859,0.145 -2.002,0.407 -2.539,0.581 -0.537,0.174 -2.031,0.531 -3.32,0.794 -1.289,0.263 -3.486,0.804 -4.883,1.203 -1.396,0.398 -3.857,1.094 -5.469,1.546 -10.89,3.056 -29.117,10.778 -38.476,16.302 -0.645,0.38 -2.051,1.206 -3.125,1.834 -25.424,14.862 -49.991,39.429 -64.854,64.854 -0.628,1.074 -1.456,2.48 -1.84,3.125 -5.559,9.339 -13.76,28.901 -16.686,39.798 -0.411,1.529 -0.997,3.659 -1.302,4.733 -0.306,1.074 -0.765,2.92 -1.02,4.102 -0.255,1.181 -0.619,2.763 -0.809,3.515 -0.33,1.31 -0.754,3.465 -1.553,7.91 -3.864,21.478 -3.435,48.034 1.127,69.825 0.673,3.212 1.75,7.773 2.306,9.765 0.209,0.752 0.756,2.751 1.215,4.442 11.608,42.795 46.073,87.286 83.611,107.934 1.182,0.65 3.115,1.757 4.297,2.46 8.429,5.018 25.89,12.418 35.938,15.231 0.966,0.271 2.197,0.628 2.734,0.793 0.537,0.165 1.767,0.516 2.734,0.781 0.967,0.265 2.198,0.618 2.735,0.785 0.537,0.167 2.031,0.517 3.32,0.777 1.289,0.261 2.783,0.617 3.32,0.791 0.954,0.309 2.085,0.527 6.055,1.166 1.074,0.173 3.096,0.513 4.492,0.754 14.935,2.585 36.637,2.917 52.93,0.809 5.732,-0.741 13.231,-2.055 17.969,-3.146 4.32,-0.996 4.386,-1.013 8.984,-2.327 0.752,-0.215 1.982,-0.566 2.734,-0.781 0.752,-0.215 1.939,-0.551 2.637,-0.747 0.698,-0.196 3.291,-1.089 5.762,-1.983 2.47,-0.894 4.931,-1.774 5.469,-1.954 1.189,-0.4 4.781,-1.866 8.203,-3.348 3.282,-1.423 12.912,-6.243 15.429,-7.725 1.994,-1.173 3.425,-1.998 5.869,-3.382 5.783,-3.276 17.611,-11.897 25.193,-18.361 3.373,-2.875 15.828,-15.209 17.679,-17.506 0.811,-1.006 2.449,-2.973 3.64,-4.369 4.841,-5.678 13.914,-18.522 16.831,-23.828 0.65,-1.182 1.7,-3.027 2.333,-4.102 2.709,-4.592 7.853,-15.415 10.305,-21.679 0.462,-1.182 1.019,-2.588 1.237,-3.125 0.602,-1.481 3.243,-9.335 3.809,-11.328 0.275,-0.967 0.635,-2.198 0.8,-2.735 0.165,-0.537 0.516,-1.767 0.781,-2.734 0.265,-0.967 0.618,-2.198 0.785,-2.735 0.167,-0.537 0.517,-2.031 0.777,-3.32 0.261,-1.289 0.614,-2.783 0.784,-3.32 0.17,-0.537 0.516,-2.295 0.769,-3.906 0.253,-1.612 0.611,-3.633 0.796,-4.493 0.351,-1.639 0.855,-5.174 1.529,-10.742 1.751,-14.448 1.266,-35.753 -1.132,-49.805 -0.22,-1.289 -0.575,-3.398 -0.79,-4.687 -0.634,-3.809 -2.063,-10.271 -3.067,-13.867 -0.209,-0.752 -0.762,-2.774 -1.227,-4.492 -1.473,-5.441 -5.19,-15.819 -7.877,-21.995 -21.952,-50.452 -67.471,-90.536 -118.546,-104.39 -1.691,-0.459 -3.69,-1.005 -4.442,-1.215 -0.752,-0.209 -2.158,-0.562 -3.125,-0.784 -0.967,-0.222 -2.461,-0.572 -3.32,-0.778 -6.878,-1.644 -16.284,-3.116 -24.805,-3.881 -4.993,-0.449 -26.273,-0.909 -26.605,-0.575 m 96.34,64.316 c 5.148,0.952 10.179,5.017 11.906,9.62 l 0.848,2.26 -0.05,63.769 -0.05,63.77 h 13.298 13.298 v 37.5 37.5 h -10.743 -10.742 v 14.258 14.257 h -18.164 -18.164 v -14.257 -14.258 h -68.262 l -68.261,-10e-4 0.107,14.258 0.107,14.258 H 112.509 93.75 v -14.257 -14.258 h -9.208 c -7.459,0 -9.313,-0.106 -9.765,-0.558 -0.476,-0.476 -0.558,-5.953 -0.558,-37.11 V 218.75 h 14.269 14.269 l -0.035,-63.994 c -0.034,-59.962 0.007,-64.103 0.644,-65.723 1.64,-4.166 4.327,-7.098 8.291,-9.05 l 2.584,-1.272 83.993,-0.198 c 46.196,-0.109 84.356,-0.241 84.8,-0.293 0.444,-0.052 1.842,0.096 3.107,0.33 m -129.5,27.505 v 7.617 h 43.538 43.539 l 0.114,-7.618 0.113,-7.617 h -43.652 l -43.652,0.001 v 7.617 m -67.188,21.319 c 5.997,2.712 5.955,2.519 5.944,27.78 l -0.009,21.406 -1.023,1.746 c -4.122,7.033 -14.798,6.467 -18.162,-0.962 -1.192,-2.636 -1.242,-42.18 -0.056,-44.792 2.242,-4.939 8.472,-7.363 13.306,-5.178 m 230.673,1.482 c 1.944,0.883 3.872,2.773 4.916,4.82 0.923,1.809 1.294,40.732 0.41,42.964 -3.284,8.292 -16.577,7.748 -19.133,-0.783 -0.917,-3.06 -0.607,-39.751 0.353,-41.873 2.243,-4.955 8.546,-7.357 13.454,-5.128 m -198.837,30.128 v 25.782 h 34.668 34.668 v -25.782 -25.781 h -34.668 -34.668 v 25.781 m 88.867,0 v 25.782 h 34.668 34.668 l -0.103,-25.782 -0.103,-25.781 h -34.565 -34.565 v 25.781 m -53.515,66.602 v 2.93 h 43.652 43.652 v -2.93 -2.93 h -43.652 -43.652 v 2.93 m -48.047,6.755 c 0,0.17 -0.747,0.511 -1.66,0.757 -1.805,0.486 -5.215,2.556 -6.153,3.735 -1.837,2.311 -2.279,2.986 -3.053,4.667 -0.469,1.018 -0.853,2.116 -0.853,2.441 0,0.325 -0.176,0.59 -0.391,0.59 -1.312,0 -0.039,7.423 1.938,11.299 7.644,14.983 31.957,6.693 29.357,-10.01 -0.871,-5.589 -5.265,-11.217 -9.81,-12.563 -0.967,-0.286 -2.063,-0.679 -2.436,-0.873 -0.835,-0.434 -6.939,-0.472 -6.939,-0.043 m 174.806,0.522 c -4.265,1.466 -9.13,6.171 -9.831,9.508 -3.135,14.921 9.16,25.812 22.03,19.516 17.327,-8.478 6.054,-35.3 -12.199,-29.024 m -126.759,10.301 v 2.93 h 43.652 43.652 v -2.93 -2.93 h -43.652 -43.652 v 2.93 m 0.26,15.3 c -0.143,0.143 -0.26,1.373 -0.26,2.734 v 2.474 h 43.554 43.555 v -2.734 -2.735 h -43.294 c -23.812,0 -43.412,0.117 -43.555,0.261"
       inkscape:connector-curvature="0"
       style="fill:#00aeef;fill-rule:evenodd;stroke:none" />
    <path
       id="path2"
       d="m 188.477,9.597 c -8.656,0.562 -14.832,1.274 -21.485,2.476 -1.074,0.194 -2.656,0.466 -3.515,0.605 -0.86,0.139 -2.178,0.409 -2.93,0.599 -0.752,0.19 -2.246,0.544 -3.32,0.786 -3.084,0.694 -5.982,1.436 -9.18,2.349 -3.372,0.963 -13.482,4.313 -14.155,4.691 -0.373,0.21 -0.858,0.381 -1.078,0.381 -0.221,0 -1.146,0.325 -2.057,0.723 -0.91,0.397 -3.062,1.304 -4.78,2.014 -4.515,1.866 -16.098,7.553 -19.098,9.375 -1.413,0.858 -2.669,1.56 -2.792,1.56 -0.123,0 -1.259,0.703 -2.524,1.563 -1.266,0.859 -2.407,1.562 -2.536,1.562 -0.72,0 -11.424,7.609 -17.51,12.447 -24.883,19.778 -45.55,46.923 -57.292,75.249 -0.713,1.718 -1.621,3.87 -2.018,4.78 -0.398,0.911 -0.723,1.836 -0.723,2.057 0,0.22 -0.171,0.705 -0.381,1.078 -0.337,0.601 -3.766,10.906 -4.645,13.96 -0.826,2.874 -1.751,6.494 -2.343,9.179 -1.018,4.61 -1.189,5.423 -1.583,7.52 -1.202,6.391 -1.179,6.245 -1.984,12.597 -1.954,15.435 -1.666,34.76 0.762,51.172 0.737,4.984 1.984,11.367 3.165,16.211 0.183,0.752 0.505,2.071 0.715,2.93 0.999,4.083 4.733,16.022 5.866,18.75 1.08,2.604 1.335,3.192 1.646,3.803 0.19,0.373 0.345,0.851 0.345,1.063 0,0.38 0.409,1.329 3.747,8.69 15.431,34.028 44.069,65.734 76.136,84.289 0.644,0.373 2.138,1.252 3.32,1.954 5.202,3.087 21.518,10.943 22.728,10.943 0.18,0 1.073,0.331 1.983,0.736 2.513,1.118 5.545,2.22 9.859,3.585 2.149,0.679 4.212,1.391 4.585,1.582 0.373,0.191 0.976,0.347 1.339,0.347 0.637,0 2.602,0.556 4.233,1.197 0.429,0.169 1.308,0.417 1.953,0.553 1.63,0.341 3.978,0.867 6.054,1.355 1.725,0.405 3.623,0.781 8.106,1.605 15.577,2.863 37.88,3.688 52.149,1.928 7.713,-0.951 9.986,-1.256 11.62,-1.562 0.967,-0.181 2.901,-0.53 4.297,-0.776 2.617,-0.459 5.037,-0.97 7.422,-1.565 0.752,-0.188 2.246,-0.549 3.32,-0.802 1.78,-0.419 2.81,-0.701 5.665,-1.551 0.537,-0.16 1.767,-0.515 2.734,-0.787 11.432,-3.227 28.213,-10.298 38.281,-16.131 1.826,-1.058 3.935,-2.274 4.686,-2.702 0.751,-0.428 2.101,-1.284 3,-1.903 0.899,-0.618 1.743,-1.125 1.875,-1.124 0.219,0 3.031,-1.894 7.627,-5.135 4.495,-3.17 13.014,-9.813 14.453,-11.269 0.107,-0.109 0.986,-0.885 1.953,-1.725 4.452,-3.868 11.86,-11.292 17.207,-17.242 1.794,-1.995 7.552,-9.132 9.598,-11.895 3.197,-4.317 7.961,-11.215 7.961,-11.527 -10e-4,-0.129 0.703,-1.27 1.562,-2.536 0.859,-1.265 1.563,-2.38 1.563,-2.477 0,-0.098 0.699,-1.329 1.555,-2.737 1.823,-3.001 7.662,-14.562 9.204,-18.223 3.368,-7.999 6.34,-16.142 7.983,-21.875 1.146,-3.999 1.301,-4.535 1.587,-5.469 0.164,-0.537 0.503,-1.855 0.752,-2.93 0.249,-1.074 0.606,-2.568 0.794,-3.32 0.613,-2.457 1.112,-4.838 1.554,-7.422 0.239,-1.396 0.594,-3.418 0.79,-4.492 3.109,-17.082 3.278,-39.351 0.446,-58.594 -0.575,-3.907 -1.726,-10.132 -2.42,-13.086 -0.488,-2.076 -1.014,-4.424 -1.355,-6.054 -0.136,-0.645 -0.389,-1.524 -0.563,-1.953 -0.174,-0.43 -0.536,-1.573 -0.805,-2.539 -13.939,-50.218 -48.957,-93.192 -96.006,-117.82 -5.045,-2.641 -15.791,-7.571 -16.502,-7.571 -0.212,0 -0.69,-0.155 -1.063,-0.345 -0.373,-0.19 -1.161,-0.542 -1.752,-0.781 -0.591,-0.24 -1.47,-0.606 -1.953,-0.813 -2.509,-1.075 -14.429,-4.825 -18.75,-5.9 -20.578,-5.116 -39.316,-6.896 -59.082,-5.611 m 31.445,1.145 c 2.685,0.338 6.201,0.78 7.812,0.982 1.612,0.202 3.282,0.447 3.711,0.544 0.43,0.097 1.924,0.379 3.321,0.625 2.251,0.398 5.083,1.022 10.937,2.41 66.983,15.889 122.839,71.744 138.997,138.994 1.254,5.222 1.712,7.285 2.043,9.205 0.202,1.168 0.552,3.134 0.78,4.369 1.916,10.411 2.465,17.559 2.465,32.129 0,14.57 -0.549,21.718 -2.465,32.129 -0.228,1.235 -0.578,3.201 -0.78,4.369 -0.331,1.92 -0.789,3.983 -2.043,9.205 -3.499,14.563 -11.7,35.375 -18.346,46.556 -0.679,1.142 -1.766,3.044 -2.416,4.225 -12.938,23.526 -42.184,53.094 -65.683,66.406 -2.621,1.485 -3.927,2.24 -5.961,3.446 -11.223,6.657 -32.147,14.904 -46.591,18.365 -5.362,1.284 -7.288,1.712 -9.205,2.042 -1.168,0.202 -3.134,0.552 -4.369,0.78 -10.411,1.916 -17.559,2.465 -32.129,2.465 -14.57,0 -21.718,-0.549 -32.129,-2.465 -1.235,-0.228 -3.201,-0.578 -4.369,-0.78 -1.92,-0.331 -3.983,-0.789 -9.205,-2.043 -14.748,-3.544 -35.169,-11.59 -46.561,-18.346 -2.055,-1.219 -3.357,-1.972 -5.965,-3.449 C 61.316,339.983 26.46,292.739 15.303,245.703 c -1.388,-5.854 -2.012,-8.686 -2.41,-10.937 -0.246,-1.397 -0.528,-2.891 -0.625,-3.321 -0.097,-0.429 -0.342,-2.099 -0.545,-3.711 -0.202,-1.611 -0.672,-5.302 -1.044,-8.203 -0.969,-7.561 -0.969,-31.501 0,-39.062 0.372,-2.901 0.842,-6.592 1.044,-8.203 0.203,-1.612 0.448,-3.282 0.545,-3.711 0.097,-0.43 0.377,-1.924 0.621,-3.321 1.702,-9.723 5.412,-22.831 9.399,-33.203 26.713,-69.495 92.31,-117.665 166.189,-122.036 5.738,-0.339 26.785,0.16 31.445,0.747 m -33.984,3.346 c -10.075,0.946 -17.571,2.012 -24.415,3.471 -1.074,0.229 -2.48,0.523 -3.125,0.654 -1.116,0.226 -5.63,1.4 -11.132,2.897 -10.696,2.909 -28.143,10.23 -38.019,15.954 -1.897,1.099 -3.506,1.999 -3.575,1.999 -0.85,-0.001 -14.267,9.142 -20.32,13.845 -30.298,23.542 -54.749,59.455 -64.242,94.358 -1.497,5.502 -2.671,10.016 -2.897,11.132 -0.131,0.645 -0.425,2.051 -0.654,3.125 -0.808,3.789 -1.827,9.774 -2.35,13.801 -2.036,15.666 -2.033,32.611 0.007,49.285 0.634,5.18 1.983,12.674 3.183,17.676 0.193,0.806 0.499,2.124 0.681,2.93 4.051,17.995 16.18,45.14 26.64,59.618 0.64,0.887 1.899,2.667 2.797,3.956 10.19,14.628 28.066,32.504 42.694,42.694 1.289,0.898 3.069,2.157 3.956,2.797 12.621,9.118 34.778,19.56 51.903,24.462 7.486,2.142 11.794,3.216 16.407,4.087 1.289,0.244 3.134,0.595 4.101,0.781 0.967,0.185 2.988,0.511 4.492,0.724 27.329,3.869 53.926,2.164 79.102,-5.069 18.61,-5.347 40.742,-15.652 53.661,-24.985 0.887,-0.64 2.667,-1.896 3.956,-2.791 19.929,-13.835 40.048,-36.181 53.218,-59.106 6.076,-10.578 14.141,-29.385 16.499,-38.477 0.195,-0.752 0.734,-2.685 1.198,-4.297 0.464,-1.611 0.98,-3.545 1.148,-4.296 0.167,-0.752 0.689,-3.038 1.158,-5.079 3.606,-15.679 5.294,-38.755 3.928,-53.711 -1.155,-12.648 -2.197,-19.541 -4.34,-28.71 C 376.456,135.809 365.516,110.72 354.28,95.167 353.64,94.28 352.381,92.5 351.483,91.211 341.293,76.583 323.417,58.707 308.789,48.517 307.5,47.619 305.72,46.36 304.833,45.72 298.305,41.004 281.461,31.755 274.206,28.903 c -1.175,-0.461 -2.663,-1.073 -3.308,-1.359 -5.905,-2.618 -19.949,-7.219 -26.171,-8.574 -0.645,-0.14 -1.788,-0.405 -2.539,-0.589 -2.909,-0.71 -5.955,-1.31 -12.012,-2.367 -11.5,-2.006 -33.291,-2.955 -44.238,-1.926 m 30.468,0.721 c 8.521,0.765 17.927,2.237 24.805,3.881 0.859,0.206 2.353,0.556 3.32,0.778 0.967,0.222 2.373,0.575 3.125,0.784 0.752,0.21 2.751,0.756 4.442,1.215 51.075,13.854 96.594,53.938 118.546,104.39 2.687,6.176 6.404,16.554 7.877,21.995 0.465,1.718 1.018,3.74 1.227,4.492 1.004,3.596 2.433,10.058 3.067,13.867 0.215,1.289 0.57,3.398 0.79,4.687 2.398,14.052 2.883,35.357 1.132,49.805 -0.674,5.568 -1.178,9.103 -1.529,10.742 -0.185,0.86 -0.543,2.881 -0.796,4.493 -0.253,1.611 -0.599,3.369 -0.769,3.906 -0.17,0.537 -0.523,2.031 -0.784,3.32 -0.26,1.289 -0.61,2.783 -0.777,3.32 -0.167,0.537 -0.52,1.768 -0.785,2.735 -0.265,0.967 -0.616,2.197 -0.781,2.734 -0.165,0.537 -0.525,1.768 -0.8,2.735 -0.566,1.993 -3.207,9.847 -3.809,11.328 -0.218,0.537 -0.775,1.943 -1.237,3.125 -2.452,6.264 -7.596,17.087 -10.305,21.679 -0.633,1.075 -1.683,2.92 -2.333,4.102 -2.917,5.306 -11.99,18.15 -16.831,23.828 -1.191,1.396 -2.829,3.363 -3.64,4.369 -8.194,10.17 -30.6,28.915 -42.872,35.867 -2.444,1.384 -3.875,2.209 -5.869,3.382 -2.517,1.482 -12.147,6.302 -15.429,7.725 -3.422,1.482 -7.014,2.948 -8.203,3.348 -0.538,0.18 -2.999,1.06 -5.469,1.954 -2.471,0.894 -5.064,1.787 -5.762,1.983 -0.698,0.196 -1.885,0.532 -2.637,0.747 -0.752,0.215 -1.982,0.566 -2.734,0.781 -4.598,1.314 -4.664,1.331 -8.984,2.327 -4.738,1.091 -12.237,2.405 -17.969,3.146 -16.293,2.108 -37.995,1.776 -52.93,-0.809 -1.396,-0.241 -3.418,-0.581 -4.492,-0.754 -3.97,-0.639 -5.101,-0.857 -6.055,-1.166 -0.537,-0.174 -2.031,-0.53 -3.32,-0.791 -1.289,-0.26 -2.783,-0.61 -3.32,-0.777 -0.537,-0.167 -1.768,-0.52 -2.735,-0.785 -0.967,-0.265 -2.197,-0.616 -2.734,-0.781 -0.537,-0.165 -1.768,-0.522 -2.734,-0.793 -10.048,-2.813 -27.509,-10.213 -35.938,-15.231 -1.182,-0.703 -3.115,-1.81 -4.297,-2.46 C 67.54,339.384 33.075,294.893 21.467,252.098 c -0.459,-1.691 -1.006,-3.69 -1.215,-4.442 -0.556,-1.992 -1.633,-6.553 -2.306,-9.765 -4.562,-21.791 -4.991,-48.347 -1.127,-69.825 0.799,-4.445 1.223,-6.6 1.553,-7.91 0.19,-0.752 0.554,-2.334 0.809,-3.515 0.255,-1.182 0.714,-3.028 1.02,-4.102 0.305,-1.074 0.891,-3.204 1.302,-4.733 2.926,-10.897 11.127,-30.459 16.686,-39.798 0.384,-0.645 1.212,-2.051 1.84,-3.125 14.863,-25.425 39.43,-49.992 64.854,-64.854 1.074,-0.628 2.48,-1.454 3.125,-1.834 9.359,-5.524 27.586,-13.246 38.476,-16.302 1.612,-0.452 4.073,-1.148 5.469,-1.546 1.397,-0.399 3.594,-0.94 4.883,-1.203 1.289,-0.263 2.783,-0.62 3.32,-0.794 0.537,-0.174 1.68,-0.436 2.539,-0.581 0.86,-0.146 2.442,-0.423 3.516,-0.615 7.049,-1.262 10.971,-1.758 18.122,-2.291 2.877,-0.215 5.338,-0.498 5.468,-0.629 0.332,-0.334 21.612,0.126 26.605,0.575 m 66.313,63.592 c 0.486,0.094 1.189,0.09 1.563,-0.008 0.373,-0.097 -0.024,-0.174 -0.884,-0.169 -0.859,0.004 -1.165,0.084 -0.679,0.177 m 8.687,2.132 c 0.108,0.094 1.338,1.211 2.735,2.483 l 2.539,2.312 -1.953,-2.068 c -1.075,-1.138 -2.305,-2.255 -2.735,-2.483 -0.429,-0.228 -0.693,-0.337 -0.586,-0.244 m 5.664,6.186 c 0.334,0.644 0.694,1.172 0.802,1.172 0.107,0 -0.078,-0.528 -0.411,-1.172 -0.333,-0.645 -0.694,-1.172 -0.801,-1.172 -0.108,0 0.077,0.527 0.41,1.172 m -194.609,7.812 c 0,1.182 0.073,1.665 0.163,1.074 0.089,-0.59 0.089,-1.557 0,-2.148 -0.09,-0.591 -0.163,-0.107 -0.163,1.074 m -18.184,32.314 c 0.699,0.087 1.841,0.087 2.539,0 0.699,-0.087 0.127,-0.157 -1.269,-0.157 -1.397,0 -1.968,0.07 -1.27,0.157 m -4.253,1.303 -0.922,0.805 1.171,-0.687 c 1.543,-0.903 1.566,-0.922 1.085,-0.922 -0.226,0 -0.827,0.362 -1.334,0.804 m 11.269,0.583 c 0.689,0.544 1.714,1.552 2.277,2.242 0.564,0.689 0.844,0.887 0.623,0.439 -0.432,-0.877 -3.38,-3.68 -3.862,-3.673 -0.161,0.002 0.272,0.449 0.962,0.992 m 229.215,0.745 c 0.859,0.521 1.87,1.14 2.246,1.374 0.376,0.235 0.684,0.35 0.684,0.255 0,-0.291 -3.623,-2.59 -4.071,-2.583 -0.232,0.004 0.281,0.433 1.141,0.954 m -11.33,1.046 c -0.767,0.674 -1.579,1.597 -1.803,2.051 -0.224,0.454 0.05,0.267 0.608,-0.416 0.558,-0.683 1.495,-1.601 2.082,-2.039 0.587,-0.438 0.942,-0.802 0.788,-0.809 -0.153,-0.007 -0.907,0.539 -1.675,1.213 m -232.62,1.216 c -0.426,0.699 -0.774,1.431 -0.775,1.628 -0.002,0.445 0.053,0.372 1.086,-1.432 1.028,-1.795 0.765,-1.96 -0.311,-0.196 m 18.88,4.981 c 0,1.396 0.07,1.968 0.157,1.269 0.087,-0.698 0.087,-1.841 0,-2.539 -0.087,-0.698 -0.157,-0.127 -0.157,1.27 m 230.455,1.367 c 0.003,1.074 0.079,1.467 0.169,0.873 0.089,-0.593 0.087,-1.472 -0.006,-1.953 -0.092,-0.48 -0.166,0.006 -0.163,1.08 M 95.434,173.242 c 0.002,1.289 0.075,1.77 0.162,1.067 0.087,-0.702 0.085,-1.756 -0.004,-2.343 -0.09,-0.587 -0.161,-0.013 -0.158,1.276 m -0.971,4.12 c -0.36,0.849 -0.585,1.544 -0.499,1.544 0.287,0 1.398,-2.391 1.275,-2.743 -0.067,-0.19 -0.416,0.349 -0.776,1.199 m -16.338,2.911 c 0.729,0.752 1.413,1.368 1.52,1.368 0.108,0 -0.401,-0.616 -1.129,-1.368 -0.729,-0.752 -1.413,-1.367 -1.521,-1.367 -0.107,0 0.401,0.615 1.13,1.367 m 236.621,2.431 c 0.698,0.087 1.841,0.087 2.539,0 0.698,-0.086 0.127,-0.157 -1.269,-0.157 -1.397,0 -1.968,0.071 -1.27,0.157 m -27.143,49.217 c 0.594,0.09 1.473,0.087 1.953,-0.005 0.481,-0.093 -0.005,-0.167 -1.079,-0.164 -1.075,0.003 -1.468,0.079 -0.874,0.169 m -165.337,3.748 c 0,0.067 0.571,0.639 1.269,1.27 l 1.27,1.147 -1.148,-1.27 c -1.069,-1.183 -1.391,-1.449 -1.391,-1.147 m 182.143,12.183 c 0.003,1.074 0.078,1.467 0.168,0.873 0.09,-0.594 0.088,-1.473 -0.005,-1.953 -0.093,-0.48 -0.166,0.005 -0.163,1.08 m -27.456,10.937 c 0.729,0.752 1.413,1.367 1.521,1.367 0.107,0 -0.401,-0.615 -1.13,-1.367 -0.729,-0.752 -1.413,-1.367 -1.521,-1.367 -0.107,0 0.401,0.615 1.13,1.367 m -166.113,5.165 c 0.698,0.087 1.841,0.087 2.539,0 0.698,-0.086 0.127,-0.157 -1.27,-0.157 -1.396,0 -1.967,0.071 -1.269,0.157"
       inkscape:connector-curvature="0"
       style="fill:#5fccf5;fill-rule:evenodd;stroke:none" />
    <path
       id="path3"
       d="m 60.369,60.369 c -1.402,1.402 -1.243,1.735 0.178,0.373 0.644,-0.617 1.172,-1.178 1.172,-1.245 0,-0.321 -0.442,-0.036 -1.35,0.872 m -40.179,57.18 c -0.433,0.868 -0.449,1.096 -0.069,0.95 0.276,-0.106 0.583,-0.62 0.683,-1.142 0.238,-1.249 0.081,-1.2 -0.614,0.192 m 359.29,164.287 c -0.101,0.322 -0.265,0.85 -0.366,1.172 -0.307,0.983 0.092,0.654 0.71,-0.586 0.322,-0.645 0.417,-1.172 0.212,-1.172 -0.205,0 -0.455,0.264 -0.556,0.586 m -320.105,56.52 c 0,0.108 0.352,0.602 0.781,1.097 0.43,0.496 0.782,0.725 0.782,0.511 0,-0.214 -0.352,-0.708 -0.782,-1.097 -0.429,-0.389 -0.781,-0.619 -0.781,-0.511"
       inkscape:connector-curvature="0"
       style="fill:#00ffff;fill-rule:evenodd;stroke:none" />
    <path
       id="path4"
       d="m 188.477,9.995 c -12.899,0.763 -26.774,3.142 -40.039,6.864 C 85.081,34.634 34.634,85.081 16.859,148.438 c -1.734,6.177 -3.19,12.341 -3.97,16.796 -0.244,1.397 -0.524,2.891 -0.621,3.321 -0.097,0.429 -0.342,2.099 -0.545,3.711 -0.202,1.611 -0.672,5.302 -1.044,8.203 -0.969,7.561 -0.969,31.501 0,39.062 0.372,2.901 0.842,6.592 1.044,8.203 0.203,1.612 0.448,3.282 0.545,3.711 0.097,0.43 0.379,1.924 0.625,3.321 0.398,2.251 1.022,5.083 2.41,10.937 11.157,47.036 46.013,94.28 86.468,117.202 2.608,1.477 3.91,2.23 5.965,3.449 11.392,6.756 31.813,14.802 46.561,18.346 5.222,1.254 7.285,1.712 9.205,2.043 1.168,0.202 3.134,0.552 4.369,0.78 10.411,1.916 17.559,2.465 32.129,2.465 14.57,0 21.718,-0.549 32.129,-2.465 1.235,-0.228 3.201,-0.578 4.369,-0.78 1.917,-0.33 3.843,-0.758 9.205,-2.042 14.444,-3.461 35.368,-11.708 46.591,-18.365 2.034,-1.206 3.34,-1.961 5.961,-3.446 23.499,-13.312 52.745,-42.88 65.683,-66.406 0.65,-1.181 1.737,-3.083 2.416,-4.225 6.646,-11.181 14.847,-31.993 18.346,-46.556 1.254,-5.222 1.712,-7.285 2.043,-9.205 0.202,-1.168 0.552,-3.134 0.78,-4.369 1.916,-10.411 2.465,-17.559 2.465,-32.129 0,-14.57 -0.549,-21.718 -2.465,-32.129 -0.228,-1.235 -0.578,-3.201 -0.78,-4.369 -0.331,-1.92 -0.789,-3.983 -2.043,-9.205 C 368.542,87.047 312.686,31.192 245.703,15.303 c -5.854,-1.388 -8.686,-2.012 -10.937,-2.41 -1.397,-0.246 -2.891,-0.528 -3.321,-0.625 -0.429,-0.097 -2.099,-0.342 -3.711,-0.544 -1.611,-0.202 -5.127,-0.644 -7.812,-0.982 -4.66,-0.587 -25.707,-1.086 -31.445,-0.747 m 26.757,4.254 c 9.209,0.853 11.867,1.202 19.239,2.525 2.405,0.432 5.784,1.136 7.715,1.607 0.751,0.184 1.894,0.449 2.539,0.589 6.222,1.355 20.266,5.956 26.171,8.574 0.645,0.286 2.133,0.898 3.308,1.359 7.255,2.852 24.099,12.101 30.627,16.817 0.887,0.64 2.667,1.899 3.956,2.797 14.628,10.19 32.504,28.066 42.694,42.694 0.898,1.289 2.157,3.069 2.797,3.956 9.101,12.597 19.57,34.811 24.462,51.903 1.768,6.177 1.945,6.844 2.856,10.743 1.692,7.239 2.689,13.076 3.535,20.703 2.332,21 1.229,42.794 -3.123,61.718 -0.469,2.041 -0.991,4.327 -1.158,5.079 -0.168,0.751 -0.684,2.685 -1.148,4.296 -0.464,1.612 -1.003,3.545 -1.198,4.297 -9.003,34.71 -38.379,75.827 -69.717,97.583 -1.289,0.895 -3.069,2.151 -3.956,2.791 -8.105,5.856 -23.177,13.817 -35.555,18.78 -17.816,7.145 -34.052,10.892 -55.801,12.878 -5.539,0.506 -21.415,0.506 -26.954,0 -8.241,-0.753 -15.184,-1.606 -18.945,-2.328 -0.967,-0.186 -2.812,-0.537 -4.101,-0.781 C 140.876,378.559 112.165,366.56 95.167,354.28 94.28,353.64 92.5,352.381 91.211,351.483 76.583,341.293 58.707,323.417 48.517,308.789 47.619,307.5 46.36,305.72 45.72,304.833 35.26,290.355 23.131,263.21 19.08,245.215 c -0.182,-0.806 -0.488,-2.124 -0.681,-2.93 -0.758,-3.161 -1.332,-6.074 -2.385,-12.109 -1.404,-8.051 -2.325,-20.003 -2.326,-30.176 0,-13.468 1.305,-26.444 3.871,-38.477 0.229,-1.074 0.523,-2.48 0.654,-3.125 0.226,-1.116 1.4,-5.63 2.897,-11.132 9.493,-34.903 33.944,-70.816 64.242,-94.358 6.053,-4.703 19.47,-13.846 20.32,-13.845 0.069,0 1.678,-0.9 3.575,-1.999 9.876,-5.724 27.323,-13.045 38.019,-15.954 5.502,-1.497 10.016,-2.671 11.132,-2.897 0.645,-0.131 2.051,-0.425 3.125,-0.654 6.844,-1.459 14.34,-2.525 24.415,-3.471 5.685,-0.534 22.804,-0.44 29.296,0.161 M 115.252,78.94 c -4.572,0.902 -8.761,4.24 -10.982,8.75 l -1.34,2.723 -0.104,64.169 -0.103,64.168 H 88.471 74.219 v 36.551 c 0,31.157 0.082,36.634 0.558,37.11 0.452,0.452 2.306,0.558 9.765,0.558 h 9.208 v 14.258 14.257 h 18.759 18.76 l -0.107,-14.258 -0.107,-14.258 68.261,10e-4 h 68.262 v 14.258 14.257 h 18.164 18.164 v -14.257 -14.258 h 10.742 10.743 v -37.5 -37.5 h -13.288 -13.288 l 0.011,-63.379 c 0.008,-42.588 -0.121,-63.849 -0.393,-64.812 -1.132,-4.006 -5.271,-8.545 -9.259,-10.155 l -2.26,-0.912 -84.961,-0.057 c -47.519,-0.032 -85.728,0.094 -86.701,0.286 m 128.58,27.114 -0.114,7.618 h -43.539 -43.538 v -7.617 -7.617 l 43.652,-0.001 h 43.652 l -0.113,7.617 M 80.925,127.97 c -2.041,1.017 -3.24,2.276 -4.609,4.843 -1.046,1.959 -1.344,39.766 -0.341,43.217 2.5,8.6 14.647,9.614 18.408,1.537 l 0.922,-1.981 0.004,-20.678 c 0.003,-20.078 -0.02,-20.725 -0.801,-22.338 -2.436,-5.032 -8.556,-7.105 -13.583,-4.6 m 231.825,0.792 c -2.559,0.787 -5.38,3.609 -6.263,6.268 -1.102,3.318 -0.772,39.04 0.383,41.537 3.641,7.864 14.766,7.886 18.239,0.035 0.903,-2.041 1.079,-38.965 0.198,-41.543 -1.805,-5.28 -7.147,-7.958 -12.557,-6.297 m -122.125,30.222 v 25.782 h -34.668 -34.668 v -25.782 -25.781 h 34.668 34.668 v 25.781 m 88.764,0 0.103,25.782 h -34.668 -34.668 v -25.782 -25.781 h 34.565 34.565 l 0.103,25.781 m -35.444,66.602 v 2.93 h -43.652 -43.652 v -2.93 -2.93 h 43.652 43.652 v 2.93 m 47.506,6.451 c 8.458,1.592 14.402,10.026 12.882,18.278 -2.797,15.175 -23.186,18.267 -29.969,4.544 -5.82,-11.777 4.257,-25.237 17.087,-22.822 m -174.167,0.832 c 10.147,3.482 14.035,15.83 7.748,24.61 -6.827,9.534 -21.891,8.3 -27.135,-2.222 -6.411,-12.864 5.856,-27.03 19.387,-22.388 m 126.661,10.292 v 2.926 l -43.652,0.101 -43.652,0.101 v -3.027 -3.028 h 43.652 43.652 v 2.927 m -0.195,17.78 v 2.731 h -43.555 -43.554 v -2.832 -2.832 l 43.554,0.101 43.555,0.101 v 2.731"
       inkscape:connector-curvature="0"
       style="fill:#fcfefe;fill-rule:evenodd;stroke:none" />
  </g>
</svg>
