<svg id="svg" version="1.1" width="400" height="400" xmlns="http://www.w3.org/2000/svg" xmlns:xlink="http://www.w3.org/1999/xlink" style="display: block;"><g id="svgg"><path id="path0" d="M83.400 29.600 C 83.264 29.820,82.443 30.000,81.576 30.000 C 80.709 30.000,80.000 30.180,80.000 30.400 C 80.000 30.620,79.460 30.800,78.800 30.800 C 78.140 30.800,77.600 30.980,77.600 31.200 C 77.600 31.420,77.150 31.600,76.600 31.600 C 76.050 31.600,75.600 31.780,75.600 32.000 C 75.600 32.220,75.280 32.400,74.888 32.400 C 74.497 32.400,73.917 32.760,73.600 33.200 C 73.283 33.640,72.789 34.000,72.503 34.000 C 71.829 34.000,67.969 37.886,67.232 39.306 C 66.920 39.908,66.515 40.400,66.332 40.400 C 66.150 40.400,66.000 40.760,66.000 41.200 C 66.000 41.640,65.820 42.000,65.600 42.000 C 65.380 42.000,65.200 42.349,65.200 42.776 C 65.200 43.203,65.020 43.664,64.800 43.800 C 64.580 43.936,64.400 44.566,64.400 45.200 C 64.400 45.834,64.220 46.464,64.000 46.600 C 63.780 46.736,63.600 47.906,63.600 49.200 C 63.600 50.494,63.420 51.664,63.200 51.800 C 62.935 51.964,62.800 81.470,62.800 139.020 L 62.800 225.992 43.100 226.096 L 23.400 226.200 23.299 278.100 L 23.197 330.000 37.199 330.000 L 51.200 330.000 51.200 350.400 L 51.200 370.800 76.600 370.800 L 102.000 370.800 102.000 350.400 L 102.000 330.000 198.396 330.000 L 294.793 330.000 294.896 350.300 L 295.000 370.600 320.600 370.600 L 346.200 370.600 346.304 350.300 L 346.407 330.000 361.204 330.000 L 376.000 330.000 376.000 278.000 L 376.000 226.000 357.800 226.000 L 339.600 226.000 339.600 139.624 C 339.600 82.471,339.465 53.164,339.200 53.000 C 338.980 52.864,338.800 51.424,338.800 49.800 C 338.800 48.176,338.620 46.736,338.400 46.600 C 338.180 46.464,338.000 45.821,338.000 45.171 C 338.000 44.521,337.836 43.677,337.635 43.295 C 337.434 42.913,336.789 41.562,336.202 40.293 C 335.110 37.933,331.680 34.000,330.714 34.000 C 330.419 34.000,329.917 33.640,329.600 33.200 C 329.283 32.760,328.703 32.400,328.312 32.400 C 327.920 32.400,327.600 32.220,327.600 32.000 C 327.600 31.780,327.060 31.600,326.400 31.600 C 325.740 31.600,325.200 31.420,325.200 31.200 C 325.200 30.980,324.761 30.800,324.224 30.800 C 323.687 30.800,323.136 30.620,323.000 30.400 C 322.864 30.180,321.874 30.000,320.800 30.000 C 319.726 30.000,318.736 29.820,318.600 29.600 C 318.257 29.045,83.743 29.045,83.400 29.600 M262.800 67.600 L 262.800 79.200 200.800 79.200 L 138.800 79.200 138.800 67.600 L 138.800 56.000 200.800 56.000 L 262.800 56.000 262.800 67.600 M30.800 104.800 C 30.800 105.020,30.329 105.200,29.754 105.200 C 28.418 105.200,26.285 107.471,25.659 109.560 C 24.764 112.548,25.036 160.962,25.962 163.496 C 26.970 166.254,28.489 167.600,30.595 167.600 C 31.148 167.600,31.600 167.780,31.600 168.000 C 31.600 168.252,34.259 168.400,38.776 168.400 C 43.129 168.400,46.050 168.243,46.200 168.000 C 46.336 167.780,46.893 167.600,47.437 167.600 C 48.445 167.600,50.706 165.670,51.554 164.085 C 52.428 162.454,52.158 108.834,51.272 108.047 C 50.872 107.691,50.428 107.085,50.285 106.700 C 50.142 106.315,49.749 106.000,49.413 106.000 C 49.076 106.000,48.800 105.820,48.800 105.600 C 48.800 105.380,48.451 105.200,48.024 105.200 C 47.597 105.200,47.136 105.020,47.000 104.800 C 46.849 104.555,43.663 104.400,38.776 104.400 C 33.725 104.400,30.800 104.547,30.800 104.800 M356.000 104.800 C 356.000 105.020,355.544 105.200,354.987 105.200 C 353.966 105.200,351.902 106.978,350.900 108.720 C 350.259 109.834,350.161 163.600,350.800 163.600 C 351.020 163.600,351.200 163.891,351.200 164.246 C 351.200 165.279,354.005 167.600,355.255 167.600 C 355.859 167.600,356.464 167.780,356.600 168.000 C 356.749 168.241,359.530 168.400,363.600 168.400 C 367.670 168.400,370.451 168.241,370.600 168.000 C 370.736 167.780,371.288 167.600,371.827 167.600 C 372.833 167.600,375.200 165.675,375.200 164.857 C 375.200 164.606,375.380 164.400,375.600 164.400 C 375.820 164.400,376.000 163.860,376.000 163.200 C 376.000 162.540,376.180 162.000,376.400 162.000 C 376.662 162.000,376.800 153.208,376.800 136.424 C 376.800 119.804,376.660 110.761,376.400 110.600 C 376.180 110.464,376.000 109.913,376.000 109.376 C 376.000 108.839,375.864 108.400,375.698 108.400 C 375.531 108.400,375.156 107.860,374.864 107.200 C 374.572 106.540,374.078 106.000,373.766 106.000 C 373.455 106.000,373.200 105.820,373.200 105.600 C 373.200 105.380,372.660 105.200,372.000 105.200 C 371.340 105.200,370.800 105.020,370.800 104.800 C 370.800 104.548,368.067 104.400,363.400 104.400 C 358.733 104.400,356.000 104.548,356.000 104.800 M187.200 142.600 L 187.200 179.200 138.000 179.200 L 88.800 179.200 88.800 142.600 L 88.800 106.000 138.000 106.000 L 187.200 106.000 187.200 142.600 M312.000 142.600 L 312.000 179.200 262.800 179.200 L 213.600 179.200 213.600 142.600 L 213.600 106.000 262.800 106.000 L 312.000 106.000 312.000 142.600 M262.800 236.000 L 262.800 241.200 201.200 241.200 L 139.600 241.200 139.600 236.000 L 139.600 230.800 201.200 230.800 L 262.800 230.800 262.800 236.000 M79.400 245.200 C 79.536 245.420,80.267 245.600,81.024 245.600 C 81.781 245.600,82.400 245.780,82.400 246.000 C 82.400 246.220,82.940 246.400,83.600 246.400 C 84.260 246.400,84.800 246.580,84.800 246.800 C 84.800 247.020,85.160 247.200,85.600 247.200 C 86.040 247.200,86.400 247.380,86.400 247.600 C 86.400 247.820,86.688 248.000,87.040 248.000 C 87.391 248.000,88.156 248.495,88.740 249.100 C 89.323 249.705,90.250 250.437,90.800 250.726 C 91.746 251.223,93.210 253.193,95.000 256.377 C 95.440 257.160,95.935 257.860,96.100 257.933 C 96.265 258.007,96.400 258.412,96.400 258.833 C 96.400 259.255,96.580 259.600,96.800 259.600 C 97.020 259.600,97.200 260.140,97.200 260.800 C 97.200 261.460,97.380 262.000,97.600 262.000 C 97.846 262.000,98.000 264.000,98.000 267.200 C 98.000 270.400,97.846 272.400,97.600 272.400 C 97.380 272.400,97.200 272.852,97.200 273.404 C 97.200 274.359,95.739 277.975,95.182 278.400 C 95.038 278.510,94.698 279.020,94.428 279.534 C 93.386 281.510,89.478 285.600,88.631 285.600 C 88.284 285.600,88.000 285.780,88.000 286.000 C 88.000 286.220,87.764 286.400,87.475 286.400 C 87.187 286.400,86.564 286.760,86.092 287.200 C 85.620 287.640,84.776 288.000,84.217 288.000 C 83.658 288.000,83.200 288.180,83.200 288.400 C 83.200 288.620,82.660 288.800,82.000 288.800 C 81.340 288.800,80.800 288.980,80.800 289.200 C 80.800 289.443,79.008 289.600,76.224 289.600 C 73.604 289.600,71.542 289.429,71.400 289.200 C 71.264 288.980,70.634 288.800,70.000 288.800 C 69.366 288.800,68.736 288.620,68.600 288.400 C 68.464 288.180,68.003 288.000,67.576 288.000 C 67.149 288.000,66.800 287.820,66.800 287.600 C 66.800 287.380,66.440 287.200,66.000 287.200 C 65.560 287.200,65.200 287.020,65.200 286.800 C 65.200 286.580,64.927 286.400,64.594 286.400 C 61.828 286.400,54.424 275.427,54.406 271.300 C 54.403 270.585,54.205 270.000,53.966 270.000 C 53.677 270.000,53.604 269.164,53.748 267.500 C 54.122 263.196,54.468 261.200,54.840 261.200 C 55.038 261.200,55.200 260.675,55.200 260.033 C 55.200 259.392,55.335 258.807,55.500 258.733 C 55.665 258.660,56.340 257.527,57.000 256.215 C 58.253 253.724,61.431 250.205,63.306 249.232 C 63.908 248.920,64.400 248.515,64.400 248.332 C 64.400 248.150,64.760 248.000,65.200 248.000 C 65.640 248.000,66.000 247.820,66.000 247.600 C 66.000 247.380,66.360 247.200,66.800 247.200 C 67.240 247.200,67.600 247.020,67.600 246.800 C 67.600 246.580,68.039 246.400,68.576 246.400 C 69.113 246.400,69.664 246.220,69.800 246.000 C 69.936 245.780,70.566 245.600,71.200 245.600 C 71.834 245.600,72.464 245.420,72.600 245.200 C 72.736 244.980,74.266 244.800,76.000 244.800 C 77.734 244.800,79.264 244.980,79.400 245.200 M328.200 245.200 C 328.336 245.420,328.977 245.600,329.624 245.600 C 330.271 245.600,330.800 245.780,330.800 246.000 C 330.800 246.220,331.340 246.400,332.000 246.400 C 332.660 246.400,333.200 246.580,333.200 246.800 C 333.200 247.020,333.560 247.200,334.000 247.200 C 334.440 247.200,334.800 247.380,334.800 247.600 C 334.800 247.820,335.120 248.000,335.512 248.000 C 335.903 248.000,336.483 248.360,336.800 248.800 C 337.117 249.240,337.612 249.600,337.899 249.600 C 338.430 249.600,342.000 252.953,342.000 253.452 C 342.000 253.602,342.419 254.281,342.932 254.962 C 343.444 255.643,344.118 256.785,344.429 257.500 C 344.741 258.215,345.131 258.800,345.298 258.800 C 345.464 258.800,345.600 259.340,345.600 260.000 C 345.600 260.660,345.780 261.200,346.000 261.200 C 346.220 261.200,346.400 262.179,346.400 263.376 C 346.400 264.573,346.580 265.664,346.800 265.800 C 347.020 265.936,347.200 266.656,347.200 267.400 C 347.200 268.144,347.020 268.864,346.800 269.000 C 346.580 269.136,346.400 270.137,346.400 271.224 C 346.400 272.311,346.220 273.200,346.000 273.200 C 345.780 273.200,345.600 273.667,345.600 274.238 C 345.600 274.809,345.272 275.754,344.871 276.338 C 344.470 276.922,343.832 278.074,343.453 278.899 C 342.664 280.614,337.055 286.400,336.181 286.400 C 335.861 286.400,335.600 286.580,335.600 286.800 C 335.600 287.020,335.240 287.200,334.800 287.200 C 334.360 287.200,334.000 287.380,334.000 287.600 C 334.000 287.820,333.561 288.000,333.024 288.000 C 332.487 288.000,331.936 288.180,331.800 288.400 C 331.664 288.620,331.023 288.800,330.376 288.800 C 329.729 288.800,329.200 288.980,329.200 289.200 C 329.200 289.443,327.400 289.600,324.600 289.600 C 321.800 289.600,320.000 289.443,320.000 289.200 C 320.000 288.980,319.460 288.800,318.800 288.800 C 318.140 288.800,317.600 288.620,317.600 288.400 C 317.600 288.180,317.060 288.000,316.400 288.000 C 315.740 288.000,315.200 287.820,315.200 287.600 C 315.200 287.380,314.964 287.200,314.675 287.200 C 314.387 287.200,313.764 286.840,313.292 286.400 C 312.820 285.960,312.234 285.600,311.991 285.600 C 311.576 285.600,308.794 282.899,307.000 280.754 C 306.560 280.228,305.750 278.898,305.200 277.799 C 304.650 276.700,304.065 275.740,303.900 275.667 C 303.735 275.593,303.600 275.008,303.600 274.367 C 303.600 273.725,303.420 273.200,303.200 273.200 C 302.980 273.200,302.800 272.198,302.800 270.974 C 302.800 269.749,302.603 268.380,302.363 267.931 C 302.047 267.340,302.047 266.993,302.363 266.677 C 302.603 266.437,302.800 265.286,302.800 264.120 C 302.800 262.954,302.980 262.000,303.200 262.000 C 303.420 262.000,303.600 261.543,303.600 260.984 C 303.600 258.799,308.927 250.443,310.340 250.412 C 310.636 250.405,311.383 249.860,312.000 249.200 C 312.617 248.540,313.409 248.000,313.760 248.000 C 314.112 248.000,314.400 247.820,314.400 247.600 C 314.400 247.380,314.760 247.200,315.200 247.200 C 315.640 247.200,316.000 247.020,316.000 246.800 C 316.000 246.580,316.540 246.400,317.200 246.400 C 317.860 246.400,318.400 246.220,318.400 246.000 C 318.400 245.780,319.030 245.600,319.800 245.600 C 320.570 245.600,321.200 245.420,321.200 245.200 C 321.200 244.965,322.592 244.800,324.576 244.800 C 326.433 244.800,328.064 244.980,328.200 245.200 M262.800 261.000 L 262.800 266.000 201.200 266.000 L 139.600 266.000 139.600 261.000 L 139.600 256.000 201.200 256.000 L 262.800 256.000 262.800 261.000 M262.800 286.000 L 262.800 291.200 201.224 291.200 C 167.357 291.200,139.592 291.065,139.524 290.900 C 139.456 290.735,139.456 288.395,139.524 285.700 L 139.647 280.800 201.224 280.800 L 262.800 280.800 262.800 286.000 " stroke="none" fill="#000000" fill-rule="evenodd"></path><path id="path1" d="M83.400 29.600 C 83.264 29.820,82.443 30.000,81.576 30.000 C 80.709 30.000,80.000 30.180,80.000 30.400 C 80.000 30.620,79.460 30.800,78.800 30.800 C 78.140 30.800,77.600 30.980,77.600 31.200 C 77.600 31.420,77.150 31.600,76.600 31.600 C 76.050 31.600,75.600 31.780,75.600 32.000 C 75.600 32.220,75.280 32.400,74.888 32.400 C 74.497 32.400,73.917 32.760,73.600 33.200 C 73.283 33.640,72.789 34.000,72.503 34.000 C 71.829 34.000,67.969 37.886,67.232 39.306 C 66.920 39.908,66.515 40.400,66.332 40.400 C 66.150 40.400,66.000 40.760,66.000 41.200 C 66.000 41.640,65.820 42.000,65.600 42.000 C 65.380 42.000,65.200 42.349,65.200 42.776 C 65.200 43.203,65.020 43.664,64.800 43.800 C 64.580 43.936,64.400 44.566,64.400 45.200 C 64.400 45.834,64.220 46.464,64.000 46.600 C 63.780 46.736,63.600 47.906,63.600 49.200 C 63.600 50.494,63.420 51.664,63.200 51.800 C 62.935 51.964,62.800 81.470,62.800 139.020 L 62.800 225.992 43.100 226.096 L 23.400 226.200 23.299 278.100 L 23.197 330.000 37.199 330.000 L 51.200 330.000 51.200 350.400 L 51.200 370.800 76.600 370.800 L 102.000 370.800 102.000 350.400 L 102.000 330.000 198.396 330.000 L 294.793 330.000 294.896 350.300 L 295.000 370.600 320.600 370.600 L 346.200 370.600 346.304 350.300 L 346.407 330.000 361.204 330.000 L 376.000 330.000 376.000 278.000 L 376.000 226.000 357.800 226.000 L 339.600 226.000 339.600 139.624 C 339.600 82.471,339.465 53.164,339.200 53.000 C 338.980 52.864,338.800 51.424,338.800 49.800 C 338.800 48.176,338.620 46.736,338.400 46.600 C 338.180 46.464,338.000 45.821,338.000 45.171 C 338.000 44.521,337.836 43.677,337.635 43.295 C 337.434 42.913,336.789 41.562,336.202 40.293 C 335.110 37.933,331.680 34.000,330.714 34.000 C 330.419 34.000,329.917 33.640,329.600 33.200 C 329.283 32.760,328.703 32.400,328.312 32.400 C 327.920 32.400,327.600 32.220,327.600 32.000 C 327.600 31.780,327.060 31.600,326.400 31.600 C 325.740 31.600,325.200 31.420,325.200 31.200 C 325.200 30.980,324.761 30.800,324.224 30.800 C 323.687 30.800,323.136 30.620,323.000 30.400 C 322.864 30.180,321.874 30.000,320.800 30.000 C 319.726 30.000,318.736 29.820,318.600 29.600 C 318.257 29.045,83.743 29.045,83.400 29.600 M262.800 67.600 L 262.800 79.200 200.800 79.200 L 138.800 79.200 138.800 67.600 L 138.800 56.000 200.800 56.000 L 262.800 56.000 262.800 67.600 M30.800 104.800 C 30.800 105.020,30.329 105.200,29.754 105.200 C 28.418 105.200,26.285 107.471,25.659 109.560 C 24.764 112.548,25.036 160.962,25.962 163.496 C 26.970 166.254,28.489 167.600,30.595 167.600 C 31.148 167.600,31.600 167.780,31.600 168.000 C 31.600 168.252,34.259 168.400,38.776 168.400 C 43.129 168.400,46.050 168.243,46.200 168.000 C 46.336 167.780,46.893 167.600,47.437 167.600 C 48.445 167.600,50.706 165.670,51.554 164.085 C 52.428 162.454,52.158 108.834,51.272 108.047 C 50.872 107.691,50.428 107.085,50.285 106.700 C 50.142 106.315,49.749 106.000,49.413 106.000 C 49.076 106.000,48.800 105.820,48.800 105.600 C 48.800 105.380,48.451 105.200,48.024 105.200 C 47.597 105.200,47.136 105.020,47.000 104.800 C 46.849 104.555,43.663 104.400,38.776 104.400 C 33.725 104.400,30.800 104.547,30.800 104.800 M356.000 104.800 C 356.000 105.020,355.544 105.200,354.987 105.200 C 353.966 105.200,351.902 106.978,350.900 108.720 C 350.259 109.834,350.161 163.600,350.800 163.600 C 351.020 163.600,351.200 163.891,351.200 164.246 C 351.200 165.279,354.005 167.600,355.255 167.600 C 355.859 167.600,356.464 167.780,356.600 168.000 C 356.749 168.241,359.530 168.400,363.600 168.400 C 367.670 168.400,370.451 168.241,370.600 168.000 C 370.736 167.780,371.288 167.600,371.827 167.600 C 372.833 167.600,375.200 165.675,375.200 164.857 C 375.200 164.606,375.380 164.400,375.600 164.400 C 375.820 164.400,376.000 163.860,376.000 163.200 C 376.000 162.540,376.180 162.000,376.400 162.000 C 376.662 162.000,376.800 153.208,376.800 136.424 C 376.800 119.804,376.660 110.761,376.400 110.600 C 376.180 110.464,376.000 109.913,376.000 109.376 C 376.000 108.839,375.864 108.400,375.698 108.400 C 375.531 108.400,375.156 107.860,374.864 107.200 C 374.572 106.540,374.078 106.000,373.766 106.000 C 373.455 106.000,373.200 105.820,373.200 105.600 C 373.200 105.380,372.660 105.200,372.000 105.200 C 371.340 105.200,370.800 105.020,370.800 104.800 C 370.800 104.548,368.067 104.400,363.400 104.400 C 358.733 104.400,356.000 104.548,356.000 104.800 M187.200 142.600 L 187.200 179.200 138.000 179.200 L 88.800 179.200 88.800 142.600 L 88.800 106.000 138.000 106.000 L 187.200 106.000 187.200 142.600 M312.000 142.600 L 312.000 179.200 262.800 179.200 L 213.600 179.200 213.600 142.600 L 213.600 106.000 262.800 106.000 L 312.000 106.000 312.000 142.600 M262.800 236.000 L 262.800 241.200 201.200 241.200 L 139.600 241.200 139.600 236.000 L 139.600 230.800 201.200 230.800 L 262.800 230.800 262.800 236.000 M79.400 245.200 C 79.536 245.420,80.267 245.600,81.024 245.600 C 81.781 245.600,82.400 245.780,82.400 246.000 C 82.400 246.220,82.940 246.400,83.600 246.400 C 84.260 246.400,84.800 246.580,84.800 246.800 C 84.800 247.020,85.160 247.200,85.600 247.200 C 86.040 247.200,86.400 247.380,86.400 247.600 C 86.400 247.820,86.688 248.000,87.040 248.000 C 87.391 248.000,88.156 248.495,88.740 249.100 C 89.323 249.705,90.250 250.437,90.800 250.726 C 91.746 251.223,93.210 253.193,95.000 256.377 C 95.440 257.160,95.935 257.860,96.100 257.933 C 96.265 258.007,96.400 258.412,96.400 258.833 C 96.400 259.255,96.580 259.600,96.800 259.600 C 97.020 259.600,97.200 260.140,97.200 260.800 C 97.200 261.460,97.380 262.000,97.600 262.000 C 97.846 262.000,98.000 264.000,98.000 267.200 C 98.000 270.400,97.846 272.400,97.600 272.400 C 97.380 272.400,97.200 272.852,97.200 273.404 C 97.200 274.359,95.739 277.975,95.182 278.400 C 95.038 278.510,94.698 279.020,94.428 279.534 C 93.386 281.510,89.478 285.600,88.631 285.600 C 88.284 285.600,88.000 285.780,88.000 286.000 C 88.000 286.220,87.764 286.400,87.475 286.400 C 87.187 286.400,86.564 286.760,86.092 287.200 C 85.620 287.640,84.776 288.000,84.217 288.000 C 83.658 288.000,83.200 288.180,83.200 288.400 C 83.200 288.620,82.660 288.800,82.000 288.800 C 81.340 288.800,80.800 288.980,80.800 289.200 C 80.800 289.443,79.008 289.600,76.224 289.600 C 73.604 289.600,71.542 289.429,71.400 289.200 C 71.264 288.980,70.634 288.800,70.000 288.800 C 69.366 288.800,68.736 288.620,68.600 288.400 C 68.464 288.180,68.003 288.000,67.576 288.000 C 67.149 288.000,66.800 287.820,66.800 287.600 C 66.800 287.380,66.440 287.200,66.000 287.200 C 65.560 287.200,65.200 287.020,65.200 286.800 C 65.200 286.580,64.927 286.400,64.594 286.400 C 61.828 286.400,54.424 275.427,54.406 271.300 C 54.403 270.585,54.205 270.000,53.966 270.000 C 53.677 270.000,53.604 269.164,53.748 267.500 C 54.122 263.196,54.468 261.200,54.840 261.200 C 55.038 261.200,55.200 260.675,55.200 260.033 C 55.200 259.392,55.335 258.807,55.500 258.733 C 55.665 258.660,56.340 257.527,57.000 256.215 C 58.253 253.724,61.431 250.205,63.306 249.232 C 63.908 248.920,64.400 248.515,64.400 248.332 C 64.400 248.150,64.760 248.000,65.200 248.000 C 65.640 248.000,66.000 247.820,66.000 247.600 C 66.000 247.380,66.360 247.200,66.800 247.200 C 67.240 247.200,67.600 247.020,67.600 246.800 C 67.600 246.580,68.039 246.400,68.576 246.400 C 69.113 246.400,69.664 246.220,69.800 246.000 C 69.936 245.780,70.566 245.600,71.200 245.600 C 71.834 245.600,72.464 245.420,72.600 245.200 C 72.736 244.980,74.266 244.800,76.000 244.800 C 77.734 244.800,79.264 244.980,79.400 245.200 M328.200 245.200 C 328.336 245.420,328.977 245.600,329.624 245.600 C 330.271 245.600,330.800 245.780,330.800 246.000 C 330.800 246.220,331.340 246.400,332.000 246.400 C 332.660 246.400,333.200 246.580,333.200 246.800 C 333.200 247.020,333.560 247.200,334.000 247.200 C 334.440 247.200,334.800 247.380,334.800 247.600 C 334.800 247.820,335.120 248.000,335.512 248.000 C 335.903 248.000,336.483 248.360,336.800 248.800 C 337.117 249.240,337.612 249.600,337.899 249.600 C 338.430 249.600,342.000 252.953,342.000 253.452 C 342.000 253.602,342.419 254.281,342.932 254.962 C 343.444 255.643,344.118 256.785,344.429 257.500 C 344.741 258.215,345.131 258.800,345.298 258.800 C 345.464 258.800,345.600 259.340,345.600 260.000 C 345.600 260.660,345.780 261.200,346.000 261.200 C 346.220 261.200,346.400 262.179,346.400 263.376 C 346.400 264.573,346.580 265.664,346.800 265.800 C 347.020 265.936,347.200 266.656,347.200 267.400 C 347.200 268.144,347.020 268.864,346.800 269.000 C 346.580 269.136,346.400 270.137,346.400 271.224 C 346.400 272.311,346.220 273.200,346.000 273.200 C 345.780 273.200,345.600 273.667,345.600 274.238 C 345.600 274.809,345.272 275.754,344.871 276.338 C 344.470 276.922,343.832 278.074,343.453 278.899 C 342.664 280.614,337.055 286.400,336.181 286.400 C 335.861 286.400,335.600 286.580,335.600 286.800 C 335.600 287.020,335.240 287.200,334.800 287.200 C 334.360 287.200,334.000 287.380,334.000 287.600 C 334.000 287.820,333.561 288.000,333.024 288.000 C 332.487 288.000,331.936 288.180,331.800 288.400 C 331.664 288.620,331.023 288.800,330.376 288.800 C 329.729 288.800,329.200 288.980,329.200 289.200 C 329.200 289.443,327.400 289.600,324.600 289.600 C 321.800 289.600,320.000 289.443,320.000 289.200 C 320.000 288.980,319.460 288.800,318.800 288.800 C 318.140 288.800,317.600 288.620,317.600 288.400 C 317.600 288.180,317.060 288.000,316.400 288.000 C 315.740 288.000,315.200 287.820,315.200 287.600 C 315.200 287.380,314.964 287.200,314.675 287.200 C 314.387 287.200,313.764 286.840,313.292 286.400 C 312.820 285.960,312.234 285.600,311.991 285.600 C 311.576 285.600,308.794 282.899,307.000 280.754 C 306.560 280.228,305.750 278.898,305.200 277.799 C 304.650 276.700,304.065 275.740,303.900 275.667 C 303.735 275.593,303.600 275.008,303.600 274.367 C 303.600 273.725,303.420 273.200,303.200 273.200 C 302.980 273.200,302.800 272.198,302.800 270.974 C 302.800 269.749,302.603 268.380,302.363 267.931 C 302.047 267.340,302.047 266.993,302.363 266.677 C 302.603 266.437,302.800 265.286,302.800 264.120 C 302.800 262.954,302.980 262.000,303.200 262.000 C 303.420 262.000,303.600 261.543,303.600 260.984 C 303.600 258.799,308.927 250.443,310.340 250.412 C 310.636 250.405,311.383 249.860,312.000 249.200 C 312.617 248.540,313.409 248.000,313.760 248.000 C 314.112 248.000,314.400 247.820,314.400 247.600 C 314.400 247.380,314.760 247.200,315.200 247.200 C 315.640 247.200,316.000 247.020,316.000 246.800 C 316.000 246.580,316.540 246.400,317.200 246.400 C 317.860 246.400,318.400 246.220,318.400 246.000 C 318.400 245.780,319.030 245.600,319.800 245.600 C 320.570 245.600,321.200 245.420,321.200 245.200 C 321.200 244.965,322.592 244.800,324.576 244.800 C 326.433 244.800,328.064 244.980,328.200 245.200 M262.800 261.000 L 262.800 266.000 201.200 266.000 L 139.600 266.000 139.600 261.000 L 139.600 256.000 201.200 256.000 L 262.800 256.000 262.800 261.000 M262.800 286.000 L 262.800 291.200 201.224 291.200 C 167.357 291.200,139.592 291.065,139.524 290.900 C 139.456 290.735,139.456 288.395,139.524 285.700 L 139.647 280.800 201.224 280.800 L 262.800 280.800 262.800 286.000 " stroke="none" fill="#000000" fill-rule="evenodd"></path><path id="path2" d="M83.400 29.600 C 83.264 29.820,82.443 30.000,81.576 30.000 C 80.709 30.000,80.000 30.180,80.000 30.400 C 80.000 30.620,79.460 30.800,78.800 30.800 C 78.140 30.800,77.600 30.980,77.600 31.200 C 77.600 31.420,77.150 31.600,76.600 31.600 C 76.050 31.600,75.600 31.780,75.600 32.000 C 75.600 32.220,75.280 32.400,74.888 32.400 C 74.497 32.400,73.917 32.760,73.600 33.200 C 73.283 33.640,72.789 34.000,72.503 34.000 C 71.829 34.000,67.969 37.886,67.232 39.306 C 66.920 39.908,66.515 40.400,66.332 40.400 C 66.150 40.400,66.000 40.760,66.000 41.200 C 66.000 41.640,65.820 42.000,65.600 42.000 C 65.380 42.000,65.200 42.349,65.200 42.776 C 65.200 43.203,65.020 43.664,64.800 43.800 C 64.580 43.936,64.400 44.566,64.400 45.200 C 64.400 45.834,64.220 46.464,64.000 46.600 C 63.780 46.736,63.600 47.906,63.600 49.200 C 63.600 50.494,63.420 51.664,63.200 51.800 C 62.935 51.964,62.800 81.470,62.800 139.020 L 62.800 225.992 43.100 226.096 L 23.400 226.200 23.299 278.100 L 23.197 330.000 37.199 330.000 L 51.200 330.000 51.200 350.400 L 51.200 370.800 76.600 370.800 L 102.000 370.800 102.000 350.400 L 102.000 330.000 198.396 330.000 L 294.793 330.000 294.896 350.300 L 295.000 370.600 320.600 370.600 L 346.200 370.600 346.304 350.300 L 346.407 330.000 361.204 330.000 L 376.000 330.000 376.000 278.000 L 376.000 226.000 357.800 226.000 L 339.600 226.000 339.600 139.624 C 339.600 82.471,339.465 53.164,339.200 53.000 C 338.980 52.864,338.800 51.424,338.800 49.800 C 338.800 48.176,338.620 46.736,338.400 46.600 C 338.180 46.464,338.000 45.821,338.000 45.171 C 338.000 44.521,337.836 43.677,337.635 43.295 C 337.434 42.913,336.789 41.562,336.202 40.293 C 335.110 37.933,331.680 34.000,330.714 34.000 C 330.419 34.000,329.917 33.640,329.600 33.200 C 329.283 32.760,328.703 32.400,328.312 32.400 C 327.920 32.400,327.600 32.220,327.600 32.000 C 327.600 31.780,327.060 31.600,326.400 31.600 C 325.740 31.600,325.200 31.420,325.200 31.200 C 325.200 30.980,324.761 30.800,324.224 30.800 C 323.687 30.800,323.136 30.620,323.000 30.400 C 322.864 30.180,321.874 30.000,320.800 30.000 C 319.726 30.000,318.736 29.820,318.600 29.600 C 318.257 29.045,83.743 29.045,83.400 29.600 M262.800 67.600 L 262.800 79.200 200.800 79.200 L 138.800 79.200 138.800 67.600 L 138.800 56.000 200.800 56.000 L 262.800 56.000 262.800 67.600 M30.800 104.800 C 30.800 105.020,30.329 105.200,29.754 105.200 C 28.418 105.200,26.285 107.471,25.659 109.560 C 24.764 112.548,25.036 160.962,25.962 163.496 C 26.970 166.254,28.489 167.600,30.595 167.600 C 31.148 167.600,31.600 167.780,31.600 168.000 C 31.600 168.252,34.259 168.400,38.776 168.400 C 43.129 168.400,46.050 168.243,46.200 168.000 C 46.336 167.780,46.893 167.600,47.437 167.600 C 48.445 167.600,50.706 165.670,51.554 164.085 C 52.428 162.454,52.158 108.834,51.272 108.047 C 50.872 107.691,50.428 107.085,50.285 106.700 C 50.142 106.315,49.749 106.000,49.413 106.000 C 49.076 106.000,48.800 105.820,48.800 105.600 C 48.800 105.380,48.451 105.200,48.024 105.200 C 47.597 105.200,47.136 105.020,47.000 104.800 C 46.849 104.555,43.663 104.400,38.776 104.400 C 33.725 104.400,30.800 104.547,30.800 104.800 M356.000 104.800 C 356.000 105.020,355.544 105.200,354.987 105.200 C 353.966 105.200,351.902 106.978,350.900 108.720 C 350.259 109.834,350.161 163.600,350.800 163.600 C 351.020 163.600,351.200 163.891,351.200 164.246 C 351.200 165.279,354.005 167.600,355.255 167.600 C 355.859 167.600,356.464 167.780,356.600 168.000 C 356.749 168.241,359.530 168.400,363.600 168.400 C 367.670 168.400,370.451 168.241,370.600 168.000 C 370.736 167.780,371.288 167.600,371.827 167.600 C 372.833 167.600,375.200 165.675,375.200 164.857 C 375.200 164.606,375.380 164.400,375.600 164.400 C 375.820 164.400,376.000 163.860,376.000 163.200 C 376.000 162.540,376.180 162.000,376.400 162.000 C 376.662 162.000,376.800 153.208,376.800 136.424 C 376.800 119.804,376.660 110.761,376.400 110.600 C 376.180 110.464,376.000 109.913,376.000 109.376 C 376.000 108.839,375.864 108.400,375.698 108.400 C 375.531 108.400,375.156 107.860,374.864 107.200 C 374.572 106.540,374.078 106.000,373.766 106.000 C 373.455 106.000,373.200 105.820,373.200 105.600 C 373.200 105.380,372.660 105.200,372.000 105.200 C 371.340 105.200,370.800 105.020,370.800 104.800 C 370.800 104.548,368.067 104.400,363.400 104.400 C 358.733 104.400,356.000 104.548,356.000 104.800 M187.200 142.600 L 187.200 179.200 138.000 179.200 L 88.800 179.200 88.800 142.600 L 88.800 106.000 138.000 106.000 L 187.200 106.000 187.200 142.600 M312.000 142.600 L 312.000 179.200 262.800 179.200 L 213.600 179.200 213.600 142.600 L 213.600 106.000 262.800 106.000 L 312.000 106.000 312.000 142.600 M262.800 236.000 L 262.800 241.200 201.200 241.200 L 139.600 241.200 139.600 236.000 L 139.600 230.800 201.200 230.800 L 262.800 230.800 262.800 236.000 M79.400 245.200 C 79.536 245.420,80.267 245.600,81.024 245.600 C 81.781 245.600,82.400 245.780,82.400 246.000 C 82.400 246.220,82.940 246.400,83.600 246.400 C 84.260 246.400,84.800 246.580,84.800 246.800 C 84.800 247.020,85.160 247.200,85.600 247.200 C 86.040 247.200,86.400 247.380,86.400 247.600 C 86.400 247.820,86.688 248.000,87.040 248.000 C 87.391 248.000,88.156 248.495,88.740 249.100 C 89.323 249.705,90.250 250.437,90.800 250.726 C 91.746 251.223,93.210 253.193,95.000 256.377 C 95.440 257.160,95.935 257.860,96.100 257.933 C 96.265 258.007,96.400 258.412,96.400 258.833 C 96.400 259.255,96.580 259.600,96.800 259.600 C 97.020 259.600,97.200 260.140,97.200 260.800 C 97.200 261.460,97.380 262.000,97.600 262.000 C 97.846 262.000,98.000 264.000,98.000 267.200 C 98.000 270.400,97.846 272.400,97.600 272.400 C 97.380 272.400,97.200 272.852,97.200 273.404 C 97.200 274.359,95.739 277.975,95.182 278.400 C 95.038 278.510,94.698 279.020,94.428 279.534 C 93.386 281.510,89.478 285.600,88.631 285.600 C 88.284 285.600,88.000 285.780,88.000 286.000 C 88.000 286.220,87.764 286.400,87.475 286.400 C 87.187 286.400,86.564 286.760,86.092 287.200 C 85.620 287.640,84.776 288.000,84.217 288.000 C 83.658 288.000,83.200 288.180,83.200 288.400 C 83.200 288.620,82.660 288.800,82.000 288.800 C 81.340 288.800,80.800 288.980,80.800 289.200 C 80.800 289.443,79.008 289.600,76.224 289.600 C 73.604 289.600,71.542 289.429,71.400 289.200 C 71.264 288.980,70.634 288.800,70.000 288.800 C 69.366 288.800,68.736 288.620,68.600 288.400 C 68.464 288.180,68.003 288.000,67.576 288.000 C 67.149 288.000,66.800 287.820,66.800 287.600 C 66.800 287.380,66.440 287.200,66.000 287.200 C 65.560 287.200,65.200 287.020,65.200 286.800 C 65.200 286.580,64.927 286.400,64.594 286.400 C 61.828 286.400,54.424 275.427,54.406 271.300 C 54.403 270.585,54.205 270.000,53.966 270.000 C 53.677 270.000,53.604 269.164,53.748 267.500 C 54.122 263.196,54.468 261.200,54.840 261.200 C 55.038 261.200,55.200 260.675,55.200 260.033 C 55.200 259.392,55.335 258.807,55.500 258.733 C 55.665 258.660,56.340 257.527,57.000 256.215 C 58.253 253.724,61.431 250.205,63.306 249.232 C 63.908 248.920,64.400 248.515,64.400 248.332 C 64.400 248.150,64.760 248.000,65.200 248.000 C 65.640 248.000,66.000 247.820,66.000 247.600 C 66.000 247.380,66.360 247.200,66.800 247.200 C 67.240 247.200,67.600 247.020,67.600 246.800 C 67.600 246.580,68.039 246.400,68.576 246.400 C 69.113 246.400,69.664 246.220,69.800 246.000 C 69.936 245.780,70.566 245.600,71.200 245.600 C 71.834 245.600,72.464 245.420,72.600 245.200 C 72.736 244.980,74.266 244.800,76.000 244.800 C 77.734 244.800,79.264 244.980,79.400 245.200 M328.200 245.200 C 328.336 245.420,328.977 245.600,329.624 245.600 C 330.271 245.600,330.800 245.780,330.800 246.000 C 330.800 246.220,331.340 246.400,332.000 246.400 C 332.660 246.400,333.200 246.580,333.200 246.800 C 333.200 247.020,333.560 247.200,334.000 247.200 C 334.440 247.200,334.800 247.380,334.800 247.600 C 334.800 247.820,335.120 248.000,335.512 248.000 C 335.903 248.000,336.483 248.360,336.800 248.800 C 337.117 249.240,337.612 249.600,337.899 249.600 C 338.430 249.600,342.000 252.953,342.000 253.452 C 342.000 253.602,342.419 254.281,342.932 254.962 C 343.444 255.643,344.118 256.785,344.429 257.500 C 344.741 258.215,345.131 258.800,345.298 258.800 C 345.464 258.800,345.600 259.340,345.600 260.000 C 345.600 260.660,345.780 261.200,346.000 261.200 C 346.220 261.200,346.400 262.179,346.400 263.376 C 346.400 264.573,346.580 265.664,346.800 265.800 C 347.020 265.936,347.200 266.656,347.200 267.400 C 347.200 268.144,347.020 268.864,346.800 269.000 C 346.580 269.136,346.400 270.137,346.400 271.224 C 346.400 272.311,346.220 273.200,346.000 273.200 C 345.780 273.200,345.600 273.667,345.600 274.238 C 345.600 274.809,345.272 275.754,344.871 276.338 C 344.470 276.922,343.832 278.074,343.453 278.899 C 342.664 280.614,337.055 286.400,336.181 286.400 C 335.861 286.400,335.600 286.580,335.600 286.800 C 335.600 287.020,335.240 287.200,334.800 287.200 C 334.360 287.200,334.000 287.380,334.000 287.600 C 334.000 287.820,333.561 288.000,333.024 288.000 C 332.487 288.000,331.936 288.180,331.800 288.400 C 331.664 288.620,331.023 288.800,330.376 288.800 C 329.729 288.800,329.200 288.980,329.200 289.200 C 329.200 289.443,327.400 289.600,324.600 289.600 C 321.800 289.600,320.000 289.443,320.000 289.200 C 320.000 288.980,319.460 288.800,318.800 288.800 C 318.140 288.800,317.600 288.620,317.600 288.400 C 317.600 288.180,317.060 288.000,316.400 288.000 C 315.740 288.000,315.200 287.820,315.200 287.600 C 315.200 287.380,314.964 287.200,314.675 287.200 C 314.387 287.200,313.764 286.840,313.292 286.400 C 312.820 285.960,312.234 285.600,311.991 285.600 C 311.576 285.600,308.794 282.899,307.000 280.754 C 306.560 280.228,305.750 278.898,305.200 277.799 C 304.650 276.700,304.065 275.740,303.900 275.667 C 303.735 275.593,303.600 275.008,303.600 274.367 C 303.600 273.725,303.420 273.200,303.200 273.200 C 302.980 273.200,302.800 272.198,302.800 270.974 C 302.800 269.749,302.603 268.380,302.363 267.931 C 302.047 267.340,302.047 266.993,302.363 266.677 C 302.603 266.437,302.800 265.286,302.800 264.120 C 302.800 262.954,302.980 262.000,303.200 262.000 C 303.420 262.000,303.600 261.543,303.600 260.984 C 303.600 258.799,308.927 250.443,310.340 250.412 C 310.636 250.405,311.383 249.860,312.000 249.200 C 312.617 248.540,313.409 248.000,313.760 248.000 C 314.112 248.000,314.400 247.820,314.400 247.600 C 314.400 247.380,314.760 247.200,315.200 247.200 C 315.640 247.200,316.000 247.020,316.000 246.800 C 316.000 246.580,316.540 246.400,317.200 246.400 C 317.860 246.400,318.400 246.220,318.400 246.000 C 318.400 245.780,319.030 245.600,319.800 245.600 C 320.570 245.600,321.200 245.420,321.200 245.200 C 321.200 244.965,322.592 244.800,324.576 244.800 C 326.433 244.800,328.064 244.980,328.200 245.200 M262.800 261.000 L 262.800 266.000 201.200 266.000 L 139.600 266.000 139.600 261.000 L 139.600 256.000 201.200 256.000 L 262.800 256.000 262.800 261.000 M262.800 286.000 L 262.800 291.200 201.224 291.200 C 167.357 291.200,139.592 291.065,139.524 290.900 C 139.456 290.735,139.456 288.395,139.524 285.700 L 139.647 280.800 201.224 280.800 L 262.800 280.800 262.800 286.000 " stroke="none" fill="#000000" fill-rule="evenodd"></path><path id="path3" d="M83.400 29.600 C 83.264 29.820,82.443 30.000,81.576 30.000 C 80.709 30.000,80.000 30.180,80.000 30.400 C 80.000 30.620,79.460 30.800,78.800 30.800 C 78.140 30.800,77.600 30.980,77.600 31.200 C 77.600 31.420,77.150 31.600,76.600 31.600 C 76.050 31.600,75.600 31.780,75.600 32.000 C 75.600 32.220,75.280 32.400,74.888 32.400 C 74.497 32.400,73.917 32.760,73.600 33.200 C 73.283 33.640,72.789 34.000,72.503 34.000 C 71.829 34.000,67.969 37.886,67.232 39.306 C 66.920 39.908,66.515 40.400,66.332 40.400 C 66.150 40.400,66.000 40.760,66.000 41.200 C 66.000 41.640,65.820 42.000,65.600 42.000 C 65.380 42.000,65.200 42.349,65.200 42.776 C 65.200 43.203,65.020 43.664,64.800 43.800 C 64.580 43.936,64.400 44.566,64.400 45.200 C 64.400 45.834,64.220 46.464,64.000 46.600 C 63.780 46.736,63.600 47.906,63.600 49.200 C 63.600 50.494,63.420 51.664,63.200 51.800 C 62.935 51.964,62.800 81.470,62.800 139.020 L 62.800 225.992 43.100 226.096 L 23.400 226.200 23.299 278.100 L 23.197 330.000 37.199 330.000 L 51.200 330.000 51.200 350.400 L 51.200 370.800 76.600 370.800 L 102.000 370.800 102.000 350.400 L 102.000 330.000 198.396 330.000 L 294.793 330.000 294.896 350.300 L 295.000 370.600 320.600 370.600 L 346.200 370.600 346.304 350.300 L 346.407 330.000 361.204 330.000 L 376.000 330.000 376.000 278.000 L 376.000 226.000 357.800 226.000 L 339.600 226.000 339.600 139.624 C 339.600 82.471,339.465 53.164,339.200 53.000 C 338.980 52.864,338.800 51.424,338.800 49.800 C 338.800 48.176,338.620 46.736,338.400 46.600 C 338.180 46.464,338.000 45.821,338.000 45.171 C 338.000 44.521,337.836 43.677,337.635 43.295 C 337.434 42.913,336.789 41.562,336.202 40.293 C 335.110 37.933,331.680 34.000,330.714 34.000 C 330.419 34.000,329.917 33.640,329.600 33.200 C 329.283 32.760,328.703 32.400,328.312 32.400 C 327.920 32.400,327.600 32.220,327.600 32.000 C 327.600 31.780,327.060 31.600,326.400 31.600 C 325.740 31.600,325.200 31.420,325.200 31.200 C 325.200 30.980,324.761 30.800,324.224 30.800 C 323.687 30.800,323.136 30.620,323.000 30.400 C 322.864 30.180,321.874 30.000,320.800 30.000 C 319.726 30.000,318.736 29.820,318.600 29.600 C 318.257 29.045,83.743 29.045,83.400 29.600 M262.800 67.600 L 262.800 79.200 200.800 79.200 L 138.800 79.200 138.800 67.600 L 138.800 56.000 200.800 56.000 L 262.800 56.000 262.800 67.600 M30.800 104.800 C 30.800 105.020,30.329 105.200,29.754 105.200 C 28.418 105.200,26.285 107.471,25.659 109.560 C 24.764 112.548,25.036 160.962,25.962 163.496 C 26.970 166.254,28.489 167.600,30.595 167.600 C 31.148 167.600,31.600 167.780,31.600 168.000 C 31.600 168.252,34.259 168.400,38.776 168.400 C 43.129 168.400,46.050 168.243,46.200 168.000 C 46.336 167.780,46.893 167.600,47.437 167.600 C 48.445 167.600,50.706 165.670,51.554 164.085 C 52.428 162.454,52.158 108.834,51.272 108.047 C 50.872 107.691,50.428 107.085,50.285 106.700 C 50.142 106.315,49.749 106.000,49.413 106.000 C 49.076 106.000,48.800 105.820,48.800 105.600 C 48.800 105.380,48.451 105.200,48.024 105.200 C 47.597 105.200,47.136 105.020,47.000 104.800 C 46.849 104.555,43.663 104.400,38.776 104.400 C 33.725 104.400,30.800 104.547,30.800 104.800 M356.000 104.800 C 356.000 105.020,355.544 105.200,354.987 105.200 C 353.966 105.200,351.902 106.978,350.900 108.720 C 350.259 109.834,350.161 163.600,350.800 163.600 C 351.020 163.600,351.200 163.891,351.200 164.246 C 351.200 165.279,354.005 167.600,355.255 167.600 C 355.859 167.600,356.464 167.780,356.600 168.000 C 356.749 168.241,359.530 168.400,363.600 168.400 C 367.670 168.400,370.451 168.241,370.600 168.000 C 370.736 167.780,371.288 167.600,371.827 167.600 C 372.833 167.600,375.200 165.675,375.200 164.857 C 375.200 164.606,375.380 164.400,375.600 164.400 C 375.820 164.400,376.000 163.860,376.000 163.200 C 376.000 162.540,376.180 162.000,376.400 162.000 C 376.662 162.000,376.800 153.208,376.800 136.424 C 376.800 119.804,376.660 110.761,376.400 110.600 C 376.180 110.464,376.000 109.913,376.000 109.376 C 376.000 108.839,375.864 108.400,375.698 108.400 C 375.531 108.400,375.156 107.860,374.864 107.200 C 374.572 106.540,374.078 106.000,373.766 106.000 C 373.455 106.000,373.200 105.820,373.200 105.600 C 373.200 105.380,372.660 105.200,372.000 105.200 C 371.340 105.200,370.800 105.020,370.800 104.800 C 370.800 104.548,368.067 104.400,363.400 104.400 C 358.733 104.400,356.000 104.548,356.000 104.800 M187.200 142.600 L 187.200 179.200 138.000 179.200 L 88.800 179.200 88.800 142.600 L 88.800 106.000 138.000 106.000 L 187.200 106.000 187.200 142.600 M312.000 142.600 L 312.000 179.200 262.800 179.200 L 213.600 179.200 213.600 142.600 L 213.600 106.000 262.800 106.000 L 312.000 106.000 312.000 142.600 M262.800 236.000 L 262.800 241.200 201.200 241.200 L 139.600 241.200 139.600 236.000 L 139.600 230.800 201.200 230.800 L 262.800 230.800 262.800 236.000 M79.400 245.200 C 79.536 245.420,80.267 245.600,81.024 245.600 C 81.781 245.600,82.400 245.780,82.400 246.000 C 82.400 246.220,82.940 246.400,83.600 246.400 C 84.260 246.400,84.800 246.580,84.800 246.800 C 84.800 247.020,85.160 247.200,85.600 247.200 C 86.040 247.200,86.400 247.380,86.400 247.600 C 86.400 247.820,86.688 248.000,87.040 248.000 C 87.391 248.000,88.156 248.495,88.740 249.100 C 89.323 249.705,90.250 250.437,90.800 250.726 C 91.746 251.223,93.210 253.193,95.000 256.377 C 95.440 257.160,95.935 257.860,96.100 257.933 C 96.265 258.007,96.400 258.412,96.400 258.833 C 96.400 259.255,96.580 259.600,96.800 259.600 C 97.020 259.600,97.200 260.140,97.200 260.800 C 97.200 261.460,97.380 262.000,97.600 262.000 C 97.846 262.000,98.000 264.000,98.000 267.200 C 98.000 270.400,97.846 272.400,97.600 272.400 C 97.380 272.400,97.200 272.852,97.200 273.404 C 97.200 274.359,95.739 277.975,95.182 278.400 C 95.038 278.510,94.698 279.020,94.428 279.534 C 93.386 281.510,89.478 285.600,88.631 285.600 C 88.284 285.600,88.000 285.780,88.000 286.000 C 88.000 286.220,87.764 286.400,87.475 286.400 C 87.187 286.400,86.564 286.760,86.092 287.200 C 85.620 287.640,84.776 288.000,84.217 288.000 C 83.658 288.000,83.200 288.180,83.200 288.400 C 83.200 288.620,82.660 288.800,82.000 288.800 C 81.340 288.800,80.800 288.980,80.800 289.200 C 80.800 289.443,79.008 289.600,76.224 289.600 C 73.604 289.600,71.542 289.429,71.400 289.200 C 71.264 288.980,70.634 288.800,70.000 288.800 C 69.366 288.800,68.736 288.620,68.600 288.400 C 68.464 288.180,68.003 288.000,67.576 288.000 C 67.149 288.000,66.800 287.820,66.800 287.600 C 66.800 287.380,66.440 287.200,66.000 287.200 C 65.560 287.200,65.200 287.020,65.200 286.800 C 65.200 286.580,64.927 286.400,64.594 286.400 C 61.828 286.400,54.424 275.427,54.406 271.300 C 54.403 270.585,54.205 270.000,53.966 270.000 C 53.677 270.000,53.604 269.164,53.748 267.500 C 54.122 263.196,54.468 261.200,54.840 261.200 C 55.038 261.200,55.200 260.675,55.200 260.033 C 55.200 259.392,55.335 258.807,55.500 258.733 C 55.665 258.660,56.340 257.527,57.000 256.215 C 58.253 253.724,61.431 250.205,63.306 249.232 C 63.908 248.920,64.400 248.515,64.400 248.332 C 64.400 248.150,64.760 248.000,65.200 248.000 C 65.640 248.000,66.000 247.820,66.000 247.600 C 66.000 247.380,66.360 247.200,66.800 247.200 C 67.240 247.200,67.600 247.020,67.600 246.800 C 67.600 246.580,68.039 246.400,68.576 246.400 C 69.113 246.400,69.664 246.220,69.800 246.000 C 69.936 245.780,70.566 245.600,71.200 245.600 C 71.834 245.600,72.464 245.420,72.600 245.200 C 72.736 244.980,74.266 244.800,76.000 244.800 C 77.734 244.800,79.264 244.980,79.400 245.200 M328.200 245.200 C 328.336 245.420,328.977 245.600,329.624 245.600 C 330.271 245.600,330.800 245.780,330.800 246.000 C 330.800 246.220,331.340 246.400,332.000 246.400 C 332.660 246.400,333.200 246.580,333.200 246.800 C 333.200 247.020,333.560 247.200,334.000 247.200 C 334.440 247.200,334.800 247.380,334.800 247.600 C 334.800 247.820,335.120 248.000,335.512 248.000 C 335.903 248.000,336.483 248.360,336.800 248.800 C 337.117 249.240,337.612 249.600,337.899 249.600 C 338.430 249.600,342.000 252.953,342.000 253.452 C 342.000 253.602,342.419 254.281,342.932 254.962 C 343.444 255.643,344.118 256.785,344.429 257.500 C 344.741 258.215,345.131 258.800,345.298 258.800 C 345.464 258.800,345.600 259.340,345.600 260.000 C 345.600 260.660,345.780 261.200,346.000 261.200 C 346.220 261.200,346.400 262.179,346.400 263.376 C 346.400 264.573,346.580 265.664,346.800 265.800 C 347.020 265.936,347.200 266.656,347.200 267.400 C 347.200 268.144,347.020 268.864,346.800 269.000 C 346.580 269.136,346.400 270.137,346.400 271.224 C 346.400 272.311,346.220 273.200,346.000 273.200 C 345.780 273.200,345.600 273.667,345.600 274.238 C 345.600 274.809,345.272 275.754,344.871 276.338 C 344.470 276.922,343.832 278.074,343.453 278.899 C 342.664 280.614,337.055 286.400,336.181 286.400 C 335.861 286.400,335.600 286.580,335.600 286.800 C 335.600 287.020,335.240 287.200,334.800 287.200 C 334.360 287.200,334.000 287.380,334.000 287.600 C 334.000 287.820,333.561 288.000,333.024 288.000 C 332.487 288.000,331.936 288.180,331.800 288.400 C 331.664 288.620,331.023 288.800,330.376 288.800 C 329.729 288.800,329.200 288.980,329.200 289.200 C 329.200 289.443,327.400 289.600,324.600 289.600 C 321.800 289.600,320.000 289.443,320.000 289.200 C 320.000 288.980,319.460 288.800,318.800 288.800 C 318.140 288.800,317.600 288.620,317.600 288.400 C 317.600 288.180,317.060 288.000,316.400 288.000 C 315.740 288.000,315.200 287.820,315.200 287.600 C 315.200 287.380,314.964 287.200,314.675 287.200 C 314.387 287.200,313.764 286.840,313.292 286.400 C 312.820 285.960,312.234 285.600,311.991 285.600 C 311.576 285.600,308.794 282.899,307.000 280.754 C 306.560 280.228,305.750 278.898,305.200 277.799 C 304.650 276.700,304.065 275.740,303.900 275.667 C 303.735 275.593,303.600 275.008,303.600 274.367 C 303.600 273.725,303.420 273.200,303.200 273.200 C 302.980 273.200,302.800 272.198,302.800 270.974 C 302.800 269.749,302.603 268.380,302.363 267.931 C 302.047 267.340,302.047 266.993,302.363 266.677 C 302.603 266.437,302.800 265.286,302.800 264.120 C 302.800 262.954,302.980 262.000,303.200 262.000 C 303.420 262.000,303.600 261.543,303.600 260.984 C 303.600 258.799,308.927 250.443,310.340 250.412 C 310.636 250.405,311.383 249.860,312.000 249.200 C 312.617 248.540,313.409 248.000,313.760 248.000 C 314.112 248.000,314.400 247.820,314.400 247.600 C 314.400 247.380,314.760 247.200,315.200 247.200 C 315.640 247.200,316.000 247.020,316.000 246.800 C 316.000 246.580,316.540 246.400,317.200 246.400 C 317.860 246.400,318.400 246.220,318.400 246.000 C 318.400 245.780,319.030 245.600,319.800 245.600 C 320.570 245.600,321.200 245.420,321.200 245.200 C 321.200 244.965,322.592 244.800,324.576 244.800 C 326.433 244.800,328.064 244.980,328.200 245.200 M262.800 261.000 L 262.800 266.000 201.200 266.000 L 139.600 266.000 139.600 261.000 L 139.600 256.000 201.200 256.000 L 262.800 256.000 262.800 261.000 M262.800 286.000 L 262.800 291.200 201.224 291.200 C 167.357 291.200,139.592 291.065,139.524 290.900 C 139.456 290.735,139.456 288.395,139.524 285.700 L 139.647 280.800 201.224 280.800 L 262.800 280.800 262.800 286.000 " stroke="none" fill="#000000" fill-rule="evenodd"></path><path id="path4" d="M83.400 29.600 C 83.264 29.820,82.443 30.000,81.576 30.000 C 80.709 30.000,80.000 30.180,80.000 30.400 C 80.000 30.620,79.460 30.800,78.800 30.800 C 78.140 30.800,77.600 30.980,77.600 31.200 C 77.600 31.420,77.150 31.600,76.600 31.600 C 76.050 31.600,75.600 31.780,75.600 32.000 C 75.600 32.220,75.280 32.400,74.888 32.400 C 74.497 32.400,73.917 32.760,73.600 33.200 C 73.283 33.640,72.789 34.000,72.503 34.000 C 71.829 34.000,67.969 37.886,67.232 39.306 C 66.920 39.908,66.515 40.400,66.332 40.400 C 66.150 40.400,66.000 40.760,66.000 41.200 C 66.000 41.640,65.820 42.000,65.600 42.000 C 65.380 42.000,65.200 42.349,65.200 42.776 C 65.200 43.203,65.020 43.664,64.800 43.800 C 64.580 43.936,64.400 44.566,64.400 45.200 C 64.400 45.834,64.220 46.464,64.000 46.600 C 63.780 46.736,63.600 47.906,63.600 49.200 C 63.600 50.494,63.420 51.664,63.200 51.800 C 62.935 51.964,62.800 81.470,62.800 139.020 L 62.800 225.992 43.100 226.096 L 23.400 226.200 23.299 278.100 L 23.197 330.000 37.199 330.000 L 51.200 330.000 51.200 350.400 L 51.200 370.800 76.600 370.800 L 102.000 370.800 102.000 350.400 L 102.000 330.000 198.396 330.000 L 294.793 330.000 294.896 350.300 L 295.000 370.600 320.600 370.600 L 346.200 370.600 346.304 350.300 L 346.407 330.000 361.204 330.000 L 376.000 330.000 376.000 278.000 L 376.000 226.000 357.800 226.000 L 339.600 226.000 339.600 139.624 C 339.600 82.471,339.465 53.164,339.200 53.000 C 338.980 52.864,338.800 51.424,338.800 49.800 C 338.800 48.176,338.620 46.736,338.400 46.600 C 338.180 46.464,338.000 45.821,338.000 45.171 C 338.000 44.521,337.836 43.677,337.635 43.295 C 337.434 42.913,336.789 41.562,336.202 40.293 C 335.110 37.933,331.680 34.000,330.714 34.000 C 330.419 34.000,329.917 33.640,329.600 33.200 C 329.283 32.760,328.703 32.400,328.312 32.400 C 327.920 32.400,327.600 32.220,327.600 32.000 C 327.600 31.780,327.060 31.600,326.400 31.600 C 325.740 31.600,325.200 31.420,325.200 31.200 C 325.200 30.980,324.761 30.800,324.224 30.800 C 323.687 30.800,323.136 30.620,323.000 30.400 C 322.864 30.180,321.874 30.000,320.800 30.000 C 319.726 30.000,318.736 29.820,318.600 29.600 C 318.257 29.045,83.743 29.045,83.400 29.600 M262.800 67.600 L 262.800 79.200 200.800 79.200 L 138.800 79.200 138.800 67.600 L 138.800 56.000 200.800 56.000 L 262.800 56.000 262.800 67.600 M30.800 104.800 C 30.800 105.020,30.329 105.200,29.754 105.200 C 28.418 105.200,26.285 107.471,25.659 109.560 C 24.764 112.548,25.036 160.962,25.962 163.496 C 26.970 166.254,28.489 167.600,30.595 167.600 C 31.148 167.600,31.600 167.780,31.600 168.000 C 31.600 168.252,34.259 168.400,38.776 168.400 C 43.129 168.400,46.050 168.243,46.200 168.000 C 46.336 167.780,46.893 167.600,47.437 167.600 C 48.445 167.600,50.706 165.670,51.554 164.085 C 52.428 162.454,52.158 108.834,51.272 108.047 C 50.872 107.691,50.428 107.085,50.285 106.700 C 50.142 106.315,49.749 106.000,49.413 106.000 C 49.076 106.000,48.800 105.820,48.800 105.600 C 48.800 105.380,48.451 105.200,48.024 105.200 C 47.597 105.200,47.136 105.020,47.000 104.800 C 46.849 104.555,43.663 104.400,38.776 104.400 C 33.725 104.400,30.800 104.547,30.800 104.800 M356.000 104.800 C 356.000 105.020,355.544 105.200,354.987 105.200 C 353.966 105.200,351.902 106.978,350.900 108.720 C 350.259 109.834,350.161 163.600,350.800 163.600 C 351.020 163.600,351.200 163.891,351.200 164.246 C 351.200 165.279,354.005 167.600,355.255 167.600 C 355.859 167.600,356.464 167.780,356.600 168.000 C 356.749 168.241,359.530 168.400,363.600 168.400 C 367.670 168.400,370.451 168.241,370.600 168.000 C 370.736 167.780,371.288 167.600,371.827 167.600 C 372.833 167.600,375.200 165.675,375.200 164.857 C 375.200 164.606,375.380 164.400,375.600 164.400 C 375.820 164.400,376.000 163.860,376.000 163.200 C 376.000 162.540,376.180 162.000,376.400 162.000 C 376.662 162.000,376.800 153.208,376.800 136.424 C 376.800 119.804,376.660 110.761,376.400 110.600 C 376.180 110.464,376.000 109.913,376.000 109.376 C 376.000 108.839,375.864 108.400,375.698 108.400 C 375.531 108.400,375.156 107.860,374.864 107.200 C 374.572 106.540,374.078 106.000,373.766 106.000 C 373.455 106.000,373.200 105.820,373.200 105.600 C 373.200 105.380,372.660 105.200,372.000 105.200 C 371.340 105.200,370.800 105.020,370.800 104.800 C 370.800 104.548,368.067 104.400,363.400 104.400 C 358.733 104.400,356.000 104.548,356.000 104.800 M187.200 142.600 L 187.200 179.200 138.000 179.200 L 88.800 179.200 88.800 142.600 L 88.800 106.000 138.000 106.000 L 187.200 106.000 187.200 142.600 M312.000 142.600 L 312.000 179.200 262.800 179.200 L 213.600 179.200 213.600 142.600 L 213.600 106.000 262.800 106.000 L 312.000 106.000 312.000 142.600 M262.800 236.000 L 262.800 241.200 201.200 241.200 L 139.600 241.200 139.600 236.000 L 139.600 230.800 201.200 230.800 L 262.800 230.800 262.800 236.000 M79.400 245.200 C 79.536 245.420,80.267 245.600,81.024 245.600 C 81.781 245.600,82.400 245.780,82.400 246.000 C 82.400 246.220,82.940 246.400,83.600 246.400 C 84.260 246.400,84.800 246.580,84.800 246.800 C 84.800 247.020,85.160 247.200,85.600 247.200 C 86.040 247.200,86.400 247.380,86.400 247.600 C 86.400 247.820,86.688 248.000,87.040 248.000 C 87.391 248.000,88.156 248.495,88.740 249.100 C 89.323 249.705,90.250 250.437,90.800 250.726 C 91.746 251.223,93.210 253.193,95.000 256.377 C 95.440 257.160,95.935 257.860,96.100 257.933 C 96.265 258.007,96.400 258.412,96.400 258.833 C 96.400 259.255,96.580 259.600,96.800 259.600 C 97.020 259.600,97.200 260.140,97.200 260.800 C 97.200 261.460,97.380 262.000,97.600 262.000 C 97.846 262.000,98.000 264.000,98.000 267.200 C 98.000 270.400,97.846 272.400,97.600 272.400 C 97.380 272.400,97.200 272.852,97.200 273.404 C 97.200 274.359,95.739 277.975,95.182 278.400 C 95.038 278.510,94.698 279.020,94.428 279.534 C 93.386 281.510,89.478 285.600,88.631 285.600 C 88.284 285.600,88.000 285.780,88.000 286.000 C 88.000 286.220,87.764 286.400,87.475 286.400 C 87.187 286.400,86.564 286.760,86.092 287.200 C 85.620 287.640,84.776 288.000,84.217 288.000 C 83.658 288.000,83.200 288.180,83.200 288.400 C 83.200 288.620,82.660 288.800,82.000 288.800 C 81.340 288.800,80.800 288.980,80.800 289.200 C 80.800 289.443,79.008 289.600,76.224 289.600 C 73.604 289.600,71.542 289.429,71.400 289.200 C 71.264 288.980,70.634 288.800,70.000 288.800 C 69.366 288.800,68.736 288.620,68.600 288.400 C 68.464 288.180,68.003 288.000,67.576 288.000 C 67.149 288.000,66.800 287.820,66.800 287.600 C 66.800 287.380,66.440 287.200,66.000 287.200 C 65.560 287.200,65.200 287.020,65.200 286.800 C 65.200 286.580,64.927 286.400,64.594 286.400 C 61.828 286.400,54.424 275.427,54.406 271.300 C 54.403 270.585,54.205 270.000,53.966 270.000 C 53.677 270.000,53.604 269.164,53.748 267.500 C 54.122 263.196,54.468 261.200,54.840 261.200 C 55.038 261.200,55.200 260.675,55.200 260.033 C 55.200 259.392,55.335 258.807,55.500 258.733 C 55.665 258.660,56.340 257.527,57.000 256.215 C 58.253 253.724,61.431 250.205,63.306 249.232 C 63.908 248.920,64.400 248.515,64.400 248.332 C 64.400 248.150,64.760 248.000,65.200 248.000 C 65.640 248.000,66.000 247.820,66.000 247.600 C 66.000 247.380,66.360 247.200,66.800 247.200 C 67.240 247.200,67.600 247.020,67.600 246.800 C 67.600 246.580,68.039 246.400,68.576 246.400 C 69.113 246.400,69.664 246.220,69.800 246.000 C 69.936 245.780,70.566 245.600,71.200 245.600 C 71.834 245.600,72.464 245.420,72.600 245.200 C 72.736 244.980,74.266 244.800,76.000 244.800 C 77.734 244.800,79.264 244.980,79.400 245.200 M328.200 245.200 C 328.336 245.420,328.977 245.600,329.624 245.600 C 330.271 245.600,330.800 245.780,330.800 246.000 C 330.800 246.220,331.340 246.400,332.000 246.400 C 332.660 246.400,333.200 246.580,333.200 246.800 C 333.200 247.020,333.560 247.200,334.000 247.200 C 334.440 247.200,334.800 247.380,334.800 247.600 C 334.800 247.820,335.120 248.000,335.512 248.000 C 335.903 248.000,336.483 248.360,336.800 248.800 C 337.117 249.240,337.612 249.600,337.899 249.600 C 338.430 249.600,342.000 252.953,342.000 253.452 C 342.000 253.602,342.419 254.281,342.932 254.962 C 343.444 255.643,344.118 256.785,344.429 257.500 C 344.741 258.215,345.131 258.800,345.298 258.800 C 345.464 258.800,345.600 259.340,345.600 260.000 C 345.600 260.660,345.780 261.200,346.000 261.200 C 346.220 261.200,346.400 262.179,346.400 263.376 C 346.400 264.573,346.580 265.664,346.800 265.800 C 347.020 265.936,347.200 266.656,347.200 267.400 C 347.200 268.144,347.020 268.864,346.800 269.000 C 346.580 269.136,346.400 270.137,346.400 271.224 C 346.400 272.311,346.220 273.200,346.000 273.200 C 345.780 273.200,345.600 273.667,345.600 274.238 C 345.600 274.809,345.272 275.754,344.871 276.338 C 344.470 276.922,343.832 278.074,343.453 278.899 C 342.664 280.614,337.055 286.400,336.181 286.400 C 335.861 286.400,335.600 286.580,335.600 286.800 C 335.600 287.020,335.240 287.200,334.800 287.200 C 334.360 287.200,334.000 287.380,334.000 287.600 C 334.000 287.820,333.561 288.000,333.024 288.000 C 332.487 288.000,331.936 288.180,331.800 288.400 C 331.664 288.620,331.023 288.800,330.376 288.800 C 329.729 288.800,329.200 288.980,329.200 289.200 C 329.200 289.443,327.400 289.600,324.600 289.600 C 321.800 289.600,320.000 289.443,320.000 289.200 C 320.000 288.980,319.460 288.800,318.800 288.800 C 318.140 288.800,317.600 288.620,317.600 288.400 C 317.600 288.180,317.060 288.000,316.400 288.000 C 315.740 288.000,315.200 287.820,315.200 287.600 C 315.200 287.380,314.964 287.200,314.675 287.200 C 314.387 287.200,313.764 286.840,313.292 286.400 C 312.820 285.960,312.234 285.600,311.991 285.600 C 311.576 285.600,308.794 282.899,307.000 280.754 C 306.560 280.228,305.750 278.898,305.200 277.799 C 304.650 276.700,304.065 275.740,303.900 275.667 C 303.735 275.593,303.600 275.008,303.600 274.367 C 303.600 273.725,303.420 273.200,303.200 273.200 C 302.980 273.200,302.800 272.198,302.800 270.974 C 302.800 269.749,302.603 268.380,302.363 267.931 C 302.047 267.340,302.047 266.993,302.363 266.677 C 302.603 266.437,302.800 265.286,302.800 264.120 C 302.800 262.954,302.980 262.000,303.200 262.000 C 303.420 262.000,303.600 261.543,303.600 260.984 C 303.600 258.799,308.927 250.443,310.340 250.412 C 310.636 250.405,311.383 249.860,312.000 249.200 C 312.617 248.540,313.409 248.000,313.760 248.000 C 314.112 248.000,314.400 247.820,314.400 247.600 C 314.400 247.380,314.760 247.200,315.200 247.200 C 315.640 247.200,316.000 247.020,316.000 246.800 C 316.000 246.580,316.540 246.400,317.200 246.400 C 317.860 246.400,318.400 246.220,318.400 246.000 C 318.400 245.780,319.030 245.600,319.800 245.600 C 320.570 245.600,321.200 245.420,321.200 245.200 C 321.200 244.965,322.592 244.800,324.576 244.800 C 326.433 244.800,328.064 244.980,328.200 245.200 M262.800 261.000 L 262.800 266.000 201.200 266.000 L 139.600 266.000 139.600 261.000 L 139.600 256.000 201.200 256.000 L 262.800 256.000 262.800 261.000 M262.800 286.000 L 262.800 291.200 201.224 291.200 C 167.357 291.200,139.592 291.065,139.524 290.900 C 139.456 290.735,139.456 288.395,139.524 285.700 L 139.647 280.800 201.224 280.800 L 262.800 280.800 262.800 286.000 " stroke="none" fill="#000000" fill-rule="evenodd"></path></g></svg>