<svg id="svg" version="1.1" width="400" height="400" xmlns="http://www.w3.org/2000/svg" xmlns:xlink="http://www.w3.org/1999/xlink" style="display: block;"><g id="svgg"><path id="path0" d="M145.600 34.400 C 145.600 34.620,144.610 34.800,143.400 34.800 C 142.190 34.800,141.200 34.980,141.200 35.200 C 141.200 35.422,140.133 35.600,138.800 35.600 C 137.467 35.600,136.400 35.778,136.400 36.000 C 136.400 36.220,135.860 36.400,135.200 36.400 C 134.540 36.400,134.000 36.580,134.000 36.800 C 134.000 37.020,133.280 37.200,132.400 37.200 C 131.520 37.200,130.800 37.380,130.800 37.600 C 130.800 37.820,130.260 38.000,129.600 38.000 C 128.940 38.000,128.400 38.180,128.400 38.400 C 128.400 38.620,127.950 38.800,127.400 38.800 C 126.850 38.800,126.400 38.980,126.400 39.200 C 126.400 39.420,125.860 39.600,125.200 39.600 C 124.540 39.600,124.000 39.780,124.000 40.000 C 124.000 40.220,123.640 40.400,123.200 40.400 C 122.760 40.400,122.400 40.580,122.400 40.800 C 122.400 41.020,122.051 41.200,121.624 41.200 C 121.197 41.200,120.750 41.358,120.630 41.551 C 120.511 41.744,119.614 42.103,118.637 42.349 C 117.660 42.595,116.590 43.067,116.259 43.398 C 115.928 43.729,115.374 44.000,115.029 44.000 C 114.683 44.000,114.400 44.180,114.400 44.400 C 114.400 44.620,114.080 44.800,113.688 44.800 C 113.297 44.800,112.717 45.160,112.400 45.600 C 112.083 46.040,111.503 46.400,111.112 46.400 C 110.720 46.400,110.400 46.580,110.400 46.800 C 110.400 47.020,110.202 47.200,109.960 47.200 C 109.719 47.200,109.017 47.740,108.400 48.400 C 107.783 49.060,107.079 49.600,106.836 49.600 C 105.468 49.600,93.200 63.211,93.200 64.729 C 93.200 64.934,92.930 65.326,92.600 65.600 C 92.270 65.874,92.000 66.430,92.000 66.837 C 92.000 67.243,91.640 68.217,91.200 69.000 C 90.760 69.783,90.400 70.689,90.400 71.012 C 90.400 71.335,90.220 71.600,90.000 71.600 C 89.780 71.600,89.600 72.140,89.600 72.800 C 89.600 73.460,89.420 74.000,89.200 74.000 C 88.980 74.000,88.800 74.540,88.800 75.200 C 88.800 75.860,88.620 76.400,88.400 76.400 C 88.178 76.400,88.000 77.467,88.000 78.800 C 88.000 80.133,87.822 81.200,87.600 81.200 C 87.335 81.200,87.200 104.733,87.200 151.000 C 87.200 197.267,87.335 220.800,87.600 220.800 C 87.820 220.800,88.000 221.790,88.000 223.000 C 88.000 224.210,88.180 225.200,88.400 225.200 C 88.620 225.200,88.800 225.740,88.800 226.400 C 88.800 227.060,88.980 227.600,89.200 227.600 C 89.420 227.600,89.600 228.219,89.600 228.976 C 89.600 229.733,89.780 230.464,90.000 230.600 C 90.220 230.736,90.400 231.197,90.400 231.624 C 90.400 232.051,90.580 232.400,90.800 232.400 C 91.020 232.400,91.200 232.760,91.200 233.200 C 91.200 233.640,91.380 234.000,91.600 234.000 C 91.820 234.000,92.000 234.326,92.000 234.724 C 92.000 235.530,94.643 240.124,95.227 240.333 C 95.432 240.407,95.600 240.649,95.600 240.873 C 95.600 241.096,96.140 241.783,96.800 242.400 C 97.460 243.017,98.000 243.726,98.000 243.978 C 98.000 244.517,104.266 250.800,104.804 250.800 C 105.007 250.800,105.803 251.430,106.573 252.200 C 107.343 252.970,108.131 253.600,108.325 253.600 C 108.518 253.600,109.002 253.960,109.400 254.400 C 109.798 254.840,110.267 255.200,110.442 255.200 C 110.617 255.200,111.541 255.727,112.495 256.371 C 113.449 257.015,114.720 257.665,115.319 257.815 C 115.918 257.966,116.506 258.249,116.627 258.444 C 116.748 258.640,117.114 258.800,117.440 258.800 C 117.767 258.800,118.420 259.160,118.892 259.600 C 119.364 260.040,119.987 260.400,120.275 260.400 C 120.564 260.400,120.800 260.503,120.800 260.629 C 120.800 261.066,119.654 262.000,119.117 262.000 C 118.820 262.000,118.317 262.360,118.000 262.800 C 117.683 263.240,117.143 263.600,116.800 263.600 C 116.457 263.600,115.917 263.960,115.600 264.400 C 115.283 264.840,114.769 265.200,114.459 265.200 C 114.148 265.200,113.603 265.516,113.247 265.903 C 112.891 266.289,112.105 266.860,111.500 267.170 C 110.895 267.481,110.400 267.885,110.400 268.068 C 110.400 268.250,110.170 268.400,109.888 268.400 C 109.607 268.400,109.117 268.760,108.800 269.200 C 108.483 269.640,107.975 270.000,107.672 270.000 C 107.369 270.000,106.617 270.540,106.000 271.200 C 105.383 271.860,104.631 272.400,104.328 272.400 C 104.025 272.400,103.517 272.760,103.200 273.200 C 102.883 273.640,102.386 274.000,102.095 274.000 C 101.804 274.000,101.349 274.188,101.083 274.417 C 100.817 274.647,99.610 275.454,98.400 276.212 C 95.905 277.775,94.723 278.608,93.168 279.900 C 92.572 280.395,91.925 280.800,91.731 280.800 C 91.536 280.800,91.117 281.160,90.800 281.600 C 90.483 282.040,89.943 282.400,89.600 282.400 C 89.257 282.400,88.717 282.760,88.400 283.200 C 88.083 283.640,87.575 284.000,87.272 284.000 C 86.969 284.000,86.217 284.540,85.600 285.200 C 84.983 285.860,84.231 286.400,83.928 286.400 C 83.625 286.400,83.117 286.760,82.800 287.200 C 82.483 287.640,81.943 288.000,81.600 288.000 C 81.257 288.000,80.717 288.360,80.400 288.800 C 80.083 289.240,79.543 289.600,79.200 289.600 C 78.857 289.600,78.317 289.960,78.000 290.400 C 77.683 290.840,77.291 291.200,77.129 291.200 C 76.846 291.200,74.244 292.821,73.375 293.540 C 73.141 293.734,72.522 294.120,72.000 294.400 C 71.478 294.680,70.690 295.244,70.250 295.654 C 69.809 296.064,69.253 296.400,69.013 296.400 C 68.773 296.400,68.317 296.760,68.000 297.200 C 67.683 297.640,67.143 298.000,66.800 298.000 C 66.457 298.000,65.917 298.360,65.600 298.800 C 65.283 299.240,64.769 299.600,64.459 299.600 C 64.148 299.600,63.603 299.916,63.247 300.303 C 62.891 300.689,62.105 301.260,61.500 301.570 C 60.895 301.881,60.400 302.285,60.400 302.468 C 60.400 302.650,60.212 302.800,59.982 302.800 C 58.255 302.800,57.600 304.666,57.600 309.582 L 57.600 314.400 197.800 314.400 L 338.000 314.400 338.000 309.582 C 338.000 304.576,337.347 302.800,335.506 302.800 C 335.215 302.800,334.717 302.440,334.400 302.000 C 334.083 301.560,333.543 301.200,333.200 301.200 C 332.857 301.200,332.317 300.840,332.000 300.400 C 331.683 299.960,331.143 299.600,330.800 299.600 C 330.457 299.600,329.917 299.240,329.600 298.800 C 329.283 298.360,328.743 298.000,328.400 298.000 C 328.057 298.000,327.517 297.640,327.200 297.200 C 326.883 296.760,326.427 296.400,326.187 296.400 C 325.947 296.400,325.398 296.071,324.967 295.669 C 324.535 295.267,323.196 294.278,321.991 293.471 C 320.786 292.663,319.583 291.822,319.317 291.601 C 319.051 291.381,318.596 291.200,318.305 291.200 C 318.014 291.200,317.517 290.840,317.200 290.400 C 316.883 289.960,316.343 289.600,316.000 289.600 C 315.657 289.600,315.117 289.240,314.800 288.800 C 314.483 288.360,313.943 288.000,313.600 288.000 C 313.257 288.000,312.717 287.640,312.400 287.200 C 312.083 286.760,311.575 286.400,311.272 286.400 C 310.969 286.400,310.217 285.860,309.600 285.200 C 308.983 284.540,308.309 284.000,308.102 284.000 C 307.894 284.000,307.398 283.640,307.000 283.200 C 306.602 282.760,306.074 282.400,305.826 282.400 C 305.579 282.400,305.117 282.040,304.800 281.600 C 304.483 281.160,303.943 280.800,303.600 280.800 C 303.257 280.800,302.717 280.440,302.400 280.000 C 302.083 279.560,301.638 279.200,301.412 279.200 C 301.185 279.199,300.483 278.754,299.851 278.211 C 299.219 277.667,298.364 277.116,297.951 276.984 C 297.538 276.853,297.200 276.606,297.200 276.434 C 297.200 276.262,296.480 275.797,295.600 275.400 C 294.720 275.003,294.000 274.526,294.000 274.339 C 294.000 274.153,293.680 274.000,293.288 274.000 C 292.897 274.000,292.317 273.640,292.000 273.200 C 291.683 272.760,291.233 272.400,291.000 272.400 C 290.767 272.400,290.317 272.040,290.000 271.600 C 289.683 271.160,289.193 270.800,288.912 270.800 C 288.630 270.800,288.400 270.620,288.400 270.400 C 288.400 270.180,288.170 270.000,287.888 270.000 C 287.607 270.000,287.117 269.640,286.800 269.200 C 286.483 268.760,285.943 268.400,285.600 268.400 C 285.257 268.400,284.717 268.040,284.400 267.600 C 284.083 267.160,283.543 266.800,283.200 266.800 C 282.857 266.800,282.317 266.440,282.000 266.000 C 281.683 265.560,281.143 265.200,280.800 265.200 C 280.457 265.200,279.917 264.840,279.600 264.400 C 279.283 263.960,278.743 263.600,278.400 263.600 C 278.057 263.600,277.517 263.240,277.200 262.800 C 276.883 262.360,276.380 262.000,276.083 262.000 C 275.546 262.000,274.400 261.066,274.400 260.629 C 274.400 260.503,274.636 260.400,274.925 260.400 C 275.213 260.400,275.836 260.040,276.308 259.600 C 276.780 259.160,277.357 258.800,277.589 258.800 C 277.821 258.800,278.323 258.631,278.705 258.426 C 279.087 258.220,280.435 257.568,281.700 256.979 C 282.965 256.389,284.000 255.747,284.000 255.553 C 284.000 255.359,284.236 255.200,284.525 255.200 C 284.813 255.200,285.436 254.840,285.908 254.400 C 286.380 253.960,286.911 253.600,287.087 253.600 C 287.878 253.600,297.200 244.730,297.200 243.978 C 297.200 243.726,297.740 243.017,298.400 242.400 C 299.060 241.783,299.600 241.147,299.600 240.986 C 299.600 240.826,299.915 240.402,300.300 240.046 C 301.096 239.309,302.341 237.342,302.671 236.300 C 302.793 235.915,303.052 235.600,303.247 235.600 C 303.441 235.600,303.600 235.240,303.600 234.800 C 303.600 234.360,303.780 234.000,304.000 234.000 C 304.220 234.000,304.400 233.728,304.400 233.395 C 304.400 233.062,304.580 232.432,304.800 231.995 C 305.020 231.558,305.380 230.842,305.600 230.405 C 305.820 229.968,306.000 229.158,306.000 228.605 C 306.000 228.052,306.160 227.600,306.356 227.600 C 306.731 227.600,306.900 226.844,307.594 222.076 C 307.885 220.073,307.985 196.930,307.910 148.676 L 307.800 78.200 306.476 74.400 C 304.818 69.644,304.285 68.400,303.902 68.400 C 303.736 68.400,303.600 67.984,303.600 67.475 C 303.600 66.967,303.240 66.164,302.800 65.692 C 302.360 65.220,302.000 64.556,302.000 64.217 C 302.000 63.878,301.850 63.600,301.668 63.600 C 301.485 63.600,301.080 63.108,300.768 62.506 C 299.874 60.783,289.374 49.600,288.651 49.600 C 288.509 49.600,287.828 49.060,287.137 48.400 C 286.446 47.740,285.638 47.200,285.341 47.200 C 285.043 47.200,284.800 47.020,284.800 46.800 C 284.800 46.580,284.480 46.400,284.088 46.400 C 283.697 46.400,283.117 46.040,282.800 45.600 C 282.483 45.160,281.903 44.800,281.512 44.800 C 281.120 44.800,280.800 44.620,280.800 44.400 C 280.800 44.180,280.455 44.000,280.033 44.000 C 279.612 44.000,279.205 43.814,279.129 43.586 C 279.053 43.358,278.183 42.899,277.195 42.564 C 274.530 41.662,273.200 41.042,273.200 40.702 C 273.200 40.536,272.851 40.400,272.424 40.400 C 271.997 40.400,271.536 40.220,271.400 40.000 C 271.264 39.780,270.713 39.600,270.176 39.600 C 269.639 39.600,269.200 39.420,269.200 39.200 C 269.200 38.980,268.660 38.800,268.000 38.800 C 267.340 38.800,266.800 38.620,266.800 38.400 C 266.800 38.180,266.260 38.000,265.600 38.000 C 264.940 38.000,264.400 37.820,264.400 37.600 C 264.400 37.380,263.680 37.200,262.800 37.200 C 261.920 37.200,261.200 37.020,261.200 36.800 C 261.200 36.580,260.660 36.400,260.000 36.400 C 259.340 36.400,258.800 36.220,258.800 36.000 C 258.800 35.780,257.821 35.600,256.624 35.600 C 255.427 35.600,254.336 35.420,254.200 35.200 C 254.064 34.980,252.973 34.800,251.776 34.800 C 250.579 34.800,249.600 34.620,249.600 34.400 C 249.600 34.135,232.000 34.000,197.600 34.000 C 163.200 34.000,145.600 34.135,145.600 34.400 M230.800 53.200 C 230.800 53.420,231.078 53.600,231.418 53.600 C 232.215 53.600,233.649 55.069,234.347 56.600 C 234.647 57.260,235.052 58.113,235.247 58.495 C 235.727 59.439,235.695 61.600,235.200 61.600 C 234.980 61.600,234.800 62.050,234.800 62.600 C 234.800 63.150,234.620 63.600,234.400 63.600 C 234.180 63.600,234.000 63.878,234.000 64.218 C 234.000 65.018,232.218 66.800,231.418 66.800 C 231.078 66.800,230.800 66.980,230.800 67.200 C 230.800 67.420,230.361 67.600,229.824 67.600 C 229.287 67.600,228.736 67.780,228.600 68.000 C 228.439 68.261,217.663 68.400,197.576 68.400 C 177.325 68.400,166.800 68.263,166.800 68.000 C 166.800 67.780,166.260 67.600,165.600 67.600 C 164.940 67.600,164.400 67.420,164.400 67.200 C 164.400 66.980,164.122 66.800,163.782 66.800 C 162.982 66.800,161.200 65.018,161.200 64.218 C 161.200 63.878,161.020 63.600,160.800 63.600 C 160.580 63.600,160.400 63.150,160.400 62.600 C 160.400 62.050,160.220 61.600,160.000 61.600 C 159.780 61.600,159.600 60.970,159.600 60.200 C 159.600 59.430,159.780 58.800,160.000 58.800 C 160.220 58.800,160.400 58.350,160.400 57.800 C 160.400 57.250,160.536 56.800,160.702 56.800 C 160.869 56.800,161.230 56.291,161.505 55.669 C 162.799 52.746,161.148 52.875,197.900 52.835 C 219.590 52.812,230.800 52.936,230.800 53.200 M262.400 89.370 C 263.610 89.518,264.960 89.790,265.400 89.976 C 266.694 90.521,270.445 91.600,271.046 91.600 C 271.351 91.600,271.600 91.780,271.600 92.000 C 271.600 92.220,271.868 92.400,272.195 92.400 C 273.241 92.400,279.200 97.929,279.200 98.899 C 279.200 99.188,279.560 99.683,280.000 100.000 C 280.440 100.317,280.800 100.976,280.800 101.465 C 280.800 101.953,280.980 102.464,281.200 102.600 C 281.420 102.736,281.600 103.197,281.600 103.624 C 281.600 104.051,281.780 104.400,282.000 104.400 C 282.220 104.400,282.400 105.030,282.400 105.800 C 282.400 106.570,282.562 107.200,282.760 107.200 C 283.471 107.200,283.696 111.250,283.856 126.900 C 283.965 137.570,283.883 142.800,283.609 142.800 C 283.384 142.800,283.200 143.520,283.200 144.400 C 283.200 145.280,283.020 146.000,282.800 146.000 C 282.580 146.000,282.400 146.506,282.400 147.125 C 282.400 147.744,282.040 148.995,281.600 149.906 C 281.160 150.816,280.800 151.840,280.800 152.181 C 280.800 152.521,280.632 152.800,280.427 152.800 C 280.222 152.800,279.935 153.173,279.791 153.630 C 279.041 155.990,271.325 162.000,269.044 162.000 C 268.690 162.000,268.400 162.180,268.400 162.400 C 268.400 162.620,267.781 162.800,267.024 162.800 C 266.267 162.800,265.536 162.980,265.400 163.200 C 265.264 163.420,264.659 163.600,264.056 163.600 C 263.453 163.600,262.779 163.781,262.558 164.002 C 262.079 164.481,133.851 164.303,131.496 163.820 C 130.669 163.650,129.894 163.351,129.773 163.156 C 129.652 162.960,128.933 162.800,128.176 162.800 C 127.419 162.800,126.800 162.620,126.800 162.400 C 126.800 162.180,126.575 162.003,126.300 162.006 C 124.196 162.030,117.007 156.567,115.632 153.900 C 115.320 153.295,114.915 152.800,114.732 152.800 C 114.550 152.800,114.400 152.361,114.400 151.824 C 114.400 151.287,114.220 150.736,114.000 150.600 C 113.780 150.464,113.600 150.003,113.600 149.576 C 113.600 149.149,113.420 148.800,113.200 148.800 C 112.980 148.800,112.800 148.181,112.800 147.424 C 112.800 146.667,112.620 145.936,112.400 145.800 C 112.180 145.664,112.000 144.933,112.000 144.176 C 112.000 143.419,111.820 142.800,111.600 142.800 C 111.340 142.800,111.200 137.133,111.200 126.600 C 111.200 116.067,111.340 110.400,111.600 110.400 C 111.820 110.400,112.000 109.680,112.000 108.800 C 112.000 107.920,112.180 107.200,112.400 107.200 C 112.620 107.200,112.800 106.570,112.800 105.800 C 112.800 105.030,112.980 104.400,113.200 104.400 C 113.420 104.400,113.600 104.040,113.600 103.600 C 113.600 103.160,113.780 102.800,114.000 102.800 C 114.220 102.800,114.400 102.300,114.400 101.688 C 114.400 101.035,114.730 100.339,115.200 100.000 C 115.640 99.683,116.000 99.189,116.000 98.903 C 116.000 98.291,120.193 94.000,120.791 94.000 C 121.016 94.000,121.200 93.820,121.200 93.600 C 121.200 93.380,121.470 93.200,121.800 93.200 C 122.130 93.200,122.400 93.020,122.400 92.800 C 122.400 92.580,122.760 92.400,123.200 92.400 C 123.640 92.400,124.000 92.254,124.000 92.076 C 124.000 91.897,125.125 91.436,126.500 91.050 C 127.875 90.663,129.313 90.179,129.695 89.974 C 130.077 89.768,131.247 89.597,132.295 89.594 C 133.343 89.591,134.470 89.413,134.800 89.199 C 135.478 88.759,258.749 88.924,262.400 89.370 M128.680 111.454 C 128.526 111.607,128.400 118.633,128.400 127.067 L 128.400 142.400 143.600 142.400 L 158.800 142.400 158.800 139.000 L 158.800 135.600 148.006 135.600 L 137.212 135.600 137.106 123.500 L 137.000 111.400 132.980 111.287 C 130.769 111.225,128.834 111.300,128.680 111.454 M166.800 126.800 L 166.800 142.400 171.000 142.400 L 175.200 142.400 175.200 136.600 L 175.200 130.800 177.415 130.800 L 179.631 130.800 183.200 134.400 C 185.163 136.380,186.961 138.000,187.195 138.000 C 187.429 138.000,188.416 138.765,189.387 139.700 C 190.359 140.635,191.426 141.625,191.760 141.900 C 192.926 142.861,202.800 142.581,202.800 141.587 C 202.800 140.410,200.141 137.870,199.174 138.123 C 198.749 138.234,198.283 138.134,198.139 137.901 C 197.984 137.651,198.067 137.594,198.338 137.762 C 199.237 138.317,198.782 137.555,197.374 136.147 C 196.408 135.181,195.698 134.786,195.174 134.923 C 194.749 135.034,194.283 134.934,194.139 134.701 C 193.984 134.451,194.067 134.394,194.338 134.562 C 195.308 135.161,194.736 134.275,193.200 132.800 C 191.121 130.803,191.123 130.800,194.400 130.800 C 196.000 130.800,197.200 130.629,197.200 130.400 C 197.200 130.180,197.560 130.000,198.000 130.000 C 198.533 130.000,198.800 129.733,198.800 129.200 C 198.800 128.760,198.980 128.400,199.200 128.400 C 199.452 128.400,199.600 125.727,199.600 121.182 C 199.600 112.917,199.262 112.000,196.218 112.000 C 195.438 112.000,194.800 111.820,194.800 111.600 C 194.800 111.341,189.867 111.200,180.800 111.200 L 166.800 111.200 166.800 126.800 M206.000 114.796 L 206.000 118.400 212.600 118.400 L 219.200 118.400 219.200 130.400 L 219.200 142.400 223.011 142.400 L 226.823 142.400 226.711 130.300 L 226.600 118.200 233.516 118.318 L 240.432 118.436 240.316 114.918 L 240.200 111.400 223.100 111.296 L 206.000 111.191 206.000 114.796 M263.600 111.600 C 263.600 111.826,262.467 112.000,261.000 112.000 C 259.533 112.000,258.400 112.174,258.400 112.400 C 258.400 112.622,257.333 112.800,256.000 112.800 L 253.600 112.800 253.600 115.600 L 253.600 118.400 256.600 118.400 L 259.600 118.400 259.600 130.400 L 259.600 142.400 263.600 142.400 L 267.600 142.400 267.600 126.800 L 267.600 111.200 265.600 111.200 C 264.500 111.200,263.600 111.380,263.600 111.600 M167.800 126.962 C 167.800 134.971,167.665 141.440,167.500 141.338 C 167.129 141.109,167.097 113.037,167.467 112.667 C 167.613 112.520,167.748 112.400,167.767 112.400 C 167.785 112.400,167.800 118.953,167.800 126.962 M129.298 132.062 C 129.354 137.266,129.265 141.441,129.100 141.339 C 128.935 141.236,128.839 134.728,128.887 126.876 C 128.935 119.024,129.024 114.850,129.085 117.600 C 129.147 120.350,129.242 126.858,129.298 132.062 M266.905 141.255 C 266.737 141.423,266.690 135.045,266.800 127.080 L 266.999 112.600 267.105 126.775 C 267.163 134.571,267.073 141.087,266.905 141.255 M257.600 113.355 C 257.600 113.440,257.070 113.587,256.421 113.682 C 255.773 113.777,255.333 113.708,255.445 113.528 C 255.643 113.207,257.600 113.050,257.600 113.355 M254.287 117.100 C 254.195 117.705,254.120 117.210,254.120 116.000 C 254.120 114.790,254.195 114.295,254.287 114.900 C 254.378 115.505,254.378 116.495,254.287 117.100 M187.322 117.898 C 185.079 117.969,181.299 117.970,178.922 117.899 C 176.545 117.828,178.380 117.770,183.000 117.769 C 187.620 117.769,189.565 117.827,187.322 117.898 M191.444 119.300 L 191.741 120.200 192.031 119.200 C 192.211 118.578,192.325 119.408,192.332 121.400 C 192.339 123.341,192.221 124.285,192.031 123.800 C 191.728 123.025,191.709 123.029,191.432 123.900 C 191.148 124.794,191.090 124.800,183.173 124.800 L 175.200 124.800 175.200 121.600 L 175.200 118.400 183.173 118.400 C 191.087 118.400,191.148 118.407,191.444 119.300 M260.498 133.862 C 260.554 138.077,260.465 141.441,260.300 141.339 C 260.135 141.236,260.038 135.988,260.084 129.676 C 260.169 118.166,260.307 119.563,260.498 133.862 M145.600 197.600 C 145.600 197.820,146.005 198.004,146.500 198.009 C 146.995 198.014,147.850 198.370,148.400 198.800 C 148.950 199.230,149.540 199.586,149.711 199.591 C 149.881 199.596,150.781 200.377,151.711 201.327 C 153.296 202.948,153.925 203.815,154.738 205.500 C 154.923 205.885,155.283 206.603,155.538 207.095 C 156.109 208.200,156.163 215.200,155.600 215.200 C 155.380 215.200,155.200 215.740,155.200 216.400 C 155.200 217.060,155.020 217.600,154.800 217.600 C 154.580 217.600,154.400 217.873,154.400 218.207 C 154.400 218.999,149.399 224.000,148.607 224.000 C 148.273 224.000,148.000 224.137,148.000 224.305 C 148.000 226.436,136.354 226.097,134.353 223.908 C 133.997 223.519,133.496 223.200,133.240 223.200 C 132.654 223.200,130.000 220.576,130.000 219.997 C 130.000 219.760,129.640 219.180,129.200 218.708 C 128.760 218.236,128.400 217.613,128.400 217.325 C 128.400 217.036,128.220 216.800,128.000 216.800 C 127.780 216.800,127.600 215.990,127.600 215.000 C 127.600 214.010,127.420 213.200,127.200 213.200 C 126.980 213.200,126.800 212.390,126.800 211.400 C 126.800 210.410,126.980 209.600,127.200 209.600 C 127.420 209.600,127.600 208.880,127.600 208.000 C 127.600 207.120,127.736 206.400,127.902 206.400 C 128.069 206.400,128.464 205.815,128.780 205.100 C 129.097 204.385,129.680 203.451,130.078 203.025 C 130.475 202.598,130.800 202.090,130.800 201.896 C 130.800 201.356,131.876 200.400,132.483 200.400 C 132.780 200.400,133.283 200.040,133.600 199.600 C 133.917 199.160,134.497 198.800,134.888 198.800 C 135.280 198.800,135.600 198.620,135.600 198.400 C 135.600 198.180,135.960 198.000,136.400 198.000 C 136.840 198.000,137.200 197.820,137.200 197.600 C 137.200 197.359,138.867 197.200,141.400 197.200 C 143.933 197.200,145.600 197.359,145.600 197.600 M258.400 197.502 C 258.400 197.669,258.985 198.064,259.700 198.380 C 260.415 198.697,261.349 199.280,261.775 199.678 C 262.202 200.075,262.710 200.400,262.904 200.400 C 263.361 200.400,264.400 201.439,264.400 201.896 C 264.400 202.090,264.715 202.598,265.100 203.025 C 266.258 204.309,267.600 207.201,267.600 208.414 C 267.600 209.040,267.780 209.664,268.000 209.800 C 268.220 209.936,268.400 210.757,268.400 211.624 C 268.400 212.491,268.220 213.200,268.000 213.200 C 267.780 213.200,267.600 214.010,267.600 215.000 C 267.600 215.990,267.441 216.800,267.247 216.800 C 267.052 216.800,266.793 217.115,266.671 217.500 C 266.123 219.230,262.931 223.200,262.089 223.200 C 261.903 223.200,261.402 223.516,260.975 223.902 C 258.540 226.106,247.200 226.438,247.200 224.305 C 247.200 224.137,246.880 224.000,246.488 224.000 C 246.097 224.000,245.517 223.640,245.200 223.200 C 244.883 222.760,244.303 222.400,243.912 222.400 C 243.520 222.400,243.200 222.106,243.200 221.747 C 243.200 221.388,242.868 220.803,242.462 220.447 C 241.784 219.853,241.304 218.941,240.056 215.881 C 239.165 213.696,239.478 207.872,240.600 205.762 C 241.150 204.727,241.600 203.723,241.600 203.530 C 241.600 202.353,247.389 198.000,248.954 198.000 C 249.310 198.000,249.600 197.820,249.600 197.600 C 249.600 197.358,251.333 197.200,254.000 197.200 C 256.420 197.200,258.400 197.336,258.400 197.502 M244.501 268.100 C 244.991 268.375,245.684 268.915,246.043 269.300 C 246.401 269.685,246.864 270.000,247.071 270.000 C 247.279 270.000,247.809 270.336,248.250 270.746 C 248.690 271.156,249.478 271.720,250.000 272.000 C 250.522 272.280,251.141 272.666,251.375 272.860 C 252.487 273.779,254.888 275.200,255.329 275.200 C 255.601 275.200,256.083 275.560,256.400 276.000 C 256.717 276.440,257.297 276.800,257.688 276.800 C 258.080 276.800,258.400 276.980,258.400 277.200 C 258.400 277.465,237.933 277.600,197.800 277.600 C 157.667 277.600,137.200 277.465,137.200 277.200 C 137.200 276.980,137.520 276.800,137.912 276.800 C 138.303 276.800,138.883 276.440,139.200 276.000 C 139.517 275.560,139.909 275.200,140.071 275.200 C 140.369 275.200,142.999 273.548,143.885 272.804 C 144.152 272.580,144.827 272.188,145.385 271.934 C 145.943 271.680,146.400 271.333,146.400 271.163 C 146.400 270.993,146.766 270.738,147.213 270.596 C 147.660 270.454,148.462 269.902,148.995 269.369 C 149.528 268.836,150.242 268.400,150.582 268.400 C 150.922 268.400,151.200 268.220,151.200 268.000 C 151.200 267.358,243.356 267.457,244.501 268.100 M278.038 291.086 C 278.677 291.464,279.200 291.914,279.200 292.086 C 279.200 292.259,279.520 292.400,279.912 292.400 C 280.303 292.400,280.883 292.760,281.200 293.200 C 281.517 293.640,282.009 294.000,282.292 294.000 C 282.575 294.000,283.372 294.540,284.063 295.200 C 284.754 295.860,285.522 296.400,285.771 296.400 C 286.020 296.400,286.483 296.760,286.800 297.200 C 287.117 297.640,287.657 298.000,288.000 298.000 C 288.343 298.000,288.883 298.360,289.200 298.800 C 289.517 299.240,290.097 299.600,290.488 299.600 C 290.880 299.600,291.200 299.780,291.200 300.000 C 291.200 300.266,259.800 300.400,197.800 300.400 C 135.800 300.400,104.400 300.266,104.400 300.000 C 104.400 299.780,104.636 299.600,104.925 299.600 C 105.213 299.600,105.836 299.240,106.308 298.800 C 106.780 298.360,107.314 298.000,107.495 298.000 C 107.676 298.000,108.083 297.640,108.400 297.200 C 108.717 296.760,109.225 296.400,109.528 296.400 C 109.831 296.400,110.583 295.860,111.200 295.200 C 111.817 294.540,112.569 294.000,112.872 294.000 C 113.175 294.000,113.683 293.640,114.000 293.200 C 114.317 292.760,114.897 292.400,115.288 292.400 C 115.680 292.400,116.000 292.253,116.000 292.073 C 116.000 291.892,116.585 291.454,117.300 291.098 C 119.366 290.070,276.298 290.059,278.038 291.086 " stroke="none" fill="#000000" fill-rule="evenodd"></path><path id="path1" d="M167.467 112.667 C 167.097 113.037,167.129 141.109,167.500 141.338 C 167.665 141.440,167.800 134.971,167.800 126.962 C 167.800 118.953,167.785 112.400,167.767 112.400 C 167.748 112.400,167.613 112.520,167.467 112.667 M128.887 126.876 C 128.839 134.728,128.935 141.236,129.100 141.339 C 129.373 141.508,129.366 130.211,129.085 117.600 C 129.024 114.850,128.935 119.024,128.887 126.876 M266.800 127.080 C 266.690 135.045,266.737 141.423,266.905 141.255 C 267.073 141.087,267.163 134.571,267.105 126.775 L 266.999 112.600 266.800 127.080 M255.445 113.528 C 255.333 113.708,255.773 113.777,256.421 113.682 C 257.070 113.587,257.600 113.440,257.600 113.355 C 257.600 113.050,255.643 113.207,255.445 113.528 M254.120 116.000 C 254.120 117.210,254.195 117.705,254.287 117.100 C 254.378 116.495,254.378 115.505,254.287 114.900 C 254.195 114.295,254.120 114.790,254.120 116.000 M178.922 117.899 C 181.299 117.970,185.079 117.969,187.322 117.898 C 189.565 117.827,187.620 117.769,183.000 117.769 C 178.380 117.770,176.545 117.828,178.922 117.899 M192.137 121.400 C 192.139 123.160,192.209 123.830,192.293 122.889 C 192.378 121.949,192.377 120.509,192.291 119.689 C 192.205 118.870,192.136 119.640,192.137 121.400 M260.084 129.676 C 260.038 135.988,260.135 141.236,260.300 141.339 C 260.465 141.441,260.554 138.077,260.498 133.862 C 260.307 119.563,260.169 118.166,260.084 129.676 " stroke="none" fill="#040404" fill-rule="evenodd"></path><path id="path2" d="M167.467 112.667 C 167.097 113.037,167.129 141.109,167.500 141.338 C 167.665 141.440,167.800 134.971,167.800 126.962 C 167.800 118.953,167.785 112.400,167.767 112.400 C 167.748 112.400,167.613 112.520,167.467 112.667 M128.887 126.876 C 128.839 134.728,128.935 141.236,129.100 141.339 C 129.373 141.508,129.366 130.211,129.085 117.600 C 129.024 114.850,128.935 119.024,128.887 126.876 M266.800 127.080 C 266.690 135.045,266.737 141.423,266.905 141.255 C 267.073 141.087,267.163 134.571,267.105 126.775 L 266.999 112.600 266.800 127.080 M255.445 113.528 C 255.333 113.708,255.773 113.777,256.421 113.682 C 257.070 113.587,257.600 113.440,257.600 113.355 C 257.600 113.050,255.643 113.207,255.445 113.528 M254.120 116.000 C 254.120 117.210,254.195 117.705,254.287 117.100 C 254.378 116.495,254.378 115.505,254.287 114.900 C 254.195 114.295,254.120 114.790,254.120 116.000 M178.922 117.899 C 181.299 117.970,185.079 117.969,187.322 117.898 C 189.565 117.827,187.620 117.769,183.000 117.769 C 178.380 117.770,176.545 117.828,178.922 117.899 M192.137 121.400 C 192.139 123.160,192.209 123.830,192.293 122.889 C 192.378 121.949,192.377 120.509,192.291 119.689 C 192.205 118.870,192.136 119.640,192.137 121.400 M260.084 129.676 C 260.038 135.988,260.135 141.236,260.300 141.339 C 260.465 141.441,260.554 138.077,260.498 133.862 C 260.307 119.563,260.169 118.166,260.084 129.676 " stroke="none" fill="#040404" fill-rule="evenodd"></path><path id="path3" d="M167.467 112.667 C 167.097 113.037,167.129 141.109,167.500 141.338 C 167.665 141.440,167.800 134.971,167.800 126.962 C 167.800 118.953,167.785 112.400,167.767 112.400 C 167.748 112.400,167.613 112.520,167.467 112.667 M128.887 126.876 C 128.839 134.728,128.935 141.236,129.100 141.339 C 129.373 141.508,129.366 130.211,129.085 117.600 C 129.024 114.850,128.935 119.024,128.887 126.876 M266.800 127.080 C 266.690 135.045,266.737 141.423,266.905 141.255 C 267.073 141.087,267.163 134.571,267.105 126.775 L 266.999 112.600 266.800 127.080 M255.445 113.528 C 255.333 113.708,255.773 113.777,256.421 113.682 C 257.070 113.587,257.600 113.440,257.600 113.355 C 257.600 113.050,255.643 113.207,255.445 113.528 M254.120 116.000 C 254.120 117.210,254.195 117.705,254.287 117.100 C 254.378 116.495,254.378 115.505,254.287 114.900 C 254.195 114.295,254.120 114.790,254.120 116.000 M178.922 117.899 C 181.299 117.970,185.079 117.969,187.322 117.898 C 189.565 117.827,187.620 117.769,183.000 117.769 C 178.380 117.770,176.545 117.828,178.922 117.899 M192.137 121.400 C 192.139 123.160,192.209 123.830,192.293 122.889 C 192.378 121.949,192.377 120.509,192.291 119.689 C 192.205 118.870,192.136 119.640,192.137 121.400 M260.084 129.676 C 260.038 135.988,260.135 141.236,260.300 141.339 C 260.465 141.441,260.554 138.077,260.498 133.862 C 260.307 119.563,260.169 118.166,260.084 129.676 " stroke="none" fill="#040404" fill-rule="evenodd"></path><path id="path4" d="M167.467 112.667 C 167.097 113.037,167.129 141.109,167.500 141.338 C 167.665 141.440,167.800 134.971,167.800 126.962 C 167.800 118.953,167.785 112.400,167.767 112.400 C 167.748 112.400,167.613 112.520,167.467 112.667 M128.887 126.876 C 128.839 134.728,128.935 141.236,129.100 141.339 C 129.373 141.508,129.366 130.211,129.085 117.600 C 129.024 114.850,128.935 119.024,128.887 126.876 M266.800 127.080 C 266.690 135.045,266.737 141.423,266.905 141.255 C 267.073 141.087,267.163 134.571,267.105 126.775 L 266.999 112.600 266.800 127.080 M255.445 113.528 C 255.333 113.708,255.773 113.777,256.421 113.682 C 257.070 113.587,257.600 113.440,257.600 113.355 C 257.600 113.050,255.643 113.207,255.445 113.528 M254.120 116.000 C 254.120 117.210,254.195 117.705,254.287 117.100 C 254.378 116.495,254.378 115.505,254.287 114.900 C 254.195 114.295,254.120 114.790,254.120 116.000 M178.922 117.899 C 181.299 117.970,185.079 117.969,187.322 117.898 C 189.565 117.827,187.620 117.769,183.000 117.769 C 178.380 117.770,176.545 117.828,178.922 117.899 M192.137 121.400 C 192.139 123.160,192.209 123.830,192.293 122.889 C 192.378 121.949,192.377 120.509,192.291 119.689 C 192.205 118.870,192.136 119.640,192.137 121.400 M260.084 129.676 C 260.038 135.988,260.135 141.236,260.300 141.339 C 260.465 141.441,260.554 138.077,260.498 133.862 C 260.307 119.563,260.169 118.166,260.084 129.676 " stroke="none" fill="#040404" fill-rule="evenodd"></path></g></svg>
