<?xml version="1.0" encoding="UTF-8" standalone="no"?>
<svg
   xmlns:dc="http://purl.org/dc/elements/1.1/"
   xmlns:cc="http://creativecommons.org/ns#"
   xmlns:rdf="http://www.w3.org/1999/02/22-rdf-syntax-ns#"
   xmlns:svg="http://www.w3.org/2000/svg"
   xmlns="http://www.w3.org/2000/svg"
   xmlns:sodipodi="http://sodipodi.sourceforge.net/DTD/sodipodi-0.dtd"
   xmlns:inkscape="http://www.inkscape.org/namespaces/inkscape"
   id="svg"
   version="1.1"
   width="25.000002"
   height="25.000002"
   style="display:block"
   sodipodi:docname="LRT2 Black.svg"
   inkscape:version="0.92.1 r15371">
  <metadata
     id="metadata13">
    <rdf:RDF>
      <cc:Work
         rdf:about="">
        <dc:format>image/svg+xml</dc:format>
        <dc:type
           rdf:resource="http://purl.org/dc/dcmitype/StillImage" />
      </cc:Work>
    </rdf:RDF>
  </metadata>
  <defs
     id="defs11" />
  <sodipodi:namedview
     pagecolor="#ffffff"
     bordercolor="#666666"
     borderopacity="1"
     objecttolerance="10"
     gridtolerance="10"
     guidetolerance="10"
     inkscape:pageopacity="0"
     inkscape:pageshadow="2"
     inkscape:window-width="640"
     inkscape:window-height="480"
     id="namedview9"
     showgrid="false"
     inkscape:zoom="0.59"
     inkscape:cx="142.4"
     inkscape:cy="114.40001"
     inkscape:window-x="0"
     inkscape:window-y="0"
     inkscape:window-maximized="0"
     inkscape:current-layer="svg" />
  <g
     id="svgg"
     transform="matrix(0.08915835,0,0,0.08915835,-5.135521,-3.0313839)">
    <path
       id="path0"
       d="m 145.6,34.4 c 0,0.22 -0.99,0.4 -2.2,0.4 -1.21,0 -2.2,0.18 -2.2,0.4 0,0.222 -1.067,0.4 -2.4,0.4 -1.333,0 -2.4,0.178 -2.4,0.4 0,0.22 -0.54,0.4 -1.2,0.4 -0.66,0 -1.2,0.18 -1.2,0.4 0,0.22 -0.72,0.4 -1.6,0.4 -0.88,0 -1.6,0.18 -1.6,0.4 0,0.22 -0.54,0.4 -1.2,0.4 -0.66,0 -1.2,0.18 -1.2,0.4 0,0.22 -0.45,0.4 -1,0.4 -0.55,0 -1,0.18 -1,0.4 0,0.22 -0.54,0.4 -1.2,0.4 -0.66,0 -1.2,0.18 -1.2,0.4 0,0.22 -0.36,0.4 -0.8,0.4 -0.44,0 -0.8,0.18 -0.8,0.4 0,0.22 -0.349,0.4 -0.776,0.4 -0.427,0 -0.874,0.158 -0.994,0.351 -0.119,0.193 -1.016,0.552 -1.993,0.798 -0.977,0.246 -2.047,0.718 -2.378,1.049 -0.331,0.331 -0.885,0.602 -1.23,0.602 -0.346,0 -0.629,0.18 -0.629,0.4 0,0.22 -0.32,0.4 -0.712,0.4 -0.391,0 -0.971,0.36 -1.288,0.8 -0.317,0.44 -0.897,0.8 -1.288,0.8 -0.392,0 -0.712,0.18 -0.712,0.4 0,0.22 -0.198,0.4 -0.44,0.4 -0.241,0 -0.943,0.54 -1.56,1.2 -0.617,0.66 -1.321,1.2 -1.564,1.2 -1.368,0 -13.636,13.611 -13.636,15.129 0,0.205 -0.27,0.597 -0.6,0.871 -0.33,0.274 -0.6,0.83 -0.6,1.237 0,0.406 -0.36,1.38 -0.8,2.163 -0.44,0.783 -0.8,1.689 -0.8,2.012 0,0.323 -0.18,0.588 -0.4,0.588 -0.22,0 -0.4,0.54 -0.4,1.2 0,0.66 -0.18,1.2 -0.4,1.2 -0.22,0 -0.4,0.54 -0.4,1.2 0,0.66 -0.18,1.2 -0.4,1.2 -0.222,0 -0.4,1.067 -0.4,2.4 0,1.333 -0.178,2.4 -0.4,2.4 -0.265,0 -0.4,23.533 -0.4,69.8 0,46.267 0.135,69.8 0.4,69.8 0.22,0 0.4,0.99 0.4,2.2 0,1.21 0.18,2.2 0.4,2.2 0.22,0 0.4,0.54 0.4,1.2 0,0.66 0.18,1.2 0.4,1.2 0.22,0 0.4,0.619 0.4,1.376 0,0.757 0.18,1.488 0.4,1.624 0.22,0.136 0.4,0.597 0.4,1.024 0,0.427 0.18,0.776 0.4,0.776 0.22,0 0.4,0.36 0.4,0.8 0,0.44 0.18,0.8 0.4,0.8 0.22,0 0.4,0.326 0.4,0.724 0,0.806 2.643,5.4 3.227,5.609 0.205,0.074 0.373,0.316 0.373,0.54 0,0.223 0.54,0.91 1.2,1.527 0.66,0.617 1.2,1.326 1.2,1.578 0,0.539 6.266,6.822 6.804,6.822 0.203,0 0.999,0.63 1.769,1.4 0.77,0.77 1.558,1.4 1.752,1.4 0.193,0 0.677,0.36 1.075,0.8 0.398,0.44 0.867,0.8 1.042,0.8 0.175,0 1.099,0.527 2.053,1.171 0.954,0.644 2.225,1.294 2.824,1.444 0.599,0.151 1.187,0.434 1.308,0.629 0.121,0.196 0.487,0.356 0.813,0.356 0.327,0 0.98,0.36 1.452,0.8 0.472,0.44 1.095,0.8 1.383,0.8 0.289,0 0.525,0.103 0.525,0.229 0,0.437 -1.146,1.371 -1.683,1.371 -0.297,0 -0.8,0.36 -1.117,0.8 -0.317,0.44 -0.857,0.8 -1.2,0.8 -0.343,0 -0.883,0.36 -1.2,0.8 -0.317,0.44 -0.831,0.8 -1.141,0.8 -0.311,0 -0.856,0.316 -1.212,0.703 -0.356,0.386 -1.142,0.957 -1.747,1.267 -0.605,0.311 -1.1,0.715 -1.1,0.898 0,0.182 -0.23,0.332 -0.512,0.332 -0.281,0 -0.771,0.36 -1.088,0.8 -0.317,0.44 -0.825,0.8 -1.128,0.8 -0.303,0 -1.055,0.54 -1.672,1.2 -0.617,0.66 -1.369,1.2 -1.672,1.2 -0.303,0 -0.811,0.36 -1.128,0.8 -0.317,0.44 -0.814,0.8 -1.105,0.8 -0.291,0 -0.746,0.188 -1.012,0.417 -0.266,0.23 -1.473,1.037 -2.683,1.795 -2.495,1.563 -3.677,2.396 -5.232,3.688 -0.596,0.495 -1.243,0.9 -1.437,0.9 -0.195,0 -0.614,0.36 -0.931,0.8 -0.317,0.44 -0.857,0.8 -1.2,0.8 -0.343,0 -0.883,0.36 -1.2,0.8 -0.317,0.44 -0.825,0.8 -1.128,0.8 -0.303,0 -1.055,0.54 -1.672,1.2 -0.617,0.66 -1.369,1.2 -1.672,1.2 -0.303,0 -0.811,0.36 -1.128,0.8 -0.317,0.44 -0.857,0.8 -1.2,0.8 -0.343,0 -0.883,0.36 -1.2,0.8 -0.317,0.44 -0.857,0.8 -1.2,0.8 -0.343,0 -0.883,0.36 -1.2,0.8 -0.317,0.44 -0.709,0.8 -0.871,0.8 -0.283,0 -2.885,1.621 -3.754,2.34 -0.234,0.194 -0.853,0.58 -1.375,0.86 -0.522,0.28 -1.31,0.844 -1.75,1.254 -0.441,0.41 -0.997,0.746 -1.237,0.746 -0.24,0 -0.696,0.36 -1.013,0.8 -0.317,0.44 -0.857,0.8 -1.2,0.8 -0.343,0 -0.883,0.36 -1.2,0.8 -0.317,0.44 -0.831,0.8 -1.141,0.8 -0.311,0 -0.856,0.316 -1.212,0.703 -0.356,0.386 -1.142,0.957 -1.747,1.267 -0.605,0.311 -1.1,0.715 -1.1,0.898 0,0.182 -0.188,0.332 -0.418,0.332 -1.727,0 -2.382,1.866 -2.382,6.782 V 314.4 H 197.8 338 v -4.818 c 0,-5.006 -0.653,-6.782 -2.494,-6.782 -0.291,0 -0.789,-0.36 -1.106,-0.8 -0.317,-0.44 -0.857,-0.8 -1.2,-0.8 -0.343,0 -0.883,-0.36 -1.2,-0.8 -0.317,-0.44 -0.857,-0.8 -1.2,-0.8 -0.343,0 -0.883,-0.36 -1.2,-0.8 -0.317,-0.44 -0.857,-0.8 -1.2,-0.8 -0.343,0 -0.883,-0.36 -1.2,-0.8 -0.317,-0.44 -0.773,-0.8 -1.013,-0.8 -0.24,0 -0.789,-0.329 -1.22,-0.731 -0.432,-0.402 -1.771,-1.391 -2.976,-2.198 -1.205,-0.808 -2.408,-1.649 -2.674,-1.87 -0.266,-0.22 -0.721,-0.401 -1.012,-0.401 -0.291,0 -0.788,-0.36 -1.105,-0.8 -0.317,-0.44 -0.857,-0.8 -1.2,-0.8 -0.343,0 -0.883,-0.36 -1.2,-0.8 -0.317,-0.44 -0.857,-0.8 -1.2,-0.8 -0.343,0 -0.883,-0.36 -1.2,-0.8 -0.317,-0.44 -0.825,-0.8 -1.128,-0.8 -0.303,0 -1.055,-0.54 -1.672,-1.2 -0.617,-0.66 -1.291,-1.2 -1.498,-1.2 -0.208,0 -0.704,-0.36 -1.102,-0.8 -0.398,-0.44 -0.926,-0.8 -1.174,-0.8 -0.247,0 -0.709,-0.36 -1.026,-0.8 -0.317,-0.44 -0.857,-0.8 -1.2,-0.8 -0.343,0 -0.883,-0.36 -1.2,-0.8 -0.317,-0.44 -0.762,-0.8 -0.988,-0.8 -0.227,-10e-4 -0.929,-0.446 -1.561,-0.989 -0.632,-0.544 -1.487,-1.095 -1.9,-1.227 -0.413,-0.131 -0.751,-0.378 -0.751,-0.55 0,-0.172 -0.72,-0.637 -1.6,-1.034 -0.88,-0.397 -1.6,-0.874 -1.6,-1.061 0,-0.186 -0.32,-0.339 -0.712,-0.339 -0.391,0 -0.971,-0.36 -1.288,-0.8 -0.317,-0.44 -0.767,-0.8 -1,-0.8 -0.233,0 -0.683,-0.36 -1,-0.8 -0.317,-0.44 -0.807,-0.8 -1.088,-0.8 -0.282,0 -0.512,-0.18 -0.512,-0.4 0,-0.22 -0.23,-0.4 -0.512,-0.4 -0.281,0 -0.771,-0.36 -1.088,-0.8 -0.317,-0.44 -0.857,-0.8 -1.2,-0.8 -0.343,0 -0.883,-0.36 -1.2,-0.8 -0.317,-0.44 -0.857,-0.8 -1.2,-0.8 -0.343,0 -0.883,-0.36 -1.2,-0.8 -0.317,-0.44 -0.857,-0.8 -1.2,-0.8 -0.343,0 -0.883,-0.36 -1.2,-0.8 -0.317,-0.44 -0.857,-0.8 -1.2,-0.8 -0.343,0 -0.883,-0.36 -1.2,-0.8 -0.317,-0.44 -0.82,-0.8 -1.117,-0.8 -0.537,0 -1.683,-0.934 -1.683,-1.371 0,-0.126 0.236,-0.229 0.525,-0.229 0.288,0 0.911,-0.36 1.383,-0.8 0.472,-0.44 1.049,-0.8 1.281,-0.8 0.232,0 0.734,-0.169 1.116,-0.374 0.382,-0.206 1.73,-0.858 2.995,-1.447 1.265,-0.59 2.3,-1.232 2.3,-1.426 0,-0.194 0.236,-0.353 0.525,-0.353 0.288,0 0.911,-0.36 1.383,-0.8 0.472,-0.44 1.003,-0.8 1.179,-0.8 0.791,0 10.113,-8.87 10.113,-9.622 0,-0.252 0.54,-0.961 1.2,-1.578 0.66,-0.617 1.2,-1.253 1.2,-1.414 0,-0.16 0.315,-0.584 0.7,-0.94 0.796,-0.737 2.041,-2.704 2.371,-3.746 0.122,-0.385 0.381,-0.7 0.576,-0.7 0.194,0 0.353,-0.36 0.353,-0.8 0,-0.44 0.18,-0.8 0.4,-0.8 0.22,0 0.4,-0.272 0.4,-0.605 0,-0.333 0.18,-0.963 0.4,-1.4 0.22,-0.437 0.58,-1.153 0.8,-1.59 0.22,-0.437 0.4,-1.247 0.4,-1.8 0,-0.553 0.16,-1.005 0.356,-1.005 0.375,0 0.544,-0.756 1.238,-5.524 0.291,-2.003 0.391,-25.146 0.316,-73.4 L 307.8,78.2 306.476,74.4 c -1.658,-4.756 -2.191,-6 -2.574,-6 -0.166,0 -0.302,-0.416 -0.302,-0.925 0,-0.508 -0.36,-1.311 -0.8,-1.783 -0.44,-0.472 -0.8,-1.136 -0.8,-1.475 0,-0.339 -0.15,-0.617 -0.332,-0.617 -0.183,0 -0.588,-0.492 -0.9,-1.094 C 299.874,60.783 289.374,49.6 288.651,49.6 c -0.142,0 -0.823,-0.54 -1.514,-1.2 -0.691,-0.66 -1.499,-1.2 -1.796,-1.2 -0.298,0 -0.541,-0.18 -0.541,-0.4 0,-0.22 -0.32,-0.4 -0.712,-0.4 -0.391,0 -0.971,-0.36 -1.288,-0.8 -0.317,-0.44 -0.897,-0.8 -1.288,-0.8 -0.392,0 -0.712,-0.18 -0.712,-0.4 0,-0.22 -0.345,-0.4 -0.767,-0.4 -0.421,0 -0.828,-0.186 -0.904,-0.414 -0.076,-0.228 -0.946,-0.687 -1.934,-1.022 -2.665,-0.902 -3.995,-1.522 -3.995,-1.862 0,-0.166 -0.349,-0.302 -0.776,-0.302 -0.427,0 -0.888,-0.18 -1.024,-0.4 -0.136,-0.22 -0.687,-0.4 -1.224,-0.4 -0.537,0 -0.976,-0.18 -0.976,-0.4 0,-0.22 -0.54,-0.4 -1.2,-0.4 -0.66,0 -1.2,-0.18 -1.2,-0.4 0,-0.22 -0.54,-0.4 -1.2,-0.4 -0.66,0 -1.2,-0.18 -1.2,-0.4 0,-0.22 -0.72,-0.4 -1.6,-0.4 -0.88,0 -1.6,-0.18 -1.6,-0.4 0,-0.22 -0.54,-0.4 -1.2,-0.4 -0.66,0 -1.2,-0.18 -1.2,-0.4 0,-0.22 -0.979,-0.4 -2.176,-0.4 -1.197,0 -2.288,-0.18 -2.424,-0.4 -0.136,-0.22 -1.227,-0.4 -2.424,-0.4 -1.197,0 -2.176,-0.18 -2.176,-0.4 0,-0.265 -17.6,-0.4 -52,-0.4 -34.4,0 -52,0.135 -52,0.4 m 85.2,18.8 c 0,0.22 0.278,0.4 0.618,0.4 0.797,0 2.231,1.469 2.929,3 0.3,0.66 0.705,1.513 0.9,1.895 0.48,0.944 0.448,3.105 -0.047,3.105 -0.22,0 -0.4,0.45 -0.4,1 0,0.55 -0.18,1 -0.4,1 -0.22,0 -0.4,0.278 -0.4,0.618 0,0.8 -1.782,2.582 -2.582,2.582 -0.34,0 -0.618,0.18 -0.618,0.4 0,0.22 -0.439,0.4 -0.976,0.4 -0.537,0 -1.088,0.18 -1.224,0.4 -0.161,0.261 -10.937,0.4 -31.024,0.4 -20.251,0 -30.776,-0.137 -30.776,-0.4 0,-0.22 -0.54,-0.4 -1.2,-0.4 -0.66,0 -1.2,-0.18 -1.2,-0.4 0,-0.22 -0.278,-0.4 -0.618,-0.4 -0.8,0 -2.582,-1.782 -2.582,-2.582 0,-0.34 -0.18,-0.618 -0.4,-0.618 -0.22,0 -0.4,-0.45 -0.4,-1 0,-0.55 -0.18,-1 -0.4,-1 -0.22,0 -0.4,-0.63 -0.4,-1.4 0,-0.77 0.18,-1.4 0.4,-1.4 0.22,0 0.4,-0.45 0.4,-1 0,-0.55 0.136,-1 0.302,-1 0.167,0 0.528,-0.509 0.803,-1.131 1.294,-2.923 -0.357,-2.794 36.395,-2.834 21.69,-0.023 32.9,0.101 32.9,0.365 m 31.6,36.17 c 1.21,0.148 2.56,0.42 3,0.606 1.294,0.545 5.045,1.624 5.646,1.624 0.305,0 0.554,0.18 0.554,0.4 0,0.22 0.268,0.4 0.595,0.4 1.046,0 7.005,5.529 7.005,6.499 0,0.289 0.36,0.784 0.8,1.101 0.44,0.317 0.8,0.976 0.8,1.465 0,0.488 0.18,0.999 0.4,1.135 0.22,0.136 0.4,0.597 0.4,1.024 0,0.427 0.18,0.776 0.4,0.776 0.22,0 0.4,0.63 0.4,1.4 0,0.77 0.162,1.4 0.36,1.4 0.711,0 0.936,4.05 1.096,19.7 0.109,10.67 0.027,15.9 -0.247,15.9 -0.225,0 -0.409,0.72 -0.409,1.6 0,0.88 -0.18,1.6 -0.4,1.6 -0.22,0 -0.4,0.506 -0.4,1.125 0,0.619 -0.36,1.87 -0.8,2.781 -0.44,0.91 -0.8,1.934 -0.8,2.275 0,0.34 -0.168,0.619 -0.373,0.619 -0.205,0 -0.492,0.373 -0.636,0.83 -0.75,2.36 -8.466,8.37 -10.747,8.37 -0.354,0 -0.644,0.18 -0.644,0.4 0,0.22 -0.619,0.4 -1.376,0.4 -0.757,0 -1.488,0.18 -1.624,0.4 -0.136,0.22 -0.741,0.4 -1.344,0.4 -0.603,0 -1.277,0.181 -1.498,0.402 -0.479,0.479 -128.707,0.301 -131.062,-0.182 -0.827,-0.17 -1.602,-0.469 -1.723,-0.664 -0.121,-0.196 -0.84,-0.356 -1.597,-0.356 -0.757,0 -1.376,-0.18 -1.376,-0.4 0,-0.22 -0.225,-0.397 -0.5,-0.394 -2.104,0.024 -9.293,-5.439 -10.668,-8.106 -0.312,-0.605 -0.717,-1.1 -0.9,-1.1 -0.182,0 -0.332,-0.439 -0.332,-0.976 0,-0.537 -0.18,-1.088 -0.4,-1.224 -0.22,-0.136 -0.4,-0.597 -0.4,-1.024 0,-0.427 -0.18,-0.776 -0.4,-0.776 -0.22,0 -0.4,-0.619 -0.4,-1.376 0,-0.757 -0.18,-1.488 -0.4,-1.624 -0.22,-0.136 -0.4,-0.867 -0.4,-1.624 0,-0.757 -0.18,-1.376 -0.4,-1.376 -0.26,0 -0.4,-5.667 -0.4,-16.2 0,-10.533 0.14,-16.2 0.4,-16.2 0.22,0 0.4,-0.72 0.4,-1.6 0,-0.88 0.18,-1.6 0.4,-1.6 0.22,0 0.4,-0.63 0.4,-1.4 0,-0.77 0.18,-1.4 0.4,-1.4 0.22,0 0.4,-0.36 0.4,-0.8 0,-0.44 0.18,-0.8 0.4,-0.8 0.22,0 0.4,-0.5 0.4,-1.112 0,-0.653 0.33,-1.349 0.8,-1.688 0.44,-0.317 0.8,-0.811 0.8,-1.097 0,-0.612 4.193,-4.903 4.791,-4.903 0.225,0 0.409,-0.18 0.409,-0.4 0,-0.22 0.27,-0.4 0.6,-0.4 0.33,0 0.6,-0.18 0.6,-0.4 0,-0.22 0.36,-0.4 0.8,-0.4 0.44,0 0.8,-0.146 0.8,-0.324 0,-0.179 1.125,-0.64 2.5,-1.026 1.375,-0.387 2.813,-0.871 3.195,-1.076 0.382,-0.206 1.552,-0.377 2.6,-0.38 1.048,-0.003 2.175,-0.181 2.505,-0.395 0.678,-0.44 123.949,-0.275 127.6,0.171 M 124,126.786 V 142.4 h 15.2 15.2 v -3.4 -3.4 h -10.994 -10.994 l -0.106,-12.1 -0.106,-12.1 -4.1,-0.114 -4.1,-0.114 v 15.614 m 38.267,-15.319 c -0.147,0.146 -0.267,7.166 -0.267,15.6 V 142.4 h 4.4 4.4 v -5.8 -5.8 h 2.018 c 2.003,0 2.043,0.025 5.669,3.6 2.009,1.98 3.805,3.6 3.993,3.6 0.188,0 1.136,0.765 2.107,1.7 0.972,0.935 2.039,1.925 2.373,2.2 1.166,0.961 11.04,0.681 11.04,-0.313 0,-1.177 -2.659,-3.717 -3.626,-3.464 -0.425,0.111 -0.891,0.011 -1.035,-0.222 -0.155,-0.25 -0.072,-0.307 0.199,-0.139 0.254,0.157 0.462,0.179 0.462,0.048 0,-0.293 -2.694,-3.01 -2.985,-3.01 -0.116,0 -1.13,-0.9 -2.254,-2 l -2.042,-2 h 2.84 c 1.627,0 2.841,-0.171 2.841,-0.4 0,-0.22 0.36,-0.4 0.8,-0.4 0.533,0 0.8,-0.267 0.8,-0.8 0,-0.44 0.18,-0.8 0.4,-0.8 0.252,0 0.4,-2.673 0.4,-7.218 0,-8.107 -0.37,-9.182 -3.158,-9.182 -0.657,0 -1.306,-0.18 -1.442,-0.4 -0.278,-0.449 -27.488,-0.579 -27.933,-0.133 M 201.2,114.8 v 3.6 h 6.6 6.6 v 12 12 h 4 4 v -12 -12 h 6.6 6.6 v -3.6 -3.6 h -17.2 -17.2 v 3.6 m 46,-3.2 c 0,0.22 -0.458,0.4 -1.018,0.4 -2.351,0 -3.021,1.501 -2.895,6.495 l 0.113,4.505 1.4,0.129 c 0.77,0.07 1.571,0.295 1.78,0.5 0.209,0.204 1.154,0.371 2.1,0.371 h 1.72 v -2.8 -2.8 h 7.4 7.4 l 0.06,1.3 c 0.052,1.116 0.1,1.046 0.34,-0.5 l 0.28,-1.8 0.06,1.638 c 0.046,1.248 -0.153,1.819 -0.833,2.4 -0.727,0.62 -0.792,0.632 -0.351,0.062 0.473,-0.611 0.446,-0.7 -0.219,-0.7 -0.418,0 -1.02,0.36 -1.337,0.8 -0.317,0.44 -0.857,0.8 -1.2,0.8 -0.343,0 -0.883,0.36 -1.2,0.8 -0.317,0.44 -0.897,0.8 -1.288,0.8 -0.392,0 -0.712,0.18 -0.712,0.4 0,0.22 -0.257,0.4 -0.571,0.4 -0.315,0 -0.81,0.226 -1.1,0.502 -0.291,0.277 -1.384,0.935 -2.429,1.463 -1.045,0.529 -1.9,1.112 -1.9,1.298 0,0.185 -0.32,0.337 -0.712,0.337 -0.391,0 -0.971,0.36 -1.288,0.8 -0.317,0.44 -0.897,0.8 -1.288,0.8 -0.392,0 -0.712,0.18 -0.712,0.4 0,0.22 -0.236,0.4 -0.525,0.4 -0.288,0 -0.911,0.36 -1.383,0.8 -0.472,0.44 -1.096,0.8 -1.387,0.8 -0.291,0 -0.788,0.36 -1.105,0.8 -0.317,0.44 -0.774,0.8 -1.014,0.8 -1.23,0 -2.353,5.656 -1.543,7.767 0.29,0.757 26.373,0.985 26.624,0.234 0.073,-0.22 0.721,-0.568 1.441,-0.775 0.811,-0.232 1.22,-0.232 1.076,0 -0.49,0.792 1.321,0.327 2.146,-0.552 1.255,-1.335 1.333,-8.274 0.094,-8.274 -0.427,0 -0.888,-0.18 -1.024,-0.4 -0.136,-0.22 -0.867,-0.4 -1.624,-0.4 -0.757,0 -1.376,-0.18 -1.376,-0.4 0,-0.22 -0.375,-0.4 -0.834,-0.4 -0.771,0 -0.824,0.19 -0.7,2.5 l 0.134,2.5 -6.3,-0.119 c -3.465,-0.066 -6.3,-0.213 -6.3,-0.329 0,-0.368 0.963,-1.134 2.2,-1.749 0.66,-0.329 1.491,-0.914 1.847,-1.3 0.356,-0.387 0.941,-0.703 1.3,-0.703 0.359,0 0.653,-0.18 0.653,-0.4 0,-0.22 0.32,-0.4 0.712,-0.4 0.391,0 0.971,-0.36 1.288,-0.8 0.317,-0.44 0.897,-0.8 1.288,-0.8 0.392,0 0.712,-0.18 0.712,-0.4 0,-0.22 0.32,-0.4 0.712,-0.4 0.391,0 0.971,-0.36 1.288,-0.8 0.317,-0.44 0.82,-0.8 1.117,-0.8 0.551,0 1.683,-0.938 1.683,-1.395 0,-0.139 -0.208,-0.124 -0.462,0.033 -0.271,0.168 -0.354,0.111 -0.199,-0.139 0.144,-0.233 0.615,-0.331 1.047,-0.219 0.948,0.248 2.014,-0.72 2.014,-1.828 0,-0.443 0.18,-0.916 0.4,-1.052 0.22,-0.136 0.4,-1.587 0.4,-3.224 0,-1.717 -0.169,-2.976 -0.4,-2.976 -0.22,0 -0.4,-0.458 -0.4,-1.018 0,-1.311 -1.671,-2.982 -2.982,-2.982 -0.56,0 -1.018,-0.18 -1.018,-0.4 0,-0.257 -3.8,-0.4 -10.6,-0.4 -6.8,0 -10.6,0.143 -10.6,0.4 M 163,126.962 c 0,8.009 -0.135,14.478 -0.3,14.376 -0.371,-0.229 -0.403,-28.301 -0.033,-28.671 0.146,-0.147 0.281,-0.267 0.3,-0.267 0.018,0 0.033,6.553 0.033,14.562 m 19.522,-9.064 c -2.243,0.071 -6.023,0.072 -8.4,0.001 -2.377,-0.071 -0.542,-0.129 4.078,-0.13 4.62,0 6.565,0.058 4.322,0.129 m 67.311,5.16 c -0.229,0.598 -1.663,0.741 -1.997,0.2 -0.117,-0.188 0.233,-0.257 0.776,-0.154 0.973,0.186 0.989,0.145 1.065,-2.757 l 0.077,-2.947 0.144,2.558 c 0.079,1.407 0.05,2.802 -0.065,3.1 m -63.204,-4.087 c 0.347,0.348 0.571,1.379 0.571,2.629 0,3.206 0.016,3.2 -8.771,3.2 H 170.8 v -3.2 -3.2 h 7.629 c 6.078,0 7.744,0.116 8.2,0.571 m 35.077,22.283 c -0.168,0.169 -0.216,-4.949 -0.106,-11.374 l 0.199,-11.68 0.107,11.374 c 0.059,6.255 -0.031,11.511 -0.2,11.68 m -33.819,-18.959 c -0.092,0.608 -0.17,0.205 -0.173,-0.895 -0.003,-1.1 0.073,-1.597 0.168,-1.105 0.095,0.491 0.097,1.391 0.005,2 M 145.6,197.6 c 0,0.22 0.405,0.404 0.9,0.409 0.495,0.005 1.35,0.361 1.9,0.791 0.55,0.43 1.14,0.786 1.311,0.791 0.17,0.005 1.07,0.786 2,1.736 1.585,1.621 2.214,2.488 3.027,4.173 0.185,0.385 0.545,1.103 0.8,1.595 0.571,1.105 0.625,8.105 0.062,8.105 -0.22,0 -0.4,0.54 -0.4,1.2 0,0.66 -0.18,1.2 -0.4,1.2 -0.22,0 -0.4,0.273 -0.4,0.607 0,0.792 -5.001,5.793 -5.793,5.793 -0.334,0 -0.607,0.137 -0.607,0.305 0,2.131 -11.646,1.792 -13.647,-0.397 -0.356,-0.389 -0.857,-0.708 -1.113,-0.708 -0.586,0 -3.24,-2.624 -3.24,-3.203 0,-0.237 -0.36,-0.817 -0.8,-1.289 -0.44,-0.472 -0.8,-1.095 -0.8,-1.383 0,-0.289 -0.18,-0.525 -0.4,-0.525 -0.22,0 -0.4,-0.81 -0.4,-1.8 0,-0.99 -0.18,-1.8 -0.4,-1.8 -0.22,0 -0.4,-0.81 -0.4,-1.8 0,-0.99 0.18,-1.8 0.4,-1.8 0.22,0 0.4,-0.72 0.4,-1.6 0,-0.88 0.136,-1.6 0.302,-1.6 0.167,0 0.562,-0.585 0.878,-1.3 0.317,-0.715 0.9,-1.649 1.298,-2.075 0.397,-0.427 0.722,-0.935 0.722,-1.129 0,-0.54 1.076,-1.496 1.683,-1.496 0.297,0 0.8,-0.36 1.117,-0.8 0.317,-0.44 0.897,-0.8 1.288,-0.8 0.392,0 0.712,-0.18 0.712,-0.4 0,-0.22 0.36,-0.4 0.8,-0.4 0.44,0 0.8,-0.18 0.8,-0.4 0,-0.241 1.667,-0.4 4.2,-0.4 2.533,0 4.2,0.159 4.2,0.4 m 112.8,-0.098 c 0,0.167 0.585,0.562 1.3,0.878 0.715,0.317 1.649,0.9 2.075,1.298 0.427,0.397 0.935,0.722 1.129,0.722 0.457,0 1.496,1.039 1.496,1.496 0,0.194 0.315,0.702 0.7,1.129 1.158,1.284 2.5,4.176 2.5,5.389 0,0.626 0.18,1.25 0.4,1.386 0.22,0.136 0.4,0.957 0.4,1.824 0,0.867 -0.18,1.576 -0.4,1.576 -0.22,0 -0.4,0.81 -0.4,1.8 0,0.99 -0.159,1.8 -0.353,1.8 -0.195,0 -0.454,0.315 -0.576,0.7 -0.548,1.73 -3.74,5.7 -4.582,5.7 -0.186,0 -0.687,0.316 -1.114,0.702 -2.435,2.204 -13.775,2.536 -13.775,0.403 0,-0.168 -0.32,-0.305 -0.712,-0.305 -0.391,0 -0.971,-0.36 -1.288,-0.8 -0.317,-0.44 -0.897,-0.8 -1.288,-0.8 -0.392,0 -0.712,-0.294 -0.712,-0.653 0,-0.359 -0.332,-0.944 -0.738,-1.3 -0.678,-0.594 -1.158,-1.506 -2.406,-4.566 -0.891,-2.185 -0.578,-8.009 0.544,-10.119 0.55,-1.035 1,-2.039 1,-2.232 0,-1.177 5.789,-5.53 7.354,-5.53 0.356,0 0.646,-0.18 0.646,-0.4 0,-0.242 1.733,-0.4 4.4,-0.4 2.42,0 4.4,0.136 4.4,0.302 M 244.501,268.1 c 0.49,0.275 1.183,0.815 1.542,1.2 0.358,0.385 0.821,0.7 1.028,0.7 0.208,0 0.738,0.336 1.179,0.746 0.44,0.41 1.228,0.974 1.75,1.254 0.522,0.28 1.141,0.666 1.375,0.86 1.112,0.919 3.513,2.34 3.954,2.34 0.272,0 0.754,0.36 1.071,0.8 0.317,0.44 0.897,0.8 1.288,0.8 0.392,0 0.712,0.18 0.712,0.4 0,0.265 -20.467,0.4 -60.6,0.4 -40.133,0 -60.6,-0.135 -60.6,-0.4 0,-0.22 0.32,-0.4 0.712,-0.4 0.391,0 0.971,-0.36 1.288,-0.8 0.317,-0.44 0.709,-0.8 0.871,-0.8 0.298,0 2.928,-1.652 3.814,-2.396 0.267,-0.224 0.942,-0.616 1.5,-0.87 0.558,-0.254 1.015,-0.601 1.015,-0.771 0,-0.17 0.366,-0.425 0.813,-0.567 0.447,-0.142 1.249,-0.694 1.782,-1.227 0.533,-0.533 1.247,-0.969 1.587,-0.969 0.34,0 0.618,-0.18 0.618,-0.4 0,-0.642 92.156,-0.543 93.301,0.1 m 33.537,22.986 c 0.639,0.378 1.162,0.828 1.162,1 0,0.173 0.32,0.314 0.712,0.314 0.391,0 0.971,0.36 1.288,0.8 0.317,0.44 0.809,0.8 1.092,0.8 0.283,0 1.08,0.54 1.771,1.2 0.691,0.66 1.459,1.2 1.708,1.2 0.249,0 0.712,0.36 1.029,0.8 0.317,0.44 0.857,0.8 1.2,0.8 0.343,0 0.883,0.36 1.2,0.8 0.317,0.44 0.897,0.8 1.288,0.8 0.392,0 0.712,0.18 0.712,0.4 0,0.266 -31.4,0.4 -93.4,0.4 -62,0 -93.4,-0.134 -93.4,-0.4 0,-0.22 0.236,-0.4 0.525,-0.4 0.288,0 0.911,-0.36 1.383,-0.8 0.472,-0.44 1.006,-0.8 1.187,-0.8 0.181,0 0.588,-0.36 0.905,-0.8 0.317,-0.44 0.825,-0.8 1.128,-0.8 0.303,0 1.055,-0.54 1.672,-1.2 0.617,-0.66 1.369,-1.2 1.672,-1.2 0.303,0 0.811,-0.36 1.128,-0.8 0.317,-0.44 0.897,-0.8 1.288,-0.8 0.392,0 0.712,-0.147 0.712,-0.327 0,-0.181 0.585,-0.619 1.3,-0.975 2.066,-1.028 158.998,-1.039 160.738,-0.012"
       inkscape:connector-curvature="0"
       style="fill:#000000;fill-rule:evenodd;stroke:none" />
    <path
       id="path1"
       d="m 162.667,112.667 c -0.37,0.37 -0.338,28.442 0.033,28.671 0.165,0.102 0.3,-6.367 0.3,-14.376 0,-8.009 -0.015,-14.562 -0.033,-14.562 -0.019,0 -0.154,0.12 -0.3,0.267 m 11.455,5.232 c 2.377,0.071 6.157,0.07 8.4,-0.001 2.243,-0.071 0.298,-0.129 -4.322,-0.129 -4.62,10e-4 -6.455,0.059 -4.078,0.13 m 75.555,2.448 c -0.076,2.902 -0.092,2.943 -1.065,2.757 -0.543,-0.103 -0.893,-0.034 -0.776,0.154 1.103,1.785 2.245,-0.041 2.062,-3.3 l -0.144,-2.558 -0.077,2.947 m 15.99,-1.378 c -0.037,0.862 -0.375,1.942 -0.752,2.4 -0.681,0.825 -0.679,0.825 0.228,-0.008 0.725,-0.666 0.88,-1.16 0.752,-2.4 l -0.161,-1.561 -0.067,1.569 M 221.6,129.88 c -0.11,6.425 -0.062,11.543 0.106,11.374 0.169,-0.169 0.259,-5.425 0.2,-11.68 L 221.799,118.2 221.6,129.88 m -33.886,-8.48 c 0.003,1.1 0.081,1.503 0.173,0.895 0.092,-0.609 0.09,-1.509 -0.005,-2 -0.095,-0.492 -0.171,0.005 -0.168,1.105"
       inkscape:connector-curvature="0"
       style="fill:#040404;fill-rule:evenodd;stroke:none" />
    <path
       id="path2"
       d="m 162.667,112.667 c -0.37,0.37 -0.338,28.442 0.033,28.671 0.165,0.102 0.3,-6.367 0.3,-14.376 0,-8.009 -0.015,-14.562 -0.033,-14.562 -0.019,0 -0.154,0.12 -0.3,0.267 m 11.455,5.232 c 2.377,0.071 6.157,0.07 8.4,-0.001 2.243,-0.071 0.298,-0.129 -4.322,-0.129 -4.62,10e-4 -6.455,0.059 -4.078,0.13 m 75.555,2.448 c -0.076,2.902 -0.092,2.943 -1.065,2.757 -0.543,-0.103 -0.893,-0.034 -0.776,0.154 1.103,1.785 2.245,-0.041 2.062,-3.3 l -0.144,-2.558 -0.077,2.947 m 15.99,-1.378 c -0.037,0.862 -0.375,1.942 -0.752,2.4 -0.681,0.825 -0.679,0.825 0.228,-0.008 0.725,-0.666 0.88,-1.16 0.752,-2.4 l -0.161,-1.561 -0.067,1.569 M 221.6,129.88 c -0.11,6.425 -0.062,11.543 0.106,11.374 0.169,-0.169 0.259,-5.425 0.2,-11.68 L 221.799,118.2 221.6,129.88 m -33.886,-8.48 c 0.003,1.1 0.081,1.503 0.173,0.895 0.092,-0.609 0.09,-1.509 -0.005,-2 -0.095,-0.492 -0.171,0.005 -0.168,1.105"
       inkscape:connector-curvature="0"
       style="fill:#040404;fill-rule:evenodd;stroke:none" />
    <path
       id="path3"
       d="m 162.667,112.667 c -0.37,0.37 -0.338,28.442 0.033,28.671 0.165,0.102 0.3,-6.367 0.3,-14.376 0,-8.009 -0.015,-14.562 -0.033,-14.562 -0.019,0 -0.154,0.12 -0.3,0.267 m 11.455,5.232 c 2.377,0.071 6.157,0.07 8.4,-0.001 2.243,-0.071 0.298,-0.129 -4.322,-0.129 -4.62,10e-4 -6.455,0.059 -4.078,0.13 m 75.555,2.448 c -0.076,2.902 -0.092,2.943 -1.065,2.757 -0.543,-0.103 -0.893,-0.034 -0.776,0.154 1.103,1.785 2.245,-0.041 2.062,-3.3 l -0.144,-2.558 -0.077,2.947 m 15.99,-1.378 c -0.037,0.862 -0.375,1.942 -0.752,2.4 -0.681,0.825 -0.679,0.825 0.228,-0.008 0.725,-0.666 0.88,-1.16 0.752,-2.4 l -0.161,-1.561 -0.067,1.569 M 221.6,129.88 c -0.11,6.425 -0.062,11.543 0.106,11.374 0.169,-0.169 0.259,-5.425 0.2,-11.68 L 221.799,118.2 221.6,129.88 m -33.886,-8.48 c 0.003,1.1 0.081,1.503 0.173,0.895 0.092,-0.609 0.09,-1.509 -0.005,-2 -0.095,-0.492 -0.171,0.005 -0.168,1.105"
       inkscape:connector-curvature="0"
       style="fill:#040404;fill-rule:evenodd;stroke:none" />
    <path
       id="path4"
       d="m 162.667,112.667 c -0.37,0.37 -0.338,28.442 0.033,28.671 0.165,0.102 0.3,-6.367 0.3,-14.376 0,-8.009 -0.015,-14.562 -0.033,-14.562 -0.019,0 -0.154,0.12 -0.3,0.267 m 11.455,5.232 c 2.377,0.071 6.157,0.07 8.4,-0.001 2.243,-0.071 0.298,-0.129 -4.322,-0.129 -4.62,10e-4 -6.455,0.059 -4.078,0.13 m 75.555,2.448 c -0.076,2.902 -0.092,2.943 -1.065,2.757 -0.543,-0.103 -0.893,-0.034 -0.776,0.154 1.103,1.785 2.245,-0.041 2.062,-3.3 l -0.144,-2.558 -0.077,2.947 m 15.99,-1.378 c -0.037,0.862 -0.375,1.942 -0.752,2.4 -0.681,0.825 -0.679,0.825 0.228,-0.008 0.725,-0.666 0.88,-1.16 0.752,-2.4 l -0.161,-1.561 -0.067,1.569 M 221.6,129.88 c -0.11,6.425 -0.062,11.543 0.106,11.374 0.169,-0.169 0.259,-5.425 0.2,-11.68 L 221.799,118.2 221.6,129.88 m -33.886,-8.48 c 0.003,1.1 0.081,1.503 0.173,0.895 0.092,-0.609 0.09,-1.509 -0.005,-2 -0.095,-0.492 -0.171,0.005 -0.168,1.105"
       inkscape:connector-curvature="0"
       style="fill:#040404;fill-rule:evenodd;stroke:none" />
  </g>
</svg>
