<?xml version="1.0" encoding="UTF-8" standalone="no"?>
<svg
   xmlns:dc="http://purl.org/dc/elements/1.1/"
   xmlns:cc="http://creativecommons.org/ns#"
   xmlns:rdf="http://www.w3.org/1999/02/22-rdf-syntax-ns#"
   xmlns:svg="http://www.w3.org/2000/svg"
   xmlns="http://www.w3.org/2000/svg"
   xmlns:sodipodi="http://sodipodi.sourceforge.net/DTD/sodipodi-0.dtd"
   xmlns:inkscape="http://www.inkscape.org/namespaces/inkscape"
   id="svg"
   version="1.1"
   width="24.999998"
   height="20.205923"
   style="display:block"
   sodipodi:docname="UV Express Black.svg"
   inkscape:version="0.92.1 r15371">
  <metadata
     id="metadata13">
    <rdf:RDF>
      <cc:Work
         rdf:about="">
        <dc:format>image/svg+xml</dc:format>
        <dc:type
           rdf:resource="http://purl.org/dc/dcmitype/StillImage" />
      </cc:Work>
    </rdf:RDF>
  </metadata>
  <defs
     id="defs11" />
  <sodipodi:namedview
     pagecolor="#ffffff"
     bordercolor="#666666"
     borderopacity="1"
     objecttolerance="10"
     gridtolerance="10"
     guidetolerance="10"
     inkscape:pageopacity="0"
     inkscape:pageshadow="2"
     inkscape:window-width="640"
     inkscape:window-height="480"
     id="namedview9"
     showgrid="false"
     inkscape:zoom="0.59"
     inkscape:cx="158.59482"
     inkscape:cy="119.2"
     inkscape:window-x="0"
     inkscape:window-y="0"
     inkscape:window-maximized="0"
     inkscape:current-layer="svg" />
  <g
     id="svgg"
     transform="matrix(0.0788172,0,0,0.0788172,-3.2634406,-4.9525277)">
    <path
       id="path0"
       d="m 115.3,63.344 c -0.495,0.245 -0.9,0.583 -0.9,0.751 0,0.168 -0.54,0.305 -1.2,0.305 -0.66,0 -1.2,0.18 -1.2,0.4 0,0.22 -0.32,0.4 -0.712,0.4 -0.391,0 -0.971,0.36 -1.288,0.8 -0.317,0.44 -0.719,0.8 -0.893,0.8 -0.452,0 -7.907,7.513 -7.907,7.968 0,0.208 -0.36,0.492 -0.8,0.632 -0.44,0.14 -0.8,0.602 -0.8,1.027 0,0.425 -0.18,0.773 -0.4,0.773 -0.22,0 -0.4,0.36 -0.4,0.8 0,0.44 -0.199,0.8 -0.443,0.8 -0.243,0 -0.344,0.257 -0.224,0.571 0.121,0.314 -0.022,0.771 -0.317,1.016 -0.295,0.244 -0.536,1.106 -0.536,1.915 0,0.809 -0.198,1.537 -0.44,1.618 -0.242,0.081 -0.44,0.492 -0.44,0.913 0,0.422 -0.18,0.767 -0.4,0.767 -0.22,0 -0.4,0.458 -0.4,1.017 0,0.559 -0.36,1.403 -0.8,1.875 -0.44,0.472 -0.8,1.095 -0.8,1.383 0,0.289 -0.18,0.525 -0.4,0.525 -0.22,0 -0.4,0.439 -0.4,0.976 0,0.537 -0.157,1.074 -0.348,1.192 -0.191,0.118 -0.684,1.389 -1.095,2.823 C 91.346,96.826 90.873,98 90.705,98 90.537,98 90.4,98.54 90.4,99.2 c 0,0.66 -0.18,1.2 -0.4,1.2 -0.22,0 -0.4,0.278 -0.4,0.617 0,0.339 -0.36,1.003 -0.8,1.475 -0.44,0.472 -0.8,1.275 -0.8,1.783 0,0.509 -0.18,0.925 -0.4,0.925 -0.22,0 -0.4,0.36 -0.4,0.8 0,0.44 -0.18,0.8 -0.4,0.8 -0.22,0 -0.4,0.36 -0.4,0.8 0,0.44 -0.18,0.8 -0.4,0.8 -0.22,0 -0.4,0.355 -0.4,0.788 0,0.433 -0.36,1.429 -0.8,2.212 -0.44,0.783 -0.8,1.779 -0.8,2.212 0,0.433 -0.18,0.788 -0.4,0.788 -0.22,0 -0.4,0.349 -0.4,0.776 0,0.427 -0.18,0.888 -0.4,1.024 -0.22,0.136 -0.4,0.867 -0.4,1.624 0,0.757 -0.18,1.376 -0.4,1.376 -0.22,0 -0.4,0.36 -0.4,0.8 0,0.44 -0.18,0.8 -0.4,0.8 -0.22,0 -0.4,0.54 -0.4,1.2 0,0.66 -0.18,1.2 -0.4,1.2 -0.22,0 -0.4,0.36 -0.4,0.8 0,0.44 -0.146,0.8 -0.325,0.8 -0.179,0 -0.573,0.63 -0.875,1.4 -0.302,0.77 -0.696,1.4 -0.875,1.4 -0.179,0 -0.325,0.54 -0.325,1.2 0,0.66 -0.18,1.2 -0.4,1.2 -0.22,0 -0.4,0.36 -0.4,0.8 0,0.44 -0.136,0.8 -0.302,0.8 -0.367,0 -1.288,2.513 -1.576,4.3 -0.115,0.715 -0.37,1.3 -0.566,1.3 -0.196,0 -0.356,0.36 -0.356,0.8 0,0.44 -0.18,0.8 -0.4,0.8 -0.22,0 -0.4,0.36 -0.4,0.8 0,0.44 -0.18,0.8 -0.4,0.8 -0.22,0 -0.4,0.324 -0.4,0.72 0,0.894 -0.894,2.873 -1.3,2.877 -0.165,0.002 -0.3,0.363 -0.3,0.803 0,0.44 -0.18,0.8 -0.4,0.8 -0.22,0 -0.406,0.405 -0.413,0.9 -0.016,1.147 -0.884,2.3 -1.731,2.3 -0.361,0 -0.656,0.18 -0.656,0.4 0,0.22 -0.54,0.4 -1.2,0.4 -0.66,0 -1.2,0.18 -1.2,0.4 0,0.22 -0.36,0.4 -0.8,0.4 -0.44,0 -0.8,0.18 -0.8,0.4 0,0.22 -0.36,0.4 -0.8,0.4 -0.44,0 -0.8,0.18 -0.8,0.4 0,0.22 -0.317,0.4 -0.704,0.4 -0.387,0 -0.928,0.36 -1.203,0.8 -0.275,0.44 -0.688,0.8 -0.919,0.8 -0.23,0 -1.45,1.051 -2.71,2.335 -1.261,1.284 -2.781,2.458 -3.378,2.608 -0.598,0.15 -1.086,0.551 -1.086,0.893 0,0.665 -0.576,1.305 -1.79,1.991 -0.416,0.234 -0.949,0.769 -1.183,1.188 -0.235,0.418 -0.922,1.243 -1.527,1.833 -0.605,0.59 -1.1,1.361 -1.1,1.712 0,0.352 -0.18,0.64 -0.4,0.64 -0.22,0 -0.4,0.36 -0.4,0.8 0,0.44 -0.18,0.8 -0.4,0.8 -0.22,0 -0.4,0.36 -0.4,0.8 0,0.44 -0.18,0.8 -0.4,0.8 -0.22,0 -0.4,0.36 -0.4,0.8 0,0.44 -0.18,0.8 -0.4,0.8 -0.22,0 -0.4,0.525 -0.4,1.167 0,0.641 -0.177,1.226 -0.394,1.3 -1.046,0.354 -1.979,92.653 -0.963,95.3 0.214,0.558 1.701,0.633 12.6,0.633 H 66.8 v 15.2 c 0,9.867 0.14,15.2 0.4,15.2 0.22,0 0.4,0.72 0.4,1.6 0,0.88 0.18,1.6 0.4,1.6 0.22,0 0.4,0.343 0.4,0.762 0,1.388 1.767,4.183 4.2,6.645 1.32,1.336 2.85,3.004 3.4,3.707 0.55,0.703 1.315,1.28 1.7,1.282 0.385,0.002 0.7,0.184 0.7,0.404 0,0.22 0.36,0.4 0.8,0.4 0.44,0 0.8,0.18 0.8,0.4 0,0.22 0.36,0.4 0.8,0.4 0.44,0 0.8,0.18 0.8,0.4 0,0.22 0.36,0.4 0.8,0.4 0.44,0 0.8,0.18 0.8,0.4 0,0.255 3.267,0.4 9,0.4 5.733,0 9,-0.145 9,-0.4 0,-0.22 0.36,-0.4 0.8,-0.4 0.44,0 0.8,-0.18 0.8,-0.4 0,-0.22 0.5,-0.4 1.112,-0.4 0.653,0 1.349,-0.33 1.688,-0.8 0.317,-0.44 0.744,-0.8 0.949,-0.8 0.465,0 4.651,-4.292 4.651,-4.769 0,-0.192 0.9,-1.269 2,-2.392 1.1,-1.124 2,-2.402 2,-2.841 0,-0.439 0.18,-0.798 0.4,-0.798 0.22,0 0.4,-0.36 0.4,-0.8 0,-0.44 0.18,-0.8 0.4,-0.8 0.22,0 0.4,-0.72 0.4,-1.6 0,-0.88 0.18,-1.6 0.4,-1.6 0.26,0 0.4,-5.333 0.4,-15.2 V 270 h 82.4 82.4 v 2.8 c 0,1.6 -0.171,2.8 -0.4,2.8 -0.256,0 -0.4,3.6 -0.4,10 0,6.4 0.144,10 0.4,10 0.229,0 0.4,1.2 0.4,2.8 0,1.6 0.171,2.8 0.4,2.8 0.22,0 0.4,0.54 0.4,1.2 0,0.66 0.18,1.2 0.4,1.2 0.22,0 0.4,0.54 0.4,1.2 0,0.66 0.18,1.2 0.4,1.2 0.22,0 0.4,0.194 0.4,0.431 0,0.238 0.72,1.123 1.6,1.969 0.894,0.859 1.6,1.917 1.6,2.397 0,0.895 0.852,2.003 1.541,2.003 0.218,0 1.103,0.72 1.966,1.6 0.862,0.88 1.737,1.6 1.942,1.6 0.206,0 0.634,0.36 0.951,0.8 0.317,0.44 0.897,0.8 1.288,0.8 0.392,0 0.712,0.18 0.712,0.4 0,0.22 0.54,0.4 1.2,0.4 0.66,0 1.2,0.18 1.2,0.4 0,0.255 3.267,0.4 9,0.4 5.733,0 9,-0.145 9,-0.4 0,-0.22 0.36,-0.4 0.8,-0.4 0.44,0 0.8,-0.18 0.8,-0.4 0,-0.22 0.36,-0.4 0.8,-0.4 0.44,0 0.8,-0.18 0.8,-0.4 0,-0.22 0.36,-0.4 0.8,-0.4 0.44,0 0.8,-0.18 0.8,-0.4 0,-0.22 0.315,-0.402 0.7,-0.404 0.385,-0.002 1.15,-0.579 1.7,-1.282 0.55,-0.703 2.08,-2.368 3.4,-3.699 2.918,-2.943 5,-6.972 5,-9.675 0,-0.517 0.18,-0.94 0.4,-0.94 0.26,0 0.4,-5.333 0.4,-15.2 V 270 h 12.357 c 10.899,0 12.386,-0.075 12.6,-0.633 1.016,-2.647 0.083,-94.946 -0.963,-95.3 -0.217,-0.074 -0.394,-0.659 -0.394,-1.3 0,-0.642 -0.18,-1.167 -0.4,-1.167 -0.22,0 -0.4,-0.36 -0.4,-0.8 0,-0.44 -0.18,-0.8 -0.4,-0.8 -0.22,0 -0.4,-0.36 -0.4,-0.8 0,-0.44 -0.18,-0.8 -0.4,-0.8 -0.22,0 -0.4,-0.32 -0.4,-0.712 0,-0.391 -0.36,-0.971 -0.8,-1.288 -0.44,-0.317 -0.8,-0.831 -0.8,-1.141 0,-0.311 -0.315,-0.859 -0.7,-1.218 -0.385,-0.359 -0.892,-0.998 -1.127,-1.42 -0.234,-0.422 -0.762,-0.96 -1.172,-1.194 -0.878,-0.503 -2.455,-1.903 -5.999,-5.327 -1.423,-1.375 -2.769,-2.5 -2.991,-2.5 -0.222,0 -0.629,-0.36 -0.904,-0.8 -0.275,-0.44 -0.816,-0.8 -1.203,-0.8 -0.387,0 -0.704,-0.18 -0.704,-0.4 0,-0.22 -0.36,-0.4 -0.8,-0.4 -0.44,0 -0.8,-0.18 -0.8,-0.4 0,-0.22 -0.54,-0.4 -1.2,-0.4 -0.66,0 -1.2,-0.18 -1.2,-0.4 0,-0.22 -0.36,-0.4 -0.8,-0.4 -0.44,0 -0.8,-0.18 -0.8,-0.4 0,-0.22 -0.345,-0.4 -0.766,-0.4 -0.467,0 -0.975,-0.469 -1.298,-1.2 -0.292,-0.66 -0.667,-1.2 -0.834,-1.2 -0.166,0 -0.302,-0.54 -0.302,-1.2 0,-0.66 -0.146,-1.2 -0.325,-1.2 -0.179,0 -0.573,-0.63 -0.875,-1.4 -0.302,-0.77 -0.696,-1.4 -0.875,-1.4 -0.179,0 -0.325,-0.36 -0.325,-0.8 0,-0.44 -0.18,-0.8 -0.4,-0.8 -0.22,0 -0.4,-0.54 -0.4,-1.2 0,-0.66 -0.16,-1.2 -0.355,-1.2 -0.196,0 -0.479,-0.675 -0.63,-1.5 -0.15,-0.825 -0.62,-2.095 -1.044,-2.823 -0.424,-0.727 -0.771,-1.672 -0.771,-2.1 0,-0.427 -0.18,-0.777 -0.4,-0.777 -0.22,0 -0.4,-0.36 -0.4,-0.8 0,-0.44 -0.18,-0.8 -0.4,-0.8 -0.22,0 -0.4,-0.324 -0.4,-0.72 0,-0.894 -0.894,-2.873 -1.3,-2.877 -0.165,-0.002 -0.3,-0.363 -0.3,-0.803 0,-0.44 -0.18,-0.8 -0.4,-0.8 -0.22,0 -0.4,-0.36 -0.4,-0.8 0,-0.44 -0.18,-0.8 -0.4,-0.8 -0.22,0 -0.4,-0.54 -0.4,-1.2 0,-0.66 -0.18,-1.2 -0.4,-1.2 -0.22,0 -0.4,-0.619 -0.4,-1.376 0,-0.757 -0.18,-1.488 -0.4,-1.624 -0.22,-0.136 -0.4,-0.597 -0.4,-1.024 0,-0.427 -0.18,-0.776 -0.4,-0.776 -0.22,0 -0.4,-0.343 -0.4,-0.762 0,-0.816 -1.601,-4.15 -2.1,-4.371 -0.165,-0.074 -0.3,-0.659 -0.3,-1.3 0,-0.642 -0.18,-1.167 -0.4,-1.167 -0.22,0 -0.4,-0.36 -0.4,-0.8 0,-0.44 -0.18,-0.8 -0.4,-0.8 -0.22,0 -0.4,-0.36 -0.4,-0.8 0,-0.44 -0.18,-0.8 -0.4,-0.8 -0.22,0 -0.4,-0.36 -0.4,-0.8 0,-0.44 -0.18,-0.8 -0.4,-0.8 -0.22,0 -0.4,-0.36 -0.4,-0.8 0,-0.44 -0.18,-0.8 -0.4,-0.8 -0.22,0 -0.4,-0.36 -0.4,-0.8 0,-0.44 -0.18,-0.8 -0.4,-0.8 -0.22,0 -0.4,-0.429 -0.4,-0.954 0,-0.525 -0.269,-1.47 -0.598,-2.1 -0.328,-0.63 -0.598,-1.425 -0.6,-1.766 -0.003,-0.818 -0.92,-2.773 -1.302,-2.777 -0.165,-0.002 -0.3,-0.419 -0.3,-0.928 0,-0.508 -0.36,-1.311 -0.8,-1.783 -0.44,-0.472 -0.8,-1.136 -0.8,-1.475 0,-0.339 -0.18,-0.617 -0.4,-0.617 -0.22,0 -0.4,-0.525 -0.4,-1.167 0,-0.641 -0.169,-1.226 -0.375,-1.3 -0.207,-0.073 -0.44,-0.621 -0.519,-1.218 -0.078,-0.597 -0.269,-1.212 -0.424,-1.367 C 302.127,81.193 302,80.557 302,79.933 302,79.31 301.82,78.8 301.6,78.8 c -0.22,0 -0.4,-0.36 -0.4,-0.8 0,-0.44 -0.18,-0.8 -0.4,-0.8 -0.22,0 -0.4,-0.348 -0.4,-0.773 0,-0.425 -0.36,-0.887 -0.8,-1.027 -0.44,-0.14 -0.8,-0.424 -0.8,-0.633 0,-0.456 -6.654,-7.167 -7.106,-7.167 -0.175,0 -0.577,-0.36 -0.894,-0.8 -0.317,-0.44 -0.857,-0.8 -1.2,-0.8 -0.343,0 -0.883,-0.36 -1.2,-0.8 -0.339,-0.47 -1.035,-0.8 -1.688,-0.8 -0.612,0 -1.113,-0.135 -1.115,-0.3 -0.013,-1.28 -1.424,-1.3 -85.777,-1.251 -60.572,0.036 -83.868,0.172 -84.52,0.495 m 160.64,22.848 c 0.828,0.766 1.753,2.026 2.057,2.8 0.304,0.775 0.699,1.408 0.878,1.408 0.179,0 0.325,0.27 0.325,0.6 0,0.33 0.18,0.6 0.4,0.6 0.22,0 0.4,0.54 0.4,1.2 0,0.66 0.18,1.2 0.4,1.2 0.22,0 0.4,0.36 0.4,0.8 0,0.44 0.18,0.8 0.4,0.8 0.22,0 0.4,0.36 0.4,0.8 0,0.44 0.18,0.8 0.4,0.8 0.22,0 0.4,0.54 0.4,1.2 0,0.66 0.18,1.2 0.4,1.2 0.22,0 0.4,0.36 0.4,0.8 0,0.44 0.18,0.8 0.4,0.8 0.22,0 0.4,0.5 0.4,1.112 0,0.653 0.33,1.349 0.8,1.688 0.46,0.331 0.8,1.035 0.8,1.655 0,0.593 0.208,1.148 0.463,1.233 0.255,0.085 0.447,0.73 0.427,1.433 -0.022,0.781 0.16,1.279 0.467,1.279 0.333,0 0.445,0.408 0.328,1.2 -0.105,0.72 0.002,1.2 0.27,1.2 0.245,0 0.445,0.36 0.445,0.8 0,0.44 0.18,0.8 0.4,0.8 0.22,0 0.4,0.36 0.4,0.8 0,0.44 0.18,0.8 0.4,0.8 0.22,0 0.4,0.54 0.4,1.2 0,0.66 0.18,1.2 0.4,1.2 0.22,0 0.4,0.27 0.4,0.6 0,0.33 0.18,0.6 0.4,0.6 0.22,0 0.4,0.45 0.4,1 0,0.55 0.169,1 0.375,1 0.207,0 0.497,0.81 0.646,1.8 0.148,0.99 0.429,1.8 0.624,1.8 0.195,0 0.355,0.36 0.355,0.8 0,0.44 0.18,0.8 0.4,0.8 0.22,0 0.4,0.36 0.4,0.8 0,0.44 0.18,0.8 0.4,0.8 0.22,0 0.4,0.54 0.4,1.2 0,0.66 0.18,1.2 0.4,1.2 0.22,0 0.4,0.36 0.4,0.8 0,0.44 0.135,0.801 0.3,0.803 0.359,0.004 1.3,1.941 1.3,2.677 0,0.286 0.18,0.52 0.4,0.52 0.22,0 0.4,0.36 0.4,0.8 0,0.44 0.18,0.8 0.4,0.8 0.22,0 0.4,0.36 0.4,0.8 0,0.44 0.18,0.8 0.4,0.8 0.22,0 0.4,0.54 0.4,1.2 0,0.66 0.18,1.2 0.4,1.2 0.22,0 0.4,0.27 0.4,0.6 0,0.33 0.18,0.6 0.4,0.6 0.22,0 0.4,0.54 0.4,1.2 0,0.66 0.15,1.2 0.334,1.2 0.184,0 0.363,0.72 0.398,1.6 l 0.062,1.6 H 200 98.006 l 0.062,-1.6 c 0.035,-0.88 0.214,-1.6 0.398,-1.6 0.184,0 0.334,-0.54 0.334,-1.2 0,-0.66 0.18,-1.2 0.4,-1.2 0.22,0 0.4,-0.27 0.4,-0.6 0,-0.33 0.18,-0.6 0.4,-0.6 0.22,0 0.4,-0.54 0.4,-1.2 0,-0.66 0.18,-1.2 0.4,-1.2 0.22,0 0.4,-0.36 0.4,-0.8 0,-0.44 0.18,-0.8 0.4,-0.8 0.22,0 0.4,-0.458 0.4,-1.017 0,-0.559 0.36,-1.403 0.8,-1.875 0.44,-0.472 0.8,-1.095 0.8,-1.383 0,-0.289 0.18,-0.525 0.4,-0.525 0.22,0 0.4,-0.54 0.4,-1.2 0,-0.66 0.18,-1.2 0.4,-1.2 0.22,0 0.4,-0.36 0.4,-0.8 0,-0.44 0.18,-0.8 0.4,-0.8 0.22,0 0.4,-0.36 0.4,-0.8 0,-0.44 0.18,-0.8 0.4,-0.8 0.22,0 0.4,-0.339 0.4,-0.754 0,-0.415 0.269,-1.27 0.598,-1.9 0.328,-0.63 0.598,-1.641 0.6,-2.246 10e-4,-0.605 0.182,-1.1 0.402,-1.1 0.22,0 0.4,-0.27 0.4,-0.6 0,-0.33 0.18,-0.6 0.4,-0.6 0.22,0 0.4,-0.45 0.4,-1 0,-0.55 0.18,-1 0.4,-1 0.22,0 0.4,-0.36 0.4,-0.8 0,-0.44 0.18,-0.8 0.4,-0.8 0.22,0 0.4,-0.36 0.4,-0.8 0,-0.44 0.18,-0.8 0.4,-0.8 0.22,0 0.4,-0.54 0.4,-1.2 0,-0.66 0.18,-1.2 0.4,-1.2 0.576,0 0.494,-1.096 -0.1,-1.335 -0.275,-0.111 -0.116,-0.216 0.353,-0.233 0.727,-0.027 0.856,-0.281 0.876,-1.724 0.013,-0.931 0.214,-1.756 0.447,-1.833 0.233,-0.078 0.424,-0.487 0.424,-0.908 0,-0.422 0.18,-0.767 0.4,-0.767 0.22,0 0.4,-0.36 0.4,-0.8 0,-0.44 0.18,-0.8 0.4,-0.8 0.22,0 0.4,-0.36 0.4,-0.8 0,-0.44 0.18,-0.8 0.4,-0.8 0.22,0 0.4,-0.54 0.4,-1.2 0,-0.66 0.18,-1.2 0.4,-1.2 0.22,0 0.4,-0.36 0.4,-0.8 0,-0.44 0.18,-0.8 0.4,-0.8 0.22,0 0.4,-0.36 0.4,-0.8 0,-0.44 0.18,-0.8 0.4,-0.8 0.22,0 0.4,-0.54 0.4,-1.2 0,-0.66 0.18,-1.2 0.4,-1.2 0.22,0 0.4,-0.36 0.4,-0.8 0,-0.44 0.135,-0.801 0.3,-0.803 0.335,-0.004 1.301,-1.923 1.298,-2.577 -0.002,-0.231 0.853,-1.267 1.9,-2.303 l 1.902,-1.883 74.517,-0.017 74.518,-0.017 1.505,1.392 M 99.533,175.641 c 0.074,0.197 0.558,0.359 1.077,0.359 0.518,0 1.054,0.18 1.19,0.4 0.136,0.22 0.676,0.4 1.2,0.4 0.524,0 1.064,0.18 1.2,0.4 0.136,0.22 0.597,0.4 1.024,0.4 0.427,0 0.776,0.18 0.776,0.4 0,0.22 0.294,0.4 0.653,0.4 0.657,0 2.147,1.43 2.147,2.061 0,0.187 0.288,0.339 0.64,0.339 0.862,0 2.96,2.298 2.96,3.242 0,0.417 0.27,0.758 0.6,0.758 0.359,0 0.6,0.369 0.6,0.92 0,0.506 0.168,1.091 0.373,1.3 0.813,0.828 2.827,5.117 2.827,6.021 0,0.527 0.18,0.959 0.4,0.959 0.242,0 0.4,1.733 0.4,4.4 0,2.667 -0.158,4.4 -0.4,4.4 -0.22,0 -0.4,0.72 -0.4,1.6 0,0.88 -0.18,1.6 -0.4,1.6 -0.22,0 -0.4,0.36 -0.4,0.8 0,0.44 -0.18,0.8 -0.4,0.8 -0.22,0 -0.4,0.36 -0.4,0.8 0,0.44 -0.135,0.801 -0.3,0.803 -0.369,0.004 -1.3,1.949 -1.3,2.716 0,0.308 -0.54,1.064 -1.2,1.681 -0.66,0.617 -1.2,1.409 -1.2,1.76 0,0.352 -0.294,0.64 -0.653,0.64 -0.635,0 -1.33,0.648 -2.535,2.363 -0.348,0.495 -1.027,0.837 -1.66,0.837 -0.589,0 -2.097,0.54 -3.352,1.2 -1.255,0.66 -2.533,1.2 -2.841,1.2 -0.307,0 -0.559,0.18 -0.559,0.4 0,0.224 -1.107,0.4 -2.52,0.4 -1.467,0 -2.742,0.209 -3.05,0.5 -0.424,0.4 -0.567,0.4 -0.713,0 -0.121,-0.329 -1.061,-0.5 -2.75,-0.5 -1.445,0 -2.567,-0.175 -2.567,-0.4 0,-0.22 -0.54,-0.4 -1.2,-0.4 -0.66,0 -1.2,-0.18 -1.2,-0.4 0,-0.22 -0.36,-0.4 -0.8,-0.4 -0.44,0 -0.8,-0.18 -0.8,-0.4 0,-0.22 -0.36,-0.4 -0.8,-0.4 -0.44,0 -0.8,-0.18 -0.8,-0.4 0,-0.22 -0.464,-0.4 -1.031,-0.4 -0.681,0 -1.555,-0.545 -2.569,-1.6 C 77.954,216.72 76.979,216 76.631,216 76.284,216 76,215.722 76,215.383 c 0,-0.34 -0.45,-1.103 -1,-1.696 -0.55,-0.594 -1,-1.278 -1,-1.521 0,-0.243 -0.325,-0.736 -0.722,-1.095 -0.397,-0.36 -0.971,-1.288 -1.275,-2.062 -0.304,-0.775 -0.699,-1.409 -0.878,-1.409 -0.179,0 -0.325,-0.525 -0.325,-1.167 0,-0.641 -0.196,-1.232 -0.436,-1.312 -0.286,-0.095 -0.422,-1.787 -0.393,-4.905 0.031,-3.447 -0.097,-4.849 -0.464,-5.082 -0.4,-0.254 -0.401,-0.323 -0.007,-0.328 0.316,-0.004 0.5,-0.596 0.5,-1.606 0,-0.88 0.135,-1.601 0.3,-1.601 0.165,-10e-4 0.75,-0.991 1.3,-2.199 0.55,-1.208 1.135,-2.198 1.3,-2.199 0.165,0 0.3,-0.33 0.3,-0.731 0,-0.402 0.45,-1.153 1,-1.67 0.55,-0.517 1,-1.186 1,-1.488 0,-0.664 1.782,-2.512 2.421,-2.512 0.252,0 0.962,-0.54 1.579,-1.2 0.617,-0.66 1.409,-1.2 1.76,-1.2 0.352,0 0.641,-0.135 0.643,-0.3 0.005,-0.447 2.023,-1.3 3.077,-1.3 0.506,0 0.92,-0.18 0.92,-0.4 0,-0.22 0.54,-0.4 1.2,-0.4 0.66,0 1.2,-0.17 1.2,-0.378 0,-0.81 11.232,-0.792 11.533,0.019 m 211.047,-0.018 c 0.209,0.208 0.794,0.377 1.3,0.377 0.506,0 0.92,0.18 0.92,0.4 0,0.22 0.349,0.4 0.776,0.4 0.427,0 0.888,0.18 1.024,0.4 0.136,0.22 0.647,0.4 1.135,0.4 0.489,0 1.148,0.36 1.465,0.8 0.317,0.44 0.81,0.8 1.095,0.8 0.601,0 6.505,5.793 6.505,6.383 0,0.585 2.044,4.797 2.45,5.048 0.193,0.119 0.35,0.566 0.35,0.993 0,0.427 0.18,0.776 0.4,0.776 0.222,0 0.4,1.067 0.4,2.4 0,1.333 0.178,2.4 0.4,2.4 0.22,0 0.4,0.54 0.4,1.2 0,0.66 -0.18,1.2 -0.4,1.2 -0.222,0 -0.4,1.067 -0.4,2.4 0,1.333 -0.178,2.4 -0.4,2.4 -0.22,0 -0.4,0.54 -0.4,1.2 0,0.66 -0.18,1.2 -0.4,1.2 -0.22,0 -0.4,0.36 -0.4,0.8 0,0.44 -0.135,0.801 -0.3,0.801 -0.165,10e-4 -0.633,0.811 -1.04,1.8 -0.406,0.99 -0.901,1.799 -1.1,1.799 -0.198,0 -0.36,0.273 -0.36,0.607 0,0.792 -5.001,5.793 -5.793,5.793 -0.334,0 -0.608,0.135 -0.61,0.3 -0.004,0.359 -1.941,1.3 -2.677,1.3 -0.286,0 -0.52,0.18 -0.52,0.4 0,0.22 -0.439,0.4 -0.976,0.4 -0.537,0 -1.088,0.18 -1.224,0.4 -0.136,0.22 -0.676,0.4 -1.2,0.4 -0.524,0 -1.064,0.18 -1.2,0.4 -0.136,0.22 -1.227,0.4 -2.424,0.4 -1.197,0 -2.176,0.18 -2.176,0.4 0,0.22 -0.36,0.4 -0.8,0.4 -0.44,0 -0.8,-0.18 -0.8,-0.4 0,-0.22 -0.979,-0.4 -2.176,-0.4 -1.197,0 -2.288,-0.18 -2.424,-0.4 -0.136,-0.22 -0.597,-0.4 -1.024,-0.4 -0.427,0 -0.776,-0.18 -0.776,-0.4 0,-0.22 -0.54,-0.4 -1.2,-0.4 -0.66,0 -1.2,-0.18 -1.2,-0.4 0,-0.22 -0.349,-0.4 -0.776,-0.4 -0.427,0 -0.888,-0.18 -1.024,-0.4 -0.136,-0.22 -0.557,-0.4 -0.935,-0.4 -0.379,0 -0.948,-0.36 -1.265,-0.8 -0.317,-0.44 -0.813,-0.8 -1.102,-0.8 -0.781,0 -3.298,-2.664 -3.298,-3.491 0,-0.395 -0.54,-1.164 -1.2,-1.709 -0.66,-0.545 -1.2,-1.182 -1.2,-1.416 0,-0.661 -0.965,-2.577 -1.3,-2.581 -0.165,-0.002 -0.3,-0.543 -0.3,-1.203 0,-0.66 -0.18,-1.2 -0.4,-1.2 -0.22,0 -0.4,-0.36 -0.4,-0.8 0,-0.44 -0.18,-0.8 -0.4,-0.8 -0.248,0 -0.4,-2.133 -0.4,-5.6 0,-3.467 0.152,-5.6 0.4,-5.6 0.22,0 0.4,-0.272 0.4,-0.605 0,-0.333 0.164,-0.918 0.365,-1.3 0.201,-0.382 0.851,-1.743 1.444,-3.024 0.593,-1.281 1.329,-2.426 1.635,-2.543 0.306,-0.118 0.556,-0.648 0.556,-1.179 0,-1.075 3.967,-5.349 4.964,-5.349 0.32,0 0.696,-0.36 0.836,-0.8 0.163,-0.513 0.605,-0.8 1.232,-0.8 0.539,0 1.336,-0.18 1.773,-0.4 0.437,-0.22 1.153,-0.58 1.59,-0.8 0.437,-0.22 1.121,-0.4 1.52,-0.4 0.399,0 0.896,-0.168 1.105,-0.373 0.846,-0.831 11.122,-0.834 11.96,-0.004 M 170.8,201.4 171,213 h 9 9 l 0.2,-11.6 0.2,-11.6 3.392,-0.118 c 4.689,-0.162 4.408,-0.942 4.408,12.217 0,18.532 0.824,17.696 -17.4,17.676 -17.591,-0.02 -16.356,1.198 -16.516,-16.272 -0.14,-15.207 -0.545,-13.762 3.809,-13.619 l 3.507,0.116 0.2,11.6 m 42.68,-9.8 c 0.549,0.99 2.338,4.182 3.976,7.093 1.637,2.911 3.374,6.061 3.86,7 0.486,0.939 0.974,1.797 1.085,1.907 0.11,0.11 0.452,0.688 0.759,1.284 l 0.558,1.084 0.739,-1.284 c 0.406,-0.706 1.052,-1.959 1.435,-2.784 0.383,-0.825 0.834,-1.5 1.002,-1.5 0.168,0 0.306,-0.324 0.306,-0.72 0,-0.396 0.168,-0.891 0.374,-1.1 0.206,-0.209 1.271,-2.09 2.367,-4.18 1.095,-2.09 2.599,-4.88 3.342,-6.2 l 1.351,-2.4 h 3.583 3.583 l -0.139,1 c -0.076,0.55 -0.29,1.184 -0.474,1.409 -0.184,0.225 -0.859,1.395 -1.499,2.6 -0.641,1.205 -1.618,3.001 -2.17,3.991 -0.552,0.99 -2.14,3.87 -3.528,6.4 -1.388,2.53 -2.823,5.14 -3.189,5.8 -0.366,0.66 -1.441,2.64 -2.389,4.4 -2.35,4.362 -2.157,4.2 -5.012,4.2 -2.69,0 -2.786,-0.06 -4.214,-2.6 -0.494,-0.88 -1.349,-2.401 -1.9,-3.379 -0.55,-0.978 -1.514,-2.651 -2.143,-3.718 -0.629,-1.066 -1.143,-2.002 -1.143,-2.08 0,-0.078 -0.737,-1.354 -1.637,-2.835 -0.9,-1.482 -1.98,-3.301 -2.4,-4.041 -0.42,-0.741 -1.123,-1.977 -1.563,-2.747 -0.44,-0.77 -1.181,-2.075 -1.647,-2.9 -0.466,-0.825 -1.156,-1.95 -1.535,-2.5 -1.978,-2.875 -1.585,-3.251 3.254,-3.114 l 4.008,0.114 1,1.8"
       inkscape:connector-curvature="0"
       style="fill:#000000;fill-rule:evenodd;stroke:none" />
    <path
       id="path1"
       d="m 163.47,189.885 c -0.108,0.173 1.407,0.257 3.367,0.187 l 3.563,-0.129 v 11.405 c 0,6.273 0.135,11.488 0.3,11.591 0.165,0.102 0.21,-5.063 0.1,-11.477 l -0.2,-11.662 -3.467,-0.115 c -1.907,-0.063 -3.555,0.027 -3.663,0.2 m 25.922,0.215 c -0.318,0.869 -0.406,23.101 -0.092,23.1 0.165,0 0.3,-5.22 0.3,-11.6 V 190 h 3.392 c 4.231,0 3.898,-1.21 3.736,13.568 -0.07,6.43 -0.011,11.272 0.132,10.761 0.447,-1.596 0.38,-23.106 -0.074,-23.955 -0.506,-0.946 -7.06,-1.188 -7.394,-0.274 m 14.811,-0.104 c -0.267,0.432 0.862,3.073 1.475,3.452 0.21,0.13 0.008,-0.496 -0.449,-1.39 -0.456,-0.894 -0.829,-1.723 -0.829,-1.842 0,-0.889 7.899,-0.152 8.4,0.783 0.294,0.55 0.609,0.926 0.699,0.835 0.091,-0.09 -0.14,-0.63 -0.513,-1.199 -0.719,-1.098 -8.165,-1.64 -8.783,-0.639 m 30.308,0.104 c -0.765,0.99 -0.963,1.679 -0.22,0.768 0.707,-0.866 1.002,-0.922 4.198,-0.8 1.89,0.073 3.353,-0.003 3.251,-0.168 -0.329,-0.528 -6.804,-0.349 -7.229,0.2 m -3.111,5.5 c -0.557,1.1 -0.923,2 -0.813,2 0.11,0 0.656,-0.9 1.213,-2 0.557,-1.1 0.923,-2 0.813,-2 -0.11,0 -0.656,0.9 -1.213,2 m -16.585,-1 c 0.002,0.22 0.371,0.85 0.821,1.4 0.543,0.664 0.679,0.731 0.404,0.2 -0.674,-1.305 -1.228,-2.028 -1.225,-1.6 m 23.371,2.3 -0.634,1.3 0.815,-1 c 0.785,-0.963 1.041,-1.6 0.643,-1.6 -0.104,0 -0.475,0.585 -0.824,1.3 M 217.8,200 c 0.341,0.66 0.711,1.2 0.821,1.2 0.11,0 -0.08,-0.54 -0.421,-1.2 -0.341,-0.66 -0.711,-1.2 -0.821,-1.2 -0.11,0 0.08,0.54 0.421,1.2 m 17.628,1.861 c -0.572,1.023 -0.976,1.924 -0.899,2.002 0.078,0.077 0.632,-0.76 1.231,-1.861 0.6,-1.101 1.004,-2.002 0.899,-2.002 -0.105,0 -0.659,0.837 -1.231,1.861 m -7.614,0.374 c -0.373,0.569 -0.587,1.126 -0.475,1.237 0.111,0.111 0.49,-0.354 0.842,-1.035 0.778,-1.504 0.563,-1.622 -0.367,-0.202 m -9.005,-0.335 c 0.005,0.165 0.376,0.75 0.824,1.3 l 0.815,1 -0.634,-1.3 c -0.603,-1.235 -1.025,-1.655 -1.005,-1 m 14.219,4.361 c -0.572,1.023 -0.976,1.924 -0.899,2.002 0.078,0.077 0.632,-0.76 1.231,-1.861 0.6,-1.101 1.004,-2.002 0.899,-2.002 -0.105,0 -0.659,0.837 -1.231,1.861 m -8.414,1.974 c -0.373,0.569 -0.587,1.126 -0.475,1.237 0.111,0.111 0.49,-0.354 0.842,-1.035 0.778,-1.504 0.563,-1.622 -0.367,-0.202 M 215.4,210.4 c 0.341,0.66 0.711,1.2 0.821,1.2 0.11,0 -0.08,-0.54 -0.421,-1.2 -0.341,-0.66 -0.711,-1.2 -0.821,-1.2 -0.11,0 0.08,0.54 0.421,1.2 m 14.04,2.398 c -0.6,1.101 -1.004,2.002 -0.899,2.002 0.267,0 2.302,-3.69 2.13,-3.863 -0.078,-0.077 -0.632,0.76 -1.231,1.861 m -66.212,1.035 c 0.016,0.642 0.188,1.527 0.382,1.967 0.237,0.534 0.276,0.202 0.117,-1 -0.281,-2.12 -0.539,-2.62 -0.499,-0.967 m 54.387,0.367 c 0.002,0.22 0.371,0.85 0.821,1.4 0.543,0.664 0.679,0.731 0.404,0.2 -0.674,-1.305 -1.228,-2.028 -1.225,-1.6 m 9.586,2.704 c -1.207,2.174 -1.391,2.283 -3.885,2.29 -2.038,0.006 -3.716,-0.959 -3.716,-2.136 0,-0.215 -0.11,-0.282 -0.244,-0.148 -1.05,1.051 1.613,2.721 4.157,2.607 l 2.635,-0.117 1.143,-1.949 c 0.629,-1.073 1.078,-2.015 0.997,-2.096 -0.08,-0.08 -0.569,0.617 -1.087,1.549 m -59.862,2.39 c 0.253,0.162 5.951,0.294 12.661,0.294 6.71,0 12.408,-0.132 12.662,-0.294 0.254,-0.162 -5.443,-0.294 -12.661,-0.294 -7.218,0 -12.916,0.132 -12.662,0.294"
       inkscape:connector-curvature="0"
       style="fill:#535454;fill-rule:evenodd;stroke:none" />
    <path
       id="path2"
       d="m 163.381,190.506 c -0.107,0.278 -0.146,5.453 -0.087,11.5 l 0.107,10.994 0.2,-11.5 c 0.109,-6.325 0.148,-11.5 0.086,-11.5 -0.061,0 -0.199,0.228 -0.306,0.506 m 26.313,11.008 -0.094,11.714 -9.562,-0.114 c -5.259,-0.063 -9.479,0.021 -9.377,0.186 0.347,0.559 18.941,0.36 19.158,-0.205 0.107,-0.278 0.143,-5.633 0.081,-11.9 l -0.113,-11.395 -0.093,11.714 m 6.61,-2.577 c 0.167,14.318 0.33,15.691 0.409,3.463 0.041,-6.27 -0.057,-11.608 -0.219,-11.863 -0.162,-0.255 -0.247,3.525 -0.19,8.4 M 207.56,196.2 c 0.674,1.305 1.228,2.028 1.225,1.6 -0.002,-0.22 -0.371,-0.85 -0.821,-1.4 -0.543,-0.664 -0.679,-0.731 -0.404,-0.2 m 1.64,2.69 c 0,0.391 2.803,5.11 3.036,5.11 0.109,0 -0.293,-0.855 -0.892,-1.9 -1.388,-2.418 -2.144,-3.551 -2.144,-3.21 m 10.2,17.91 c 0.341,0.66 0.711,1.2 0.821,1.2 0.11,0 -0.08,-0.54 -0.421,-1.2 -0.341,-0.66 -0.711,-1.2 -0.821,-1.2 -0.11,0 0.08,0.54 0.421,1.2 m -45.675,2.299 c 3.479,0.067 9.059,0.067 12.4,0 3.341,-0.067 0.495,-0.121 -6.325,-0.121 -6.82,0 -9.554,0.055 -6.075,0.121 m 48.582,-0.009 c 0.719,0.089 1.799,0.087 2.4,-0.004 0.601,-0.091 0.013,-0.164 -1.307,-0.162 -1.32,0.002 -1.812,0.077 -1.093,0.166"
       inkscape:connector-curvature="0"
       style="fill:#7b7b7c;fill-rule:evenodd;stroke:none" />
    <path
       id="path3"
       d="m 163.867,190.267 c -0.348,0.348 -0.29,21.79 0.065,24.133 0.151,0.99 0.207,-3.915 0.125,-10.9 l -0.147,-12.7 h 3.039 3.039 l 0.106,11.5 0.106,11.5 9.573,0.107 c 5.265,0.059 9.711,-0.031 9.88,-0.2 0.169,-0.169 -4.048,-0.307 -9.373,-0.307 h -9.68 l -0.215,-11.6 c -0.119,-6.38 -0.254,-11.645 -0.3,-11.7 -0.196,-0.232 -5.975,-0.077 -6.218,0.167 M 190,190.4 c 0,0.231 1.267,0.4 3,0.4 h 3 l 0.093,11.7 0.094,11.7 0.119,-11.2 c 0.149,-14.089 0.427,-13 -3.314,-13 -1.728,0 -2.992,0.169 -2.992,0.4 m 14.8,0.02 c 0,0.527 1.151,2.78 1.421,2.78 0.11,0 -0.08,-0.54 -0.421,-1.2 l -0.621,-1.2 3.711,-0.006 c 2.543,-0.004 3.521,-0.128 3.11,-0.394 -0.828,-0.535 -7.2,-0.517 -7.2,0.02 m 29.703,0.68 c -1.079,1.579 -3.881,7.256 -3.109,6.3 0.355,-0.44 1.309,-2.105 2.12,-3.7 l 1.475,-2.9 h 2.893 c 2.574,0 2.868,0.077 2.668,0.7 -0.19,0.591 -0.158,0.606 0.206,0.1 0.955,-1.328 0.524,-1.6 -2.529,-1.6 -2.794,0 -3.018,0.066 -3.724,1.1 m 4.911,2.335 c -0.373,0.569 -0.587,1.126 -0.475,1.237 0.111,0.111 0.49,-0.354 0.842,-1.035 0.778,-1.504 0.563,-1.622 -0.367,-0.202 m -24.779,2.065 c 0.827,1.485 1.86,3.33 2.296,4.1 1.174,2.074 3.124,5.673 3.628,6.697 0.242,0.493 0.591,0.898 0.774,0.9 0.183,0.002 -0.02,-0.582 -0.451,-1.297 -0.431,-0.715 -1.23,-2.11 -1.776,-3.1 -0.546,-0.99 -1.347,-2.43 -1.78,-3.2 -0.433,-0.77 -1.464,-2.615 -2.291,-4.1 -0.827,-1.485 -1.594,-2.7 -1.704,-2.7 -0.11,0 0.477,1.215 1.304,2.7 m 23.633,0 c -1.142,1.906 -1.871,3.431 -1.714,3.587 0.105,0.106 0.657,-0.725 1.226,-1.847 0.839,-1.656 1.192,-2.916 0.488,-1.74 m -8.828,4.898 c -0.6,1.101 -0.944,1.998 -0.765,1.992 0.342,-0.01 2.206,-3.642 1.984,-3.865 -0.071,-0.071 -0.62,0.772 -1.219,1.873 m 6.428,-0.498 c -1.61,2.688 -5.577,10.297 -5.161,9.9 0.231,-0.22 0.857,-1.21 1.393,-2.2 0.536,-0.99 1.735,-3.195 2.665,-4.9 1.291,-2.367 2.151,-4.55 1.103,-2.8 m -22.859,5.202 c 0.616,1.156 1.19,2.032 1.275,1.947 0.186,-0.186 -1.383,-3.081 -1.978,-3.649 -0.23,-0.22 0.086,0.546 0.703,1.702 m 1.937,3.472 c 0.565,0.862 1.274,2.07 2.832,4.826 0.248,0.44 1.047,1.835 1.775,3.1 l 1.323,2.3 h 2.552 c 2.48,0 2.569,-0.036 3.194,-1.3 l 0.643,-1.3 -0.934,1.124 c -0.846,1.018 -1.141,1.113 -3.102,1 l -2.168,-0.124 -1.781,-3 c -0.98,-1.65 -2.217,-3.72 -2.748,-4.6 -0.532,-0.88 -1.07,-1.915 -1.196,-2.3 -0.126,-0.385 -0.409,-0.7 -0.629,-0.7 -0.219,0 -0.112,0.439 0.239,0.974 m 7.467,0.864 c -0.021,0.711 1.468,1.878 1.771,1.388 0.145,-0.234 0.047,-0.426 -0.216,-0.426 -0.264,0 -0.719,-0.315 -1.011,-0.7 -0.292,-0.385 -0.537,-0.503 -0.544,-0.262 m 6.607,2.922 c -0.568,1.122 -0.956,2.04 -0.861,2.04 0.292,0 2.264,-3.71 2.074,-3.901 -0.099,-0.098 -0.644,0.739 -1.213,1.861 m -33.42,3.319 c 0,0.336 -0.495,1.113 -1.1,1.725 -0.817,0.827 -0.89,1.004 -0.284,0.686 0.933,-0.489 2.051,-2.356 1.651,-2.756 -0.147,-0.147 -0.267,0.008 -0.267,0.345 m -30.857,1.414 c 0.857,1.602 2.055,1.725 15.657,1.608 l 13,-0.112 -13.162,-0.095 -13.162,-0.094 -1.38,-1.053 c -1.158,-0.882 -1.312,-0.924 -0.953,-0.254"
       inkscape:connector-curvature="0"
       style="fill:#c6c7c8;fill-rule:evenodd;stroke:none" />
    <path
       id="path4"
       d="m 164.06,203.449 0.151,12.648 1.38,1.152 1.379,1.151 h 13.239 c 17.384,0 15.791,1.576 15.791,-15.626 V 190.8 h -2.994 -2.994 l -0.106,11.5 -0.106,11.5 h -9.8 -9.8 l -0.106,-11.5 -0.106,-11.5 h -3.039 -3.039 l 0.15,12.649 M 206.272,192.9 c 0.617,1.155 1.213,2.19 1.325,2.3 0.112,0.11 0.428,0.605 0.703,1.1 0.275,0.495 0.725,1.305 1,1.8 0.275,0.495 0.59,0.99 0.701,1.1 0.11,0.11 0.47,0.74 0.799,1.4 0.329,0.66 0.689,1.29 0.799,1.4 0.252,0.251 1.095,1.727 2.171,3.8 0.456,0.88 0.92,1.69 1.03,1.8 0.11,0.11 0.442,0.63 0.738,1.155 1.223,2.172 2.051,3.598 3.742,6.445 l 1.782,3 2.228,0.119 c 2.093,0.111 3.91,-1.019 3.91,-2.432 0,-0.104 0.78,-1.607 1.734,-3.338 0.954,-1.732 2.515,-4.589 3.468,-6.349 0.954,-1.76 2.091,-3.83 2.528,-4.6 0.436,-0.77 1.278,-2.3 1.87,-3.4 1.476,-2.742 2.826,-5.12 3.181,-5.6 1.154,-1.564 0.879,-1.8 -2.094,-1.796 l -2.887,0.003 -1.749,3.297 c -0.962,1.813 -2.311,4.376 -2.997,5.696 -0.687,1.32 -1.349,2.49 -1.47,2.6 -0.122,0.11 -0.715,1.19 -1.319,2.4 -0.603,1.21 -1.459,2.83 -1.902,3.6 -0.443,0.77 -0.989,1.727 -1.212,2.126 -0.522,0.932 -1.292,0.354 -2.238,-1.681 -0.369,-0.795 -0.771,-1.535 -0.892,-1.645 -0.258,-0.233 -0.944,-1.419 -2.43,-4.2 -1.064,-1.992 -1.92,-3.533 -4.85,-8.736 -0.848,-1.505 -1.541,-2.9 -1.541,-3.1 0,-0.2 -1.631,-0.364 -3.625,-0.364 h -3.625 l 1.122,2.1"
       inkscape:connector-curvature="0"
       style="fill:#fafbfc;fill-rule:evenodd;stroke:none" />
  </g>
</svg>
