<svg id="svg" version="1.1" width="400" height="400" xmlns="http://www.w3.org/2000/svg" xmlns:xlink="http://www.w3.org/1999/xlink" style="display: block;"><g id="svgg"><path id="path0" d="M179.800 32.800 C 179.647 33.047,176.204 33.200,170.800 33.200 C 165.396 33.200,161.953 33.353,161.800 33.600 C 161.657 33.832,159.463 34.000,156.576 34.000 C 153.525 34.000,151.600 34.155,151.600 34.400 C 151.600 34.638,150.075 34.800,147.824 34.800 C 145.737 34.800,143.937 34.979,143.800 35.200 C 143.664 35.420,142.314 35.600,140.800 35.600 C 139.286 35.600,137.936 35.780,137.800 36.000 C 137.664 36.220,136.393 36.400,134.976 36.400 C 133.525 36.400,132.400 36.575,132.400 36.800 C 132.400 37.020,131.500 37.200,130.400 37.200 C 129.300 37.200,128.400 37.380,128.400 37.600 C 128.400 37.820,127.500 38.000,126.400 38.000 C 125.300 38.000,124.400 38.180,124.400 38.400 C 124.400 38.620,123.500 38.800,122.400 38.800 C 121.300 38.800,120.400 38.980,120.400 39.200 C 120.400 39.420,119.781 39.600,119.024 39.600 C 118.267 39.600,117.536 39.780,117.400 40.000 C 117.264 40.220,116.623 40.400,115.976 40.400 C 115.329 40.400,114.800 40.580,114.800 40.800 C 114.800 41.020,114.271 41.200,113.624 41.200 C 112.977 41.200,112.336 41.380,112.200 41.600 C 112.064 41.820,111.434 42.000,110.800 42.000 C 110.166 42.000,109.536 42.180,109.400 42.400 C 109.264 42.620,108.724 42.800,108.200 42.800 C 107.676 42.800,107.136 42.980,107.000 43.200 C 106.864 43.420,106.403 43.600,105.976 43.600 C 105.549 43.600,105.200 43.780,105.200 44.000 C 105.200 44.220,104.660 44.400,104.000 44.400 C 103.340 44.400,102.800 44.580,102.800 44.800 C 102.800 45.020,102.440 45.200,102.000 45.200 C 101.560 45.200,101.200 45.380,101.200 45.600 C 101.200 45.820,100.840 46.000,100.400 46.000 C 99.960 46.000,99.600 46.180,99.600 46.400 C 99.600 46.620,99.240 46.800,98.800 46.800 C 98.360 46.800,98.000 46.980,98.000 47.200 C 98.000 47.420,97.640 47.600,97.200 47.600 C 96.760 47.600,96.400 47.780,96.400 48.000 C 96.400 48.220,96.040 48.400,95.600 48.400 C 95.160 48.400,94.800 48.580,94.800 48.800 C 94.800 49.020,94.440 49.200,94.000 49.200 C 93.560 49.200,93.200 49.380,93.200 49.600 C 93.200 49.820,92.964 50.000,92.675 50.000 C 92.387 50.000,91.764 50.360,91.292 50.800 C 90.820 51.240,90.196 51.600,89.905 51.600 C 89.614 51.600,89.117 51.960,88.800 52.400 C 88.483 52.840,88.011 53.200,87.752 53.200 C 87.493 53.200,86.362 54.100,85.239 55.200 C 84.115 56.300,83.040 57.200,82.849 57.200 C 82.658 57.200,81.746 58.055,80.822 59.100 C 79.898 60.145,78.525 61.678,77.771 62.507 C 77.017 63.335,76.400 64.145,76.399 64.307 C 76.399 64.468,75.859 65.230,75.200 66.000 C 74.541 66.770,74.001 67.625,74.001 67.900 C 74.000 68.175,73.820 68.400,73.600 68.400 C 73.380 68.400,73.200 68.760,73.200 69.200 C 73.200 69.640,73.065 70.001,72.900 70.003 C 72.541 70.007,71.600 71.944,71.600 72.680 C 71.600 72.966,71.420 73.200,71.200 73.200 C 70.980 73.200,70.800 73.560,70.800 74.000 C 70.800 74.440,70.620 74.800,70.400 74.800 C 70.180 74.800,70.000 75.149,70.000 75.576 C 70.000 76.003,69.820 76.464,69.600 76.600 C 69.380 76.736,69.200 77.276,69.200 77.800 C 69.200 78.324,69.020 78.864,68.800 79.000 C 68.580 79.136,68.400 79.867,68.400 80.624 C 68.400 81.381,68.220 82.000,68.000 82.000 C 67.780 82.000,67.600 82.709,67.600 83.576 C 67.600 84.443,67.420 85.264,67.200 85.400 C 66.980 85.536,66.800 86.807,66.800 88.224 C 66.800 89.675,66.625 90.800,66.400 90.800 C 65.846 90.800,65.846 273.857,66.400 274.200 C 66.620 274.336,66.800 275.427,66.800 276.624 C 66.800 277.821,66.980 278.800,67.200 278.800 C 67.420 278.800,67.600 279.329,67.600 279.976 C 67.600 280.623,67.780 281.264,68.000 281.400 C 68.220 281.536,68.400 282.076,68.400 282.600 C 68.400 283.124,68.580 283.664,68.800 283.800 C 69.020 283.936,69.200 284.487,69.200 285.024 C 69.200 285.561,69.380 286.000,69.600 286.000 C 69.820 286.000,70.000 286.253,70.000 286.562 C 70.000 287.228,71.668 290.541,72.100 290.733 C 72.265 290.807,72.400 291.212,72.400 291.633 C 72.400 292.055,72.580 292.400,72.800 292.400 C 73.020 292.400,73.200 292.720,73.200 293.112 C 73.200 293.503,73.560 294.083,74.000 294.400 C 74.440 294.717,74.800 295.169,74.800 295.404 C 74.800 295.640,75.520 296.628,76.400 297.600 C 77.280 298.572,78.000 299.520,78.000 299.706 C 78.000 299.892,79.080 301.104,80.400 302.400 L 82.800 304.756 82.800 321.383 C 82.800 330.929,82.959 338.307,83.174 338.705 C 83.379 339.087,83.783 339.985,84.071 340.700 C 84.360 341.415,84.731 342.000,84.898 342.000 C 85.064 342.000,85.200 342.273,85.200 342.607 C 85.200 343.399,90.201 348.400,90.993 348.400 C 91.327 348.400,91.600 348.580,91.600 348.800 C 91.600 349.020,91.960 349.200,92.400 349.200 C 92.840 349.200,93.200 349.380,93.200 349.600 C 93.200 349.820,93.740 350.000,94.400 350.000 C 95.060 350.000,95.600 350.180,95.600 350.400 C 95.600 350.948,120.661 350.948,121.000 350.400 C 121.136 350.180,121.777 350.000,122.424 350.000 C 123.071 350.000,123.600 349.820,123.600 349.600 C 123.600 349.380,123.960 349.200,124.400 349.200 C 124.840 349.200,125.200 349.020,125.200 348.800 C 125.200 348.580,125.473 348.400,125.807 348.400 C 126.599 348.400,131.600 343.399,131.600 342.607 C 131.600 342.273,131.780 342.000,132.000 342.000 C 132.220 342.000,132.400 341.640,132.400 341.200 C 132.400 340.760,132.580 340.400,132.800 340.400 C 133.020 340.400,133.200 339.860,133.200 339.200 C 133.200 338.540,133.380 338.000,133.600 338.000 C 133.856 338.000,134.000 334.267,134.000 327.600 L 134.000 317.200 200.000 317.200 L 266.000 317.200 266.000 327.600 C 266.000 334.267,266.144 338.000,266.400 338.000 C 266.620 338.000,266.800 338.540,266.800 339.200 C 266.800 339.860,266.980 340.400,267.200 340.400 C 267.420 340.400,267.600 340.760,267.600 341.200 C 267.600 341.640,267.780 342.000,268.000 342.000 C 268.220 342.000,268.400 342.273,268.400 342.607 C 268.400 343.399,273.401 348.400,274.193 348.400 C 274.527 348.400,274.800 348.580,274.800 348.800 C 274.800 349.020,275.160 349.200,275.600 349.200 C 276.040 349.200,276.400 349.380,276.400 349.600 C 276.400 349.820,276.929 350.000,277.576 350.000 C 278.223 350.000,278.864 350.180,279.000 350.400 C 279.339 350.948,304.400 350.948,304.400 350.400 C 304.400 350.180,304.940 350.000,305.600 350.000 C 306.260 350.000,306.800 349.820,306.800 349.600 C 306.800 349.380,307.160 349.200,307.600 349.200 C 308.040 349.200,308.400 349.020,308.400 348.800 C 308.400 348.580,308.673 348.400,309.007 348.400 C 309.799 348.400,314.800 343.399,314.800 342.607 C 314.800 342.273,314.980 342.000,315.200 342.000 C 315.420 342.000,315.600 341.640,315.600 341.200 C 315.600 340.760,315.780 340.400,316.000 340.400 C 316.220 340.400,316.400 340.051,316.400 339.624 C 316.400 339.197,316.580 338.736,316.800 338.600 C 317.056 338.442,317.200 332.321,317.200 321.550 L 317.200 304.748 319.111 302.874 C 320.162 301.843,321.465 300.370,322.007 299.600 C 322.548 298.830,323.488 297.678,324.096 297.041 C 324.703 296.403,325.200 295.721,325.200 295.524 C 325.200 295.327,325.560 294.780,326.000 294.308 C 326.440 293.836,326.800 293.213,326.800 292.925 C 326.800 292.636,326.980 292.400,327.200 292.400 C 327.420 292.400,327.600 292.055,327.600 291.633 C 327.600 291.212,327.735 290.807,327.900 290.733 C 328.332 290.541,330.000 287.228,330.000 286.562 C 330.000 286.253,330.180 286.000,330.400 286.000 C 330.620 286.000,330.800 285.561,330.800 285.024 C 330.800 284.487,330.980 283.936,331.200 283.800 C 331.420 283.664,331.600 283.124,331.600 282.600 C 331.600 282.076,331.780 281.536,332.000 281.400 C 332.220 281.264,332.400 280.634,332.400 280.000 C 332.400 279.366,332.580 278.736,332.800 278.600 C 333.020 278.464,333.200 277.474,333.200 276.400 C 333.200 275.326,333.380 274.336,333.600 274.200 C 333.865 274.036,334.000 242.996,334.000 182.376 C 334.000 121.592,333.866 90.800,333.600 90.800 C 333.375 90.800,333.200 89.675,333.200 88.224 C 333.200 86.807,333.020 85.536,332.800 85.400 C 332.580 85.264,332.400 84.443,332.400 83.576 C 332.400 82.709,332.220 82.000,332.000 82.000 C 331.780 82.000,331.600 81.458,331.600 80.795 C 331.600 80.132,331.420 79.232,331.200 78.795 C 330.980 78.358,330.620 77.642,330.400 77.205 C 330.180 76.768,330.000 76.048,330.000 75.605 C 330.000 75.162,329.820 74.800,329.600 74.800 C 329.380 74.800,329.200 74.440,329.200 74.000 C 329.200 73.560,329.020 73.200,328.800 73.200 C 328.580 73.200,328.400 72.966,328.400 72.680 C 328.400 71.944,327.459 70.007,327.100 70.003 C 326.935 70.001,326.800 69.640,326.800 69.200 C 326.800 68.760,326.620 68.400,326.400 68.400 C 326.180 68.400,326.000 68.175,325.999 67.900 C 325.999 67.625,325.459 66.770,324.800 66.000 C 324.141 65.230,323.601 64.468,323.601 64.307 C 323.600 64.145,322.983 63.335,322.229 62.507 C 321.475 61.678,320.102 60.145,319.178 59.100 C 318.254 58.055,317.342 57.200,317.151 57.200 C 316.960 57.200,315.885 56.300,314.761 55.200 C 313.638 54.100,312.507 53.200,312.248 53.200 C 311.989 53.200,311.517 52.840,311.200 52.400 C 310.883 51.960,310.386 51.600,310.095 51.600 C 309.804 51.600,309.180 51.240,308.708 50.800 C 308.236 50.360,307.613 50.000,307.325 50.000 C 307.036 50.000,306.800 49.820,306.800 49.600 C 306.800 49.380,306.440 49.200,306.000 49.200 C 305.560 49.200,305.200 49.020,305.200 48.800 C 305.200 48.580,304.840 48.400,304.400 48.400 C 303.960 48.400,303.600 48.220,303.600 48.000 C 303.600 47.780,303.240 47.600,302.800 47.600 C 302.360 47.600,302.000 47.420,302.000 47.200 C 302.000 46.980,301.640 46.800,301.200 46.800 C 300.760 46.800,300.400 46.620,300.400 46.400 C 300.400 46.180,300.040 46.000,299.600 46.000 C 299.160 46.000,298.800 45.820,298.800 45.600 C 298.800 45.380,298.440 45.200,298.000 45.200 C 297.560 45.200,297.200 45.020,297.200 44.800 C 297.200 44.580,296.660 44.400,296.000 44.400 C 295.340 44.400,294.800 44.220,294.800 44.000 C 294.800 43.780,294.451 43.600,294.024 43.600 C 293.597 43.600,293.136 43.420,293.000 43.200 C 292.864 42.980,292.324 42.800,291.800 42.800 C 291.276 42.800,290.736 42.620,290.600 42.400 C 290.464 42.180,289.834 42.000,289.200 42.000 C 288.566 42.000,287.936 41.820,287.800 41.600 C 287.664 41.380,287.023 41.200,286.376 41.200 C 285.729 41.200,285.200 41.020,285.200 40.800 C 285.200 40.580,284.671 40.400,284.024 40.400 C 283.377 40.400,282.736 40.220,282.600 40.000 C 282.464 39.780,281.733 39.600,280.976 39.600 C 280.219 39.600,279.600 39.420,279.600 39.200 C 279.600 38.980,278.700 38.800,277.600 38.800 C 276.500 38.800,275.600 38.620,275.600 38.400 C 275.600 38.180,274.700 38.000,273.600 38.000 C 272.500 38.000,271.600 37.820,271.600 37.600 C 271.600 37.380,270.700 37.200,269.600 37.200 C 268.500 37.200,267.600 37.020,267.600 36.800 C 267.600 36.575,266.475 36.400,265.024 36.400 C 263.607 36.400,262.336 36.220,262.200 36.000 C 262.064 35.780,260.714 35.600,259.200 35.600 C 257.686 35.600,256.336 35.420,256.200 35.200 C 256.063 34.979,254.263 34.800,252.176 34.800 C 249.925 34.800,248.400 34.638,248.400 34.400 C 248.400 34.155,246.475 34.000,243.424 34.000 C 240.537 34.000,238.343 33.832,238.200 33.600 C 238.047 33.353,234.537 33.200,229.000 33.200 C 223.463 33.200,219.953 33.047,219.800 32.800 C 219.641 32.542,212.537 32.400,199.800 32.400 C 187.063 32.400,179.959 32.542,179.800 32.800 M299.600 141.600 L 299.600 182.800 200.000 182.800 L 100.400 182.800 100.400 141.600 L 100.400 100.400 200.000 100.400 L 299.600 100.400 299.600 141.600 M127.800 234.400 C 127.936 234.620,128.847 234.800,129.824 234.800 C 130.801 234.800,131.600 234.980,131.600 235.200 C 131.600 235.420,132.140 235.600,132.800 235.600 C 133.460 235.600,134.000 235.780,134.000 236.000 C 134.000 236.220,134.360 236.400,134.800 236.400 C 135.240 236.400,135.600 236.580,135.600 236.800 C 135.600 237.020,135.960 237.200,136.400 237.200 C 136.840 237.200,137.200 237.350,137.200 237.532 C 137.200 237.715,137.692 238.120,138.293 238.432 C 139.706 239.166,144.034 243.494,144.768 244.907 C 145.080 245.508,145.485 246.000,145.668 246.000 C 145.850 246.000,146.000 246.360,146.000 246.800 C 146.000 247.240,146.180 247.600,146.400 247.600 C 146.620 247.600,146.800 247.960,146.800 248.400 C 146.800 248.840,146.980 249.200,147.200 249.200 C 147.420 249.200,147.600 249.639,147.600 250.176 C 147.600 250.713,147.780 251.264,148.000 251.400 C 148.220 251.536,148.400 252.256,148.400 253.000 C 148.400 253.744,148.580 254.464,148.800 254.600 C 149.020 254.736,149.200 256.457,149.200 258.424 C 149.200 260.541,149.037 262.000,148.800 262.000 C 148.580 262.000,148.400 262.720,148.400 263.600 C 148.400 264.480,148.220 265.200,148.000 265.200 C 147.780 265.200,147.600 265.740,147.600 266.400 C 147.600 267.060,147.420 267.600,147.200 267.600 C 146.980 267.600,146.800 267.960,146.800 268.400 C 146.800 268.840,146.620 269.200,146.400 269.200 C 146.180 269.200,146.000 269.520,146.000 269.912 C 146.000 270.303,145.640 270.883,145.200 271.200 C 144.760 271.517,144.400 271.997,144.400 272.266 C 144.400 272.956,139.278 278.000,138.578 278.000 C 138.260 278.000,138.000 278.159,138.000 278.353 C 138.000 278.548,137.685 278.807,137.300 278.929 C 136.915 279.051,136.060 279.459,135.400 279.836 C 133.411 280.972,132.847 281.200,132.029 281.200 C 131.599 281.200,131.136 281.380,131.000 281.600 C 130.864 281.820,129.964 282.000,129.000 282.000 C 128.036 282.000,127.136 282.180,127.000 282.400 C 126.864 282.620,125.863 282.800,124.776 282.800 C 123.689 282.800,122.800 282.620,122.800 282.400 C 122.800 282.180,121.900 282.000,120.800 282.000 C 119.700 282.000,118.800 281.820,118.800 281.600 C 118.800 281.380,118.260 281.200,117.600 281.200 C 116.940 281.200,116.400 281.020,116.400 280.800 C 116.400 280.580,116.040 280.400,115.600 280.400 C 115.160 280.400,114.800 280.220,114.800 280.000 C 114.800 279.780,114.440 279.600,114.000 279.600 C 113.560 279.600,113.200 279.420,113.200 279.200 C 113.200 278.980,112.917 278.800,112.571 278.800 C 111.808 278.800,105.609 272.638,104.825 271.100 C 104.517 270.495,104.115 270.000,103.932 270.000 C 103.750 270.000,103.600 269.640,103.600 269.200 C 103.600 268.760,103.420 268.400,103.200 268.400 C 102.980 268.400,102.800 268.051,102.800 267.624 C 102.800 267.197,102.620 266.736,102.400 266.600 C 102.180 266.464,102.000 265.834,102.000 265.200 C 102.000 264.566,101.820 263.936,101.600 263.800 C 101.366 263.655,101.200 261.337,101.200 258.200 C 101.200 255.063,101.366 252.745,101.600 252.600 C 101.820 252.464,102.000 251.823,102.000 251.176 C 102.000 250.529,102.180 250.000,102.400 250.000 C 102.620 250.000,102.800 249.640,102.800 249.200 C 102.800 248.760,102.980 248.400,103.200 248.400 C 103.420 248.400,103.600 248.040,103.600 247.600 C 103.600 247.160,103.780 246.800,104.000 246.800 C 104.220 246.800,104.400 246.528,104.400 246.196 C 104.400 245.864,104.940 245.028,105.600 244.337 C 106.260 243.646,106.800 242.922,106.800 242.727 C 106.800 242.173,109.513 239.600,110.098 239.600 C 110.387 239.600,110.883 239.240,111.200 238.800 C 111.517 238.360,112.082 238.000,112.455 238.000 C 112.828 238.000,113.193 237.865,113.267 237.700 C 113.459 237.268,116.772 235.600,117.438 235.600 C 117.747 235.600,118.000 235.420,118.000 235.200 C 118.000 234.980,118.900 234.800,120.000 234.800 C 121.100 234.800,122.000 234.620,122.000 234.400 C 122.000 234.172,123.192 234.000,124.776 234.000 C 126.303 234.000,127.664 234.180,127.800 234.400 M278.000 234.400 C 278.000 234.620,278.900 234.800,280.000 234.800 C 281.100 234.800,282.000 234.980,282.000 235.200 C 282.000 235.420,282.253 235.600,282.562 235.600 C 283.228 235.600,286.541 237.268,286.733 237.700 C 286.807 237.865,287.172 238.000,287.545 238.000 C 287.918 238.000,288.483 238.360,288.800 238.800 C 289.117 239.240,289.572 239.600,289.810 239.600 C 290.368 239.600,293.200 242.186,293.200 242.695 C 293.200 242.907,293.740 243.646,294.400 244.337 C 295.060 245.028,295.600 245.864,295.600 246.196 C 295.600 246.528,295.780 246.800,296.000 246.800 C 296.220 246.800,296.400 247.160,296.400 247.600 C 296.400 248.040,296.580 248.400,296.800 248.400 C 297.020 248.400,297.200 248.760,297.200 249.200 C 297.200 249.640,297.380 250.000,297.600 250.000 C 297.820 250.000,298.000 250.529,298.000 251.176 C 298.000 251.823,298.180 252.464,298.400 252.600 C 298.634 252.745,298.800 255.063,298.800 258.200 C 298.800 261.337,298.634 263.655,298.400 263.800 C 298.180 263.936,298.000 264.566,298.000 265.200 C 298.000 265.834,297.820 266.464,297.600 266.600 C 297.380 266.736,297.200 267.197,297.200 267.624 C 297.200 268.051,297.020 268.400,296.800 268.400 C 296.580 268.400,296.400 268.760,296.400 269.200 C 296.400 269.640,296.250 270.000,296.068 270.000 C 295.885 270.000,295.483 270.495,295.175 271.100 C 294.391 272.638,288.192 278.800,287.429 278.800 C 287.083 278.800,286.800 278.980,286.800 279.200 C 286.800 279.420,286.440 279.600,286.000 279.600 C 285.560 279.600,285.200 279.780,285.200 280.000 C 285.200 280.220,284.840 280.400,284.400 280.400 C 283.960 280.400,283.600 280.580,283.600 280.800 C 283.600 281.020,283.060 281.200,282.400 281.200 C 281.740 281.200,281.200 281.380,281.200 281.600 C 281.200 281.820,280.300 282.000,279.200 282.000 C 278.100 282.000,277.200 282.180,277.200 282.400 C 277.200 282.620,276.311 282.800,275.224 282.800 C 274.137 282.800,273.136 282.620,273.000 282.400 C 272.864 282.180,271.964 282.000,271.000 282.000 C 270.036 282.000,269.136 281.820,269.000 281.600 C 268.864 281.380,268.401 281.200,267.971 281.200 C 267.153 281.200,266.589 280.972,264.600 279.836 C 263.940 279.459,263.085 279.051,262.700 278.929 C 262.315 278.807,262.000 278.548,262.000 278.353 C 262.000 278.159,261.751 278.000,261.446 278.000 C 260.722 278.000,255.600 273.022,255.600 272.319 C 255.600 272.021,255.240 271.517,254.800 271.200 C 254.360 270.883,254.000 270.303,254.000 269.912 C 254.000 269.520,253.820 269.200,253.600 269.200 C 253.380 269.200,253.200 268.840,253.200 268.400 C 253.200 267.960,253.020 267.600,252.800 267.600 C 252.580 267.600,252.400 267.060,252.400 266.400 C 252.400 265.740,252.220 265.200,252.000 265.200 C 251.780 265.200,251.600 264.581,251.600 263.824 C 251.600 263.067,251.420 262.336,251.200 262.200 C 250.980 262.064,250.800 260.354,250.800 258.400 C 250.800 256.446,250.980 254.736,251.200 254.600 C 251.420 254.464,251.600 253.744,251.600 253.000 C 251.600 252.256,251.780 251.536,252.000 251.400 C 252.220 251.264,252.400 250.713,252.400 250.176 C 252.400 249.639,252.580 249.200,252.800 249.200 C 253.020 249.200,253.200 248.840,253.200 248.400 C 253.200 247.960,253.380 247.600,253.600 247.600 C 253.820 247.600,254.000 247.240,254.000 246.800 C 254.000 246.360,254.150 246.000,254.332 246.000 C 254.515 246.000,254.920 245.505,255.232 244.900 C 255.976 243.459,261.521 238.000,262.241 238.000 C 262.548 238.000,262.800 237.820,262.800 237.600 C 262.800 237.380,263.160 237.200,263.600 237.200 C 264.040 237.200,264.400 237.020,264.400 236.800 C 264.400 236.580,264.760 236.400,265.200 236.400 C 265.640 236.400,266.000 236.220,266.000 236.000 C 266.000 235.780,266.540 235.600,267.200 235.600 C 267.860 235.600,268.400 235.420,268.400 235.200 C 268.400 234.980,269.199 234.800,270.176 234.800 C 271.153 234.800,272.064 234.620,272.200 234.400 C 272.336 234.180,273.697 234.000,275.224 234.000 C 276.808 234.000,278.000 234.172,278.000 234.400 " stroke="none" fill="#000000" fill-rule="evenodd"></path><path id="path1" d="M179.800 32.800 C 179.647 33.047,176.204 33.200,170.800 33.200 C 165.396 33.200,161.953 33.353,161.800 33.600 C 161.657 33.832,159.463 34.000,156.576 34.000 C 153.525 34.000,151.600 34.155,151.600 34.400 C 151.600 34.638,150.075 34.800,147.824 34.800 C 145.737 34.800,143.937 34.979,143.800 35.200 C 143.664 35.420,142.314 35.600,140.800 35.600 C 139.286 35.600,137.936 35.780,137.800 36.000 C 137.664 36.220,136.393 36.400,134.976 36.400 C 133.525 36.400,132.400 36.575,132.400 36.800 C 132.400 37.020,131.500 37.200,130.400 37.200 C 129.300 37.200,128.400 37.380,128.400 37.600 C 128.400 37.820,127.500 38.000,126.400 38.000 C 125.300 38.000,124.400 38.180,124.400 38.400 C 124.400 38.620,123.500 38.800,122.400 38.800 C 121.300 38.800,120.400 38.980,120.400 39.200 C 120.400 39.420,119.781 39.600,119.024 39.600 C 118.267 39.600,117.536 39.780,117.400 40.000 C 117.264 40.220,116.623 40.400,115.976 40.400 C 115.329 40.400,114.800 40.580,114.800 40.800 C 114.800 41.020,114.271 41.200,113.624 41.200 C 112.977 41.200,112.336 41.380,112.200 41.600 C 112.064 41.820,111.434 42.000,110.800 42.000 C 110.166 42.000,109.536 42.180,109.400 42.400 C 109.264 42.620,108.724 42.800,108.200 42.800 C 107.676 42.800,107.136 42.980,107.000 43.200 C 106.864 43.420,106.403 43.600,105.976 43.600 C 105.549 43.600,105.200 43.780,105.200 44.000 C 105.200 44.220,104.660 44.400,104.000 44.400 C 103.340 44.400,102.800 44.580,102.800 44.800 C 102.800 45.020,102.440 45.200,102.000 45.200 C 101.560 45.200,101.200 45.380,101.200 45.600 C 101.200 45.820,100.840 46.000,100.400 46.000 C 99.960 46.000,99.600 46.180,99.600 46.400 C 99.600 46.620,99.240 46.800,98.800 46.800 C 98.360 46.800,98.000 46.980,98.000 47.200 C 98.000 47.420,97.640 47.600,97.200 47.600 C 96.760 47.600,96.400 47.780,96.400 48.000 C 96.400 48.220,96.040 48.400,95.600 48.400 C 95.160 48.400,94.800 48.580,94.800 48.800 C 94.800 49.020,94.440 49.200,94.000 49.200 C 93.560 49.200,93.200 49.380,93.200 49.600 C 93.200 49.820,92.964 50.000,92.675 50.000 C 92.387 50.000,91.764 50.360,91.292 50.800 C 90.820 51.240,90.196 51.600,89.905 51.600 C 89.614 51.600,89.117 51.960,88.800 52.400 C 88.483 52.840,88.011 53.200,87.752 53.200 C 87.493 53.200,86.362 54.100,85.239 55.200 C 84.115 56.300,83.040 57.200,82.849 57.200 C 82.658 57.200,81.746 58.055,80.822 59.100 C 79.898 60.145,78.525 61.678,77.771 62.507 C 77.017 63.335,76.400 64.145,76.399 64.307 C 76.399 64.468,75.859 65.230,75.200 66.000 C 74.541 66.770,74.001 67.625,74.001 67.900 C 74.000 68.175,73.820 68.400,73.600 68.400 C 73.380 68.400,73.200 68.760,73.200 69.200 C 73.200 69.640,73.065 70.001,72.900 70.003 C 72.541 70.007,71.600 71.944,71.600 72.680 C 71.600 72.966,71.420 73.200,71.200 73.200 C 70.980 73.200,70.800 73.560,70.800 74.000 C 70.800 74.440,70.620 74.800,70.400 74.800 C 70.180 74.800,70.000 75.149,70.000 75.576 C 70.000 76.003,69.820 76.464,69.600 76.600 C 69.380 76.736,69.200 77.276,69.200 77.800 C 69.200 78.324,69.020 78.864,68.800 79.000 C 68.580 79.136,68.400 79.867,68.400 80.624 C 68.400 81.381,68.220 82.000,68.000 82.000 C 67.780 82.000,67.600 82.709,67.600 83.576 C 67.600 84.443,67.420 85.264,67.200 85.400 C 66.980 85.536,66.800 86.807,66.800 88.224 C 66.800 89.675,66.625 90.800,66.400 90.800 C 65.846 90.800,65.846 273.857,66.400 274.200 C 66.620 274.336,66.800 275.427,66.800 276.624 C 66.800 277.821,66.980 278.800,67.200 278.800 C 67.420 278.800,67.600 279.329,67.600 279.976 C 67.600 280.623,67.780 281.264,68.000 281.400 C 68.220 281.536,68.400 282.076,68.400 282.600 C 68.400 283.124,68.580 283.664,68.800 283.800 C 69.020 283.936,69.200 284.487,69.200 285.024 C 69.200 285.561,69.380 286.000,69.600 286.000 C 69.820 286.000,70.000 286.253,70.000 286.562 C 70.000 287.228,71.668 290.541,72.100 290.733 C 72.265 290.807,72.400 291.212,72.400 291.633 C 72.400 292.055,72.580 292.400,72.800 292.400 C 73.020 292.400,73.200 292.720,73.200 293.112 C 73.200 293.503,73.560 294.083,74.000 294.400 C 74.440 294.717,74.800 295.169,74.800 295.404 C 74.800 295.640,75.520 296.628,76.400 297.600 C 77.280 298.572,78.000 299.520,78.000 299.706 C 78.000 299.892,79.080 301.104,80.400 302.400 L 82.800 304.756 82.800 321.383 C 82.800 330.929,82.959 338.307,83.174 338.705 C 83.379 339.087,83.783 339.985,84.071 340.700 C 84.360 341.415,84.731 342.000,84.898 342.000 C 85.064 342.000,85.200 342.273,85.200 342.607 C 85.200 343.399,90.201 348.400,90.993 348.400 C 91.327 348.400,91.600 348.580,91.600 348.800 C 91.600 349.020,91.960 349.200,92.400 349.200 C 92.840 349.200,93.200 349.380,93.200 349.600 C 93.200 349.820,93.740 350.000,94.400 350.000 C 95.060 350.000,95.600 350.180,95.600 350.400 C 95.600 350.948,120.661 350.948,121.000 350.400 C 121.136 350.180,121.777 350.000,122.424 350.000 C 123.071 350.000,123.600 349.820,123.600 349.600 C 123.600 349.380,123.960 349.200,124.400 349.200 C 124.840 349.200,125.200 349.020,125.200 348.800 C 125.200 348.580,125.473 348.400,125.807 348.400 C 126.599 348.400,131.600 343.399,131.600 342.607 C 131.600 342.273,131.780 342.000,132.000 342.000 C 132.220 342.000,132.400 341.640,132.400 341.200 C 132.400 340.760,132.580 340.400,132.800 340.400 C 133.020 340.400,133.200 339.860,133.200 339.200 C 133.200 338.540,133.380 338.000,133.600 338.000 C 133.856 338.000,134.000 334.267,134.000 327.600 L 134.000 317.200 200.000 317.200 L 266.000 317.200 266.000 327.600 C 266.000 334.267,266.144 338.000,266.400 338.000 C 266.620 338.000,266.800 338.540,266.800 339.200 C 266.800 339.860,266.980 340.400,267.200 340.400 C 267.420 340.400,267.600 340.760,267.600 341.200 C 267.600 341.640,267.780 342.000,268.000 342.000 C 268.220 342.000,268.400 342.273,268.400 342.607 C 268.400 343.399,273.401 348.400,274.193 348.400 C 274.527 348.400,274.800 348.580,274.800 348.800 C 274.800 349.020,275.160 349.200,275.600 349.200 C 276.040 349.200,276.400 349.380,276.400 349.600 C 276.400 349.820,276.929 350.000,277.576 350.000 C 278.223 350.000,278.864 350.180,279.000 350.400 C 279.339 350.948,304.400 350.948,304.400 350.400 C 304.400 350.180,304.940 350.000,305.600 350.000 C 306.260 350.000,306.800 349.820,306.800 349.600 C 306.800 349.380,307.160 349.200,307.600 349.200 C 308.040 349.200,308.400 349.020,308.400 348.800 C 308.400 348.580,308.673 348.400,309.007 348.400 C 309.799 348.400,314.800 343.399,314.800 342.607 C 314.800 342.273,314.980 342.000,315.200 342.000 C 315.420 342.000,315.600 341.640,315.600 341.200 C 315.600 340.760,315.780 340.400,316.000 340.400 C 316.220 340.400,316.400 340.051,316.400 339.624 C 316.400 339.197,316.580 338.736,316.800 338.600 C 317.056 338.442,317.200 332.321,317.200 321.550 L 317.200 304.748 319.111 302.874 C 320.162 301.843,321.465 300.370,322.007 299.600 C 322.548 298.830,323.488 297.678,324.096 297.041 C 324.703 296.403,325.200 295.721,325.200 295.524 C 325.200 295.327,325.560 294.780,326.000 294.308 C 326.440 293.836,326.800 293.213,326.800 292.925 C 326.800 292.636,326.980 292.400,327.200 292.400 C 327.420 292.400,327.600 292.055,327.600 291.633 C 327.600 291.212,327.735 290.807,327.900 290.733 C 328.332 290.541,330.000 287.228,330.000 286.562 C 330.000 286.253,330.180 286.000,330.400 286.000 C 330.620 286.000,330.800 285.561,330.800 285.024 C 330.800 284.487,330.980 283.936,331.200 283.800 C 331.420 283.664,331.600 283.124,331.600 282.600 C 331.600 282.076,331.780 281.536,332.000 281.400 C 332.220 281.264,332.400 280.634,332.400 280.000 C 332.400 279.366,332.580 278.736,332.800 278.600 C 333.020 278.464,333.200 277.474,333.200 276.400 C 333.200 275.326,333.380 274.336,333.600 274.200 C 333.865 274.036,334.000 242.996,334.000 182.376 C 334.000 121.592,333.866 90.800,333.600 90.800 C 333.375 90.800,333.200 89.675,333.200 88.224 C 333.200 86.807,333.020 85.536,332.800 85.400 C 332.580 85.264,332.400 84.443,332.400 83.576 C 332.400 82.709,332.220 82.000,332.000 82.000 C 331.780 82.000,331.600 81.458,331.600 80.795 C 331.600 80.132,331.420 79.232,331.200 78.795 C 330.980 78.358,330.620 77.642,330.400 77.205 C 330.180 76.768,330.000 76.048,330.000 75.605 C 330.000 75.162,329.820 74.800,329.600 74.800 C 329.380 74.800,329.200 74.440,329.200 74.000 C 329.200 73.560,329.020 73.200,328.800 73.200 C 328.580 73.200,328.400 72.966,328.400 72.680 C 328.400 71.944,327.459 70.007,327.100 70.003 C 326.935 70.001,326.800 69.640,326.800 69.200 C 326.800 68.760,326.620 68.400,326.400 68.400 C 326.180 68.400,326.000 68.175,325.999 67.900 C 325.999 67.625,325.459 66.770,324.800 66.000 C 324.141 65.230,323.601 64.468,323.601 64.307 C 323.600 64.145,322.983 63.335,322.229 62.507 C 321.475 61.678,320.102 60.145,319.178 59.100 C 318.254 58.055,317.342 57.200,317.151 57.200 C 316.960 57.200,315.885 56.300,314.761 55.200 C 313.638 54.100,312.507 53.200,312.248 53.200 C 311.989 53.200,311.517 52.840,311.200 52.400 C 310.883 51.960,310.386 51.600,310.095 51.600 C 309.804 51.600,309.180 51.240,308.708 50.800 C 308.236 50.360,307.613 50.000,307.325 50.000 C 307.036 50.000,306.800 49.820,306.800 49.600 C 306.800 49.380,306.440 49.200,306.000 49.200 C 305.560 49.200,305.200 49.020,305.200 48.800 C 305.200 48.580,304.840 48.400,304.400 48.400 C 303.960 48.400,303.600 48.220,303.600 48.000 C 303.600 47.780,303.240 47.600,302.800 47.600 C 302.360 47.600,302.000 47.420,302.000 47.200 C 302.000 46.980,301.640 46.800,301.200 46.800 C 300.760 46.800,300.400 46.620,300.400 46.400 C 300.400 46.180,300.040 46.000,299.600 46.000 C 299.160 46.000,298.800 45.820,298.800 45.600 C 298.800 45.380,298.440 45.200,298.000 45.200 C 297.560 45.200,297.200 45.020,297.200 44.800 C 297.200 44.580,296.660 44.400,296.000 44.400 C 295.340 44.400,294.800 44.220,294.800 44.000 C 294.800 43.780,294.451 43.600,294.024 43.600 C 293.597 43.600,293.136 43.420,293.000 43.200 C 292.864 42.980,292.324 42.800,291.800 42.800 C 291.276 42.800,290.736 42.620,290.600 42.400 C 290.464 42.180,289.834 42.000,289.200 42.000 C 288.566 42.000,287.936 41.820,287.800 41.600 C 287.664 41.380,287.023 41.200,286.376 41.200 C 285.729 41.200,285.200 41.020,285.200 40.800 C 285.200 40.580,284.671 40.400,284.024 40.400 C 283.377 40.400,282.736 40.220,282.600 40.000 C 282.464 39.780,281.733 39.600,280.976 39.600 C 280.219 39.600,279.600 39.420,279.600 39.200 C 279.600 38.980,278.700 38.800,277.600 38.800 C 276.500 38.800,275.600 38.620,275.600 38.400 C 275.600 38.180,274.700 38.000,273.600 38.000 C 272.500 38.000,271.600 37.820,271.600 37.600 C 271.600 37.380,270.700 37.200,269.600 37.200 C 268.500 37.200,267.600 37.020,267.600 36.800 C 267.600 36.575,266.475 36.400,265.024 36.400 C 263.607 36.400,262.336 36.220,262.200 36.000 C 262.064 35.780,260.714 35.600,259.200 35.600 C 257.686 35.600,256.336 35.420,256.200 35.200 C 256.063 34.979,254.263 34.800,252.176 34.800 C 249.925 34.800,248.400 34.638,248.400 34.400 C 248.400 34.155,246.475 34.000,243.424 34.000 C 240.537 34.000,238.343 33.832,238.200 33.600 C 238.047 33.353,234.537 33.200,229.000 33.200 C 223.463 33.200,219.953 33.047,219.800 32.800 C 219.641 32.542,212.537 32.400,199.800 32.400 C 187.063 32.400,179.959 32.542,179.800 32.800 M299.600 141.600 L 299.600 182.800 200.000 182.800 L 100.400 182.800 100.400 141.600 L 100.400 100.400 200.000 100.400 L 299.600 100.400 299.600 141.600 M127.800 234.400 C 127.936 234.620,128.847 234.800,129.824 234.800 C 130.801 234.800,131.600 234.980,131.600 235.200 C 131.600 235.420,132.140 235.600,132.800 235.600 C 133.460 235.600,134.000 235.780,134.000 236.000 C 134.000 236.220,134.360 236.400,134.800 236.400 C 135.240 236.400,135.600 236.580,135.600 236.800 C 135.600 237.020,135.960 237.200,136.400 237.200 C 136.840 237.200,137.200 237.350,137.200 237.532 C 137.200 237.715,137.692 238.120,138.293 238.432 C 139.706 239.166,144.034 243.494,144.768 244.907 C 145.080 245.508,145.485 246.000,145.668 246.000 C 145.850 246.000,146.000 246.360,146.000 246.800 C 146.000 247.240,146.180 247.600,146.400 247.600 C 146.620 247.600,146.800 247.960,146.800 248.400 C 146.800 248.840,146.980 249.200,147.200 249.200 C 147.420 249.200,147.600 249.639,147.600 250.176 C 147.600 250.713,147.780 251.264,148.000 251.400 C 148.220 251.536,148.400 252.256,148.400 253.000 C 148.400 253.744,148.580 254.464,148.800 254.600 C 149.020 254.736,149.200 256.457,149.200 258.424 C 149.200 260.541,149.037 262.000,148.800 262.000 C 148.580 262.000,148.400 262.720,148.400 263.600 C 148.400 264.480,148.220 265.200,148.000 265.200 C 147.780 265.200,147.600 265.740,147.600 266.400 C 147.600 267.060,147.420 267.600,147.200 267.600 C 146.980 267.600,146.800 267.960,146.800 268.400 C 146.800 268.840,146.620 269.200,146.400 269.200 C 146.180 269.200,146.000 269.520,146.000 269.912 C 146.000 270.303,145.640 270.883,145.200 271.200 C 144.760 271.517,144.400 271.997,144.400 272.266 C 144.400 272.956,139.278 278.000,138.578 278.000 C 138.260 278.000,138.000 278.159,138.000 278.353 C 138.000 278.548,137.685 278.807,137.300 278.929 C 136.915 279.051,136.060 279.459,135.400 279.836 C 133.411 280.972,132.847 281.200,132.029 281.200 C 131.599 281.200,131.136 281.380,131.000 281.600 C 130.864 281.820,129.964 282.000,129.000 282.000 C 128.036 282.000,127.136 282.180,127.000 282.400 C 126.864 282.620,125.863 282.800,124.776 282.800 C 123.689 282.800,122.800 282.620,122.800 282.400 C 122.800 282.180,121.900 282.000,120.800 282.000 C 119.700 282.000,118.800 281.820,118.800 281.600 C 118.800 281.380,118.260 281.200,117.600 281.200 C 116.940 281.200,116.400 281.020,116.400 280.800 C 116.400 280.580,116.040 280.400,115.600 280.400 C 115.160 280.400,114.800 280.220,114.800 280.000 C 114.800 279.780,114.440 279.600,114.000 279.600 C 113.560 279.600,113.200 279.420,113.200 279.200 C 113.200 278.980,112.917 278.800,112.571 278.800 C 111.808 278.800,105.609 272.638,104.825 271.100 C 104.517 270.495,104.115 270.000,103.932 270.000 C 103.750 270.000,103.600 269.640,103.600 269.200 C 103.600 268.760,103.420 268.400,103.200 268.400 C 102.980 268.400,102.800 268.051,102.800 267.624 C 102.800 267.197,102.620 266.736,102.400 266.600 C 102.180 266.464,102.000 265.834,102.000 265.200 C 102.000 264.566,101.820 263.936,101.600 263.800 C 101.366 263.655,101.200 261.337,101.200 258.200 C 101.200 255.063,101.366 252.745,101.600 252.600 C 101.820 252.464,102.000 251.823,102.000 251.176 C 102.000 250.529,102.180 250.000,102.400 250.000 C 102.620 250.000,102.800 249.640,102.800 249.200 C 102.800 248.760,102.980 248.400,103.200 248.400 C 103.420 248.400,103.600 248.040,103.600 247.600 C 103.600 247.160,103.780 246.800,104.000 246.800 C 104.220 246.800,104.400 246.528,104.400 246.196 C 104.400 245.864,104.940 245.028,105.600 244.337 C 106.260 243.646,106.800 242.922,106.800 242.727 C 106.800 242.173,109.513 239.600,110.098 239.600 C 110.387 239.600,110.883 239.240,111.200 238.800 C 111.517 238.360,112.082 238.000,112.455 238.000 C 112.828 238.000,113.193 237.865,113.267 237.700 C 113.459 237.268,116.772 235.600,117.438 235.600 C 117.747 235.600,118.000 235.420,118.000 235.200 C 118.000 234.980,118.900 234.800,120.000 234.800 C 121.100 234.800,122.000 234.620,122.000 234.400 C 122.000 234.172,123.192 234.000,124.776 234.000 C 126.303 234.000,127.664 234.180,127.800 234.400 M278.000 234.400 C 278.000 234.620,278.900 234.800,280.000 234.800 C 281.100 234.800,282.000 234.980,282.000 235.200 C 282.000 235.420,282.253 235.600,282.562 235.600 C 283.228 235.600,286.541 237.268,286.733 237.700 C 286.807 237.865,287.172 238.000,287.545 238.000 C 287.918 238.000,288.483 238.360,288.800 238.800 C 289.117 239.240,289.572 239.600,289.810 239.600 C 290.368 239.600,293.200 242.186,293.200 242.695 C 293.200 242.907,293.740 243.646,294.400 244.337 C 295.060 245.028,295.600 245.864,295.600 246.196 C 295.600 246.528,295.780 246.800,296.000 246.800 C 296.220 246.800,296.400 247.160,296.400 247.600 C 296.400 248.040,296.580 248.400,296.800 248.400 C 297.020 248.400,297.200 248.760,297.200 249.200 C 297.200 249.640,297.380 250.000,297.600 250.000 C 297.820 250.000,298.000 250.529,298.000 251.176 C 298.000 251.823,298.180 252.464,298.400 252.600 C 298.634 252.745,298.800 255.063,298.800 258.200 C 298.800 261.337,298.634 263.655,298.400 263.800 C 298.180 263.936,298.000 264.566,298.000 265.200 C 298.000 265.834,297.820 266.464,297.600 266.600 C 297.380 266.736,297.200 267.197,297.200 267.624 C 297.200 268.051,297.020 268.400,296.800 268.400 C 296.580 268.400,296.400 268.760,296.400 269.200 C 296.400 269.640,296.250 270.000,296.068 270.000 C 295.885 270.000,295.483 270.495,295.175 271.100 C 294.391 272.638,288.192 278.800,287.429 278.800 C 287.083 278.800,286.800 278.980,286.800 279.200 C 286.800 279.420,286.440 279.600,286.000 279.600 C 285.560 279.600,285.200 279.780,285.200 280.000 C 285.200 280.220,284.840 280.400,284.400 280.400 C 283.960 280.400,283.600 280.580,283.600 280.800 C 283.600 281.020,283.060 281.200,282.400 281.200 C 281.740 281.200,281.200 281.380,281.200 281.600 C 281.200 281.820,280.300 282.000,279.200 282.000 C 278.100 282.000,277.200 282.180,277.200 282.400 C 277.200 282.620,276.311 282.800,275.224 282.800 C 274.137 282.800,273.136 282.620,273.000 282.400 C 272.864 282.180,271.964 282.000,271.000 282.000 C 270.036 282.000,269.136 281.820,269.000 281.600 C 268.864 281.380,268.401 281.200,267.971 281.200 C 267.153 281.200,266.589 280.972,264.600 279.836 C 263.940 279.459,263.085 279.051,262.700 278.929 C 262.315 278.807,262.000 278.548,262.000 278.353 C 262.000 278.159,261.751 278.000,261.446 278.000 C 260.722 278.000,255.600 273.022,255.600 272.319 C 255.600 272.021,255.240 271.517,254.800 271.200 C 254.360 270.883,254.000 270.303,254.000 269.912 C 254.000 269.520,253.820 269.200,253.600 269.200 C 253.380 269.200,253.200 268.840,253.200 268.400 C 253.200 267.960,253.020 267.600,252.800 267.600 C 252.580 267.600,252.400 267.060,252.400 266.400 C 252.400 265.740,252.220 265.200,252.000 265.200 C 251.780 265.200,251.600 264.581,251.600 263.824 C 251.600 263.067,251.420 262.336,251.200 262.200 C 250.980 262.064,250.800 260.354,250.800 258.400 C 250.800 256.446,250.980 254.736,251.200 254.600 C 251.420 254.464,251.600 253.744,251.600 253.000 C 251.600 252.256,251.780 251.536,252.000 251.400 C 252.220 251.264,252.400 250.713,252.400 250.176 C 252.400 249.639,252.580 249.200,252.800 249.200 C 253.020 249.200,253.200 248.840,253.200 248.400 C 253.200 247.960,253.380 247.600,253.600 247.600 C 253.820 247.600,254.000 247.240,254.000 246.800 C 254.000 246.360,254.150 246.000,254.332 246.000 C 254.515 246.000,254.920 245.505,255.232 244.900 C 255.976 243.459,261.521 238.000,262.241 238.000 C 262.548 238.000,262.800 237.820,262.800 237.600 C 262.800 237.380,263.160 237.200,263.600 237.200 C 264.040 237.200,264.400 237.020,264.400 236.800 C 264.400 236.580,264.760 236.400,265.200 236.400 C 265.640 236.400,266.000 236.220,266.000 236.000 C 266.000 235.780,266.540 235.600,267.200 235.600 C 267.860 235.600,268.400 235.420,268.400 235.200 C 268.400 234.980,269.199 234.800,270.176 234.800 C 271.153 234.800,272.064 234.620,272.200 234.400 C 272.336 234.180,273.697 234.000,275.224 234.000 C 276.808 234.000,278.000 234.172,278.000 234.400 " stroke="none" fill="#000000" fill-rule="evenodd"></path><path id="path2" d="M179.800 32.800 C 179.647 33.047,176.204 33.200,170.800 33.200 C 165.396 33.200,161.953 33.353,161.800 33.600 C 161.657 33.832,159.463 34.000,156.576 34.000 C 153.525 34.000,151.600 34.155,151.600 34.400 C 151.600 34.638,150.075 34.800,147.824 34.800 C 145.737 34.800,143.937 34.979,143.800 35.200 C 143.664 35.420,142.314 35.600,140.800 35.600 C 139.286 35.600,137.936 35.780,137.800 36.000 C 137.664 36.220,136.393 36.400,134.976 36.400 C 133.525 36.400,132.400 36.575,132.400 36.800 C 132.400 37.020,131.500 37.200,130.400 37.200 C 129.300 37.200,128.400 37.380,128.400 37.600 C 128.400 37.820,127.500 38.000,126.400 38.000 C 125.300 38.000,124.400 38.180,124.400 38.400 C 124.400 38.620,123.500 38.800,122.400 38.800 C 121.300 38.800,120.400 38.980,120.400 39.200 C 120.400 39.420,119.781 39.600,119.024 39.600 C 118.267 39.600,117.536 39.780,117.400 40.000 C 117.264 40.220,116.623 40.400,115.976 40.400 C 115.329 40.400,114.800 40.580,114.800 40.800 C 114.800 41.020,114.271 41.200,113.624 41.200 C 112.977 41.200,112.336 41.380,112.200 41.600 C 112.064 41.820,111.434 42.000,110.800 42.000 C 110.166 42.000,109.536 42.180,109.400 42.400 C 109.264 42.620,108.724 42.800,108.200 42.800 C 107.676 42.800,107.136 42.980,107.000 43.200 C 106.864 43.420,106.403 43.600,105.976 43.600 C 105.549 43.600,105.200 43.780,105.200 44.000 C 105.200 44.220,104.660 44.400,104.000 44.400 C 103.340 44.400,102.800 44.580,102.800 44.800 C 102.800 45.020,102.440 45.200,102.000 45.200 C 101.560 45.200,101.200 45.380,101.200 45.600 C 101.200 45.820,100.840 46.000,100.400 46.000 C 99.960 46.000,99.600 46.180,99.600 46.400 C 99.600 46.620,99.240 46.800,98.800 46.800 C 98.360 46.800,98.000 46.980,98.000 47.200 C 98.000 47.420,97.640 47.600,97.200 47.600 C 96.760 47.600,96.400 47.780,96.400 48.000 C 96.400 48.220,96.040 48.400,95.600 48.400 C 95.160 48.400,94.800 48.580,94.800 48.800 C 94.800 49.020,94.440 49.200,94.000 49.200 C 93.560 49.200,93.200 49.380,93.200 49.600 C 93.200 49.820,92.964 50.000,92.675 50.000 C 92.387 50.000,91.764 50.360,91.292 50.800 C 90.820 51.240,90.196 51.600,89.905 51.600 C 89.614 51.600,89.117 51.960,88.800 52.400 C 88.483 52.840,88.011 53.200,87.752 53.200 C 87.493 53.200,86.362 54.100,85.239 55.200 C 84.115 56.300,83.040 57.200,82.849 57.200 C 82.658 57.200,81.746 58.055,80.822 59.100 C 79.898 60.145,78.525 61.678,77.771 62.507 C 77.017 63.335,76.400 64.145,76.399 64.307 C 76.399 64.468,75.859 65.230,75.200 66.000 C 74.541 66.770,74.001 67.625,74.001 67.900 C 74.000 68.175,73.820 68.400,73.600 68.400 C 73.380 68.400,73.200 68.760,73.200 69.200 C 73.200 69.640,73.065 70.001,72.900 70.003 C 72.541 70.007,71.600 71.944,71.600 72.680 C 71.600 72.966,71.420 73.200,71.200 73.200 C 70.980 73.200,70.800 73.560,70.800 74.000 C 70.800 74.440,70.620 74.800,70.400 74.800 C 70.180 74.800,70.000 75.149,70.000 75.576 C 70.000 76.003,69.820 76.464,69.600 76.600 C 69.380 76.736,69.200 77.276,69.200 77.800 C 69.200 78.324,69.020 78.864,68.800 79.000 C 68.580 79.136,68.400 79.867,68.400 80.624 C 68.400 81.381,68.220 82.000,68.000 82.000 C 67.780 82.000,67.600 82.709,67.600 83.576 C 67.600 84.443,67.420 85.264,67.200 85.400 C 66.980 85.536,66.800 86.807,66.800 88.224 C 66.800 89.675,66.625 90.800,66.400 90.800 C 65.846 90.800,65.846 273.857,66.400 274.200 C 66.620 274.336,66.800 275.427,66.800 276.624 C 66.800 277.821,66.980 278.800,67.200 278.800 C 67.420 278.800,67.600 279.329,67.600 279.976 C 67.600 280.623,67.780 281.264,68.000 281.400 C 68.220 281.536,68.400 282.076,68.400 282.600 C 68.400 283.124,68.580 283.664,68.800 283.800 C 69.020 283.936,69.200 284.487,69.200 285.024 C 69.200 285.561,69.380 286.000,69.600 286.000 C 69.820 286.000,70.000 286.253,70.000 286.562 C 70.000 287.228,71.668 290.541,72.100 290.733 C 72.265 290.807,72.400 291.212,72.400 291.633 C 72.400 292.055,72.580 292.400,72.800 292.400 C 73.020 292.400,73.200 292.720,73.200 293.112 C 73.200 293.503,73.560 294.083,74.000 294.400 C 74.440 294.717,74.800 295.169,74.800 295.404 C 74.800 295.640,75.520 296.628,76.400 297.600 C 77.280 298.572,78.000 299.520,78.000 299.706 C 78.000 299.892,79.080 301.104,80.400 302.400 L 82.800 304.756 82.800 321.383 C 82.800 330.929,82.959 338.307,83.174 338.705 C 83.379 339.087,83.783 339.985,84.071 340.700 C 84.360 341.415,84.731 342.000,84.898 342.000 C 85.064 342.000,85.200 342.273,85.200 342.607 C 85.200 343.399,90.201 348.400,90.993 348.400 C 91.327 348.400,91.600 348.580,91.600 348.800 C 91.600 349.020,91.960 349.200,92.400 349.200 C 92.840 349.200,93.200 349.380,93.200 349.600 C 93.200 349.820,93.740 350.000,94.400 350.000 C 95.060 350.000,95.600 350.180,95.600 350.400 C 95.600 350.948,120.661 350.948,121.000 350.400 C 121.136 350.180,121.777 350.000,122.424 350.000 C 123.071 350.000,123.600 349.820,123.600 349.600 C 123.600 349.380,123.960 349.200,124.400 349.200 C 124.840 349.200,125.200 349.020,125.200 348.800 C 125.200 348.580,125.473 348.400,125.807 348.400 C 126.599 348.400,131.600 343.399,131.600 342.607 C 131.600 342.273,131.780 342.000,132.000 342.000 C 132.220 342.000,132.400 341.640,132.400 341.200 C 132.400 340.760,132.580 340.400,132.800 340.400 C 133.020 340.400,133.200 339.860,133.200 339.200 C 133.200 338.540,133.380 338.000,133.600 338.000 C 133.856 338.000,134.000 334.267,134.000 327.600 L 134.000 317.200 200.000 317.200 L 266.000 317.200 266.000 327.600 C 266.000 334.267,266.144 338.000,266.400 338.000 C 266.620 338.000,266.800 338.540,266.800 339.200 C 266.800 339.860,266.980 340.400,267.200 340.400 C 267.420 340.400,267.600 340.760,267.600 341.200 C 267.600 341.640,267.780 342.000,268.000 342.000 C 268.220 342.000,268.400 342.273,268.400 342.607 C 268.400 343.399,273.401 348.400,274.193 348.400 C 274.527 348.400,274.800 348.580,274.800 348.800 C 274.800 349.020,275.160 349.200,275.600 349.200 C 276.040 349.200,276.400 349.380,276.400 349.600 C 276.400 349.820,276.929 350.000,277.576 350.000 C 278.223 350.000,278.864 350.180,279.000 350.400 C 279.339 350.948,304.400 350.948,304.400 350.400 C 304.400 350.180,304.940 350.000,305.600 350.000 C 306.260 350.000,306.800 349.820,306.800 349.600 C 306.800 349.380,307.160 349.200,307.600 349.200 C 308.040 349.200,308.400 349.020,308.400 348.800 C 308.400 348.580,308.673 348.400,309.007 348.400 C 309.799 348.400,314.800 343.399,314.800 342.607 C 314.800 342.273,314.980 342.000,315.200 342.000 C 315.420 342.000,315.600 341.640,315.600 341.200 C 315.600 340.760,315.780 340.400,316.000 340.400 C 316.220 340.400,316.400 340.051,316.400 339.624 C 316.400 339.197,316.580 338.736,316.800 338.600 C 317.056 338.442,317.200 332.321,317.200 321.550 L 317.200 304.748 319.111 302.874 C 320.162 301.843,321.465 300.370,322.007 299.600 C 322.548 298.830,323.488 297.678,324.096 297.041 C 324.703 296.403,325.200 295.721,325.200 295.524 C 325.200 295.327,325.560 294.780,326.000 294.308 C 326.440 293.836,326.800 293.213,326.800 292.925 C 326.800 292.636,326.980 292.400,327.200 292.400 C 327.420 292.400,327.600 292.055,327.600 291.633 C 327.600 291.212,327.735 290.807,327.900 290.733 C 328.332 290.541,330.000 287.228,330.000 286.562 C 330.000 286.253,330.180 286.000,330.400 286.000 C 330.620 286.000,330.800 285.561,330.800 285.024 C 330.800 284.487,330.980 283.936,331.200 283.800 C 331.420 283.664,331.600 283.124,331.600 282.600 C 331.600 282.076,331.780 281.536,332.000 281.400 C 332.220 281.264,332.400 280.634,332.400 280.000 C 332.400 279.366,332.580 278.736,332.800 278.600 C 333.020 278.464,333.200 277.474,333.200 276.400 C 333.200 275.326,333.380 274.336,333.600 274.200 C 333.865 274.036,334.000 242.996,334.000 182.376 C 334.000 121.592,333.866 90.800,333.600 90.800 C 333.375 90.800,333.200 89.675,333.200 88.224 C 333.200 86.807,333.020 85.536,332.800 85.400 C 332.580 85.264,332.400 84.443,332.400 83.576 C 332.400 82.709,332.220 82.000,332.000 82.000 C 331.780 82.000,331.600 81.458,331.600 80.795 C 331.600 80.132,331.420 79.232,331.200 78.795 C 330.980 78.358,330.620 77.642,330.400 77.205 C 330.180 76.768,330.000 76.048,330.000 75.605 C 330.000 75.162,329.820 74.800,329.600 74.800 C 329.380 74.800,329.200 74.440,329.200 74.000 C 329.200 73.560,329.020 73.200,328.800 73.200 C 328.580 73.200,328.400 72.966,328.400 72.680 C 328.400 71.944,327.459 70.007,327.100 70.003 C 326.935 70.001,326.800 69.640,326.800 69.200 C 326.800 68.760,326.620 68.400,326.400 68.400 C 326.180 68.400,326.000 68.175,325.999 67.900 C 325.999 67.625,325.459 66.770,324.800 66.000 C 324.141 65.230,323.601 64.468,323.601 64.307 C 323.600 64.145,322.983 63.335,322.229 62.507 C 321.475 61.678,320.102 60.145,319.178 59.100 C 318.254 58.055,317.342 57.200,317.151 57.200 C 316.960 57.200,315.885 56.300,314.761 55.200 C 313.638 54.100,312.507 53.200,312.248 53.200 C 311.989 53.200,311.517 52.840,311.200 52.400 C 310.883 51.960,310.386 51.600,310.095 51.600 C 309.804 51.600,309.180 51.240,308.708 50.800 C 308.236 50.360,307.613 50.000,307.325 50.000 C 307.036 50.000,306.800 49.820,306.800 49.600 C 306.800 49.380,306.440 49.200,306.000 49.200 C 305.560 49.200,305.200 49.020,305.200 48.800 C 305.200 48.580,304.840 48.400,304.400 48.400 C 303.960 48.400,303.600 48.220,303.600 48.000 C 303.600 47.780,303.240 47.600,302.800 47.600 C 302.360 47.600,302.000 47.420,302.000 47.200 C 302.000 46.980,301.640 46.800,301.200 46.800 C 300.760 46.800,300.400 46.620,300.400 46.400 C 300.400 46.180,300.040 46.000,299.600 46.000 C 299.160 46.000,298.800 45.820,298.800 45.600 C 298.800 45.380,298.440 45.200,298.000 45.200 C 297.560 45.200,297.200 45.020,297.200 44.800 C 297.200 44.580,296.660 44.400,296.000 44.400 C 295.340 44.400,294.800 44.220,294.800 44.000 C 294.800 43.780,294.451 43.600,294.024 43.600 C 293.597 43.600,293.136 43.420,293.000 43.200 C 292.864 42.980,292.324 42.800,291.800 42.800 C 291.276 42.800,290.736 42.620,290.600 42.400 C 290.464 42.180,289.834 42.000,289.200 42.000 C 288.566 42.000,287.936 41.820,287.800 41.600 C 287.664 41.380,287.023 41.200,286.376 41.200 C 285.729 41.200,285.200 41.020,285.200 40.800 C 285.200 40.580,284.671 40.400,284.024 40.400 C 283.377 40.400,282.736 40.220,282.600 40.000 C 282.464 39.780,281.733 39.600,280.976 39.600 C 280.219 39.600,279.600 39.420,279.600 39.200 C 279.600 38.980,278.700 38.800,277.600 38.800 C 276.500 38.800,275.600 38.620,275.600 38.400 C 275.600 38.180,274.700 38.000,273.600 38.000 C 272.500 38.000,271.600 37.820,271.600 37.600 C 271.600 37.380,270.700 37.200,269.600 37.200 C 268.500 37.200,267.600 37.020,267.600 36.800 C 267.600 36.575,266.475 36.400,265.024 36.400 C 263.607 36.400,262.336 36.220,262.200 36.000 C 262.064 35.780,260.714 35.600,259.200 35.600 C 257.686 35.600,256.336 35.420,256.200 35.200 C 256.063 34.979,254.263 34.800,252.176 34.800 C 249.925 34.800,248.400 34.638,248.400 34.400 C 248.400 34.155,246.475 34.000,243.424 34.000 C 240.537 34.000,238.343 33.832,238.200 33.600 C 238.047 33.353,234.537 33.200,229.000 33.200 C 223.463 33.200,219.953 33.047,219.800 32.800 C 219.641 32.542,212.537 32.400,199.800 32.400 C 187.063 32.400,179.959 32.542,179.800 32.800 M299.600 141.600 L 299.600 182.800 200.000 182.800 L 100.400 182.800 100.400 141.600 L 100.400 100.400 200.000 100.400 L 299.600 100.400 299.600 141.600 M127.800 234.400 C 127.936 234.620,128.847 234.800,129.824 234.800 C 130.801 234.800,131.600 234.980,131.600 235.200 C 131.600 235.420,132.140 235.600,132.800 235.600 C 133.460 235.600,134.000 235.780,134.000 236.000 C 134.000 236.220,134.360 236.400,134.800 236.400 C 135.240 236.400,135.600 236.580,135.600 236.800 C 135.600 237.020,135.960 237.200,136.400 237.200 C 136.840 237.200,137.200 237.350,137.200 237.532 C 137.200 237.715,137.692 238.120,138.293 238.432 C 139.706 239.166,144.034 243.494,144.768 244.907 C 145.080 245.508,145.485 246.000,145.668 246.000 C 145.850 246.000,146.000 246.360,146.000 246.800 C 146.000 247.240,146.180 247.600,146.400 247.600 C 146.620 247.600,146.800 247.960,146.800 248.400 C 146.800 248.840,146.980 249.200,147.200 249.200 C 147.420 249.200,147.600 249.639,147.600 250.176 C 147.600 250.713,147.780 251.264,148.000 251.400 C 148.220 251.536,148.400 252.256,148.400 253.000 C 148.400 253.744,148.580 254.464,148.800 254.600 C 149.020 254.736,149.200 256.457,149.200 258.424 C 149.200 260.541,149.037 262.000,148.800 262.000 C 148.580 262.000,148.400 262.720,148.400 263.600 C 148.400 264.480,148.220 265.200,148.000 265.200 C 147.780 265.200,147.600 265.740,147.600 266.400 C 147.600 267.060,147.420 267.600,147.200 267.600 C 146.980 267.600,146.800 267.960,146.800 268.400 C 146.800 268.840,146.620 269.200,146.400 269.200 C 146.180 269.200,146.000 269.520,146.000 269.912 C 146.000 270.303,145.640 270.883,145.200 271.200 C 144.760 271.517,144.400 271.997,144.400 272.266 C 144.400 272.956,139.278 278.000,138.578 278.000 C 138.260 278.000,138.000 278.159,138.000 278.353 C 138.000 278.548,137.685 278.807,137.300 278.929 C 136.915 279.051,136.060 279.459,135.400 279.836 C 133.411 280.972,132.847 281.200,132.029 281.200 C 131.599 281.200,131.136 281.380,131.000 281.600 C 130.864 281.820,129.964 282.000,129.000 282.000 C 128.036 282.000,127.136 282.180,127.000 282.400 C 126.864 282.620,125.863 282.800,124.776 282.800 C 123.689 282.800,122.800 282.620,122.800 282.400 C 122.800 282.180,121.900 282.000,120.800 282.000 C 119.700 282.000,118.800 281.820,118.800 281.600 C 118.800 281.380,118.260 281.200,117.600 281.200 C 116.940 281.200,116.400 281.020,116.400 280.800 C 116.400 280.580,116.040 280.400,115.600 280.400 C 115.160 280.400,114.800 280.220,114.800 280.000 C 114.800 279.780,114.440 279.600,114.000 279.600 C 113.560 279.600,113.200 279.420,113.200 279.200 C 113.200 278.980,112.917 278.800,112.571 278.800 C 111.808 278.800,105.609 272.638,104.825 271.100 C 104.517 270.495,104.115 270.000,103.932 270.000 C 103.750 270.000,103.600 269.640,103.600 269.200 C 103.600 268.760,103.420 268.400,103.200 268.400 C 102.980 268.400,102.800 268.051,102.800 267.624 C 102.800 267.197,102.620 266.736,102.400 266.600 C 102.180 266.464,102.000 265.834,102.000 265.200 C 102.000 264.566,101.820 263.936,101.600 263.800 C 101.366 263.655,101.200 261.337,101.200 258.200 C 101.200 255.063,101.366 252.745,101.600 252.600 C 101.820 252.464,102.000 251.823,102.000 251.176 C 102.000 250.529,102.180 250.000,102.400 250.000 C 102.620 250.000,102.800 249.640,102.800 249.200 C 102.800 248.760,102.980 248.400,103.200 248.400 C 103.420 248.400,103.600 248.040,103.600 247.600 C 103.600 247.160,103.780 246.800,104.000 246.800 C 104.220 246.800,104.400 246.528,104.400 246.196 C 104.400 245.864,104.940 245.028,105.600 244.337 C 106.260 243.646,106.800 242.922,106.800 242.727 C 106.800 242.173,109.513 239.600,110.098 239.600 C 110.387 239.600,110.883 239.240,111.200 238.800 C 111.517 238.360,112.082 238.000,112.455 238.000 C 112.828 238.000,113.193 237.865,113.267 237.700 C 113.459 237.268,116.772 235.600,117.438 235.600 C 117.747 235.600,118.000 235.420,118.000 235.200 C 118.000 234.980,118.900 234.800,120.000 234.800 C 121.100 234.800,122.000 234.620,122.000 234.400 C 122.000 234.172,123.192 234.000,124.776 234.000 C 126.303 234.000,127.664 234.180,127.800 234.400 M278.000 234.400 C 278.000 234.620,278.900 234.800,280.000 234.800 C 281.100 234.800,282.000 234.980,282.000 235.200 C 282.000 235.420,282.253 235.600,282.562 235.600 C 283.228 235.600,286.541 237.268,286.733 237.700 C 286.807 237.865,287.172 238.000,287.545 238.000 C 287.918 238.000,288.483 238.360,288.800 238.800 C 289.117 239.240,289.572 239.600,289.810 239.600 C 290.368 239.600,293.200 242.186,293.200 242.695 C 293.200 242.907,293.740 243.646,294.400 244.337 C 295.060 245.028,295.600 245.864,295.600 246.196 C 295.600 246.528,295.780 246.800,296.000 246.800 C 296.220 246.800,296.400 247.160,296.400 247.600 C 296.400 248.040,296.580 248.400,296.800 248.400 C 297.020 248.400,297.200 248.760,297.200 249.200 C 297.200 249.640,297.380 250.000,297.600 250.000 C 297.820 250.000,298.000 250.529,298.000 251.176 C 298.000 251.823,298.180 252.464,298.400 252.600 C 298.634 252.745,298.800 255.063,298.800 258.200 C 298.800 261.337,298.634 263.655,298.400 263.800 C 298.180 263.936,298.000 264.566,298.000 265.200 C 298.000 265.834,297.820 266.464,297.600 266.600 C 297.380 266.736,297.200 267.197,297.200 267.624 C 297.200 268.051,297.020 268.400,296.800 268.400 C 296.580 268.400,296.400 268.760,296.400 269.200 C 296.400 269.640,296.250 270.000,296.068 270.000 C 295.885 270.000,295.483 270.495,295.175 271.100 C 294.391 272.638,288.192 278.800,287.429 278.800 C 287.083 278.800,286.800 278.980,286.800 279.200 C 286.800 279.420,286.440 279.600,286.000 279.600 C 285.560 279.600,285.200 279.780,285.200 280.000 C 285.200 280.220,284.840 280.400,284.400 280.400 C 283.960 280.400,283.600 280.580,283.600 280.800 C 283.600 281.020,283.060 281.200,282.400 281.200 C 281.740 281.200,281.200 281.380,281.200 281.600 C 281.200 281.820,280.300 282.000,279.200 282.000 C 278.100 282.000,277.200 282.180,277.200 282.400 C 277.200 282.620,276.311 282.800,275.224 282.800 C 274.137 282.800,273.136 282.620,273.000 282.400 C 272.864 282.180,271.964 282.000,271.000 282.000 C 270.036 282.000,269.136 281.820,269.000 281.600 C 268.864 281.380,268.401 281.200,267.971 281.200 C 267.153 281.200,266.589 280.972,264.600 279.836 C 263.940 279.459,263.085 279.051,262.700 278.929 C 262.315 278.807,262.000 278.548,262.000 278.353 C 262.000 278.159,261.751 278.000,261.446 278.000 C 260.722 278.000,255.600 273.022,255.600 272.319 C 255.600 272.021,255.240 271.517,254.800 271.200 C 254.360 270.883,254.000 270.303,254.000 269.912 C 254.000 269.520,253.820 269.200,253.600 269.200 C 253.380 269.200,253.200 268.840,253.200 268.400 C 253.200 267.960,253.020 267.600,252.800 267.600 C 252.580 267.600,252.400 267.060,252.400 266.400 C 252.400 265.740,252.220 265.200,252.000 265.200 C 251.780 265.200,251.600 264.581,251.600 263.824 C 251.600 263.067,251.420 262.336,251.200 262.200 C 250.980 262.064,250.800 260.354,250.800 258.400 C 250.800 256.446,250.980 254.736,251.200 254.600 C 251.420 254.464,251.600 253.744,251.600 253.000 C 251.600 252.256,251.780 251.536,252.000 251.400 C 252.220 251.264,252.400 250.713,252.400 250.176 C 252.400 249.639,252.580 249.200,252.800 249.200 C 253.020 249.200,253.200 248.840,253.200 248.400 C 253.200 247.960,253.380 247.600,253.600 247.600 C 253.820 247.600,254.000 247.240,254.000 246.800 C 254.000 246.360,254.150 246.000,254.332 246.000 C 254.515 246.000,254.920 245.505,255.232 244.900 C 255.976 243.459,261.521 238.000,262.241 238.000 C 262.548 238.000,262.800 237.820,262.800 237.600 C 262.800 237.380,263.160 237.200,263.600 237.200 C 264.040 237.200,264.400 237.020,264.400 236.800 C 264.400 236.580,264.760 236.400,265.200 236.400 C 265.640 236.400,266.000 236.220,266.000 236.000 C 266.000 235.780,266.540 235.600,267.200 235.600 C 267.860 235.600,268.400 235.420,268.400 235.200 C 268.400 234.980,269.199 234.800,270.176 234.800 C 271.153 234.800,272.064 234.620,272.200 234.400 C 272.336 234.180,273.697 234.000,275.224 234.000 C 276.808 234.000,278.000 234.172,278.000 234.400 " stroke="none" fill="#000000" fill-rule="evenodd"></path><path id="path3" d="M179.800 32.800 C 179.647 33.047,176.204 33.200,170.800 33.200 C 165.396 33.200,161.953 33.353,161.800 33.600 C 161.657 33.832,159.463 34.000,156.576 34.000 C 153.525 34.000,151.600 34.155,151.600 34.400 C 151.600 34.638,150.075 34.800,147.824 34.800 C 145.737 34.800,143.937 34.979,143.800 35.200 C 143.664 35.420,142.314 35.600,140.800 35.600 C 139.286 35.600,137.936 35.780,137.800 36.000 C 137.664 36.220,136.393 36.400,134.976 36.400 C 133.525 36.400,132.400 36.575,132.400 36.800 C 132.400 37.020,131.500 37.200,130.400 37.200 C 129.300 37.200,128.400 37.380,128.400 37.600 C 128.400 37.820,127.500 38.000,126.400 38.000 C 125.300 38.000,124.400 38.180,124.400 38.400 C 124.400 38.620,123.500 38.800,122.400 38.800 C 121.300 38.800,120.400 38.980,120.400 39.200 C 120.400 39.420,119.781 39.600,119.024 39.600 C 118.267 39.600,117.536 39.780,117.400 40.000 C 117.264 40.220,116.623 40.400,115.976 40.400 C 115.329 40.400,114.800 40.580,114.800 40.800 C 114.800 41.020,114.271 41.200,113.624 41.200 C 112.977 41.200,112.336 41.380,112.200 41.600 C 112.064 41.820,111.434 42.000,110.800 42.000 C 110.166 42.000,109.536 42.180,109.400 42.400 C 109.264 42.620,108.724 42.800,108.200 42.800 C 107.676 42.800,107.136 42.980,107.000 43.200 C 106.864 43.420,106.403 43.600,105.976 43.600 C 105.549 43.600,105.200 43.780,105.200 44.000 C 105.200 44.220,104.660 44.400,104.000 44.400 C 103.340 44.400,102.800 44.580,102.800 44.800 C 102.800 45.020,102.440 45.200,102.000 45.200 C 101.560 45.200,101.200 45.380,101.200 45.600 C 101.200 45.820,100.840 46.000,100.400 46.000 C 99.960 46.000,99.600 46.180,99.600 46.400 C 99.600 46.620,99.240 46.800,98.800 46.800 C 98.360 46.800,98.000 46.980,98.000 47.200 C 98.000 47.420,97.640 47.600,97.200 47.600 C 96.760 47.600,96.400 47.780,96.400 48.000 C 96.400 48.220,96.040 48.400,95.600 48.400 C 95.160 48.400,94.800 48.580,94.800 48.800 C 94.800 49.020,94.440 49.200,94.000 49.200 C 93.560 49.200,93.200 49.380,93.200 49.600 C 93.200 49.820,92.964 50.000,92.675 50.000 C 92.387 50.000,91.764 50.360,91.292 50.800 C 90.820 51.240,90.196 51.600,89.905 51.600 C 89.614 51.600,89.117 51.960,88.800 52.400 C 88.483 52.840,88.011 53.200,87.752 53.200 C 87.493 53.200,86.362 54.100,85.239 55.200 C 84.115 56.300,83.040 57.200,82.849 57.200 C 82.658 57.200,81.746 58.055,80.822 59.100 C 79.898 60.145,78.525 61.678,77.771 62.507 C 77.017 63.335,76.400 64.145,76.399 64.307 C 76.399 64.468,75.859 65.230,75.200 66.000 C 74.541 66.770,74.001 67.625,74.001 67.900 C 74.000 68.175,73.820 68.400,73.600 68.400 C 73.380 68.400,73.200 68.760,73.200 69.200 C 73.200 69.640,73.065 70.001,72.900 70.003 C 72.541 70.007,71.600 71.944,71.600 72.680 C 71.600 72.966,71.420 73.200,71.200 73.200 C 70.980 73.200,70.800 73.560,70.800 74.000 C 70.800 74.440,70.620 74.800,70.400 74.800 C 70.180 74.800,70.000 75.149,70.000 75.576 C 70.000 76.003,69.820 76.464,69.600 76.600 C 69.380 76.736,69.200 77.276,69.200 77.800 C 69.200 78.324,69.020 78.864,68.800 79.000 C 68.580 79.136,68.400 79.867,68.400 80.624 C 68.400 81.381,68.220 82.000,68.000 82.000 C 67.780 82.000,67.600 82.709,67.600 83.576 C 67.600 84.443,67.420 85.264,67.200 85.400 C 66.980 85.536,66.800 86.807,66.800 88.224 C 66.800 89.675,66.625 90.800,66.400 90.800 C 65.846 90.800,65.846 273.857,66.400 274.200 C 66.620 274.336,66.800 275.427,66.800 276.624 C 66.800 277.821,66.980 278.800,67.200 278.800 C 67.420 278.800,67.600 279.329,67.600 279.976 C 67.600 280.623,67.780 281.264,68.000 281.400 C 68.220 281.536,68.400 282.076,68.400 282.600 C 68.400 283.124,68.580 283.664,68.800 283.800 C 69.020 283.936,69.200 284.487,69.200 285.024 C 69.200 285.561,69.380 286.000,69.600 286.000 C 69.820 286.000,70.000 286.253,70.000 286.562 C 70.000 287.228,71.668 290.541,72.100 290.733 C 72.265 290.807,72.400 291.212,72.400 291.633 C 72.400 292.055,72.580 292.400,72.800 292.400 C 73.020 292.400,73.200 292.720,73.200 293.112 C 73.200 293.503,73.560 294.083,74.000 294.400 C 74.440 294.717,74.800 295.169,74.800 295.404 C 74.800 295.640,75.520 296.628,76.400 297.600 C 77.280 298.572,78.000 299.520,78.000 299.706 C 78.000 299.892,79.080 301.104,80.400 302.400 L 82.800 304.756 82.800 321.383 C 82.800 330.929,82.959 338.307,83.174 338.705 C 83.379 339.087,83.783 339.985,84.071 340.700 C 84.360 341.415,84.731 342.000,84.898 342.000 C 85.064 342.000,85.200 342.273,85.200 342.607 C 85.200 343.399,90.201 348.400,90.993 348.400 C 91.327 348.400,91.600 348.580,91.600 348.800 C 91.600 349.020,91.960 349.200,92.400 349.200 C 92.840 349.200,93.200 349.380,93.200 349.600 C 93.200 349.820,93.740 350.000,94.400 350.000 C 95.060 350.000,95.600 350.180,95.600 350.400 C 95.600 350.948,120.661 350.948,121.000 350.400 C 121.136 350.180,121.777 350.000,122.424 350.000 C 123.071 350.000,123.600 349.820,123.600 349.600 C 123.600 349.380,123.960 349.200,124.400 349.200 C 124.840 349.200,125.200 349.020,125.200 348.800 C 125.200 348.580,125.473 348.400,125.807 348.400 C 126.599 348.400,131.600 343.399,131.600 342.607 C 131.600 342.273,131.780 342.000,132.000 342.000 C 132.220 342.000,132.400 341.640,132.400 341.200 C 132.400 340.760,132.580 340.400,132.800 340.400 C 133.020 340.400,133.200 339.860,133.200 339.200 C 133.200 338.540,133.380 338.000,133.600 338.000 C 133.856 338.000,134.000 334.267,134.000 327.600 L 134.000 317.200 200.000 317.200 L 266.000 317.200 266.000 327.600 C 266.000 334.267,266.144 338.000,266.400 338.000 C 266.620 338.000,266.800 338.540,266.800 339.200 C 266.800 339.860,266.980 340.400,267.200 340.400 C 267.420 340.400,267.600 340.760,267.600 341.200 C 267.600 341.640,267.780 342.000,268.000 342.000 C 268.220 342.000,268.400 342.273,268.400 342.607 C 268.400 343.399,273.401 348.400,274.193 348.400 C 274.527 348.400,274.800 348.580,274.800 348.800 C 274.800 349.020,275.160 349.200,275.600 349.200 C 276.040 349.200,276.400 349.380,276.400 349.600 C 276.400 349.820,276.929 350.000,277.576 350.000 C 278.223 350.000,278.864 350.180,279.000 350.400 C 279.339 350.948,304.400 350.948,304.400 350.400 C 304.400 350.180,304.940 350.000,305.600 350.000 C 306.260 350.000,306.800 349.820,306.800 349.600 C 306.800 349.380,307.160 349.200,307.600 349.200 C 308.040 349.200,308.400 349.020,308.400 348.800 C 308.400 348.580,308.673 348.400,309.007 348.400 C 309.799 348.400,314.800 343.399,314.800 342.607 C 314.800 342.273,314.980 342.000,315.200 342.000 C 315.420 342.000,315.600 341.640,315.600 341.200 C 315.600 340.760,315.780 340.400,316.000 340.400 C 316.220 340.400,316.400 340.051,316.400 339.624 C 316.400 339.197,316.580 338.736,316.800 338.600 C 317.056 338.442,317.200 332.321,317.200 321.550 L 317.200 304.748 319.111 302.874 C 320.162 301.843,321.465 300.370,322.007 299.600 C 322.548 298.830,323.488 297.678,324.096 297.041 C 324.703 296.403,325.200 295.721,325.200 295.524 C 325.200 295.327,325.560 294.780,326.000 294.308 C 326.440 293.836,326.800 293.213,326.800 292.925 C 326.800 292.636,326.980 292.400,327.200 292.400 C 327.420 292.400,327.600 292.055,327.600 291.633 C 327.600 291.212,327.735 290.807,327.900 290.733 C 328.332 290.541,330.000 287.228,330.000 286.562 C 330.000 286.253,330.180 286.000,330.400 286.000 C 330.620 286.000,330.800 285.561,330.800 285.024 C 330.800 284.487,330.980 283.936,331.200 283.800 C 331.420 283.664,331.600 283.124,331.600 282.600 C 331.600 282.076,331.780 281.536,332.000 281.400 C 332.220 281.264,332.400 280.634,332.400 280.000 C 332.400 279.366,332.580 278.736,332.800 278.600 C 333.020 278.464,333.200 277.474,333.200 276.400 C 333.200 275.326,333.380 274.336,333.600 274.200 C 333.865 274.036,334.000 242.996,334.000 182.376 C 334.000 121.592,333.866 90.800,333.600 90.800 C 333.375 90.800,333.200 89.675,333.200 88.224 C 333.200 86.807,333.020 85.536,332.800 85.400 C 332.580 85.264,332.400 84.443,332.400 83.576 C 332.400 82.709,332.220 82.000,332.000 82.000 C 331.780 82.000,331.600 81.458,331.600 80.795 C 331.600 80.132,331.420 79.232,331.200 78.795 C 330.980 78.358,330.620 77.642,330.400 77.205 C 330.180 76.768,330.000 76.048,330.000 75.605 C 330.000 75.162,329.820 74.800,329.600 74.800 C 329.380 74.800,329.200 74.440,329.200 74.000 C 329.200 73.560,329.020 73.200,328.800 73.200 C 328.580 73.200,328.400 72.966,328.400 72.680 C 328.400 71.944,327.459 70.007,327.100 70.003 C 326.935 70.001,326.800 69.640,326.800 69.200 C 326.800 68.760,326.620 68.400,326.400 68.400 C 326.180 68.400,326.000 68.175,325.999 67.900 C 325.999 67.625,325.459 66.770,324.800 66.000 C 324.141 65.230,323.601 64.468,323.601 64.307 C 323.600 64.145,322.983 63.335,322.229 62.507 C 321.475 61.678,320.102 60.145,319.178 59.100 C 318.254 58.055,317.342 57.200,317.151 57.200 C 316.960 57.200,315.885 56.300,314.761 55.200 C 313.638 54.100,312.507 53.200,312.248 53.200 C 311.989 53.200,311.517 52.840,311.200 52.400 C 310.883 51.960,310.386 51.600,310.095 51.600 C 309.804 51.600,309.180 51.240,308.708 50.800 C 308.236 50.360,307.613 50.000,307.325 50.000 C 307.036 50.000,306.800 49.820,306.800 49.600 C 306.800 49.380,306.440 49.200,306.000 49.200 C 305.560 49.200,305.200 49.020,305.200 48.800 C 305.200 48.580,304.840 48.400,304.400 48.400 C 303.960 48.400,303.600 48.220,303.600 48.000 C 303.600 47.780,303.240 47.600,302.800 47.600 C 302.360 47.600,302.000 47.420,302.000 47.200 C 302.000 46.980,301.640 46.800,301.200 46.800 C 300.760 46.800,300.400 46.620,300.400 46.400 C 300.400 46.180,300.040 46.000,299.600 46.000 C 299.160 46.000,298.800 45.820,298.800 45.600 C 298.800 45.380,298.440 45.200,298.000 45.200 C 297.560 45.200,297.200 45.020,297.200 44.800 C 297.200 44.580,296.660 44.400,296.000 44.400 C 295.340 44.400,294.800 44.220,294.800 44.000 C 294.800 43.780,294.451 43.600,294.024 43.600 C 293.597 43.600,293.136 43.420,293.000 43.200 C 292.864 42.980,292.324 42.800,291.800 42.800 C 291.276 42.800,290.736 42.620,290.600 42.400 C 290.464 42.180,289.834 42.000,289.200 42.000 C 288.566 42.000,287.936 41.820,287.800 41.600 C 287.664 41.380,287.023 41.200,286.376 41.200 C 285.729 41.200,285.200 41.020,285.200 40.800 C 285.200 40.580,284.671 40.400,284.024 40.400 C 283.377 40.400,282.736 40.220,282.600 40.000 C 282.464 39.780,281.733 39.600,280.976 39.600 C 280.219 39.600,279.600 39.420,279.600 39.200 C 279.600 38.980,278.700 38.800,277.600 38.800 C 276.500 38.800,275.600 38.620,275.600 38.400 C 275.600 38.180,274.700 38.000,273.600 38.000 C 272.500 38.000,271.600 37.820,271.600 37.600 C 271.600 37.380,270.700 37.200,269.600 37.200 C 268.500 37.200,267.600 37.020,267.600 36.800 C 267.600 36.575,266.475 36.400,265.024 36.400 C 263.607 36.400,262.336 36.220,262.200 36.000 C 262.064 35.780,260.714 35.600,259.200 35.600 C 257.686 35.600,256.336 35.420,256.200 35.200 C 256.063 34.979,254.263 34.800,252.176 34.800 C 249.925 34.800,248.400 34.638,248.400 34.400 C 248.400 34.155,246.475 34.000,243.424 34.000 C 240.537 34.000,238.343 33.832,238.200 33.600 C 238.047 33.353,234.537 33.200,229.000 33.200 C 223.463 33.200,219.953 33.047,219.800 32.800 C 219.641 32.542,212.537 32.400,199.800 32.400 C 187.063 32.400,179.959 32.542,179.800 32.800 M299.600 141.600 L 299.600 182.800 200.000 182.800 L 100.400 182.800 100.400 141.600 L 100.400 100.400 200.000 100.400 L 299.600 100.400 299.600 141.600 M127.800 234.400 C 127.936 234.620,128.847 234.800,129.824 234.800 C 130.801 234.800,131.600 234.980,131.600 235.200 C 131.600 235.420,132.140 235.600,132.800 235.600 C 133.460 235.600,134.000 235.780,134.000 236.000 C 134.000 236.220,134.360 236.400,134.800 236.400 C 135.240 236.400,135.600 236.580,135.600 236.800 C 135.600 237.020,135.960 237.200,136.400 237.200 C 136.840 237.200,137.200 237.350,137.200 237.532 C 137.200 237.715,137.692 238.120,138.293 238.432 C 139.706 239.166,144.034 243.494,144.768 244.907 C 145.080 245.508,145.485 246.000,145.668 246.000 C 145.850 246.000,146.000 246.360,146.000 246.800 C 146.000 247.240,146.180 247.600,146.400 247.600 C 146.620 247.600,146.800 247.960,146.800 248.400 C 146.800 248.840,146.980 249.200,147.200 249.200 C 147.420 249.200,147.600 249.639,147.600 250.176 C 147.600 250.713,147.780 251.264,148.000 251.400 C 148.220 251.536,148.400 252.256,148.400 253.000 C 148.400 253.744,148.580 254.464,148.800 254.600 C 149.020 254.736,149.200 256.457,149.200 258.424 C 149.200 260.541,149.037 262.000,148.800 262.000 C 148.580 262.000,148.400 262.720,148.400 263.600 C 148.400 264.480,148.220 265.200,148.000 265.200 C 147.780 265.200,147.600 265.740,147.600 266.400 C 147.600 267.060,147.420 267.600,147.200 267.600 C 146.980 267.600,146.800 267.960,146.800 268.400 C 146.800 268.840,146.620 269.200,146.400 269.200 C 146.180 269.200,146.000 269.520,146.000 269.912 C 146.000 270.303,145.640 270.883,145.200 271.200 C 144.760 271.517,144.400 271.997,144.400 272.266 C 144.400 272.956,139.278 278.000,138.578 278.000 C 138.260 278.000,138.000 278.159,138.000 278.353 C 138.000 278.548,137.685 278.807,137.300 278.929 C 136.915 279.051,136.060 279.459,135.400 279.836 C 133.411 280.972,132.847 281.200,132.029 281.200 C 131.599 281.200,131.136 281.380,131.000 281.600 C 130.864 281.820,129.964 282.000,129.000 282.000 C 128.036 282.000,127.136 282.180,127.000 282.400 C 126.864 282.620,125.863 282.800,124.776 282.800 C 123.689 282.800,122.800 282.620,122.800 282.400 C 122.800 282.180,121.900 282.000,120.800 282.000 C 119.700 282.000,118.800 281.820,118.800 281.600 C 118.800 281.380,118.260 281.200,117.600 281.200 C 116.940 281.200,116.400 281.020,116.400 280.800 C 116.400 280.580,116.040 280.400,115.600 280.400 C 115.160 280.400,114.800 280.220,114.800 280.000 C 114.800 279.780,114.440 279.600,114.000 279.600 C 113.560 279.600,113.200 279.420,113.200 279.200 C 113.200 278.980,112.917 278.800,112.571 278.800 C 111.808 278.800,105.609 272.638,104.825 271.100 C 104.517 270.495,104.115 270.000,103.932 270.000 C 103.750 270.000,103.600 269.640,103.600 269.200 C 103.600 268.760,103.420 268.400,103.200 268.400 C 102.980 268.400,102.800 268.051,102.800 267.624 C 102.800 267.197,102.620 266.736,102.400 266.600 C 102.180 266.464,102.000 265.834,102.000 265.200 C 102.000 264.566,101.820 263.936,101.600 263.800 C 101.366 263.655,101.200 261.337,101.200 258.200 C 101.200 255.063,101.366 252.745,101.600 252.600 C 101.820 252.464,102.000 251.823,102.000 251.176 C 102.000 250.529,102.180 250.000,102.400 250.000 C 102.620 250.000,102.800 249.640,102.800 249.200 C 102.800 248.760,102.980 248.400,103.200 248.400 C 103.420 248.400,103.600 248.040,103.600 247.600 C 103.600 247.160,103.780 246.800,104.000 246.800 C 104.220 246.800,104.400 246.528,104.400 246.196 C 104.400 245.864,104.940 245.028,105.600 244.337 C 106.260 243.646,106.800 242.922,106.800 242.727 C 106.800 242.173,109.513 239.600,110.098 239.600 C 110.387 239.600,110.883 239.240,111.200 238.800 C 111.517 238.360,112.082 238.000,112.455 238.000 C 112.828 238.000,113.193 237.865,113.267 237.700 C 113.459 237.268,116.772 235.600,117.438 235.600 C 117.747 235.600,118.000 235.420,118.000 235.200 C 118.000 234.980,118.900 234.800,120.000 234.800 C 121.100 234.800,122.000 234.620,122.000 234.400 C 122.000 234.172,123.192 234.000,124.776 234.000 C 126.303 234.000,127.664 234.180,127.800 234.400 M278.000 234.400 C 278.000 234.620,278.900 234.800,280.000 234.800 C 281.100 234.800,282.000 234.980,282.000 235.200 C 282.000 235.420,282.253 235.600,282.562 235.600 C 283.228 235.600,286.541 237.268,286.733 237.700 C 286.807 237.865,287.172 238.000,287.545 238.000 C 287.918 238.000,288.483 238.360,288.800 238.800 C 289.117 239.240,289.572 239.600,289.810 239.600 C 290.368 239.600,293.200 242.186,293.200 242.695 C 293.200 242.907,293.740 243.646,294.400 244.337 C 295.060 245.028,295.600 245.864,295.600 246.196 C 295.600 246.528,295.780 246.800,296.000 246.800 C 296.220 246.800,296.400 247.160,296.400 247.600 C 296.400 248.040,296.580 248.400,296.800 248.400 C 297.020 248.400,297.200 248.760,297.200 249.200 C 297.200 249.640,297.380 250.000,297.600 250.000 C 297.820 250.000,298.000 250.529,298.000 251.176 C 298.000 251.823,298.180 252.464,298.400 252.600 C 298.634 252.745,298.800 255.063,298.800 258.200 C 298.800 261.337,298.634 263.655,298.400 263.800 C 298.180 263.936,298.000 264.566,298.000 265.200 C 298.000 265.834,297.820 266.464,297.600 266.600 C 297.380 266.736,297.200 267.197,297.200 267.624 C 297.200 268.051,297.020 268.400,296.800 268.400 C 296.580 268.400,296.400 268.760,296.400 269.200 C 296.400 269.640,296.250 270.000,296.068 270.000 C 295.885 270.000,295.483 270.495,295.175 271.100 C 294.391 272.638,288.192 278.800,287.429 278.800 C 287.083 278.800,286.800 278.980,286.800 279.200 C 286.800 279.420,286.440 279.600,286.000 279.600 C 285.560 279.600,285.200 279.780,285.200 280.000 C 285.200 280.220,284.840 280.400,284.400 280.400 C 283.960 280.400,283.600 280.580,283.600 280.800 C 283.600 281.020,283.060 281.200,282.400 281.200 C 281.740 281.200,281.200 281.380,281.200 281.600 C 281.200 281.820,280.300 282.000,279.200 282.000 C 278.100 282.000,277.200 282.180,277.200 282.400 C 277.200 282.620,276.311 282.800,275.224 282.800 C 274.137 282.800,273.136 282.620,273.000 282.400 C 272.864 282.180,271.964 282.000,271.000 282.000 C 270.036 282.000,269.136 281.820,269.000 281.600 C 268.864 281.380,268.401 281.200,267.971 281.200 C 267.153 281.200,266.589 280.972,264.600 279.836 C 263.940 279.459,263.085 279.051,262.700 278.929 C 262.315 278.807,262.000 278.548,262.000 278.353 C 262.000 278.159,261.751 278.000,261.446 278.000 C 260.722 278.000,255.600 273.022,255.600 272.319 C 255.600 272.021,255.240 271.517,254.800 271.200 C 254.360 270.883,254.000 270.303,254.000 269.912 C 254.000 269.520,253.820 269.200,253.600 269.200 C 253.380 269.200,253.200 268.840,253.200 268.400 C 253.200 267.960,253.020 267.600,252.800 267.600 C 252.580 267.600,252.400 267.060,252.400 266.400 C 252.400 265.740,252.220 265.200,252.000 265.200 C 251.780 265.200,251.600 264.581,251.600 263.824 C 251.600 263.067,251.420 262.336,251.200 262.200 C 250.980 262.064,250.800 260.354,250.800 258.400 C 250.800 256.446,250.980 254.736,251.200 254.600 C 251.420 254.464,251.600 253.744,251.600 253.000 C 251.600 252.256,251.780 251.536,252.000 251.400 C 252.220 251.264,252.400 250.713,252.400 250.176 C 252.400 249.639,252.580 249.200,252.800 249.200 C 253.020 249.200,253.200 248.840,253.200 248.400 C 253.200 247.960,253.380 247.600,253.600 247.600 C 253.820 247.600,254.000 247.240,254.000 246.800 C 254.000 246.360,254.150 246.000,254.332 246.000 C 254.515 246.000,254.920 245.505,255.232 244.900 C 255.976 243.459,261.521 238.000,262.241 238.000 C 262.548 238.000,262.800 237.820,262.800 237.600 C 262.800 237.380,263.160 237.200,263.600 237.200 C 264.040 237.200,264.400 237.020,264.400 236.800 C 264.400 236.580,264.760 236.400,265.200 236.400 C 265.640 236.400,266.000 236.220,266.000 236.000 C 266.000 235.780,266.540 235.600,267.200 235.600 C 267.860 235.600,268.400 235.420,268.400 235.200 C 268.400 234.980,269.199 234.800,270.176 234.800 C 271.153 234.800,272.064 234.620,272.200 234.400 C 272.336 234.180,273.697 234.000,275.224 234.000 C 276.808 234.000,278.000 234.172,278.000 234.400 " stroke="none" fill="#000000" fill-rule="evenodd"></path><path id="path4" d="M179.800 32.800 C 179.647 33.047,176.204 33.200,170.800 33.200 C 165.396 33.200,161.953 33.353,161.800 33.600 C 161.657 33.832,159.463 34.000,156.576 34.000 C 153.525 34.000,151.600 34.155,151.600 34.400 C 151.600 34.638,150.075 34.800,147.824 34.800 C 145.737 34.800,143.937 34.979,143.800 35.200 C 143.664 35.420,142.314 35.600,140.800 35.600 C 139.286 35.600,137.936 35.780,137.800 36.000 C 137.664 36.220,136.393 36.400,134.976 36.400 C 133.525 36.400,132.400 36.575,132.400 36.800 C 132.400 37.020,131.500 37.200,130.400 37.200 C 129.300 37.200,128.400 37.380,128.400 37.600 C 128.400 37.820,127.500 38.000,126.400 38.000 C 125.300 38.000,124.400 38.180,124.400 38.400 C 124.400 38.620,123.500 38.800,122.400 38.800 C 121.300 38.800,120.400 38.980,120.400 39.200 C 120.400 39.420,119.781 39.600,119.024 39.600 C 118.267 39.600,117.536 39.780,117.400 40.000 C 117.264 40.220,116.623 40.400,115.976 40.400 C 115.329 40.400,114.800 40.580,114.800 40.800 C 114.800 41.020,114.271 41.200,113.624 41.200 C 112.977 41.200,112.336 41.380,112.200 41.600 C 112.064 41.820,111.434 42.000,110.800 42.000 C 110.166 42.000,109.536 42.180,109.400 42.400 C 109.264 42.620,108.724 42.800,108.200 42.800 C 107.676 42.800,107.136 42.980,107.000 43.200 C 106.864 43.420,106.403 43.600,105.976 43.600 C 105.549 43.600,105.200 43.780,105.200 44.000 C 105.200 44.220,104.660 44.400,104.000 44.400 C 103.340 44.400,102.800 44.580,102.800 44.800 C 102.800 45.020,102.440 45.200,102.000 45.200 C 101.560 45.200,101.200 45.380,101.200 45.600 C 101.200 45.820,100.840 46.000,100.400 46.000 C 99.960 46.000,99.600 46.180,99.600 46.400 C 99.600 46.620,99.240 46.800,98.800 46.800 C 98.360 46.800,98.000 46.980,98.000 47.200 C 98.000 47.420,97.640 47.600,97.200 47.600 C 96.760 47.600,96.400 47.780,96.400 48.000 C 96.400 48.220,96.040 48.400,95.600 48.400 C 95.160 48.400,94.800 48.580,94.800 48.800 C 94.800 49.020,94.440 49.200,94.000 49.200 C 93.560 49.200,93.200 49.380,93.200 49.600 C 93.200 49.820,92.964 50.000,92.675 50.000 C 92.387 50.000,91.764 50.360,91.292 50.800 C 90.820 51.240,90.196 51.600,89.905 51.600 C 89.614 51.600,89.117 51.960,88.800 52.400 C 88.483 52.840,88.011 53.200,87.752 53.200 C 87.493 53.200,86.362 54.100,85.239 55.200 C 84.115 56.300,83.040 57.200,82.849 57.200 C 82.658 57.200,81.746 58.055,80.822 59.100 C 79.898 60.145,78.525 61.678,77.771 62.507 C 77.017 63.335,76.400 64.145,76.399 64.307 C 76.399 64.468,75.859 65.230,75.200 66.000 C 74.541 66.770,74.001 67.625,74.001 67.900 C 74.000 68.175,73.820 68.400,73.600 68.400 C 73.380 68.400,73.200 68.760,73.200 69.200 C 73.200 69.640,73.065 70.001,72.900 70.003 C 72.541 70.007,71.600 71.944,71.600 72.680 C 71.600 72.966,71.420 73.200,71.200 73.200 C 70.980 73.200,70.800 73.560,70.800 74.000 C 70.800 74.440,70.620 74.800,70.400 74.800 C 70.180 74.800,70.000 75.149,70.000 75.576 C 70.000 76.003,69.820 76.464,69.600 76.600 C 69.380 76.736,69.200 77.276,69.200 77.800 C 69.200 78.324,69.020 78.864,68.800 79.000 C 68.580 79.136,68.400 79.867,68.400 80.624 C 68.400 81.381,68.220 82.000,68.000 82.000 C 67.780 82.000,67.600 82.709,67.600 83.576 C 67.600 84.443,67.420 85.264,67.200 85.400 C 66.980 85.536,66.800 86.807,66.800 88.224 C 66.800 89.675,66.625 90.800,66.400 90.800 C 65.846 90.800,65.846 273.857,66.400 274.200 C 66.620 274.336,66.800 275.427,66.800 276.624 C 66.800 277.821,66.980 278.800,67.200 278.800 C 67.420 278.800,67.600 279.329,67.600 279.976 C 67.600 280.623,67.780 281.264,68.000 281.400 C 68.220 281.536,68.400 282.076,68.400 282.600 C 68.400 283.124,68.580 283.664,68.800 283.800 C 69.020 283.936,69.200 284.487,69.200 285.024 C 69.200 285.561,69.380 286.000,69.600 286.000 C 69.820 286.000,70.000 286.253,70.000 286.562 C 70.000 287.228,71.668 290.541,72.100 290.733 C 72.265 290.807,72.400 291.212,72.400 291.633 C 72.400 292.055,72.580 292.400,72.800 292.400 C 73.020 292.400,73.200 292.720,73.200 293.112 C 73.200 293.503,73.560 294.083,74.000 294.400 C 74.440 294.717,74.800 295.169,74.800 295.404 C 74.800 295.640,75.520 296.628,76.400 297.600 C 77.280 298.572,78.000 299.520,78.000 299.706 C 78.000 299.892,79.080 301.104,80.400 302.400 L 82.800 304.756 82.800 321.383 C 82.800 330.929,82.959 338.307,83.174 338.705 C 83.379 339.087,83.783 339.985,84.071 340.700 C 84.360 341.415,84.731 342.000,84.898 342.000 C 85.064 342.000,85.200 342.273,85.200 342.607 C 85.200 343.399,90.201 348.400,90.993 348.400 C 91.327 348.400,91.600 348.580,91.600 348.800 C 91.600 349.020,91.960 349.200,92.400 349.200 C 92.840 349.200,93.200 349.380,93.200 349.600 C 93.200 349.820,93.740 350.000,94.400 350.000 C 95.060 350.000,95.600 350.180,95.600 350.400 C 95.600 350.948,120.661 350.948,121.000 350.400 C 121.136 350.180,121.777 350.000,122.424 350.000 C 123.071 350.000,123.600 349.820,123.600 349.600 C 123.600 349.380,123.960 349.200,124.400 349.200 C 124.840 349.200,125.200 349.020,125.200 348.800 C 125.200 348.580,125.473 348.400,125.807 348.400 C 126.599 348.400,131.600 343.399,131.600 342.607 C 131.600 342.273,131.780 342.000,132.000 342.000 C 132.220 342.000,132.400 341.640,132.400 341.200 C 132.400 340.760,132.580 340.400,132.800 340.400 C 133.020 340.400,133.200 339.860,133.200 339.200 C 133.200 338.540,133.380 338.000,133.600 338.000 C 133.856 338.000,134.000 334.267,134.000 327.600 L 134.000 317.200 200.000 317.200 L 266.000 317.200 266.000 327.600 C 266.000 334.267,266.144 338.000,266.400 338.000 C 266.620 338.000,266.800 338.540,266.800 339.200 C 266.800 339.860,266.980 340.400,267.200 340.400 C 267.420 340.400,267.600 340.760,267.600 341.200 C 267.600 341.640,267.780 342.000,268.000 342.000 C 268.220 342.000,268.400 342.273,268.400 342.607 C 268.400 343.399,273.401 348.400,274.193 348.400 C 274.527 348.400,274.800 348.580,274.800 348.800 C 274.800 349.020,275.160 349.200,275.600 349.200 C 276.040 349.200,276.400 349.380,276.400 349.600 C 276.400 349.820,276.929 350.000,277.576 350.000 C 278.223 350.000,278.864 350.180,279.000 350.400 C 279.339 350.948,304.400 350.948,304.400 350.400 C 304.400 350.180,304.940 350.000,305.600 350.000 C 306.260 350.000,306.800 349.820,306.800 349.600 C 306.800 349.380,307.160 349.200,307.600 349.200 C 308.040 349.200,308.400 349.020,308.400 348.800 C 308.400 348.580,308.673 348.400,309.007 348.400 C 309.799 348.400,314.800 343.399,314.800 342.607 C 314.800 342.273,314.980 342.000,315.200 342.000 C 315.420 342.000,315.600 341.640,315.600 341.200 C 315.600 340.760,315.780 340.400,316.000 340.400 C 316.220 340.400,316.400 340.051,316.400 339.624 C 316.400 339.197,316.580 338.736,316.800 338.600 C 317.056 338.442,317.200 332.321,317.200 321.550 L 317.200 304.748 319.111 302.874 C 320.162 301.843,321.465 300.370,322.007 299.600 C 322.548 298.830,323.488 297.678,324.096 297.041 C 324.703 296.403,325.200 295.721,325.200 295.524 C 325.200 295.327,325.560 294.780,326.000 294.308 C 326.440 293.836,326.800 293.213,326.800 292.925 C 326.800 292.636,326.980 292.400,327.200 292.400 C 327.420 292.400,327.600 292.055,327.600 291.633 C 327.600 291.212,327.735 290.807,327.900 290.733 C 328.332 290.541,330.000 287.228,330.000 286.562 C 330.000 286.253,330.180 286.000,330.400 286.000 C 330.620 286.000,330.800 285.561,330.800 285.024 C 330.800 284.487,330.980 283.936,331.200 283.800 C 331.420 283.664,331.600 283.124,331.600 282.600 C 331.600 282.076,331.780 281.536,332.000 281.400 C 332.220 281.264,332.400 280.634,332.400 280.000 C 332.400 279.366,332.580 278.736,332.800 278.600 C 333.020 278.464,333.200 277.474,333.200 276.400 C 333.200 275.326,333.380 274.336,333.600 274.200 C 333.865 274.036,334.000 242.996,334.000 182.376 C 334.000 121.592,333.866 90.800,333.600 90.800 C 333.375 90.800,333.200 89.675,333.200 88.224 C 333.200 86.807,333.020 85.536,332.800 85.400 C 332.580 85.264,332.400 84.443,332.400 83.576 C 332.400 82.709,332.220 82.000,332.000 82.000 C 331.780 82.000,331.600 81.458,331.600 80.795 C 331.600 80.132,331.420 79.232,331.200 78.795 C 330.980 78.358,330.620 77.642,330.400 77.205 C 330.180 76.768,330.000 76.048,330.000 75.605 C 330.000 75.162,329.820 74.800,329.600 74.800 C 329.380 74.800,329.200 74.440,329.200 74.000 C 329.200 73.560,329.020 73.200,328.800 73.200 C 328.580 73.200,328.400 72.966,328.400 72.680 C 328.400 71.944,327.459 70.007,327.100 70.003 C 326.935 70.001,326.800 69.640,326.800 69.200 C 326.800 68.760,326.620 68.400,326.400 68.400 C 326.180 68.400,326.000 68.175,325.999 67.900 C 325.999 67.625,325.459 66.770,324.800 66.000 C 324.141 65.230,323.601 64.468,323.601 64.307 C 323.600 64.145,322.983 63.335,322.229 62.507 C 321.475 61.678,320.102 60.145,319.178 59.100 C 318.254 58.055,317.342 57.200,317.151 57.200 C 316.960 57.200,315.885 56.300,314.761 55.200 C 313.638 54.100,312.507 53.200,312.248 53.200 C 311.989 53.200,311.517 52.840,311.200 52.400 C 310.883 51.960,310.386 51.600,310.095 51.600 C 309.804 51.600,309.180 51.240,308.708 50.800 C 308.236 50.360,307.613 50.000,307.325 50.000 C 307.036 50.000,306.800 49.820,306.800 49.600 C 306.800 49.380,306.440 49.200,306.000 49.200 C 305.560 49.200,305.200 49.020,305.200 48.800 C 305.200 48.580,304.840 48.400,304.400 48.400 C 303.960 48.400,303.600 48.220,303.600 48.000 C 303.600 47.780,303.240 47.600,302.800 47.600 C 302.360 47.600,302.000 47.420,302.000 47.200 C 302.000 46.980,301.640 46.800,301.200 46.800 C 300.760 46.800,300.400 46.620,300.400 46.400 C 300.400 46.180,300.040 46.000,299.600 46.000 C 299.160 46.000,298.800 45.820,298.800 45.600 C 298.800 45.380,298.440 45.200,298.000 45.200 C 297.560 45.200,297.200 45.020,297.200 44.800 C 297.200 44.580,296.660 44.400,296.000 44.400 C 295.340 44.400,294.800 44.220,294.800 44.000 C 294.800 43.780,294.451 43.600,294.024 43.600 C 293.597 43.600,293.136 43.420,293.000 43.200 C 292.864 42.980,292.324 42.800,291.800 42.800 C 291.276 42.800,290.736 42.620,290.600 42.400 C 290.464 42.180,289.834 42.000,289.200 42.000 C 288.566 42.000,287.936 41.820,287.800 41.600 C 287.664 41.380,287.023 41.200,286.376 41.200 C 285.729 41.200,285.200 41.020,285.200 40.800 C 285.200 40.580,284.671 40.400,284.024 40.400 C 283.377 40.400,282.736 40.220,282.600 40.000 C 282.464 39.780,281.733 39.600,280.976 39.600 C 280.219 39.600,279.600 39.420,279.600 39.200 C 279.600 38.980,278.700 38.800,277.600 38.800 C 276.500 38.800,275.600 38.620,275.600 38.400 C 275.600 38.180,274.700 38.000,273.600 38.000 C 272.500 38.000,271.600 37.820,271.600 37.600 C 271.600 37.380,270.700 37.200,269.600 37.200 C 268.500 37.200,267.600 37.020,267.600 36.800 C 267.600 36.575,266.475 36.400,265.024 36.400 C 263.607 36.400,262.336 36.220,262.200 36.000 C 262.064 35.780,260.714 35.600,259.200 35.600 C 257.686 35.600,256.336 35.420,256.200 35.200 C 256.063 34.979,254.263 34.800,252.176 34.800 C 249.925 34.800,248.400 34.638,248.400 34.400 C 248.400 34.155,246.475 34.000,243.424 34.000 C 240.537 34.000,238.343 33.832,238.200 33.600 C 238.047 33.353,234.537 33.200,229.000 33.200 C 223.463 33.200,219.953 33.047,219.800 32.800 C 219.641 32.542,212.537 32.400,199.800 32.400 C 187.063 32.400,179.959 32.542,179.800 32.800 M299.600 141.600 L 299.600 182.800 200.000 182.800 L 100.400 182.800 100.400 141.600 L 100.400 100.400 200.000 100.400 L 299.600 100.400 299.600 141.600 M127.800 234.400 C 127.936 234.620,128.847 234.800,129.824 234.800 C 130.801 234.800,131.600 234.980,131.600 235.200 C 131.600 235.420,132.140 235.600,132.800 235.600 C 133.460 235.600,134.000 235.780,134.000 236.000 C 134.000 236.220,134.360 236.400,134.800 236.400 C 135.240 236.400,135.600 236.580,135.600 236.800 C 135.600 237.020,135.960 237.200,136.400 237.200 C 136.840 237.200,137.200 237.350,137.200 237.532 C 137.200 237.715,137.692 238.120,138.293 238.432 C 139.706 239.166,144.034 243.494,144.768 244.907 C 145.080 245.508,145.485 246.000,145.668 246.000 C 145.850 246.000,146.000 246.360,146.000 246.800 C 146.000 247.240,146.180 247.600,146.400 247.600 C 146.620 247.600,146.800 247.960,146.800 248.400 C 146.800 248.840,146.980 249.200,147.200 249.200 C 147.420 249.200,147.600 249.639,147.600 250.176 C 147.600 250.713,147.780 251.264,148.000 251.400 C 148.220 251.536,148.400 252.256,148.400 253.000 C 148.400 253.744,148.580 254.464,148.800 254.600 C 149.020 254.736,149.200 256.457,149.200 258.424 C 149.200 260.541,149.037 262.000,148.800 262.000 C 148.580 262.000,148.400 262.720,148.400 263.600 C 148.400 264.480,148.220 265.200,148.000 265.200 C 147.780 265.200,147.600 265.740,147.600 266.400 C 147.600 267.060,147.420 267.600,147.200 267.600 C 146.980 267.600,146.800 267.960,146.800 268.400 C 146.800 268.840,146.620 269.200,146.400 269.200 C 146.180 269.200,146.000 269.520,146.000 269.912 C 146.000 270.303,145.640 270.883,145.200 271.200 C 144.760 271.517,144.400 271.997,144.400 272.266 C 144.400 272.956,139.278 278.000,138.578 278.000 C 138.260 278.000,138.000 278.159,138.000 278.353 C 138.000 278.548,137.685 278.807,137.300 278.929 C 136.915 279.051,136.060 279.459,135.400 279.836 C 133.411 280.972,132.847 281.200,132.029 281.200 C 131.599 281.200,131.136 281.380,131.000 281.600 C 130.864 281.820,129.964 282.000,129.000 282.000 C 128.036 282.000,127.136 282.180,127.000 282.400 C 126.864 282.620,125.863 282.800,124.776 282.800 C 123.689 282.800,122.800 282.620,122.800 282.400 C 122.800 282.180,121.900 282.000,120.800 282.000 C 119.700 282.000,118.800 281.820,118.800 281.600 C 118.800 281.380,118.260 281.200,117.600 281.200 C 116.940 281.200,116.400 281.020,116.400 280.800 C 116.400 280.580,116.040 280.400,115.600 280.400 C 115.160 280.400,114.800 280.220,114.800 280.000 C 114.800 279.780,114.440 279.600,114.000 279.600 C 113.560 279.600,113.200 279.420,113.200 279.200 C 113.200 278.980,112.917 278.800,112.571 278.800 C 111.808 278.800,105.609 272.638,104.825 271.100 C 104.517 270.495,104.115 270.000,103.932 270.000 C 103.750 270.000,103.600 269.640,103.600 269.200 C 103.600 268.760,103.420 268.400,103.200 268.400 C 102.980 268.400,102.800 268.051,102.800 267.624 C 102.800 267.197,102.620 266.736,102.400 266.600 C 102.180 266.464,102.000 265.834,102.000 265.200 C 102.000 264.566,101.820 263.936,101.600 263.800 C 101.366 263.655,101.200 261.337,101.200 258.200 C 101.200 255.063,101.366 252.745,101.600 252.600 C 101.820 252.464,102.000 251.823,102.000 251.176 C 102.000 250.529,102.180 250.000,102.400 250.000 C 102.620 250.000,102.800 249.640,102.800 249.200 C 102.800 248.760,102.980 248.400,103.200 248.400 C 103.420 248.400,103.600 248.040,103.600 247.600 C 103.600 247.160,103.780 246.800,104.000 246.800 C 104.220 246.800,104.400 246.528,104.400 246.196 C 104.400 245.864,104.940 245.028,105.600 244.337 C 106.260 243.646,106.800 242.922,106.800 242.727 C 106.800 242.173,109.513 239.600,110.098 239.600 C 110.387 239.600,110.883 239.240,111.200 238.800 C 111.517 238.360,112.082 238.000,112.455 238.000 C 112.828 238.000,113.193 237.865,113.267 237.700 C 113.459 237.268,116.772 235.600,117.438 235.600 C 117.747 235.600,118.000 235.420,118.000 235.200 C 118.000 234.980,118.900 234.800,120.000 234.800 C 121.100 234.800,122.000 234.620,122.000 234.400 C 122.000 234.172,123.192 234.000,124.776 234.000 C 126.303 234.000,127.664 234.180,127.800 234.400 M278.000 234.400 C 278.000 234.620,278.900 234.800,280.000 234.800 C 281.100 234.800,282.000 234.980,282.000 235.200 C 282.000 235.420,282.253 235.600,282.562 235.600 C 283.228 235.600,286.541 237.268,286.733 237.700 C 286.807 237.865,287.172 238.000,287.545 238.000 C 287.918 238.000,288.483 238.360,288.800 238.800 C 289.117 239.240,289.572 239.600,289.810 239.600 C 290.368 239.600,293.200 242.186,293.200 242.695 C 293.200 242.907,293.740 243.646,294.400 244.337 C 295.060 245.028,295.600 245.864,295.600 246.196 C 295.600 246.528,295.780 246.800,296.000 246.800 C 296.220 246.800,296.400 247.160,296.400 247.600 C 296.400 248.040,296.580 248.400,296.800 248.400 C 297.020 248.400,297.200 248.760,297.200 249.200 C 297.200 249.640,297.380 250.000,297.600 250.000 C 297.820 250.000,298.000 250.529,298.000 251.176 C 298.000 251.823,298.180 252.464,298.400 252.600 C 298.634 252.745,298.800 255.063,298.800 258.200 C 298.800 261.337,298.634 263.655,298.400 263.800 C 298.180 263.936,298.000 264.566,298.000 265.200 C 298.000 265.834,297.820 266.464,297.600 266.600 C 297.380 266.736,297.200 267.197,297.200 267.624 C 297.200 268.051,297.020 268.400,296.800 268.400 C 296.580 268.400,296.400 268.760,296.400 269.200 C 296.400 269.640,296.250 270.000,296.068 270.000 C 295.885 270.000,295.483 270.495,295.175 271.100 C 294.391 272.638,288.192 278.800,287.429 278.800 C 287.083 278.800,286.800 278.980,286.800 279.200 C 286.800 279.420,286.440 279.600,286.000 279.600 C 285.560 279.600,285.200 279.780,285.200 280.000 C 285.200 280.220,284.840 280.400,284.400 280.400 C 283.960 280.400,283.600 280.580,283.600 280.800 C 283.600 281.020,283.060 281.200,282.400 281.200 C 281.740 281.200,281.200 281.380,281.200 281.600 C 281.200 281.820,280.300 282.000,279.200 282.000 C 278.100 282.000,277.200 282.180,277.200 282.400 C 277.200 282.620,276.311 282.800,275.224 282.800 C 274.137 282.800,273.136 282.620,273.000 282.400 C 272.864 282.180,271.964 282.000,271.000 282.000 C 270.036 282.000,269.136 281.820,269.000 281.600 C 268.864 281.380,268.401 281.200,267.971 281.200 C 267.153 281.200,266.589 280.972,264.600 279.836 C 263.940 279.459,263.085 279.051,262.700 278.929 C 262.315 278.807,262.000 278.548,262.000 278.353 C 262.000 278.159,261.751 278.000,261.446 278.000 C 260.722 278.000,255.600 273.022,255.600 272.319 C 255.600 272.021,255.240 271.517,254.800 271.200 C 254.360 270.883,254.000 270.303,254.000 269.912 C 254.000 269.520,253.820 269.200,253.600 269.200 C 253.380 269.200,253.200 268.840,253.200 268.400 C 253.200 267.960,253.020 267.600,252.800 267.600 C 252.580 267.600,252.400 267.060,252.400 266.400 C 252.400 265.740,252.220 265.200,252.000 265.200 C 251.780 265.200,251.600 264.581,251.600 263.824 C 251.600 263.067,251.420 262.336,251.200 262.200 C 250.980 262.064,250.800 260.354,250.800 258.400 C 250.800 256.446,250.980 254.736,251.200 254.600 C 251.420 254.464,251.600 253.744,251.600 253.000 C 251.600 252.256,251.780 251.536,252.000 251.400 C 252.220 251.264,252.400 250.713,252.400 250.176 C 252.400 249.639,252.580 249.200,252.800 249.200 C 253.020 249.200,253.200 248.840,253.200 248.400 C 253.200 247.960,253.380 247.600,253.600 247.600 C 253.820 247.600,254.000 247.240,254.000 246.800 C 254.000 246.360,254.150 246.000,254.332 246.000 C 254.515 246.000,254.920 245.505,255.232 244.900 C 255.976 243.459,261.521 238.000,262.241 238.000 C 262.548 238.000,262.800 237.820,262.800 237.600 C 262.800 237.380,263.160 237.200,263.600 237.200 C 264.040 237.200,264.400 237.020,264.400 236.800 C 264.400 236.580,264.760 236.400,265.200 236.400 C 265.640 236.400,266.000 236.220,266.000 236.000 C 266.000 235.780,266.540 235.600,267.200 235.600 C 267.860 235.600,268.400 235.420,268.400 235.200 C 268.400 234.980,269.199 234.800,270.176 234.800 C 271.153 234.800,272.064 234.620,272.200 234.400 C 272.336 234.180,273.697 234.000,275.224 234.000 C 276.808 234.000,278.000 234.172,278.000 234.400 " stroke="none" fill="#000000" fill-rule="evenodd"></path></g></svg>