<?xml version="1.0" encoding="UTF-8" standalone="no"?>
<svg
   xmlns:dc="http://purl.org/dc/elements/1.1/"
   xmlns:cc="http://creativecommons.org/ns#"
   xmlns:rdf="http://www.w3.org/1999/02/22-rdf-syntax-ns#"
   xmlns:svg="http://www.w3.org/2000/svg"
   xmlns="http://www.w3.org/2000/svg"
   xmlns:sodipodi="http://sodipodi.sourceforge.net/DTD/sodipodi-0.dtd"
   xmlns:inkscape="http://www.inkscape.org/namespaces/inkscape"
   id="svg"
   version="1.1"
   width="25"
   height="29.700802"
   style="display:block"
   sodipodi:docname="Bus Black.svg"
   inkscape:version="0.92.1 r15371">
  <metadata
     id="metadata13">
    <rdf:RDF>
      <cc:Work
         rdf:about="">
        <dc:format>image/svg+xml</dc:format>
        <dc:type
           rdf:resource="http://purl.org/dc/dcmitype/StillImage" />
      </cc:Work>
    </rdf:RDF>
  </metadata>
  <defs
     id="defs11" />
  <sodipodi:namedview
     pagecolor="#ffffff"
     bordercolor="#666666"
     borderopacity="1"
     objecttolerance="10"
     gridtolerance="10"
     guidetolerance="10"
     inkscape:pageopacity="0"
     inkscape:pageshadow="2"
     inkscape:window-width="1440"
     inkscape:window-height="838"
     id="namedview9"
     showgrid="false"
     inkscape:zoom="1.3446607"
     inkscape:cx="-209.85534"
     inkscape:cy="4759.0674"
     inkscape:window-x="-8"
     inkscape:window-y="-8"
     inkscape:window-maximized="1"
     inkscape:current-layer="svg"
     showguides="false"
     inkscape:guide-bbox="true"
     inkscape:snap-grids="true"
     inkscape:snap-to-guides="true"
     inkscape:snap-bbox="true"
     inkscape:snap-global="true">
    <sodipodi:guide
       position="-272.93131,419.43667"
       orientation="-0.70710678,0.70710678"
       id="guide12"
       inkscape:locked="false" />
    <sodipodi:guide
       position="82.548705,31.23464"
       orientation="0,1"
       id="guide14"
       inkscape:locked="false" />
  </sodipodi:namedview>
  <g
     id="svgg"
     transform="matrix(0.09327819,0,0,0.09327819,-6.1549147,-3.0222133)">
    <path
       id="path0"
       d="m 179.8,32.8 c -0.153,0.247 -3.596,0.4 -9,0.4 -5.404,0 -8.847,0.153 -9,0.4 -0.143,0.232 -2.337,0.4 -5.224,0.4 -3.051,0 -4.976,0.155 -4.976,0.4 0,0.238 -1.525,0.4 -3.776,0.4 -2.087,0 -3.887,0.179 -4.024,0.4 -0.136,0.22 -1.486,0.4 -3,0.4 -1.514,0 -2.864,0.18 -3,0.4 -0.136,0.22 -1.407,0.4 -2.824,0.4 -1.451,0 -2.576,0.175 -2.576,0.4 0,0.22 -0.9,0.4 -2,0.4 -1.1,0 -2,0.18 -2,0.4 0,0.22 -0.9,0.4 -2,0.4 -1.1,0 -2,0.18 -2,0.4 0,0.22 -0.9,0.4 -2,0.4 -1.1,0 -2,0.18 -2,0.4 0,0.22 -0.619,0.4 -1.376,0.4 -0.757,0 -1.488,0.18 -1.624,0.4 -0.136,0.22 -0.777,0.4 -1.424,0.4 -0.647,0 -1.176,0.18 -1.176,0.4 0,0.22 -0.529,0.4 -1.176,0.4 -0.647,0 -1.288,0.18 -1.424,0.4 -0.136,0.22 -0.766,0.4 -1.4,0.4 -0.634,0 -1.264,0.18 -1.4,0.4 -0.136,0.22 -0.676,0.4 -1.2,0.4 -0.524,0 -1.064,0.18 -1.2,0.4 -0.136,0.22 -0.597,0.4 -1.024,0.4 -0.427,0 -0.776,0.18 -0.776,0.4 0,0.22 -0.54,0.4 -1.2,0.4 -0.66,0 -1.2,0.18 -1.2,0.4 0,0.22 -0.36,0.4 -0.8,0.4 -0.44,0 -0.8,0.18 -0.8,0.4 0,0.22 -0.36,0.4 -0.8,0.4 -0.44,0 -0.8,0.18 -0.8,0.4 0,0.22 -0.36,0.4 -0.8,0.4 -0.44,0 -0.8,0.18 -0.8,0.4 0,0.22 -0.36,0.4 -0.8,0.4 -0.44,0 -0.8,0.18 -0.8,0.4 0,0.22 -0.36,0.4 -0.8,0.4 -0.44,0 -0.8,0.18 -0.8,0.4 0,0.22 -0.36,0.4 -0.8,0.4 -0.44,0 -0.8,0.18 -0.8,0.4 0,0.22 -0.236,0.4 -0.525,0.4 -0.288,0 -0.911,0.36 -1.383,0.8 -0.472,0.44 -1.096,0.8 -1.387,0.8 -0.291,0 -0.788,0.36 -1.105,0.8 -0.317,0.44 -0.789,0.8 -1.048,0.8 -0.259,0 -1.39,0.9 -2.513,2 -1.124,1.1 -2.199,2 -2.39,2 -0.191,0 -1.103,0.855 -2.027,1.9 -0.924,1.045 -2.297,2.578 -3.051,3.407 -0.754,0.828 -1.371,1.638 -1.372,1.8 0,0.161 -0.54,0.923 -1.199,1.693 -0.659,0.77 -1.199,1.625 -1.199,1.9 -0.001,0.275 -0.181,0.5 -0.401,0.5 -0.22,0 -0.4,0.36 -0.4,0.8 0,0.44 -0.135,0.801 -0.3,0.803 -0.359,0.004 -1.3,1.941 -1.3,2.677 0,0.286 -0.18,0.52 -0.4,0.52 -0.22,0 -0.4,0.36 -0.4,0.8 0,0.44 -0.18,0.8 -0.4,0.8 -0.22,0 -0.4,0.349 -0.4,0.776 0,0.427 -0.18,0.888 -0.4,1.024 -0.22,0.136 -0.4,0.676 -0.4,1.2 0,0.524 -0.18,1.064 -0.4,1.2 -0.22,0.136 -0.4,0.867 -0.4,1.624 0,0.757 -0.18,1.376 -0.4,1.376 -0.22,0 -0.4,0.709 -0.4,1.576 0,0.867 -0.18,1.688 -0.4,1.824 -0.22,0.136 -0.4,1.407 -0.4,2.824 0,1.451 -0.175,2.576 -0.4,2.576 -0.554,0 -0.554,183.057 0,183.4 0.22,0.136 0.4,1.227 0.4,2.424 0,1.197 0.18,2.176 0.4,2.176 0.22,0 0.4,0.529 0.4,1.176 0,0.647 0.18,1.288 0.4,1.424 0.22,0.136 0.4,0.676 0.4,1.2 0,0.524 0.18,1.064 0.4,1.2 0.22,0.136 0.4,0.687 0.4,1.224 0,0.537 0.18,0.976 0.4,0.976 0.22,0 0.4,0.253 0.4,0.562 0,0.666 1.668,3.979 2.1,4.171 0.165,0.074 0.3,0.479 0.3,0.9 0,0.422 0.18,0.767 0.4,0.767 0.22,0 0.4,0.32 0.4,0.712 0,0.391 0.36,0.971 0.8,1.288 0.44,0.317 0.8,0.769 0.8,1.004 0,0.236 0.72,1.224 1.6,2.196 0.88,0.972 1.6,1.92 1.6,2.106 0,0.186 1.08,1.398 2.4,2.694 l 2.4,2.356 v 16.627 c 0,9.546 0.159,16.924 0.374,17.322 0.205,0.382 0.609,1.28 0.897,1.995 0.289,0.715 0.66,1.3 0.827,1.3 0.166,0 0.302,0.273 0.302,0.607 0,0.792 5.001,5.793 5.793,5.793 0.334,0 0.607,0.18 0.607,0.4 0,0.22 0.36,0.4 0.8,0.4 0.44,0 0.8,0.18 0.8,0.4 0,0.22 0.54,0.4 1.2,0.4 0.66,0 1.2,0.18 1.2,0.4 0,0.548 25.061,0.548 25.4,0 0.136,-0.22 0.777,-0.4 1.424,-0.4 0.647,0 1.176,-0.18 1.176,-0.4 0,-0.22 0.36,-0.4 0.8,-0.4 0.44,0 0.8,-0.18 0.8,-0.4 0,-0.22 0.273,-0.4 0.607,-0.4 0.792,0 5.793,-5.001 5.793,-5.793 0,-0.334 0.18,-0.607 0.4,-0.607 0.22,0 0.4,-0.36 0.4,-0.8 0,-0.44 0.18,-0.8 0.4,-0.8 0.22,0 0.4,-0.54 0.4,-1.2 0,-0.66 0.18,-1.2 0.4,-1.2 0.256,0 0.4,-3.733 0.4,-10.4 v -10.4 h 66 66 v 10.4 c 0,6.667 0.144,10.4 0.4,10.4 0.22,0 0.4,0.54 0.4,1.2 0,0.66 0.18,1.2 0.4,1.2 0.22,0 0.4,0.36 0.4,0.8 0,0.44 0.18,0.8 0.4,0.8 0.22,0 0.4,0.273 0.4,0.607 0,0.792 5.001,5.793 5.793,5.793 0.334,0 0.607,0.18 0.607,0.4 0,0.22 0.36,0.4 0.8,0.4 0.44,0 0.8,0.18 0.8,0.4 0,0.22 0.529,0.4 1.176,0.4 0.647,0 1.288,0.18 1.424,0.4 0.339,0.548 25.4,0.548 25.4,0 0,-0.22 0.54,-0.4 1.2,-0.4 0.66,0 1.2,-0.18 1.2,-0.4 0,-0.22 0.36,-0.4 0.8,-0.4 0.44,0 0.8,-0.18 0.8,-0.4 0,-0.22 0.273,-0.4 0.607,-0.4 0.792,0 5.793,-5.001 5.793,-5.793 0,-0.334 0.18,-0.607 0.4,-0.607 0.22,0 0.4,-0.36 0.4,-0.8 0,-0.44 0.18,-0.8 0.4,-0.8 0.22,0 0.4,-0.349 0.4,-0.776 0,-0.427 0.18,-0.888 0.4,-1.024 0.256,-0.158 0.4,-6.279 0.4,-17.05 v -16.802 l 1.911,-1.874 c 1.051,-1.031 2.354,-2.504 2.896,-3.274 0.541,-0.77 1.481,-1.922 2.089,-2.559 0.607,-0.638 1.104,-1.32 1.104,-1.517 0,-0.197 0.36,-0.744 0.8,-1.216 0.44,-0.472 0.8,-1.095 0.8,-1.383 0,-0.289 0.18,-0.525 0.4,-0.525 0.22,0 0.4,-0.345 0.4,-0.767 0,-0.421 0.135,-0.826 0.3,-0.9 0.432,-0.192 2.1,-3.505 2.1,-4.171 0,-0.309 0.18,-0.562 0.4,-0.562 0.22,0 0.4,-0.439 0.4,-0.976 0,-0.537 0.18,-1.088 0.4,-1.224 0.22,-0.136 0.4,-0.676 0.4,-1.2 0,-0.524 0.18,-1.064 0.4,-1.2 0.22,-0.136 0.4,-0.766 0.4,-1.4 0,-0.634 0.18,-1.264 0.4,-1.4 0.22,-0.136 0.4,-1.126 0.4,-2.2 0,-1.074 0.18,-2.064 0.4,-2.2 0.265,-0.164 0.4,-31.204 0.4,-91.824 0,-60.784 -0.134,-91.576 -0.4,-91.576 -0.225,0 -0.4,-1.125 -0.4,-2.576 0,-1.417 -0.18,-2.688 -0.4,-2.824 -0.22,-0.136 -0.4,-0.957 -0.4,-1.824 0,-0.867 -0.18,-1.576 -0.4,-1.576 -0.22,0 -0.4,-0.542 -0.4,-1.205 0,-0.663 -0.18,-1.563 -0.4,-2 -0.22,-0.437 -0.58,-1.153 -0.8,-1.59 -0.22,-0.437 -0.4,-1.157 -0.4,-1.6 0,-0.443 -0.18,-0.805 -0.4,-0.805 -0.22,0 -0.4,-0.36 -0.4,-0.8 0,-0.44 -0.18,-0.8 -0.4,-0.8 -0.22,0 -0.4,-0.234 -0.4,-0.52 0,-0.736 -0.941,-2.673 -1.3,-2.677 -0.165,-0.002 -0.3,-0.363 -0.3,-0.803 0,-0.44 -0.18,-0.8 -0.4,-0.8 -0.22,0 -0.4,-0.225 -0.401,-0.5 0,-0.275 -0.54,-1.13 -1.199,-1.9 -0.659,-0.77 -1.199,-1.532 -1.199,-1.693 -10e-4,-0.162 -0.618,-0.972 -1.372,-1.8 -0.754,-0.829 -2.127,-2.362 -3.051,-3.407 -0.924,-1.045 -1.836,-1.9 -2.027,-1.9 -0.191,0 -1.266,-0.9 -2.39,-2 -1.123,-1.1 -2.254,-2 -2.513,-2 -0.259,0 -0.731,-0.36 -1.048,-0.8 -0.317,-0.44 -0.814,-0.8 -1.105,-0.8 -0.291,0 -0.915,-0.36 -1.387,-0.8 -0.472,-0.44 -1.095,-0.8 -1.383,-0.8 -0.289,0 -0.525,-0.18 -0.525,-0.4 0,-0.22 -0.36,-0.4 -0.8,-0.4 -0.44,0 -0.8,-0.18 -0.8,-0.4 0,-0.22 -0.36,-0.4 -0.8,-0.4 -0.44,0 -0.8,-0.18 -0.8,-0.4 0,-0.22 -0.36,-0.4 -0.8,-0.4 -0.44,0 -0.8,-0.18 -0.8,-0.4 0,-0.22 -0.36,-0.4 -0.8,-0.4 -0.44,0 -0.8,-0.18 -0.8,-0.4 0,-0.22 -0.36,-0.4 -0.8,-0.4 -0.44,0 -0.8,-0.18 -0.8,-0.4 0,-0.22 -0.36,-0.4 -0.8,-0.4 -0.44,0 -0.8,-0.18 -0.8,-0.4 0,-0.22 -0.54,-0.4 -1.2,-0.4 -0.66,0 -1.2,-0.18 -1.2,-0.4 0,-0.22 -0.349,-0.4 -0.776,-0.4 -0.427,0 -0.888,-0.18 -1.024,-0.4 -0.136,-0.22 -0.676,-0.4 -1.2,-0.4 -0.524,0 -1.064,-0.18 -1.2,-0.4 -0.136,-0.22 -0.766,-0.4 -1.4,-0.4 -0.634,0 -1.264,-0.18 -1.4,-0.4 -0.136,-0.22 -0.777,-0.4 -1.424,-0.4 -0.647,0 -1.176,-0.18 -1.176,-0.4 0,-0.22 -0.529,-0.4 -1.176,-0.4 -0.647,0 -1.288,-0.18 -1.424,-0.4 -0.136,-0.22 -0.867,-0.4 -1.624,-0.4 -0.757,0 -1.376,-0.18 -1.376,-0.4 0,-0.22 -0.9,-0.4 -2,-0.4 -1.1,0 -2,-0.18 -2,-0.4 0,-0.22 -0.9,-0.4 -2,-0.4 -1.1,0 -2,-0.18 -2,-0.4 0,-0.22 -0.9,-0.4 -2,-0.4 -1.1,0 -2,-0.18 -2,-0.4 0,-0.225 -1.125,-0.4 -2.576,-0.4 -1.417,0 -2.688,-0.18 -2.824,-0.4 -0.136,-0.22 -1.486,-0.4 -3,-0.4 -1.514,0 -2.864,-0.18 -3,-0.4 -0.137,-0.221 -1.937,-0.4 -4.024,-0.4 -2.251,0 -3.776,-0.162 -3.776,-0.4 0,-0.245 -1.925,-0.4 -4.976,-0.4 -2.887,0 -5.081,-0.168 -5.224,-0.4 -0.153,-0.247 -3.663,-0.4 -9.2,-0.4 -5.537,0 -9.047,-0.153 -9.2,-0.4 -0.159,-0.258 -7.263,-0.4 -20,-0.4 -12.737,0 -19.841,0.142 -20,0.4 m 119.8,108.8 v 41.2 H 200 100.4 v -41.2 -41.2 h 99.6 99.6 v 41.2 m -171.8,92.8 c 0.136,0.22 1.047,0.4 2.024,0.4 0.977,0 1.776,0.18 1.776,0.4 0,0.22 0.54,0.4 1.2,0.4 0.66,0 1.2,0.18 1.2,0.4 0,0.22 0.36,0.4 0.8,0.4 0.44,0 0.8,0.18 0.8,0.4 0,0.22 0.36,0.4 0.8,0.4 0.44,0 0.8,0.15 0.8,0.332 0,0.183 0.492,0.588 1.093,0.9 1.413,0.734 5.741,5.062 6.475,6.475 0.312,0.601 0.717,1.093 0.9,1.093 0.182,0 0.332,0.36 0.332,0.8 0,0.44 0.18,0.8 0.4,0.8 0.22,0 0.4,0.36 0.4,0.8 0,0.44 0.18,0.8 0.4,0.8 0.22,0 0.4,0.439 0.4,0.976 0,0.537 0.18,1.088 0.4,1.224 0.22,0.136 0.4,0.856 0.4,1.6 0,0.744 0.18,1.464 0.4,1.6 0.22,0.136 0.4,1.857 0.4,3.824 0,2.117 -0.163,3.576 -0.4,3.576 -0.22,0 -0.4,0.72 -0.4,1.6 0,0.88 -0.18,1.6 -0.4,1.6 -0.22,0 -0.4,0.54 -0.4,1.2 0,0.66 -0.18,1.2 -0.4,1.2 -0.22,0 -0.4,0.36 -0.4,0.8 0,0.44 -0.18,0.8 -0.4,0.8 -0.22,0 -0.4,0.32 -0.4,0.712 0,0.391 -0.36,0.971 -0.8,1.288 -0.44,0.317 -0.8,0.797 -0.8,1.066 0,0.69 -5.122,5.734 -5.822,5.734 -0.318,0 -0.578,0.159 -0.578,0.353 0,0.195 -0.315,0.454 -0.7,0.576 -0.385,0.122 -1.24,0.53 -1.9,0.907 -1.989,1.136 -2.553,1.364 -3.371,1.364 -0.43,0 -0.893,0.18 -1.029,0.4 -0.136,0.22 -1.036,0.4 -2,0.4 -0.964,0 -1.864,0.18 -2,0.4 -0.136,0.22 -1.137,0.4 -2.224,0.4 -1.087,0 -1.976,-0.18 -1.976,-0.4 0,-0.22 -0.9,-0.4 -2,-0.4 -1.1,0 -2,-0.18 -2,-0.4 0,-0.22 -0.54,-0.4 -1.2,-0.4 -0.66,0 -1.2,-0.18 -1.2,-0.4 0,-0.22 -0.36,-0.4 -0.8,-0.4 -0.44,0 -0.8,-0.18 -0.8,-0.4 0,-0.22 -0.36,-0.4 -0.8,-0.4 -0.44,0 -0.8,-0.18 -0.8,-0.4 0,-0.22 -0.283,-0.4 -0.629,-0.4 -0.763,0 -6.962,-6.162 -7.746,-7.7 -0.308,-0.605 -0.71,-1.1 -0.893,-1.1 -0.182,0 -0.332,-0.36 -0.332,-0.8 0,-0.44 -0.18,-0.8 -0.4,-0.8 -0.22,0 -0.4,-0.349 -0.4,-0.776 0,-0.427 -0.18,-0.888 -0.4,-1.024 -0.22,-0.136 -0.4,-0.766 -0.4,-1.4 0,-0.634 -0.18,-1.264 -0.4,-1.4 -0.234,-0.145 -0.4,-2.463 -0.4,-5.6 0,-3.137 0.166,-5.455 0.4,-5.6 0.22,-0.136 0.4,-0.777 0.4,-1.424 0,-0.647 0.18,-1.176 0.4,-1.176 0.22,0 0.4,-0.36 0.4,-0.8 0,-0.44 0.18,-0.8 0.4,-0.8 0.22,0 0.4,-0.36 0.4,-0.8 0,-0.44 0.18,-0.8 0.4,-0.8 0.22,0 0.4,-0.272 0.4,-0.604 0,-0.332 0.54,-1.168 1.2,-1.859 0.66,-0.691 1.2,-1.415 1.2,-1.61 0,-0.554 2.713,-3.127 3.298,-3.127 0.289,0 0.785,-0.36 1.102,-0.8 0.317,-0.44 0.882,-0.8 1.255,-0.8 0.373,0 0.738,-0.135 0.812,-0.3 0.192,-0.432 3.505,-2.1 4.171,-2.1 0.309,0 0.562,-0.18 0.562,-0.4 0,-0.22 0.9,-0.4 2,-0.4 1.1,0 2,-0.18 2,-0.4 0,-0.228 1.192,-0.4 2.776,-0.4 1.527,0 2.888,0.18 3.024,0.4 m 150.2,0 c 0,0.22 0.9,0.4 2,0.4 1.1,0 2,0.18 2,0.4 0,0.22 0.253,0.4 0.562,0.4 0.666,0 3.979,1.668 4.171,2.1 0.074,0.165 0.439,0.3 0.812,0.3 0.373,0 0.938,0.36 1.255,0.8 0.317,0.44 0.772,0.8 1.01,0.8 0.558,0 3.39,2.586 3.39,3.095 0,0.212 0.54,0.951 1.2,1.642 0.66,0.691 1.2,1.527 1.2,1.859 0,0.332 0.18,0.604 0.4,0.604 0.22,0 0.4,0.36 0.4,0.8 0,0.44 0.18,0.8 0.4,0.8 0.22,0 0.4,0.36 0.4,0.8 0,0.44 0.18,0.8 0.4,0.8 0.22,0 0.4,0.529 0.4,1.176 0,0.647 0.18,1.288 0.4,1.424 0.234,0.145 0.4,2.463 0.4,5.6 0,3.137 -0.166,5.455 -0.4,5.6 -0.22,0.136 -0.4,0.766 -0.4,1.4 0,0.634 -0.18,1.264 -0.4,1.4 -0.22,0.136 -0.4,0.597 -0.4,1.024 0,0.427 -0.18,0.776 -0.4,0.776 -0.22,0 -0.4,0.36 -0.4,0.8 0,0.44 -0.15,0.8 -0.332,0.8 -0.183,0 -0.585,0.495 -0.893,1.1 -0.784,1.538 -6.983,7.7 -7.746,7.7 -0.346,0 -0.629,0.18 -0.629,0.4 0,0.22 -0.36,0.4 -0.8,0.4 -0.44,0 -0.8,0.18 -0.8,0.4 0,0.22 -0.36,0.4 -0.8,0.4 -0.44,0 -0.8,0.18 -0.8,0.4 0,0.22 -0.54,0.4 -1.2,0.4 -0.66,0 -1.2,0.18 -1.2,0.4 0,0.22 -0.9,0.4 -2,0.4 -1.1,0 -2,0.18 -2,0.4 0,0.22 -0.889,0.4 -1.976,0.4 -1.087,0 -2.088,-0.18 -2.224,-0.4 -0.136,-0.22 -1.036,-0.4 -2,-0.4 -0.964,0 -1.864,-0.18 -2,-0.4 -0.136,-0.22 -0.599,-0.4 -1.029,-0.4 -0.818,0 -1.382,-0.228 -3.371,-1.364 -0.66,-0.377 -1.515,-0.785 -1.9,-0.907 -0.385,-0.122 -0.7,-0.381 -0.7,-0.576 0,-0.194 -0.249,-0.353 -0.554,-0.353 -0.724,0 -5.846,-4.978 -5.846,-5.681 0,-0.298 -0.36,-0.802 -0.8,-1.119 -0.44,-0.317 -0.8,-0.897 -0.8,-1.288 0,-0.392 -0.18,-0.712 -0.4,-0.712 -0.22,0 -0.4,-0.36 -0.4,-0.8 0,-0.44 -0.18,-0.8 -0.4,-0.8 -0.22,0 -0.4,-0.54 -0.4,-1.2 0,-0.66 -0.18,-1.2 -0.4,-1.2 -0.22,0 -0.4,-0.619 -0.4,-1.376 0,-0.757 -0.18,-1.488 -0.4,-1.624 -0.22,-0.136 -0.4,-1.846 -0.4,-3.8 0,-1.954 0.18,-3.664 0.4,-3.8 0.22,-0.136 0.4,-0.856 0.4,-1.6 0,-0.744 0.18,-1.464 0.4,-1.6 0.22,-0.136 0.4,-0.687 0.4,-1.224 0,-0.537 0.18,-0.976 0.4,-0.976 0.22,0 0.4,-0.36 0.4,-0.8 0,-0.44 0.18,-0.8 0.4,-0.8 0.22,0 0.4,-0.36 0.4,-0.8 0,-0.44 0.15,-0.8 0.332,-0.8 0.183,0 0.588,-0.495 0.9,-1.1 0.744,-1.441 6.289,-6.9 7.009,-6.9 0.307,0 0.559,-0.18 0.559,-0.4 0,-0.22 0.36,-0.4 0.8,-0.4 0.44,0 0.8,-0.18 0.8,-0.4 0,-0.22 0.36,-0.4 0.8,-0.4 0.44,0 0.8,-0.18 0.8,-0.4 0,-0.22 0.54,-0.4 1.2,-0.4 0.66,0 1.2,-0.18 1.2,-0.4 0,-0.22 0.799,-0.4 1.776,-0.4 0.977,0 1.888,-0.18 2.024,-0.4 0.136,-0.22 1.497,-0.4 3.024,-0.4 1.584,0 2.776,0.172 2.776,0.4"
       inkscape:connector-curvature="0"
       style="fill:#000000;fill-rule:evenodd;stroke:none" />
    <path
       id="path1"
       d="m 179.8,32.8 c -0.153,0.247 -3.596,0.4 -9,0.4 -5.404,0 -8.847,0.153 -9,0.4 -0.143,0.232 -2.337,0.4 -5.224,0.4 -3.051,0 -4.976,0.155 -4.976,0.4 0,0.238 -1.525,0.4 -3.776,0.4 -2.087,0 -3.887,0.179 -4.024,0.4 -0.136,0.22 -1.486,0.4 -3,0.4 -1.514,0 -2.864,0.18 -3,0.4 -0.136,0.22 -1.407,0.4 -2.824,0.4 -1.451,0 -2.576,0.175 -2.576,0.4 0,0.22 -0.9,0.4 -2,0.4 -1.1,0 -2,0.18 -2,0.4 0,0.22 -0.9,0.4 -2,0.4 -1.1,0 -2,0.18 -2,0.4 0,0.22 -0.9,0.4 -2,0.4 -1.1,0 -2,0.18 -2,0.4 0,0.22 -0.619,0.4 -1.376,0.4 -0.757,0 -1.488,0.18 -1.624,0.4 -0.136,0.22 -0.777,0.4 -1.424,0.4 -0.647,0 -1.176,0.18 -1.176,0.4 0,0.22 -0.529,0.4 -1.176,0.4 -0.647,0 -1.288,0.18 -1.424,0.4 -0.136,0.22 -0.766,0.4 -1.4,0.4 -0.634,0 -1.264,0.18 -1.4,0.4 -0.136,0.22 -0.676,0.4 -1.2,0.4 -0.524,0 -1.064,0.18 -1.2,0.4 -0.136,0.22 -0.597,0.4 -1.024,0.4 -0.427,0 -0.776,0.18 -0.776,0.4 0,0.22 -0.54,0.4 -1.2,0.4 -0.66,0 -1.2,0.18 -1.2,0.4 0,0.22 -0.36,0.4 -0.8,0.4 -0.44,0 -0.8,0.18 -0.8,0.4 0,0.22 -0.36,0.4 -0.8,0.4 -0.44,0 -0.8,0.18 -0.8,0.4 0,0.22 -0.36,0.4 -0.8,0.4 -0.44,0 -0.8,0.18 -0.8,0.4 0,0.22 -0.36,0.4 -0.8,0.4 -0.44,0 -0.8,0.18 -0.8,0.4 0,0.22 -0.36,0.4 -0.8,0.4 -0.44,0 -0.8,0.18 -0.8,0.4 0,0.22 -0.36,0.4 -0.8,0.4 -0.44,0 -0.8,0.18 -0.8,0.4 0,0.22 -0.236,0.4 -0.525,0.4 -0.288,0 -0.911,0.36 -1.383,0.8 -0.472,0.44 -1.096,0.8 -1.387,0.8 -0.291,0 -0.788,0.36 -1.105,0.8 -0.317,0.44 -0.789,0.8 -1.048,0.8 -0.259,0 -1.39,0.9 -2.513,2 -1.124,1.1 -2.199,2 -2.39,2 -0.191,0 -1.103,0.855 -2.027,1.9 -0.924,1.045 -2.297,2.578 -3.051,3.407 -0.754,0.828 -1.371,1.638 -1.372,1.8 0,0.161 -0.54,0.923 -1.199,1.693 -0.659,0.77 -1.199,1.625 -1.199,1.9 -0.001,0.275 -0.181,0.5 -0.401,0.5 -0.22,0 -0.4,0.36 -0.4,0.8 0,0.44 -0.135,0.801 -0.3,0.803 -0.359,0.004 -1.3,1.941 -1.3,2.677 0,0.286 -0.18,0.52 -0.4,0.52 -0.22,0 -0.4,0.36 -0.4,0.8 0,0.44 -0.18,0.8 -0.4,0.8 -0.22,0 -0.4,0.349 -0.4,0.776 0,0.427 -0.18,0.888 -0.4,1.024 -0.22,0.136 -0.4,0.676 -0.4,1.2 0,0.524 -0.18,1.064 -0.4,1.2 -0.22,0.136 -0.4,0.867 -0.4,1.624 0,0.757 -0.18,1.376 -0.4,1.376 -0.22,0 -0.4,0.709 -0.4,1.576 0,0.867 -0.18,1.688 -0.4,1.824 -0.22,0.136 -0.4,1.407 -0.4,2.824 0,1.451 -0.175,2.576 -0.4,2.576 -0.554,0 -0.554,183.057 0,183.4 0.22,0.136 0.4,1.227 0.4,2.424 0,1.197 0.18,2.176 0.4,2.176 0.22,0 0.4,0.529 0.4,1.176 0,0.647 0.18,1.288 0.4,1.424 0.22,0.136 0.4,0.676 0.4,1.2 0,0.524 0.18,1.064 0.4,1.2 0.22,0.136 0.4,0.687 0.4,1.224 0,0.537 0.18,0.976 0.4,0.976 0.22,0 0.4,0.253 0.4,0.562 0,0.666 1.668,3.979 2.1,4.171 0.165,0.074 0.3,0.479 0.3,0.9 0,0.422 0.18,0.767 0.4,0.767 0.22,0 0.4,0.32 0.4,0.712 0,0.391 0.36,0.971 0.8,1.288 0.44,0.317 0.8,0.769 0.8,1.004 0,0.236 0.72,1.224 1.6,2.196 0.88,0.972 1.6,1.92 1.6,2.106 0,0.186 1.08,1.398 2.4,2.694 l 2.4,2.356 v 16.627 c 0,9.546 0.159,16.924 0.374,17.322 0.205,0.382 0.609,1.28 0.897,1.995 0.289,0.715 0.66,1.3 0.827,1.3 0.166,0 0.302,0.273 0.302,0.607 0,0.792 5.001,5.793 5.793,5.793 0.334,0 0.607,0.18 0.607,0.4 0,0.22 0.36,0.4 0.8,0.4 0.44,0 0.8,0.18 0.8,0.4 0,0.22 0.54,0.4 1.2,0.4 0.66,0 1.2,0.18 1.2,0.4 0,0.548 25.061,0.548 25.4,0 0.136,-0.22 0.777,-0.4 1.424,-0.4 0.647,0 1.176,-0.18 1.176,-0.4 0,-0.22 0.36,-0.4 0.8,-0.4 0.44,0 0.8,-0.18 0.8,-0.4 0,-0.22 0.273,-0.4 0.607,-0.4 0.792,0 5.793,-5.001 5.793,-5.793 0,-0.334 0.18,-0.607 0.4,-0.607 0.22,0 0.4,-0.36 0.4,-0.8 0,-0.44 0.18,-0.8 0.4,-0.8 0.22,0 0.4,-0.54 0.4,-1.2 0,-0.66 0.18,-1.2 0.4,-1.2 0.256,0 0.4,-3.733 0.4,-10.4 v -10.4 h 66 66 v 10.4 c 0,6.667 0.144,10.4 0.4,10.4 0.22,0 0.4,0.54 0.4,1.2 0,0.66 0.18,1.2 0.4,1.2 0.22,0 0.4,0.36 0.4,0.8 0,0.44 0.18,0.8 0.4,0.8 0.22,0 0.4,0.273 0.4,0.607 0,0.792 5.001,5.793 5.793,5.793 0.334,0 0.607,0.18 0.607,0.4 0,0.22 0.36,0.4 0.8,0.4 0.44,0 0.8,0.18 0.8,0.4 0,0.22 0.529,0.4 1.176,0.4 0.647,0 1.288,0.18 1.424,0.4 0.339,0.548 25.4,0.548 25.4,0 0,-0.22 0.54,-0.4 1.2,-0.4 0.66,0 1.2,-0.18 1.2,-0.4 0,-0.22 0.36,-0.4 0.8,-0.4 0.44,0 0.8,-0.18 0.8,-0.4 0,-0.22 0.273,-0.4 0.607,-0.4 0.792,0 5.793,-5.001 5.793,-5.793 0,-0.334 0.18,-0.607 0.4,-0.607 0.22,0 0.4,-0.36 0.4,-0.8 0,-0.44 0.18,-0.8 0.4,-0.8 0.22,0 0.4,-0.349 0.4,-0.776 0,-0.427 0.18,-0.888 0.4,-1.024 0.256,-0.158 0.4,-6.279 0.4,-17.05 v -16.802 l 1.911,-1.874 c 1.051,-1.031 2.354,-2.504 2.896,-3.274 0.541,-0.77 1.481,-1.922 2.089,-2.559 0.607,-0.638 1.104,-1.32 1.104,-1.517 0,-0.197 0.36,-0.744 0.8,-1.216 0.44,-0.472 0.8,-1.095 0.8,-1.383 0,-0.289 0.18,-0.525 0.4,-0.525 0.22,0 0.4,-0.345 0.4,-0.767 0,-0.421 0.135,-0.826 0.3,-0.9 0.432,-0.192 2.1,-3.505 2.1,-4.171 0,-0.309 0.18,-0.562 0.4,-0.562 0.22,0 0.4,-0.439 0.4,-0.976 0,-0.537 0.18,-1.088 0.4,-1.224 0.22,-0.136 0.4,-0.676 0.4,-1.2 0,-0.524 0.18,-1.064 0.4,-1.2 0.22,-0.136 0.4,-0.766 0.4,-1.4 0,-0.634 0.18,-1.264 0.4,-1.4 0.22,-0.136 0.4,-1.126 0.4,-2.2 0,-1.074 0.18,-2.064 0.4,-2.2 0.265,-0.164 0.4,-31.204 0.4,-91.824 0,-60.784 -0.134,-91.576 -0.4,-91.576 -0.225,0 -0.4,-1.125 -0.4,-2.576 0,-1.417 -0.18,-2.688 -0.4,-2.824 -0.22,-0.136 -0.4,-0.957 -0.4,-1.824 0,-0.867 -0.18,-1.576 -0.4,-1.576 -0.22,0 -0.4,-0.542 -0.4,-1.205 0,-0.663 -0.18,-1.563 -0.4,-2 -0.22,-0.437 -0.58,-1.153 -0.8,-1.59 -0.22,-0.437 -0.4,-1.157 -0.4,-1.6 0,-0.443 -0.18,-0.805 -0.4,-0.805 -0.22,0 -0.4,-0.36 -0.4,-0.8 0,-0.44 -0.18,-0.8 -0.4,-0.8 -0.22,0 -0.4,-0.234 -0.4,-0.52 0,-0.736 -0.941,-2.673 -1.3,-2.677 -0.165,-0.002 -0.3,-0.363 -0.3,-0.803 0,-0.44 -0.18,-0.8 -0.4,-0.8 -0.22,0 -0.4,-0.225 -0.401,-0.5 0,-0.275 -0.54,-1.13 -1.199,-1.9 -0.659,-0.77 -1.199,-1.532 -1.199,-1.693 -10e-4,-0.162 -0.618,-0.972 -1.372,-1.8 -0.754,-0.829 -2.127,-2.362 -3.051,-3.407 -0.924,-1.045 -1.836,-1.9 -2.027,-1.9 -0.191,0 -1.266,-0.9 -2.39,-2 -1.123,-1.1 -2.254,-2 -2.513,-2 -0.259,0 -0.731,-0.36 -1.048,-0.8 -0.317,-0.44 -0.814,-0.8 -1.105,-0.8 -0.291,0 -0.915,-0.36 -1.387,-0.8 -0.472,-0.44 -1.095,-0.8 -1.383,-0.8 -0.289,0 -0.525,-0.18 -0.525,-0.4 0,-0.22 -0.36,-0.4 -0.8,-0.4 -0.44,0 -0.8,-0.18 -0.8,-0.4 0,-0.22 -0.36,-0.4 -0.8,-0.4 -0.44,0 -0.8,-0.18 -0.8,-0.4 0,-0.22 -0.36,-0.4 -0.8,-0.4 -0.44,0 -0.8,-0.18 -0.8,-0.4 0,-0.22 -0.36,-0.4 -0.8,-0.4 -0.44,0 -0.8,-0.18 -0.8,-0.4 0,-0.22 -0.36,-0.4 -0.8,-0.4 -0.44,0 -0.8,-0.18 -0.8,-0.4 0,-0.22 -0.36,-0.4 -0.8,-0.4 -0.44,0 -0.8,-0.18 -0.8,-0.4 0,-0.22 -0.54,-0.4 -1.2,-0.4 -0.66,0 -1.2,-0.18 -1.2,-0.4 0,-0.22 -0.349,-0.4 -0.776,-0.4 -0.427,0 -0.888,-0.18 -1.024,-0.4 -0.136,-0.22 -0.676,-0.4 -1.2,-0.4 -0.524,0 -1.064,-0.18 -1.2,-0.4 -0.136,-0.22 -0.766,-0.4 -1.4,-0.4 -0.634,0 -1.264,-0.18 -1.4,-0.4 -0.136,-0.22 -0.777,-0.4 -1.424,-0.4 -0.647,0 -1.176,-0.18 -1.176,-0.4 0,-0.22 -0.529,-0.4 -1.176,-0.4 -0.647,0 -1.288,-0.18 -1.424,-0.4 -0.136,-0.22 -0.867,-0.4 -1.624,-0.4 -0.757,0 -1.376,-0.18 -1.376,-0.4 0,-0.22 -0.9,-0.4 -2,-0.4 -1.1,0 -2,-0.18 -2,-0.4 0,-0.22 -0.9,-0.4 -2,-0.4 -1.1,0 -2,-0.18 -2,-0.4 0,-0.22 -0.9,-0.4 -2,-0.4 -1.1,0 -2,-0.18 -2,-0.4 0,-0.225 -1.125,-0.4 -2.576,-0.4 -1.417,0 -2.688,-0.18 -2.824,-0.4 -0.136,-0.22 -1.486,-0.4 -3,-0.4 -1.514,0 -2.864,-0.18 -3,-0.4 -0.137,-0.221 -1.937,-0.4 -4.024,-0.4 -2.251,0 -3.776,-0.162 -3.776,-0.4 0,-0.245 -1.925,-0.4 -4.976,-0.4 -2.887,0 -5.081,-0.168 -5.224,-0.4 -0.153,-0.247 -3.663,-0.4 -9.2,-0.4 -5.537,0 -9.047,-0.153 -9.2,-0.4 -0.159,-0.258 -7.263,-0.4 -20,-0.4 -12.737,0 -19.841,0.142 -20,0.4 m 119.8,108.8 v 41.2 H 200 100.4 v -41.2 -41.2 h 99.6 99.6 v 41.2 m -171.8,92.8 c 0.136,0.22 1.047,0.4 2.024,0.4 0.977,0 1.776,0.18 1.776,0.4 0,0.22 0.54,0.4 1.2,0.4 0.66,0 1.2,0.18 1.2,0.4 0,0.22 0.36,0.4 0.8,0.4 0.44,0 0.8,0.18 0.8,0.4 0,0.22 0.36,0.4 0.8,0.4 0.44,0 0.8,0.15 0.8,0.332 0,0.183 0.492,0.588 1.093,0.9 1.413,0.734 5.741,5.062 6.475,6.475 0.312,0.601 0.717,1.093 0.9,1.093 0.182,0 0.332,0.36 0.332,0.8 0,0.44 0.18,0.8 0.4,0.8 0.22,0 0.4,0.36 0.4,0.8 0,0.44 0.18,0.8 0.4,0.8 0.22,0 0.4,0.439 0.4,0.976 0,0.537 0.18,1.088 0.4,1.224 0.22,0.136 0.4,0.856 0.4,1.6 0,0.744 0.18,1.464 0.4,1.6 0.22,0.136 0.4,1.857 0.4,3.824 0,2.117 -0.163,3.576 -0.4,3.576 -0.22,0 -0.4,0.72 -0.4,1.6 0,0.88 -0.18,1.6 -0.4,1.6 -0.22,0 -0.4,0.54 -0.4,1.2 0,0.66 -0.18,1.2 -0.4,1.2 -0.22,0 -0.4,0.36 -0.4,0.8 0,0.44 -0.18,0.8 -0.4,0.8 -0.22,0 -0.4,0.32 -0.4,0.712 0,0.391 -0.36,0.971 -0.8,1.288 -0.44,0.317 -0.8,0.797 -0.8,1.066 0,0.69 -5.122,5.734 -5.822,5.734 -0.318,0 -0.578,0.159 -0.578,0.353 0,0.195 -0.315,0.454 -0.7,0.576 -0.385,0.122 -1.24,0.53 -1.9,0.907 -1.989,1.136 -2.553,1.364 -3.371,1.364 -0.43,0 -0.893,0.18 -1.029,0.4 -0.136,0.22 -1.036,0.4 -2,0.4 -0.964,0 -1.864,0.18 -2,0.4 -0.136,0.22 -1.137,0.4 -2.224,0.4 -1.087,0 -1.976,-0.18 -1.976,-0.4 0,-0.22 -0.9,-0.4 -2,-0.4 -1.1,0 -2,-0.18 -2,-0.4 0,-0.22 -0.54,-0.4 -1.2,-0.4 -0.66,0 -1.2,-0.18 -1.2,-0.4 0,-0.22 -0.36,-0.4 -0.8,-0.4 -0.44,0 -0.8,-0.18 -0.8,-0.4 0,-0.22 -0.36,-0.4 -0.8,-0.4 -0.44,0 -0.8,-0.18 -0.8,-0.4 0,-0.22 -0.283,-0.4 -0.629,-0.4 -0.763,0 -6.962,-6.162 -7.746,-7.7 -0.308,-0.605 -0.71,-1.1 -0.893,-1.1 -0.182,0 -0.332,-0.36 -0.332,-0.8 0,-0.44 -0.18,-0.8 -0.4,-0.8 -0.22,0 -0.4,-0.349 -0.4,-0.776 0,-0.427 -0.18,-0.888 -0.4,-1.024 -0.22,-0.136 -0.4,-0.766 -0.4,-1.4 0,-0.634 -0.18,-1.264 -0.4,-1.4 -0.234,-0.145 -0.4,-2.463 -0.4,-5.6 0,-3.137 0.166,-5.455 0.4,-5.6 0.22,-0.136 0.4,-0.777 0.4,-1.424 0,-0.647 0.18,-1.176 0.4,-1.176 0.22,0 0.4,-0.36 0.4,-0.8 0,-0.44 0.18,-0.8 0.4,-0.8 0.22,0 0.4,-0.36 0.4,-0.8 0,-0.44 0.18,-0.8 0.4,-0.8 0.22,0 0.4,-0.272 0.4,-0.604 0,-0.332 0.54,-1.168 1.2,-1.859 0.66,-0.691 1.2,-1.415 1.2,-1.61 0,-0.554 2.713,-3.127 3.298,-3.127 0.289,0 0.785,-0.36 1.102,-0.8 0.317,-0.44 0.882,-0.8 1.255,-0.8 0.373,0 0.738,-0.135 0.812,-0.3 0.192,-0.432 3.505,-2.1 4.171,-2.1 0.309,0 0.562,-0.18 0.562,-0.4 0,-0.22 0.9,-0.4 2,-0.4 1.1,0 2,-0.18 2,-0.4 0,-0.228 1.192,-0.4 2.776,-0.4 1.527,0 2.888,0.18 3.024,0.4 m 150.2,0 c 0,0.22 0.9,0.4 2,0.4 1.1,0 2,0.18 2,0.4 0,0.22 0.253,0.4 0.562,0.4 0.666,0 3.979,1.668 4.171,2.1 0.074,0.165 0.439,0.3 0.812,0.3 0.373,0 0.938,0.36 1.255,0.8 0.317,0.44 0.772,0.8 1.01,0.8 0.558,0 3.39,2.586 3.39,3.095 0,0.212 0.54,0.951 1.2,1.642 0.66,0.691 1.2,1.527 1.2,1.859 0,0.332 0.18,0.604 0.4,0.604 0.22,0 0.4,0.36 0.4,0.8 0,0.44 0.18,0.8 0.4,0.8 0.22,0 0.4,0.36 0.4,0.8 0,0.44 0.18,0.8 0.4,0.8 0.22,0 0.4,0.529 0.4,1.176 0,0.647 0.18,1.288 0.4,1.424 0.234,0.145 0.4,2.463 0.4,5.6 0,3.137 -0.166,5.455 -0.4,5.6 -0.22,0.136 -0.4,0.766 -0.4,1.4 0,0.634 -0.18,1.264 -0.4,1.4 -0.22,0.136 -0.4,0.597 -0.4,1.024 0,0.427 -0.18,0.776 -0.4,0.776 -0.22,0 -0.4,0.36 -0.4,0.8 0,0.44 -0.15,0.8 -0.332,0.8 -0.183,0 -0.585,0.495 -0.893,1.1 -0.784,1.538 -6.983,7.7 -7.746,7.7 -0.346,0 -0.629,0.18 -0.629,0.4 0,0.22 -0.36,0.4 -0.8,0.4 -0.44,0 -0.8,0.18 -0.8,0.4 0,0.22 -0.36,0.4 -0.8,0.4 -0.44,0 -0.8,0.18 -0.8,0.4 0,0.22 -0.54,0.4 -1.2,0.4 -0.66,0 -1.2,0.18 -1.2,0.4 0,0.22 -0.9,0.4 -2,0.4 -1.1,0 -2,0.18 -2,0.4 0,0.22 -0.889,0.4 -1.976,0.4 -1.087,0 -2.088,-0.18 -2.224,-0.4 -0.136,-0.22 -1.036,-0.4 -2,-0.4 -0.964,0 -1.864,-0.18 -2,-0.4 -0.136,-0.22 -0.599,-0.4 -1.029,-0.4 -0.818,0 -1.382,-0.228 -3.371,-1.364 -0.66,-0.377 -1.515,-0.785 -1.9,-0.907 -0.385,-0.122 -0.7,-0.381 -0.7,-0.576 0,-0.194 -0.249,-0.353 -0.554,-0.353 -0.724,0 -5.846,-4.978 -5.846,-5.681 0,-0.298 -0.36,-0.802 -0.8,-1.119 -0.44,-0.317 -0.8,-0.897 -0.8,-1.288 0,-0.392 -0.18,-0.712 -0.4,-0.712 -0.22,0 -0.4,-0.36 -0.4,-0.8 0,-0.44 -0.18,-0.8 -0.4,-0.8 -0.22,0 -0.4,-0.54 -0.4,-1.2 0,-0.66 -0.18,-1.2 -0.4,-1.2 -0.22,0 -0.4,-0.619 -0.4,-1.376 0,-0.757 -0.18,-1.488 -0.4,-1.624 -0.22,-0.136 -0.4,-1.846 -0.4,-3.8 0,-1.954 0.18,-3.664 0.4,-3.8 0.22,-0.136 0.4,-0.856 0.4,-1.6 0,-0.744 0.18,-1.464 0.4,-1.6 0.22,-0.136 0.4,-0.687 0.4,-1.224 0,-0.537 0.18,-0.976 0.4,-0.976 0.22,0 0.4,-0.36 0.4,-0.8 0,-0.44 0.18,-0.8 0.4,-0.8 0.22,0 0.4,-0.36 0.4,-0.8 0,-0.44 0.15,-0.8 0.332,-0.8 0.183,0 0.588,-0.495 0.9,-1.1 0.744,-1.441 6.289,-6.9 7.009,-6.9 0.307,0 0.559,-0.18 0.559,-0.4 0,-0.22 0.36,-0.4 0.8,-0.4 0.44,0 0.8,-0.18 0.8,-0.4 0,-0.22 0.36,-0.4 0.8,-0.4 0.44,0 0.8,-0.18 0.8,-0.4 0,-0.22 0.54,-0.4 1.2,-0.4 0.66,0 1.2,-0.18 1.2,-0.4 0,-0.22 0.799,-0.4 1.776,-0.4 0.977,0 1.888,-0.18 2.024,-0.4 0.136,-0.22 1.497,-0.4 3.024,-0.4 1.584,0 2.776,0.172 2.776,0.4"
       inkscape:connector-curvature="0"
       style="fill:#000000;fill-rule:evenodd;stroke:none" />
    <path
       id="path2"
       d="m 179.8,32.8 c -0.153,0.247 -3.596,0.4 -9,0.4 -5.404,0 -8.847,0.153 -9,0.4 -0.143,0.232 -2.337,0.4 -5.224,0.4 -3.051,0 -4.976,0.155 -4.976,0.4 0,0.238 -1.525,0.4 -3.776,0.4 -2.087,0 -3.887,0.179 -4.024,0.4 -0.136,0.22 -1.486,0.4 -3,0.4 -1.514,0 -2.864,0.18 -3,0.4 -0.136,0.22 -1.407,0.4 -2.824,0.4 -1.451,0 -2.576,0.175 -2.576,0.4 0,0.22 -0.9,0.4 -2,0.4 -1.1,0 -2,0.18 -2,0.4 0,0.22 -0.9,0.4 -2,0.4 -1.1,0 -2,0.18 -2,0.4 0,0.22 -0.9,0.4 -2,0.4 -1.1,0 -2,0.18 -2,0.4 0,0.22 -0.619,0.4 -1.376,0.4 -0.757,0 -1.488,0.18 -1.624,0.4 -0.136,0.22 -0.777,0.4 -1.424,0.4 -0.647,0 -1.176,0.18 -1.176,0.4 0,0.22 -0.529,0.4 -1.176,0.4 -0.647,0 -1.288,0.18 -1.424,0.4 -0.136,0.22 -0.766,0.4 -1.4,0.4 -0.634,0 -1.264,0.18 -1.4,0.4 -0.136,0.22 -0.676,0.4 -1.2,0.4 -0.524,0 -1.064,0.18 -1.2,0.4 -0.136,0.22 -0.597,0.4 -1.024,0.4 -0.427,0 -0.776,0.18 -0.776,0.4 0,0.22 -0.54,0.4 -1.2,0.4 -0.66,0 -1.2,0.18 -1.2,0.4 0,0.22 -0.36,0.4 -0.8,0.4 -0.44,0 -0.8,0.18 -0.8,0.4 0,0.22 -0.36,0.4 -0.8,0.4 -0.44,0 -0.8,0.18 -0.8,0.4 0,0.22 -0.36,0.4 -0.8,0.4 -0.44,0 -0.8,0.18 -0.8,0.4 0,0.22 -0.36,0.4 -0.8,0.4 -0.44,0 -0.8,0.18 -0.8,0.4 0,0.22 -0.36,0.4 -0.8,0.4 -0.44,0 -0.8,0.18 -0.8,0.4 0,0.22 -0.36,0.4 -0.8,0.4 -0.44,0 -0.8,0.18 -0.8,0.4 0,0.22 -0.236,0.4 -0.525,0.4 -0.288,0 -0.911,0.36 -1.383,0.8 -0.472,0.44 -1.096,0.8 -1.387,0.8 -0.291,0 -0.788,0.36 -1.105,0.8 -0.317,0.44 -0.789,0.8 -1.048,0.8 -0.259,0 -1.39,0.9 -2.513,2 -1.124,1.1 -2.199,2 -2.39,2 -0.191,0 -1.103,0.855 -2.027,1.9 -0.924,1.045 -2.297,2.578 -3.051,3.407 -0.754,0.828 -1.371,1.638 -1.372,1.8 0,0.161 -0.54,0.923 -1.199,1.693 -0.659,0.77 -1.199,1.625 -1.199,1.9 -0.001,0.275 -0.181,0.5 -0.401,0.5 -0.22,0 -0.4,0.36 -0.4,0.8 0,0.44 -0.135,0.801 -0.3,0.803 -0.359,0.004 -1.3,1.941 -1.3,2.677 0,0.286 -0.18,0.52 -0.4,0.52 -0.22,0 -0.4,0.36 -0.4,0.8 0,0.44 -0.18,0.8 -0.4,0.8 -0.22,0 -0.4,0.349 -0.4,0.776 0,0.427 -0.18,0.888 -0.4,1.024 -0.22,0.136 -0.4,0.676 -0.4,1.2 0,0.524 -0.18,1.064 -0.4,1.2 -0.22,0.136 -0.4,0.867 -0.4,1.624 0,0.757 -0.18,1.376 -0.4,1.376 -0.22,0 -0.4,0.709 -0.4,1.576 0,0.867 -0.18,1.688 -0.4,1.824 -0.22,0.136 -0.4,1.407 -0.4,2.824 0,1.451 -0.175,2.576 -0.4,2.576 -0.554,0 -0.554,183.057 0,183.4 0.22,0.136 0.4,1.227 0.4,2.424 0,1.197 0.18,2.176 0.4,2.176 0.22,0 0.4,0.529 0.4,1.176 0,0.647 0.18,1.288 0.4,1.424 0.22,0.136 0.4,0.676 0.4,1.2 0,0.524 0.18,1.064 0.4,1.2 0.22,0.136 0.4,0.687 0.4,1.224 0,0.537 0.18,0.976 0.4,0.976 0.22,0 0.4,0.253 0.4,0.562 0,0.666 1.668,3.979 2.1,4.171 0.165,0.074 0.3,0.479 0.3,0.9 0,0.422 0.18,0.767 0.4,0.767 0.22,0 0.4,0.32 0.4,0.712 0,0.391 0.36,0.971 0.8,1.288 0.44,0.317 0.8,0.769 0.8,1.004 0,0.236 0.72,1.224 1.6,2.196 0.88,0.972 1.6,1.92 1.6,2.106 0,0.186 1.08,1.398 2.4,2.694 l 2.4,2.356 v 16.627 c 0,9.546 0.159,16.924 0.374,17.322 0.205,0.382 0.609,1.28 0.897,1.995 0.289,0.715 0.66,1.3 0.827,1.3 0.166,0 0.302,0.273 0.302,0.607 0,0.792 5.001,5.793 5.793,5.793 0.334,0 0.607,0.18 0.607,0.4 0,0.22 0.36,0.4 0.8,0.4 0.44,0 0.8,0.18 0.8,0.4 0,0.22 0.54,0.4 1.2,0.4 0.66,0 1.2,0.18 1.2,0.4 0,0.548 25.061,0.548 25.4,0 0.136,-0.22 0.777,-0.4 1.424,-0.4 0.647,0 1.176,-0.18 1.176,-0.4 0,-0.22 0.36,-0.4 0.8,-0.4 0.44,0 0.8,-0.18 0.8,-0.4 0,-0.22 0.273,-0.4 0.607,-0.4 0.792,0 5.793,-5.001 5.793,-5.793 0,-0.334 0.18,-0.607 0.4,-0.607 0.22,0 0.4,-0.36 0.4,-0.8 0,-0.44 0.18,-0.8 0.4,-0.8 0.22,0 0.4,-0.54 0.4,-1.2 0,-0.66 0.18,-1.2 0.4,-1.2 0.256,0 0.4,-3.733 0.4,-10.4 v -10.4 h 66 66 v 10.4 c 0,6.667 0.144,10.4 0.4,10.4 0.22,0 0.4,0.54 0.4,1.2 0,0.66 0.18,1.2 0.4,1.2 0.22,0 0.4,0.36 0.4,0.8 0,0.44 0.18,0.8 0.4,0.8 0.22,0 0.4,0.273 0.4,0.607 0,0.792 5.001,5.793 5.793,5.793 0.334,0 0.607,0.18 0.607,0.4 0,0.22 0.36,0.4 0.8,0.4 0.44,0 0.8,0.18 0.8,0.4 0,0.22 0.529,0.4 1.176,0.4 0.647,0 1.288,0.18 1.424,0.4 0.339,0.548 25.4,0.548 25.4,0 0,-0.22 0.54,-0.4 1.2,-0.4 0.66,0 1.2,-0.18 1.2,-0.4 0,-0.22 0.36,-0.4 0.8,-0.4 0.44,0 0.8,-0.18 0.8,-0.4 0,-0.22 0.273,-0.4 0.607,-0.4 0.792,0 5.793,-5.001 5.793,-5.793 0,-0.334 0.18,-0.607 0.4,-0.607 0.22,0 0.4,-0.36 0.4,-0.8 0,-0.44 0.18,-0.8 0.4,-0.8 0.22,0 0.4,-0.349 0.4,-0.776 0,-0.427 0.18,-0.888 0.4,-1.024 0.256,-0.158 0.4,-6.279 0.4,-17.05 v -16.802 l 1.911,-1.874 c 1.051,-1.031 2.354,-2.504 2.896,-3.274 0.541,-0.77 1.481,-1.922 2.089,-2.559 0.607,-0.638 1.104,-1.32 1.104,-1.517 0,-0.197 0.36,-0.744 0.8,-1.216 0.44,-0.472 0.8,-1.095 0.8,-1.383 0,-0.289 0.18,-0.525 0.4,-0.525 0.22,0 0.4,-0.345 0.4,-0.767 0,-0.421 0.135,-0.826 0.3,-0.9 0.432,-0.192 2.1,-3.505 2.1,-4.171 0,-0.309 0.18,-0.562 0.4,-0.562 0.22,0 0.4,-0.439 0.4,-0.976 0,-0.537 0.18,-1.088 0.4,-1.224 0.22,-0.136 0.4,-0.676 0.4,-1.2 0,-0.524 0.18,-1.064 0.4,-1.2 0.22,-0.136 0.4,-0.766 0.4,-1.4 0,-0.634 0.18,-1.264 0.4,-1.4 0.22,-0.136 0.4,-1.126 0.4,-2.2 0,-1.074 0.18,-2.064 0.4,-2.2 0.265,-0.164 0.4,-31.204 0.4,-91.824 0,-60.784 -0.134,-91.576 -0.4,-91.576 -0.225,0 -0.4,-1.125 -0.4,-2.576 0,-1.417 -0.18,-2.688 -0.4,-2.824 -0.22,-0.136 -0.4,-0.957 -0.4,-1.824 0,-0.867 -0.18,-1.576 -0.4,-1.576 -0.22,0 -0.4,-0.542 -0.4,-1.205 0,-0.663 -0.18,-1.563 -0.4,-2 -0.22,-0.437 -0.58,-1.153 -0.8,-1.59 -0.22,-0.437 -0.4,-1.157 -0.4,-1.6 0,-0.443 -0.18,-0.805 -0.4,-0.805 -0.22,0 -0.4,-0.36 -0.4,-0.8 0,-0.44 -0.18,-0.8 -0.4,-0.8 -0.22,0 -0.4,-0.234 -0.4,-0.52 0,-0.736 -0.941,-2.673 -1.3,-2.677 -0.165,-0.002 -0.3,-0.363 -0.3,-0.803 0,-0.44 -0.18,-0.8 -0.4,-0.8 -0.22,0 -0.4,-0.225 -0.401,-0.5 0,-0.275 -0.54,-1.13 -1.199,-1.9 -0.659,-0.77 -1.199,-1.532 -1.199,-1.693 -10e-4,-0.162 -0.618,-0.972 -1.372,-1.8 -0.754,-0.829 -2.127,-2.362 -3.051,-3.407 -0.924,-1.045 -1.836,-1.9 -2.027,-1.9 -0.191,0 -1.266,-0.9 -2.39,-2 -1.123,-1.1 -2.254,-2 -2.513,-2 -0.259,0 -0.731,-0.36 -1.048,-0.8 -0.317,-0.44 -0.814,-0.8 -1.105,-0.8 -0.291,0 -0.915,-0.36 -1.387,-0.8 -0.472,-0.44 -1.095,-0.8 -1.383,-0.8 -0.289,0 -0.525,-0.18 -0.525,-0.4 0,-0.22 -0.36,-0.4 -0.8,-0.4 -0.44,0 -0.8,-0.18 -0.8,-0.4 0,-0.22 -0.36,-0.4 -0.8,-0.4 -0.44,0 -0.8,-0.18 -0.8,-0.4 0,-0.22 -0.36,-0.4 -0.8,-0.4 -0.44,0 -0.8,-0.18 -0.8,-0.4 0,-0.22 -0.36,-0.4 -0.8,-0.4 -0.44,0 -0.8,-0.18 -0.8,-0.4 0,-0.22 -0.36,-0.4 -0.8,-0.4 -0.44,0 -0.8,-0.18 -0.8,-0.4 0,-0.22 -0.36,-0.4 -0.8,-0.4 -0.44,0 -0.8,-0.18 -0.8,-0.4 0,-0.22 -0.54,-0.4 -1.2,-0.4 -0.66,0 -1.2,-0.18 -1.2,-0.4 0,-0.22 -0.349,-0.4 -0.776,-0.4 -0.427,0 -0.888,-0.18 -1.024,-0.4 -0.136,-0.22 -0.676,-0.4 -1.2,-0.4 -0.524,0 -1.064,-0.18 -1.2,-0.4 -0.136,-0.22 -0.766,-0.4 -1.4,-0.4 -0.634,0 -1.264,-0.18 -1.4,-0.4 -0.136,-0.22 -0.777,-0.4 -1.424,-0.4 -0.647,0 -1.176,-0.18 -1.176,-0.4 0,-0.22 -0.529,-0.4 -1.176,-0.4 -0.647,0 -1.288,-0.18 -1.424,-0.4 -0.136,-0.22 -0.867,-0.4 -1.624,-0.4 -0.757,0 -1.376,-0.18 -1.376,-0.4 0,-0.22 -0.9,-0.4 -2,-0.4 -1.1,0 -2,-0.18 -2,-0.4 0,-0.22 -0.9,-0.4 -2,-0.4 -1.1,0 -2,-0.18 -2,-0.4 0,-0.22 -0.9,-0.4 -2,-0.4 -1.1,0 -2,-0.18 -2,-0.4 0,-0.225 -1.125,-0.4 -2.576,-0.4 -1.417,0 -2.688,-0.18 -2.824,-0.4 -0.136,-0.22 -1.486,-0.4 -3,-0.4 -1.514,0 -2.864,-0.18 -3,-0.4 -0.137,-0.221 -1.937,-0.4 -4.024,-0.4 -2.251,0 -3.776,-0.162 -3.776,-0.4 0,-0.245 -1.925,-0.4 -4.976,-0.4 -2.887,0 -5.081,-0.168 -5.224,-0.4 -0.153,-0.247 -3.663,-0.4 -9.2,-0.4 -5.537,0 -9.047,-0.153 -9.2,-0.4 -0.159,-0.258 -7.263,-0.4 -20,-0.4 -12.737,0 -19.841,0.142 -20,0.4 m 119.8,108.8 v 41.2 H 200 100.4 v -41.2 -41.2 h 99.6 99.6 v 41.2 m -171.8,92.8 c 0.136,0.22 1.047,0.4 2.024,0.4 0.977,0 1.776,0.18 1.776,0.4 0,0.22 0.54,0.4 1.2,0.4 0.66,0 1.2,0.18 1.2,0.4 0,0.22 0.36,0.4 0.8,0.4 0.44,0 0.8,0.18 0.8,0.4 0,0.22 0.36,0.4 0.8,0.4 0.44,0 0.8,0.15 0.8,0.332 0,0.183 0.492,0.588 1.093,0.9 1.413,0.734 5.741,5.062 6.475,6.475 0.312,0.601 0.717,1.093 0.9,1.093 0.182,0 0.332,0.36 0.332,0.8 0,0.44 0.18,0.8 0.4,0.8 0.22,0 0.4,0.36 0.4,0.8 0,0.44 0.18,0.8 0.4,0.8 0.22,0 0.4,0.439 0.4,0.976 0,0.537 0.18,1.088 0.4,1.224 0.22,0.136 0.4,0.856 0.4,1.6 0,0.744 0.18,1.464 0.4,1.6 0.22,0.136 0.4,1.857 0.4,3.824 0,2.117 -0.163,3.576 -0.4,3.576 -0.22,0 -0.4,0.72 -0.4,1.6 0,0.88 -0.18,1.6 -0.4,1.6 -0.22,0 -0.4,0.54 -0.4,1.2 0,0.66 -0.18,1.2 -0.4,1.2 -0.22,0 -0.4,0.36 -0.4,0.8 0,0.44 -0.18,0.8 -0.4,0.8 -0.22,0 -0.4,0.32 -0.4,0.712 0,0.391 -0.36,0.971 -0.8,1.288 -0.44,0.317 -0.8,0.797 -0.8,1.066 0,0.69 -5.122,5.734 -5.822,5.734 -0.318,0 -0.578,0.159 -0.578,0.353 0,0.195 -0.315,0.454 -0.7,0.576 -0.385,0.122 -1.24,0.53 -1.9,0.907 -1.989,1.136 -2.553,1.364 -3.371,1.364 -0.43,0 -0.893,0.18 -1.029,0.4 -0.136,0.22 -1.036,0.4 -2,0.4 -0.964,0 -1.864,0.18 -2,0.4 -0.136,0.22 -1.137,0.4 -2.224,0.4 -1.087,0 -1.976,-0.18 -1.976,-0.4 0,-0.22 -0.9,-0.4 -2,-0.4 -1.1,0 -2,-0.18 -2,-0.4 0,-0.22 -0.54,-0.4 -1.2,-0.4 -0.66,0 -1.2,-0.18 -1.2,-0.4 0,-0.22 -0.36,-0.4 -0.8,-0.4 -0.44,0 -0.8,-0.18 -0.8,-0.4 0,-0.22 -0.36,-0.4 -0.8,-0.4 -0.44,0 -0.8,-0.18 -0.8,-0.4 0,-0.22 -0.283,-0.4 -0.629,-0.4 -0.763,0 -6.962,-6.162 -7.746,-7.7 -0.308,-0.605 -0.71,-1.1 -0.893,-1.1 -0.182,0 -0.332,-0.36 -0.332,-0.8 0,-0.44 -0.18,-0.8 -0.4,-0.8 -0.22,0 -0.4,-0.349 -0.4,-0.776 0,-0.427 -0.18,-0.888 -0.4,-1.024 -0.22,-0.136 -0.4,-0.766 -0.4,-1.4 0,-0.634 -0.18,-1.264 -0.4,-1.4 -0.234,-0.145 -0.4,-2.463 -0.4,-5.6 0,-3.137 0.166,-5.455 0.4,-5.6 0.22,-0.136 0.4,-0.777 0.4,-1.424 0,-0.647 0.18,-1.176 0.4,-1.176 0.22,0 0.4,-0.36 0.4,-0.8 0,-0.44 0.18,-0.8 0.4,-0.8 0.22,0 0.4,-0.36 0.4,-0.8 0,-0.44 0.18,-0.8 0.4,-0.8 0.22,0 0.4,-0.272 0.4,-0.604 0,-0.332 0.54,-1.168 1.2,-1.859 0.66,-0.691 1.2,-1.415 1.2,-1.61 0,-0.554 2.713,-3.127 3.298,-3.127 0.289,0 0.785,-0.36 1.102,-0.8 0.317,-0.44 0.882,-0.8 1.255,-0.8 0.373,0 0.738,-0.135 0.812,-0.3 0.192,-0.432 3.505,-2.1 4.171,-2.1 0.309,0 0.562,-0.18 0.562,-0.4 0,-0.22 0.9,-0.4 2,-0.4 1.1,0 2,-0.18 2,-0.4 0,-0.228 1.192,-0.4 2.776,-0.4 1.527,0 2.888,0.18 3.024,0.4 m 150.2,0 c 0,0.22 0.9,0.4 2,0.4 1.1,0 2,0.18 2,0.4 0,0.22 0.253,0.4 0.562,0.4 0.666,0 3.979,1.668 4.171,2.1 0.074,0.165 0.439,0.3 0.812,0.3 0.373,0 0.938,0.36 1.255,0.8 0.317,0.44 0.772,0.8 1.01,0.8 0.558,0 3.39,2.586 3.39,3.095 0,0.212 0.54,0.951 1.2,1.642 0.66,0.691 1.2,1.527 1.2,1.859 0,0.332 0.18,0.604 0.4,0.604 0.22,0 0.4,0.36 0.4,0.8 0,0.44 0.18,0.8 0.4,0.8 0.22,0 0.4,0.36 0.4,0.8 0,0.44 0.18,0.8 0.4,0.8 0.22,0 0.4,0.529 0.4,1.176 0,0.647 0.18,1.288 0.4,1.424 0.234,0.145 0.4,2.463 0.4,5.6 0,3.137 -0.166,5.455 -0.4,5.6 -0.22,0.136 -0.4,0.766 -0.4,1.4 0,0.634 -0.18,1.264 -0.4,1.4 -0.22,0.136 -0.4,0.597 -0.4,1.024 0,0.427 -0.18,0.776 -0.4,0.776 -0.22,0 -0.4,0.36 -0.4,0.8 0,0.44 -0.15,0.8 -0.332,0.8 -0.183,0 -0.585,0.495 -0.893,1.1 -0.784,1.538 -6.983,7.7 -7.746,7.7 -0.346,0 -0.629,0.18 -0.629,0.4 0,0.22 -0.36,0.4 -0.8,0.4 -0.44,0 -0.8,0.18 -0.8,0.4 0,0.22 -0.36,0.4 -0.8,0.4 -0.44,0 -0.8,0.18 -0.8,0.4 0,0.22 -0.54,0.4 -1.2,0.4 -0.66,0 -1.2,0.18 -1.2,0.4 0,0.22 -0.9,0.4 -2,0.4 -1.1,0 -2,0.18 -2,0.4 0,0.22 -0.889,0.4 -1.976,0.4 -1.087,0 -2.088,-0.18 -2.224,-0.4 -0.136,-0.22 -1.036,-0.4 -2,-0.4 -0.964,0 -1.864,-0.18 -2,-0.4 -0.136,-0.22 -0.599,-0.4 -1.029,-0.4 -0.818,0 -1.382,-0.228 -3.371,-1.364 -0.66,-0.377 -1.515,-0.785 -1.9,-0.907 -0.385,-0.122 -0.7,-0.381 -0.7,-0.576 0,-0.194 -0.249,-0.353 -0.554,-0.353 -0.724,0 -5.846,-4.978 -5.846,-5.681 0,-0.298 -0.36,-0.802 -0.8,-1.119 -0.44,-0.317 -0.8,-0.897 -0.8,-1.288 0,-0.392 -0.18,-0.712 -0.4,-0.712 -0.22,0 -0.4,-0.36 -0.4,-0.8 0,-0.44 -0.18,-0.8 -0.4,-0.8 -0.22,0 -0.4,-0.54 -0.4,-1.2 0,-0.66 -0.18,-1.2 -0.4,-1.2 -0.22,0 -0.4,-0.619 -0.4,-1.376 0,-0.757 -0.18,-1.488 -0.4,-1.624 -0.22,-0.136 -0.4,-1.846 -0.4,-3.8 0,-1.954 0.18,-3.664 0.4,-3.8 0.22,-0.136 0.4,-0.856 0.4,-1.6 0,-0.744 0.18,-1.464 0.4,-1.6 0.22,-0.136 0.4,-0.687 0.4,-1.224 0,-0.537 0.18,-0.976 0.4,-0.976 0.22,0 0.4,-0.36 0.4,-0.8 0,-0.44 0.18,-0.8 0.4,-0.8 0.22,0 0.4,-0.36 0.4,-0.8 0,-0.44 0.15,-0.8 0.332,-0.8 0.183,0 0.588,-0.495 0.9,-1.1 0.744,-1.441 6.289,-6.9 7.009,-6.9 0.307,0 0.559,-0.18 0.559,-0.4 0,-0.22 0.36,-0.4 0.8,-0.4 0.44,0 0.8,-0.18 0.8,-0.4 0,-0.22 0.36,-0.4 0.8,-0.4 0.44,0 0.8,-0.18 0.8,-0.4 0,-0.22 0.54,-0.4 1.2,-0.4 0.66,0 1.2,-0.18 1.2,-0.4 0,-0.22 0.799,-0.4 1.776,-0.4 0.977,0 1.888,-0.18 2.024,-0.4 0.136,-0.22 1.497,-0.4 3.024,-0.4 1.584,0 2.776,0.172 2.776,0.4"
       inkscape:connector-curvature="0"
       style="fill:#000000;fill-rule:evenodd;stroke:none" />
    <path
       id="path3"
       d="m 179.8,32.8 c -0.153,0.247 -3.596,0.4 -9,0.4 -5.404,0 -8.847,0.153 -9,0.4 -0.143,0.232 -2.337,0.4 -5.224,0.4 -3.051,0 -4.976,0.155 -4.976,0.4 0,0.238 -1.525,0.4 -3.776,0.4 -2.087,0 -3.887,0.179 -4.024,0.4 -0.136,0.22 -1.486,0.4 -3,0.4 -1.514,0 -2.864,0.18 -3,0.4 -0.136,0.22 -1.407,0.4 -2.824,0.4 -1.451,0 -2.576,0.175 -2.576,0.4 0,0.22 -0.9,0.4 -2,0.4 -1.1,0 -2,0.18 -2,0.4 0,0.22 -0.9,0.4 -2,0.4 -1.1,0 -2,0.18 -2,0.4 0,0.22 -0.9,0.4 -2,0.4 -1.1,0 -2,0.18 -2,0.4 0,0.22 -0.619,0.4 -1.376,0.4 -0.757,0 -1.488,0.18 -1.624,0.4 -0.136,0.22 -0.777,0.4 -1.424,0.4 -0.647,0 -1.176,0.18 -1.176,0.4 0,0.22 -0.529,0.4 -1.176,0.4 -0.647,0 -1.288,0.18 -1.424,0.4 -0.136,0.22 -0.766,0.4 -1.4,0.4 -0.634,0 -1.264,0.18 -1.4,0.4 -0.136,0.22 -0.676,0.4 -1.2,0.4 -0.524,0 -1.064,0.18 -1.2,0.4 -0.136,0.22 -0.597,0.4 -1.024,0.4 -0.427,0 -0.776,0.18 -0.776,0.4 0,0.22 -0.54,0.4 -1.2,0.4 -0.66,0 -1.2,0.18 -1.2,0.4 0,0.22 -0.36,0.4 -0.8,0.4 -0.44,0 -0.8,0.18 -0.8,0.4 0,0.22 -0.36,0.4 -0.8,0.4 -0.44,0 -0.8,0.18 -0.8,0.4 0,0.22 -0.36,0.4 -0.8,0.4 -0.44,0 -0.8,0.18 -0.8,0.4 0,0.22 -0.36,0.4 -0.8,0.4 -0.44,0 -0.8,0.18 -0.8,0.4 0,0.22 -0.36,0.4 -0.8,0.4 -0.44,0 -0.8,0.18 -0.8,0.4 0,0.22 -0.36,0.4 -0.8,0.4 -0.44,0 -0.8,0.18 -0.8,0.4 0,0.22 -0.236,0.4 -0.525,0.4 -0.288,0 -0.911,0.36 -1.383,0.8 -0.472,0.44 -1.096,0.8 -1.387,0.8 -0.291,0 -0.788,0.36 -1.105,0.8 -0.317,0.44 -0.789,0.8 -1.048,0.8 -0.259,0 -1.39,0.9 -2.513,2 -1.124,1.1 -2.199,2 -2.39,2 -0.191,0 -1.103,0.855 -2.027,1.9 -0.924,1.045 -2.297,2.578 -3.051,3.407 -0.754,0.828 -1.371,1.638 -1.372,1.8 0,0.161 -0.54,0.923 -1.199,1.693 -0.659,0.77 -1.199,1.625 -1.199,1.9 -0.001,0.275 -0.181,0.5 -0.401,0.5 -0.22,0 -0.4,0.36 -0.4,0.8 0,0.44 -0.135,0.801 -0.3,0.803 -0.359,0.004 -1.3,1.941 -1.3,2.677 0,0.286 -0.18,0.52 -0.4,0.52 -0.22,0 -0.4,0.36 -0.4,0.8 0,0.44 -0.18,0.8 -0.4,0.8 -0.22,0 -0.4,0.349 -0.4,0.776 0,0.427 -0.18,0.888 -0.4,1.024 -0.22,0.136 -0.4,0.676 -0.4,1.2 0,0.524 -0.18,1.064 -0.4,1.2 -0.22,0.136 -0.4,0.867 -0.4,1.624 0,0.757 -0.18,1.376 -0.4,1.376 -0.22,0 -0.4,0.709 -0.4,1.576 0,0.867 -0.18,1.688 -0.4,1.824 -0.22,0.136 -0.4,1.407 -0.4,2.824 0,1.451 -0.175,2.576 -0.4,2.576 -0.554,0 -0.554,183.057 0,183.4 0.22,0.136 0.4,1.227 0.4,2.424 0,1.197 0.18,2.176 0.4,2.176 0.22,0 0.4,0.529 0.4,1.176 0,0.647 0.18,1.288 0.4,1.424 0.22,0.136 0.4,0.676 0.4,1.2 0,0.524 0.18,1.064 0.4,1.2 0.22,0.136 0.4,0.687 0.4,1.224 0,0.537 0.18,0.976 0.4,0.976 0.22,0 0.4,0.253 0.4,0.562 0,0.666 1.668,3.979 2.1,4.171 0.165,0.074 0.3,0.479 0.3,0.9 0,0.422 0.18,0.767 0.4,0.767 0.22,0 0.4,0.32 0.4,0.712 0,0.391 0.36,0.971 0.8,1.288 0.44,0.317 0.8,0.769 0.8,1.004 0,0.236 0.72,1.224 1.6,2.196 0.88,0.972 1.6,1.92 1.6,2.106 0,0.186 1.08,1.398 2.4,2.694 l 2.4,2.356 v 16.627 c 0,9.546 0.159,16.924 0.374,17.322 0.205,0.382 0.609,1.28 0.897,1.995 0.289,0.715 0.66,1.3 0.827,1.3 0.166,0 0.302,0.273 0.302,0.607 0,0.792 5.001,5.793 5.793,5.793 0.334,0 0.607,0.18 0.607,0.4 0,0.22 0.36,0.4 0.8,0.4 0.44,0 0.8,0.18 0.8,0.4 0,0.22 0.54,0.4 1.2,0.4 0.66,0 1.2,0.18 1.2,0.4 0,0.548 25.061,0.548 25.4,0 0.136,-0.22 0.777,-0.4 1.424,-0.4 0.647,0 1.176,-0.18 1.176,-0.4 0,-0.22 0.36,-0.4 0.8,-0.4 0.44,0 0.8,-0.18 0.8,-0.4 0,-0.22 0.273,-0.4 0.607,-0.4 0.792,0 5.793,-5.001 5.793,-5.793 0,-0.334 0.18,-0.607 0.4,-0.607 0.22,0 0.4,-0.36 0.4,-0.8 0,-0.44 0.18,-0.8 0.4,-0.8 0.22,0 0.4,-0.54 0.4,-1.2 0,-0.66 0.18,-1.2 0.4,-1.2 0.256,0 0.4,-3.733 0.4,-10.4 v -10.4 h 66 66 v 10.4 c 0,6.667 0.144,10.4 0.4,10.4 0.22,0 0.4,0.54 0.4,1.2 0,0.66 0.18,1.2 0.4,1.2 0.22,0 0.4,0.36 0.4,0.8 0,0.44 0.18,0.8 0.4,0.8 0.22,0 0.4,0.273 0.4,0.607 0,0.792 5.001,5.793 5.793,5.793 0.334,0 0.607,0.18 0.607,0.4 0,0.22 0.36,0.4 0.8,0.4 0.44,0 0.8,0.18 0.8,0.4 0,0.22 0.529,0.4 1.176,0.4 0.647,0 1.288,0.18 1.424,0.4 0.339,0.548 25.4,0.548 25.4,0 0,-0.22 0.54,-0.4 1.2,-0.4 0.66,0 1.2,-0.18 1.2,-0.4 0,-0.22 0.36,-0.4 0.8,-0.4 0.44,0 0.8,-0.18 0.8,-0.4 0,-0.22 0.273,-0.4 0.607,-0.4 0.792,0 5.793,-5.001 5.793,-5.793 0,-0.334 0.18,-0.607 0.4,-0.607 0.22,0 0.4,-0.36 0.4,-0.8 0,-0.44 0.18,-0.8 0.4,-0.8 0.22,0 0.4,-0.349 0.4,-0.776 0,-0.427 0.18,-0.888 0.4,-1.024 0.256,-0.158 0.4,-6.279 0.4,-17.05 v -16.802 l 1.911,-1.874 c 1.051,-1.031 2.354,-2.504 2.896,-3.274 0.541,-0.77 1.481,-1.922 2.089,-2.559 0.607,-0.638 1.104,-1.32 1.104,-1.517 0,-0.197 0.36,-0.744 0.8,-1.216 0.44,-0.472 0.8,-1.095 0.8,-1.383 0,-0.289 0.18,-0.525 0.4,-0.525 0.22,0 0.4,-0.345 0.4,-0.767 0,-0.421 0.135,-0.826 0.3,-0.9 0.432,-0.192 2.1,-3.505 2.1,-4.171 0,-0.309 0.18,-0.562 0.4,-0.562 0.22,0 0.4,-0.439 0.4,-0.976 0,-0.537 0.18,-1.088 0.4,-1.224 0.22,-0.136 0.4,-0.676 0.4,-1.2 0,-0.524 0.18,-1.064 0.4,-1.2 0.22,-0.136 0.4,-0.766 0.4,-1.4 0,-0.634 0.18,-1.264 0.4,-1.4 0.22,-0.136 0.4,-1.126 0.4,-2.2 0,-1.074 0.18,-2.064 0.4,-2.2 0.265,-0.164 0.4,-31.204 0.4,-91.824 0,-60.784 -0.134,-91.576 -0.4,-91.576 -0.225,0 -0.4,-1.125 -0.4,-2.576 0,-1.417 -0.18,-2.688 -0.4,-2.824 -0.22,-0.136 -0.4,-0.957 -0.4,-1.824 0,-0.867 -0.18,-1.576 -0.4,-1.576 -0.22,0 -0.4,-0.542 -0.4,-1.205 0,-0.663 -0.18,-1.563 -0.4,-2 -0.22,-0.437 -0.58,-1.153 -0.8,-1.59 -0.22,-0.437 -0.4,-1.157 -0.4,-1.6 0,-0.443 -0.18,-0.805 -0.4,-0.805 -0.22,0 -0.4,-0.36 -0.4,-0.8 0,-0.44 -0.18,-0.8 -0.4,-0.8 -0.22,0 -0.4,-0.234 -0.4,-0.52 0,-0.736 -0.941,-2.673 -1.3,-2.677 -0.165,-0.002 -0.3,-0.363 -0.3,-0.803 0,-0.44 -0.18,-0.8 -0.4,-0.8 -0.22,0 -0.4,-0.225 -0.401,-0.5 0,-0.275 -0.54,-1.13 -1.199,-1.9 -0.659,-0.77 -1.199,-1.532 -1.199,-1.693 -10e-4,-0.162 -0.618,-0.972 -1.372,-1.8 -0.754,-0.829 -2.127,-2.362 -3.051,-3.407 -0.924,-1.045 -1.836,-1.9 -2.027,-1.9 -0.191,0 -1.266,-0.9 -2.39,-2 -1.123,-1.1 -2.254,-2 -2.513,-2 -0.259,0 -0.731,-0.36 -1.048,-0.8 -0.317,-0.44 -0.814,-0.8 -1.105,-0.8 -0.291,0 -0.915,-0.36 -1.387,-0.8 -0.472,-0.44 -1.095,-0.8 -1.383,-0.8 -0.289,0 -0.525,-0.18 -0.525,-0.4 0,-0.22 -0.36,-0.4 -0.8,-0.4 -0.44,0 -0.8,-0.18 -0.8,-0.4 0,-0.22 -0.36,-0.4 -0.8,-0.4 -0.44,0 -0.8,-0.18 -0.8,-0.4 0,-0.22 -0.36,-0.4 -0.8,-0.4 -0.44,0 -0.8,-0.18 -0.8,-0.4 0,-0.22 -0.36,-0.4 -0.8,-0.4 -0.44,0 -0.8,-0.18 -0.8,-0.4 0,-0.22 -0.36,-0.4 -0.8,-0.4 -0.44,0 -0.8,-0.18 -0.8,-0.4 0,-0.22 -0.36,-0.4 -0.8,-0.4 -0.44,0 -0.8,-0.18 -0.8,-0.4 0,-0.22 -0.54,-0.4 -1.2,-0.4 -0.66,0 -1.2,-0.18 -1.2,-0.4 0,-0.22 -0.349,-0.4 -0.776,-0.4 -0.427,0 -0.888,-0.18 -1.024,-0.4 -0.136,-0.22 -0.676,-0.4 -1.2,-0.4 -0.524,0 -1.064,-0.18 -1.2,-0.4 -0.136,-0.22 -0.766,-0.4 -1.4,-0.4 -0.634,0 -1.264,-0.18 -1.4,-0.4 -0.136,-0.22 -0.777,-0.4 -1.424,-0.4 -0.647,0 -1.176,-0.18 -1.176,-0.4 0,-0.22 -0.529,-0.4 -1.176,-0.4 -0.647,0 -1.288,-0.18 -1.424,-0.4 -0.136,-0.22 -0.867,-0.4 -1.624,-0.4 -0.757,0 -1.376,-0.18 -1.376,-0.4 0,-0.22 -0.9,-0.4 -2,-0.4 -1.1,0 -2,-0.18 -2,-0.4 0,-0.22 -0.9,-0.4 -2,-0.4 -1.1,0 -2,-0.18 -2,-0.4 0,-0.22 -0.9,-0.4 -2,-0.4 -1.1,0 -2,-0.18 -2,-0.4 0,-0.225 -1.125,-0.4 -2.576,-0.4 -1.417,0 -2.688,-0.18 -2.824,-0.4 -0.136,-0.22 -1.486,-0.4 -3,-0.4 -1.514,0 -2.864,-0.18 -3,-0.4 -0.137,-0.221 -1.937,-0.4 -4.024,-0.4 -2.251,0 -3.776,-0.162 -3.776,-0.4 0,-0.245 -1.925,-0.4 -4.976,-0.4 -2.887,0 -5.081,-0.168 -5.224,-0.4 -0.153,-0.247 -3.663,-0.4 -9.2,-0.4 -5.537,0 -9.047,-0.153 -9.2,-0.4 -0.159,-0.258 -7.263,-0.4 -20,-0.4 -12.737,0 -19.841,0.142 -20,0.4 m 119.8,108.8 v 41.2 H 200 100.4 v -41.2 -41.2 h 99.6 99.6 v 41.2 m -171.8,92.8 c 0.136,0.22 1.047,0.4 2.024,0.4 0.977,0 1.776,0.18 1.776,0.4 0,0.22 0.54,0.4 1.2,0.4 0.66,0 1.2,0.18 1.2,0.4 0,0.22 0.36,0.4 0.8,0.4 0.44,0 0.8,0.18 0.8,0.4 0,0.22 0.36,0.4 0.8,0.4 0.44,0 0.8,0.15 0.8,0.332 0,0.183 0.492,0.588 1.093,0.9 1.413,0.734 5.741,5.062 6.475,6.475 0.312,0.601 0.717,1.093 0.9,1.093 0.182,0 0.332,0.36 0.332,0.8 0,0.44 0.18,0.8 0.4,0.8 0.22,0 0.4,0.36 0.4,0.8 0,0.44 0.18,0.8 0.4,0.8 0.22,0 0.4,0.439 0.4,0.976 0,0.537 0.18,1.088 0.4,1.224 0.22,0.136 0.4,0.856 0.4,1.6 0,0.744 0.18,1.464 0.4,1.6 0.22,0.136 0.4,1.857 0.4,3.824 0,2.117 -0.163,3.576 -0.4,3.576 -0.22,0 -0.4,0.72 -0.4,1.6 0,0.88 -0.18,1.6 -0.4,1.6 -0.22,0 -0.4,0.54 -0.4,1.2 0,0.66 -0.18,1.2 -0.4,1.2 -0.22,0 -0.4,0.36 -0.4,0.8 0,0.44 -0.18,0.8 -0.4,0.8 -0.22,0 -0.4,0.32 -0.4,0.712 0,0.391 -0.36,0.971 -0.8,1.288 -0.44,0.317 -0.8,0.797 -0.8,1.066 0,0.69 -5.122,5.734 -5.822,5.734 -0.318,0 -0.578,0.159 -0.578,0.353 0,0.195 -0.315,0.454 -0.7,0.576 -0.385,0.122 -1.24,0.53 -1.9,0.907 -1.989,1.136 -2.553,1.364 -3.371,1.364 -0.43,0 -0.893,0.18 -1.029,0.4 -0.136,0.22 -1.036,0.4 -2,0.4 -0.964,0 -1.864,0.18 -2,0.4 -0.136,0.22 -1.137,0.4 -2.224,0.4 -1.087,0 -1.976,-0.18 -1.976,-0.4 0,-0.22 -0.9,-0.4 -2,-0.4 -1.1,0 -2,-0.18 -2,-0.4 0,-0.22 -0.54,-0.4 -1.2,-0.4 -0.66,0 -1.2,-0.18 -1.2,-0.4 0,-0.22 -0.36,-0.4 -0.8,-0.4 -0.44,0 -0.8,-0.18 -0.8,-0.4 0,-0.22 -0.36,-0.4 -0.8,-0.4 -0.44,0 -0.8,-0.18 -0.8,-0.4 0,-0.22 -0.283,-0.4 -0.629,-0.4 -0.763,0 -6.962,-6.162 -7.746,-7.7 -0.308,-0.605 -0.71,-1.1 -0.893,-1.1 -0.182,0 -0.332,-0.36 -0.332,-0.8 0,-0.44 -0.18,-0.8 -0.4,-0.8 -0.22,0 -0.4,-0.349 -0.4,-0.776 0,-0.427 -0.18,-0.888 -0.4,-1.024 -0.22,-0.136 -0.4,-0.766 -0.4,-1.4 0,-0.634 -0.18,-1.264 -0.4,-1.4 -0.234,-0.145 -0.4,-2.463 -0.4,-5.6 0,-3.137 0.166,-5.455 0.4,-5.6 0.22,-0.136 0.4,-0.777 0.4,-1.424 0,-0.647 0.18,-1.176 0.4,-1.176 0.22,0 0.4,-0.36 0.4,-0.8 0,-0.44 0.18,-0.8 0.4,-0.8 0.22,0 0.4,-0.36 0.4,-0.8 0,-0.44 0.18,-0.8 0.4,-0.8 0.22,0 0.4,-0.272 0.4,-0.604 0,-0.332 0.54,-1.168 1.2,-1.859 0.66,-0.691 1.2,-1.415 1.2,-1.61 0,-0.554 2.713,-3.127 3.298,-3.127 0.289,0 0.785,-0.36 1.102,-0.8 0.317,-0.44 0.882,-0.8 1.255,-0.8 0.373,0 0.738,-0.135 0.812,-0.3 0.192,-0.432 3.505,-2.1 4.171,-2.1 0.309,0 0.562,-0.18 0.562,-0.4 0,-0.22 0.9,-0.4 2,-0.4 1.1,0 2,-0.18 2,-0.4 0,-0.228 1.192,-0.4 2.776,-0.4 1.527,0 2.888,0.18 3.024,0.4 m 150.2,0 c 0,0.22 0.9,0.4 2,0.4 1.1,0 2,0.18 2,0.4 0,0.22 0.253,0.4 0.562,0.4 0.666,0 3.979,1.668 4.171,2.1 0.074,0.165 0.439,0.3 0.812,0.3 0.373,0 0.938,0.36 1.255,0.8 0.317,0.44 0.772,0.8 1.01,0.8 0.558,0 3.39,2.586 3.39,3.095 0,0.212 0.54,0.951 1.2,1.642 0.66,0.691 1.2,1.527 1.2,1.859 0,0.332 0.18,0.604 0.4,0.604 0.22,0 0.4,0.36 0.4,0.8 0,0.44 0.18,0.8 0.4,0.8 0.22,0 0.4,0.36 0.4,0.8 0,0.44 0.18,0.8 0.4,0.8 0.22,0 0.4,0.529 0.4,1.176 0,0.647 0.18,1.288 0.4,1.424 0.234,0.145 0.4,2.463 0.4,5.6 0,3.137 -0.166,5.455 -0.4,5.6 -0.22,0.136 -0.4,0.766 -0.4,1.4 0,0.634 -0.18,1.264 -0.4,1.4 -0.22,0.136 -0.4,0.597 -0.4,1.024 0,0.427 -0.18,0.776 -0.4,0.776 -0.22,0 -0.4,0.36 -0.4,0.8 0,0.44 -0.15,0.8 -0.332,0.8 -0.183,0 -0.585,0.495 -0.893,1.1 -0.784,1.538 -6.983,7.7 -7.746,7.7 -0.346,0 -0.629,0.18 -0.629,0.4 0,0.22 -0.36,0.4 -0.8,0.4 -0.44,0 -0.8,0.18 -0.8,0.4 0,0.22 -0.36,0.4 -0.8,0.4 -0.44,0 -0.8,0.18 -0.8,0.4 0,0.22 -0.54,0.4 -1.2,0.4 -0.66,0 -1.2,0.18 -1.2,0.4 0,0.22 -0.9,0.4 -2,0.4 -1.1,0 -2,0.18 -2,0.4 0,0.22 -0.889,0.4 -1.976,0.4 -1.087,0 -2.088,-0.18 -2.224,-0.4 -0.136,-0.22 -1.036,-0.4 -2,-0.4 -0.964,0 -1.864,-0.18 -2,-0.4 -0.136,-0.22 -0.599,-0.4 -1.029,-0.4 -0.818,0 -1.382,-0.228 -3.371,-1.364 -0.66,-0.377 -1.515,-0.785 -1.9,-0.907 -0.385,-0.122 -0.7,-0.381 -0.7,-0.576 0,-0.194 -0.249,-0.353 -0.554,-0.353 -0.724,0 -5.846,-4.978 -5.846,-5.681 0,-0.298 -0.36,-0.802 -0.8,-1.119 -0.44,-0.317 -0.8,-0.897 -0.8,-1.288 0,-0.392 -0.18,-0.712 -0.4,-0.712 -0.22,0 -0.4,-0.36 -0.4,-0.8 0,-0.44 -0.18,-0.8 -0.4,-0.8 -0.22,0 -0.4,-0.54 -0.4,-1.2 0,-0.66 -0.18,-1.2 -0.4,-1.2 -0.22,0 -0.4,-0.619 -0.4,-1.376 0,-0.757 -0.18,-1.488 -0.4,-1.624 -0.22,-0.136 -0.4,-1.846 -0.4,-3.8 0,-1.954 0.18,-3.664 0.4,-3.8 0.22,-0.136 0.4,-0.856 0.4,-1.6 0,-0.744 0.18,-1.464 0.4,-1.6 0.22,-0.136 0.4,-0.687 0.4,-1.224 0,-0.537 0.18,-0.976 0.4,-0.976 0.22,0 0.4,-0.36 0.4,-0.8 0,-0.44 0.18,-0.8 0.4,-0.8 0.22,0 0.4,-0.36 0.4,-0.8 0,-0.44 0.15,-0.8 0.332,-0.8 0.183,0 0.588,-0.495 0.9,-1.1 0.744,-1.441 6.289,-6.9 7.009,-6.9 0.307,0 0.559,-0.18 0.559,-0.4 0,-0.22 0.36,-0.4 0.8,-0.4 0.44,0 0.8,-0.18 0.8,-0.4 0,-0.22 0.36,-0.4 0.8,-0.4 0.44,0 0.8,-0.18 0.8,-0.4 0,-0.22 0.54,-0.4 1.2,-0.4 0.66,0 1.2,-0.18 1.2,-0.4 0,-0.22 0.799,-0.4 1.776,-0.4 0.977,0 1.888,-0.18 2.024,-0.4 0.136,-0.22 1.497,-0.4 3.024,-0.4 1.584,0 2.776,0.172 2.776,0.4"
       inkscape:connector-curvature="0"
       style="fill:#000000;fill-rule:evenodd;stroke:none" />
    <path
       id="path4"
       d="m 179.8,32.8 c -0.153,0.247 -3.596,0.4 -9,0.4 -5.404,0 -8.847,0.153 -9,0.4 -0.143,0.232 -2.337,0.4 -5.224,0.4 -3.051,0 -4.976,0.155 -4.976,0.4 0,0.238 -1.525,0.4 -3.776,0.4 -2.087,0 -3.887,0.179 -4.024,0.4 -0.136,0.22 -1.486,0.4 -3,0.4 -1.514,0 -2.864,0.18 -3,0.4 -0.136,0.22 -1.407,0.4 -2.824,0.4 -1.451,0 -2.576,0.175 -2.576,0.4 0,0.22 -0.9,0.4 -2,0.4 -1.1,0 -2,0.18 -2,0.4 0,0.22 -0.9,0.4 -2,0.4 -1.1,0 -2,0.18 -2,0.4 0,0.22 -0.9,0.4 -2,0.4 -1.1,0 -2,0.18 -2,0.4 0,0.22 -0.619,0.4 -1.376,0.4 -0.757,0 -1.488,0.18 -1.624,0.4 -0.136,0.22 -0.777,0.4 -1.424,0.4 -0.647,0 -1.176,0.18 -1.176,0.4 0,0.22 -0.529,0.4 -1.176,0.4 -0.647,0 -1.288,0.18 -1.424,0.4 -0.136,0.22 -0.766,0.4 -1.4,0.4 -0.634,0 -1.264,0.18 -1.4,0.4 -0.136,0.22 -0.676,0.4 -1.2,0.4 -0.524,0 -1.064,0.18 -1.2,0.4 -0.136,0.22 -0.597,0.4 -1.024,0.4 -0.427,0 -0.776,0.18 -0.776,0.4 0,0.22 -0.54,0.4 -1.2,0.4 -0.66,0 -1.2,0.18 -1.2,0.4 0,0.22 -0.36,0.4 -0.8,0.4 -0.44,0 -0.8,0.18 -0.8,0.4 0,0.22 -0.36,0.4 -0.8,0.4 -0.44,0 -0.8,0.18 -0.8,0.4 0,0.22 -0.36,0.4 -0.8,0.4 -0.44,0 -0.8,0.18 -0.8,0.4 0,0.22 -0.36,0.4 -0.8,0.4 -0.44,0 -0.8,0.18 -0.8,0.4 0,0.22 -0.36,0.4 -0.8,0.4 -0.44,0 -0.8,0.18 -0.8,0.4 0,0.22 -0.36,0.4 -0.8,0.4 -0.44,0 -0.8,0.18 -0.8,0.4 0,0.22 -0.236,0.4 -0.525,0.4 -0.288,0 -0.911,0.36 -1.383,0.8 -0.472,0.44 -1.096,0.8 -1.387,0.8 -0.291,0 -0.788,0.36 -1.105,0.8 -0.317,0.44 -0.789,0.8 -1.048,0.8 -0.259,0 -1.39,0.9 -2.513,2 -1.124,1.1 -2.199,2 -2.39,2 -0.191,0 -1.103,0.855 -2.027,1.9 -0.924,1.045 -2.297,2.578 -3.051,3.407 -0.754,0.828 -1.371,1.638 -1.372,1.8 0,0.161 -0.54,0.923 -1.199,1.693 -0.659,0.77 -1.199,1.625 -1.199,1.9 -0.001,0.275 -0.181,0.5 -0.401,0.5 -0.22,0 -0.4,0.36 -0.4,0.8 0,0.44 -0.135,0.801 -0.3,0.803 -0.359,0.004 -1.3,1.941 -1.3,2.677 0,0.286 -0.18,0.52 -0.4,0.52 -0.22,0 -0.4,0.36 -0.4,0.8 0,0.44 -0.18,0.8 -0.4,0.8 -0.22,0 -0.4,0.349 -0.4,0.776 0,0.427 -0.18,0.888 -0.4,1.024 -0.22,0.136 -0.4,0.676 -0.4,1.2 0,0.524 -0.18,1.064 -0.4,1.2 -0.22,0.136 -0.4,0.867 -0.4,1.624 0,0.757 -0.18,1.376 -0.4,1.376 -0.22,0 -0.4,0.709 -0.4,1.576 0,0.867 -0.18,1.688 -0.4,1.824 -0.22,0.136 -0.4,1.407 -0.4,2.824 0,1.451 -0.175,2.576 -0.4,2.576 -0.554,0 -0.554,183.057 0,183.4 0.22,0.136 0.4,1.227 0.4,2.424 0,1.197 0.18,2.176 0.4,2.176 0.22,0 0.4,0.529 0.4,1.176 0,0.647 0.18,1.288 0.4,1.424 0.22,0.136 0.4,0.676 0.4,1.2 0,0.524 0.18,1.064 0.4,1.2 0.22,0.136 0.4,0.687 0.4,1.224 0,0.537 0.18,0.976 0.4,0.976 0.22,0 0.4,0.253 0.4,0.562 0,0.666 1.668,3.979 2.1,4.171 0.165,0.074 0.3,0.479 0.3,0.9 0,0.422 0.18,0.767 0.4,0.767 0.22,0 0.4,0.32 0.4,0.712 0,0.391 0.36,0.971 0.8,1.288 0.44,0.317 0.8,0.769 0.8,1.004 0,0.236 0.72,1.224 1.6,2.196 0.88,0.972 1.6,1.92 1.6,2.106 0,0.186 1.08,1.398 2.4,2.694 l 2.4,2.356 v 16.627 c 0,9.546 0.159,16.924 0.374,17.322 0.205,0.382 0.609,1.28 0.897,1.995 0.289,0.715 0.66,1.3 0.827,1.3 0.166,0 0.302,0.273 0.302,0.607 0,0.792 5.001,5.793 5.793,5.793 0.334,0 0.607,0.18 0.607,0.4 0,0.22 0.36,0.4 0.8,0.4 0.44,0 0.8,0.18 0.8,0.4 0,0.22 0.54,0.4 1.2,0.4 0.66,0 1.2,0.18 1.2,0.4 0,0.548 25.061,0.548 25.4,0 0.136,-0.22 0.777,-0.4 1.424,-0.4 0.647,0 1.176,-0.18 1.176,-0.4 0,-0.22 0.36,-0.4 0.8,-0.4 0.44,0 0.8,-0.18 0.8,-0.4 0,-0.22 0.273,-0.4 0.607,-0.4 0.792,0 5.793,-5.001 5.793,-5.793 0,-0.334 0.18,-0.607 0.4,-0.607 0.22,0 0.4,-0.36 0.4,-0.8 0,-0.44 0.18,-0.8 0.4,-0.8 0.22,0 0.4,-0.54 0.4,-1.2 0,-0.66 0.18,-1.2 0.4,-1.2 0.256,0 0.4,-3.733 0.4,-10.4 v -10.4 h 66 66 v 10.4 c 0,6.667 0.144,10.4 0.4,10.4 0.22,0 0.4,0.54 0.4,1.2 0,0.66 0.18,1.2 0.4,1.2 0.22,0 0.4,0.36 0.4,0.8 0,0.44 0.18,0.8 0.4,0.8 0.22,0 0.4,0.273 0.4,0.607 0,0.792 5.001,5.793 5.793,5.793 0.334,0 0.607,0.18 0.607,0.4 0,0.22 0.36,0.4 0.8,0.4 0.44,0 0.8,0.18 0.8,0.4 0,0.22 0.529,0.4 1.176,0.4 0.647,0 1.288,0.18 1.424,0.4 0.339,0.548 25.4,0.548 25.4,0 0,-0.22 0.54,-0.4 1.2,-0.4 0.66,0 1.2,-0.18 1.2,-0.4 0,-0.22 0.36,-0.4 0.8,-0.4 0.44,0 0.8,-0.18 0.8,-0.4 0,-0.22 0.273,-0.4 0.607,-0.4 0.792,0 5.793,-5.001 5.793,-5.793 0,-0.334 0.18,-0.607 0.4,-0.607 0.22,0 0.4,-0.36 0.4,-0.8 0,-0.44 0.18,-0.8 0.4,-0.8 0.22,0 0.4,-0.349 0.4,-0.776 0,-0.427 0.18,-0.888 0.4,-1.024 0.256,-0.158 0.4,-6.279 0.4,-17.05 v -16.802 l 1.911,-1.874 c 1.051,-1.031 2.354,-2.504 2.896,-3.274 0.541,-0.77 1.481,-1.922 2.089,-2.559 0.607,-0.638 1.104,-1.32 1.104,-1.517 0,-0.197 0.36,-0.744 0.8,-1.216 0.44,-0.472 0.8,-1.095 0.8,-1.383 0,-0.289 0.18,-0.525 0.4,-0.525 0.22,0 0.4,-0.345 0.4,-0.767 0,-0.421 0.135,-0.826 0.3,-0.9 0.432,-0.192 2.1,-3.505 2.1,-4.171 0,-0.309 0.18,-0.562 0.4,-0.562 0.22,0 0.4,-0.439 0.4,-0.976 0,-0.537 0.18,-1.088 0.4,-1.224 0.22,-0.136 0.4,-0.676 0.4,-1.2 0,-0.524 0.18,-1.064 0.4,-1.2 0.22,-0.136 0.4,-0.766 0.4,-1.4 0,-0.634 0.18,-1.264 0.4,-1.4 0.22,-0.136 0.4,-1.126 0.4,-2.2 0,-1.074 0.18,-2.064 0.4,-2.2 0.265,-0.164 0.4,-31.204 0.4,-91.824 0,-60.784 -0.134,-91.576 -0.4,-91.576 -0.225,0 -0.4,-1.125 -0.4,-2.576 0,-1.417 -0.18,-2.688 -0.4,-2.824 -0.22,-0.136 -0.4,-0.957 -0.4,-1.824 0,-0.867 -0.18,-1.576 -0.4,-1.576 -0.22,0 -0.4,-0.542 -0.4,-1.205 0,-0.663 -0.18,-1.563 -0.4,-2 -0.22,-0.437 -0.58,-1.153 -0.8,-1.59 -0.22,-0.437 -0.4,-1.157 -0.4,-1.6 0,-0.443 -0.18,-0.805 -0.4,-0.805 -0.22,0 -0.4,-0.36 -0.4,-0.8 0,-0.44 -0.18,-0.8 -0.4,-0.8 -0.22,0 -0.4,-0.234 -0.4,-0.52 0,-0.736 -0.941,-2.673 -1.3,-2.677 -0.165,-0.002 -0.3,-0.363 -0.3,-0.803 0,-0.44 -0.18,-0.8 -0.4,-0.8 -0.22,0 -0.4,-0.225 -0.401,-0.5 0,-0.275 -0.54,-1.13 -1.199,-1.9 -0.659,-0.77 -1.199,-1.532 -1.199,-1.693 -10e-4,-0.162 -0.618,-0.972 -1.372,-1.8 -0.754,-0.829 -2.127,-2.362 -3.051,-3.407 -0.924,-1.045 -1.836,-1.9 -2.027,-1.9 -0.191,0 -1.266,-0.9 -2.39,-2 -1.123,-1.1 -2.254,-2 -2.513,-2 -0.259,0 -0.731,-0.36 -1.048,-0.8 -0.317,-0.44 -0.814,-0.8 -1.105,-0.8 -0.291,0 -0.915,-0.36 -1.387,-0.8 -0.472,-0.44 -1.095,-0.8 -1.383,-0.8 -0.289,0 -0.525,-0.18 -0.525,-0.4 0,-0.22 -0.36,-0.4 -0.8,-0.4 -0.44,0 -0.8,-0.18 -0.8,-0.4 0,-0.22 -0.36,-0.4 -0.8,-0.4 -0.44,0 -0.8,-0.18 -0.8,-0.4 0,-0.22 -0.36,-0.4 -0.8,-0.4 -0.44,0 -0.8,-0.18 -0.8,-0.4 0,-0.22 -0.36,-0.4 -0.8,-0.4 -0.44,0 -0.8,-0.18 -0.8,-0.4 0,-0.22 -0.36,-0.4 -0.8,-0.4 -0.44,0 -0.8,-0.18 -0.8,-0.4 0,-0.22 -0.36,-0.4 -0.8,-0.4 -0.44,0 -0.8,-0.18 -0.8,-0.4 0,-0.22 -0.54,-0.4 -1.2,-0.4 -0.66,0 -1.2,-0.18 -1.2,-0.4 0,-0.22 -0.349,-0.4 -0.776,-0.4 -0.427,0 -0.888,-0.18 -1.024,-0.4 -0.136,-0.22 -0.676,-0.4 -1.2,-0.4 -0.524,0 -1.064,-0.18 -1.2,-0.4 -0.136,-0.22 -0.766,-0.4 -1.4,-0.4 -0.634,0 -1.264,-0.18 -1.4,-0.4 -0.136,-0.22 -0.777,-0.4 -1.424,-0.4 -0.647,0 -1.176,-0.18 -1.176,-0.4 0,-0.22 -0.529,-0.4 -1.176,-0.4 -0.647,0 -1.288,-0.18 -1.424,-0.4 -0.136,-0.22 -0.867,-0.4 -1.624,-0.4 -0.757,0 -1.376,-0.18 -1.376,-0.4 0,-0.22 -0.9,-0.4 -2,-0.4 -1.1,0 -2,-0.18 -2,-0.4 0,-0.22 -0.9,-0.4 -2,-0.4 -1.1,0 -2,-0.18 -2,-0.4 0,-0.22 -0.9,-0.4 -2,-0.4 -1.1,0 -2,-0.18 -2,-0.4 0,-0.225 -1.125,-0.4 -2.576,-0.4 -1.417,0 -2.688,-0.18 -2.824,-0.4 -0.136,-0.22 -1.486,-0.4 -3,-0.4 -1.514,0 -2.864,-0.18 -3,-0.4 -0.137,-0.221 -1.937,-0.4 -4.024,-0.4 -2.251,0 -3.776,-0.162 -3.776,-0.4 0,-0.245 -1.925,-0.4 -4.976,-0.4 -2.887,0 -5.081,-0.168 -5.224,-0.4 -0.153,-0.247 -3.663,-0.4 -9.2,-0.4 -5.537,0 -9.047,-0.153 -9.2,-0.4 -0.159,-0.258 -7.263,-0.4 -20,-0.4 -12.737,0 -19.841,0.142 -20,0.4 m 119.8,108.8 v 41.2 H 200 100.4 v -41.2 -41.2 h 99.6 99.6 v 41.2 m -171.8,92.8 c 0.136,0.22 1.047,0.4 2.024,0.4 0.977,0 1.776,0.18 1.776,0.4 0,0.22 0.54,0.4 1.2,0.4 0.66,0 1.2,0.18 1.2,0.4 0,0.22 0.36,0.4 0.8,0.4 0.44,0 0.8,0.18 0.8,0.4 0,0.22 0.36,0.4 0.8,0.4 0.44,0 0.8,0.15 0.8,0.332 0,0.183 0.492,0.588 1.093,0.9 1.413,0.734 5.741,5.062 6.475,6.475 0.312,0.601 0.717,1.093 0.9,1.093 0.182,0 0.332,0.36 0.332,0.8 0,0.44 0.18,0.8 0.4,0.8 0.22,0 0.4,0.36 0.4,0.8 0,0.44 0.18,0.8 0.4,0.8 0.22,0 0.4,0.439 0.4,0.976 0,0.537 0.18,1.088 0.4,1.224 0.22,0.136 0.4,0.856 0.4,1.6 0,0.744 0.18,1.464 0.4,1.6 0.22,0.136 0.4,1.857 0.4,3.824 0,2.117 -0.163,3.576 -0.4,3.576 -0.22,0 -0.4,0.72 -0.4,1.6 0,0.88 -0.18,1.6 -0.4,1.6 -0.22,0 -0.4,0.54 -0.4,1.2 0,0.66 -0.18,1.2 -0.4,1.2 -0.22,0 -0.4,0.36 -0.4,0.8 0,0.44 -0.18,0.8 -0.4,0.8 -0.22,0 -0.4,0.32 -0.4,0.712 0,0.391 -0.36,0.971 -0.8,1.288 -0.44,0.317 -0.8,0.797 -0.8,1.066 0,0.69 -5.122,5.734 -5.822,5.734 -0.318,0 -0.578,0.159 -0.578,0.353 0,0.195 -0.315,0.454 -0.7,0.576 -0.385,0.122 -1.24,0.53 -1.9,0.907 -1.989,1.136 -2.553,1.364 -3.371,1.364 -0.43,0 -0.893,0.18 -1.029,0.4 -0.136,0.22 -1.036,0.4 -2,0.4 -0.964,0 -1.864,0.18 -2,0.4 -0.136,0.22 -1.137,0.4 -2.224,0.4 -1.087,0 -1.976,-0.18 -1.976,-0.4 0,-0.22 -0.9,-0.4 -2,-0.4 -1.1,0 -2,-0.18 -2,-0.4 0,-0.22 -0.54,-0.4 -1.2,-0.4 -0.66,0 -1.2,-0.18 -1.2,-0.4 0,-0.22 -0.36,-0.4 -0.8,-0.4 -0.44,0 -0.8,-0.18 -0.8,-0.4 0,-0.22 -0.36,-0.4 -0.8,-0.4 -0.44,0 -0.8,-0.18 -0.8,-0.4 0,-0.22 -0.283,-0.4 -0.629,-0.4 -0.763,0 -6.962,-6.162 -7.746,-7.7 -0.308,-0.605 -0.71,-1.1 -0.893,-1.1 -0.182,0 -0.332,-0.36 -0.332,-0.8 0,-0.44 -0.18,-0.8 -0.4,-0.8 -0.22,0 -0.4,-0.349 -0.4,-0.776 0,-0.427 -0.18,-0.888 -0.4,-1.024 -0.22,-0.136 -0.4,-0.766 -0.4,-1.4 0,-0.634 -0.18,-1.264 -0.4,-1.4 -0.234,-0.145 -0.4,-2.463 -0.4,-5.6 0,-3.137 0.166,-5.455 0.4,-5.6 0.22,-0.136 0.4,-0.777 0.4,-1.424 0,-0.647 0.18,-1.176 0.4,-1.176 0.22,0 0.4,-0.36 0.4,-0.8 0,-0.44 0.18,-0.8 0.4,-0.8 0.22,0 0.4,-0.36 0.4,-0.8 0,-0.44 0.18,-0.8 0.4,-0.8 0.22,0 0.4,-0.272 0.4,-0.604 0,-0.332 0.54,-1.168 1.2,-1.859 0.66,-0.691 1.2,-1.415 1.2,-1.61 0,-0.554 2.713,-3.127 3.298,-3.127 0.289,0 0.785,-0.36 1.102,-0.8 0.317,-0.44 0.882,-0.8 1.255,-0.8 0.373,0 0.738,-0.135 0.812,-0.3 0.192,-0.432 3.505,-2.1 4.171,-2.1 0.309,0 0.562,-0.18 0.562,-0.4 0,-0.22 0.9,-0.4 2,-0.4 1.1,0 2,-0.18 2,-0.4 0,-0.228 1.192,-0.4 2.776,-0.4 1.527,0 2.888,0.18 3.024,0.4 m 150.2,0 c 0,0.22 0.9,0.4 2,0.4 1.1,0 2,0.18 2,0.4 0,0.22 0.253,0.4 0.562,0.4 0.666,0 3.979,1.668 4.171,2.1 0.074,0.165 0.439,0.3 0.812,0.3 0.373,0 0.938,0.36 1.255,0.8 0.317,0.44 0.772,0.8 1.01,0.8 0.558,0 3.39,2.586 3.39,3.095 0,0.212 0.54,0.951 1.2,1.642 0.66,0.691 1.2,1.527 1.2,1.859 0,0.332 0.18,0.604 0.4,0.604 0.22,0 0.4,0.36 0.4,0.8 0,0.44 0.18,0.8 0.4,0.8 0.22,0 0.4,0.36 0.4,0.8 0,0.44 0.18,0.8 0.4,0.8 0.22,0 0.4,0.529 0.4,1.176 0,0.647 0.18,1.288 0.4,1.424 0.234,0.145 0.4,2.463 0.4,5.6 0,3.137 -0.166,5.455 -0.4,5.6 -0.22,0.136 -0.4,0.766 -0.4,1.4 0,0.634 -0.18,1.264 -0.4,1.4 -0.22,0.136 -0.4,0.597 -0.4,1.024 0,0.427 -0.18,0.776 -0.4,0.776 -0.22,0 -0.4,0.36 -0.4,0.8 0,0.44 -0.15,0.8 -0.332,0.8 -0.183,0 -0.585,0.495 -0.893,1.1 -0.784,1.538 -6.983,7.7 -7.746,7.7 -0.346,0 -0.629,0.18 -0.629,0.4 0,0.22 -0.36,0.4 -0.8,0.4 -0.44,0 -0.8,0.18 -0.8,0.4 0,0.22 -0.36,0.4 -0.8,0.4 -0.44,0 -0.8,0.18 -0.8,0.4 0,0.22 -0.54,0.4 -1.2,0.4 -0.66,0 -1.2,0.18 -1.2,0.4 0,0.22 -0.9,0.4 -2,0.4 -1.1,0 -2,0.18 -2,0.4 0,0.22 -0.889,0.4 -1.976,0.4 -1.087,0 -2.088,-0.18 -2.224,-0.4 -0.136,-0.22 -1.036,-0.4 -2,-0.4 -0.964,0 -1.864,-0.18 -2,-0.4 -0.136,-0.22 -0.599,-0.4 -1.029,-0.4 -0.818,0 -1.382,-0.228 -3.371,-1.364 -0.66,-0.377 -1.515,-0.785 -1.9,-0.907 -0.385,-0.122 -0.7,-0.381 -0.7,-0.576 0,-0.194 -0.249,-0.353 -0.554,-0.353 -0.724,0 -5.846,-4.978 -5.846,-5.681 0,-0.298 -0.36,-0.802 -0.8,-1.119 -0.44,-0.317 -0.8,-0.897 -0.8,-1.288 0,-0.392 -0.18,-0.712 -0.4,-0.712 -0.22,0 -0.4,-0.36 -0.4,-0.8 0,-0.44 -0.18,-0.8 -0.4,-0.8 -0.22,0 -0.4,-0.54 -0.4,-1.2 0,-0.66 -0.18,-1.2 -0.4,-1.2 -0.22,0 -0.4,-0.619 -0.4,-1.376 0,-0.757 -0.18,-1.488 -0.4,-1.624 -0.22,-0.136 -0.4,-1.846 -0.4,-3.8 0,-1.954 0.18,-3.664 0.4,-3.8 0.22,-0.136 0.4,-0.856 0.4,-1.6 0,-0.744 0.18,-1.464 0.4,-1.6 0.22,-0.136 0.4,-0.687 0.4,-1.224 0,-0.537 0.18,-0.976 0.4,-0.976 0.22,0 0.4,-0.36 0.4,-0.8 0,-0.44 0.18,-0.8 0.4,-0.8 0.22,0 0.4,-0.36 0.4,-0.8 0,-0.44 0.15,-0.8 0.332,-0.8 0.183,0 0.588,-0.495 0.9,-1.1 0.744,-1.441 6.289,-6.9 7.009,-6.9 0.307,0 0.559,-0.18 0.559,-0.4 0,-0.22 0.36,-0.4 0.8,-0.4 0.44,0 0.8,-0.18 0.8,-0.4 0,-0.22 0.36,-0.4 0.8,-0.4 0.44,0 0.8,-0.18 0.8,-0.4 0,-0.22 0.54,-0.4 1.2,-0.4 0.66,0 1.2,-0.18 1.2,-0.4 0,-0.22 0.799,-0.4 1.776,-0.4 0.977,0 1.888,-0.18 2.024,-0.4 0.136,-0.22 1.497,-0.4 3.024,-0.4 1.584,0 2.776,0.172 2.776,0.4"
       inkscape:connector-curvature="0"
       style="fill:#000000;fill-rule:evenodd;stroke:none" />
  </g>
</svg>
