<?xml version="1.0" encoding="UTF-8" standalone="no"?>
<svg
   xmlns:dc="http://purl.org/dc/elements/1.1/"
   xmlns:cc="http://creativecommons.org/ns#"
   xmlns:rdf="http://www.w3.org/1999/02/22-rdf-syntax-ns#"
   xmlns:svg="http://www.w3.org/2000/svg"
   xmlns="http://www.w3.org/2000/svg"
   xmlns:sodipodi="http://sodipodi.sourceforge.net/DTD/sodipodi-0.dtd"
   xmlns:inkscape="http://www.inkscape.org/namespaces/inkscape"
   id="svg"
   version="1.1"
   width="25"
   height="24.152529"
   style="display:block"
   sodipodi:docname="Jeep Black.svg"
   inkscape:version="0.92.1 r15371">
  <metadata
     id="metadata13">
    <rdf:RDF>
      <cc:Work
         rdf:about="">
        <dc:format>image/svg+xml</dc:format>
        <dc:type
           rdf:resource="http://purl.org/dc/dcmitype/StillImage" />
      </cc:Work>
    </rdf:RDF>
  </metadata>
  <defs
     id="defs11" />
  <sodipodi:namedview
     pagecolor="#ffffff"
     bordercolor="#666666"
     borderopacity="1"
     objecttolerance="10"
     gridtolerance="10"
     guidetolerance="10"
     inkscape:pageopacity="0"
     inkscape:pageshadow="2"
     inkscape:window-width="640"
     inkscape:window-height="480"
     id="namedview9"
     showgrid="false"
     inkscape:zoom="0.59"
     inkscape:cx="176.803"
     inkscape:cy="170.8"
     inkscape:window-x="0"
     inkscape:window-y="0"
     inkscape:window-maximized="0"
     inkscape:current-layer="svg" />
  <g
     id="svgg"
     transform="matrix(0.07070076,0,0,0.07070076,-1.6400455,-2.0633133)">
    <path
       id="path0"
       d="M 83.4,29.6 C 83.264,29.82 82.443,30 81.576,30 80.709,30 80,30.18 80,30.4 c 0,0.22 -0.54,0.4 -1.2,0.4 -0.66,0 -1.2,0.18 -1.2,0.4 0,0.22 -0.45,0.4 -1,0.4 -0.55,0 -1,0.18 -1,0.4 0,0.22 -0.32,0.4 -0.712,0.4 -0.391,0 -0.971,0.36 -1.288,0.8 -0.317,0.44 -0.811,0.8 -1.097,0.8 -0.674,0 -4.534,3.886 -5.271,5.306 -0.312,0.602 -0.717,1.094 -0.9,1.094 -0.182,0 -0.332,0.36 -0.332,0.8 0,0.44 -0.18,0.8 -0.4,0.8 -0.22,0 -0.4,0.349 -0.4,0.776 0,0.427 -0.18,0.888 -0.4,1.024 -0.22,0.136 -0.4,0.766 -0.4,1.4 0,0.634 -0.18,1.264 -0.4,1.4 -0.22,0.136 -0.4,1.306 -0.4,2.6 0,1.294 -0.18,2.464 -0.4,2.6 -0.265,0.164 -0.4,29.67 -0.4,87.22 v 86.972 L 43.1,226.096 23.4,226.2 23.299,278.1 23.197,330 H 37.199 51.2 v 20.4 20.4 H 76.6 102 V 350.4 330 h 96.396 96.397 l 0.103,20.3 0.104,20.3 h 25.6 25.6 l 0.104,-20.3 0.103,-20.3 H 361.204 376 v -52 -52 h -18.2 -18.2 v -86.376 c 0,-57.153 -0.135,-86.46 -0.4,-86.624 -0.22,-0.136 -0.4,-1.576 -0.4,-3.2 0,-1.624 -0.18,-3.064 -0.4,-3.2 -0.22,-0.136 -0.4,-0.779 -0.4,-1.429 0,-0.65 -0.164,-1.494 -0.365,-1.876 -0.201,-0.382 -0.846,-1.733 -1.433,-3.002 C 335.11,37.933 331.68,34 330.714,34 c -0.295,0 -0.797,-0.36 -1.114,-0.8 -0.317,-0.44 -0.897,-0.8 -1.288,-0.8 -0.392,0 -0.712,-0.18 -0.712,-0.4 0,-0.22 -0.54,-0.4 -1.2,-0.4 -0.66,0 -1.2,-0.18 -1.2,-0.4 0,-0.22 -0.439,-0.4 -0.976,-0.4 -0.537,0 -1.088,-0.18 -1.224,-0.4 -0.136,-0.22 -1.126,-0.4 -2.2,-0.4 -1.074,0 -2.064,-0.18 -2.2,-0.4 -0.343,-0.555 -234.857,-0.555 -235.2,0 m 179.4,38 v 11.6 h -62 -62 V 67.6 56 h 62 62 v 11.6 m -232,37.2 c 0,0.22 -0.471,0.4 -1.046,0.4 -1.336,0 -3.469,2.271 -4.095,4.36 -0.895,2.988 -0.623,51.402 0.303,53.936 1.008,2.758 2.527,4.104 4.633,4.104 0.553,0 1.005,0.18 1.005,0.4 0,0.252 2.659,0.4 7.176,0.4 4.353,0 7.274,-0.157 7.424,-0.4 0.136,-0.22 0.693,-0.4 1.237,-0.4 1.008,0 3.269,-1.93 4.117,-3.515 0.874,-1.631 0.604,-55.251 -0.282,-56.038 -0.4,-0.356 -0.844,-0.962 -0.987,-1.347 -0.143,-0.385 -0.536,-0.7 -0.872,-0.7 -0.337,0 -0.613,-0.18 -0.613,-0.4 0,-0.22 -0.349,-0.4 -0.776,-0.4 -0.427,0 -0.888,-0.18 -1.024,-0.4 -0.151,-0.245 -3.337,-0.4 -8.224,-0.4 -5.051,0 -7.976,0.147 -7.976,0.4 m 325.2,0 c 0,0.22 -0.456,0.4 -1.013,0.4 -1.021,0 -3.085,1.778 -4.087,3.52 -0.641,1.114 -0.739,54.88 -0.1,54.88 0.22,0 0.4,0.291 0.4,0.646 0,1.033 2.805,3.354 4.055,3.354 0.604,0 1.209,0.18 1.345,0.4 0.149,0.241 2.93,0.4 7,0.4 4.07,0 6.851,-0.159 7,-0.4 0.136,-0.22 0.688,-0.4 1.227,-0.4 1.006,0 3.373,-1.925 3.373,-2.743 0,-0.251 0.18,-0.457 0.4,-0.457 0.22,0 0.4,-0.54 0.4,-1.2 0,-0.66 0.18,-1.2 0.4,-1.2 0.262,0 0.4,-8.792 0.4,-25.576 0,-16.62 -0.14,-25.663 -0.4,-25.824 -0.22,-0.136 -0.4,-0.687 -0.4,-1.224 0,-0.537 -0.136,-0.976 -0.302,-0.976 -0.167,0 -0.542,-0.54 -0.834,-1.2 -0.292,-0.66 -0.786,-1.2 -1.098,-1.2 -0.311,0 -0.566,-0.18 -0.566,-0.4 0,-0.22 -0.54,-0.4 -1.2,-0.4 -0.66,0 -1.2,-0.18 -1.2,-0.4 0,-0.252 -2.733,-0.4 -7.4,-0.4 -4.667,0 -7.4,0.148 -7.4,0.4 m -168.8,37.8 v 36.6 H 138 88.8 V 142.6 106 h 49.2 49.2 v 36.6 m 124.8,0 v 36.6 H 262.8 213.6 V 142.6 106 h 49.2 49.2 v 36.6 M 262.8,236 v 5.2 h -61.6 -61.6 v -5.2 -5.2 h 61.6 61.6 v 5.2 m -183.4,9.2 c 0.136,0.22 0.867,0.4 1.624,0.4 0.757,0 1.376,0.18 1.376,0.4 0,0.22 0.54,0.4 1.2,0.4 0.66,0 1.2,0.18 1.2,0.4 0,0.22 0.36,0.4 0.8,0.4 0.44,0 0.8,0.18 0.8,0.4 0,0.22 0.288,0.4 0.64,0.4 0.351,0 1.116,0.495 1.7,1.1 0.583,0.605 1.51,1.337 2.06,1.626 0.946,0.497 2.41,2.467 4.2,5.651 0.44,0.783 0.935,1.483 1.1,1.556 0.165,0.074 0.3,0.479 0.3,0.9 0,0.422 0.18,0.767 0.4,0.767 0.22,0 0.4,0.54 0.4,1.2 0,0.66 0.18,1.2 0.4,1.2 0.246,0 0.4,2 0.4,5.2 0,3.2 -0.154,5.2 -0.4,5.2 -0.22,0 -0.4,0.452 -0.4,1.004 0,0.955 -1.461,4.571 -2.018,4.996 -0.144,0.11 -0.484,0.62 -0.754,1.134 -1.042,1.976 -4.95,6.066 -5.797,6.066 -0.347,0 -0.631,0.18 -0.631,0.4 0,0.22 -0.236,0.4 -0.525,0.4 -0.288,0 -0.911,0.36 -1.383,0.8 -0.472,0.44 -1.316,0.8 -1.875,0.8 -0.559,0 -1.017,0.18 -1.017,0.4 0,0.22 -0.54,0.4 -1.2,0.4 -0.66,0 -1.2,0.18 -1.2,0.4 0,0.243 -1.792,0.4 -4.576,0.4 -2.62,0 -4.682,-0.171 -4.824,-0.4 -0.136,-0.22 -0.766,-0.4 -1.4,-0.4 -0.634,0 -1.264,-0.18 -1.4,-0.4 -0.136,-0.22 -0.597,-0.4 -1.024,-0.4 -0.427,0 -0.776,-0.18 -0.776,-0.4 0,-0.22 -0.36,-0.4 -0.8,-0.4 -0.44,0 -0.8,-0.18 -0.8,-0.4 0,-0.22 -0.273,-0.4 -0.606,-0.4 -2.766,0 -10.17,-10.973 -10.188,-15.1 -0.003,-0.715 -0.201,-1.3 -0.44,-1.3 -0.289,0 -0.362,-0.836 -0.218,-2.5 0.374,-4.304 0.72,-6.3 1.092,-6.3 0.198,0 0.36,-0.525 0.36,-1.167 0,-0.641 0.135,-1.226 0.3,-1.3 0.165,-0.073 0.84,-1.206 1.5,-2.518 1.253,-2.491 4.431,-6.01 6.306,-6.983 0.602,-0.312 1.094,-0.717 1.094,-0.9 0,-0.182 0.36,-0.332 0.8,-0.332 0.44,0 0.8,-0.18 0.8,-0.4 0,-0.22 0.36,-0.4 0.8,-0.4 0.44,0 0.8,-0.18 0.8,-0.4 0,-0.22 0.439,-0.4 0.976,-0.4 0.537,0 1.088,-0.18 1.224,-0.4 0.136,-0.22 0.766,-0.4 1.4,-0.4 0.634,0 1.264,-0.18 1.4,-0.4 0.136,-0.22 1.666,-0.4 3.4,-0.4 1.734,0 3.264,0.18 3.4,0.4 m 248.8,0 c 0.136,0.22 0.777,0.4 1.424,0.4 0.647,0 1.176,0.18 1.176,0.4 0,0.22 0.54,0.4 1.2,0.4 0.66,0 1.2,0.18 1.2,0.4 0,0.22 0.36,0.4 0.8,0.4 0.44,0 0.8,0.18 0.8,0.4 0,0.22 0.32,0.4 0.712,0.4 0.391,0 0.971,0.36 1.288,0.8 0.317,0.44 0.812,0.8 1.099,0.8 0.531,0 4.101,3.353 4.101,3.852 0,0.15 0.419,0.829 0.932,1.51 0.512,0.681 1.186,1.823 1.497,2.538 0.312,0.715 0.702,1.3 0.869,1.3 0.166,0 0.302,0.54 0.302,1.2 0,0.66 0.18,1.2 0.4,1.2 0.22,0 0.4,0.979 0.4,2.176 0,1.197 0.18,2.288 0.4,2.424 0.22,0.136 0.4,0.856 0.4,1.6 0,0.744 -0.18,1.464 -0.4,1.6 -0.22,0.136 -0.4,1.137 -0.4,2.224 0,1.087 -0.18,1.976 -0.4,1.976 -0.22,0 -0.4,0.467 -0.4,1.038 0,0.571 -0.328,1.516 -0.729,2.1 -0.401,0.584 -1.039,1.736 -1.418,2.561 -0.789,1.715 -6.398,7.501 -7.272,7.501 -0.32,0 -0.581,0.18 -0.581,0.4 0,0.22 -0.36,0.4 -0.8,0.4 -0.44,0 -0.8,0.18 -0.8,0.4 0,0.22 -0.439,0.4 -0.976,0.4 -0.537,0 -1.088,0.18 -1.224,0.4 -0.136,0.22 -0.777,0.4 -1.424,0.4 -0.647,0 -1.176,0.18 -1.176,0.4 0,0.243 -1.8,0.4 -4.6,0.4 -2.8,0 -4.6,-0.157 -4.6,-0.4 0,-0.22 -0.54,-0.4 -1.2,-0.4 -0.66,0 -1.2,-0.18 -1.2,-0.4 0,-0.22 -0.54,-0.4 -1.2,-0.4 -0.66,0 -1.2,-0.18 -1.2,-0.4 0,-0.22 -0.236,-0.4 -0.525,-0.4 -0.288,0 -0.911,-0.36 -1.383,-0.8 -0.472,-0.44 -1.058,-0.8 -1.301,-0.8 -0.415,0 -3.197,-2.701 -4.991,-4.846 -0.44,-0.526 -1.25,-1.856 -1.8,-2.955 -0.55,-1.099 -1.135,-2.059 -1.3,-2.132 -0.165,-0.074 -0.3,-0.659 -0.3,-1.3 0,-0.642 -0.18,-1.167 -0.4,-1.167 -0.22,0 -0.4,-1.002 -0.4,-2.226 0,-1.225 -0.197,-2.594 -0.437,-3.043 -0.316,-0.591 -0.316,-0.938 0,-1.254 0.24,-0.24 0.437,-1.391 0.437,-2.557 0,-1.166 0.18,-2.12 0.4,-2.12 0.22,0 0.4,-0.457 0.4,-1.016 0,-2.185 5.327,-10.541 6.74,-10.572 0.296,-0.007 1.043,-0.552 1.66,-1.212 0.617,-0.66 1.409,-1.2 1.76,-1.2 0.352,0 0.64,-0.18 0.64,-0.4 0,-0.22 0.36,-0.4 0.8,-0.4 0.44,0 0.8,-0.18 0.8,-0.4 0,-0.22 0.54,-0.4 1.2,-0.4 0.66,0 1.2,-0.18 1.2,-0.4 0,-0.22 0.63,-0.4 1.4,-0.4 0.77,0 1.4,-0.18 1.4,-0.4 0,-0.235 1.392,-0.4 3.376,-0.4 1.857,0 3.488,0.18 3.624,0.4 M 262.8,261 v 5 h -61.6 -61.6 v -5 -5 h 61.6 61.6 v 5 m 0,25 v 5.2 h -61.576 c -33.867,0 -61.632,-0.135 -61.7,-0.3 -0.068,-0.165 -0.068,-2.505 0,-5.2 l 0.123,-4.9 h 61.577 61.576 v 5.2"
       inkscape:connector-curvature="0"
       style="fill:#000000;fill-rule:evenodd;stroke:none" />
    <path
       id="path1"
       d="M 83.4,29.6 C 83.264,29.82 82.443,30 81.576,30 80.709,30 80,30.18 80,30.4 c 0,0.22 -0.54,0.4 -1.2,0.4 -0.66,0 -1.2,0.18 -1.2,0.4 0,0.22 -0.45,0.4 -1,0.4 -0.55,0 -1,0.18 -1,0.4 0,0.22 -0.32,0.4 -0.712,0.4 -0.391,0 -0.971,0.36 -1.288,0.8 -0.317,0.44 -0.811,0.8 -1.097,0.8 -0.674,0 -4.534,3.886 -5.271,5.306 -0.312,0.602 -0.717,1.094 -0.9,1.094 -0.182,0 -0.332,0.36 -0.332,0.8 0,0.44 -0.18,0.8 -0.4,0.8 -0.22,0 -0.4,0.349 -0.4,0.776 0,0.427 -0.18,0.888 -0.4,1.024 -0.22,0.136 -0.4,0.766 -0.4,1.4 0,0.634 -0.18,1.264 -0.4,1.4 -0.22,0.136 -0.4,1.306 -0.4,2.6 0,1.294 -0.18,2.464 -0.4,2.6 -0.265,0.164 -0.4,29.67 -0.4,87.22 v 86.972 L 43.1,226.096 23.4,226.2 23.299,278.1 23.197,330 H 37.199 51.2 v 20.4 20.4 H 76.6 102 V 350.4 330 h 96.396 96.397 l 0.103,20.3 0.104,20.3 h 25.6 25.6 l 0.104,-20.3 0.103,-20.3 H 361.204 376 v -52 -52 h -18.2 -18.2 v -86.376 c 0,-57.153 -0.135,-86.46 -0.4,-86.624 -0.22,-0.136 -0.4,-1.576 -0.4,-3.2 0,-1.624 -0.18,-3.064 -0.4,-3.2 -0.22,-0.136 -0.4,-0.779 -0.4,-1.429 0,-0.65 -0.164,-1.494 -0.365,-1.876 -0.201,-0.382 -0.846,-1.733 -1.433,-3.002 C 335.11,37.933 331.68,34 330.714,34 c -0.295,0 -0.797,-0.36 -1.114,-0.8 -0.317,-0.44 -0.897,-0.8 -1.288,-0.8 -0.392,0 -0.712,-0.18 -0.712,-0.4 0,-0.22 -0.54,-0.4 -1.2,-0.4 -0.66,0 -1.2,-0.18 -1.2,-0.4 0,-0.22 -0.439,-0.4 -0.976,-0.4 -0.537,0 -1.088,-0.18 -1.224,-0.4 -0.136,-0.22 -1.126,-0.4 -2.2,-0.4 -1.074,0 -2.064,-0.18 -2.2,-0.4 -0.343,-0.555 -234.857,-0.555 -235.2,0 m 179.4,38 v 11.6 h -62 -62 V 67.6 56 h 62 62 v 11.6 m -232,37.2 c 0,0.22 -0.471,0.4 -1.046,0.4 -1.336,0 -3.469,2.271 -4.095,4.36 -0.895,2.988 -0.623,51.402 0.303,53.936 1.008,2.758 2.527,4.104 4.633,4.104 0.553,0 1.005,0.18 1.005,0.4 0,0.252 2.659,0.4 7.176,0.4 4.353,0 7.274,-0.157 7.424,-0.4 0.136,-0.22 0.693,-0.4 1.237,-0.4 1.008,0 3.269,-1.93 4.117,-3.515 0.874,-1.631 0.604,-55.251 -0.282,-56.038 -0.4,-0.356 -0.844,-0.962 -0.987,-1.347 -0.143,-0.385 -0.536,-0.7 -0.872,-0.7 -0.337,0 -0.613,-0.18 -0.613,-0.4 0,-0.22 -0.349,-0.4 -0.776,-0.4 -0.427,0 -0.888,-0.18 -1.024,-0.4 -0.151,-0.245 -3.337,-0.4 -8.224,-0.4 -5.051,0 -7.976,0.147 -7.976,0.4 m 325.2,0 c 0,0.22 -0.456,0.4 -1.013,0.4 -1.021,0 -3.085,1.778 -4.087,3.52 -0.641,1.114 -0.739,54.88 -0.1,54.88 0.22,0 0.4,0.291 0.4,0.646 0,1.033 2.805,3.354 4.055,3.354 0.604,0 1.209,0.18 1.345,0.4 0.149,0.241 2.93,0.4 7,0.4 4.07,0 6.851,-0.159 7,-0.4 0.136,-0.22 0.688,-0.4 1.227,-0.4 1.006,0 3.373,-1.925 3.373,-2.743 0,-0.251 0.18,-0.457 0.4,-0.457 0.22,0 0.4,-0.54 0.4,-1.2 0,-0.66 0.18,-1.2 0.4,-1.2 0.262,0 0.4,-8.792 0.4,-25.576 0,-16.62 -0.14,-25.663 -0.4,-25.824 -0.22,-0.136 -0.4,-0.687 -0.4,-1.224 0,-0.537 -0.136,-0.976 -0.302,-0.976 -0.167,0 -0.542,-0.54 -0.834,-1.2 -0.292,-0.66 -0.786,-1.2 -1.098,-1.2 -0.311,0 -0.566,-0.18 -0.566,-0.4 0,-0.22 -0.54,-0.4 -1.2,-0.4 -0.66,0 -1.2,-0.18 -1.2,-0.4 0,-0.252 -2.733,-0.4 -7.4,-0.4 -4.667,0 -7.4,0.148 -7.4,0.4 m -168.8,37.8 v 36.6 H 138 88.8 V 142.6 106 h 49.2 49.2 v 36.6 m 124.8,0 v 36.6 H 262.8 213.6 V 142.6 106 h 49.2 49.2 v 36.6 M 262.8,236 v 5.2 h -61.6 -61.6 v -5.2 -5.2 h 61.6 61.6 v 5.2 m -183.4,9.2 c 0.136,0.22 0.867,0.4 1.624,0.4 0.757,0 1.376,0.18 1.376,0.4 0,0.22 0.54,0.4 1.2,0.4 0.66,0 1.2,0.18 1.2,0.4 0,0.22 0.36,0.4 0.8,0.4 0.44,0 0.8,0.18 0.8,0.4 0,0.22 0.288,0.4 0.64,0.4 0.351,0 1.116,0.495 1.7,1.1 0.583,0.605 1.51,1.337 2.06,1.626 0.946,0.497 2.41,2.467 4.2,5.651 0.44,0.783 0.935,1.483 1.1,1.556 0.165,0.074 0.3,0.479 0.3,0.9 0,0.422 0.18,0.767 0.4,0.767 0.22,0 0.4,0.54 0.4,1.2 0,0.66 0.18,1.2 0.4,1.2 0.246,0 0.4,2 0.4,5.2 0,3.2 -0.154,5.2 -0.4,5.2 -0.22,0 -0.4,0.452 -0.4,1.004 0,0.955 -1.461,4.571 -2.018,4.996 -0.144,0.11 -0.484,0.62 -0.754,1.134 -1.042,1.976 -4.95,6.066 -5.797,6.066 -0.347,0 -0.631,0.18 -0.631,0.4 0,0.22 -0.236,0.4 -0.525,0.4 -0.288,0 -0.911,0.36 -1.383,0.8 -0.472,0.44 -1.316,0.8 -1.875,0.8 -0.559,0 -1.017,0.18 -1.017,0.4 0,0.22 -0.54,0.4 -1.2,0.4 -0.66,0 -1.2,0.18 -1.2,0.4 0,0.243 -1.792,0.4 -4.576,0.4 -2.62,0 -4.682,-0.171 -4.824,-0.4 -0.136,-0.22 -0.766,-0.4 -1.4,-0.4 -0.634,0 -1.264,-0.18 -1.4,-0.4 -0.136,-0.22 -0.597,-0.4 -1.024,-0.4 -0.427,0 -0.776,-0.18 -0.776,-0.4 0,-0.22 -0.36,-0.4 -0.8,-0.4 -0.44,0 -0.8,-0.18 -0.8,-0.4 0,-0.22 -0.273,-0.4 -0.606,-0.4 -2.766,0 -10.17,-10.973 -10.188,-15.1 -0.003,-0.715 -0.201,-1.3 -0.44,-1.3 -0.289,0 -0.362,-0.836 -0.218,-2.5 0.374,-4.304 0.72,-6.3 1.092,-6.3 0.198,0 0.36,-0.525 0.36,-1.167 0,-0.641 0.135,-1.226 0.3,-1.3 0.165,-0.073 0.84,-1.206 1.5,-2.518 1.253,-2.491 4.431,-6.01 6.306,-6.983 0.602,-0.312 1.094,-0.717 1.094,-0.9 0,-0.182 0.36,-0.332 0.8,-0.332 0.44,0 0.8,-0.18 0.8,-0.4 0,-0.22 0.36,-0.4 0.8,-0.4 0.44,0 0.8,-0.18 0.8,-0.4 0,-0.22 0.439,-0.4 0.976,-0.4 0.537,0 1.088,-0.18 1.224,-0.4 0.136,-0.22 0.766,-0.4 1.4,-0.4 0.634,0 1.264,-0.18 1.4,-0.4 0.136,-0.22 1.666,-0.4 3.4,-0.4 1.734,0 3.264,0.18 3.4,0.4 m 248.8,0 c 0.136,0.22 0.777,0.4 1.424,0.4 0.647,0 1.176,0.18 1.176,0.4 0,0.22 0.54,0.4 1.2,0.4 0.66,0 1.2,0.18 1.2,0.4 0,0.22 0.36,0.4 0.8,0.4 0.44,0 0.8,0.18 0.8,0.4 0,0.22 0.32,0.4 0.712,0.4 0.391,0 0.971,0.36 1.288,0.8 0.317,0.44 0.812,0.8 1.099,0.8 0.531,0 4.101,3.353 4.101,3.852 0,0.15 0.419,0.829 0.932,1.51 0.512,0.681 1.186,1.823 1.497,2.538 0.312,0.715 0.702,1.3 0.869,1.3 0.166,0 0.302,0.54 0.302,1.2 0,0.66 0.18,1.2 0.4,1.2 0.22,0 0.4,0.979 0.4,2.176 0,1.197 0.18,2.288 0.4,2.424 0.22,0.136 0.4,0.856 0.4,1.6 0,0.744 -0.18,1.464 -0.4,1.6 -0.22,0.136 -0.4,1.137 -0.4,2.224 0,1.087 -0.18,1.976 -0.4,1.976 -0.22,0 -0.4,0.467 -0.4,1.038 0,0.571 -0.328,1.516 -0.729,2.1 -0.401,0.584 -1.039,1.736 -1.418,2.561 -0.789,1.715 -6.398,7.501 -7.272,7.501 -0.32,0 -0.581,0.18 -0.581,0.4 0,0.22 -0.36,0.4 -0.8,0.4 -0.44,0 -0.8,0.18 -0.8,0.4 0,0.22 -0.439,0.4 -0.976,0.4 -0.537,0 -1.088,0.18 -1.224,0.4 -0.136,0.22 -0.777,0.4 -1.424,0.4 -0.647,0 -1.176,0.18 -1.176,0.4 0,0.243 -1.8,0.4 -4.6,0.4 -2.8,0 -4.6,-0.157 -4.6,-0.4 0,-0.22 -0.54,-0.4 -1.2,-0.4 -0.66,0 -1.2,-0.18 -1.2,-0.4 0,-0.22 -0.54,-0.4 -1.2,-0.4 -0.66,0 -1.2,-0.18 -1.2,-0.4 0,-0.22 -0.236,-0.4 -0.525,-0.4 -0.288,0 -0.911,-0.36 -1.383,-0.8 -0.472,-0.44 -1.058,-0.8 -1.301,-0.8 -0.415,0 -3.197,-2.701 -4.991,-4.846 -0.44,-0.526 -1.25,-1.856 -1.8,-2.955 -0.55,-1.099 -1.135,-2.059 -1.3,-2.132 -0.165,-0.074 -0.3,-0.659 -0.3,-1.3 0,-0.642 -0.18,-1.167 -0.4,-1.167 -0.22,0 -0.4,-1.002 -0.4,-2.226 0,-1.225 -0.197,-2.594 -0.437,-3.043 -0.316,-0.591 -0.316,-0.938 0,-1.254 0.24,-0.24 0.437,-1.391 0.437,-2.557 0,-1.166 0.18,-2.12 0.4,-2.12 0.22,0 0.4,-0.457 0.4,-1.016 0,-2.185 5.327,-10.541 6.74,-10.572 0.296,-0.007 1.043,-0.552 1.66,-1.212 0.617,-0.66 1.409,-1.2 1.76,-1.2 0.352,0 0.64,-0.18 0.64,-0.4 0,-0.22 0.36,-0.4 0.8,-0.4 0.44,0 0.8,-0.18 0.8,-0.4 0,-0.22 0.54,-0.4 1.2,-0.4 0.66,0 1.2,-0.18 1.2,-0.4 0,-0.22 0.63,-0.4 1.4,-0.4 0.77,0 1.4,-0.18 1.4,-0.4 0,-0.235 1.392,-0.4 3.376,-0.4 1.857,0 3.488,0.18 3.624,0.4 M 262.8,261 v 5 h -61.6 -61.6 v -5 -5 h 61.6 61.6 v 5 m 0,25 v 5.2 h -61.576 c -33.867,0 -61.632,-0.135 -61.7,-0.3 -0.068,-0.165 -0.068,-2.505 0,-5.2 l 0.123,-4.9 h 61.577 61.576 v 5.2"
       inkscape:connector-curvature="0"
       style="fill:#000000;fill-rule:evenodd;stroke:none" />
    <path
       id="path2"
       d="M 83.4,29.6 C 83.264,29.82 82.443,30 81.576,30 80.709,30 80,30.18 80,30.4 c 0,0.22 -0.54,0.4 -1.2,0.4 -0.66,0 -1.2,0.18 -1.2,0.4 0,0.22 -0.45,0.4 -1,0.4 -0.55,0 -1,0.18 -1,0.4 0,0.22 -0.32,0.4 -0.712,0.4 -0.391,0 -0.971,0.36 -1.288,0.8 -0.317,0.44 -0.811,0.8 -1.097,0.8 -0.674,0 -4.534,3.886 -5.271,5.306 -0.312,0.602 -0.717,1.094 -0.9,1.094 -0.182,0 -0.332,0.36 -0.332,0.8 0,0.44 -0.18,0.8 -0.4,0.8 -0.22,0 -0.4,0.349 -0.4,0.776 0,0.427 -0.18,0.888 -0.4,1.024 -0.22,0.136 -0.4,0.766 -0.4,1.4 0,0.634 -0.18,1.264 -0.4,1.4 -0.22,0.136 -0.4,1.306 -0.4,2.6 0,1.294 -0.18,2.464 -0.4,2.6 -0.265,0.164 -0.4,29.67 -0.4,87.22 v 86.972 L 43.1,226.096 23.4,226.2 23.299,278.1 23.197,330 H 37.199 51.2 v 20.4 20.4 H 76.6 102 V 350.4 330 h 96.396 96.397 l 0.103,20.3 0.104,20.3 h 25.6 25.6 l 0.104,-20.3 0.103,-20.3 H 361.204 376 v -52 -52 h -18.2 -18.2 v -86.376 c 0,-57.153 -0.135,-86.46 -0.4,-86.624 -0.22,-0.136 -0.4,-1.576 -0.4,-3.2 0,-1.624 -0.18,-3.064 -0.4,-3.2 -0.22,-0.136 -0.4,-0.779 -0.4,-1.429 0,-0.65 -0.164,-1.494 -0.365,-1.876 -0.201,-0.382 -0.846,-1.733 -1.433,-3.002 C 335.11,37.933 331.68,34 330.714,34 c -0.295,0 -0.797,-0.36 -1.114,-0.8 -0.317,-0.44 -0.897,-0.8 -1.288,-0.8 -0.392,0 -0.712,-0.18 -0.712,-0.4 0,-0.22 -0.54,-0.4 -1.2,-0.4 -0.66,0 -1.2,-0.18 -1.2,-0.4 0,-0.22 -0.439,-0.4 -0.976,-0.4 -0.537,0 -1.088,-0.18 -1.224,-0.4 -0.136,-0.22 -1.126,-0.4 -2.2,-0.4 -1.074,0 -2.064,-0.18 -2.2,-0.4 -0.343,-0.555 -234.857,-0.555 -235.2,0 m 179.4,38 v 11.6 h -62 -62 V 67.6 56 h 62 62 v 11.6 m -232,37.2 c 0,0.22 -0.471,0.4 -1.046,0.4 -1.336,0 -3.469,2.271 -4.095,4.36 -0.895,2.988 -0.623,51.402 0.303,53.936 1.008,2.758 2.527,4.104 4.633,4.104 0.553,0 1.005,0.18 1.005,0.4 0,0.252 2.659,0.4 7.176,0.4 4.353,0 7.274,-0.157 7.424,-0.4 0.136,-0.22 0.693,-0.4 1.237,-0.4 1.008,0 3.269,-1.93 4.117,-3.515 0.874,-1.631 0.604,-55.251 -0.282,-56.038 -0.4,-0.356 -0.844,-0.962 -0.987,-1.347 -0.143,-0.385 -0.536,-0.7 -0.872,-0.7 -0.337,0 -0.613,-0.18 -0.613,-0.4 0,-0.22 -0.349,-0.4 -0.776,-0.4 -0.427,0 -0.888,-0.18 -1.024,-0.4 -0.151,-0.245 -3.337,-0.4 -8.224,-0.4 -5.051,0 -7.976,0.147 -7.976,0.4 m 325.2,0 c 0,0.22 -0.456,0.4 -1.013,0.4 -1.021,0 -3.085,1.778 -4.087,3.52 -0.641,1.114 -0.739,54.88 -0.1,54.88 0.22,0 0.4,0.291 0.4,0.646 0,1.033 2.805,3.354 4.055,3.354 0.604,0 1.209,0.18 1.345,0.4 0.149,0.241 2.93,0.4 7,0.4 4.07,0 6.851,-0.159 7,-0.4 0.136,-0.22 0.688,-0.4 1.227,-0.4 1.006,0 3.373,-1.925 3.373,-2.743 0,-0.251 0.18,-0.457 0.4,-0.457 0.22,0 0.4,-0.54 0.4,-1.2 0,-0.66 0.18,-1.2 0.4,-1.2 0.262,0 0.4,-8.792 0.4,-25.576 0,-16.62 -0.14,-25.663 -0.4,-25.824 -0.22,-0.136 -0.4,-0.687 -0.4,-1.224 0,-0.537 -0.136,-0.976 -0.302,-0.976 -0.167,0 -0.542,-0.54 -0.834,-1.2 -0.292,-0.66 -0.786,-1.2 -1.098,-1.2 -0.311,0 -0.566,-0.18 -0.566,-0.4 0,-0.22 -0.54,-0.4 -1.2,-0.4 -0.66,0 -1.2,-0.18 -1.2,-0.4 0,-0.252 -2.733,-0.4 -7.4,-0.4 -4.667,0 -7.4,0.148 -7.4,0.4 m -168.8,37.8 v 36.6 H 138 88.8 V 142.6 106 h 49.2 49.2 v 36.6 m 124.8,0 v 36.6 H 262.8 213.6 V 142.6 106 h 49.2 49.2 v 36.6 M 262.8,236 v 5.2 h -61.6 -61.6 v -5.2 -5.2 h 61.6 61.6 v 5.2 m -183.4,9.2 c 0.136,0.22 0.867,0.4 1.624,0.4 0.757,0 1.376,0.18 1.376,0.4 0,0.22 0.54,0.4 1.2,0.4 0.66,0 1.2,0.18 1.2,0.4 0,0.22 0.36,0.4 0.8,0.4 0.44,0 0.8,0.18 0.8,0.4 0,0.22 0.288,0.4 0.64,0.4 0.351,0 1.116,0.495 1.7,1.1 0.583,0.605 1.51,1.337 2.06,1.626 0.946,0.497 2.41,2.467 4.2,5.651 0.44,0.783 0.935,1.483 1.1,1.556 0.165,0.074 0.3,0.479 0.3,0.9 0,0.422 0.18,0.767 0.4,0.767 0.22,0 0.4,0.54 0.4,1.2 0,0.66 0.18,1.2 0.4,1.2 0.246,0 0.4,2 0.4,5.2 0,3.2 -0.154,5.2 -0.4,5.2 -0.22,0 -0.4,0.452 -0.4,1.004 0,0.955 -1.461,4.571 -2.018,4.996 -0.144,0.11 -0.484,0.62 -0.754,1.134 -1.042,1.976 -4.95,6.066 -5.797,6.066 -0.347,0 -0.631,0.18 -0.631,0.4 0,0.22 -0.236,0.4 -0.525,0.4 -0.288,0 -0.911,0.36 -1.383,0.8 -0.472,0.44 -1.316,0.8 -1.875,0.8 -0.559,0 -1.017,0.18 -1.017,0.4 0,0.22 -0.54,0.4 -1.2,0.4 -0.66,0 -1.2,0.18 -1.2,0.4 0,0.243 -1.792,0.4 -4.576,0.4 -2.62,0 -4.682,-0.171 -4.824,-0.4 -0.136,-0.22 -0.766,-0.4 -1.4,-0.4 -0.634,0 -1.264,-0.18 -1.4,-0.4 -0.136,-0.22 -0.597,-0.4 -1.024,-0.4 -0.427,0 -0.776,-0.18 -0.776,-0.4 0,-0.22 -0.36,-0.4 -0.8,-0.4 -0.44,0 -0.8,-0.18 -0.8,-0.4 0,-0.22 -0.273,-0.4 -0.606,-0.4 -2.766,0 -10.17,-10.973 -10.188,-15.1 -0.003,-0.715 -0.201,-1.3 -0.44,-1.3 -0.289,0 -0.362,-0.836 -0.218,-2.5 0.374,-4.304 0.72,-6.3 1.092,-6.3 0.198,0 0.36,-0.525 0.36,-1.167 0,-0.641 0.135,-1.226 0.3,-1.3 0.165,-0.073 0.84,-1.206 1.5,-2.518 1.253,-2.491 4.431,-6.01 6.306,-6.983 0.602,-0.312 1.094,-0.717 1.094,-0.9 0,-0.182 0.36,-0.332 0.8,-0.332 0.44,0 0.8,-0.18 0.8,-0.4 0,-0.22 0.36,-0.4 0.8,-0.4 0.44,0 0.8,-0.18 0.8,-0.4 0,-0.22 0.439,-0.4 0.976,-0.4 0.537,0 1.088,-0.18 1.224,-0.4 0.136,-0.22 0.766,-0.4 1.4,-0.4 0.634,0 1.264,-0.18 1.4,-0.4 0.136,-0.22 1.666,-0.4 3.4,-0.4 1.734,0 3.264,0.18 3.4,0.4 m 248.8,0 c 0.136,0.22 0.777,0.4 1.424,0.4 0.647,0 1.176,0.18 1.176,0.4 0,0.22 0.54,0.4 1.2,0.4 0.66,0 1.2,0.18 1.2,0.4 0,0.22 0.36,0.4 0.8,0.4 0.44,0 0.8,0.18 0.8,0.4 0,0.22 0.32,0.4 0.712,0.4 0.391,0 0.971,0.36 1.288,0.8 0.317,0.44 0.812,0.8 1.099,0.8 0.531,0 4.101,3.353 4.101,3.852 0,0.15 0.419,0.829 0.932,1.51 0.512,0.681 1.186,1.823 1.497,2.538 0.312,0.715 0.702,1.3 0.869,1.3 0.166,0 0.302,0.54 0.302,1.2 0,0.66 0.18,1.2 0.4,1.2 0.22,0 0.4,0.979 0.4,2.176 0,1.197 0.18,2.288 0.4,2.424 0.22,0.136 0.4,0.856 0.4,1.6 0,0.744 -0.18,1.464 -0.4,1.6 -0.22,0.136 -0.4,1.137 -0.4,2.224 0,1.087 -0.18,1.976 -0.4,1.976 -0.22,0 -0.4,0.467 -0.4,1.038 0,0.571 -0.328,1.516 -0.729,2.1 -0.401,0.584 -1.039,1.736 -1.418,2.561 -0.789,1.715 -6.398,7.501 -7.272,7.501 -0.32,0 -0.581,0.18 -0.581,0.4 0,0.22 -0.36,0.4 -0.8,0.4 -0.44,0 -0.8,0.18 -0.8,0.4 0,0.22 -0.439,0.4 -0.976,0.4 -0.537,0 -1.088,0.18 -1.224,0.4 -0.136,0.22 -0.777,0.4 -1.424,0.4 -0.647,0 -1.176,0.18 -1.176,0.4 0,0.243 -1.8,0.4 -4.6,0.4 -2.8,0 -4.6,-0.157 -4.6,-0.4 0,-0.22 -0.54,-0.4 -1.2,-0.4 -0.66,0 -1.2,-0.18 -1.2,-0.4 0,-0.22 -0.54,-0.4 -1.2,-0.4 -0.66,0 -1.2,-0.18 -1.2,-0.4 0,-0.22 -0.236,-0.4 -0.525,-0.4 -0.288,0 -0.911,-0.36 -1.383,-0.8 -0.472,-0.44 -1.058,-0.8 -1.301,-0.8 -0.415,0 -3.197,-2.701 -4.991,-4.846 -0.44,-0.526 -1.25,-1.856 -1.8,-2.955 -0.55,-1.099 -1.135,-2.059 -1.3,-2.132 -0.165,-0.074 -0.3,-0.659 -0.3,-1.3 0,-0.642 -0.18,-1.167 -0.4,-1.167 -0.22,0 -0.4,-1.002 -0.4,-2.226 0,-1.225 -0.197,-2.594 -0.437,-3.043 -0.316,-0.591 -0.316,-0.938 0,-1.254 0.24,-0.24 0.437,-1.391 0.437,-2.557 0,-1.166 0.18,-2.12 0.4,-2.12 0.22,0 0.4,-0.457 0.4,-1.016 0,-2.185 5.327,-10.541 6.74,-10.572 0.296,-0.007 1.043,-0.552 1.66,-1.212 0.617,-0.66 1.409,-1.2 1.76,-1.2 0.352,0 0.64,-0.18 0.64,-0.4 0,-0.22 0.36,-0.4 0.8,-0.4 0.44,0 0.8,-0.18 0.8,-0.4 0,-0.22 0.54,-0.4 1.2,-0.4 0.66,0 1.2,-0.18 1.2,-0.4 0,-0.22 0.63,-0.4 1.4,-0.4 0.77,0 1.4,-0.18 1.4,-0.4 0,-0.235 1.392,-0.4 3.376,-0.4 1.857,0 3.488,0.18 3.624,0.4 M 262.8,261 v 5 h -61.6 -61.6 v -5 -5 h 61.6 61.6 v 5 m 0,25 v 5.2 h -61.576 c -33.867,0 -61.632,-0.135 -61.7,-0.3 -0.068,-0.165 -0.068,-2.505 0,-5.2 l 0.123,-4.9 h 61.577 61.576 v 5.2"
       inkscape:connector-curvature="0"
       style="fill:#000000;fill-rule:evenodd;stroke:none" />
    <path
       id="path3"
       d="M 83.4,29.6 C 83.264,29.82 82.443,30 81.576,30 80.709,30 80,30.18 80,30.4 c 0,0.22 -0.54,0.4 -1.2,0.4 -0.66,0 -1.2,0.18 -1.2,0.4 0,0.22 -0.45,0.4 -1,0.4 -0.55,0 -1,0.18 -1,0.4 0,0.22 -0.32,0.4 -0.712,0.4 -0.391,0 -0.971,0.36 -1.288,0.8 -0.317,0.44 -0.811,0.8 -1.097,0.8 -0.674,0 -4.534,3.886 -5.271,5.306 -0.312,0.602 -0.717,1.094 -0.9,1.094 -0.182,0 -0.332,0.36 -0.332,0.8 0,0.44 -0.18,0.8 -0.4,0.8 -0.22,0 -0.4,0.349 -0.4,0.776 0,0.427 -0.18,0.888 -0.4,1.024 -0.22,0.136 -0.4,0.766 -0.4,1.4 0,0.634 -0.18,1.264 -0.4,1.4 -0.22,0.136 -0.4,1.306 -0.4,2.6 0,1.294 -0.18,2.464 -0.4,2.6 -0.265,0.164 -0.4,29.67 -0.4,87.22 v 86.972 L 43.1,226.096 23.4,226.2 23.299,278.1 23.197,330 H 37.199 51.2 v 20.4 20.4 H 76.6 102 V 350.4 330 h 96.396 96.397 l 0.103,20.3 0.104,20.3 h 25.6 25.6 l 0.104,-20.3 0.103,-20.3 H 361.204 376 v -52 -52 h -18.2 -18.2 v -86.376 c 0,-57.153 -0.135,-86.46 -0.4,-86.624 -0.22,-0.136 -0.4,-1.576 -0.4,-3.2 0,-1.624 -0.18,-3.064 -0.4,-3.2 -0.22,-0.136 -0.4,-0.779 -0.4,-1.429 0,-0.65 -0.164,-1.494 -0.365,-1.876 -0.201,-0.382 -0.846,-1.733 -1.433,-3.002 C 335.11,37.933 331.68,34 330.714,34 c -0.295,0 -0.797,-0.36 -1.114,-0.8 -0.317,-0.44 -0.897,-0.8 -1.288,-0.8 -0.392,0 -0.712,-0.18 -0.712,-0.4 0,-0.22 -0.54,-0.4 -1.2,-0.4 -0.66,0 -1.2,-0.18 -1.2,-0.4 0,-0.22 -0.439,-0.4 -0.976,-0.4 -0.537,0 -1.088,-0.18 -1.224,-0.4 -0.136,-0.22 -1.126,-0.4 -2.2,-0.4 -1.074,0 -2.064,-0.18 -2.2,-0.4 -0.343,-0.555 -234.857,-0.555 -235.2,0 m 179.4,38 v 11.6 h -62 -62 V 67.6 56 h 62 62 v 11.6 m -232,37.2 c 0,0.22 -0.471,0.4 -1.046,0.4 -1.336,0 -3.469,2.271 -4.095,4.36 -0.895,2.988 -0.623,51.402 0.303,53.936 1.008,2.758 2.527,4.104 4.633,4.104 0.553,0 1.005,0.18 1.005,0.4 0,0.252 2.659,0.4 7.176,0.4 4.353,0 7.274,-0.157 7.424,-0.4 0.136,-0.22 0.693,-0.4 1.237,-0.4 1.008,0 3.269,-1.93 4.117,-3.515 0.874,-1.631 0.604,-55.251 -0.282,-56.038 -0.4,-0.356 -0.844,-0.962 -0.987,-1.347 -0.143,-0.385 -0.536,-0.7 -0.872,-0.7 -0.337,0 -0.613,-0.18 -0.613,-0.4 0,-0.22 -0.349,-0.4 -0.776,-0.4 -0.427,0 -0.888,-0.18 -1.024,-0.4 -0.151,-0.245 -3.337,-0.4 -8.224,-0.4 -5.051,0 -7.976,0.147 -7.976,0.4 m 325.2,0 c 0,0.22 -0.456,0.4 -1.013,0.4 -1.021,0 -3.085,1.778 -4.087,3.52 -0.641,1.114 -0.739,54.88 -0.1,54.88 0.22,0 0.4,0.291 0.4,0.646 0,1.033 2.805,3.354 4.055,3.354 0.604,0 1.209,0.18 1.345,0.4 0.149,0.241 2.93,0.4 7,0.4 4.07,0 6.851,-0.159 7,-0.4 0.136,-0.22 0.688,-0.4 1.227,-0.4 1.006,0 3.373,-1.925 3.373,-2.743 0,-0.251 0.18,-0.457 0.4,-0.457 0.22,0 0.4,-0.54 0.4,-1.2 0,-0.66 0.18,-1.2 0.4,-1.2 0.262,0 0.4,-8.792 0.4,-25.576 0,-16.62 -0.14,-25.663 -0.4,-25.824 -0.22,-0.136 -0.4,-0.687 -0.4,-1.224 0,-0.537 -0.136,-0.976 -0.302,-0.976 -0.167,0 -0.542,-0.54 -0.834,-1.2 -0.292,-0.66 -0.786,-1.2 -1.098,-1.2 -0.311,0 -0.566,-0.18 -0.566,-0.4 0,-0.22 -0.54,-0.4 -1.2,-0.4 -0.66,0 -1.2,-0.18 -1.2,-0.4 0,-0.252 -2.733,-0.4 -7.4,-0.4 -4.667,0 -7.4,0.148 -7.4,0.4 m -168.8,37.8 v 36.6 H 138 88.8 V 142.6 106 h 49.2 49.2 v 36.6 m 124.8,0 v 36.6 H 262.8 213.6 V 142.6 106 h 49.2 49.2 v 36.6 M 262.8,236 v 5.2 h -61.6 -61.6 v -5.2 -5.2 h 61.6 61.6 v 5.2 m -183.4,9.2 c 0.136,0.22 0.867,0.4 1.624,0.4 0.757,0 1.376,0.18 1.376,0.4 0,0.22 0.54,0.4 1.2,0.4 0.66,0 1.2,0.18 1.2,0.4 0,0.22 0.36,0.4 0.8,0.4 0.44,0 0.8,0.18 0.8,0.4 0,0.22 0.288,0.4 0.64,0.4 0.351,0 1.116,0.495 1.7,1.1 0.583,0.605 1.51,1.337 2.06,1.626 0.946,0.497 2.41,2.467 4.2,5.651 0.44,0.783 0.935,1.483 1.1,1.556 0.165,0.074 0.3,0.479 0.3,0.9 0,0.422 0.18,0.767 0.4,0.767 0.22,0 0.4,0.54 0.4,1.2 0,0.66 0.18,1.2 0.4,1.2 0.246,0 0.4,2 0.4,5.2 0,3.2 -0.154,5.2 -0.4,5.2 -0.22,0 -0.4,0.452 -0.4,1.004 0,0.955 -1.461,4.571 -2.018,4.996 -0.144,0.11 -0.484,0.62 -0.754,1.134 -1.042,1.976 -4.95,6.066 -5.797,6.066 -0.347,0 -0.631,0.18 -0.631,0.4 0,0.22 -0.236,0.4 -0.525,0.4 -0.288,0 -0.911,0.36 -1.383,0.8 -0.472,0.44 -1.316,0.8 -1.875,0.8 -0.559,0 -1.017,0.18 -1.017,0.4 0,0.22 -0.54,0.4 -1.2,0.4 -0.66,0 -1.2,0.18 -1.2,0.4 0,0.243 -1.792,0.4 -4.576,0.4 -2.62,0 -4.682,-0.171 -4.824,-0.4 -0.136,-0.22 -0.766,-0.4 -1.4,-0.4 -0.634,0 -1.264,-0.18 -1.4,-0.4 -0.136,-0.22 -0.597,-0.4 -1.024,-0.4 -0.427,0 -0.776,-0.18 -0.776,-0.4 0,-0.22 -0.36,-0.4 -0.8,-0.4 -0.44,0 -0.8,-0.18 -0.8,-0.4 0,-0.22 -0.273,-0.4 -0.606,-0.4 -2.766,0 -10.17,-10.973 -10.188,-15.1 -0.003,-0.715 -0.201,-1.3 -0.44,-1.3 -0.289,0 -0.362,-0.836 -0.218,-2.5 0.374,-4.304 0.72,-6.3 1.092,-6.3 0.198,0 0.36,-0.525 0.36,-1.167 0,-0.641 0.135,-1.226 0.3,-1.3 0.165,-0.073 0.84,-1.206 1.5,-2.518 1.253,-2.491 4.431,-6.01 6.306,-6.983 0.602,-0.312 1.094,-0.717 1.094,-0.9 0,-0.182 0.36,-0.332 0.8,-0.332 0.44,0 0.8,-0.18 0.8,-0.4 0,-0.22 0.36,-0.4 0.8,-0.4 0.44,0 0.8,-0.18 0.8,-0.4 0,-0.22 0.439,-0.4 0.976,-0.4 0.537,0 1.088,-0.18 1.224,-0.4 0.136,-0.22 0.766,-0.4 1.4,-0.4 0.634,0 1.264,-0.18 1.4,-0.4 0.136,-0.22 1.666,-0.4 3.4,-0.4 1.734,0 3.264,0.18 3.4,0.4 m 248.8,0 c 0.136,0.22 0.777,0.4 1.424,0.4 0.647,0 1.176,0.18 1.176,0.4 0,0.22 0.54,0.4 1.2,0.4 0.66,0 1.2,0.18 1.2,0.4 0,0.22 0.36,0.4 0.8,0.4 0.44,0 0.8,0.18 0.8,0.4 0,0.22 0.32,0.4 0.712,0.4 0.391,0 0.971,0.36 1.288,0.8 0.317,0.44 0.812,0.8 1.099,0.8 0.531,0 4.101,3.353 4.101,3.852 0,0.15 0.419,0.829 0.932,1.51 0.512,0.681 1.186,1.823 1.497,2.538 0.312,0.715 0.702,1.3 0.869,1.3 0.166,0 0.302,0.54 0.302,1.2 0,0.66 0.18,1.2 0.4,1.2 0.22,0 0.4,0.979 0.4,2.176 0,1.197 0.18,2.288 0.4,2.424 0.22,0.136 0.4,0.856 0.4,1.6 0,0.744 -0.18,1.464 -0.4,1.6 -0.22,0.136 -0.4,1.137 -0.4,2.224 0,1.087 -0.18,1.976 -0.4,1.976 -0.22,0 -0.4,0.467 -0.4,1.038 0,0.571 -0.328,1.516 -0.729,2.1 -0.401,0.584 -1.039,1.736 -1.418,2.561 -0.789,1.715 -6.398,7.501 -7.272,7.501 -0.32,0 -0.581,0.18 -0.581,0.4 0,0.22 -0.36,0.4 -0.8,0.4 -0.44,0 -0.8,0.18 -0.8,0.4 0,0.22 -0.439,0.4 -0.976,0.4 -0.537,0 -1.088,0.18 -1.224,0.4 -0.136,0.22 -0.777,0.4 -1.424,0.4 -0.647,0 -1.176,0.18 -1.176,0.4 0,0.243 -1.8,0.4 -4.6,0.4 -2.8,0 -4.6,-0.157 -4.6,-0.4 0,-0.22 -0.54,-0.4 -1.2,-0.4 -0.66,0 -1.2,-0.18 -1.2,-0.4 0,-0.22 -0.54,-0.4 -1.2,-0.4 -0.66,0 -1.2,-0.18 -1.2,-0.4 0,-0.22 -0.236,-0.4 -0.525,-0.4 -0.288,0 -0.911,-0.36 -1.383,-0.8 -0.472,-0.44 -1.058,-0.8 -1.301,-0.8 -0.415,0 -3.197,-2.701 -4.991,-4.846 -0.44,-0.526 -1.25,-1.856 -1.8,-2.955 -0.55,-1.099 -1.135,-2.059 -1.3,-2.132 -0.165,-0.074 -0.3,-0.659 -0.3,-1.3 0,-0.642 -0.18,-1.167 -0.4,-1.167 -0.22,0 -0.4,-1.002 -0.4,-2.226 0,-1.225 -0.197,-2.594 -0.437,-3.043 -0.316,-0.591 -0.316,-0.938 0,-1.254 0.24,-0.24 0.437,-1.391 0.437,-2.557 0,-1.166 0.18,-2.12 0.4,-2.12 0.22,0 0.4,-0.457 0.4,-1.016 0,-2.185 5.327,-10.541 6.74,-10.572 0.296,-0.007 1.043,-0.552 1.66,-1.212 0.617,-0.66 1.409,-1.2 1.76,-1.2 0.352,0 0.64,-0.18 0.64,-0.4 0,-0.22 0.36,-0.4 0.8,-0.4 0.44,0 0.8,-0.18 0.8,-0.4 0,-0.22 0.54,-0.4 1.2,-0.4 0.66,0 1.2,-0.18 1.2,-0.4 0,-0.22 0.63,-0.4 1.4,-0.4 0.77,0 1.4,-0.18 1.4,-0.4 0,-0.235 1.392,-0.4 3.376,-0.4 1.857,0 3.488,0.18 3.624,0.4 M 262.8,261 v 5 h -61.6 -61.6 v -5 -5 h 61.6 61.6 v 5 m 0,25 v 5.2 h -61.576 c -33.867,0 -61.632,-0.135 -61.7,-0.3 -0.068,-0.165 -0.068,-2.505 0,-5.2 l 0.123,-4.9 h 61.577 61.576 v 5.2"
       inkscape:connector-curvature="0"
       style="fill:#000000;fill-rule:evenodd;stroke:none" />
    <path
       id="path4"
       d="M 83.4,29.6 C 83.264,29.82 82.443,30 81.576,30 80.709,30 80,30.18 80,30.4 c 0,0.22 -0.54,0.4 -1.2,0.4 -0.66,0 -1.2,0.18 -1.2,0.4 0,0.22 -0.45,0.4 -1,0.4 -0.55,0 -1,0.18 -1,0.4 0,0.22 -0.32,0.4 -0.712,0.4 -0.391,0 -0.971,0.36 -1.288,0.8 -0.317,0.44 -0.811,0.8 -1.097,0.8 -0.674,0 -4.534,3.886 -5.271,5.306 -0.312,0.602 -0.717,1.094 -0.9,1.094 -0.182,0 -0.332,0.36 -0.332,0.8 0,0.44 -0.18,0.8 -0.4,0.8 -0.22,0 -0.4,0.349 -0.4,0.776 0,0.427 -0.18,0.888 -0.4,1.024 -0.22,0.136 -0.4,0.766 -0.4,1.4 0,0.634 -0.18,1.264 -0.4,1.4 -0.22,0.136 -0.4,1.306 -0.4,2.6 0,1.294 -0.18,2.464 -0.4,2.6 -0.265,0.164 -0.4,29.67 -0.4,87.22 v 86.972 L 43.1,226.096 23.4,226.2 23.299,278.1 23.197,330 H 37.199 51.2 v 20.4 20.4 H 76.6 102 V 350.4 330 h 96.396 96.397 l 0.103,20.3 0.104,20.3 h 25.6 25.6 l 0.104,-20.3 0.103,-20.3 H 361.204 376 v -52 -52 h -18.2 -18.2 v -86.376 c 0,-57.153 -0.135,-86.46 -0.4,-86.624 -0.22,-0.136 -0.4,-1.576 -0.4,-3.2 0,-1.624 -0.18,-3.064 -0.4,-3.2 -0.22,-0.136 -0.4,-0.779 -0.4,-1.429 0,-0.65 -0.164,-1.494 -0.365,-1.876 -0.201,-0.382 -0.846,-1.733 -1.433,-3.002 C 335.11,37.933 331.68,34 330.714,34 c -0.295,0 -0.797,-0.36 -1.114,-0.8 -0.317,-0.44 -0.897,-0.8 -1.288,-0.8 -0.392,0 -0.712,-0.18 -0.712,-0.4 0,-0.22 -0.54,-0.4 -1.2,-0.4 -0.66,0 -1.2,-0.18 -1.2,-0.4 0,-0.22 -0.439,-0.4 -0.976,-0.4 -0.537,0 -1.088,-0.18 -1.224,-0.4 -0.136,-0.22 -1.126,-0.4 -2.2,-0.4 -1.074,0 -2.064,-0.18 -2.2,-0.4 -0.343,-0.555 -234.857,-0.555 -235.2,0 m 179.4,38 v 11.6 h -62 -62 V 67.6 56 h 62 62 v 11.6 m -232,37.2 c 0,0.22 -0.471,0.4 -1.046,0.4 -1.336,0 -3.469,2.271 -4.095,4.36 -0.895,2.988 -0.623,51.402 0.303,53.936 1.008,2.758 2.527,4.104 4.633,4.104 0.553,0 1.005,0.18 1.005,0.4 0,0.252 2.659,0.4 7.176,0.4 4.353,0 7.274,-0.157 7.424,-0.4 0.136,-0.22 0.693,-0.4 1.237,-0.4 1.008,0 3.269,-1.93 4.117,-3.515 0.874,-1.631 0.604,-55.251 -0.282,-56.038 -0.4,-0.356 -0.844,-0.962 -0.987,-1.347 -0.143,-0.385 -0.536,-0.7 -0.872,-0.7 -0.337,0 -0.613,-0.18 -0.613,-0.4 0,-0.22 -0.349,-0.4 -0.776,-0.4 -0.427,0 -0.888,-0.18 -1.024,-0.4 -0.151,-0.245 -3.337,-0.4 -8.224,-0.4 -5.051,0 -7.976,0.147 -7.976,0.4 m 325.2,0 c 0,0.22 -0.456,0.4 -1.013,0.4 -1.021,0 -3.085,1.778 -4.087,3.52 -0.641,1.114 -0.739,54.88 -0.1,54.88 0.22,0 0.4,0.291 0.4,0.646 0,1.033 2.805,3.354 4.055,3.354 0.604,0 1.209,0.18 1.345,0.4 0.149,0.241 2.93,0.4 7,0.4 4.07,0 6.851,-0.159 7,-0.4 0.136,-0.22 0.688,-0.4 1.227,-0.4 1.006,0 3.373,-1.925 3.373,-2.743 0,-0.251 0.18,-0.457 0.4,-0.457 0.22,0 0.4,-0.54 0.4,-1.2 0,-0.66 0.18,-1.2 0.4,-1.2 0.262,0 0.4,-8.792 0.4,-25.576 0,-16.62 -0.14,-25.663 -0.4,-25.824 -0.22,-0.136 -0.4,-0.687 -0.4,-1.224 0,-0.537 -0.136,-0.976 -0.302,-0.976 -0.167,0 -0.542,-0.54 -0.834,-1.2 -0.292,-0.66 -0.786,-1.2 -1.098,-1.2 -0.311,0 -0.566,-0.18 -0.566,-0.4 0,-0.22 -0.54,-0.4 -1.2,-0.4 -0.66,0 -1.2,-0.18 -1.2,-0.4 0,-0.252 -2.733,-0.4 -7.4,-0.4 -4.667,0 -7.4,0.148 -7.4,0.4 m -168.8,37.8 v 36.6 H 138 88.8 V 142.6 106 h 49.2 49.2 v 36.6 m 124.8,0 v 36.6 H 262.8 213.6 V 142.6 106 h 49.2 49.2 v 36.6 M 262.8,236 v 5.2 h -61.6 -61.6 v -5.2 -5.2 h 61.6 61.6 v 5.2 m -183.4,9.2 c 0.136,0.22 0.867,0.4 1.624,0.4 0.757,0 1.376,0.18 1.376,0.4 0,0.22 0.54,0.4 1.2,0.4 0.66,0 1.2,0.18 1.2,0.4 0,0.22 0.36,0.4 0.8,0.4 0.44,0 0.8,0.18 0.8,0.4 0,0.22 0.288,0.4 0.64,0.4 0.351,0 1.116,0.495 1.7,1.1 0.583,0.605 1.51,1.337 2.06,1.626 0.946,0.497 2.41,2.467 4.2,5.651 0.44,0.783 0.935,1.483 1.1,1.556 0.165,0.074 0.3,0.479 0.3,0.9 0,0.422 0.18,0.767 0.4,0.767 0.22,0 0.4,0.54 0.4,1.2 0,0.66 0.18,1.2 0.4,1.2 0.246,0 0.4,2 0.4,5.2 0,3.2 -0.154,5.2 -0.4,5.2 -0.22,0 -0.4,0.452 -0.4,1.004 0,0.955 -1.461,4.571 -2.018,4.996 -0.144,0.11 -0.484,0.62 -0.754,1.134 -1.042,1.976 -4.95,6.066 -5.797,6.066 -0.347,0 -0.631,0.18 -0.631,0.4 0,0.22 -0.236,0.4 -0.525,0.4 -0.288,0 -0.911,0.36 -1.383,0.8 -0.472,0.44 -1.316,0.8 -1.875,0.8 -0.559,0 -1.017,0.18 -1.017,0.4 0,0.22 -0.54,0.4 -1.2,0.4 -0.66,0 -1.2,0.18 -1.2,0.4 0,0.243 -1.792,0.4 -4.576,0.4 -2.62,0 -4.682,-0.171 -4.824,-0.4 -0.136,-0.22 -0.766,-0.4 -1.4,-0.4 -0.634,0 -1.264,-0.18 -1.4,-0.4 -0.136,-0.22 -0.597,-0.4 -1.024,-0.4 -0.427,0 -0.776,-0.18 -0.776,-0.4 0,-0.22 -0.36,-0.4 -0.8,-0.4 -0.44,0 -0.8,-0.18 -0.8,-0.4 0,-0.22 -0.273,-0.4 -0.606,-0.4 -2.766,0 -10.17,-10.973 -10.188,-15.1 -0.003,-0.715 -0.201,-1.3 -0.44,-1.3 -0.289,0 -0.362,-0.836 -0.218,-2.5 0.374,-4.304 0.72,-6.3 1.092,-6.3 0.198,0 0.36,-0.525 0.36,-1.167 0,-0.641 0.135,-1.226 0.3,-1.3 0.165,-0.073 0.84,-1.206 1.5,-2.518 1.253,-2.491 4.431,-6.01 6.306,-6.983 0.602,-0.312 1.094,-0.717 1.094,-0.9 0,-0.182 0.36,-0.332 0.8,-0.332 0.44,0 0.8,-0.18 0.8,-0.4 0,-0.22 0.36,-0.4 0.8,-0.4 0.44,0 0.8,-0.18 0.8,-0.4 0,-0.22 0.439,-0.4 0.976,-0.4 0.537,0 1.088,-0.18 1.224,-0.4 0.136,-0.22 0.766,-0.4 1.4,-0.4 0.634,0 1.264,-0.18 1.4,-0.4 0.136,-0.22 1.666,-0.4 3.4,-0.4 1.734,0 3.264,0.18 3.4,0.4 m 248.8,0 c 0.136,0.22 0.777,0.4 1.424,0.4 0.647,0 1.176,0.18 1.176,0.4 0,0.22 0.54,0.4 1.2,0.4 0.66,0 1.2,0.18 1.2,0.4 0,0.22 0.36,0.4 0.8,0.4 0.44,0 0.8,0.18 0.8,0.4 0,0.22 0.32,0.4 0.712,0.4 0.391,0 0.971,0.36 1.288,0.8 0.317,0.44 0.812,0.8 1.099,0.8 0.531,0 4.101,3.353 4.101,3.852 0,0.15 0.419,0.829 0.932,1.51 0.512,0.681 1.186,1.823 1.497,2.538 0.312,0.715 0.702,1.3 0.869,1.3 0.166,0 0.302,0.54 0.302,1.2 0,0.66 0.18,1.2 0.4,1.2 0.22,0 0.4,0.979 0.4,2.176 0,1.197 0.18,2.288 0.4,2.424 0.22,0.136 0.4,0.856 0.4,1.6 0,0.744 -0.18,1.464 -0.4,1.6 -0.22,0.136 -0.4,1.137 -0.4,2.224 0,1.087 -0.18,1.976 -0.4,1.976 -0.22,0 -0.4,0.467 -0.4,1.038 0,0.571 -0.328,1.516 -0.729,2.1 -0.401,0.584 -1.039,1.736 -1.418,2.561 -0.789,1.715 -6.398,7.501 -7.272,7.501 -0.32,0 -0.581,0.18 -0.581,0.4 0,0.22 -0.36,0.4 -0.8,0.4 -0.44,0 -0.8,0.18 -0.8,0.4 0,0.22 -0.439,0.4 -0.976,0.4 -0.537,0 -1.088,0.18 -1.224,0.4 -0.136,0.22 -0.777,0.4 -1.424,0.4 -0.647,0 -1.176,0.18 -1.176,0.4 0,0.243 -1.8,0.4 -4.6,0.4 -2.8,0 -4.6,-0.157 -4.6,-0.4 0,-0.22 -0.54,-0.4 -1.2,-0.4 -0.66,0 -1.2,-0.18 -1.2,-0.4 0,-0.22 -0.54,-0.4 -1.2,-0.4 -0.66,0 -1.2,-0.18 -1.2,-0.4 0,-0.22 -0.236,-0.4 -0.525,-0.4 -0.288,0 -0.911,-0.36 -1.383,-0.8 -0.472,-0.44 -1.058,-0.8 -1.301,-0.8 -0.415,0 -3.197,-2.701 -4.991,-4.846 -0.44,-0.526 -1.25,-1.856 -1.8,-2.955 -0.55,-1.099 -1.135,-2.059 -1.3,-2.132 -0.165,-0.074 -0.3,-0.659 -0.3,-1.3 0,-0.642 -0.18,-1.167 -0.4,-1.167 -0.22,0 -0.4,-1.002 -0.4,-2.226 0,-1.225 -0.197,-2.594 -0.437,-3.043 -0.316,-0.591 -0.316,-0.938 0,-1.254 0.24,-0.24 0.437,-1.391 0.437,-2.557 0,-1.166 0.18,-2.12 0.4,-2.12 0.22,0 0.4,-0.457 0.4,-1.016 0,-2.185 5.327,-10.541 6.74,-10.572 0.296,-0.007 1.043,-0.552 1.66,-1.212 0.617,-0.66 1.409,-1.2 1.76,-1.2 0.352,0 0.64,-0.18 0.64,-0.4 0,-0.22 0.36,-0.4 0.8,-0.4 0.44,0 0.8,-0.18 0.8,-0.4 0,-0.22 0.54,-0.4 1.2,-0.4 0.66,0 1.2,-0.18 1.2,-0.4 0,-0.22 0.63,-0.4 1.4,-0.4 0.77,0 1.4,-0.18 1.4,-0.4 0,-0.235 1.392,-0.4 3.376,-0.4 1.857,0 3.488,0.18 3.624,0.4 M 262.8,261 v 5 h -61.6 -61.6 v -5 -5 h 61.6 61.6 v 5 m 0,25 v 5.2 h -61.576 c -33.867,0 -61.632,-0.135 -61.7,-0.3 -0.068,-0.165 -0.068,-2.505 0,-5.2 l 0.123,-4.9 h 61.577 61.576 v 5.2"
       inkscape:connector-curvature="0"
       style="fill:#000000;fill-rule:evenodd;stroke:none" />
  </g>
</svg>
