<svg id="svg" version="1.1" width="400" height="400" xmlns="http://www.w3.org/2000/svg" xmlns:xlink="http://www.w3.org/1999/xlink" style="display: block;"><g id="svgg"><path id="path0" d="M115.300 63.344 C 114.805 63.589,114.400 63.927,114.400 64.095 C 114.400 64.263,113.860 64.400,113.200 64.400 C 112.540 64.400,112.000 64.580,112.000 64.800 C 112.000 65.020,111.680 65.200,111.288 65.200 C 110.897 65.200,110.317 65.560,110.000 66.000 C 109.683 66.440,109.281 66.800,109.107 66.800 C 108.655 66.800,101.200 74.313,101.200 74.768 C 101.200 74.976,100.840 75.260,100.400 75.400 C 99.960 75.540,99.600 76.002,99.600 76.427 C 99.600 76.852,99.420 77.200,99.200 77.200 C 98.980 77.200,98.800 77.560,98.800 78.000 C 98.800 78.440,98.601 78.800,98.357 78.800 C 98.114 78.800,98.013 79.057,98.133 79.371 C 98.254 79.685,98.111 80.142,97.816 80.387 C 97.521 80.631,97.280 81.493,97.280 82.302 C 97.280 83.111,97.082 83.839,96.840 83.920 C 96.598 84.001,96.400 84.412,96.400 84.833 C 96.400 85.255,96.220 85.600,96.000 85.600 C 95.780 85.600,95.600 86.058,95.600 86.617 C 95.600 87.176,95.240 88.020,94.800 88.492 C 94.360 88.964,94.000 89.587,94.000 89.875 C 94.000 90.164,93.820 90.400,93.600 90.400 C 93.380 90.400,93.200 90.839,93.200 91.376 C 93.200 91.913,93.043 92.450,92.852 92.568 C 92.661 92.686,92.168 93.957,91.757 95.391 C 91.346 96.826,90.873 98.000,90.705 98.000 C 90.537 98.000,90.400 98.540,90.400 99.200 C 90.400 99.860,90.220 100.400,90.000 100.400 C 89.780 100.400,89.600 100.678,89.600 101.017 C 89.600 101.356,89.240 102.020,88.800 102.492 C 88.360 102.964,88.000 103.767,88.000 104.275 C 88.000 104.784,87.820 105.200,87.600 105.200 C 87.380 105.200,87.200 105.560,87.200 106.000 C 87.200 106.440,87.020 106.800,86.800 106.800 C 86.580 106.800,86.400 107.160,86.400 107.600 C 86.400 108.040,86.220 108.400,86.000 108.400 C 85.780 108.400,85.600 108.755,85.600 109.188 C 85.600 109.621,85.240 110.617,84.800 111.400 C 84.360 112.183,84.000 113.179,84.000 113.612 C 84.000 114.045,83.820 114.400,83.600 114.400 C 83.380 114.400,83.200 114.749,83.200 115.176 C 83.200 115.603,83.020 116.064,82.800 116.200 C 82.580 116.336,82.400 117.067,82.400 117.824 C 82.400 118.581,82.220 119.200,82.000 119.200 C 81.780 119.200,81.600 119.560,81.600 120.000 C 81.600 120.440,81.420 120.800,81.200 120.800 C 80.980 120.800,80.800 121.340,80.800 122.000 C 80.800 122.660,80.620 123.200,80.400 123.200 C 80.180 123.200,80.000 123.560,80.000 124.000 C 80.000 124.440,79.854 124.800,79.675 124.800 C 79.496 124.800,79.102 125.430,78.800 126.200 C 78.498 126.970,78.104 127.600,77.925 127.600 C 77.746 127.600,77.600 128.140,77.600 128.800 C 77.600 129.460,77.420 130.000,77.200 130.000 C 76.980 130.000,76.800 130.360,76.800 130.800 C 76.800 131.240,76.664 131.600,76.498 131.600 C 76.131 131.600,75.210 134.113,74.922 135.900 C 74.807 136.615,74.552 137.200,74.356 137.200 C 74.160 137.200,74.000 137.560,74.000 138.000 C 74.000 138.440,73.820 138.800,73.600 138.800 C 73.380 138.800,73.200 139.160,73.200 139.600 C 73.200 140.040,73.020 140.400,72.800 140.400 C 72.580 140.400,72.400 140.724,72.400 141.120 C 72.400 142.014,71.506 143.993,71.100 143.997 C 70.935 143.999,70.800 144.360,70.800 144.800 C 70.800 145.240,70.620 145.600,70.400 145.600 C 70.180 145.600,69.994 146.005,69.987 146.500 C 69.971 147.647,69.103 148.800,68.256 148.800 C 67.895 148.800,67.600 148.980,67.600 149.200 C 67.600 149.420,67.060 149.600,66.400 149.600 C 65.740 149.600,65.200 149.780,65.200 150.000 C 65.200 150.220,64.840 150.400,64.400 150.400 C 63.960 150.400,63.600 150.580,63.600 150.800 C 63.600 151.020,63.240 151.200,62.800 151.200 C 62.360 151.200,62.000 151.380,62.000 151.600 C 62.000 151.820,61.683 152.000,61.296 152.000 C 60.909 152.000,60.368 152.360,60.093 152.800 C 59.818 153.240,59.405 153.600,59.174 153.600 C 58.944 153.600,57.724 154.651,56.464 155.935 C 55.203 157.219,53.683 158.393,53.086 158.543 C 52.488 158.693,52.000 159.094,52.000 159.436 C 52.000 160.101,51.424 160.741,50.210 161.427 C 49.794 161.661,49.261 162.196,49.027 162.615 C 48.792 163.033,48.105 163.858,47.500 164.448 C 46.895 165.038,46.400 165.809,46.400 166.160 C 46.400 166.512,46.220 166.800,46.000 166.800 C 45.780 166.800,45.600 167.160,45.600 167.600 C 45.600 168.040,45.420 168.400,45.200 168.400 C 44.980 168.400,44.800 168.760,44.800 169.200 C 44.800 169.640,44.620 170.000,44.400 170.000 C 44.180 170.000,44.000 170.360,44.000 170.800 C 44.000 171.240,43.820 171.600,43.600 171.600 C 43.380 171.600,43.200 172.125,43.200 172.767 C 43.200 173.408,43.023 173.993,42.806 174.067 C 41.760 174.421,40.827 266.720,41.843 269.367 C 42.057 269.925,43.544 270.000,54.443 270.000 L 66.800 270.000 66.800 285.200 C 66.800 295.067,66.940 300.400,67.200 300.400 C 67.420 300.400,67.600 301.120,67.600 302.000 C 67.600 302.880,67.780 303.600,68.000 303.600 C 68.220 303.600,68.400 303.943,68.400 304.362 C 68.400 305.750,70.167 308.545,72.600 311.007 C 73.920 312.343,75.450 314.011,76.000 314.714 C 76.550 315.417,77.315 315.994,77.700 315.996 C 78.085 315.998,78.400 316.180,78.400 316.400 C 78.400 316.620,78.760 316.800,79.200 316.800 C 79.640 316.800,80.000 316.980,80.000 317.200 C 80.000 317.420,80.360 317.600,80.800 317.600 C 81.240 317.600,81.600 317.780,81.600 318.000 C 81.600 318.220,81.960 318.400,82.400 318.400 C 82.840 318.400,83.200 318.580,83.200 318.800 C 83.200 319.055,86.467 319.200,92.200 319.200 C 97.933 319.200,101.200 319.055,101.200 318.800 C 101.200 318.580,101.560 318.400,102.000 318.400 C 102.440 318.400,102.800 318.220,102.800 318.000 C 102.800 317.780,103.300 317.600,103.912 317.600 C 104.565 317.600,105.261 317.270,105.600 316.800 C 105.917 316.360,106.344 316.000,106.549 316.000 C 107.014 316.000,111.200 311.708,111.200 311.231 C 111.200 311.039,112.100 309.962,113.200 308.839 C 114.300 307.715,115.200 306.437,115.200 305.998 C 115.200 305.559,115.380 305.200,115.600 305.200 C 115.820 305.200,116.000 304.840,116.000 304.400 C 116.000 303.960,116.180 303.600,116.400 303.600 C 116.620 303.600,116.800 302.880,116.800 302.000 C 116.800 301.120,116.980 300.400,117.200 300.400 C 117.460 300.400,117.600 295.067,117.600 285.200 L 117.600 270.000 200.000 270.000 L 282.400 270.000 282.400 272.800 C 282.400 274.400,282.229 275.600,282.000 275.600 C 281.744 275.600,281.600 279.200,281.600 285.600 C 281.600 292.000,281.744 295.600,282.000 295.600 C 282.229 295.600,282.400 296.800,282.400 298.400 C 282.400 300.000,282.571 301.200,282.800 301.200 C 283.020 301.200,283.200 301.740,283.200 302.400 C 283.200 303.060,283.380 303.600,283.600 303.600 C 283.820 303.600,284.000 304.140,284.000 304.800 C 284.000 305.460,284.180 306.000,284.400 306.000 C 284.620 306.000,284.800 306.194,284.800 306.431 C 284.800 306.669,285.520 307.554,286.400 308.400 C 287.294 309.259,288.000 310.317,288.000 310.797 C 288.000 311.692,288.852 312.800,289.541 312.800 C 289.759 312.800,290.644 313.520,291.507 314.400 C 292.369 315.280,293.244 316.000,293.449 316.000 C 293.655 316.000,294.083 316.360,294.400 316.800 C 294.717 317.240,295.297 317.600,295.688 317.600 C 296.080 317.600,296.400 317.780,296.400 318.000 C 296.400 318.220,296.940 318.400,297.600 318.400 C 298.260 318.400,298.800 318.580,298.800 318.800 C 298.800 319.055,302.067 319.200,307.800 319.200 C 313.533 319.200,316.800 319.055,316.800 318.800 C 316.800 318.580,317.160 318.400,317.600 318.400 C 318.040 318.400,318.400 318.220,318.400 318.000 C 318.400 317.780,318.760 317.600,319.200 317.600 C 319.640 317.600,320.000 317.420,320.000 317.200 C 320.000 316.980,320.360 316.800,320.800 316.800 C 321.240 316.800,321.600 316.620,321.600 316.400 C 321.600 316.180,321.915 315.998,322.300 315.996 C 322.685 315.994,323.450 315.417,324.000 314.714 C 324.550 314.011,326.080 312.346,327.400 311.015 C 330.318 308.072,332.400 304.043,332.400 301.340 C 332.400 300.823,332.580 300.400,332.800 300.400 C 333.060 300.400,333.200 295.067,333.200 285.200 L 333.200 270.000 345.557 270.000 C 356.456 270.000,357.943 269.925,358.157 269.367 C 359.173 266.720,358.240 174.421,357.194 174.067 C 356.977 173.993,356.800 173.408,356.800 172.767 C 356.800 172.125,356.620 171.600,356.400 171.600 C 356.180 171.600,356.000 171.240,356.000 170.800 C 356.000 170.360,355.820 170.000,355.600 170.000 C 355.380 170.000,355.200 169.640,355.200 169.200 C 355.200 168.760,355.020 168.400,354.800 168.400 C 354.580 168.400,354.400 168.080,354.400 167.688 C 354.400 167.297,354.040 166.717,353.600 166.400 C 353.160 166.083,352.800 165.569,352.800 165.259 C 352.800 164.948,352.485 164.400,352.100 164.041 C 351.715 163.682,351.208 163.043,350.973 162.621 C 350.739 162.199,350.211 161.661,349.801 161.427 C 348.923 160.924,347.346 159.524,343.802 156.100 C 342.379 154.725,341.033 153.600,340.811 153.600 C 340.589 153.600,340.182 153.240,339.907 152.800 C 339.632 152.360,339.091 152.000,338.704 152.000 C 338.317 152.000,338.000 151.820,338.000 151.600 C 338.000 151.380,337.640 151.200,337.200 151.200 C 336.760 151.200,336.400 151.020,336.400 150.800 C 336.400 150.580,335.860 150.400,335.200 150.400 C 334.540 150.400,334.000 150.220,334.000 150.000 C 334.000 149.780,333.640 149.600,333.200 149.600 C 332.760 149.600,332.400 149.420,332.400 149.200 C 332.400 148.980,332.055 148.800,331.634 148.800 C 331.167 148.800,330.659 148.331,330.336 147.600 C 330.044 146.940,329.669 146.400,329.502 146.400 C 329.336 146.400,329.200 145.860,329.200 145.200 C 329.200 144.540,329.054 144.000,328.875 144.000 C 328.696 144.000,328.302 143.370,328.000 142.600 C 327.698 141.830,327.304 141.200,327.125 141.200 C 326.946 141.200,326.800 140.840,326.800 140.400 C 326.800 139.960,326.620 139.600,326.400 139.600 C 326.180 139.600,326.000 139.060,326.000 138.400 C 326.000 137.740,325.840 137.200,325.645 137.200 C 325.449 137.200,325.166 136.525,325.015 135.700 C 324.865 134.875,324.395 133.605,323.971 132.877 C 323.547 132.150,323.200 131.205,323.200 130.777 C 323.200 130.350,323.020 130.000,322.800 130.000 C 322.580 130.000,322.400 129.640,322.400 129.200 C 322.400 128.760,322.220 128.400,322.000 128.400 C 321.780 128.400,321.600 128.076,321.600 127.680 C 321.600 126.786,320.706 124.807,320.300 124.803 C 320.135 124.801,320.000 124.440,320.000 124.000 C 320.000 123.560,319.820 123.200,319.600 123.200 C 319.380 123.200,319.200 122.840,319.200 122.400 C 319.200 121.960,319.020 121.600,318.800 121.600 C 318.580 121.600,318.400 121.060,318.400 120.400 C 318.400 119.740,318.220 119.200,318.000 119.200 C 317.780 119.200,317.600 118.581,317.600 117.824 C 317.600 117.067,317.420 116.336,317.200 116.200 C 316.980 116.064,316.800 115.603,316.800 115.176 C 316.800 114.749,316.620 114.400,316.400 114.400 C 316.180 114.400,316.000 114.057,316.000 113.638 C 316.000 112.822,314.399 109.488,313.900 109.267 C 313.735 109.193,313.600 108.608,313.600 107.967 C 313.600 107.325,313.420 106.800,313.200 106.800 C 312.980 106.800,312.800 106.440,312.800 106.000 C 312.800 105.560,312.620 105.200,312.400 105.200 C 312.180 105.200,312.000 104.840,312.000 104.400 C 312.000 103.960,311.820 103.600,311.600 103.600 C 311.380 103.600,311.200 103.240,311.200 102.800 C 311.200 102.360,311.020 102.000,310.800 102.000 C 310.580 102.000,310.400 101.640,310.400 101.200 C 310.400 100.760,310.220 100.400,310.000 100.400 C 309.780 100.400,309.600 100.040,309.600 99.600 C 309.600 99.160,309.420 98.800,309.200 98.800 C 308.980 98.800,308.800 98.371,308.800 97.846 C 308.800 97.321,308.531 96.376,308.202 95.746 C 307.874 95.116,307.604 94.321,307.602 93.980 C 307.599 93.162,306.682 91.207,306.300 91.203 C 306.135 91.201,306.000 90.784,306.000 90.275 C 306.000 89.767,305.640 88.964,305.200 88.492 C 304.760 88.020,304.400 87.356,304.400 87.017 C 304.400 86.678,304.220 86.400,304.000 86.400 C 303.780 86.400,303.600 85.875,303.600 85.233 C 303.600 84.592,303.431 84.007,303.225 83.933 C 303.018 83.860,302.785 83.312,302.706 82.715 C 302.628 82.118,302.437 81.503,302.282 81.348 C 302.127 81.193,302.000 80.557,302.000 79.933 C 302.000 79.310,301.820 78.800,301.600 78.800 C 301.380 78.800,301.200 78.440,301.200 78.000 C 301.200 77.560,301.020 77.200,300.800 77.200 C 300.580 77.200,300.400 76.852,300.400 76.427 C 300.400 76.002,300.040 75.540,299.600 75.400 C 299.160 75.260,298.800 74.976,298.800 74.767 C 298.800 74.311,292.146 67.600,291.694 67.600 C 291.519 67.600,291.117 67.240,290.800 66.800 C 290.483 66.360,289.943 66.000,289.600 66.000 C 289.257 66.000,288.717 65.640,288.400 65.200 C 288.061 64.730,287.365 64.400,286.712 64.400 C 286.100 64.400,285.599 64.265,285.597 64.100 C 285.584 62.820,284.173 62.800,199.820 62.849 C 139.248 62.885,115.952 63.021,115.300 63.344 M275.940 86.192 C 276.768 86.958,277.693 88.218,277.997 88.992 C 278.301 89.767,278.696 90.400,278.875 90.400 C 279.054 90.400,279.200 90.670,279.200 91.000 C 279.200 91.330,279.380 91.600,279.600 91.600 C 279.820 91.600,280.000 92.140,280.000 92.800 C 280.000 93.460,280.180 94.000,280.400 94.000 C 280.620 94.000,280.800 94.360,280.800 94.800 C 280.800 95.240,280.980 95.600,281.200 95.600 C 281.420 95.600,281.600 95.960,281.600 96.400 C 281.600 96.840,281.780 97.200,282.000 97.200 C 282.220 97.200,282.400 97.740,282.400 98.400 C 282.400 99.060,282.580 99.600,282.800 99.600 C 283.020 99.600,283.200 99.960,283.200 100.400 C 283.200 100.840,283.380 101.200,283.600 101.200 C 283.820 101.200,284.000 101.700,284.000 102.312 C 284.000 102.965,284.330 103.661,284.800 104.000 C 285.260 104.331,285.600 105.035,285.600 105.655 C 285.600 106.248,285.808 106.803,286.063 106.888 C 286.318 106.973,286.510 107.618,286.490 108.321 C 286.468 109.102,286.650 109.600,286.957 109.600 C 287.290 109.600,287.402 110.008,287.285 110.800 C 287.180 111.520,287.287 112.000,287.555 112.000 C 287.800 112.000,288.000 112.360,288.000 112.800 C 288.000 113.240,288.180 113.600,288.400 113.600 C 288.620 113.600,288.800 113.960,288.800 114.400 C 288.800 114.840,288.980 115.200,289.200 115.200 C 289.420 115.200,289.600 115.740,289.600 116.400 C 289.600 117.060,289.780 117.600,290.000 117.600 C 290.220 117.600,290.400 117.870,290.400 118.200 C 290.400 118.530,290.580 118.800,290.800 118.800 C 291.020 118.800,291.200 119.250,291.200 119.800 C 291.200 120.350,291.369 120.800,291.575 120.800 C 291.782 120.800,292.072 121.610,292.221 122.600 C 292.369 123.590,292.650 124.400,292.845 124.400 C 293.040 124.400,293.200 124.760,293.200 125.200 C 293.200 125.640,293.380 126.000,293.600 126.000 C 293.820 126.000,294.000 126.360,294.000 126.800 C 294.000 127.240,294.180 127.600,294.400 127.600 C 294.620 127.600,294.800 128.140,294.800 128.800 C 294.800 129.460,294.980 130.000,295.200 130.000 C 295.420 130.000,295.600 130.360,295.600 130.800 C 295.600 131.240,295.735 131.601,295.900 131.603 C 296.259 131.607,297.200 133.544,297.200 134.280 C 297.200 134.566,297.380 134.800,297.600 134.800 C 297.820 134.800,298.000 135.160,298.000 135.600 C 298.000 136.040,298.180 136.400,298.400 136.400 C 298.620 136.400,298.800 136.760,298.800 137.200 C 298.800 137.640,298.980 138.000,299.200 138.000 C 299.420 138.000,299.600 138.540,299.600 139.200 C 299.600 139.860,299.780 140.400,300.000 140.400 C 300.220 140.400,300.400 140.670,300.400 141.000 C 300.400 141.330,300.580 141.600,300.800 141.600 C 301.020 141.600,301.200 142.140,301.200 142.800 C 301.200 143.460,301.350 144.000,301.534 144.000 C 301.718 144.000,301.897 144.720,301.932 145.600 L 301.994 147.200 200.000 147.200 L 98.006 147.200 98.068 145.600 C 98.103 144.720,98.282 144.000,98.466 144.000 C 98.650 144.000,98.800 143.460,98.800 142.800 C 98.800 142.140,98.980 141.600,99.200 141.600 C 99.420 141.600,99.600 141.330,99.600 141.000 C 99.600 140.670,99.780 140.400,100.000 140.400 C 100.220 140.400,100.400 139.860,100.400 139.200 C 100.400 138.540,100.580 138.000,100.800 138.000 C 101.020 138.000,101.200 137.640,101.200 137.200 C 101.200 136.760,101.380 136.400,101.600 136.400 C 101.820 136.400,102.000 135.942,102.000 135.383 C 102.000 134.824,102.360 133.980,102.800 133.508 C 103.240 133.036,103.600 132.413,103.600 132.125 C 103.600 131.836,103.780 131.600,104.000 131.600 C 104.220 131.600,104.400 131.060,104.400 130.400 C 104.400 129.740,104.580 129.200,104.800 129.200 C 105.020 129.200,105.200 128.840,105.200 128.400 C 105.200 127.960,105.380 127.600,105.600 127.600 C 105.820 127.600,106.000 127.240,106.000 126.800 C 106.000 126.360,106.180 126.000,106.400 126.000 C 106.620 126.000,106.800 125.661,106.800 125.246 C 106.800 124.831,107.069 123.976,107.398 123.346 C 107.726 122.716,107.996 121.705,107.998 121.100 C 107.999 120.495,108.180 120.000,108.400 120.000 C 108.620 120.000,108.800 119.730,108.800 119.400 C 108.800 119.070,108.980 118.800,109.200 118.800 C 109.420 118.800,109.600 118.350,109.600 117.800 C 109.600 117.250,109.780 116.800,110.000 116.800 C 110.220 116.800,110.400 116.440,110.400 116.000 C 110.400 115.560,110.580 115.200,110.800 115.200 C 111.020 115.200,111.200 114.840,111.200 114.400 C 111.200 113.960,111.380 113.600,111.600 113.600 C 111.820 113.600,112.000 113.060,112.000 112.400 C 112.000 111.740,112.180 111.200,112.400 111.200 C 112.976 111.200,112.894 110.104,112.300 109.865 C 112.025 109.754,112.184 109.649,112.653 109.632 C 113.380 109.605,113.509 109.351,113.529 107.908 C 113.542 106.977,113.743 106.152,113.976 106.075 C 114.209 105.997,114.400 105.588,114.400 105.167 C 114.400 104.745,114.580 104.400,114.800 104.400 C 115.020 104.400,115.200 104.040,115.200 103.600 C 115.200 103.160,115.380 102.800,115.600 102.800 C 115.820 102.800,116.000 102.440,116.000 102.000 C 116.000 101.560,116.180 101.200,116.400 101.200 C 116.620 101.200,116.800 100.660,116.800 100.000 C 116.800 99.340,116.980 98.800,117.200 98.800 C 117.420 98.800,117.600 98.440,117.600 98.000 C 117.600 97.560,117.780 97.200,118.000 97.200 C 118.220 97.200,118.400 96.840,118.400 96.400 C 118.400 95.960,118.580 95.600,118.800 95.600 C 119.020 95.600,119.200 95.060,119.200 94.400 C 119.200 93.740,119.380 93.200,119.600 93.200 C 119.820 93.200,120.000 92.840,120.000 92.400 C 120.000 91.960,120.135 91.599,120.300 91.597 C 120.635 91.593,121.601 89.674,121.598 89.020 C 121.596 88.789,122.451 87.753,123.498 86.717 L 125.400 84.834 199.917 84.817 L 274.435 84.800 275.940 86.192 M99.533 175.641 C 99.607 175.838,100.091 176.000,100.610 176.000 C 101.128 176.000,101.664 176.180,101.800 176.400 C 101.936 176.620,102.476 176.800,103.000 176.800 C 103.524 176.800,104.064 176.980,104.200 177.200 C 104.336 177.420,104.797 177.600,105.224 177.600 C 105.651 177.600,106.000 177.780,106.000 178.000 C 106.000 178.220,106.294 178.400,106.653 178.400 C 107.310 178.400,108.800 179.830,108.800 180.461 C 108.800 180.648,109.088 180.800,109.440 180.800 C 110.302 180.800,112.400 183.098,112.400 184.042 C 112.400 184.459,112.670 184.800,113.000 184.800 C 113.359 184.800,113.600 185.169,113.600 185.720 C 113.600 186.226,113.768 186.811,113.973 187.020 C 114.786 187.848,116.800 192.137,116.800 193.041 C 116.800 193.568,116.980 194.000,117.200 194.000 C 117.442 194.000,117.600 195.733,117.600 198.400 C 117.600 201.067,117.442 202.800,117.200 202.800 C 116.980 202.800,116.800 203.520,116.800 204.400 C 116.800 205.280,116.620 206.000,116.400 206.000 C 116.180 206.000,116.000 206.360,116.000 206.800 C 116.000 207.240,115.820 207.600,115.600 207.600 C 115.380 207.600,115.200 207.960,115.200 208.400 C 115.200 208.840,115.065 209.201,114.900 209.203 C 114.531 209.207,113.600 211.152,113.600 211.919 C 113.600 212.227,113.060 212.983,112.400 213.600 C 111.740 214.217,111.200 215.009,111.200 215.360 C 111.200 215.712,110.906 216.000,110.547 216.000 C 109.912 216.000,109.217 216.648,108.012 218.363 C 107.664 218.858,106.985 219.200,106.352 219.200 C 105.763 219.200,104.255 219.740,103.000 220.400 C 101.745 221.060,100.467 221.600,100.159 221.600 C 99.852 221.600,99.600 221.780,99.600 222.000 C 99.600 222.224,98.493 222.400,97.080 222.400 C 95.613 222.400,94.338 222.609,94.030 222.900 C 93.606 223.300,93.463 223.300,93.317 222.900 C 93.196 222.571,92.256 222.400,90.567 222.400 C 89.122 222.400,88.000 222.225,88.000 222.000 C 88.000 221.780,87.460 221.600,86.800 221.600 C 86.140 221.600,85.600 221.420,85.600 221.200 C 85.600 220.980,85.240 220.800,84.800 220.800 C 84.360 220.800,84.000 220.620,84.000 220.400 C 84.000 220.180,83.640 220.000,83.200 220.000 C 82.760 220.000,82.400 219.820,82.400 219.600 C 82.400 219.380,81.936 219.200,81.369 219.200 C 80.688 219.200,79.814 218.655,78.800 217.600 C 77.954 216.720,76.979 216.000,76.631 216.000 C 76.284 216.000,76.000 215.722,76.000 215.383 C 76.000 215.043,75.550 214.280,75.000 213.687 C 74.450 213.093,74.000 212.409,74.000 212.166 C 74.000 211.923,73.675 211.430,73.278 211.071 C 72.881 210.711,72.307 209.783,72.003 209.009 C 71.699 208.234,71.304 207.600,71.125 207.600 C 70.946 207.600,70.800 207.075,70.800 206.433 C 70.800 205.792,70.604 205.201,70.364 205.121 C 70.078 205.026,69.942 203.334,69.971 200.216 C 70.002 196.769,69.874 195.367,69.507 195.134 C 69.107 194.880,69.106 194.811,69.500 194.806 C 69.816 194.802,70.000 194.210,70.000 193.200 C 70.000 192.320,70.135 191.599,70.300 191.599 C 70.465 191.598,71.050 190.608,71.600 189.400 C 72.150 188.192,72.735 187.202,72.900 187.201 C 73.065 187.201,73.200 186.871,73.200 186.470 C 73.200 186.068,73.650 185.317,74.200 184.800 C 74.750 184.283,75.200 183.614,75.200 183.312 C 75.200 182.648,76.982 180.800,77.621 180.800 C 77.873 180.800,78.583 180.260,79.200 179.600 C 79.817 178.940,80.609 178.400,80.960 178.400 C 81.312 178.400,81.601 178.265,81.603 178.100 C 81.608 177.653,83.626 176.800,84.680 176.800 C 85.186 176.800,85.600 176.620,85.600 176.400 C 85.600 176.180,86.140 176.000,86.800 176.000 C 87.460 176.000,88.000 175.830,88.000 175.622 C 88.000 174.812,99.232 174.830,99.533 175.641 M310.580 175.623 C 310.789 175.831,311.374 176.000,311.880 176.000 C 312.386 176.000,312.800 176.180,312.800 176.400 C 312.800 176.620,313.149 176.800,313.576 176.800 C 314.003 176.800,314.464 176.980,314.600 177.200 C 314.736 177.420,315.247 177.600,315.735 177.600 C 316.224 177.600,316.883 177.960,317.200 178.400 C 317.517 178.840,318.010 179.200,318.295 179.200 C 318.896 179.200,324.800 184.993,324.800 185.583 C 324.800 186.168,326.844 190.380,327.250 190.631 C 327.443 190.750,327.600 191.197,327.600 191.624 C 327.600 192.051,327.780 192.400,328.000 192.400 C 328.222 192.400,328.400 193.467,328.400 194.800 C 328.400 196.133,328.578 197.200,328.800 197.200 C 329.020 197.200,329.200 197.740,329.200 198.400 C 329.200 199.060,329.020 199.600,328.800 199.600 C 328.578 199.600,328.400 200.667,328.400 202.000 C 328.400 203.333,328.222 204.400,328.000 204.400 C 327.780 204.400,327.600 204.940,327.600 205.600 C 327.600 206.260,327.420 206.800,327.200 206.800 C 326.980 206.800,326.800 207.160,326.800 207.600 C 326.800 208.040,326.665 208.401,326.500 208.401 C 326.335 208.402,325.867 209.212,325.460 210.201 C 325.054 211.191,324.559 212.000,324.360 212.000 C 324.162 212.000,324.000 212.273,324.000 212.607 C 324.000 213.399,318.999 218.400,318.207 218.400 C 317.873 218.400,317.599 218.535,317.597 218.700 C 317.593 219.059,315.656 220.000,314.920 220.000 C 314.634 220.000,314.400 220.180,314.400 220.400 C 314.400 220.620,313.961 220.800,313.424 220.800 C 312.887 220.800,312.336 220.980,312.200 221.200 C 312.064 221.420,311.524 221.600,311.000 221.600 C 310.476 221.600,309.936 221.780,309.800 222.000 C 309.664 222.220,308.573 222.400,307.376 222.400 C 306.179 222.400,305.200 222.580,305.200 222.800 C 305.200 223.020,304.840 223.200,304.400 223.200 C 303.960 223.200,303.600 223.020,303.600 222.800 C 303.600 222.580,302.621 222.400,301.424 222.400 C 300.227 222.400,299.136 222.220,299.000 222.000 C 298.864 221.780,298.403 221.600,297.976 221.600 C 297.549 221.600,297.200 221.420,297.200 221.200 C 297.200 220.980,296.660 220.800,296.000 220.800 C 295.340 220.800,294.800 220.620,294.800 220.400 C 294.800 220.180,294.451 220.000,294.024 220.000 C 293.597 220.000,293.136 219.820,293.000 219.600 C 292.864 219.380,292.443 219.200,292.065 219.200 C 291.686 219.200,291.117 218.840,290.800 218.400 C 290.483 217.960,289.987 217.600,289.698 217.600 C 288.917 217.600,286.400 214.936,286.400 214.109 C 286.400 213.714,285.860 212.945,285.200 212.400 C 284.540 211.855,284.000 211.218,284.000 210.984 C 284.000 210.323,283.035 208.407,282.700 208.403 C 282.535 208.401,282.400 207.860,282.400 207.200 C 282.400 206.540,282.220 206.000,282.000 206.000 C 281.780 206.000,281.600 205.640,281.600 205.200 C 281.600 204.760,281.420 204.400,281.200 204.400 C 280.952 204.400,280.800 202.267,280.800 198.800 C 280.800 195.333,280.952 193.200,281.200 193.200 C 281.420 193.200,281.600 192.928,281.600 192.595 C 281.600 192.262,281.764 191.677,281.965 191.295 C 282.166 190.913,282.816 189.552,283.409 188.271 C 284.002 186.990,284.738 185.845,285.044 185.728 C 285.350 185.610,285.600 185.080,285.600 184.549 C 285.600 183.474,289.567 179.200,290.564 179.200 C 290.884 179.200,291.260 178.840,291.400 178.400 C 291.563 177.887,292.005 177.600,292.632 177.600 C 293.171 177.600,293.968 177.420,294.405 177.200 C 294.842 176.980,295.558 176.620,295.995 176.400 C 296.432 176.180,297.116 176.000,297.515 176.000 C 297.914 176.000,298.411 175.832,298.620 175.627 C 299.466 174.796,309.742 174.793,310.580 175.623 M170.800 201.400 L 171.000 213.000 180.000 213.000 L 189.000 213.000 189.200 201.400 L 189.400 189.800 192.792 189.682 C 197.481 189.520,197.200 188.740,197.200 201.899 C 197.200 220.431,198.024 219.595,179.800 219.575 C 162.209 219.555,163.444 220.773,163.284 203.303 C 163.144 188.096,162.739 189.541,167.093 189.684 L 170.600 189.800 170.800 201.400 M213.480 191.600 C 214.029 192.590,215.818 195.782,217.456 198.693 C 219.093 201.604,220.830 204.754,221.316 205.693 C 221.802 206.632,222.290 207.490,222.401 207.600 C 222.511 207.710,222.853 208.288,223.160 208.884 L 223.718 209.968 224.457 208.684 C 224.863 207.978,225.509 206.725,225.892 205.900 C 226.275 205.075,226.726 204.400,226.894 204.400 C 227.062 204.400,227.200 204.076,227.200 203.680 C 227.200 203.284,227.368 202.789,227.574 202.580 C 227.780 202.371,228.845 200.490,229.941 198.400 C 231.036 196.310,232.540 193.520,233.283 192.200 L 234.634 189.800 238.217 189.800 L 241.800 189.800 241.661 190.800 C 241.585 191.350,241.371 191.984,241.187 192.209 C 241.003 192.434,240.328 193.604,239.688 194.809 C 239.047 196.014,238.070 197.810,237.518 198.800 C 236.966 199.790,235.378 202.670,233.990 205.200 C 232.602 207.730,231.167 210.340,230.801 211.000 C 230.435 211.660,229.360 213.640,228.412 215.400 C 226.062 219.762,226.255 219.600,223.400 219.600 C 220.710 219.600,220.614 219.540,219.186 217.000 C 218.692 216.120,217.837 214.599,217.286 213.621 C 216.736 212.643,215.772 210.970,215.143 209.903 C 214.514 208.837,214.000 207.901,214.000 207.823 C 214.000 207.745,213.263 206.469,212.363 204.988 C 211.463 203.506,210.383 201.687,209.963 200.947 C 209.543 200.206,208.840 198.970,208.400 198.200 C 207.960 197.430,207.219 196.125,206.753 195.300 C 206.287 194.475,205.597 193.350,205.218 192.800 C 203.240 189.925,203.633 189.549,208.472 189.686 L 212.480 189.800 213.480 191.600 " stroke="none" fill="#000000" fill-rule="evenodd"></path><path id="path1" d="M163.470 189.885 C 163.362 190.058,164.877 190.142,166.837 190.072 L 170.400 189.943 170.400 201.348 C 170.400 207.621,170.535 212.836,170.700 212.939 C 170.865 213.041,170.910 207.876,170.800 201.462 L 170.600 189.800 167.133 189.685 C 165.226 189.622,163.578 189.712,163.470 189.885 M189.392 190.100 C 189.074 190.969,188.986 213.201,189.300 213.200 C 189.465 213.200,189.600 207.980,189.600 201.600 L 189.600 190.000 192.992 190.000 C 197.223 190.000,196.890 188.790,196.728 203.568 C 196.658 209.998,196.717 214.840,196.860 214.329 C 197.307 212.733,197.240 191.223,196.786 190.374 C 196.280 189.428,189.726 189.186,189.392 190.100 M204.203 189.996 C 203.936 190.428,205.065 193.069,205.678 193.448 C 205.888 193.578,205.686 192.952,205.229 192.058 C 204.773 191.164,204.400 190.335,204.400 190.216 C 204.400 189.327,212.299 190.064,212.800 190.999 C 213.094 191.549,213.409 191.925,213.499 191.834 C 213.590 191.744,213.359 191.204,212.986 190.635 C 212.267 189.537,204.821 188.995,204.203 189.996 M234.511 190.100 C 233.746 191.090,233.548 191.779,234.291 190.868 C 234.998 190.002,235.293 189.946,238.489 190.068 C 240.379 190.141,241.842 190.065,241.740 189.900 C 241.411 189.372,234.936 189.551,234.511 190.100 M231.400 195.600 C 230.843 196.700,230.477 197.600,230.587 197.600 C 230.697 197.600,231.243 196.700,231.800 195.600 C 232.357 194.500,232.723 193.600,232.613 193.600 C 232.503 193.600,231.957 194.500,231.400 195.600 M214.815 194.600 C 214.817 194.820,215.186 195.450,215.636 196.000 C 216.179 196.664,216.315 196.731,216.040 196.200 C 215.366 194.895,214.812 194.172,214.815 194.600 M238.186 196.900 L 237.552 198.200 238.367 197.200 C 239.152 196.237,239.408 195.600,239.010 195.600 C 238.906 195.600,238.535 196.185,238.186 196.900 M217.800 200.000 C 218.141 200.660,218.511 201.200,218.621 201.200 C 218.731 201.200,218.541 200.660,218.200 200.000 C 217.859 199.340,217.489 198.800,217.379 198.800 C 217.269 198.800,217.459 199.340,217.800 200.000 M235.428 201.861 C 234.856 202.884,234.452 203.785,234.529 203.863 C 234.607 203.940,235.161 203.103,235.760 202.002 C 236.360 200.901,236.764 200.000,236.659 200.000 C 236.554 200.000,236.000 200.837,235.428 201.861 M227.814 202.235 C 227.441 202.804,227.227 203.361,227.339 203.472 C 227.450 203.583,227.829 203.118,228.181 202.437 C 228.959 200.933,228.744 200.815,227.814 202.235 M218.809 201.900 C 218.814 202.065,219.185 202.650,219.633 203.200 L 220.448 204.200 219.814 202.900 C 219.211 201.665,218.789 201.245,218.809 201.900 M233.028 206.261 C 232.456 207.284,232.052 208.185,232.129 208.263 C 232.207 208.340,232.761 207.503,233.360 206.402 C 233.960 205.301,234.364 204.400,234.259 204.400 C 234.154 204.400,233.600 205.237,233.028 206.261 M224.614 208.235 C 224.241 208.804,224.027 209.361,224.139 209.472 C 224.250 209.583,224.629 209.118,224.981 208.437 C 225.759 206.933,225.544 206.815,224.614 208.235 M215.400 210.400 C 215.741 211.060,216.111 211.600,216.221 211.600 C 216.331 211.600,216.141 211.060,215.800 210.400 C 215.459 209.740,215.089 209.200,214.979 209.200 C 214.869 209.200,215.059 209.740,215.400 210.400 M229.440 212.798 C 228.840 213.899,228.436 214.800,228.541 214.800 C 228.808 214.800,230.843 211.110,230.671 210.937 C 230.593 210.860,230.039 211.697,229.440 212.798 M163.228 213.833 C 163.244 214.475,163.416 215.360,163.610 215.800 C 163.847 216.334,163.886 216.002,163.727 214.800 C 163.446 212.680,163.188 212.180,163.228 213.833 M217.615 214.200 C 217.617 214.420,217.986 215.050,218.436 215.600 C 218.979 216.264,219.115 216.331,218.840 215.800 C 218.166 214.495,217.612 213.772,217.615 214.200 M227.201 216.904 C 225.994 219.078,225.810 219.187,223.316 219.194 C 221.278 219.200,219.600 218.235,219.600 217.058 C 219.600 216.843,219.490 216.776,219.356 216.910 C 218.306 217.961,220.969 219.631,223.513 219.517 L 226.148 219.400 227.291 217.451 C 227.920 216.378,228.369 215.436,228.288 215.355 C 228.208 215.275,227.719 215.972,227.201 216.904 M167.339 219.294 C 167.592 219.456,173.290 219.588,180.000 219.588 C 186.710 219.588,192.408 219.456,192.662 219.294 C 192.916 219.132,187.219 219.000,180.001 219.000 C 172.783 219.000,167.085 219.132,167.339 219.294 " stroke="none" fill="#535454" fill-rule="evenodd"></path><path id="path2" d="M163.381 190.506 C 163.274 190.784,163.235 195.959,163.294 202.006 L 163.401 213.000 163.601 201.500 C 163.710 195.175,163.749 190.000,163.687 190.000 C 163.626 190.000,163.488 190.228,163.381 190.506 M189.694 201.514 L 189.600 213.228 180.038 213.114 C 174.779 213.051,170.559 213.135,170.661 213.300 C 171.008 213.859,189.602 213.660,189.819 213.095 C 189.926 212.817,189.962 207.462,189.900 201.195 L 189.787 189.800 189.694 201.514 M196.304 198.937 C 196.471 213.255,196.634 214.628,196.713 202.400 C 196.754 196.130,196.656 190.792,196.494 190.537 C 196.332 190.282,196.247 194.062,196.304 198.937 M207.560 196.200 C 208.234 197.505,208.788 198.228,208.785 197.800 C 208.783 197.580,208.414 196.950,207.964 196.400 C 207.421 195.736,207.285 195.669,207.560 196.200 M209.200 198.890 C 209.200 199.281,212.003 204.000,212.236 204.000 C 212.345 204.000,211.943 203.145,211.344 202.100 C 209.956 199.682,209.200 198.549,209.200 198.890 M219.400 216.800 C 219.741 217.460,220.111 218.000,220.221 218.000 C 220.331 218.000,220.141 217.460,219.800 216.800 C 219.459 216.140,219.089 215.600,218.979 215.600 C 218.869 215.600,219.059 216.140,219.400 216.800 M173.725 219.099 C 177.204 219.166,182.784 219.166,186.125 219.099 C 189.466 219.032,186.620 218.978,179.800 218.978 C 172.980 218.978,170.246 219.033,173.725 219.099 M222.307 219.090 C 223.026 219.179,224.106 219.177,224.707 219.086 C 225.308 218.995,224.720 218.922,223.400 218.924 C 222.080 218.926,221.588 219.001,222.307 219.090 " stroke="none" fill="#7b7b7c" fill-rule="evenodd"></path><path id="path3" d="M163.867 190.267 C 163.519 190.615,163.577 212.057,163.932 214.400 C 164.083 215.390,164.139 210.485,164.057 203.500 L 163.910 190.800 166.949 190.800 L 169.988 190.800 170.094 202.300 L 170.200 213.800 179.773 213.907 C 185.038 213.966,189.484 213.876,189.653 213.707 C 189.822 213.538,185.605 213.400,180.280 213.400 L 170.600 213.400 170.385 201.800 C 170.266 195.420,170.131 190.155,170.085 190.100 C 169.889 189.868,164.110 190.023,163.867 190.267 M190.000 190.400 C 190.000 190.631,191.267 190.800,193.000 190.800 L 196.000 190.800 196.093 202.500 L 196.187 214.200 196.306 203.000 C 196.455 188.911,196.733 190.000,192.992 190.000 C 191.264 190.000,190.000 190.169,190.000 190.400 M204.800 190.420 C 204.800 190.947,205.951 193.200,206.221 193.200 C 206.331 193.200,206.141 192.660,205.800 192.000 L 205.179 190.800 208.890 190.794 C 211.433 190.790,212.411 190.666,212.000 190.400 C 211.172 189.865,204.800 189.883,204.800 190.420 M234.503 191.100 C 233.424 192.679,230.622 198.356,231.394 197.400 C 231.749 196.960,232.703 195.295,233.514 193.700 L 234.989 190.800 237.882 190.800 C 240.456 190.800,240.750 190.877,240.550 191.500 C 240.360 192.091,240.392 192.106,240.756 191.600 C 241.711 190.272,241.280 190.000,238.227 190.000 C 235.433 190.000,235.209 190.066,234.503 191.100 M239.414 193.435 C 239.041 194.004,238.827 194.561,238.939 194.672 C 239.050 194.783,239.429 194.318,239.781 193.637 C 240.559 192.133,240.344 192.015,239.414 193.435 M214.635 195.500 C 215.462 196.985,216.495 198.830,216.931 199.600 C 218.105 201.674,220.055 205.273,220.559 206.297 C 220.801 206.790,221.150 207.195,221.333 207.197 C 221.516 207.199,221.313 206.615,220.882 205.900 C 220.451 205.185,219.652 203.790,219.106 202.800 C 218.560 201.810,217.759 200.370,217.326 199.600 C 216.893 198.830,215.862 196.985,215.035 195.500 C 214.208 194.015,213.441 192.800,213.331 192.800 C 213.221 192.800,213.808 194.015,214.635 195.500 M238.268 195.500 C 237.126 197.406,236.397 198.931,236.554 199.087 C 236.659 199.193,237.211 198.362,237.780 197.240 C 238.619 195.584,238.972 194.324,238.268 195.500 M229.440 200.398 C 228.840 201.499,228.496 202.396,228.675 202.390 C 229.017 202.380,230.881 198.748,230.659 198.525 C 230.588 198.454,230.039 199.297,229.440 200.398 M235.868 199.900 C 234.258 202.588,230.291 210.197,230.707 209.800 C 230.938 209.580,231.564 208.590,232.100 207.600 C 232.636 206.610,233.835 204.405,234.765 202.700 C 236.056 200.333,236.916 198.150,235.868 199.900 M213.009 205.102 C 213.625 206.258,214.199 207.134,214.284 207.049 C 214.470 206.863,212.901 203.968,212.306 203.400 C 212.076 203.180,212.392 203.946,213.009 205.102 M214.946 208.574 C 215.511 209.436,216.220 210.644,217.778 213.400 C 218.026 213.840,218.825 215.235,219.553 216.500 L 220.876 218.800 223.428 218.800 C 225.908 218.800,225.997 218.764,226.622 217.500 L 227.265 216.200 226.331 217.324 C 225.485 218.342,225.190 218.437,223.229 218.324 L 221.061 218.200 219.280 215.200 C 218.300 213.550,217.063 211.480,216.532 210.600 C 216.000 209.720,215.462 208.685,215.336 208.300 C 215.210 207.915,214.927 207.600,214.707 207.600 C 214.488 207.600,214.595 208.039,214.946 208.574 M222.413 209.438 C 222.392 210.149,223.881 211.316,224.184 210.826 C 224.329 210.592,224.231 210.400,223.968 210.400 C 223.704 210.400,223.249 210.085,222.957 209.700 C 222.665 209.315,222.420 209.197,222.413 209.438 M229.020 212.360 C 228.452 213.482,228.064 214.400,228.159 214.400 C 228.451 214.400,230.423 210.690,230.233 210.499 C 230.134 210.401,229.589 211.238,229.020 212.360 M195.600 215.679 C 195.600 216.015,195.105 216.792,194.500 217.404 C 193.683 218.231,193.610 218.408,194.216 218.090 C 195.149 217.601,196.267 215.734,195.867 215.334 C 195.720 215.187,195.600 215.342,195.600 215.679 M164.743 217.093 C 165.600 218.695,166.798 218.818,180.400 218.701 L 193.400 218.589 180.238 218.494 L 167.076 218.400 165.696 217.347 C 164.538 216.465,164.384 216.423,164.743 217.093 " stroke="none" fill="#c6c7c8" fill-rule="evenodd"></path><path id="path4" d="M164.060 203.449 L 164.211 216.097 165.591 217.249 L 166.970 218.400 180.209 218.400 C 197.593 218.400,196.000 219.976,196.000 202.774 L 196.000 190.800 193.006 190.800 L 190.012 190.800 189.906 202.300 L 189.800 213.800 180.000 213.800 L 170.200 213.800 170.094 202.300 L 169.988 190.800 166.949 190.800 L 163.910 190.800 164.060 203.449 M206.272 192.900 C 206.889 194.055,207.485 195.090,207.597 195.200 C 207.709 195.310,208.025 195.805,208.300 196.300 C 208.575 196.795,209.025 197.605,209.300 198.100 C 209.575 198.595,209.890 199.090,210.001 199.200 C 210.111 199.310,210.471 199.940,210.800 200.600 C 211.129 201.260,211.489 201.890,211.599 202.000 C 211.851 202.251,212.694 203.727,213.770 205.800 C 214.226 206.680,214.690 207.490,214.800 207.600 C 214.910 207.710,215.242 208.230,215.538 208.755 C 216.761 210.927,217.589 212.353,219.280 215.200 L 221.062 218.200 223.290 218.319 C 225.383 218.430,227.200 217.300,227.200 215.887 C 227.200 215.783,227.980 214.280,228.934 212.549 C 229.888 210.817,231.449 207.960,232.402 206.200 C 233.356 204.440,234.493 202.370,234.930 201.600 C 235.366 200.830,236.208 199.300,236.800 198.200 C 238.276 195.458,239.626 193.080,239.981 192.600 C 241.135 191.036,240.860 190.800,237.887 190.804 L 235.000 190.807 233.251 194.104 C 232.289 195.917,230.940 198.480,230.254 199.800 C 229.567 201.120,228.905 202.290,228.784 202.400 C 228.662 202.510,228.069 203.590,227.465 204.800 C 226.862 206.010,226.006 207.630,225.563 208.400 C 225.120 209.170,224.574 210.127,224.351 210.526 C 223.829 211.458,223.059 210.880,222.113 208.845 C 221.744 208.050,221.342 207.310,221.221 207.200 C 220.963 206.967,220.277 205.781,218.791 203.000 C 217.727 201.008,216.871 199.467,213.941 194.264 C 213.093 192.759,212.400 191.364,212.400 191.164 C 212.400 190.964,210.769 190.800,208.775 190.800 L 205.150 190.800 206.272 192.900 " stroke="none" fill="#fafbfc" fill-rule="evenodd"></path></g></svg>