<?xml version="1.0" encoding="UTF-8" standalone="no"?>
<svg
   xmlns:dc="http://purl.org/dc/elements/1.1/"
   xmlns:cc="http://creativecommons.org/ns#"
   xmlns:rdf="http://www.w3.org/1999/02/22-rdf-syntax-ns#"
   xmlns:svg="http://www.w3.org/2000/svg"
   xmlns="http://www.w3.org/2000/svg"
   xmlns:sodipodi="http://sodipodi.sourceforge.net/DTD/sodipodi-0.dtd"
   xmlns:inkscape="http://www.inkscape.org/namespaces/inkscape"
   id="svg"
   version="1.1"
   width="25"
   height="25.005861"
   style="display:block"
   sodipodi:docname="Bus White.svg"
   inkscape:version="0.92.1 r15371">
  <metadata
     id="metadata13">
    <rdf:RDF>
      <cc:Work
         rdf:about="">
        <dc:format>image/svg+xml</dc:format>
        <dc:type
           rdf:resource="http://purl.org/dc/dcmitype/StillImage" />
      </cc:Work>
    </rdf:RDF>
  </metadata>
  <defs
     id="defs11" />
  <sodipodi:namedview
     pagecolor="#ffffff"
     bordercolor="#666666"
     borderopacity="1"
     objecttolerance="10"
     gridtolerance="10"
     guidetolerance="10"
     inkscape:pageopacity="0"
     inkscape:pageshadow="2"
     inkscape:window-width="1440"
     inkscape:window-height="838"
     id="namedview9"
     showgrid="false"
     inkscape:zoom="0.59"
     inkscape:cx="200"
     inkscape:cy="199.849"
     inkscape:window-x="-8"
     inkscape:window-y="-8"
     inkscape:window-maximized="1"
     inkscape:current-layer="svg" />
  <g
     id="svgg"
     transform="matrix(0.06255489,0,0,0.06255489,-0.00944579,-0.00664976)">
    <path
       id="path0"
       d="m 185.483,7.45 c -0.157,0.157 -2.13,0.432 -4.384,0.611 -2.255,0.178 -5.449,0.504 -7.099,0.723 -1.65,0.219 -3.9,0.501 -5,0.628 -1.1,0.126 -2.36,0.387 -2.8,0.58 -0.44,0.192 -1.61,0.447 -2.6,0.566 -0.99,0.119 -2.61,0.412 -3.6,0.651 -0.99,0.239 -2.52,0.595 -3.4,0.791 -9.596,2.137 -23.562,6.651 -31.8,10.279 -5.782,2.546 -16.491,7.742 -16.8,8.152 -0.11,0.145 -1.1,0.735 -2.2,1.31 -1.1,0.575 -3.39,1.904 -5.089,2.953 -1.699,1.048 -4.399,2.71 -6,3.694 -1.601,0.983 -3.001,1.892 -3.111,2.019 -0.11,0.127 -0.83,0.664 -1.6,1.193 -0.77,0.529 -1.49,1.06 -1.6,1.181 -0.11,0.12 -1.1,0.837 -2.2,1.592 -1.1,0.755 -2.667,1.925 -3.483,2.6 -0.816,0.675 -2.314,1.857 -3.33,2.627 -1.016,0.77 -2.778,2.228 -3.917,3.24 -1.138,1.012 -2.52,2.181 -3.07,2.599 -1.302,0.988 -15.973,15.659 -16.961,16.961 -0.418,0.55 -1.587,1.932 -2.599,3.07 -1.012,1.139 -2.47,2.901 -3.24,3.917 -0.77,1.016 -1.952,2.514 -2.627,3.33 -0.675,0.816 -1.845,2.383 -2.6,3.483 -0.755,1.1 -1.472,2.09 -1.592,2.2 -0.121,0.11 -0.652,0.83 -1.181,1.6 -0.529,0.77 -1.066,1.49 -1.193,1.6 -0.127,0.11 -1.036,1.51 -2.019,3.111 -0.984,1.601 -2.646,4.301 -3.694,6 -1.049,1.699 -2.378,3.989 -2.953,5.089 -0.575,1.1 -1.165,2.09 -1.31,2.2 -0.41,0.309 -5.606,11.018 -8.152,16.8 -3.628,8.238 -8.142,22.204 -10.279,31.8 -0.196,0.88 -0.552,2.41 -0.791,3.4 -0.239,0.99 -0.532,2.61 -0.651,3.6 -0.119,0.99 -0.374,2.16 -0.566,2.6 -0.193,0.44 -0.454,1.7 -0.58,2.8 -0.127,1.1 -0.409,3.35 -0.628,5 -1.101,8.291 -1.312,12.47 -1.312,26 0,15.104 0.497,22.476 2.108,31.3 0.231,1.265 0.59,3.245 0.799,4.4 0.208,1.155 0.568,2.955 0.8,4 1.025,4.625 1.199,5.39 1.573,6.9 0.217,0.88 0.571,2.23 0.786,3 0.215,0.77 0.76,2.75 1.212,4.4 1.35,4.929 5.437,16.433 7.531,21.2 2.266,5.159 6.927,14.857 7.305,15.2 0.121,0.11 0.742,1.19 1.379,2.4 1.579,2.998 4.296,7.536 6.882,11.496 1.184,1.813 2.153,3.478 2.153,3.7 0,0.222 0.141,0.404 0.314,0.404 0.172,0 0.61,0.495 0.973,1.1 0.363,0.605 0.945,1.46 1.295,1.9 0.349,0.44 1.487,1.942 2.527,3.338 1.04,1.396 2.486,3.286 3.214,4.2 0.727,0.914 1.81,2.306 2.407,3.093 4.694,6.199 21.04,22.545 27.239,27.239 0.787,0.597 2.179,1.68 3.093,2.407 0.914,0.728 2.804,2.174 4.2,3.214 1.396,1.04 2.898,2.178 3.338,2.527 0.44,0.35 1.295,0.932 1.9,1.295 0.605,0.363 1.1,0.801 1.1,0.973 0,0.173 0.174,0.314 0.386,0.314 0.212,0 1.967,1.021 3.9,2.268 3.987,2.574 6.538,4.112 9.714,5.86 1.21,0.665 2.92,1.623 3.8,2.128 2.392,1.372 11.096,5.594 15.4,7.469 3.938,1.715 16.741,6.333 19.6,7.069 1.509,0.389 3.763,1.01 6,1.654 0.77,0.222 2.21,0.59 3.2,0.817 0.99,0.228 2.52,0.586 3.4,0.796 2.825,0.676 5.148,1.172 7.3,1.56 1.155,0.209 3.135,0.568 4.4,0.799 8.601,1.57 16.647,2.114 31.3,2.114 14.653,0 22.699,-0.544 31.3,-2.114 1.265,-0.231 3.245,-0.59 4.4,-0.799 2.116,-0.381 4.024,-0.787 7.7,-1.637 3.584,-0.829 4.778,-1.124 6.2,-1.535 1.388,-0.4 2.145,-0.612 6.4,-1.788 2.932,-0.81 15.926,-5.503 19.2,-6.934 4.199,-1.836 13.29,-6.193 13.6,-6.517 0.11,-0.116 1.19,-0.727 2.4,-1.359 4.562,-2.384 7.85,-4.314 12.914,-7.583 1.933,-1.247 3.688,-2.268 3.9,-2.268 0.212,0 0.386,-0.141 0.386,-0.314 0,-0.172 0.533,-0.629 1.185,-1.014 0.652,-0.385 1.42,-0.919 1.706,-1.186 0.286,-0.267 1.417,-1.104 2.514,-1.859 1.097,-0.755 2.641,-1.925 3.43,-2.6 0.79,-0.675 2.652,-2.173 4.139,-3.328 8.528,-6.63 21.695,-19.797 28.325,-28.325 1.155,-1.487 2.653,-3.349 3.328,-4.139 0.675,-0.789 1.845,-2.333 2.6,-3.43 0.755,-1.097 1.592,-2.228 1.859,-2.514 0.267,-0.286 0.801,-1.054 1.186,-1.706 0.385,-0.652 0.842,-1.185 1.014,-1.185 0.173,0 0.314,-0.174 0.314,-0.386 0,-0.212 1.021,-1.967 2.268,-3.9 3.269,-5.064 5.199,-8.352 7.583,-12.914 0.632,-1.21 1.243,-2.29 1.359,-2.4 0.324,-0.31 4.681,-9.401 6.517,-13.6 1.431,-3.274 6.124,-16.268 6.934,-19.2 1.169,-4.229 1.387,-5.01 1.787,-6.4 0.222,-0.77 0.59,-2.21 0.817,-3.2 0.228,-0.99 0.586,-2.52 0.796,-3.4 0.676,-2.825 1.172,-5.148 1.56,-7.3 0.209,-1.155 0.568,-3.135 0.799,-4.4 1.57,-8.601 2.114,-16.647 2.114,-31.3 0,-14.653 -0.544,-22.699 -2.114,-31.3 -0.231,-1.265 -0.59,-3.245 -0.799,-4.4 -0.381,-2.116 -0.787,-4.024 -1.637,-7.7 -0.824,-3.563 -1.123,-4.773 -1.557,-6.3 -0.949,-3.334 -1.289,-4.563 -1.633,-5.9 -0.736,-2.859 -5.354,-15.662 -7.069,-19.6 -1.875,-4.304 -6.097,-13.008 -7.469,-15.4 -0.505,-0.88 -1.463,-2.59 -2.128,-3.8 -1.748,-3.176 -3.286,-5.727 -5.86,-9.714 -1.247,-1.933 -2.268,-3.688 -2.268,-3.9 0,-0.212 -0.141,-0.386 -0.314,-0.386 -0.172,0 -0.61,-0.495 -0.973,-1.1 -0.363,-0.605 -0.945,-1.46 -1.295,-1.9 -0.349,-0.44 -1.487,-1.942 -2.527,-3.338 -1.04,-1.396 -2.486,-3.286 -3.214,-4.2 -0.727,-0.914 -1.81,-2.306 -2.407,-3.093 -4.694,-6.199 -21.04,-22.545 -27.239,-27.239 -0.787,-0.597 -2.179,-1.68 -3.093,-2.407 -0.914,-0.728 -2.804,-2.174 -4.2,-3.214 -1.396,-1.04 -2.898,-2.178 -3.338,-2.527 -0.44,-0.35 -1.295,-0.932 -1.9,-1.295 -0.605,-0.363 -1.1,-0.801 -1.1,-0.973 0,-0.173 -0.182,-0.314 -0.404,-0.314 -0.222,0 -1.887,-0.969 -3.7,-2.153 -3.96,-2.586 -8.498,-5.303 -11.496,-6.882 -1.21,-0.637 -2.29,-1.258 -2.4,-1.379 -0.343,-0.378 -10.041,-5.039 -15.2,-7.305 -4.767,-2.094 -16.271,-6.181 -21.2,-7.531 -1.65,-0.452 -3.63,-0.997 -4.4,-1.212 -0.77,-0.215 -2.12,-0.569 -3,-0.786 -1.51,-0.374 -2.275,-0.548 -6.9,-1.573 -1.045,-0.232 -2.845,-0.592 -4,-0.8 C 234.545,10.17 232.565,9.811 231.3,9.58 228.587,9.085 224.461,8.533 219.2,7.961 214.703,7.473 185.897,7.036 185.483,7.45 m 24.917,3.394 c 8.816,0.398 10.568,0.535 15.2,1.19 13.677,1.932 26.734,5.071 37.8,9.086 7.6,2.757 8.397,3.072 8.533,3.38 0.074,0.165 0.434,0.306 0.8,0.313 0.367,0.006 1.742,0.546 3.057,1.2 1.314,0.653 2.544,1.187 2.732,1.187 0.723,0 14.246,6.976 17.57,9.063 0.821,0.515 1.592,0.937 1.713,0.937 0.122,0 2.1,1.26 4.395,2.8 2.295,1.54 4.359,2.8 4.587,2.8 0.227,0 0.413,0.141 0.413,0.314 0,0.172 0.495,0.609 1.1,0.971 1.859,1.11 11.037,8.028 12.1,9.12 0.11,0.114 1.182,1.014 2.382,2 6.49,5.339 16.674,15.523 22.013,22.013 0.986,1.2 1.886,2.272 2,2.382 2.108,2.052 16.005,21.651 16.005,22.573 0,0.105 0.565,1.145 1.256,2.309 2.172,3.663 2.731,4.703 5.775,10.753 1.633,3.246 2.969,6.055 2.969,6.243 0,0.188 0.534,1.418 1.187,2.732 0.654,1.315 1.194,2.669 1.2,3.01 0.007,0.341 0.166,0.791 0.353,1 3.003,3.351 10.92,33.185 12.469,46.98 0.234,2.09 0.625,5.229 0.868,6.975 0.584,4.188 0.584,31.462 0,35.65 -0.243,1.746 -0.634,4.885 -0.868,6.975 -1.549,13.795 -9.466,43.629 -12.469,46.98 -0.187,0.209 -0.34,0.625 -0.34,0.925 0,3.148 -14.918,30.198 -20.899,37.895 -0.171,0.22 -1.164,1.577 -2.206,3.015 -1.689,2.33 -4.752,6.252 -5.3,6.785 -0.114,0.11 -1.014,1.183 -2,2.384 -5.168,6.288 -15.723,16.843 -22.011,22.011 -1.201,0.986 -2.274,1.886 -2.384,2 -0.533,0.548 -4.455,3.611 -6.785,5.3 -1.438,1.042 -2.795,2.035 -3.015,2.206 -7.697,5.981 -34.747,20.899 -37.895,20.899 -0.3,0 -0.716,0.153 -0.925,0.34 -3.351,3.003 -33.185,10.92 -46.98,12.469 -2.09,0.234 -5.229,0.625 -6.975,0.868 -4.188,0.584 -31.462,0.584 -35.65,0 -1.746,-0.243 -4.885,-0.634 -6.975,-0.868 -13.795,-1.549 -43.629,-9.466 -46.98,-12.469 -0.209,-0.187 -0.659,-0.346 -1,-0.353 -0.341,-0.006 -1.695,-0.546 -3.01,-1.2 -1.314,-0.653 -2.544,-1.187 -2.732,-1.187 -0.188,0 -2.997,-1.336 -6.243,-2.969 -6.05,-3.044 -7.09,-3.603 -10.753,-5.775 -1.164,-0.691 -2.204,-1.256 -2.309,-1.256 -0.922,0 -20.521,-13.897 -22.573,-16.005 -0.11,-0.114 -1.182,-1.014 -2.382,-2 -6.49,-5.339 -16.674,-15.523 -22.013,-22.013 -0.986,-1.2 -1.886,-2.272 -2,-2.382 -1.092,-1.063 -8.01,-10.241 -9.12,-12.1 -0.362,-0.605 -0.799,-1.1 -0.971,-1.1 -0.173,0 -0.314,-0.186 -0.314,-0.413 0,-0.228 -1.26,-2.292 -2.8,-4.587 -1.54,-2.295 -2.8,-4.273 -2.8,-4.395 0,-0.121 -0.422,-0.892 -0.937,-1.713 -2.087,-3.324 -9.063,-16.847 -9.063,-17.57 0,-0.188 -0.534,-1.418 -1.187,-2.732 -0.654,-1.315 -1.194,-2.69 -1.2,-3.057 -0.007,-0.366 -0.148,-0.726 -0.313,-0.8 -1.034,-0.459 -6.604,-17.659 -9.106,-28.116 -2.748,-11.489 -3.906,-19.989 -4.635,-34.017 -0.554,-10.65 -0.553,-8.938 -0.005,-19.6 0.995,-19.356 5.335,-41.815 10.433,-54 0.184,-0.44 0.73,-1.88 1.213,-3.2 1.722,-4.707 2.057,-5.514 3.547,-8.556 0.689,-1.406 1.253,-2.733 1.253,-2.948 0,-0.772 7.721,-15.742 9.262,-17.958 0.406,-0.584 0.738,-1.175 0.738,-1.313 0,-0.138 1.26,-2.13 2.8,-4.425 1.54,-2.295 2.8,-4.344 2.8,-4.553 0,-0.209 0.137,-0.44 0.305,-0.514 C 43.273,92.66 44.693,90.8 46.261,88.6 57.266,73.158 73.158,57.266 88.6,46.261 c 2.2,-1.568 4.06,-2.988 4.133,-3.156 0.074,-0.168 0.305,-0.305 0.514,-0.305 0.209,0 2.258,-1.26 4.553,-2.8 2.295,-1.54 4.287,-2.8 4.425,-2.8 0.138,0 0.729,-0.332 1.313,-0.738 2.216,-1.541 17.186,-9.262 17.958,-9.262 0.215,0 1.542,-0.564 2.948,-1.253 1.406,-0.689 2.961,-1.409 3.456,-1.6 0.495,-0.191 1.305,-0.509 1.8,-0.708 0.495,-0.199 1.98,-0.756 3.3,-1.239 1.32,-0.483 2.76,-1.029 3.2,-1.213 7.388,-3.091 26.024,-7.55 38.2,-9.14 5.774,-0.754 6.739,-0.829 15.752,-1.229 4.814,-0.214 8.861,-0.498 8.994,-0.631 0.133,-0.132 0.874,-0.122 1.648,0.023 0.773,0.146 5.096,0.431 9.606,0.634 M 168.2,54.4 c -0.137,0.221 -1.937,0.4 -4.024,0.4 -2.251,0 -3.776,0.162 -3.776,0.4 0,0.245 -1.925,0.4 -4.976,0.4 -2.887,0 -5.081,0.168 -5.224,0.4 -0.136,0.22 -1.407,0.4 -2.824,0.4 -1.451,0 -2.576,0.175 -2.576,0.4 0,0.229 -1.2,0.4 -2.8,0.4 -1.6,0 -2.8,0.171 -2.8,0.4 0,0.22 -0.9,0.4 -2,0.4 -1.1,0 -2,0.18 -2,0.4 0,0.22 -0.619,0.4 -1.376,0.4 -0.757,0 -1.488,0.18 -1.624,0.4 -0.136,0.22 -1.036,0.4 -2,0.4 -0.964,0 -1.864,0.18 -2,0.4 -0.136,0.22 -0.676,0.4 -1.2,0.4 -0.524,0 -1.064,0.18 -1.2,0.4 -0.136,0.22 -0.867,0.4 -1.624,0.4 -0.757,0 -1.376,0.18 -1.376,0.4 0,0.22 -0.54,0.4 -1.2,0.4 -0.66,0 -1.2,0.18 -1.2,0.4 0,0.22 -0.54,0.4 -1.2,0.4 -0.66,0 -1.2,0.18 -1.2,0.4 0,0.22 -0.439,0.4 -0.976,0.4 -0.537,0 -1.088,0.18 -1.224,0.4 -0.136,0.22 -0.578,0.4 -0.983,0.4 -0.405,0 -1.762,0.54 -3.017,1.2 -1.255,0.66 -2.612,1.2 -3.017,1.2 -0.405,0 -0.832,0.156 -0.951,0.347 -0.118,0.192 -0.908,0.459 -1.756,0.594 -0.847,0.136 -1.869,0.61 -2.271,1.053 -0.401,0.443 -0.943,0.806 -1.205,0.806 -0.262,0 -0.802,0.36 -1.2,0.8 -0.398,0.44 -0.938,0.8 -1.2,0.8 -0.262,0 -0.802,0.36 -1.2,0.8 -0.398,0.44 -0.925,0.8 -1.171,0.8 -0.246,0 -1.879,1.44 -3.629,3.2 -1.75,1.76 -3.379,3.2 -3.621,3.2 -0.536,0 -2.179,1.697 -2.179,2.251 0,0.22 -0.54,0.917 -1.2,1.549 -0.66,0.632 -1.2,1.358 -1.2,1.613 0,0.255 -0.344,0.774 -0.764,1.154 -0.42,0.381 -0.884,1.174 -1.031,1.762 -0.147,0.589 -0.543,1.377 -0.881,1.752 -0.887,0.984 -2.524,4.333 -2.524,5.163 0,0.39 -0.18,0.82 -0.4,0.956 -0.22,0.136 -0.4,1.036 -0.4,2 0,0.964 -0.18,1.864 -0.4,2 -0.22,0.136 -0.4,1.007 -0.4,1.935 0,1.23 -0.217,1.845 -0.8,2.265 -1.264,0.911 -1.264,173.889 0,174.8 0.557,0.402 0.8,1.035 0.8,2.088 0,0.832 0.18,1.512 0.4,1.512 0.22,0 0.4,0.494 0.4,1.097 0,0.899 2.446,6.207 5.005,10.86 0.289,0.527 2.072,2.511 3.961,4.408 l 3.434,3.451 v 15.668 c 0,10.014 0.144,15.758 0.4,15.916 0.22,0.136 0.4,0.569 0.4,0.962 0,1.044 1.03,2.939 2.19,4.028 0.555,0.522 1.01,1.157 1.01,1.41 0,0.565 1.692,2.2 2.277,2.2 0.234,0 0.642,0.261 0.907,0.581 0.265,0.319 1.402,1.039 2.527,1.6 l 2.046,1.019 h 12.322 c 6.776,0 12.321,-0.146 12.321,-0.325 0,-0.179 0.619,-0.568 1.375,-0.865 2.92,-1.146 8.625,-8.076 8.625,-10.478 0,-0.403 0.18,-0.732 0.4,-0.732 0.254,0 0.4,-3.059 0.4,-8.376 0,-5.153 -0.154,-8.472 -0.4,-8.624 -0.22,-0.136 -0.4,-0.417 -0.4,-0.624 0,-0.233 23.226,-0.376 61.2,-0.376 37.974,0 61.2,0.143 61.2,0.376 0,0.207 -0.18,0.488 -0.4,0.624 -0.246,0.152 -0.4,3.471 -0.4,8.624 0,5.317 0.146,8.376 0.4,8.376 0.22,0 0.4,0.325 0.4,0.721 0,1.083 1.866,4.614 3.002,5.681 0.549,0.516 0.998,1.176 0.998,1.468 0,0.291 0.236,0.53 0.525,0.53 0.289,0 1.011,0.507 1.605,1.127 0.595,0.621 1.708,1.374 2.475,1.675 0.767,0.301 1.395,0.694 1.395,0.873 0,0.179 5.545,0.325 12.321,0.325 h 12.322 l 2.046,-1.019 c 1.125,-0.561 2.262,-1.281 2.527,-1.6 0.265,-0.32 0.699,-0.581 0.963,-0.581 0.571,0 2.221,-1.676 2.221,-2.256 0,-0.223 0.455,-0.832 1.01,-1.354 1.16,-1.089 2.19,-2.984 2.19,-4.028 0,-0.393 0.18,-0.826 0.4,-0.962 0.256,-0.158 0.4,-5.902 0.4,-15.916 v -15.668 l 3.434,-3.451 c 1.889,-1.897 3.672,-3.881 3.961,-4.408 2.559,-4.653 5.005,-9.961 5.005,-10.86 0,-0.603 0.18,-1.097 0.4,-1.097 0.22,0 0.4,-0.68 0.4,-1.512 0,-1.053 0.243,-1.686 0.8,-2.088 1.264,-0.911 1.264,-173.889 0,-174.8 -0.583,-0.42 -0.8,-1.035 -0.8,-2.265 0,-0.928 -0.18,-1.799 -0.4,-1.935 -0.22,-0.136 -0.4,-1.036 -0.4,-2 0,-0.964 -0.18,-1.864 -0.4,-2 -0.22,-0.136 -0.4,-0.566 -0.4,-0.956 0,-0.83 -1.637,-4.179 -2.524,-5.163 -0.338,-0.375 -0.734,-1.163 -0.881,-1.752 -0.147,-0.588 -0.611,-1.381 -1.031,-1.762 -0.42,-0.38 -0.764,-0.899 -0.764,-1.154 0,-0.255 -0.54,-0.981 -1.2,-1.613 -0.66,-0.632 -1.2,-1.355 -1.2,-1.605 0,-0.54 -1.685,-2.195 -2.235,-2.195 -0.211,0 -1.815,-1.44 -3.565,-3.2 -1.75,-1.76 -3.383,-3.2 -3.629,-3.2 -0.246,0 -0.773,-0.36 -1.171,-0.8 -0.398,-0.44 -0.938,-0.8 -1.2,-0.8 -0.262,0 -0.802,-0.36 -1.2,-0.8 -0.398,-0.44 -0.938,-0.8 -1.2,-0.8 -0.262,0 -0.804,-0.363 -1.205,-0.806 -0.402,-0.443 -1.424,-0.917 -2.271,-1.053 -0.848,-0.135 -1.638,-0.402 -1.756,-0.594 -0.119,-0.191 -0.546,-0.347 -0.951,-0.347 -0.405,0 -1.762,-0.54 -3.017,-1.2 -1.255,-0.66 -2.612,-1.2 -3.017,-1.2 -0.405,0 -0.847,-0.18 -0.983,-0.4 -0.136,-0.22 -0.687,-0.4 -1.224,-0.4 -0.537,0 -0.976,-0.18 -0.976,-0.4 0,-0.22 -0.54,-0.4 -1.2,-0.4 -0.66,0 -1.2,-0.18 -1.2,-0.4 0,-0.22 -0.54,-0.4 -1.2,-0.4 -0.66,0 -1.2,-0.18 -1.2,-0.4 0,-0.22 -0.619,-0.4 -1.376,-0.4 -0.757,0 -1.488,-0.18 -1.624,-0.4 -0.136,-0.22 -0.676,-0.4 -1.2,-0.4 -0.524,0 -1.064,-0.18 -1.2,-0.4 -0.136,-0.22 -1.036,-0.4 -2,-0.4 -0.964,0 -1.864,-0.18 -2,-0.4 -0.136,-0.22 -0.867,-0.4 -1.624,-0.4 -0.757,0 -1.376,-0.18 -1.376,-0.4 0,-0.222 -1.067,-0.4 -2.4,-0.4 -1.333,0 -2.4,-0.178 -2.4,-0.4 0,-0.222 -1.067,-0.4 -2.4,-0.4 -1.333,0 -2.4,-0.178 -2.4,-0.4 0,-0.225 -1.125,-0.4 -2.576,-0.4 -1.417,0 -2.688,-0.18 -2.824,-0.4 -0.143,-0.232 -2.337,-0.4 -5.224,-0.4 -3.051,0 -4.976,-0.155 -4.976,-0.4 0,-0.238 -1.525,-0.4 -3.776,-0.4 -2.087,0 -3.887,-0.179 -4.024,-0.4 C 231.639,54.139 220.604,54 200,54 c -20.604,0 -31.639,0.139 -31.8,0.4 m 123.302,99.5 0.102,37.7 H 200.002 108.4 v -37.533 c 0,-20.644 0.12,-37.654 0.268,-37.801 0.147,-0.147 41.322,-0.222 91.5,-0.167 l 91.232,0.101 0.102,37.7 M 138.6,238.15 c 14.741,5.086 21.587,22.417 13.845,35.05 -15.406,25.139 -53.474,7.646 -43.959,-20.2 3.979,-11.646 18.56,-18.836 30.114,-14.85 m 136.526,-0.375 c 7.886,2.1 14.685,8.489 16.839,15.825 0.291,0.99 0.687,2.322 0.882,2.96 0.499,1.637 0.439,7.469 -0.1,9.734 -5.141,21.605 -33.822,26.042 -44.633,6.906 -10.351,-18.324 6.792,-40.807 27.012,-35.425"
       inkscape:connector-curvature="0"
       style="fill:#ffffff;fill-rule:evenodd;stroke:none" />
    <path
       id="path1"
       d=""
       inkscape:connector-curvature="0"
       style="fill:#0000ff;fill-rule:evenodd;stroke:none" />
    <path
       id="path2"
       d="m 178.3,0.273 c -1.925,0.087 -3.5,0.331 -3.5,0.543 0,0.213 -1.42,0.384 -3.2,0.384 -1.867,0 -3.2,0.167 -3.2,0.4 0,0.22 -0.9,0.4 -2,0.4 -1.1,0 -2,0.18 -2,0.4 0,0.222 -1.067,0.4 -2.4,0.4 -1.333,0 -2.4,0.178 -2.4,0.4 0,0.22 -0.81,0.4 -1.8,0.4 -0.99,0 -1.8,0.18 -1.8,0.4 0,0.22 -0.72,0.4 -1.6,0.4 -0.88,0 -1.6,0.18 -1.6,0.4 0,0.22 -0.72,0.4 -1.6,0.4 -0.88,0 -1.6,0.18 -1.6,0.4 0,0.22 -0.72,0.4 -1.6,0.4 -0.88,0 -1.6,0.18 -1.6,0.4 0,0.22 -0.54,0.4 -1.2,0.4 -0.66,0 -1.2,0.18 -1.2,0.4 0,0.22 -0.63,0.4 -1.4,0.4 -0.77,0 -1.4,0.162 -1.4,0.361 0,0.198 -1.08,0.486 -2.4,0.639 -1.32,0.153 -2.4,0.441 -2.4,0.639 0,0.199 -0.54,0.361 -1.2,0.361 -0.66,0 -1.2,0.18 -1.2,0.4 0,0.22 -0.54,0.4 -1.2,0.4 -0.66,0 -1.2,0.18 -1.2,0.4 0,0.22 -0.54,0.4 -1.2,0.4 -0.66,0 -1.2,0.18 -1.2,0.4 0,0.22 -0.36,0.4 -0.8,0.4 -0.44,0 -0.8,0.18 -0.8,0.4 0,0.22 -0.324,0.4 -0.72,0.4 -0.894,0 -2.873,0.894 -2.877,1.3 -0.002,0.165 -0.543,0.3 -1.203,0.3 -0.66,0 -1.2,0.18 -1.2,0.4 0,0.22 -0.36,0.4 -0.8,0.4 -0.44,0 -0.8,0.18 -0.8,0.4 0,0.22 -0.36,0.4 -0.8,0.4 -0.44,0 -0.8,0.18 -0.8,0.4 0,0.22 -0.54,0.4 -1.2,0.4 -0.66,0 -1.2,0.18 -1.2,0.4 0,0.22 -0.36,0.4 -0.8,0.4 -0.44,0 -0.8,0.18 -0.8,0.4 0,0.22 -0.36,0.4 -0.8,0.4 -0.44,0 -0.8,0.18 -0.8,0.4 0,0.22 -0.36,0.4 -0.8,0.4 -0.44,0 -0.8,0.18 -0.8,0.4 0,0.22 -0.36,0.4 -0.8,0.4 -0.44,0 -0.8,0.18 -0.8,0.4 0,0.22 -0.27,0.4 -0.6,0.4 -0.33,0 -0.6,0.18 -0.6,0.4 0,0.22 -0.36,0.4 -0.8,0.4 -0.44,0 -0.8,0.18 -0.8,0.4 0,0.22 -0.36,0.4 -0.8,0.4 -0.44,0 -0.8,0.18 -0.8,0.4 0,0.22 -0.32,0.4 -0.712,0.4 -0.391,0 -0.971,0.36 -1.288,0.8 -0.317,0.44 -0.852,0.801 -1.188,0.802 -0.337,0.002 -1.128,0.272 -1.758,0.6 -0.63,0.329 -1.355,0.598 -1.611,0.598 -0.257,0 -0.726,0.36 -1.043,0.8 -0.317,0.44 -0.897,0.8 -1.288,0.8 -0.392,0 -0.712,0.18 -0.712,0.4 0,0.22 -0.32,0.4 -0.712,0.4 -0.391,0 -0.971,0.36 -1.288,0.8 -0.317,0.44 -0.767,0.8 -1,0.8 -0.233,0 -0.683,0.36 -1,0.8 -0.317,0.44 -0.897,0.8 -1.288,0.8 -0.392,0 -0.712,0.18 -0.712,0.4 0,0.22 -0.288,0.4 -0.64,0.4 -0.351,0 -1.143,0.54 -1.76,1.2 -0.617,0.66 -1.369,1.2 -1.672,1.2 -0.303,0 -0.811,0.36 -1.128,0.8 -0.317,0.44 -0.825,0.8 -1.128,0.8 -0.303,0 -1.055,0.54 -1.672,1.2 -0.617,0.66 -1.337,1.2 -1.6,1.2 -0.263,0 -0.983,0.54 -1.6,1.2 -0.617,0.66 -1.343,1.2 -1.615,1.2 -0.271,0 -0.91,0.45 -1.42,1 -0.51,0.55 -1.125,1 -1.368,1 -0.243,0 -1.501,1.08 -2.797,2.4 -1.296,1.32 -2.551,2.4 -2.791,2.4 -0.239,0 -2.403,1.98 -4.809,4.4 -2.406,2.42 -4.478,4.4 -4.605,4.4 -0.301,0 -2.195,1.894 -2.195,2.195 0,0.127 -1.98,2.199 -4.4,4.605 -2.42,2.406 -4.4,4.57 -4.4,4.809 0,0.24 -1.08,1.495 -2.4,2.791 -1.32,1.296 -2.4,2.554 -2.4,2.797 0,0.243 -0.45,0.858 -1,1.368 -0.55,0.51 -1,1.149 -1,1.42 0,0.272 -0.54,0.998 -1.2,1.615 -0.66,0.617 -1.2,1.337 -1.2,1.6 0,0.263 -0.54,0.983 -1.2,1.6 -0.66,0.617 -1.2,1.369 -1.2,1.672 0,0.303 -0.36,0.811 -0.8,1.128 -0.44,0.317 -0.8,0.825 -0.8,1.128 0,0.303 -0.54,1.055 -1.2,1.672 -0.66,0.617 -1.2,1.409 -1.2,1.76 0,0.352 -0.18,0.64 -0.4,0.64 -0.22,0 -0.4,0.32 -0.4,0.712 0,0.391 -0.36,0.971 -0.8,1.288 -0.44,0.317 -0.8,0.767 -0.8,1 0,0.233 -0.36,0.683 -0.8,1 -0.44,0.317 -0.8,0.897 -0.8,1.288 0,0.392 -0.18,0.712 -0.4,0.712 -0.22,0 -0.4,0.32 -0.4,0.712 0,0.391 -0.36,0.971 -0.8,1.288 -0.44,0.317 -0.8,0.786 -0.8,1.043 0,0.256 -0.269,0.981 -0.598,1.611 -0.328,0.63 -0.598,1.421 -0.6,1.758 -0.001,0.336 -0.362,0.871 -0.802,1.188 -0.44,0.317 -0.8,0.897 -0.8,1.288 0,0.392 -0.18,0.712 -0.4,0.712 -0.22,0 -0.4,0.36 -0.4,0.8 0,0.44 -0.18,0.8 -0.4,0.8 -0.22,0 -0.4,0.36 -0.4,0.8 0,0.44 -0.18,0.8 -0.4,0.8 -0.22,0 -0.4,0.27 -0.4,0.6 0,0.33 -0.18,0.6 -0.4,0.6 -0.22,0 -0.4,0.36 -0.4,0.8 0,0.44 -0.18,0.8 -0.4,0.8 -0.22,0 -0.4,0.36 -0.4,0.8 0,0.44 -0.18,0.8 -0.4,0.8 -0.22,0 -0.4,0.36 -0.4,0.8 0,0.44 -0.18,0.8 -0.4,0.8 -0.22,0 -0.4,0.36 -0.4,0.8 0,0.44 -0.18,0.8 -0.4,0.8 -0.22,0 -0.4,0.54 -0.4,1.2 0,0.66 -0.18,1.2 -0.4,1.2 -0.22,0 -0.4,0.36 -0.4,0.8 0,0.44 -0.18,0.8 -0.4,0.8 -0.22,0 -0.4,0.36 -0.4,0.8 0,0.44 -0.18,0.8 -0.4,0.8 -0.22,0 -0.4,0.54 -0.4,1.2 0,0.66 -0.135,1.201 -0.3,1.203 -0.406,0.004 -1.3,1.983 -1.3,2.877 0,0.396 -0.18,0.72 -0.4,0.72 -0.22,0 -0.4,0.36 -0.4,0.8 0,0.44 -0.18,0.8 -0.4,0.8 -0.22,0 -0.4,0.54 -0.4,1.2 0,0.66 -0.18,1.2 -0.4,1.2 -0.22,0 -0.4,0.54 -0.4,1.2 0,0.66 -0.18,1.2 -0.4,1.2 -0.22,0 -0.4,0.54 -0.4,1.2 0,0.66 -0.162,1.2 -0.361,1.2 -0.198,0 -0.486,1.08 -0.639,2.4 -0.153,1.32 -0.441,2.4 -0.639,2.4 -0.199,0 -0.361,0.63 -0.361,1.4 0,0.77 -0.18,1.4 -0.4,1.4 -0.22,0 -0.4,0.54 -0.4,1.2 0,0.66 -0.18,1.2 -0.4,1.2 -0.22,0 -0.4,0.72 -0.4,1.6 0,0.88 -0.18,1.6 -0.4,1.6 -0.22,0 -0.4,0.72 -0.4,1.6 0,0.88 -0.18,1.6 -0.4,1.6 -0.22,0 -0.4,0.72 -0.4,1.6 0,0.88 -0.18,1.6 -0.4,1.6 -0.22,0 -0.4,0.81 -0.4,1.8 0,0.99 -0.18,1.8 -0.4,1.8 -0.222,0 -0.4,1.067 -0.4,2.4 0,1.333 -0.178,2.4 -0.4,2.4 -0.22,0 -0.4,0.9 -0.4,2 0,1.1 -0.18,2 -0.4,2 -0.233,0 -0.4,1.322 -0.4,3.167 0,2.177 -0.156,3.218 -0.5,3.333 -0.732,0.244 -0.732,50.756 0,51 0.336,0.112 0.5,1.076 0.5,2.933 0,1.578 0.172,2.767 0.4,2.767 0.222,0 0.4,1.067 0.4,2.4 0,1.333 0.178,2.4 0.4,2.4 0.22,0 0.4,0.9 0.4,2 0,1.1 0.18,2 0.4,2 0.22,0 0.4,0.81 0.4,1.8 0,0.99 0.18,1.8 0.4,1.8 0.22,0 0.4,0.72 0.4,1.6 0,0.88 0.18,1.6 0.4,1.6 0.22,0 0.4,0.72 0.4,1.6 0,0.88 0.18,1.6 0.4,1.6 0.22,0 0.4,0.72 0.4,1.6 0,0.88 0.18,1.6 0.4,1.6 0.22,0 0.4,0.72 0.4,1.6 0,0.88 0.18,1.6 0.4,1.6 0.22,0 0.4,0.45 0.4,1 0,0.55 0.162,1 0.361,1 0.198,0 0.486,1.08 0.639,2.4 0.153,1.32 0.441,2.4 0.639,2.4 0.199,0 0.361,0.54 0.361,1.2 0,0.66 0.18,1.2 0.4,1.2 0.22,0 0.4,0.54 0.4,1.2 0,0.66 0.18,1.2 0.4,1.2 0.22,0 0.4,0.54 0.4,1.2 0,0.66 0.18,1.2 0.4,1.2 0.22,0 0.4,0.36 0.4,0.8 0,0.44 0.18,0.8 0.4,0.8 0.22,0 0.4,0.324 0.4,0.72 0,0.894 0.894,2.873 1.3,2.877 0.165,0.002 0.3,0.543 0.3,1.203 0,0.66 0.18,1.2 0.4,1.2 0.22,0 0.4,0.36 0.4,0.8 0,0.44 0.18,0.8 0.4,0.8 0.22,0 0.4,0.36 0.4,0.8 0,0.44 0.18,0.8 0.4,0.8 0.22,0 0.4,0.54 0.4,1.2 0,0.66 0.18,1.2 0.4,1.2 0.22,0 0.4,0.36 0.4,0.8 0,0.44 0.18,0.8 0.4,0.8 0.22,0 0.4,0.36 0.4,0.8 0,0.44 0.18,0.8 0.4,0.8 0.22,0 0.4,0.36 0.4,0.8 0,0.44 0.18,0.8 0.4,0.8 0.22,0 0.4,0.36 0.4,0.8 0,0.44 0.18,0.8 0.4,0.8 0.22,0 0.4,0.27 0.4,0.6 0,0.33 0.18,0.6 0.4,0.6 0.22,0 0.4,0.36 0.4,0.8 0,0.44 0.18,0.8 0.4,0.8 0.22,0 0.4,0.36 0.4,0.8 0,0.44 0.18,0.8 0.4,0.8 0.22,0 0.4,0.32 0.4,0.712 0,0.391 0.36,0.971 0.8,1.288 0.44,0.317 0.801,0.852 0.802,1.188 0.002,0.337 0.272,1.128 0.6,1.758 0.329,0.63 0.598,1.355 0.598,1.611 0,0.257 0.36,0.726 0.8,1.043 0.44,0.317 0.8,0.897 0.8,1.288 0,0.392 0.18,0.712 0.4,0.712 0.22,0 0.4,0.32 0.4,0.712 0,0.391 0.36,0.971 0.8,1.288 0.44,0.317 0.8,0.767 0.8,1 0,0.233 0.36,0.683 0.8,1 0.44,0.317 0.8,0.897 0.8,1.288 0,0.392 0.18,0.712 0.4,0.712 0.22,0 0.4,0.288 0.4,0.64 0,0.351 0.54,1.143 1.2,1.76 0.66,0.617 1.2,1.369 1.2,1.672 0,0.303 0.36,0.811 0.8,1.128 0.44,0.317 0.8,0.825 0.8,1.128 0,0.303 0.54,1.055 1.2,1.672 0.66,0.617 1.2,1.337 1.2,1.6 0,0.263 0.54,0.983 1.2,1.6 0.66,0.617 1.2,1.343 1.2,1.615 0,0.271 0.45,0.91 1,1.42 0.55,0.51 1,1.127 1,1.372 0,0.245 0.9,1.322 2,2.393 1.1,1.071 2,2.145 2,2.386 0,0.241 2.16,2.587 4.8,5.214 2.64,2.627 4.8,4.885 4.8,5.017 0,0.311 1.071,1.383 1.382,1.383 0.132,0 2.57,2.34 5.418,5.2 2.848,2.86 5.375,5.2 5.615,5.2 0.24,0 1.314,0.9 2.385,2 1.071,1.1 2.148,2 2.393,2 0.245,0 0.862,0.45 1.372,1 0.51,0.55 1.149,1 1.42,1 0.272,0 0.998,0.54 1.615,1.2 0.617,0.66 1.337,1.2 1.6,1.2 0.263,0 0.983,0.54 1.6,1.2 0.617,0.66 1.369,1.2 1.672,1.2 0.303,0 0.811,0.36 1.128,0.8 0.317,0.44 0.825,0.8 1.128,0.8 0.303,0 1.055,0.54 1.672,1.2 0.617,0.66 1.409,1.2 1.76,1.2 0.352,0 0.64,0.18 0.64,0.4 0,0.22 0.32,0.4 0.712,0.4 0.391,0 0.971,0.36 1.288,0.8 0.317,0.44 0.767,0.8 1,0.8 0.233,0 0.683,0.36 1,0.8 0.317,0.44 0.897,0.8 1.288,0.8 0.392,0 0.712,0.18 0.712,0.4 0,0.22 0.32,0.4 0.712,0.4 0.391,0 0.971,0.36 1.288,0.8 0.317,0.44 0.786,0.8 1.043,0.8 0.256,0 0.981,0.269 1.611,0.598 0.63,0.328 1.421,0.598 1.758,0.6 0.336,0.001 0.871,0.362 1.188,0.802 0.317,0.44 0.897,0.8 1.288,0.8 0.392,0 0.712,0.18 0.712,0.4 0,0.22 0.36,0.4 0.8,0.4 0.44,0 0.8,0.18 0.8,0.4 0,0.22 0.36,0.4 0.8,0.4 0.44,0 0.8,0.18 0.8,0.4 0,0.22 0.27,0.4 0.6,0.4 0.33,0 0.6,0.18 0.6,0.4 0,0.22 0.36,0.4 0.8,0.4 0.44,0 0.8,0.18 0.8,0.4 0,0.22 0.36,0.4 0.8,0.4 0.44,0 0.8,0.18 0.8,0.4 0,0.22 0.36,0.4 0.8,0.4 0.44,0 0.8,0.18 0.8,0.4 0,0.22 0.36,0.4 0.8,0.4 0.44,0 0.8,0.18 0.8,0.4 0,0.22 0.54,0.4 1.2,0.4 0.66,0 1.2,0.18 1.2,0.4 0,0.22 0.36,0.4 0.8,0.4 0.44,0 0.8,0.18 0.8,0.4 0,0.22 0.36,0.4 0.8,0.4 0.44,0 0.8,0.18 0.8,0.4 0,0.22 0.54,0.4 1.2,0.4 0.66,0 1.201,0.135 1.203,0.3 0.004,0.406 1.983,1.3 2.877,1.3 0.396,0 0.72,0.18 0.72,0.4 0,0.22 0.36,0.4 0.8,0.4 0.44,0 0.8,0.18 0.8,0.4 0,0.22 0.54,0.4 1.2,0.4 0.66,0 1.2,0.18 1.2,0.4 0,0.22 0.54,0.4 1.2,0.4 0.66,0 1.2,0.18 1.2,0.4 0,0.22 0.54,0.4 1.2,0.4 0.66,0 1.2,0.162 1.2,0.361 0,0.198 1.08,0.486 2.4,0.639 1.32,0.153 2.4,0.441 2.4,0.639 0,0.199 0.63,0.361 1.4,0.361 0.77,0 1.4,0.18 1.4,0.4 0,0.22 0.54,0.4 1.2,0.4 0.66,0 1.2,0.18 1.2,0.4 0,0.22 0.72,0.4 1.6,0.4 0.88,0 1.6,0.18 1.6,0.4 0,0.22 0.72,0.4 1.6,0.4 0.88,0 1.6,0.18 1.6,0.4 0,0.22 0.72,0.4 1.6,0.4 0.88,0 1.6,0.18 1.6,0.4 0,0.22 0.81,0.4 1.8,0.4 0.99,0 1.8,0.18 1.8,0.4 0,0.22 0.9,0.4 2,0.4 1.1,0 2,0.18 2,0.4 0,0.222 1.067,0.4 2.4,0.4 1.333,0 2.4,0.178 2.4,0.4 0,0.233 1.322,0.4 3.167,0.4 2.177,0 3.218,0.156 3.333,0.5 0.244,0.732 49.956,0.732 50.2,0 0.115,-0.344 1.156,-0.5 3.333,-0.5 1.845,0 3.167,-0.167 3.167,-0.4 0,-0.222 1.067,-0.4 2.4,-0.4 1.333,0 2.4,-0.178 2.4,-0.4 0,-0.22 0.9,-0.4 2,-0.4 1.1,0 2,-0.18 2,-0.4 0,-0.22 0.81,-0.4 1.8,-0.4 0.99,0 1.8,-0.18 1.8,-0.4 0,-0.22 0.72,-0.4 1.6,-0.4 0.88,0 1.6,-0.18 1.6,-0.4 0,-0.22 0.72,-0.4 1.6,-0.4 0.88,0 1.6,-0.18 1.6,-0.4 0,-0.22 0.72,-0.4 1.6,-0.4 0.88,0 1.6,-0.18 1.6,-0.4 0,-0.22 0.54,-0.4 1.2,-0.4 0.66,0 1.2,-0.18 1.2,-0.4 0,-0.22 0.63,-0.4 1.4,-0.4 0.77,0 1.4,-0.162 1.4,-0.361 0,-0.198 1.08,-0.486 2.4,-0.639 1.32,-0.153 2.4,-0.441 2.4,-0.639 0,-0.199 0.54,-0.361 1.2,-0.361 0.66,0 1.2,-0.18 1.2,-0.4 0,-0.22 0.54,-0.4 1.2,-0.4 0.66,0 1.2,-0.18 1.2,-0.4 0,-0.22 0.54,-0.4 1.2,-0.4 0.66,0 1.201,-0.135 1.203,-0.3 0.004,-0.339 1.923,-1.3 2.597,-1.3 0.674,0 2.593,-0.961 2.597,-1.3 0.002,-0.165 0.543,-0.3 1.203,-0.3 0.66,0 1.2,-0.18 1.2,-0.4 0,-0.22 0.36,-0.4 0.8,-0.4 0.44,0 0.8,-0.18 0.8,-0.4 0,-0.22 0.36,-0.4 0.8,-0.4 0.44,0 0.8,-0.18 0.8,-0.4 0,-0.22 0.54,-0.4 1.2,-0.4 0.66,0 1.2,-0.18 1.2,-0.4 0,-0.22 0.36,-0.4 0.8,-0.4 0.44,0 0.8,-0.18 0.8,-0.4 0,-0.22 0.36,-0.4 0.8,-0.4 0.44,0 0.8,-0.18 0.8,-0.4 0,-0.22 0.36,-0.4 0.8,-0.4 0.44,0 0.8,-0.18 0.8,-0.4 0,-0.22 0.36,-0.4 0.8,-0.4 0.44,0 0.8,-0.18 0.8,-0.4 0,-0.22 0.27,-0.4 0.6,-0.4 0.33,0 0.6,-0.18 0.6,-0.4 0,-0.22 0.36,-0.4 0.8,-0.4 0.44,0 0.8,-0.18 0.8,-0.4 0,-0.22 0.36,-0.4 0.8,-0.4 0.44,0 0.8,-0.18 0.8,-0.4 0,-0.22 0.32,-0.4 0.712,-0.4 0.391,0 0.971,-0.36 1.288,-0.8 0.317,-0.44 0.852,-0.801 1.188,-0.802 0.337,-0.002 1.128,-0.272 1.758,-0.6 0.63,-0.329 1.355,-0.598 1.611,-0.598 0.257,0 0.726,-0.36 1.043,-0.8 0.317,-0.44 0.897,-0.8 1.288,-0.8 0.392,0 0.712,-0.18 0.712,-0.4 0,-0.22 0.32,-0.4 0.712,-0.4 0.391,0 0.971,-0.36 1.288,-0.8 0.317,-0.44 0.767,-0.8 1,-0.8 0.233,0 0.683,-0.36 1,-0.8 0.317,-0.44 0.857,-0.8 1.2,-0.8 0.343,0 0.883,-0.36 1.2,-0.8 0.317,-0.44 0.857,-0.8 1.2,-0.8 0.343,0 0.883,-0.36 1.2,-0.8 0.317,-0.44 0.857,-0.8 1.2,-0.8 0.343,0 0.883,-0.36 1.2,-0.8 0.317,-0.44 0.825,-0.8 1.128,-0.8 0.303,0 1.055,-0.54 1.672,-1.2 0.617,-0.66 1.337,-1.2 1.6,-1.2 0.263,0 0.983,-0.54 1.6,-1.2 0.617,-0.66 1.342,-1.2 1.613,-1.2 0.271,0 1.087,-0.63 1.813,-1.4 0.726,-0.77 1.524,-1.4 1.773,-1.4 0.249,0 1.33,-0.9 2.401,-2 1.071,-1.1 2.145,-2 2.386,-2 0.241,0 2.587,-2.16 5.214,-4.8 2.627,-2.64 4.962,-4.8 5.188,-4.8 0.227,0 0.412,-0.185 0.412,-0.412 0,-0.226 2.16,-2.561 4.8,-5.188 2.64,-2.627 4.8,-4.973 4.8,-5.214 0,-0.241 0.9,-1.315 2,-2.386 1.1,-1.071 2,-2.152 2,-2.401 0,-0.249 0.63,-1.047 1.4,-1.773 0.77,-0.726 1.4,-1.542 1.4,-1.813 0,-0.271 0.54,-0.996 1.2,-1.613 0.66,-0.617 1.2,-1.337 1.2,-1.6 0,-0.263 0.54,-0.983 1.2,-1.6 0.66,-0.617 1.2,-1.369 1.2,-1.672 0,-0.303 0.36,-0.811 0.8,-1.128 0.44,-0.317 0.8,-0.857 0.8,-1.2 0,-0.343 0.36,-0.883 0.8,-1.2 0.44,-0.317 0.8,-0.857 0.8,-1.2 0,-0.343 0.36,-0.883 0.8,-1.2 0.44,-0.317 0.8,-0.857 0.8,-1.2 0,-0.343 0.36,-0.883 0.8,-1.2 0.44,-0.317 0.8,-0.767 0.8,-1 0,-0.233 0.36,-0.683 0.8,-1 0.44,-0.317 0.8,-0.897 0.8,-1.288 0,-0.392 0.18,-0.712 0.4,-0.712 0.22,0 0.4,-0.32 0.4,-0.712 0,-0.391 0.36,-0.971 0.8,-1.288 0.44,-0.317 0.8,-0.786 0.8,-1.043 0,-0.256 0.269,-0.981 0.598,-1.611 0.328,-0.63 0.598,-1.421 0.6,-1.758 0.001,-0.336 0.362,-0.871 0.802,-1.188 0.44,-0.317 0.8,-0.897 0.8,-1.288 0,-0.392 0.18,-0.712 0.4,-0.712 0.22,0 0.4,-0.36 0.4,-0.8 0,-0.44 0.18,-0.8 0.4,-0.8 0.22,0 0.4,-0.36 0.4,-0.8 0,-0.44 0.18,-0.8 0.4,-0.8 0.22,0 0.4,-0.27 0.4,-0.6 0,-0.33 0.18,-0.6 0.4,-0.6 0.22,0 0.4,-0.36 0.4,-0.8 0,-0.44 0.18,-0.8 0.4,-0.8 0.22,0 0.4,-0.36 0.4,-0.8 0,-0.44 0.18,-0.8 0.4,-0.8 0.22,0 0.4,-0.36 0.4,-0.8 0,-0.44 0.18,-0.8 0.4,-0.8 0.22,0 0.4,-0.36 0.4,-0.8 0,-0.44 0.18,-0.8 0.4,-0.8 0.22,0 0.4,-0.54 0.4,-1.2 0,-0.66 0.18,-1.2 0.4,-1.2 0.22,0 0.4,-0.36 0.4,-0.8 0,-0.44 0.18,-0.8 0.4,-0.8 0.22,0 0.4,-0.36 0.4,-0.8 0,-0.44 0.18,-0.8 0.4,-0.8 0.22,0 0.4,-0.54 0.4,-1.2 0,-0.66 0.135,-1.201 0.3,-1.203 0.406,-0.004 1.3,-1.983 1.3,-2.877 0,-0.396 0.18,-0.72 0.4,-0.72 0.22,0 0.4,-0.36 0.4,-0.8 0,-0.44 0.18,-0.8 0.4,-0.8 0.22,0 0.4,-0.54 0.4,-1.2 0,-0.66 0.18,-1.2 0.4,-1.2 0.22,0 0.4,-0.54 0.4,-1.2 0,-0.66 0.18,-1.2 0.4,-1.2 0.22,0 0.4,-0.54 0.4,-1.2 0,-0.66 0.162,-1.2 0.361,-1.2 0.198,0 0.486,-1.08 0.639,-2.4 0.153,-1.32 0.441,-2.4 0.639,-2.4 0.199,0 0.361,-0.63 0.361,-1.4 0,-0.77 0.18,-1.4 0.4,-1.4 0.22,0 0.4,-0.54 0.4,-1.2 0,-0.66 0.18,-1.2 0.4,-1.2 0.22,0 0.4,-0.72 0.4,-1.6 0,-0.88 0.18,-1.6 0.4,-1.6 0.22,0 0.4,-0.72 0.4,-1.6 0,-0.88 0.18,-1.6 0.4,-1.6 0.22,0 0.4,-0.72 0.4,-1.6 0,-0.88 0.18,-1.6 0.4,-1.6 0.22,0 0.4,-0.81 0.4,-1.8 0,-0.99 0.18,-1.8 0.4,-1.8 0.22,0 0.4,-0.9 0.4,-2 0,-1.1 0.18,-2 0.4,-2 0.222,0 0.4,-1.067 0.4,-2.4 0,-1.333 0.178,-2.4 0.4,-2.4 0.233,0 0.4,-1.322 0.4,-3.167 0,-2.177 0.156,-3.218 0.5,-3.333 0.393,-0.131 0.5,-5.509 0.5,-25.1 0,-19.591 -0.107,-24.969 -0.5,-25.1 -0.344,-0.115 -0.5,-1.156 -0.5,-3.333 0,-1.845 -0.167,-3.167 -0.4,-3.167 -0.22,0 -0.4,-0.9 -0.4,-2 0,-1.1 -0.18,-2 -0.4,-2 -0.222,0 -0.4,-1.067 -0.4,-2.4 0,-1.333 -0.178,-2.4 -0.4,-2.4 -0.22,0 -0.4,-0.63 -0.4,-1.4 0,-0.77 -0.18,-1.4 -0.4,-1.4 -0.22,0 -0.4,-0.9 -0.4,-2 0,-1.1 -0.18,-2 -0.4,-2 -0.22,0 -0.4,-0.72 -0.4,-1.6 0,-0.88 -0.18,-1.6 -0.4,-1.6 -0.22,0 -0.4,-0.72 -0.4,-1.6 0,-0.88 -0.18,-1.6 -0.4,-1.6 -0.22,0 -0.4,-0.54 -0.4,-1.2 0,-0.66 -0.18,-1.2 -0.4,-1.2 -0.22,0 -0.4,-0.63 -0.4,-1.4 0,-0.77 -0.162,-1.4 -0.361,-1.4 -0.198,0 -0.486,-1.08 -0.639,-2.4 -0.153,-1.32 -0.441,-2.4 -0.639,-2.4 -0.199,0 -0.361,-0.54 -0.361,-1.2 0,-0.66 -0.18,-1.2 -0.4,-1.2 -0.22,0 -0.4,-0.54 -0.4,-1.2 0,-0.66 -0.18,-1.2 -0.4,-1.2 -0.22,0 -0.4,-0.54 -0.4,-1.2 0,-0.66 -0.18,-1.2 -0.4,-1.2 -0.22,0 -0.4,-0.36 -0.4,-0.8 0,-0.44 -0.18,-0.8 -0.4,-0.8 -0.22,0 -0.4,-0.324 -0.4,-0.72 0,-0.894 -0.894,-2.873 -1.3,-2.877 -0.165,-0.002 -0.3,-0.543 -0.3,-1.203 0,-0.66 -0.18,-1.2 -0.4,-1.2 -0.22,0 -0.4,-0.36 -0.4,-0.8 0,-0.44 -0.18,-0.8 -0.4,-0.8 -0.22,0 -0.4,-0.36 -0.4,-0.8 0,-0.44 -0.18,-0.8 -0.4,-0.8 -0.22,0 -0.4,-0.36 -0.4,-0.8 0,-0.44 -0.18,-0.8 -0.4,-0.8 -0.22,0 -0.4,-0.54 -0.4,-1.2 0,-0.66 -0.18,-1.2 -0.4,-1.2 -0.22,0 -0.4,-0.36 -0.4,-0.8 0,-0.44 -0.18,-0.8 -0.4,-0.8 -0.22,0 -0.4,-0.36 -0.4,-0.8 0,-0.44 -0.18,-0.8 -0.4,-0.8 -0.22,0 -0.4,-0.36 -0.4,-0.8 0,-0.44 -0.18,-0.8 -0.4,-0.8 -0.22,0 -0.4,-0.27 -0.4,-0.6 0,-0.33 -0.18,-0.6 -0.4,-0.6 -0.22,0 -0.4,-0.36 -0.4,-0.8 0,-0.44 -0.18,-0.8 -0.4,-0.8 -0.22,0 -0.4,-0.36 -0.4,-0.8 0,-0.44 -0.18,-0.8 -0.4,-0.8 -0.22,0 -0.4,-0.32 -0.4,-0.712 0,-0.391 -0.36,-0.971 -0.8,-1.288 -0.44,-0.317 -0.801,-0.852 -0.802,-1.188 -0.002,-0.337 -0.272,-1.128 -0.6,-1.758 -0.329,-0.63 -0.598,-1.355 -0.598,-1.611 0,-0.257 -0.36,-0.726 -0.8,-1.043 -0.44,-0.317 -0.8,-0.897 -0.8,-1.288 0,-0.392 -0.18,-0.712 -0.4,-0.712 -0.22,0 -0.4,-0.32 -0.4,-0.712 0,-0.391 -0.36,-0.971 -0.8,-1.288 -0.44,-0.317 -0.8,-0.767 -0.8,-1 0,-0.233 -0.36,-0.683 -0.8,-1 -0.44,-0.317 -0.8,-0.857 -0.8,-1.2 0,-0.343 -0.36,-0.883 -0.8,-1.2 -0.44,-0.317 -0.8,-0.857 -0.8,-1.2 0,-0.343 -0.36,-0.883 -0.8,-1.2 -0.44,-0.317 -0.8,-0.857 -0.8,-1.2 0,-0.343 -0.36,-0.883 -0.8,-1.2 -0.44,-0.317 -0.8,-0.825 -0.8,-1.128 0,-0.303 -0.54,-1.055 -1.2,-1.672 -0.66,-0.617 -1.2,-1.337 -1.2,-1.6 0,-0.263 -0.54,-0.983 -1.2,-1.6 -0.66,-0.617 -1.2,-1.342 -1.2,-1.613 0,-0.271 -0.63,-1.087 -1.4,-1.813 -0.77,-0.726 -1.4,-1.524 -1.4,-1.773 0,-0.249 -0.9,-1.33 -2,-2.401 -1.1,-1.071 -2,-2.145 -2,-2.386 0,-0.241 -2.16,-2.587 -4.8,-5.214 -2.64,-2.627 -4.8,-4.962 -4.8,-5.188 0,-0.227 -0.185,-0.412 -0.412,-0.412 -0.226,0 -2.561,-2.16 -5.188,-4.8 -2.627,-2.64 -4.973,-4.8 -5.214,-4.8 -0.241,0 -1.315,-0.9 -2.386,-2 -1.071,-1.1 -2.152,-2 -2.401,-2 -0.249,0 -1.047,-0.63 -1.773,-1.4 -0.726,-0.77 -1.542,-1.4 -1.813,-1.4 -0.271,0 -0.996,-0.54 -1.613,-1.2 -0.617,-0.66 -1.337,-1.2 -1.6,-1.2 -0.263,0 -0.983,-0.54 -1.6,-1.2 -0.617,-0.66 -1.369,-1.2 -1.672,-1.2 -0.303,0 -0.811,-0.36 -1.128,-0.8 -0.317,-0.44 -0.825,-0.8 -1.128,-0.8 -0.303,0 -1.055,-0.54 -1.672,-1.2 -0.617,-0.66 -1.409,-1.2 -1.76,-1.2 -0.352,0 -0.64,-0.18 -0.64,-0.4 0,-0.22 -0.32,-0.4 -0.712,-0.4 -0.391,0 -0.971,-0.36 -1.288,-0.8 -0.317,-0.44 -0.767,-0.8 -1,-0.8 -0.233,0 -0.683,-0.36 -1,-0.8 -0.317,-0.44 -0.897,-0.8 -1.288,-0.8 -0.392,0 -0.712,-0.18 -0.712,-0.4 0,-0.22 -0.32,-0.4 -0.712,-0.4 -0.391,0 -0.971,-0.36 -1.288,-0.8 -0.317,-0.44 -0.786,-0.8 -1.043,-0.8 -0.256,0 -0.981,-0.269 -1.611,-0.598 -0.63,-0.328 -1.421,-0.598 -1.758,-0.6 -0.336,-0.001 -0.871,-0.362 -1.188,-0.802 -0.317,-0.44 -0.897,-0.8 -1.288,-0.8 -0.392,0 -0.712,-0.18 -0.712,-0.4 0,-0.22 -0.36,-0.4 -0.8,-0.4 -0.44,0 -0.8,-0.18 -0.8,-0.4 0,-0.22 -0.36,-0.4 -0.8,-0.4 -0.44,0 -0.8,-0.18 -0.8,-0.4 0,-0.22 -0.27,-0.4 -0.6,-0.4 -0.33,0 -0.6,-0.18 -0.6,-0.4 0,-0.22 -0.36,-0.4 -0.8,-0.4 -0.44,0 -0.8,-0.18 -0.8,-0.4 0,-0.22 -0.36,-0.4 -0.8,-0.4 -0.44,0 -0.8,-0.18 -0.8,-0.4 0,-0.22 -0.36,-0.4 -0.8,-0.4 -0.44,0 -0.8,-0.18 -0.8,-0.4 0,-0.22 -0.36,-0.4 -0.8,-0.4 -0.44,0 -0.8,-0.18 -0.8,-0.4 0,-0.22 -0.54,-0.4 -1.2,-0.4 -0.66,0 -1.2,-0.18 -1.2,-0.4 0,-0.22 -0.36,-0.4 -0.8,-0.4 -0.44,0 -0.8,-0.18 -0.8,-0.4 0,-0.22 -0.36,-0.4 -0.8,-0.4 -0.44,0 -0.8,-0.18 -0.8,-0.4 0,-0.22 -0.54,-0.4 -1.2,-0.4 -0.66,0 -1.201,-0.135 -1.203,-0.3 -0.004,-0.339 -1.923,-1.3 -2.597,-1.3 -0.674,0 -2.593,-0.961 -2.597,-1.3 -0.002,-0.165 -0.543,-0.3 -1.203,-0.3 -0.66,0 -1.2,-0.18 -1.2,-0.4 0,-0.22 -0.54,-0.4 -1.2,-0.4 -0.66,0 -1.2,-0.18 -1.2,-0.4 0,-0.22 -0.54,-0.4 -1.2,-0.4 -0.66,0 -1.2,-0.162 -1.2,-0.361 0,-0.198 -1.08,-0.486 -2.4,-0.639 -1.32,-0.153 -2.4,-0.441 -2.4,-0.639 0,-0.199 -0.63,-0.361 -1.4,-0.361 -0.77,0 -1.4,-0.18 -1.4,-0.4 0,-0.22 -0.54,-0.4 -1.2,-0.4 -0.66,0 -1.2,-0.18 -1.2,-0.4 0,-0.22 -0.72,-0.4 -1.6,-0.4 -0.88,0 -1.6,-0.18 -1.6,-0.4 0,-0.22 -0.72,-0.4 -1.6,-0.4 -0.88,0 -1.6,-0.18 -1.6,-0.4 0,-0.22 -0.72,-0.4 -1.6,-0.4 -0.88,0 -1.6,-0.18 -1.6,-0.4 0,-0.22 -0.81,-0.4 -1.8,-0.4 -0.99,0 -1.8,-0.18 -1.8,-0.4 0,-0.222 -1.067,-0.4 -2.4,-0.4 -1.333,0 -2.4,-0.178 -2.4,-0.4 0,-0.22 -0.9,-0.4 -2,-0.4 -1.1,0 -2,-0.18 -2,-0.4 0,-0.233 -1.322,-0.4 -3.167,-0.4 -2.112,0 -3.22,-0.16 -3.327,-0.481 C 224.947,0.242 187.003,-0.119 178.3,0.273 m 30.9,6.568 c 12.619,0.604 20.852,1.64 31.3,3.941 6.843,1.506 8.147,1.831 13,3.241 0.715,0.207 1.885,0.534 2.6,0.725 4.127,1.106 16.621,5.773 22.1,8.255 3.501,1.586 12.367,5.939 12.6,6.186 0.11,0.117 0.74,0.477 1.4,0.801 0.66,0.324 2.343,1.269 3.741,2.1 1.397,0.83 2.606,1.51 2.686,1.51 0.367,0 14.17,9.081 14.573,9.587 0.11,0.138 0.83,0.684 1.6,1.213 11.949,8.206 32.594,28.851 40.8,40.8 0.529,0.77 1.077,1.49 1.218,1.6 0.518,0.403 7.998,11.806 9.643,14.7 0.406,0.715 1.127,1.975 1.601,2.8 0.473,0.825 1.238,2.22 1.7,3.1 0.461,0.88 0.936,1.69 1.055,1.8 0.252,0.232 4.115,8.1 5.99,12.2 2.832,6.193 8.393,21.388 8.393,22.934 0,0.45 0.159,0.917 0.354,1.037 0.195,0.121 0.45,0.716 0.567,1.324 0.117,0.608 0.42,1.825 0.673,2.705 0.464,1.617 0.749,2.765 1.59,6.4 0.85,3.676 1.256,5.584 1.637,7.7 0.209,1.155 0.566,3.135 0.794,4.4 0.448,2.481 0.987,6.413 1.578,11.5 1.181,10.165 1.181,31.035 0,41.2 -0.591,5.087 -1.13,9.019 -1.578,11.5 -0.228,1.265 -0.585,3.245 -0.794,4.4 -0.396,2.197 -0.884,4.471 -1.607,7.5 -0.237,0.99 -0.541,2.479 -0.676,3.31 -0.135,0.83 -0.402,1.606 -0.592,1.723 -0.19,0.118 -0.346,0.585 -0.346,1.038 0,0.453 -0.351,1.928 -0.781,3.276 -0.429,1.349 -1.351,4.253 -2.048,6.453 -1.352,4.268 -4.57,12.91 -5.941,15.956 -0.456,1.014 -1.205,2.699 -1.664,3.744 -1.29,2.938 -4.503,9.477 -4.767,9.7 -0.13,0.11 -0.727,1.19 -1.327,2.4 -0.599,1.21 -1.63,3.1 -2.29,4.2 -0.66,1.1 -1.317,2.27 -1.46,2.6 -0.35,0.808 -9.343,14.547 -9.688,14.8 -0.15,0.11 -0.705,0.83 -1.234,1.6 -0.898,1.308 -7.098,9.159 -7.581,9.6 -0.12,0.11 -1.291,1.46 -2.601,3 -3.076,3.615 -14.403,14.942 -18.018,18.018 -1.54,1.31 -2.89,2.481 -3,2.601 -0.441,0.483 -8.292,6.683 -9.6,7.581 -0.77,0.529 -1.49,1.084 -1.6,1.234 -0.253,0.345 -13.992,9.338 -14.8,9.688 -0.33,0.143 -1.5,0.8 -2.6,1.46 -1.1,0.66 -2.99,1.691 -4.2,2.29 -1.21,0.6 -2.29,1.197 -2.4,1.327 -0.226,0.267 -6.758,3.475 -9.8,4.813 -1.1,0.483 -2.785,1.232 -3.744,1.664 -2.964,1.333 -11.652,4.563 -15.856,5.895 -2.2,0.697 -5.104,1.619 -6.453,2.048 -1.348,0.43 -2.823,0.781 -3.276,0.781 -0.453,0 -0.92,0.156 -1.038,0.346 -0.117,0.19 -0.893,0.457 -1.723,0.592 -0.831,0.135 -2.32,0.439 -3.31,0.676 -3.029,0.723 -5.303,1.211 -7.5,1.607 -1.155,0.209 -3.135,0.566 -4.4,0.794 -2.481,0.448 -6.413,0.987 -11.5,1.578 -10.165,1.181 -31.035,1.181 -41.2,0 -5.087,-0.591 -9.019,-1.13 -11.5,-1.578 -1.265,-0.228 -3.245,-0.585 -4.4,-0.794 -2.152,-0.388 -4.475,-0.884 -7.3,-1.56 -0.88,-0.21 -2.41,-0.568 -3.4,-0.796 -0.99,-0.227 -2.52,-0.62 -3.4,-0.872 -0.88,-0.252 -2.097,-0.555 -2.705,-0.672 -0.608,-0.117 -1.203,-0.372 -1.324,-0.567 -0.12,-0.195 -0.587,-0.354 -1.037,-0.354 -1.546,0 -16.741,-5.561 -22.934,-8.393 -4.1,-1.875 -11.968,-5.738 -12.2,-5.99 -0.11,-0.119 -0.92,-0.594 -1.8,-1.055 -0.88,-0.462 -2.275,-1.227 -3.1,-1.7 -0.825,-0.474 -2.085,-1.195 -2.8,-1.601 -2.894,-1.645 -14.297,-9.125 -14.7,-9.643 -0.11,-0.141 -0.83,-0.689 -1.6,-1.218 -11.949,-8.206 -32.594,-28.851 -40.8,-40.8 -0.529,-0.77 -1.075,-1.49 -1.213,-1.6 -0.506,-0.403 -9.587,-14.206 -9.587,-14.573 0,-0.08 -0.68,-1.289 -1.51,-2.686 -0.831,-1.398 -1.776,-3.081 -2.1,-3.741 -0.324,-0.66 -0.684,-1.29 -0.801,-1.4 -0.247,-0.233 -4.6,-9.099 -6.186,-12.6 -2.524,-5.57 -7.181,-18.062 -8.277,-22.2 -0.204,-0.77 -0.541,-1.985 -0.749,-2.7 -1.456,-5.017 -1.671,-5.878 -3.195,-12.8 -2.346,-10.653 -3.345,-18.714 -3.941,-31.8 -0.611,-13.407 0.35,-30.327 2.322,-40.9 1.157,-6.199 1.254,-6.681 2.415,-11.9 0.706,-3.172 1.301,-5.462 2.445,-9.4 0.207,-0.715 0.534,-1.885 0.725,-2.6 1.11,-4.142 5.793,-16.675 8.258,-22.1 1.494,-3.288 6.053,-12.532 6.902,-13.992 0.38,-0.656 1.367,-2.339 2.192,-3.741 0.825,-1.402 1.5,-2.63 1.5,-2.729 0,-0.199 2.434,-3.996 6.115,-9.538 2.097,-3.159 7.689,-10.849 8.288,-11.4 0.12,-0.11 0.838,-1.01 1.597,-2 0.759,-0.99 1.476,-1.89 1.593,-2 0.118,-0.11 1.466,-1.64 2.995,-3.4 C 57.773,68.875 68.875,57.773 73,54.188 c 1.76,-1.529 3.29,-2.877 3.4,-2.995 0.11,-0.117 1.01,-0.834 2,-1.593 0.99,-0.759 1.89,-1.477 2,-1.597 0.551,-0.599 8.241,-6.191 11.4,-8.288 5.542,-3.681 9.339,-6.115 9.538,-6.115 0.099,0 1.327,-0.675 2.729,-1.5 1.402,-0.825 3.085,-1.812 3.741,-2.192 1.46,-0.849 10.704,-5.408 13.992,-6.902 5.334,-2.424 17.85,-7.109 22,-8.235 0.66,-0.179 1.83,-0.506 2.6,-0.726 5.428,-1.551 6.234,-1.751 13.1,-3.263 10.056,-2.215 19.873,-3.485 30.5,-3.948 9.678,-0.421 10.251,-0.421 19.2,0.007 m -18.4,4.406 c -4.07,0.154 -9.02,0.478 -11,0.719 -1.98,0.24 -4.95,0.6 -6.6,0.799 -7.485,0.905 -18.438,3.288 -28,6.09 -0.77,0.226 -1.897,0.507 -2.505,0.624 -0.608,0.117 -1.203,0.372 -1.324,0.567 -0.12,0.195 -0.622,0.354 -1.115,0.354 -0.493,0 -1.067,0.143 -1.276,0.318 -0.209,0.175 -1.1,0.547 -1.98,0.827 -0.88,0.279 -1.96,0.66 -2.4,0.845 -0.44,0.185 -2.431,0.969 -4.424,1.742 C 123.84,26.588 113.096,31.67 107,35.094 97.698,40.319 86.321,48.226 77.784,55.4 69.973,61.963 58.454,73.77 52.6,81.214 c -12.615,16.04 -21.888,31.99 -28.468,48.962 -0.773,1.993 -1.557,3.984 -1.742,4.424 -0.185,0.44 -0.566,1.52 -0.845,2.4 -0.28,0.88 -0.652,1.771 -0.827,1.98 -0.175,0.209 -0.318,0.783 -0.318,1.276 0,0.493 -0.159,0.995 -0.354,1.115 -0.195,0.121 -0.45,0.716 -0.567,1.324 -0.117,0.608 -0.408,1.78 -0.646,2.605 -0.238,0.825 -0.601,2.085 -0.806,2.8 -2.989,10.432 -4.842,20.307 -6.025,32.1 -0.221,2.2 -0.504,4.44 -0.629,4.979 -0.414,1.779 -0.252,27.441 0.198,31.469 1.101,9.833 2.428,18.742 3.479,23.352 1.132,4.96 2.215,9.405 2.535,10.4 0.177,0.55 0.547,1.81 0.823,2.8 0.967,3.479 1.306,4.607 1.621,5.4 0.175,0.44 0.699,1.97 1.164,3.4 0.464,1.43 1.016,2.913 1.226,3.295 0.21,0.382 0.381,0.879 0.381,1.104 0,0.225 0.34,1.173 0.756,2.105 0.415,0.933 1.026,2.416 1.357,3.296 1.89,5.026 10.353,22.266 11.487,23.4 0.11,0.11 0.636,1.01 1.168,2 1.551,2.884 9.415,14.452 12.147,17.868 1.378,1.723 2.771,3.508 3.095,3.967 4.096,5.798 22.357,24.059 28.155,28.155 0.459,0.324 2.237,1.711 3.949,3.081 3.596,2.876 14.835,10.529 15.463,10.529 0.232,0 0.423,0.135 0.423,0.301 0,0.165 0.855,0.746 1.9,1.29 1.045,0.544 1.99,1.084 2.1,1.199 1.042,1.093 18.532,9.681 23.4,11.49 2.604,0.967 3.784,1.436 6.3,2.501 1.123,0.475 9.875,3.326 12.3,4.007 0.99,0.278 2.25,0.65 2.8,0.827 1.091,0.351 6.176,1.574 10.6,2.55 5.208,1.148 12.526,2.24 23.085,3.444 5.028,0.573 27.802,0.578 33.169,0.007 9.922,-1.057 12.132,-1.378 20.946,-3.048 4.86,-0.921 9.855,-2.093 14.5,-3.402 0.715,-0.201 1.885,-0.524 2.6,-0.718 2.289,-0.619 7.677,-2.453 8.395,-2.857 0.382,-0.215 0.969,-0.391 1.305,-0.391 0.336,0 0.923,-0.159 1.305,-0.353 0.382,-0.195 1.235,-0.576 1.895,-0.847 0.66,-0.271 1.513,-0.652 1.895,-0.847 0.382,-0.194 0.879,-0.353 1.104,-0.353 0.225,0 1.263,-0.378 2.305,-0.84 1.043,-0.462 2.256,-0.989 2.696,-1.171 0.44,-0.183 3.95,-1.852 7.8,-3.709 6.164,-2.974 8.237,-4.085 13.4,-7.182 0.66,-0.396 1.515,-0.826 1.9,-0.956 0.385,-0.129 0.7,-0.394 0.7,-0.589 0,-0.194 0.197,-0.353 0.439,-0.353 0.76,0 10.629,-6.878 18.21,-12.692 9.027,-6.922 23.337,-21.232 30.259,-30.259 5.814,-7.581 12.692,-17.45 12.692,-18.21 0,-0.242 0.159,-0.439 0.353,-0.439 0.195,0 0.454,-0.315 0.576,-0.7 0.217,-0.685 1.475,-2.904 1.871,-3.3 0.611,-0.611 8.607,-16.461 9.989,-19.8 0.182,-0.44 0.709,-1.653 1.171,-2.696 0.462,-1.042 0.84,-2.08 0.84,-2.305 0,-0.225 0.159,-0.722 0.353,-1.104 0.195,-0.382 0.576,-1.235 0.847,-1.895 0.271,-0.66 0.652,-1.513 0.847,-1.895 0.194,-0.382 0.353,-0.969 0.353,-1.305 0,-0.336 0.176,-0.923 0.391,-1.305 0.39,-0.694 2.211,-6.022 2.835,-8.295 0.181,-0.66 0.504,-1.83 0.718,-2.6 1.409,-5.073 2.501,-9.73 3.424,-14.6 1.67,-8.814 1.991,-11.024 3.048,-20.946 0.571,-5.367 0.566,-28.141 -0.007,-33.169 -1.204,-10.559 -2.296,-17.877 -3.444,-23.085 -0.976,-4.424 -2.199,-9.509 -2.55,-10.6 -0.177,-0.55 -0.549,-1.81 -0.827,-2.8 -0.743,-2.648 -3.557,-11.241 -4.061,-12.4 -0.239,-0.55 -0.566,-1.36 -0.727,-1.8 -0.161,-0.44 -0.48,-1.25 -0.709,-1.8 -0.229,-0.55 -0.684,-1.72 -1.011,-2.6 -1.809,-4.868 -10.397,-22.358 -11.49,-23.4 -0.115,-0.11 -0.655,-1.055 -1.199,-2.1 -0.544,-1.045 -1.125,-1.9 -1.29,-1.9 -0.166,0 -0.301,-0.191 -0.301,-0.423 0,-0.628 -7.653,-11.867 -10.529,-15.463 -1.37,-1.712 -2.757,-3.49 -3.081,-3.949 -4.096,-5.798 -22.357,-24.059 -28.155,-28.155 -0.459,-0.324 -2.244,-1.717 -3.967,-3.095 -3.416,-2.732 -14.984,-10.596 -17.868,-12.147 -0.99,-0.532 -1.89,-1.058 -2,-1.168 -1.134,-1.134 -18.374,-9.597 -23.4,-11.487 -0.88,-0.331 -2.363,-0.942 -3.296,-1.357 -0.932,-0.416 -1.88,-0.756 -2.105,-0.756 -0.225,0 -0.722,-0.171 -1.104,-0.381 -0.382,-0.21 -1.865,-0.762 -3.295,-1.226 -1.43,-0.465 -2.96,-0.993 -3.4,-1.174 -0.44,-0.18 -1.61,-0.553 -2.6,-0.827 -2.548,-0.708 -4.44,-1.254 -5.6,-1.616 C 249.389,17.26 244.768,16.138 240,15.05 226.42,11.953 208.543,10.571 190.8,11.247 M 232,54 c 0,0.238 1.525,0.4 3.776,0.4 2.087,0 3.887,0.179 4.024,0.4 0.143,0.232 2.337,0.4 5.224,0.4 3.051,0 4.976,0.155 4.976,0.4 0,0.225 1.125,0.4 2.576,0.4 1.417,0 2.688,0.18 2.824,0.4 0.136,0.22 1.216,0.4 2.4,0.4 1.184,0 2.264,0.18 2.4,0.4 0.136,0.22 1.216,0.4 2.4,0.4 1.184,0 2.264,0.18 2.4,0.4 0.136,0.22 0.867,0.4 1.624,0.4 0.757,0 1.376,0.18 1.376,0.4 0,0.22 0.9,0.4 2,0.4 1.1,0 2,0.18 2,0.4 0,0.22 0.54,0.4 1.2,0.4 0.66,0 1.2,0.18 1.2,0.4 0,0.22 0.619,0.4 1.376,0.4 0.757,0 1.488,0.18 1.624,0.4 0.136,0.22 0.676,0.4 1.2,0.4 0.524,0 1.064,0.18 1.2,0.4 0.136,0.22 0.676,0.4 1.2,0.4 0.524,0 1.064,0.18 1.2,0.4 0.136,0.22 0.676,0.4 1.2,0.4 0.524,0 1.064,0.18 1.2,0.4 0.136,0.22 0.58,0.4 0.986,0.4 0.798,0 4.129,1.609 4.347,2.1 0.074,0.165 0.659,0.3 1.3,0.3 0.642,0 1.167,0.18 1.167,0.4 0,0.22 0.462,0.4 1.026,0.4 1.191,0 2.634,0.68 3.094,1.458 0.176,0.298 0.559,0.542 0.851,0.542 0.292,0 0.758,0.273 1.035,0.607 0.277,0.334 1.109,0.895 1.849,1.246 0.74,0.351 1.345,0.798 1.345,0.993 0,0.195 0.278,0.354 0.617,0.354 0.34,0 2.042,1.44 3.783,3.2 1.741,1.76 3.299,3.2 3.461,3.2 0.453,0 2.539,2.097 2.539,2.553 0,0.222 0.473,0.897 1.05,1.5 1.1,1.147 1.963,2.464 2.39,3.647 0.139,0.385 0.412,0.7 0.607,0.7 0.194,0 0.353,0.32 0.353,0.712 0,0.391 0.36,0.971 0.8,1.288 0.44,0.317 0.8,0.897 0.8,1.288 0,0.392 0.18,0.712 0.4,0.712 0.22,0 0.4,0.36 0.4,0.8 0,0.44 0.18,0.8 0.4,0.8 0.22,0 0.4,0.54 0.4,1.2 0,0.66 0.18,1.2 0.4,1.2 0.22,0 0.4,0.799 0.4,1.776 0,0.977 0.18,1.888 0.4,2.024 0.22,0.136 0.4,1.019 0.4,1.962 0,1.206 0.237,1.929 0.8,2.438 1.264,1.143 1.264,174.057 0,175.2 -0.491,0.444 -0.8,1.232 -0.8,2.038 0,0.723 -0.18,1.426 -0.4,1.562 -0.22,0.136 -0.4,0.76 -0.4,1.386 0,1.103 -1.493,4.477 -2.1,4.747 -0.165,0.074 -0.3,0.479 -0.3,0.9 0,0.422 -0.18,0.767 -0.4,0.767 -0.22,0 -0.4,0.36 -0.4,0.8 0,0.44 -0.18,0.8 -0.4,0.8 -0.22,0 -0.4,0.36 -0.4,0.8 0,0.44 -0.168,0.8 -0.373,0.8 -0.205,0 -0.498,0.405 -0.651,0.9 -0.153,0.495 -1.875,2.466 -3.827,4.379 L 308,301.958 v 15.821 c 0,10.281 -0.14,15.821 -0.4,15.821 -0.22,0 -0.4,0.54 -0.4,1.2 0,0.66 -0.18,1.2 -0.4,1.2 -0.22,0 -0.4,0.288 -0.4,0.64 0,0.351 -0.54,1.143 -1.2,1.76 -0.66,0.617 -1.2,1.327 -1.2,1.579 0,0.63 -1.844,2.421 -2.494,2.421 -0.291,0 -0.789,0.36 -1.106,0.8 -0.317,0.44 -0.897,0.8 -1.288,0.8 -0.392,0 -0.713,0.135 -0.715,0.3 -0.011,1.072 -2.539,1.3 -14.439,1.3 -13.591,0 -14.109,-0.089 -16.818,-2.9 -0.584,-0.605 -1.349,-1.1 -1.7,-1.1 -0.352,0 -0.64,-0.288 -0.64,-0.64 0,-0.351 -0.54,-1.143 -1.2,-1.76 -0.66,-0.617 -1.2,-1.409 -1.2,-1.76 0,-0.352 -0.18,-0.64 -0.4,-0.64 -0.22,0 -0.4,-0.36 -0.4,-0.8 0,-0.44 -0.18,-0.8 -0.4,-0.8 -0.22,0 -0.4,-0.439 -0.4,-0.976 0,-0.537 -0.18,-1.088 -0.4,-1.224 -0.63,-0.389 -0.533,-17.28 0.1,-17.535 0.275,-0.111 -26.95,-0.202 -60.5,-0.202 -33.55,0 -60.775,0.091 -60.5,0.202 0.633,0.255 0.73,17.146 0.1,17.535 -0.22,0.136 -0.4,0.687 -0.4,1.224 0,0.537 -0.18,0.976 -0.4,0.976 -0.22,0 -0.4,0.36 -0.4,0.8 0,0.44 -0.18,0.8 -0.4,0.8 -0.22,0 -0.4,0.273 -0.4,0.606 0,0.893 -5.544,6.248 -7.549,7.294 -3.135,1.634 -28.43,1.279 -28.448,-0.4 -0.002,-0.165 -0.323,-0.3 -0.715,-0.3 -0.391,0 -0.971,-0.36 -1.288,-0.8 -0.317,-0.44 -0.815,-0.8 -1.106,-0.8 -0.65,0 -2.494,-1.791 -2.494,-2.421 0,-0.252 -0.54,-0.962 -1.2,-1.579 -0.66,-0.617 -1.2,-1.409 -1.2,-1.76 0,-0.352 -0.18,-0.64 -0.4,-0.64 -0.22,0 -0.4,-0.54 -0.4,-1.2 0,-0.66 -0.18,-1.2 -0.4,-1.2 -0.26,0 -0.4,-5.54 -0.4,-15.821 v -15.821 l -3.549,-3.479 c -1.952,-1.913 -3.674,-3.884 -3.827,-4.379 -0.153,-0.495 -0.446,-0.9 -0.651,-0.9 -0.205,0 -0.373,-0.36 -0.373,-0.8 0,-0.44 -0.18,-0.8 -0.4,-0.8 -0.22,0 -0.4,-0.36 -0.4,-0.8 0,-0.44 -0.18,-0.8 -0.4,-0.8 -0.22,0 -0.4,-0.345 -0.4,-0.767 0,-0.421 -0.135,-0.826 -0.3,-0.9 -0.607,-0.27 -2.1,-3.644 -2.1,-4.747 0,-0.626 -0.18,-1.25 -0.4,-1.386 -0.22,-0.136 -0.4,-0.839 -0.4,-1.562 0,-0.806 -0.309,-1.594 -0.8,-2.038 -1.264,-1.143 -1.264,-174.057 0,-175.2 0.563,-0.509 0.8,-1.232 0.8,-2.438 0,-0.943 0.18,-1.826 0.4,-1.962 0.22,-0.136 0.4,-1.047 0.4,-2.024 0,-0.977 0.18,-1.776 0.4,-1.776 0.22,0 0.4,-0.54 0.4,-1.2 0,-0.66 0.18,-1.2 0.4,-1.2 0.22,0 0.4,-0.36 0.4,-0.8 0,-0.44 0.18,-0.8 0.4,-0.8 0.22,0 0.4,-0.32 0.4,-0.712 0,-0.391 0.36,-0.971 0.8,-1.288 0.44,-0.317 0.8,-0.897 0.8,-1.288 0,-0.392 0.159,-0.712 0.353,-0.712 0.195,0 0.468,-0.315 0.607,-0.7 0.427,-1.183 1.29,-2.5 2.39,-3.647 C 87.527,82.25 88,81.596 88,81.4 c 0,-0.464 2.047,-2.6 2.492,-2.6 0.188,0 1.767,-1.44 3.508,-3.2 1.741,-1.76 3.443,-3.2 3.783,-3.2 0.339,0 0.617,-0.159 0.617,-0.354 0,-0.195 0.605,-0.642 1.345,-0.993 0.74,-0.351 1.572,-0.912 1.849,-1.246 0.277,-0.334 0.743,-0.607 1.035,-0.607 0.292,0 0.675,-0.244 0.851,-0.542 0.46,-0.778 1.903,-1.458 3.094,-1.458 0.564,0 1.026,-0.18 1.026,-0.4 0,-0.22 0.525,-0.4 1.167,-0.4 0.641,0 1.226,-0.135 1.3,-0.3 0.218,-0.491 3.549,-2.1 4.347,-2.1 0.406,0 0.85,-0.18 0.986,-0.4 0.136,-0.22 0.676,-0.4 1.2,-0.4 0.524,0 1.064,-0.18 1.2,-0.4 0.136,-0.22 0.676,-0.4 1.2,-0.4 0.524,0 1.064,-0.18 1.2,-0.4 0.136,-0.22 0.676,-0.4 1.2,-0.4 0.524,0 1.064,-0.18 1.2,-0.4 0.136,-0.22 0.867,-0.4 1.624,-0.4 0.757,0 1.376,-0.18 1.376,-0.4 0,-0.22 0.54,-0.4 1.2,-0.4 0.66,0 1.2,-0.18 1.2,-0.4 0,-0.22 0.9,-0.4 2,-0.4 1.1,0 2,-0.18 2,-0.4 0,-0.22 0.619,-0.4 1.376,-0.4 0.757,0 1.488,-0.18 1.624,-0.4 0.136,-0.22 1.036,-0.4 2,-0.4 0.964,0 1.864,-0.18 2,-0.4 0.136,-0.22 1.396,-0.4 2.8,-0.4 1.404,0 2.664,-0.18 2.8,-0.4 0.136,-0.22 1.407,-0.4 2.824,-0.4 1.451,0 2.576,-0.175 2.576,-0.4 0,-0.245 1.925,-0.4 4.976,-0.4 2.887,0 5.081,-0.168 5.224,-0.4 0.137,-0.221 1.937,-0.4 4.024,-0.4 2.251,0 3.776,-0.162 3.776,-0.4 0,-0.263 10.933,-0.4 32,-0.4 21.067,0 32,0.137 32,0.4 m -123.2,99.8 v 37.4 H 200 291.2 V 153.8 116.4 H 200 108.8 v 37.4 m 17.6,84.4 c -27.412,6.182 -23.256,46.344 4.8,46.393 21.732,0.037 31.909,-26.201 15.854,-40.874 -5.319,-4.861 -13.673,-7.093 -20.654,-5.519 m 138.4,-0.166 c -16.338,4.221 -23.731,19.694 -16.37,34.26 10.887,21.542 44.37,13.054 44.37,-11.247 0,-3.298 -1.589,-8.623 -3.53,-11.83 -5.067,-8.373 -16.003,-13.371 -24.47,-11.183"
       inkscape:connector-curvature="0"
       style="fill:#109ef9;fill-rule:evenodd;stroke:none" />
    <path
       id="path3"
       d="m 190,6.834 c -10.627,0.463 -20.444,1.733 -30.5,3.948 -6.866,1.512 -7.672,1.712 -13.1,3.263 -0.77,0.22 -1.94,0.547 -2.6,0.726 -4.15,1.126 -16.666,5.811 -22,8.235 -3.288,1.494 -12.532,6.053 -13.992,6.902 -0.656,0.38 -2.339,1.367 -3.741,2.192 -1.402,0.825 -2.63,1.5 -2.729,1.5 -0.199,0 -3.996,2.434 -9.538,6.115 -3.159,2.097 -10.849,7.689 -11.4,8.288 -0.11,0.12 -1.01,0.838 -2,1.597 -0.99,0.759 -1.89,1.476 -2,1.593 -0.11,0.118 -1.64,1.466 -3.4,2.995 C 68.875,57.773 57.773,68.875 54.188,73 c -1.529,1.76 -2.877,3.29 -2.995,3.4 -0.117,0.11 -0.834,1.01 -1.593,2 -0.759,0.99 -1.477,1.89 -1.597,2 -0.599,0.551 -6.191,8.241 -8.288,11.4 -3.681,5.542 -6.115,9.339 -6.115,9.538 0,0.099 -0.675,1.327 -1.5,2.729 -0.825,1.402 -1.812,3.085 -2.192,3.741 -0.849,1.46 -5.408,10.704 -6.902,13.992 -2.465,5.425 -7.148,17.958 -8.258,22.1 -0.191,0.715 -0.518,1.885 -0.725,2.6 -1.144,3.938 -1.739,6.228 -2.445,9.4 -1.161,5.219 -1.258,5.701 -2.415,11.9 -1.972,10.573 -2.933,27.493 -2.322,40.9 0.596,13.086 1.595,21.147 3.941,31.8 1.524,6.922 1.739,7.783 3.195,12.8 0.208,0.715 0.545,1.93 0.749,2.7 1.096,4.138 5.753,16.63 8.277,22.2 1.586,3.501 5.939,12.367 6.186,12.6 0.117,0.11 0.477,0.74 0.801,1.4 0.324,0.66 1.269,2.343 2.1,3.741 0.83,1.397 1.51,2.606 1.51,2.686 0,0.367 9.081,14.17 9.587,14.573 0.138,0.11 0.684,0.83 1.213,1.6 8.206,11.949 28.851,32.594 40.8,40.8 0.77,0.529 1.49,1.077 1.6,1.218 0.403,0.518 11.806,7.998 14.7,9.643 0.715,0.406 1.975,1.127 2.8,1.601 0.825,0.473 2.22,1.238 3.1,1.7 0.88,0.461 1.69,0.936 1.8,1.055 0.232,0.252 8.1,4.115 12.2,5.99 6.193,2.832 21.388,8.393 22.934,8.393 0.45,0 0.917,0.159 1.037,0.354 0.121,0.195 0.716,0.45 1.324,0.567 0.608,0.117 1.825,0.42 2.705,0.672 0.88,0.252 2.41,0.645 3.4,0.872 0.99,0.228 2.52,0.586 3.4,0.796 2.825,0.676 5.148,1.172 7.3,1.56 1.155,0.209 3.135,0.566 4.4,0.794 2.481,0.448 6.413,0.987 11.5,1.578 10.165,1.181 31.035,1.181 41.2,0 5.087,-0.591 9.019,-1.13 11.5,-1.578 1.265,-0.228 3.245,-0.585 4.4,-0.794 2.197,-0.396 4.471,-0.884 7.5,-1.607 0.99,-0.237 2.479,-0.541 3.31,-0.676 0.83,-0.135 1.606,-0.402 1.723,-0.592 0.118,-0.19 0.585,-0.346 1.038,-0.346 0.453,0 1.928,-0.351 3.276,-0.781 1.349,-0.429 4.253,-1.351 6.453,-2.048 4.204,-1.332 12.892,-4.562 15.856,-5.895 0.959,-0.432 2.644,-1.181 3.744,-1.664 3.042,-1.338 9.574,-4.546 9.8,-4.813 0.11,-0.13 1.19,-0.727 2.4,-1.327 1.21,-0.599 3.1,-1.63 4.2,-2.29 1.1,-0.66 2.27,-1.317 2.6,-1.46 0.808,-0.35 14.547,-9.343 14.8,-9.688 0.11,-0.15 0.83,-0.705 1.6,-1.234 1.308,-0.898 9.159,-7.098 9.6,-7.581 0.11,-0.12 1.46,-1.291 3,-2.601 3.615,-3.076 14.942,-14.403 18.018,-18.018 1.31,-1.54 2.481,-2.89 2.601,-3 0.483,-0.441 6.683,-8.292 7.581,-9.6 0.529,-0.77 1.084,-1.49 1.234,-1.6 0.345,-0.253 9.338,-13.992 9.688,-14.8 0.143,-0.33 0.8,-1.5 1.46,-2.6 0.66,-1.1 1.691,-2.99 2.29,-4.2 0.6,-1.21 1.197,-2.29 1.327,-2.4 0.264,-0.223 3.477,-6.762 4.767,-9.7 0.459,-1.045 1.208,-2.73 1.664,-3.744 1.371,-3.046 4.589,-11.688 5.941,-15.956 0.697,-2.2 1.619,-5.104 2.048,-6.453 0.43,-1.348 0.781,-2.823 0.781,-3.276 0,-0.453 0.156,-0.92 0.346,-1.038 0.19,-0.117 0.457,-0.893 0.592,-1.723 0.135,-0.831 0.439,-2.32 0.676,-3.31 0.723,-3.029 1.211,-5.303 1.607,-7.5 0.209,-1.155 0.566,-3.135 0.794,-4.4 0.448,-2.481 0.987,-6.413 1.578,-11.5 1.181,-10.165 1.181,-31.035 0,-41.2 -0.591,-5.087 -1.13,-9.019 -1.578,-11.5 -0.228,-1.265 -0.585,-3.245 -0.794,-4.4 -0.381,-2.116 -0.787,-4.024 -1.637,-7.7 -0.841,-3.635 -1.126,-4.783 -1.59,-6.4 -0.253,-0.88 -0.556,-2.097 -0.673,-2.705 -0.117,-0.608 -0.372,-1.203 -0.567,-1.324 -0.195,-0.12 -0.354,-0.587 -0.354,-1.037 0,-1.546 -5.561,-16.741 -8.393,-22.934 -1.875,-4.1 -5.738,-11.968 -5.99,-12.2 -0.119,-0.11 -0.594,-0.92 -1.055,-1.8 -0.462,-0.88 -1.227,-2.275 -1.7,-3.1 -0.474,-0.825 -1.195,-2.085 -1.601,-2.8 -1.645,-2.894 -9.125,-14.297 -9.643,-14.7 -0.141,-0.11 -0.689,-0.83 -1.218,-1.6 -8.206,-11.949 -28.851,-32.594 -40.8,-40.8 -0.77,-0.529 -1.49,-1.075 -1.6,-1.213 -0.403,-0.506 -14.206,-9.587 -14.573,-9.587 -0.08,0 -1.289,-0.68 -2.686,-1.51 -1.398,-0.831 -3.081,-1.776 -3.741,-2.1 -0.66,-0.324 -1.29,-0.684 -1.4,-0.801 -0.233,-0.247 -9.099,-4.6 -12.6,-6.186 -5.479,-2.482 -17.973,-7.149 -22.1,-8.255 -0.715,-0.191 -1.885,-0.518 -2.6,-0.725 -4.853,-1.41 -6.157,-1.735 -13,-3.241 C 230.052,8.481 221.819,7.445 209.2,6.841 200.251,6.413 199.678,6.413 190,6.834 m 29.2,1.127 c 5.261,0.572 9.387,1.124 12.1,1.619 1.265,0.231 3.245,0.59 4.4,0.799 1.155,0.208 2.955,0.568 4,0.8 4.625,1.025 5.39,1.199 6.9,1.573 0.88,0.217 2.23,0.571 3,0.786 0.77,0.215 2.75,0.76 4.4,1.212 4.929,1.35 16.433,5.437 21.2,7.531 5.159,2.266 14.857,6.927 15.2,7.305 0.11,0.121 1.19,0.742 2.4,1.379 2.998,1.579 7.536,4.296 11.496,6.882 1.813,1.184 3.478,2.153 3.7,2.153 0.222,0 0.404,0.141 0.404,0.314 0,0.172 0.495,0.61 1.1,0.973 0.605,0.363 1.46,0.945 1.9,1.295 0.44,0.349 1.942,1.487 3.338,2.527 1.396,1.04 3.286,2.486 4.2,3.214 0.914,0.727 2.306,1.81 3.093,2.407 6.199,4.694 22.545,21.04 27.239,27.239 0.597,0.787 1.68,2.179 2.407,3.093 0.728,0.914 2.174,2.804 3.214,4.2 1.04,1.396 2.178,2.898 2.527,3.338 0.35,0.44 0.932,1.295 1.295,1.9 0.363,0.605 0.801,1.1 0.973,1.1 0.173,0 0.314,0.174 0.314,0.386 0,0.212 1.021,1.967 2.268,3.9 2.574,3.987 4.112,6.538 5.86,9.714 0.665,1.21 1.623,2.92 2.128,3.8 1.372,2.392 5.594,11.096 7.469,15.4 1.715,3.938 6.333,16.741 7.069,19.6 0.344,1.337 0.684,2.566 1.633,5.9 0.434,1.527 0.733,2.737 1.557,6.3 0.85,3.676 1.256,5.584 1.637,7.7 0.209,1.155 0.568,3.135 0.799,4.4 1.57,8.601 2.114,16.647 2.114,31.3 0,14.653 -0.544,22.699 -2.114,31.3 -0.231,1.265 -0.59,3.245 -0.799,4.4 -0.388,2.152 -0.884,4.475 -1.56,7.3 -0.21,0.88 -0.568,2.41 -0.796,3.4 -0.227,0.99 -0.595,2.43 -0.817,3.2 -0.4,1.39 -0.618,2.171 -1.787,6.4 -0.81,2.932 -5.503,15.926 -6.934,19.2 -1.836,4.199 -6.193,13.29 -6.517,13.6 -0.116,0.11 -0.727,1.19 -1.359,2.4 -2.384,4.562 -4.314,7.85 -7.583,12.914 -1.247,1.933 -2.268,3.688 -2.268,3.9 0,0.212 -0.141,0.386 -0.314,0.386 -0.172,0 -0.629,0.533 -1.014,1.185 -0.385,0.652 -0.919,1.42 -1.186,1.706 -0.267,0.286 -1.104,1.417 -1.859,2.514 -0.755,1.097 -1.925,2.641 -2.6,3.43 -0.675,0.79 -2.173,2.652 -3.328,4.139 -6.63,8.528 -19.797,21.695 -28.325,28.325 -1.487,1.155 -3.349,2.653 -4.139,3.328 -0.789,0.675 -2.333,1.845 -3.43,2.6 -1.097,0.755 -2.228,1.592 -2.514,1.859 -0.286,0.267 -1.054,0.801 -1.706,1.186 -0.652,0.385 -1.185,0.842 -1.185,1.014 0,0.173 -0.174,0.314 -0.386,0.314 -0.212,0 -1.967,1.021 -3.9,2.268 -5.064,3.269 -8.352,5.199 -12.914,7.583 -1.21,0.632 -2.29,1.243 -2.4,1.359 -0.31,0.324 -9.401,4.681 -13.6,6.517 -3.274,1.431 -16.268,6.124 -19.2,6.934 -4.255,1.176 -5.012,1.388 -6.4,1.788 -1.422,0.411 -2.616,0.706 -6.2,1.535 -3.676,0.85 -5.584,1.256 -7.7,1.637 -1.155,0.209 -3.135,0.568 -4.4,0.799 -8.601,1.57 -16.647,2.114 -31.3,2.114 -14.653,0 -22.699,-0.544 -31.3,-2.114 -1.265,-0.231 -3.245,-0.59 -4.4,-0.799 -2.152,-0.388 -4.475,-0.884 -7.3,-1.56 -0.88,-0.21 -2.41,-0.568 -3.4,-0.796 -0.99,-0.227 -2.43,-0.595 -3.2,-0.817 -2.237,-0.644 -4.491,-1.265 -6,-1.654 -2.859,-0.736 -15.662,-5.354 -19.6,-7.069 -4.304,-1.875 -13.008,-6.097 -15.4,-7.469 -0.88,-0.505 -2.59,-1.463 -3.8,-2.128 -3.176,-1.748 -5.727,-3.286 -9.714,-5.86 -1.933,-1.247 -3.688,-2.268 -3.9,-2.268 -0.212,0 -0.386,-0.141 -0.386,-0.314 0,-0.172 -0.495,-0.61 -1.1,-0.973 -0.605,-0.363 -1.46,-0.945 -1.9,-1.295 -0.44,-0.349 -1.942,-1.487 -3.338,-2.527 -1.396,-1.04 -3.286,-2.486 -4.2,-3.214 -0.914,-0.727 -2.306,-1.81 -3.093,-2.407 -6.199,-4.694 -22.545,-21.04 -27.239,-27.239 -0.597,-0.787 -1.68,-2.179 -2.407,-3.093 -0.728,-0.914 -2.174,-2.804 -3.214,-4.2 -1.04,-1.396 -2.178,-2.898 -2.527,-3.338 -0.35,-0.44 -0.932,-1.295 -1.295,-1.9 -0.363,-0.605 -0.801,-1.1 -0.973,-1.1 -0.173,0 -0.314,-0.182 -0.314,-0.404 0,-0.222 -0.969,-1.887 -2.153,-3.7 -2.586,-3.96 -5.303,-8.498 -6.882,-11.496 -0.637,-1.21 -1.258,-2.29 -1.379,-2.4 -0.378,-0.343 -5.039,-10.041 -7.305,-15.2 -2.094,-4.767 -6.181,-16.271 -7.531,-21.2 -0.452,-1.65 -0.997,-3.63 -1.212,-4.4 -0.215,-0.77 -0.569,-2.12 -0.786,-3 -0.374,-1.51 -0.548,-2.275 -1.573,-6.9 -0.232,-1.045 -0.592,-2.845 -0.8,-4 C 10.17,234.545 9.811,232.565 9.58,231.3 7.969,222.476 7.472,215.104 7.472,200 c 0,-13.53 0.211,-17.709 1.312,-26 0.219,-1.65 0.501,-3.9 0.628,-5 0.126,-1.1 0.387,-2.36 0.58,-2.8 0.192,-0.44 0.447,-1.61 0.566,-2.6 0.119,-0.99 0.412,-2.61 0.651,-3.6 0.239,-0.99 0.595,-2.52 0.791,-3.4 2.137,-9.596 6.651,-23.562 10.279,-31.8 2.546,-5.782 7.742,-16.491 8.152,-16.8 0.145,-0.11 0.735,-1.1 1.31,-2.2 0.575,-1.1 1.904,-3.39 2.953,-5.089 1.048,-1.699 2.71,-4.399 3.694,-6 0.983,-1.601 1.892,-3.001 2.019,-3.111 0.127,-0.11 0.664,-0.83 1.193,-1.6 0.529,-0.77 1.06,-1.49 1.181,-1.6 0.12,-0.11 0.837,-1.1 1.592,-2.2 0.755,-1.1 1.925,-2.667 2.6,-3.483 0.675,-0.816 1.857,-2.314 2.627,-3.33 0.77,-1.016 2.228,-2.778 3.24,-3.917 1.012,-1.138 2.181,-2.52 2.599,-3.07 0.988,-1.302 15.659,-15.973 16.961,-16.961 0.55,-0.418 1.932,-1.587 3.07,-2.599 1.139,-1.012 2.901,-2.47 3.917,-3.24 1.016,-0.77 2.514,-1.952 3.33,-2.627 0.816,-0.675 2.383,-1.845 3.483,-2.6 1.1,-0.755 2.09,-1.472 2.2,-1.592 0.11,-0.121 0.83,-0.652 1.6,-1.181 0.77,-0.529 1.49,-1.066 1.6,-1.193 0.11,-0.127 1.51,-1.036 3.111,-2.019 1.601,-0.984 4.301,-2.646 6,-3.694 1.699,-1.049 3.989,-2.378 5.089,-2.953 1.1,-0.575 2.09,-1.165 2.2,-1.31 0.309,-0.41 11.018,-5.606 16.8,-8.152 8.238,-3.628 22.204,-8.142 31.8,-10.279 0.88,-0.196 2.41,-0.552 3.4,-0.791 0.99,-0.239 2.61,-0.532 3.6,-0.651 0.99,-0.119 2.16,-0.374 2.6,-0.566 0.44,-0.193 1.7,-0.454 2.8,-0.58 1.1,-0.127 3.35,-0.409 5,-0.628 1.65,-0.219 4.844,-0.545 7.099,-0.723 2.254,-0.179 4.227,-0.454 4.384,-0.611 0.414,-0.414 29.22,0.023 33.717,0.511 m -20.054,2.226 c -0.133,0.133 -4.18,0.417 -8.994,0.631 -4.814,0.214 -9.562,0.478 -10.552,0.587 -13.816,1.523 -27.319,4.432 -40.2,8.66 -1.32,0.433 -2.76,0.938 -3.2,1.122 -0.44,0.184 -1.88,0.73 -3.2,1.213 -1.32,0.483 -2.805,1.04 -3.3,1.239 -0.495,0.199 -1.305,0.517 -1.8,0.708 -0.495,0.191 -2.05,0.911 -3.456,1.6 -1.406,0.689 -2.733,1.253 -2.948,1.253 -0.772,0 -15.742,7.721 -17.958,9.262 -0.584,0.406 -1.175,0.738 -1.313,0.738 -0.138,0 -2.13,1.26 -4.425,2.8 -2.295,1.54 -4.344,2.8 -4.553,2.8 -0.209,0 -0.44,0.137 -0.514,0.305 C 92.66,43.273 90.8,44.693 88.6,46.261 73.158,57.266 57.266,73.158 46.261,88.6 c -1.568,2.2 -2.988,4.06 -3.156,4.133 -0.168,0.074 -0.305,0.305 -0.305,0.514 0,0.209 -1.26,2.258 -2.8,4.553 -1.54,2.295 -2.8,4.287 -2.8,4.425 0,0.138 -0.332,0.729 -0.738,1.313 -1.541,2.216 -9.262,17.186 -9.262,17.958 0,0.215 -0.564,1.542 -1.253,2.948 -1.49,3.042 -1.825,3.849 -3.547,8.556 -0.483,1.32 -1.029,2.76 -1.213,3.2 -3.65,8.723 -8.17,28.778 -9.782,43.4 -1.177,10.672 -1.173,29.004 0.008,41 1.289,13.099 5.222,30.438 9.707,42.8 2.757,7.6 3.072,8.397 3.38,8.533 0.165,0.074 0.306,0.434 0.313,0.8 0.006,0.367 0.546,1.742 1.2,3.057 0.653,1.314 1.187,2.544 1.187,2.732 0,0.723 6.976,14.246 9.063,17.57 0.515,0.821 0.937,1.592 0.937,1.713 0,0.122 1.26,2.1 2.8,4.395 1.54,2.295 2.8,4.359 2.8,4.587 0,0.227 0.141,0.413 0.314,0.413 0.172,0 0.609,0.495 0.971,1.1 1.11,1.859 8.028,11.037 9.12,12.1 0.114,0.11 1.014,1.182 2,2.382 5.339,6.49 15.523,16.674 22.013,22.013 1.2,0.986 2.272,1.886 2.382,2 2.052,2.108 21.651,16.005 22.573,16.005 0.105,0 1.145,0.565 2.309,1.256 3.663,2.172 4.703,2.731 10.753,5.775 3.246,1.633 6.055,2.969 6.243,2.969 0.188,0 1.418,0.534 2.732,1.187 1.315,0.654 2.669,1.194 3.01,1.2 0.341,0.007 0.791,0.166 1,0.353 3.351,3.003 33.185,10.92 46.98,12.469 2.09,0.234 5.229,0.625 6.975,0.868 4.188,0.584 31.462,0.584 35.65,0 1.746,-0.243 4.885,-0.634 6.975,-0.868 13.795,-1.549 43.629,-9.466 46.98,-12.469 0.209,-0.187 0.625,-0.34 0.925,-0.34 3.148,0 30.198,-14.918 37.895,-20.899 0.22,-0.171 1.577,-1.164 3.015,-2.206 2.33,-1.689 6.252,-4.752 6.785,-5.3 0.11,-0.114 1.183,-1.014 2.384,-2 6.288,-5.168 16.843,-15.723 22.011,-22.011 0.986,-1.201 1.886,-2.274 2,-2.384 0.548,-0.533 3.611,-4.455 5.3,-6.785 1.042,-1.438 2.035,-2.795 2.206,-3.015 5.981,-7.697 20.899,-34.747 20.899,-37.895 0,-0.3 0.153,-0.716 0.34,-0.925 3.003,-3.351 10.92,-33.185 12.469,-46.98 0.234,-2.09 0.625,-5.229 0.868,-6.975 0.584,-4.188 0.584,-31.462 0,-35.65 -0.243,-1.746 -0.634,-4.885 -0.868,-6.975 -1.549,-13.795 -9.466,-43.629 -12.469,-46.98 -0.187,-0.209 -0.346,-0.659 -0.353,-1 -0.006,-0.341 -0.546,-1.695 -1.2,-3.01 -0.653,-1.314 -1.187,-2.544 -1.187,-2.732 0,-0.188 -1.336,-2.997 -2.969,-6.243 -3.044,-6.05 -3.603,-7.09 -5.775,-10.753 -0.691,-1.164 -1.256,-2.204 -1.256,-2.309 0,-0.922 -13.897,-20.521 -16.005,-22.573 -0.114,-0.11 -1.014,-1.182 -2,-2.382 -5.339,-6.49 -15.523,-16.674 -22.013,-22.013 -1.2,-0.986 -2.272,-1.886 -2.382,-2 -1.063,-1.092 -10.241,-8.01 -12.1,-9.12 -0.605,-0.362 -1.1,-0.799 -1.1,-0.971 0,-0.173 -0.186,-0.314 -0.413,-0.314 -0.228,0 -2.292,-1.26 -4.587,-2.8 -2.295,-1.54 -4.273,-2.8 -4.395,-2.8 -0.121,0 -0.892,-0.422 -1.713,-0.937 -3.324,-2.087 -16.847,-9.063 -17.57,-9.063 -0.188,0 -1.418,-0.534 -2.732,-1.187 -1.315,-0.654 -2.69,-1.194 -3.057,-1.2 -0.366,-0.007 -0.726,-0.148 -0.8,-0.313 -0.459,-1.034 -17.659,-6.604 -28.116,-9.106 -11.524,-2.756 -20.372,-3.961 -33.417,-4.55 -4.51,-0.203 -8.833,-0.488 -9.606,-0.634 -0.774,-0.145 -1.515,-0.155 -1.648,-0.023 m 17.454,1.442 c 7.546,0.695 18.407,2.283 23.4,3.421 4.768,1.088 9.389,2.21 10.4,2.526 1.16,0.362 3.052,0.908 5.6,1.616 0.99,0.274 2.16,0.647 2.6,0.827 0.44,0.181 1.97,0.709 3.4,1.174 1.43,0.464 2.913,1.016 3.295,1.226 0.382,0.21 0.879,0.381 1.104,0.381 0.225,0 1.173,0.34 2.105,0.756 0.933,0.415 2.416,1.026 3.296,1.357 5.026,1.89 22.266,10.353 23.4,11.487 0.11,0.11 1.01,0.636 2,1.168 2.884,1.551 14.452,9.415 17.868,12.147 1.723,1.378 3.508,2.771 3.967,3.095 5.798,4.096 24.059,22.357 28.155,28.155 0.324,0.459 1.711,2.237 3.081,3.949 2.876,3.596 10.529,14.835 10.529,15.463 0,0.232 0.135,0.423 0.301,0.423 0.165,0 0.746,0.855 1.29,1.9 0.544,1.045 1.084,1.99 1.199,2.1 1.093,1.042 9.681,18.532 11.49,23.4 0.327,0.88 0.782,2.05 1.011,2.6 0.229,0.55 0.548,1.36 0.709,1.8 0.161,0.44 0.488,1.25 0.727,1.8 0.504,1.159 3.318,9.752 4.061,12.4 0.278,0.99 0.65,2.25 0.827,2.8 0.351,1.091 1.574,6.176 2.55,10.6 1.148,5.208 2.24,12.526 3.444,23.085 0.573,5.028 0.578,27.802 0.007,33.169 -1.057,9.922 -1.378,12.132 -3.048,20.946 -0.923,4.87 -2.015,9.527 -3.424,14.6 -0.214,0.77 -0.537,1.94 -0.718,2.6 -0.624,2.273 -2.445,7.601 -2.835,8.295 -0.215,0.382 -0.391,0.969 -0.391,1.305 0,0.336 -0.159,0.923 -0.353,1.305 -0.195,0.382 -0.576,1.235 -0.847,1.895 -0.271,0.66 -0.652,1.513 -0.847,1.895 -0.194,0.382 -0.353,0.879 -0.353,1.104 0,0.225 -0.378,1.263 -0.84,2.305 -0.462,1.043 -0.989,2.256 -1.171,2.696 -1.382,3.339 -9.378,19.189 -9.989,19.8 -0.396,0.396 -1.654,2.615 -1.871,3.3 -0.122,0.385 -0.381,0.7 -0.576,0.7 -0.194,0 -0.353,0.197 -0.353,0.439 0,0.76 -6.878,10.629 -12.692,18.21 -6.922,9.027 -21.232,23.337 -30.259,30.259 -7.581,5.814 -17.45,12.692 -18.21,12.692 -0.242,0 -0.439,0.159 -0.439,0.353 0,0.195 -0.315,0.46 -0.7,0.589 -0.385,0.13 -1.24,0.56 -1.9,0.956 -5.163,3.097 -7.236,4.208 -13.4,7.182 -3.85,1.857 -7.36,3.526 -7.8,3.709 -0.44,0.182 -1.653,0.709 -2.696,1.171 -1.042,0.462 -2.08,0.84 -2.305,0.84 -0.225,0 -0.722,0.159 -1.104,0.353 -0.382,0.195 -1.235,0.576 -1.895,0.847 -0.66,0.271 -1.513,0.652 -1.895,0.847 -0.382,0.194 -0.969,0.353 -1.305,0.353 -0.336,0 -0.923,0.176 -1.305,0.391 -0.718,0.404 -6.106,2.238 -8.395,2.857 -0.715,0.194 -1.885,0.517 -2.6,0.718 -4.645,1.309 -9.64,2.481 -14.5,3.402 -8.814,1.67 -11.024,1.991 -20.946,3.048 -5.367,0.571 -28.141,0.566 -33.169,-0.007 -10.559,-1.204 -17.877,-2.296 -23.085,-3.444 -4.424,-0.976 -9.509,-2.199 -10.6,-2.55 -0.55,-0.177 -1.81,-0.549 -2.8,-0.827 -2.425,-0.681 -11.177,-3.532 -12.3,-4.007 -2.516,-1.065 -3.696,-1.534 -6.3,-2.501 -4.868,-1.809 -22.358,-10.397 -23.4,-11.49 -0.11,-0.115 -1.055,-0.655 -2.1,-1.199 -1.045,-0.544 -1.9,-1.125 -1.9,-1.29 0,-0.166 -0.191,-0.301 -0.423,-0.301 -0.628,0 -11.867,-7.653 -15.463,-10.529 -1.712,-1.37 -3.49,-2.757 -3.949,-3.081 -5.798,-4.096 -24.059,-22.357 -28.155,-28.155 -0.324,-0.459 -1.717,-2.244 -3.095,-3.967 -2.732,-3.416 -10.596,-14.984 -12.147,-17.868 -0.532,-0.99 -1.058,-1.89 -1.168,-2 -1.134,-1.134 -9.597,-18.374 -11.487,-23.4 -0.331,-0.88 -0.942,-2.363 -1.357,-3.296 -0.416,-0.932 -0.756,-1.88 -0.756,-2.105 0,-0.225 -0.171,-0.722 -0.381,-1.104 -0.21,-0.382 -0.762,-1.865 -1.226,-3.295 -0.465,-1.43 -0.989,-2.96 -1.164,-3.4 -0.315,-0.793 -0.654,-1.921 -1.621,-5.4 -0.276,-0.99 -0.646,-2.25 -0.823,-2.8 -0.32,-0.995 -1.403,-5.44 -2.535,-10.4 -1.051,-4.61 -2.378,-13.519 -3.479,-23.352 -0.45,-4.028 -0.612,-29.69 -0.198,-31.469 0.125,-0.539 0.408,-2.779 0.629,-4.979 1.183,-11.793 3.036,-21.668 6.025,-32.1 0.205,-0.715 0.568,-1.975 0.806,-2.8 0.238,-0.825 0.529,-1.997 0.646,-2.605 0.117,-0.608 0.372,-1.203 0.567,-1.324 0.195,-0.12 0.354,-0.622 0.354,-1.115 0,-0.493 0.143,-1.067 0.318,-1.276 0.175,-0.209 0.547,-1.1 0.827,-1.98 0.279,-0.88 0.66,-1.96 0.845,-2.4 0.185,-0.44 0.969,-2.431 1.742,-4.424 C 26.588,123.84 31.67,113.096 35.094,107 39.654,98.883 45.646,90.056 52.6,81.214 59.542,72.386 72.386,59.542 81.214,52.6 c 16.04,-12.615 31.99,-21.888 48.962,-28.468 1.993,-0.773 3.984,-1.557 4.424,-1.742 0.44,-0.185 1.52,-0.566 2.4,-0.845 0.88,-0.28 1.771,-0.652 1.98,-0.827 0.209,-0.175 0.783,-0.318 1.276,-0.318 0.493,0 0.995,-0.159 1.115,-0.354 0.121,-0.195 0.716,-0.45 1.324,-0.567 0.608,-0.117 1.735,-0.398 2.505,-0.624 9.562,-2.802 20.515,-5.185 28,-6.09 1.65,-0.199 4.62,-0.559 6.6,-0.799 8.339,-1.013 27.541,-1.189 36.8,-0.337 M 168,54 c 0,0.238 -1.525,0.4 -3.776,0.4 -2.087,0 -3.887,0.179 -4.024,0.4 -0.143,0.232 -2.337,0.4 -5.224,0.4 -3.051,0 -4.976,0.155 -4.976,0.4 0,0.225 -1.125,0.4 -2.576,0.4 -1.417,0 -2.688,0.18 -2.824,0.4 -0.136,0.22 -1.396,0.4 -2.8,0.4 -1.404,0 -2.664,0.18 -2.8,0.4 -0.136,0.22 -1.036,0.4 -2,0.4 -0.964,0 -1.864,0.18 -2,0.4 -0.136,0.22 -0.867,0.4 -1.624,0.4 -0.757,0 -1.376,0.18 -1.376,0.4 0,0.22 -0.9,0.4 -2,0.4 -1.1,0 -2,0.18 -2,0.4 0,0.22 -0.54,0.4 -1.2,0.4 -0.66,0 -1.2,0.18 -1.2,0.4 0,0.22 -0.619,0.4 -1.376,0.4 -0.757,0 -1.488,0.18 -1.624,0.4 -0.136,0.22 -0.676,0.4 -1.2,0.4 -0.524,0 -1.064,0.18 -1.2,0.4 -0.136,0.22 -0.676,0.4 -1.2,0.4 -0.524,0 -1.064,0.18 -1.2,0.4 -0.136,0.22 -0.676,0.4 -1.2,0.4 -0.524,0 -1.064,0.18 -1.2,0.4 -0.136,0.22 -0.58,0.4 -0.986,0.4 -0.798,0 -4.129,1.609 -4.347,2.1 -0.074,0.165 -0.659,0.3 -1.3,0.3 -0.642,0 -1.167,0.18 -1.167,0.4 0,0.22 -0.462,0.4 -1.026,0.4 -1.191,0 -2.634,0.68 -3.094,1.458 -0.176,0.298 -0.559,0.542 -0.851,0.542 -0.292,0 -0.758,0.273 -1.035,0.607 -0.277,0.334 -1.109,0.895 -1.849,1.246 -0.74,0.351 -1.345,0.798 -1.345,0.993 0,0.195 -0.278,0.354 -0.617,0.354 -0.34,0 -2.042,1.44 -3.783,3.2 -1.741,1.76 -3.32,3.2 -3.508,3.2 -0.469,0 -2.492,2.148 -2.492,2.647 0,0.222 -0.54,0.921 -1.2,1.553 -0.66,0.632 -1.2,1.327 -1.2,1.543 0,0.217 -0.315,0.768 -0.7,1.226 -0.699,0.83 -0.699,0.83 0.2,0.069 0.495,-0.419 0.9,-0.97 0.9,-1.225 0,-0.255 0.54,-0.981 1.2,-1.613 0.66,-0.632 1.2,-1.355 1.2,-1.605 0,-0.54 1.685,-2.195 2.235,-2.195 0.211,0 1.815,-1.44 3.565,-3.2 1.75,-1.76 3.383,-3.2 3.629,-3.2 0.246,0 0.773,-0.36 1.171,-0.8 0.398,-0.44 0.938,-0.8 1.2,-0.8 0.262,0 0.802,-0.36 1.2,-0.8 0.398,-0.44 0.938,-0.8 1.2,-0.8 0.262,0 0.804,-0.363 1.205,-0.806 0.402,-0.443 1.424,-0.917 2.271,-1.053 0.848,-0.135 1.638,-0.402 1.756,-0.594 0.119,-0.191 0.546,-0.347 0.951,-0.347 0.405,0 1.762,-0.54 3.017,-1.2 1.255,-0.66 2.612,-1.2 3.017,-1.2 0.405,0 0.847,-0.18 0.983,-0.4 0.136,-0.22 0.687,-0.4 1.224,-0.4 0.537,0 0.976,-0.18 0.976,-0.4 0,-0.22 0.54,-0.4 1.2,-0.4 0.66,0 1.2,-0.18 1.2,-0.4 0,-0.22 0.54,-0.4 1.2,-0.4 0.66,0 1.2,-0.18 1.2,-0.4 0,-0.22 0.619,-0.4 1.376,-0.4 0.757,0 1.488,-0.18 1.624,-0.4 0.136,-0.22 0.676,-0.4 1.2,-0.4 0.524,0 1.064,-0.18 1.2,-0.4 0.136,-0.22 1.036,-0.4 2,-0.4 0.964,0 1.864,-0.18 2,-0.4 0.136,-0.22 0.867,-0.4 1.624,-0.4 0.757,0 1.376,-0.18 1.376,-0.4 0,-0.22 0.9,-0.4 2,-0.4 1.1,0 2,-0.18 2,-0.4 0,-0.229 1.2,-0.4 2.8,-0.4 1.6,0 2.8,-0.171 2.8,-0.4 0,-0.225 1.125,-0.4 2.576,-0.4 1.417,0 2.688,-0.18 2.824,-0.4 0.143,-0.232 2.337,-0.4 5.224,-0.4 3.051,0 4.976,-0.155 4.976,-0.4 0,-0.238 1.525,-0.4 3.776,-0.4 2.087,0 3.887,-0.179 4.024,-0.4 0.161,-0.261 11.196,-0.4 31.8,-0.4 20.604,0 31.639,0.139 31.8,0.4 0.137,0.221 1.937,0.4 4.024,0.4 2.251,0 3.776,0.162 3.776,0.4 0,0.245 1.925,0.4 4.976,0.4 2.887,0 5.081,0.168 5.224,0.4 0.136,0.22 1.407,0.4 2.824,0.4 1.451,0 2.576,0.175 2.576,0.4 0,0.222 1.067,0.4 2.4,0.4 1.333,0 2.4,0.178 2.4,0.4 0,0.222 1.067,0.4 2.4,0.4 1.333,0 2.4,0.178 2.4,0.4 0,0.22 0.619,0.4 1.376,0.4 0.757,0 1.488,0.18 1.624,0.4 0.136,0.22 1.036,0.4 2,0.4 0.964,0 1.864,0.18 2,0.4 0.136,0.22 0.676,0.4 1.2,0.4 0.524,0 1.064,0.18 1.2,0.4 0.136,0.22 0.867,0.4 1.624,0.4 0.757,0 1.376,0.18 1.376,0.4 0,0.22 0.54,0.4 1.2,0.4 0.66,0 1.2,0.18 1.2,0.4 0,0.22 0.54,0.4 1.2,0.4 0.66,0 1.2,0.18 1.2,0.4 0,0.22 0.439,0.4 0.976,0.4 0.537,0 1.088,0.18 1.224,0.4 0.136,0.22 0.578,0.4 0.983,0.4 0.405,0 1.762,0.54 3.017,1.2 1.255,0.66 2.612,1.2 3.017,1.2 0.405,0 0.832,0.156 0.951,0.347 0.118,0.192 0.908,0.459 1.756,0.594 0.847,0.136 1.869,0.61 2.271,1.053 0.401,0.443 0.943,0.806 1.205,0.806 0.262,0 0.802,0.36 1.2,0.8 0.398,0.44 0.938,0.8 1.2,0.8 0.262,0 0.802,0.36 1.2,0.8 0.398,0.44 0.925,0.8 1.171,0.8 0.246,0 1.879,1.44 3.629,3.2 1.75,1.76 3.379,3.2 3.621,3.2 0.536,0 2.179,1.697 2.179,2.251 0,0.22 0.54,0.917 1.2,1.549 0.66,0.632 1.2,1.358 1.2,1.613 0,0.255 0.405,0.806 0.9,1.225 0.899,0.761 0.899,0.761 0.2,-0.069 -0.385,-0.458 -0.7,-1.009 -0.7,-1.226 0,-0.216 -0.54,-0.911 -1.2,-1.543 -0.66,-0.632 -1.2,-1.352 -1.2,-1.6 0,-0.49 -2.06,-2.6 -2.539,-2.6 -0.162,0 -1.72,-1.44 -3.461,-3.2 -1.741,-1.76 -3.443,-3.2 -3.783,-3.2 -0.339,0 -0.617,-0.159 -0.617,-0.354 0,-0.195 -0.605,-0.642 -1.345,-0.993 -0.74,-0.351 -1.572,-0.912 -1.849,-1.246 -0.277,-0.334 -0.743,-0.607 -1.035,-0.607 -0.292,0 -0.675,-0.244 -0.851,-0.542 -0.46,-0.778 -1.903,-1.458 -3.094,-1.458 -0.564,0 -1.026,-0.18 -1.026,-0.4 0,-0.22 -0.525,-0.4 -1.167,-0.4 -0.641,0 -1.226,-0.135 -1.3,-0.3 -0.218,-0.491 -3.549,-2.1 -4.347,-2.1 -0.406,0 -0.85,-0.18 -0.986,-0.4 -0.136,-0.22 -0.676,-0.4 -1.2,-0.4 -0.524,0 -1.064,-0.18 -1.2,-0.4 -0.136,-0.22 -0.676,-0.4 -1.2,-0.4 -0.524,0 -1.064,-0.18 -1.2,-0.4 -0.136,-0.22 -0.676,-0.4 -1.2,-0.4 -0.524,0 -1.064,-0.18 -1.2,-0.4 -0.136,-0.22 -0.867,-0.4 -1.624,-0.4 -0.757,0 -1.376,-0.18 -1.376,-0.4 0,-0.22 -0.54,-0.4 -1.2,-0.4 -0.66,0 -1.2,-0.18 -1.2,-0.4 0,-0.22 -0.9,-0.4 -2,-0.4 -1.1,0 -2,-0.18 -2,-0.4 0,-0.22 -0.619,-0.4 -1.376,-0.4 -0.757,0 -1.488,-0.18 -1.624,-0.4 -0.136,-0.22 -1.216,-0.4 -2.4,-0.4 -1.184,0 -2.264,-0.18 -2.4,-0.4 -0.136,-0.22 -1.216,-0.4 -2.4,-0.4 -1.184,0 -2.264,-0.18 -2.4,-0.4 C 255.264,56.18 253.993,56 252.576,56 251.125,56 250,55.825 250,55.6 c 0,-0.245 -1.925,-0.4 -4.976,-0.4 -2.887,0 -5.081,-0.168 -5.224,-0.4 -0.137,-0.221 -1.937,-0.4 -4.024,-0.4 -2.251,0 -3.776,-0.162 -3.776,-0.4 0,-0.263 -10.933,-0.4 -32,-0.4 -21.067,0 -32,0.137 -32,0.4 M 83.6,87.912 c 0,0.391 -0.36,0.971 -0.8,1.288 -0.44,0.317 -0.8,0.897 -0.8,1.288 0,0.392 -0.18,0.712 -0.4,0.712 -0.22,0 -0.4,0.36 -0.4,0.8 0,0.44 -0.18,0.8 -0.4,0.8 -0.22,0 -0.4,0.54 -0.4,1.2 0,0.66 -0.18,1.2 -0.4,1.2 -0.22,0 -0.4,0.799 -0.4,1.776 0,0.977 -0.18,1.888 -0.4,2.024 -0.22,0.136 -0.4,1.019 -0.4,1.962 0,1.206 -0.237,1.929 -0.8,2.438 -1.264,1.143 -1.264,174.057 0,175.2 0.491,0.444 0.8,1.232 0.8,2.038 0,0.723 0.18,1.426 0.4,1.562 0.22,0.136 0.4,0.76 0.4,1.386 0,1.103 1.493,4.477 2.1,4.747 0.165,0.074 0.3,0.479 0.3,0.9 0,0.422 0.18,0.767 0.4,0.767 0.22,0 0.4,0.36 0.4,0.8 0,0.44 0.18,0.8 0.4,0.8 0.22,0 0.4,0.36 0.4,0.8 0,0.44 0.168,0.8 0.373,0.8 0.205,0 0.498,0.405 0.651,0.9 0.153,0.495 1.875,2.466 3.827,4.379 L 92,301.958 v 15.821 c 0,10.281 0.14,15.821 0.4,15.821 0.22,0 0.4,0.54 0.4,1.2 0,0.66 0.18,1.2 0.4,1.2 0.22,0 0.4,0.288 0.4,0.64 0,0.351 0.54,1.143 1.2,1.76 0.66,0.617 1.2,1.327 1.2,1.579 0,0.63 1.844,2.421 2.494,2.421 0.291,0 0.789,0.36 1.106,0.8 0.317,0.44 0.897,0.8 1.288,0.8 0.392,0 0.713,0.135 0.715,0.3 0.018,1.679 25.313,2.034 28.448,0.4 2.005,-1.046 7.549,-6.401 7.549,-7.294 0,-0.333 0.18,-0.606 0.4,-0.606 0.22,0 0.4,-0.36 0.4,-0.8 0,-0.44 0.18,-0.8 0.4,-0.8 0.22,0 0.4,-0.439 0.4,-0.976 0,-0.537 0.18,-1.088 0.4,-1.224 0.63,-0.389 0.533,-17.28 -0.1,-17.535 -0.275,-0.111 26.95,-0.202 60.5,-0.202 33.55,0 60.775,0.091 60.5,0.202 -0.633,0.255 -0.73,17.146 -0.1,17.535 0.22,0.136 0.4,0.687 0.4,1.224 0,0.537 0.18,0.976 0.4,0.976 0.22,0 0.4,0.36 0.4,0.8 0,0.44 0.18,0.8 0.4,0.8 0.22,0 0.4,0.288 0.4,0.64 0,0.351 0.54,1.143 1.2,1.76 0.66,0.617 1.2,1.409 1.2,1.76 0,0.352 0.288,0.64 0.64,0.64 0.351,0 1.116,0.495 1.7,1.1 2.709,2.811 3.227,2.9 16.818,2.9 11.9,0 14.428,-0.228 14.439,-1.3 0.002,-0.165 0.323,-0.3 0.715,-0.3 0.391,0 0.971,-0.36 1.288,-0.8 0.317,-0.44 0.815,-0.8 1.106,-0.8 0.65,0 2.494,-1.791 2.494,-2.421 0,-0.252 0.54,-0.962 1.2,-1.579 0.66,-0.617 1.2,-1.409 1.2,-1.76 0,-0.352 0.18,-0.64 0.4,-0.64 0.22,0 0.4,-0.54 0.4,-1.2 0,-0.66 0.18,-1.2 0.4,-1.2 0.26,0 0.4,-5.54 0.4,-15.821 v -15.821 l 3.549,-3.479 c 1.952,-1.913 3.674,-3.884 3.827,-4.379 0.153,-0.495 0.446,-0.9 0.651,-0.9 0.205,0 0.373,-0.36 0.373,-0.8 0,-0.44 0.18,-0.8 0.4,-0.8 0.22,0 0.4,-0.36 0.4,-0.8 0,-0.44 0.18,-0.8 0.4,-0.8 0.22,0 0.4,-0.345 0.4,-0.767 0,-0.421 0.135,-0.826 0.3,-0.9 0.607,-0.27 2.1,-3.644 2.1,-4.747 0,-0.626 0.18,-1.25 0.4,-1.386 0.22,-0.136 0.4,-0.839 0.4,-1.562 0,-0.806 0.309,-1.594 0.8,-2.038 0.795,-0.72 0.8,-1.232 0.8,-87.6 0,-86.368 -0.005,-86.88 -0.8,-87.6 -0.563,-0.509 -0.8,-1.232 -0.8,-2.438 0,-0.943 -0.18,-1.826 -0.4,-1.962 -0.22,-0.136 -0.4,-1.047 -0.4,-2.024 0,-0.977 -0.18,-1.776 -0.4,-1.776 -0.22,0 -0.4,-0.54 -0.4,-1.2 0,-0.66 -0.18,-1.2 -0.4,-1.2 -0.22,0 -0.4,-0.36 -0.4,-0.8 0,-0.44 -0.18,-0.8 -0.4,-0.8 -0.22,0 -0.4,-0.32 -0.4,-0.712 0,-0.391 -0.36,-0.971 -0.8,-1.288 -0.44,-0.317 -0.8,-0.897 -0.8,-1.288 0,-0.392 -0.174,-0.712 -0.387,-0.712 -0.48,0 -0.091,1.167 0.693,2.081 0.886,1.033 2.494,4.362 2.494,5.163 0,0.39 0.18,0.82 0.4,0.956 0.22,0.136 0.4,1.036 0.4,2 0,0.964 0.18,1.864 0.4,2 0.22,0.136 0.4,1.007 0.4,1.935 0,1.23 0.217,1.845 0.8,2.265 1.264,0.911 1.264,173.889 0,174.8 -0.557,0.402 -0.8,1.035 -0.8,2.088 0,0.832 -0.18,1.512 -0.4,1.512 -0.22,0 -0.4,0.494 -0.4,1.097 0,0.899 -2.446,6.207 -5.005,10.86 -0.289,0.527 -2.072,2.511 -3.961,4.408 l -3.434,3.451 v 15.668 c 0,10.014 -0.144,15.758 -0.4,15.916 -0.22,0.136 -0.4,0.569 -0.4,0.962 0,1.044 -1.03,2.939 -2.19,4.028 -0.555,0.522 -1.01,1.157 -1.01,1.41 0,0.565 -1.692,2.2 -2.277,2.2 -0.234,0 -0.642,0.261 -0.907,0.581 -0.265,0.319 -1.402,1.039 -2.527,1.6 l -2.046,1.019 h -12.322 c -6.776,0 -12.321,-0.146 -12.321,-0.325 0,-0.179 -0.628,-0.572 -1.395,-0.873 -0.767,-0.301 -1.88,-1.054 -2.475,-1.675 -0.594,-0.62 -1.316,-1.127 -1.605,-1.127 -0.289,0 -0.525,-0.239 -0.525,-0.53 0,-0.292 -0.449,-0.952 -0.998,-1.468 -1.136,-1.067 -3.002,-4.598 -3.002,-5.681 0,-0.396 -0.18,-0.721 -0.4,-0.721 -0.254,0 -0.4,-3.059 -0.4,-8.376 0,-5.153 0.154,-8.472 0.4,-8.624 0.22,-0.136 0.4,-0.417 0.4,-0.624 0,-0.233 -23.226,-0.376 -61.2,-0.376 -37.974,0 -61.2,0.143 -61.2,0.376 0,0.207 0.18,0.488 0.4,0.624 0.246,0.152 0.4,3.471 0.4,8.624 0,5.317 -0.146,8.376 -0.4,8.376 -0.22,0 -0.4,0.329 -0.4,0.732 0,2.402 -5.705,9.332 -8.625,10.478 -0.756,0.297 -1.375,0.686 -1.375,0.865 0,0.179 -5.545,0.325 -12.321,0.325 h -12.322 l -2.046,-1.019 c -1.125,-0.561 -2.262,-1.281 -2.527,-1.6 C 99.319,342.261 98.885,342 98.621,342 98.05,342 96.4,340.324 96.4,339.744 c 0,-0.223 -0.455,-0.832 -1.01,-1.354 -1.16,-1.089 -2.19,-2.984 -2.19,-4.028 0,-0.393 -0.18,-0.826 -0.4,-0.962 -0.256,-0.158 -0.4,-5.902 -0.4,-15.916 v -15.668 l -3.434,-3.451 c -1.889,-1.897 -3.672,-3.881 -3.961,-4.408 C 82.446,289.304 80,283.996 80,283.097 80,282.494 79.82,282 79.6,282 c -0.22,0 -0.4,-0.68 -0.4,-1.512 0,-1.053 -0.243,-1.686 -0.8,-2.088 -1.264,-0.911 -1.264,-173.889 0,-174.8 0.583,-0.42 0.8,-1.035 0.8,-2.265 0,-0.928 0.18,-1.799 0.4,-1.935 0.22,-0.136 0.4,-1.036 0.4,-2 0,-0.964 0.18,-1.864 0.4,-2 0.22,-0.136 0.4,-0.566 0.4,-0.956 0,-0.801 1.608,-4.13 2.494,-5.163 0.784,-0.914 1.173,-2.081 0.693,-2.081 -0.213,0 -0.387,0.32 -0.387,0.712 m 25.068,28.354 c -0.148,0.147 -0.268,17.157 -0.268,37.801 V 191.6 h 91.602 91.602 l -0.102,-37.7 -0.102,-37.7 -91.232,-0.101 c -50.178,-0.055 -91.353,0.02 -91.5,0.167 M 291.2,153.8 v 37.4 H 200 108.8 v -37.4 -37.4 h 91.2 91.2 v 37.4 M 125,237.821 c -17.976,5.045 -24.026,27.137 -11.01,40.199 15.374,15.427 41.582,4.826 41.582,-16.82 0,-15.491 -15.754,-27.538 -30.572,-23.379 m 137.2,0.222 c -26.391,8.644 -20.656,47.325 7,47.216 10.547,-0.041 18.876,-5.984 22.788,-16.259 1.167,-3.065 1.638,-9.883 0.859,-12.44 -0.195,-0.638 -0.591,-1.97 -0.882,-2.96 -3.486,-11.873 -17.943,-19.429 -29.765,-15.557 m -126.6,0.115 c 11.902,2.556 18.915,10.999 18.974,22.842 0.135,27.05 -36.681,32.997 -45.809,7.4 -2.769,-7.766 0.216,-19.254 6.351,-24.443 6.129,-5.184 13.556,-7.286 20.484,-5.799 m 138,-0.005 c 6.781,1.443 12.135,5.223 15.67,11.064 1.941,3.207 3.53,8.532 3.53,11.83 0,20.605 -24.943,31.414 -39.839,17.263 -9.661,-9.176 -9.818,-24.305 -0.351,-33.71 5.701,-5.663 13.465,-8.048 20.99,-6.447"
       inkscape:connector-curvature="0"
       style="fill:#98d5fc;fill-rule:evenodd;stroke:none" />
    <path
       id="path4"
       d=""
       inkscape:connector-curvature="0"
       style="fill:#00ffff;fill-rule:evenodd;stroke:none" />
  </g>
</svg>
