<?xml version="1.0" encoding="UTF-8" standalone="no"?>
<!-- Generator: Adobe Illustrator 18.0.0, SVG Export Plug-In . SVG Version: 6.00 Build 0)  -->

<svg
   xmlns:dc="http://purl.org/dc/elements/1.1/"
   xmlns:cc="http://creativecommons.org/ns#"
   xmlns:rdf="http://www.w3.org/1999/02/22-rdf-syntax-ns#"
   xmlns:svg="http://www.w3.org/2000/svg"
   xmlns="http://www.w3.org/2000/svg"
   xmlns:sodipodi="http://sodipodi.sourceforge.net/DTD/sodipodi-0.dtd"
   xmlns:inkscape="http://www.inkscape.org/namespaces/inkscape"
   version="1.1"
   id="Capa_1"
   x="0px"
   y="0px"
   viewBox="0 0 58.84325 58.84325"
   xml:space="preserve"
   width="64"
   height="64"
   sodipodi:docname="user center.svg"
   inkscape:version="0.92.1 r15371"><metadata
     id="metadata43"><rdf:RDF><cc:Work
         rdf:about=""><dc:format>image/svg+xml</dc:format><dc:type
           rdf:resource="http://purl.org/dc/dcmitype/StillImage" /></cc:Work></rdf:RDF></metadata><defs
     id="defs41" /><sodipodi:namedview
     pagecolor="#ffffff"
     bordercolor="#666666"
     borderopacity="1"
     objecttolerance="10"
     gridtolerance="10"
     guidetolerance="10"
     inkscape:pageopacity="0"
     inkscape:pageshadow="2"
     inkscape:window-width="1440"
     inkscape:window-height="838"
     id="namedview39"
     showgrid="false"
     inkscape:zoom="5.6568543"
     inkscape:cx="20.079933"
     inkscape:cy="26.721186"
     inkscape:window-x="-8"
     inkscape:window-y="-8"
     inkscape:window-maximized="1"
     inkscape:current-layer="Capa_1" /><g
     id="g8"
     transform="matrix(0.08789064,0,0,0.08789064,-52.210649,34.431901)" /><g
     id="g10"
     transform="matrix(0.08789064,0,0,0.08789064,-52.210649,34.431901)" /><g
     id="g12"
     transform="matrix(0.08789064,0,0,0.08789064,-52.210649,34.431901)" /><g
     id="g14"
     transform="matrix(0.08789064,0,0,0.08789064,-52.210649,34.431901)" /><g
     id="g16"
     transform="matrix(0.08789064,0,0,0.08789064,-52.210649,34.431901)" /><g
     id="g18"
     transform="matrix(0.08789064,0,0,0.08789064,-52.210649,34.431901)" /><g
     id="g20"
     transform="matrix(0.08789064,0,0,0.08789064,-52.210649,34.431901)" /><g
     id="g22"
     transform="matrix(0.08789064,0,0,0.08789064,-52.210649,34.431901)" /><g
     id="g24"
     transform="matrix(0.08789064,0,0,0.08789064,-52.210649,34.431901)" /><g
     id="g26"
     transform="matrix(0.08789064,0,0,0.08789064,-52.210649,34.431901)" /><g
     id="g28"
     transform="matrix(0.08789064,0,0,0.08789064,-52.210649,34.431901)" /><g
     id="g30"
     transform="matrix(0.08789064,0,0,0.08789064,-52.210649,34.431901)" /><g
     id="g32"
     transform="matrix(0.08789064,0,0,0.08789064,-52.210649,34.431901)" /><g
     id="g34"
     transform="matrix(0.08789064,0,0,0.08789064,-52.210649,34.431901)" /><g
     id="g36"
     transform="matrix(0.08789064,0,0,0.08789064,-52.210649,34.431901)" /><circle
     style="opacity:1;fill:#006df0;stroke-width:1.27927661;fill-opacity:1"
     id="path4545"
     cx="29.421625"
     cy="29.421625"
     r="29.421625" /><circle
     style="opacity:1;fill:#f9f9f9;stroke-width:1.97605157"
     id="path4522-9"
     cx="29.421625"
     cy="29.421625"
     r="27.582773" /><g
     id="g6-9-1"
     transform="matrix(0.08789064,0,0,0.08789064,9.4256962,10.113687)"><path
       d="m 349.636,293.382 c 2.861,1.883 6.732,1.612 9.26,-0.725 2.285,-2.112 3.02,-5.504 1.83,-8.375 -1.143,-2.757 -3.87,-4.593 -6.854,-4.632 -3.194,-0.041 -6.122,2.052 -7.156,5.063 -1.086,3.162 0.115,6.823 2.92,8.669 z"
       id="path2-9-8"
       inkscape:connector-curvature="0"
       style="fill:#006df0" /><path
       d="m 429.52739,331.03349 h -24.977 c -2.353,-18.676 -13.493,-36.313 -32.584,-51.395 -3.251,-2.569 -7.968,-2.015 -10.534,1.235 -2.568,3.25 -2.015,7.966 1.235,10.534 10.958,8.657 23.759,22.185 26.722,39.625 h -31.382 c -4.143,0 -7.5,3.358 -7.5,7.5 0,4.142 3.357,7.5 7.5,7.5 h 31.375 c -3.264,19.254 -19.036,37.41 -45.25,51.769 -29.26,16.028 -67.762,25.259 -109.105,26.257 v -26.236 c 0,-4.142 -3.357,-7.5 -7.5,-7.5 -4.143,0 -7.5,3.358 -7.5,7.5 v 26.236 c -41.343,-0.998 -79.846,-10.23 -109.10501,-26.257 -26.213995,-14.359 -41.985995,-32.514 -45.249995,-51.769 h 31.375 c 4.142995,0 7.499995,-3.358 7.499995,-7.5 0,-4.142 -3.357,-7.5 -7.499995,-7.5 h -31.384 c 3.297,-19.662 19.02,-34.518 32.458,-43.875 20.259005,-14.108 48.277005,-24.647 79.586005,-30.063 v 60.277 c 0,15.804 12.857,28.661 28.661,28.661 8.372,0 15.916,-3.609 21.16,-9.352 5.245,5.743 12.789,9.352 21.161,9.352 15.804,0 28.66,-12.857 28.66,-28.661 v -60.273 c 15.63,2.688 30.392,6.62 43.966,11.75 0.873,0.33 1.769,0.486 2.65,0.486 3.029,0 5.882,-1.849 7.017,-4.851 1.465,-3.875 -0.489,-8.203 -4.364,-9.667 -15.205,-5.746 -31.755,-10.082 -49.269,-12.933 v -6.905 h 4.706 c 13.947,0 25.294,-11.347 25.294,-25.294 v -75.363 c 0,-27.429 -19.033,-50.483004 -44.582,-56.683 11.087,-9.781 18.101,-24.079 18.101,-39.992 0,-29.41 -23.928,-53.338 -53.34,-53.338 -29.411,0 -53.339,23.928 -53.339,53.339 0,15.913 7.013,30.211 18.1,39.992 -25.55,6.199996 -44.583,29.255 -44.583,56.683 v 75.363 c 0,13.947 11.347,25.294 25.294,25.294 h 4.706 v 6.893 c -34.468,5.644 -65.57801,17.251 -88.158005,32.976 -22.743,15.837 -36.357,35.553 -39.027,56.185 h -24.994 c -4.143,0 -7.5,3.358 -7.5,7.5 0,4.142 3.357,7.5 7.5,7.5 h 24.973 c 3.121,24.852 21.736,47.681 53.213995,64.924 31.40901,17.205 72.46901,27.09 116.31301,28.104 v 8.493 c 0,4.142 3.357,7.5 7.5,7.5 4.143,0 7.5,-3.358 7.5,-7.5 v -8.493 c 43.844,-1.014 84.902,-10.899 116.312,-28.104 31.479,-17.243 50.094,-40.072 53.215,-64.924 h 24.973 c 4.143,0 7.5,-3.358 7.5,-7.5 0,-4.142 -3.357,-7.5 -7.5,-7.5 z m -240.338,-293.386 c 0,-21.14 17.199,-38.339 38.339,-38.339 21.141,0 38.34,17.199 38.34,38.339 0,21.14 -17.199,38.339 -38.34,38.339 -21.14,10e-4 -38.339,-17.198 -38.339,-38.339 z m -26.482,172.038 v -75.363 c 0,-23.896 19.44,-43.336004 43.336,-43.336004 h 42.971 c 23.896,0 43.336,19.440004 43.336,43.336004 v 75.363 c 0,5.676 -4.618,10.294 -10.294,10.294 h -4.706 v -83.156 c 0,-4.142 -3.357,-7.5 -7.5,-7.5 -4.143,0 -7.5,3.358 -7.5,7.5 v 90.656 89.893 c 0,7.533 -6.128,13.661 -13.66,13.661 -7.533,0 -13.661,-6.128 -13.661,-13.661 v -89.893 c 0,-4.142 -3.357,-7.5 -7.5,-7.5 -4.143,0 -7.5,3.358 -7.5,7.5 v 89.893 c 0,7.533 -6.128,13.661 -13.66,13.661 -7.533,0 -13.661,-6.128 -13.661,-13.661 v -180.549 c 0,-4.142 -3.357,-7.5 -7.5,-7.5 -4.143,0 -7.5,3.358 -7.5,7.5 v 83.156 h -4.706 c -5.677,0 -10.295,-4.617 -10.295,-10.294 z"
       id="path4-2-8"
       inkscape:connector-curvature="0"
       style="fill:#006df0" /></g></svg>